<svg xmlns="http://www.w3.org/2000/svg" width="400" height="240" viewBox="0 0 400 240" role="img" aria-label="ñ©;˜„È">
  <rect width="400" height="240" fill="#0f1419"/>
  <rect width="400" height="44" fill="#1a2332"/>
  <rect x="16" y="14" width="70" height="16" rx="3" fill="#7dd3fc"/>
  <rect x="120" y="16" width="36" height="10" rx="2" fill="#3d4f63"/>
  <rect x="164" y="16" width="36" height="10" rx="2" fill="#3d4f63"/>
  <rect x="208" y="16" width="36" height="10" rx="2" fill="#7dd3fc" opacity="0.6"/>
  <rect x="16" y="60" width="280" height="20" rx="2" fill="#fff" opacity="0.9"/>
  <rect x="16" y="88" width="200" height="10" rx="2" fill="#6b7280"/>
  <line x1="16" y1="120" x2="384" y2="120" stroke="#2a3441"/>
  <rect x="16" y="132" width="160" height="12" rx="2" fill="#e8eaed"/>
  <rect x="16" y="152" width="120" height="8" rx="2" fill="#6b7280"/>
  <line x1="16" y1="172" x2="384" y2="172" stroke="#1f2937"/>
  <rect x="16" y="184" width="140" height="12" rx="2" fill="#e8eaed"/>
  <rect x="0" y="208" width="400" height="32" fill="#1a2332"/>
  <circle cx="50" cy="224" r="4" fill="#7dd3fc"/>
  <circle cx="130" cy="224" r="4" fill="#3d4f63"/>
  <circle cx="210" cy="224" r="4" fill="#3d4f63"/>
  <circle cx="290" cy="224" r="4" fill="#3d4f63"/>
  <circle cx="370" cy="224" r="4" fill="#3d4f63"/>
</svg>
