<svg xmlns="http://www.w3.org/2000/svg" width="400" height="240" viewBox="0 0 400 240" role="img" aria-label="žż;śä╚">
  <rect width="400" height="240" fill="#f5f5f7"/>
  <rect width="400" height="48" fill="#ffffff" stroke="#e5e5e5"/>
  <rect x="20" y="16" width="80" height="16" rx="4" fill="#111"/>
  <rect x="140" y="18" width="40" height="12" rx="3" fill="#ddd"/>
  <rect x="190" y="18" width="40" height="12" rx="3" fill="#ddd"/>
  <rect x="240" y="18" width="40" height="12" rx="3" fill="#ddd"/>
  <rect x="320" y="14" width="60" height="20" rx="10" fill="#111"/>
  <rect x="30" y="68" width="340" height="80" rx="12" fill="#ffffff" stroke="#e5e5e5"/>
  <rect x="50" y="88" width="200" height="14" rx="4" fill="#111"/>
  <rect x="50" y="110" width="260" height="10" rx="3" fill="#ccc"/>
  <rect x="30" y="164" width="105" height="56" rx="8" fill="#ffffff" stroke="#e5e5e5"/>
  <rect x="147" y="164" width="105" height="56" rx="8" fill="#ffffff" stroke="#e5e5e5"/>
  <rect x="264" y="164" width="105" height="56" rx="8" fill="#ffffff" stroke="#e5e5e5"/>
</svg>
