<?xml version="1.0" standalone="no"?><!DOCTYPE svg PUBLIC "-//W3C//DTD SVG 1.1//EN" "http://www.w3.org/Graphics/SVG/1.1/DTD/svg11.dtd"><svg t="1784020699563" class="icon" viewBox="0 0 1024 1024" version="1.1" xmlns="http://www.w3.org/2000/svg" p-id="3984" xmlns:xlink="http://www.w3.org/1999/xlink" width="200" height="200"><path d="M199.991362 114.319285l-0.392525 8.481948-3.174331 2.218618c-17.808677-3.703386-36.206142 5.119888-45.865664 20.104094-28.014321 43.433717 17.766012 102.431894 51.147682 129.729431 8.67821 7.091045 40.950572 28.910301 50.285835 31.768905 6.42546 1.971157 4.317772-0.793583 5.674542-4.360438 7.568901-19.890765 7.500636-34.704308 6.519324-56.003042-10.913895 1.919958-30.104942-1.245839-15.974051-14.241822l110.393321 17.876942c96.450158 13.687167 196.526904 13.866364 294.248501 3.507124v10.700566c-15.427929 1.297038-27.621796 3.447391-44.560092 3.575388-5.853739 0.042666-16.648169-2.628209-19.626238 3.558322-4.752963-0.059732-9.514459 0.051199-14.267421 0-42.674267-0.477856-85.698393-0.477856-128.372661 0-5.930537 0.068265-11.90374-0.085331-17.825744 0l-149.773793-17.834276c7.073979 39.585268-15.299932 69.895006-24.21707 105.939017-5.162554 20.889143-9.932583 53.263902-7.935827 74.340775 0.401058 4.249507 3.575389 4.838294 3.618054 5.145488 5.77694 37.631177 10.666434 50.038373 35.660021 78.445218 83.070184 94.436336 268.555196 100.580201 377.984271 53.485765l3.549789 1.783427c-3.925248 3.430325-7.75663 6.86065-7.116644 12.483994l-10.837097 5.486814c-4.787095 36.760796 13.200778 64.100999 30.514533 94.325404 4.898026 1.35677 18.388931-7.500636 23.124828-10.666433l3.174331 2.218618 0.392525 8.481948c-3.728985 2.645276-20.940342 14.881808-21.256069 16.366576 0.494923 11.613613 9.557124 18.499862 14.122358 26.427155 1.638364 2.850071 1.723696 8.755009 5.435614 14.18209 4.863894 7.108111 16.212979 16.690835 24.874123 17.902542 37.119189 5.162554 40.24232-23.304024 37.434915-53.477231-0.571721-6.152399-4.479902-11.391751-3.566855-17.825743l0.383992-15.72659 3.17433-2.107687 11.221088 28.005788c73.001071 32.135831 99.121033 143.792057 77.924697 214.472112l-3.174331-2.218619-0.392524-8.481948c9.59979-43.860375-3.191397-107.696846-25.522642-147.418644-8.149155-14.497816-28.270315-39.909528-44.013972-45.131813-2.355149-0.78505-2.670875 3.276728-1.766361 5.333216 3.251129 7.432371 27.186606 24.396267 33.774195 33.961925 3.763118 5.461214 3.746051 11.178422 5.435614 14.18209h-14.267421c-0.981312-3.046333-6.911849-14.651413-8.993937-17.748946-3.285262-4.872427-10.692033-11.323486-15.956984-14.34422-1.851693 7.722498 6.203598 9.43766 8.883006 14.284488 8.772075 15.828987 12.091469 35.642954 12.50106 53.468698 0.16213 7.099578-0.102398 14.293021 0 21.392599h-3.549789l-1.715163-24.959454h-1.851693c-1.493301-14.608747-8.166222-36.538935-19.617704-46.352054-2.884204 1.399436-2.269817 5.648943-5.196687 9.036603-21.315801 24.763192-49.313055 17.885476-71.465104-1.911425-0.511989-0.46079-2.414881 0.025599-3.071933-2.210085-0.92158-3.123132-0.068265-6.843584-0.92158-9.949649l-3.140198-2.107688h-3.566855c0.62292-6.800918 0.230395-6.817984-3.566856-10.700566-4.394571-4.496968-2.76474-2.218618-7.125177 1.791961-16.144714 14.830609-32.280894 47.410164-38.493026 68.487036-11.186955 37.955437-12.006138 99.590356 2.824472 136.547416-2.508745 0.878914-4.693231 2.57701-7.133711 3.566855l-10.700566-35.66002h-58.836047c-0.477856 0-4.155642-5.31615-8.908605-3.558323-0.247461 41.394295 31.461712 35.788018 60.610941 42.785199 2.833005 0.682652 11.024826 5.555079 18.03054 5.196686 3.728985 0.767983 4.915093 3.344994 6.928915 5.50388-7.270241 2.995135-10.674967 2.269817-17.791611 1.902891-18.022006-0.947179-49.091194-4.249507-64.135132-14.463683-3.694853-2.508745-8.106489-7.219042-10.137378-11.263754-9.053669-18.056139-12.919184-46.753111-18.952119-66.626811l-5.17962-5.520946-33.40727-0.127997c-6.26333 27.852191-12.82532 55.678783-25.693305 81.286757-13.277576 5.486813-26.939144 11.41735-41.198033 14.071159-6.041468 1.126375-26.70875 4.275107-31.333715 4.28364-4.573767 0.008533-26.213827-6.792385-28.705506-10.470172-5.648943-8.345418 1.919958-23.636817 5.529479-32.272361-13.994361-1.109309-29.439357 4.394571-39.226876-7.142244l2.099154-3.17433c9.906983-1.783428 20.820878 1.868759 29.994011-2.099154v-1.851693c-0.529055-4.5567 0.767983-10.017914 0-14.267422v-10.709099l7.133711 0.008533c0.708251 3.746051 4.855361 8.490481 3.839916 13.994361 22.271513 4.394571 49.910376 5.956136 72.745077 3.754584 7.073979-0.682652 23.210159-3.609521 26.461288-9.198732l4.095911-28.082586-6.817985-2.252751-0.477856-10.308041c18.260934 4.684698 39.900994 4.761496 58.989644 3.720452 6.177998-0.332793 13.013049-4.932159 17.646548-3.728985 8.54168 2.210085 3.472991 11.494149-5.171087 10.879762l7.065445 35.395493 71.226177 3.652187v-51.702337c0-0.401058 3.080466-3.19993 3.600988-7.073978 2.534345-18.977719-4.044712-20.769679-14.301554-33.927792l-2.099155-3.174331-19.293445-0.392525c-1.066643-4.770029 1.587165-6.817984 3.558323-10.692032 2.090621-0.426657 4.821228 0.341326 7.125177 0v-17.834277l0.008533-1.851693-24.925321-1.783428c-0.563188-2.261284 0.452257-5.136954-0.042666-7.065445-1.535966-5.990269-14.241822-10.38484-19.668904-17.928142-2.00529-2.790339-1.109309-5.410015-1.732228-7.031313v-7.125177l5.34175-0.008534c2.466079 0.554655 1.527433 3.925248 5.358816 7.133711 6.331595 5.307617 27.00741 21.554729 33.816861 21.435265l61.950645-14.822076 14.514883-19.557973c-5.597744-44.841687-43.041193-79.349732-38.970881-126.119909-9.173133-0.938646-5.708675-0.16213-7.219043 5.145487-3.029267 10.623768-8.268619 13.653035-14.165023 23.380822l-5.04309-0.375458-2.090621-3.191397c2.261284-3.600988 1.570099-7.355573 7.133711-14.267422 0.221862-0.273061 2.807405 0.127997 3.558322-1.774894v-5.358816c-4.130043 0.375458-8.763542-0.742384-12.697323-0.076799-4.821228 0.810649-4.821228 3.558322-5.128421 3.635121-16.844432 4.343372-40.609246 9.318196-57.052619 10.700566-2.346615 0.196262-4.770029-0.13653-7.133711 0-37.793307 2.193019-96.270962-1.38237-131.939516-14.267421-0.537588-0.196262-0.486389-3.003668-1.766361-3.558323h-5.36735l3.490057 12.253599-3.490057 2.00529c-1.553033-2.193019-8.225954-10.649367-8.917138-10.6835-2.414881 0.59732-1.442102 3.174331-1.774895 3.549789-5.862272 6.579056-2.252751 7.731031-3.566855 14.267421-1.134909 5.623344-2.261284 12.552259-3.566856 17.825744h-7.13371v-10.700566c0.204796-1.151975-0.179196-2.406347 0-3.566855l3.17433-2.090621c0.409591-6.203598 1.05811-13.209311 0.383992-19.301978-0.998378-9.062202-3.950847-10.162978-12.449861-13.260511l-41.044436 20.394221-10.700567-7.13371c4.334839-3.413259 8.24302-7.176376 13.047182-10.137379 2.824472-1.740762 19.481174-8.499014 19.037451-9.471793-41.1895-23.508819-78.120959-50.072505-96.979214-95.571244-22.322712-53.861223-11.826941-107.065393 4.09591-160.849818-19.216647-14.455151-41.710022-24.293869-60.295215-39.704732-43.587314-36.14641-93.77075-118.167017-34.098455-162.163922 6.348661-4.684698 21.111005-10.188577 28.765238-10.743231 4.915093-0.358392 10.6579 2.44048 15.880187 3.686319z m445.728924 641.863303l-39.226876 10.692033 3.754584 17.655081 24.993587-1.399436 10.487238-26.947678z m-183.641853 149.756726c-23.039496 2.585543-54.253747 0-78.445219 0-0.827715 0-4.804162-6.792385-5.358816-1.774894l6.391327 14.258888c-14.659946 24.370667-4.462836 28.910301 20.513685 26.896479 6.613189-0.537588 21.409665-2.892737 27.690062-4.403104 21.213403-5.094289 27.587664-13.064248 34.533645-33.228073 0.767983-10.930961-3.353527-1.971157-5.324684-1.749296z" fill="#4B281F" p-id="3985"></path><path d="M403.242386 599.283617c1.962624 13.738366 16.426308 26.887946 26.674617 35.728286 21.281668 18.354799 42.290276 29.635619 66.038023 42.716933 3.600988 1.97969 8.627011 8.234487 12.876518 10.52137h2.773273c19.575039-14.523416 43.501982-22.152049 62.641831-37.417849 4.087377-3.259662 30.983856-28.133785 32.246762-30.15614l2.090621 3.191396 5.043089 0.375459c-14.284488 23.534419-29.669751 30.96679-49.483718 48.579205l-0.443724 61.959179c-3.831383-3.208463-2.892737-6.579056-5.358816-7.133711h-5.333216v7.133711c-0.110931-0.290127-2.653809-0.503456-3.037801-2.312483-1.237306-5.538012-0.92158-11.229621-0.008533-16.776167 0.273061-1.65543 3.029267-2.11622 3.046334-2.312483v7.125178h3.558322c0.273061-4.360438 1.092243-8.900072-3.558322-10.692033 0.913047-10.376307-0.639986-21.588861 0-32.093165l-37.622645 21.20487c-1.561566 9.702188-5.666009 47.017639 4.061778 49.807978l27.92899 0.588787 5.981736 10.06058 21.051273 0.349859c0.494923 1.919958-0.520522 4.795629 0.042665 7.065446l24.925322 1.783427v1.851693l-42.785198-3.566855-0.017066 24.967987c13.106914 1.723696 23.474687-1.100776 35.668554-3.575388-1.971157 3.874049-4.624966 5.922004-3.558323 10.692033l19.293445 0.392524 2.099154 3.174331c-9.46326 0.238928-19.071583-0.341326-28.526309 0-3.268195-10.692033-15.649791-6.596122-24.959455-7.125177v7.125177h7.125178c-10.777364 1.919958-12.654657 12.859452-16.340976 13.968761-23.133361-1.885825-52.478853 3.558322-74.690634 0.401058-10.162978-1.442102-7.193443-10.487237-10.837097-10.990693-17.714813 4.189775-48.033083-11.084558-63.503678-6.502258-6.280396 1.860226-21.153671 23.030963-34.311784 20.965942-0.75945 4.616432 3.140198 8.234487 3.52419 12.50106 1.297038 14.216223 0.938646 30.463334 3.609521 44.52596h-7.133711v10.700566c-4.812695-26.580752-8.780608-55.67025-14.18209-83.880833-1.390903-7.278774 2.790339-14.48075-5.427081-19.506773-12.057336 11.801342-23.363756 5.375882-37.443448 3.549789-0.793583 15.530327 3.123132 31.965168 8.831807 46.428851 2.082088 5.273485 6.672921 8.806208 8.260086 13.132513 6.280396 17.117493 9.582724 36.888794 15.154868 54.381745l24.797325 0.16213v1.851693c-9.1646 3.967913-20.087028 0.307193-29.994011 2.099154l-2.099154 3.17433c-0.469323-0.546121-2.841538-0.127997-3.020734-2.269817-0.989845-12.714389-6.928915-23.961076-10.52137-35.890415-7.116644-23.636817-20.368621-43.587314-22.28858-70.458193-0.537588-7.475037 2.918336-14.881808 2.722074-18.107338-0.093865-1.476234-8.618478-12.108535-9.156066-18.312133-0.511989-5.93907 5.870805-10.436039 5.853738-13.627435-0.034133-6.297462-22.672571-30.94119-27.25487-39.755931-23.986676-46.172857 7.133711-84.188026 42.273209-111.809823l10.700566 7.133711c0.520522 0.913047-3.541256 5.469747-3.618054 8.925671-0.093865 4.28364 27.135407 46.565382 30.378002 48.118415 6.331595 3.0378 7.517702-10.760298 11.920806-13.030115 3.310861-6.186531 10.342174-21.102472 11.246688-26.188228v10.7091l7.133711-0.008534c-5.299084 21.469397-18.201202 30.693729-24.200005 48.894932-3.054867 9.266997-10.913895 44.423562-6.280396 51.122082l78.590282 21.452331c2.687941-0.213329 26.282092-15.436463 28.586042-18.022006 8.524614-9.574191 1.749295-14.293021 1.587166-23.073629-0.264528-14.147957 0.964246-28.36418-0.281594-42.486538-16.699368-17.305222-37.759175-31.640908-53.101773-50.294367-3.455924-4.198308-4.514035-8.951271-7.065446-12.552259l3.490058-2.00529-3.490058-12.253598h5.36735c1.288505 0.554655 1.228773 3.36206 1.766361 3.558322zM299.837713 727.647745c8.132089 10.094713 4.74443 27.365802 23.269891 28.714039 6.280396 0.46079 10.145912-3.754585 15.956985-3.754585 3.353527-8.883006-7.372639-13.371441-7.270241-19.52384 0.102398-6.203598 5.589211-28.910301 7.270241-37.520246 0.059732-0.307193 3.003668-0.776516 3.618054-5.145488 2.517278-17.783078-7.935827-21.972853-15.939918-34.234985-7.628633-11.690411-13.311709-24.293869-21.554729-35.480824-28.756705 26.870879-42.913195 60.952268-17.740412 96.160031 3.626587 5.068689 10.256842 8.149155 12.390129 10.794431z m203.251024-32.093165l-35.651488-17.825744c0.605853 11.238154-0.793583 22.783502-0.16213 34.03019 0.827715 14.651413 8.84034 15.743656-3.327927 32.007833l-17.911075 14.190623c0 3.097532 12.919184 2.329549 15.760722 1.484768 5.77694-1.715163 4.249507-10.111779 7.679832-10.581102l33.620599 0.179196v-53.485764z m-42.785198 74.878363c-12.279198 2.645276-23.406422-2.218618-33.944858-3.49859-5.862272-0.708251-12.04027 0.776516-17.697747-0.127997-18.92652-3.046333-36.462136-11.289353-55.337457-14.190623-3.746051 25.718904 6.297462 26.341824 27.562064 31.265449 26.307692 6.084134 53.076173 7.116644 79.400931 11.519749v-24.959455z m14.258888-10.692033c1.663964 9.744854-3.763118 39.94366 3.421792 44.722223h64.476457c6.229197-4.138576 5.17962-44.722222-1.928491-44.722223h-65.969758z m-135.506372 10.709099l-35.651487-7.13371c-0.341326 16.562838 28.338581 20.761146 35.651487 7.13371z m46.360587 24.959455l-24.950921-7.142244c-3.515656 22.527508 14.933007 22.39951 24.950921 7.142244z" fill="#522D23" p-id="3986"></path><path d="M688.514017 741.915166c-0.861848 9.43766-14.591681 24.421866-17.143092 38.117567-1.211707 6.519324-0.418124 12.535193-0.691185 18.935053-0.486389 11.639212-0.366925 23.995209 0 35.660021 0.085331 2.815938-0.520522 5.683076 0.392525 8.473414l3.17433 2.227152c2.244218 44.397963 52.077795 78.180691 93.753684 59.877091 17.936675-7.876095 30.122008-27.664462 36.530402-45.481673 8.191821-22.783502 8.575813-48.229346 5.222286-71.448038-1.05811-7.355573-1.305571-17.919608-3.566856-24.959454h14.267422c26.879412 47.708824 43.032659 122.740784 8.823274 171.063994-5.836672 8.24302-21.409665 14.770877-1.70663 17.928141 4.394571-11.972005 13.482372-20.727014 18.576661-33.142742 1.570099-3.831383 5.973203-14.813543 6.39986-16.7847l0.392525 8.481948 3.17433 2.218618c-2.594077 8.635545-2.346615 13.081314-7.688365 22.612839-4.624966 8.251553-19.327578 30.04521-29.311359 26.990344-4.590833-3.234063-8.831807-6.53639-12.919184-10.376307-2.27835-9.096335 3.472991-10.879762 7.167843-16.016716 6.058534-8.439282 13.42264-15.632725 17.040694-25.744504 6.485192-18.115871 8.24302-42.537737 7.884628-61.643453l-7.867562 33.134209c-3.490057 5.333217-4.590833 12.722922-7.125177 17.834277-3.404726 6.877716-22.664038 34.772573-27.792459 38.177299-5.418548 3.592455-37.579979 13.482372-44.662491 14.199156-19.916365 2.013823-52.811646-11.485616-67.727586-24.83999-8.447815-7.568901-12.885052-17.945208-19.549439-26.819681-1.826093-3.464458-6.843584 2.57701-7.133711 3.592455-0.972779 3.447391 3.626587 25.684772 5.162554 30.471868 6.26333 19.49824 31.956635 43.339853 51.727936 48.101348 3.131665 0.750917 6.041468-1.629831 10.802964-0.409591 8.772075 2.261284 28.918835 7.773697 28.705505 18.022006-0.025599 1.322638-3.490057 15.632725-4.172708 17.433219-0.639986 1.68103-1.38237 3.174331-2.909803 4.223908-6.203598 4.309239-29.558821 0.870381-35.941615-3.635121-3.097532-2.193019-3.626587-7.824896-7.005713-10.828563-6.689987-5.930537-24.157339-11.60508-33.961925-19.52384-12.33893-9.966715-17.535617-22.373911-26.68315-32.16143-2.013823-2.158886-3.19993-4.735896-6.928915-5.50388-7.005714 0.366925-15.206068-4.514035-18.030539-5.196686 5.085756-0.255994 10.709099 0.92158 15.607125-0.452257 1.902892-0.529055 2.030889-3.0378 2.227152-3.114599 2.44048-0.989845 4.624966-2.687941 7.13371-3.566855 7.773697 19.370243 32.46009 44.440629 51.011152 54.176949 6.408393 3.36206 12.509593 7.577434 20.300356 6.433993l-33.936325-24.89119c-55.081463-45.464606-48.178147-142.844878-20.317422-202.303844l25.727438-40.233788c3.79725 3.882582 4.189775 3.891115 3.566855 10.700567z m-32.093165 53.485765v58.836047c0 1.407969 7.32144 22.928565 8.865939 26.794081 33.663264 84.461087 135.941562 81.235558 157.999747-9.702188 0.887447-3.669253 4.300706-16.195913 4.300706-17.091893v-60.619475c0-0.639986-4.906559-5.000424-3.575389-8.908605h-3.558322v73.094935c0 11.076025-17.05776 44.005438-24.899722 53.55403-28.790837 35.0627-79.110804 29.26016-107.099526-3.566856-24.882656-29.174829-27.800992-63.42688-28.466578-99.906083-0.076798-4.326305 2.653809-13.311709-3.566855-12.47546z m117.672094 117.672094c-19.412909 11.221088-36.957059 8.200354-56.907556 1.638364-6.092667-2.00529-11.067491-4.130043-3.754584 3.754585 21.699792 8.54168 43.868908 10.674967 64.228996-1.826093 3.737518-2.295416 22.049651-16.62257 17.81721-21.392599-7.833429 3.950847-13.900496 13.499438-21.384066 17.825743z m-32.084632 82.020607l-21.230469 0.170663-3.746051 17.655081 19.455574 3.49859c7.969959-4.872427 5.358816-13.269043 5.529479-21.324334z" fill="#56301D" p-id="3987"></path><path d="M806.186111 952.299901c-4.403104-4.147109-7.731031-9.053669-10.700566-14.267421 5.128421-3.396192 24.387734-31.299583 27.79246-38.177299 2.534345-5.111355 3.635121-12.50106 7.125177-17.834277l7.867561-33.134209c0.366925 19.105716-1.399436 43.527582-7.884627 61.643452-3.618054 10.120312-10.98216 17.313755-17.040694 25.744504-3.686319 5.136954-9.43766 6.920382-7.167844 16.016717z" fill="#E0DBD4" p-id="3988"></path><path d="M428.210373 271.218255c-8.609945 0.119464-32.835549-3.19993-35.36136 5.64041-5.96467 27.553531 19.805434 42.742532 44.397963 40.86524 24.345068-1.860226 25.590907-32.340626 8.789141-46.50565 42.674267-0.477856 85.698393-0.477856 128.372661 0-12.603458 14.523416-21.102472 29.755083-3.66072 44.671024 17.996407 5.887871 51.98393-1.527433 56.557697-22.075251 6.766785-30.395069-16.409241-22.331245-38.629556-22.595773 2.969535-6.186531 13.763966-3.507123 19.626238-3.558322 16.938296-0.127997 29.132163-2.27835 44.560093-3.575389 21.375533-1.800494 38.057835-4.12151 58.895779-7.073978 10.623768-1.501834 22.911499-1.834627 33.808327-3.635121-6.212131 36.888794 11.698944 65.398037 20.530752 98.933304 6.971581 26.486888 9.096335 48.32321 7.995558 75.799943h-3.566855c-0.093865-0.29866-3.413259-1.809027-4.368971-4.514034-1.160508-3.293795-1.911425-7.850495-2.76474-9.753387-8.558746-19.06305-46.130192-18.994785-64.18633-17.825744-24.490131 1.578632-31.009456 10.22271-49.918909 17.825744-14.753811 5.93907-30.420668 8.490481-46.352053 7.133711-29.772149-8.08089-49.773845-35.0627-80.288379-39.167144-19.796901-2.662342-43.245988 4.437236-60.073353 14.685545-18.92652 11.528281-20.624616 17.322288-45.055016 24.473066-7.099578-0.196262-14.301554 0.29866-21.392599 0l-2.227151-3.174331c-2.756206-1.08371-5.896404-0.051199-8.473415-0.392525-6.314529-0.827715-7.987025-0.503456-14.267421-3.566855-15.572993-7.603034-31.760372-16.332443-49.918909-17.825744-9.958182-0.819182-27.92899-1.288505-37.434915 0-14.600214 1.988223-36.223208 26.290625-33.876593 42.785198-0.051199-0.307193-3.216996-0.89598-3.618054-5.145487-2.00529-21.076873 2.76474-53.451632 7.935826-74.340775 8.917138-36.052545 31.291049-66.35375 24.217071-105.939018l149.773793 17.834277z m227.433962 99.940216c0-23.150427-18.76439-41.914817-41.914817-41.914818s-41.914817 18.76439-41.914817 41.914818 18.76439 41.914817 41.914817 41.914817 41.914817-18.76439 41.914817-41.914817z m-248.835094-7.236109c-9.642456-2.047955-47.341899 3.686319-42.776665 19.609171 3.848449 13.42264 23.867212-0.878914 30.301205-1.774894 7.48357-1.041044 24.575463-1.015444 32.093165 0 10.103246 1.373837 19.19958 15.40233 23.312557-1.791961 1.075176-8.652611-7.978492-16.033783-14.549016-21.230469-12.646124-10.017914-42.623068-27.681528-58.392323-23.030963-17.936675 17.458818 10.632301 19.045984 22.902966 22.868833 3.52419 1.100776 8.097956 0.750917 7.108111 5.34175z" fill="#F7C17D" p-id="3989"></path><path d="M602.935088 420.983515c0.29866 0.085331 0.349859 2.952469 5.102821 3.643653 5.136954 0.750917 10.990693-0.546121 16.298311-0.076798 2.269817 8.260086-4.275107 15.86312-3.703386 23.005364 0.375458 4.650565 3.165797 19.438508 4.377504 24.447466 6.817984 28.142318 30.258539 42.367074 58.238727 45.191545 14.659946 1.476234 27.126874-8.473415 42.298809-0.204795 19.293445-20.12116 33.356071-45.131813 37.981037-72.91574l-9.224332-19.566506 9.087801-10.649367c0.853315 1.902892 1.604232 6.459592 2.76474 9.753387 0.955712 2.705008 4.275107 4.206841 4.368971 4.514035 1.5445 5.171087-1.032511 15.189001 0 21.392599-16.264178 58.434989-51.070884 97.175476-106.971529 121.23895-109.420542 47.094437-294.905554 40.942038-377.984271-53.485765l72.600013-7.637166 37.503181-33.808328 3.993512-51.267146c4.078844-0.418124 8.891539 0.887447 12.697323 0.076799 4.898026-1.041044 4.846827-3.549789 5.145487-3.635121 24.430399-7.15931 26.128496-12.953317 45.055015-24.473065 16.835899-10.248309 40.276453-17.347887 60.073354-14.685546 30.523066 4.09591 50.524762 31.077721 80.288378 39.167144zM478.794868 434.593884c0.802116 0.836248 17.774545 10.376307 19.532373 10.768831 13.055715 2.926869 35.472291-0.861848 44.184634-11.698944 11.340552-14.113825 6.357194-27.289004-9.889917-33.287806-21.981386-8.123556-51.949798-5.683076-60.815738 18.841188 3.148731 3.669253 4.735896 13.038648 6.988648 15.385264z m-7.799297 11.357618c-11.716011-0.648519-12.219466 9.821652-10.128845 19.06305 5.410015 23.909877 32.084632 33.731529 47.836821 13.115447 4.872427-1.416502 21.307268 22.203248 38.928216 3.447391 6.502258-6.920382 18.286534-29.183362 7.167843-35.608821-9.958182 5.333217-7.142244 14.497816-10.632301 21.443798-6.689987 13.337308-24.200004 5.555079-32.101698-3.046334-12.270665 5.725742-19.421442 18.414531-33.415803 9.574191l-7.654233-27.988722z" fill="#F9F0DF" p-id="3990"></path><path d="M371.149221 877.413005c-2.670875-14.062626-2.312483-30.309737-3.609521-44.52596-0.392525-4.266573-4.292173-7.884628-3.52419-12.50106 13.158112 2.065022 28.022854-19.105716 34.311783-20.965942 15.479128-4.5823 45.788866 10.6835 63.503679 6.502258 3.643654 0.503456 0.682652 9.548591 10.837096 10.990693 22.211781 3.157264 51.565806-2.286883 74.690634-0.401058 3.686319-1.109309 5.563612-12.048803 16.340976-13.968761 5.051623-0.89598 12.176801 0.204796 17.825744 0 9.454727-0.341326 19.06305 0.238928 28.52631 0 10.256842 13.158112 16.835899 14.950073 14.301554 33.927791-0.520522 3.882582-3.600988 6.681454-3.600988 7.073979v51.702337l-71.226176-3.652187-7.065446-35.395493c8.644078 0.614387 13.704234-8.669677 5.171087-10.879762-4.633499-1.203174-11.468549 3.396192-17.646548 3.728985-19.088649 1.041044-40.72871 0.964246-58.989644-3.720452l0.477857 10.308041 6.817984 2.252751-4.09591 28.082586c-3.251129 5.589211-19.38731 8.516081-26.461289 9.198732-22.834701 2.201552-50.482097 0.639986-72.745076-3.754584 1.015444-5.512413-3.131665-10.248309-3.839916-13.994361z" fill="#5B5452" p-id="3991"></path><path d="M795.485545 795.400931c2.705008 26.52102-2.030889 70.364329-25.061852 87.268492-26.879412 19.720102-61.592254 8.37955-75.552482-20.530751-10.589635-21.930187-10.674967-55.192394-5.691609-78.547617 1.826093-8.575813 7.082512-18.875321 10.026448-27.417 22.152049 19.796901 50.149304 26.674617 71.465104 1.911425 2.918336-3.396192 2.312483-7.6457 5.196687-9.036603 11.451483 9.813119 18.124404 31.743306 19.617704 46.352054z" fill="#EEECE2" p-id="3992"></path><path d="M396.117208 609.97565c2.551411 3.600988 3.618054 8.353951 7.065446 12.552259 15.342598 18.653459 36.402404 32.997679 53.101772 50.294368 1.245839 14.130891 0.017066 28.338581 0.281594 42.486538 0.16213 8.780608 6.937448 13.499438-1.587165 23.073629-2.30395 2.594077-25.898101 17.817211-28.586042 18.022006l-78.590282-21.452331c-4.633499-6.69852 3.225529-41.855085 6.280396-51.122083 6.007335-18.209735 18.909453-27.425534 24.200004-48.894931 1.297038-5.273485 2.431947-12.2024 3.566856-17.825744l3.17433-2.158886 0.392525-12.100002c0.341326-0.375458-0.639986-2.952469 1.774895-3.549789 0.691185 0.034133 7.364106 8.490481 8.917138 10.6835z" fill="#8D532E" p-id="3993"></path><path d="M613.62712 624.243072c5.904938-9.727787 11.135757-12.757054 14.165024-23.380822 1.5189-5.307617-1.945557-6.084134 7.219042-5.145488-4.070311 46.770178 33.373137 81.278223 38.970882 126.11991l-14.514883 19.557972-61.950646 14.822076c-6.809451 0.110931-27.485266-16.136181-33.816861-21.435264l0.443724-61.959179c19.813967-17.612415 35.199231-25.044786 49.483718-48.579205z" fill="#8E532D" p-id="3994"></path><path d="M535.181902 613.542506c-4.368971 8.951271-15.521794 3.080466-19.404376 3.618054-5.171087 0.708251-6.579056 7.713965-0.230395 10.615235 8.422216-9.045136 17.484418 3.242596 25.437311-3.0634l1.322637-11.169889c16.443374-1.38237 40.208188-6.357194 57.05262-10.700566l12.100002 0.392524 2.158886 3.174331c-5.563612 6.911849-4.872427 10.6579-7.13371 14.267422-1.271439 2.022356-28.159384 26.896479-32.246762 30.15614-19.139848 15.2658-43.066792 22.894433-62.641831 37.417849h-2.773273c-4.249507-2.286883-9.284064-8.54168-12.876518-10.52137h10.692033v-8.908605l-5.350283-5.350283h-5.333217v14.258888c-23.747748-13.081314-44.756355-24.362134-66.038023-42.716933-10.248309-8.84034-24.711993-21.989919-26.674617-35.728286 35.660021 12.885052 94.146209 16.451907 131.939516 14.267422z m-98.958904 10.026447c-3.310861-8.772075-7.961426-15.40233-18.713191-13.584769l19.609172 24.933855 5.307617-10.623768-6.212131-0.733851z m138.194313-2.884203c-9.454727-1.032511-5.648943 0.085331-7.18491 5.196686-1.604232 5.358816-4.479902 10.290975-3.524189 16.18738l14.258888-3.566856c1.015444-8.345418-9.43766-9.497392-3.549789-17.81721z m-91.543599 11.519748c0-4.130043-3.353527-7.48357-7.48357-7.48357s-7.48357 3.353527-7.48357 7.48357 3.353527 7.48357 7.48357 7.48357 7.48357-3.353527 7.48357-7.48357z m-11.878141 13.431173h-10.692032v7.125178h10.692032v-7.125178z m57.05262 14.258888v-8.900072l-10.692033-5.350283-3.549789 8.908605c3.882582 5.512413 7.637166 6.152399 14.241822 5.34175z" fill="#CB372E" p-id="3995"></path><path d="M321.230312 396.02406c-1.08371 14.421018-20.163826 13.644502-28.654307 23.04803-13.806632 15.282866-16.511639 41.889218-5.128421 58.87018 3.839916 5.725742 15.257267 15.888719 21.887521 17.339354 6.817984 1.493301 31.939569 1.868759 38.1261 0.076798 4.5567-1.314105 22.792035-16.400708 25.445844-20.914742 2.252751-3.839916 8.618478-26.051697 8.311285-29.669752-0.802116-9.531525-11.647745-20.138226-10.06058-30.924124 6.280396 3.0634 7.952893 2.73914 14.267421 3.566855l2.227152 3.174331c2.790339 0.930113 5.666009 0.273061 8.473414 0.392525 7.091045 0.29866 14.293021-0.196262 21.392599 0-0.29866 0.085331-0.247461 2.594077-5.145487 3.63512-3.805783 0.810649-8.609945-0.494923-12.697323-0.076798l-3.993512 51.267146-37.503181 33.808328-72.600013 7.637166c-24.993587-28.406846-29.88308-40.814041-35.66002-78.445219-2.346615-16.494573 19.284912-40.805508 33.876593-42.785198 9.505926-1.288505 27.476733-0.827715 37.434915 0z" fill="#FBE3CC" p-id="3996"></path><path d="M702.781438 674.161981c-4.735896 3.165797-18.218268 12.023204-23.124827 10.666433-17.305222-30.224406-35.301628-57.573142-30.514533-94.325405l10.837096-5.486813c7.125178-2.636742 16.358042 13.414107 23.850145 17.160158 8.439282 4.223908 19.643304 2.679408 26.171162 5.922004 8.695277 4.326305 21.3414 24.694927 28.261782 32.545422 1.877292 5.657476-29.336959 29.396691-35.489358 33.518201z" fill="#F9F7F2" p-id="3997"></path><path d="M364.024043 888.113571c0.767983 4.249507-0.529055 9.702188 0 14.267421l-24.797325-0.16213c-5.580678-17.492951-8.874473-37.264252-15.154868-54.381744-1.587165-4.326305-6.177998-7.850495-8.260086-13.132513-5.708675-14.463684-9.62539-30.898525-8.831807-46.428852 14.079692 1.826093 25.386112 8.260086 37.443448-3.549789 8.21742 5.01749 4.027645 12.227999 5.427081 19.506774 5.401482 28.210583 9.360862 57.300081 14.18209 83.880833z" fill="#8A512F" p-id="3998"></path><path d="M699.214583 756.174055c-2.943936 8.54168-8.200354 18.841188-10.026448 27.417-4.983358 23.34669-4.889493 56.617429 5.691609 78.547617 13.960228 28.910301 48.673069 40.250854 75.552482 20.530751 23.030963-16.895631 27.76686-60.738939 25.061852-87.268492h1.851693l1.715163 24.959454h3.549789c-0.093865-7.099578 0.170663-14.293021 0-21.392599h3.566855c-1.032511 27.570597-3.746051 61.139997-21.324334 83.863767-5.324684 6.886249-19.028917 17.126026-27.399934 18.960652-41.522292 9.079268-76.124203-23.312557-79.648392-63.606076-1.151975-13.226378-1.612765-38.868484 0.059732-51.642605 1.945557-14.873275 13.525038-29.302826 14.207689-44.628358l3.140198 2.107688c0.853315 3.106065 0 6.826517 0.92158 9.949649 0.665585 2.235684 2.559944 1.749295 3.071933 2.210085z" fill="#5A3421" p-id="3999"></path><path d="M766.959236 706.255146c2.798872 30.173207-0.32426 58.639785-37.434916 53.477231-8.661144-1.203174-20.010229-10.794431-24.874122-17.902542-3.720452-5.427081-3.79725-11.340552-5.435615-14.18209 9.30113 0.017066 12.987449-9.121934 20.112627-13.763966 12.219466-7.961426 33.927792-15.982584 47.640559-7.628633z" fill="#F6F0DF" p-id="4000"></path><path d="M462.078433 905.939314c1.962624-0.221862 6.092667-9.173133 5.324684 1.749296-6.937448 20.163826-13.320242 28.133785-34.533645 33.228073-6.280396 1.510367-21.076873 3.865516-27.690062 4.403104-24.976521 2.013823-35.173631-2.525811-20.513685-26.896479l-6.391327-14.258888c0.554655-5.01749 4.522568 1.774895 5.358816 1.774894 24.191471 0 55.405722 2.585543 78.445219 0z" fill="#F2EDDF" p-id="4001"></path><path d="M706.339761 684.862547c11.511215-8.174755 22.501908-16.255645 33.859526-24.976521 3.106065-2.380748 3.49859-4.88096 8.917139-3.549789l14.275954 32.093165c-0.913047 6.433993 2.995135 11.673345 3.566856 17.825744-13.712767-8.353951-35.421092-0.332793-47.640559 7.628633-7.125178 4.642032-10.811497 13.789565-20.112627 13.763966-4.573767-7.927293-13.635969-14.80501-14.122358-26.427156 0.32426-1.484768 17.527084-13.7213 21.256069-16.366575z" fill="#F6C68A" p-id="4002"></path><path d="M374.716076 599.283617l-3.174331 2.090621c-1.5189 6.229197 0.529055 13.328775-0.383991 19.301979-0.179196 1.160508 0.204796 2.414881 0 3.566855-0.904514 5.085756-7.935827 20.001696-11.246688 26.188227-4.403104 2.269817-5.597744 16.067915-11.920806 13.030116-3.242596-1.553033-30.471867-43.834775-30.378002-48.118415 0.076798-3.455924 4.138576-8.012625 3.618054-8.925672l41.044436-20.394221c8.490481 3.097532 11.451483 4.198308 12.449861 13.26051z" fill="#F5F5EF" p-id="4003"></path><path d="M588.667666 271.218255c22.220314 0.264528 45.396341-7.799296 38.629556 22.595773-4.573767 20.547818-38.552757 27.963122-56.557697 22.075251-17.441752-14.915941-8.942738-30.147608 3.66072-44.671024 4.752963 0.051199 9.514459-0.059732 14.267421 0z" fill="#F7F0DD" p-id="4004"></path><path d="M428.210373 271.218255c5.930537-0.085331 11.895207 0.068265 17.825744 0 16.810299 14.165024 15.555927 44.645424-8.789141 46.50565-24.592529 1.877292-50.362632-13.311709-44.397963-40.86524 2.525811-8.84034 26.751415-5.512413 35.36136-5.64041z" fill="#F6EFDE" p-id="4005"></path><path d="M553.007646 709.822001c-0.102398 1.177574 0.119464 2.389281 0 3.566856-0.017066 0.187729-2.773273 0.648519-3.046334 2.312482-0.913047 5.538012-1.228773 11.238154 0.008533 16.776167 0.383992 1.809027 2.926869 2.022356 3.037801 2.312483 0.62292 1.629831-0.281594 4.240974 1.732228 7.031313 5.427081 7.543302 18.132937 11.937872 19.668904 17.928141l-21.051273-0.349859-5.981736-10.06058-27.92899-0.588787c-9.719254-2.781806-5.623344-40.10579-4.061778-49.807978l37.622645-21.20487c-0.631453 10.504304 0.92158 21.716859 0 32.093165z" fill="#F3F2EC" p-id="4006"></path><path d="M617.193976 945.16619c-29.14923-6.99718-60.858403-1.390903-60.610942-42.785198 4.752963-1.757828 8.430749 3.558322 8.908605 3.558322h58.836048l10.700566 35.660021c-0.196262 0.076798-0.32426 2.585543-2.227152 3.114599-4.898026 1.365303-10.512837 0.187729-15.607125 0.452256z" fill="#F0E9DC" p-id="4007"></path><path d="M684.947162 731.2146l-25.727438 40.233788c-27.860724 59.458967-34.76404 156.839238 20.317422 202.303844l33.936325 24.891189c-7.790763 1.143442-13.891963-3.071933-20.300356-6.433992-18.551061-9.736321-43.237455-34.806706-51.011152-54.176949-14.830609-36.957059-14.011427-98.583445-2.824471-136.547416 6.212131-21.076873 22.348312-53.656427 38.493025-68.487036 4.360438-4.002046 2.730607-6.288929 7.125178-1.791961z" fill="#D3C5B4" p-id="4008"></path><path d="M852.546698 902.380992c-0.43519 1.971157-4.829761 12.953317-6.39986 16.7847-5.094289 12.415729-14.18209 21.162204-18.576661 33.142742-19.703036-3.157264-4.138576-9.685122 1.70663-17.928141 34.209386-48.32321 18.056139-123.35517-8.823274-171.063994-1.689563-3.003668-1.672497-8.729409-5.435615-14.18209-6.596122-9.565658-30.523066-26.529553-33.774195-33.961925-0.904514-2.056488-0.580254-6.109733 1.766362-5.333216 15.743656 5.222286 35.864816 30.633997 44.013971 45.131813 22.339778 39.721798 35.122432 103.55827 25.522642 147.418644z" fill="#D3C6B5" p-id="4009"></path><path d="M599.368232 770.441476v17.834277c-2.312483 0.332793-5.034557-0.426657-7.133711 0-12.193867 2.474613-22.56164 5.290551-35.668553 3.575389l0.017066-24.967988 42.785198 3.566855z" fill="#7C412A" p-id="4010"></path><path d="M645.720286 756.182588l-10.487238 26.947678-24.993587 1.399436-3.754584-17.655081 39.235409-10.692033z" fill="#7C482E" p-id="4011"></path><path d="M677.813451 838.194662l-3.19993 2.124753c-0.563188 1.646897-0.452257 3.302328-0.366926 5.008958l-3.17433-2.227152c-0.904514-2.790339-0.29866-5.657476-0.392525-8.473414h1.851693c3.464458-10.248309 1.467701-22.58724 1.322638-33.560867l-3.174331-2.099154c0.273061-6.39986-0.520522-12.415729 0.691185-18.935053 2.551411-13.704234 16.281244-28.679906 17.143092-38.117567h3.566855c-0.674119 15.325532-12.262132 29.763616-14.207689 44.628358-1.672497 12.774121-1.211707 38.42476-0.059732 51.642605z" fill="#BFAD9F" p-id="4012"></path><path d="M806.186111 763.307765c2.261284 7.039846 2.500212 17.603882 3.566856 24.959455l-3.174331 2.227151c-0.92158 2.790339-0.290127 5.666009-0.392525 8.473415h-3.566855c-0.409591-17.825744-3.728985-37.639711-12.50106-53.468698-2.679408-4.846827-10.734699-6.56199-8.883006-14.284488 5.264952 3.020734 12.671723 9.471793 15.956985 14.34422 2.082088 3.097532 8.021158 14.702612 8.993936 17.748945z" fill="#CBBAA2" p-id="4013"></path><path d="M542.315613 613.542506l-1.322638 11.169889c-7.952893 6.305995-17.015095-5.981736-25.437311 3.0634-6.348661-2.90127-4.949225-9.906983 0.230395-10.615235 3.882582-0.537588 15.026872 5.34175 19.404376-3.618054 2.363682-0.13653 4.787095 0.196262 7.133711 0z" fill="#D65545" p-id="4014"></path><path d="M599.368232 602.84194c0.307193-0.076798 0.307193-2.824472 5.128421-3.635121 3.933781-0.665585 8.567279 0.452257 12.697323 0.076798v5.358817c-0.750917 1.902892-3.344994 1.501834-3.558322 1.774894l-2.158887-3.17433-12.100002-0.392525zM371.149221 620.676217c0.92158-5.973203-1.134909-13.072781 0.383991-19.301979l3.174331-2.090621c0.674119 6.1012 0.017066 13.09838-0.383992 19.301979l-3.17433 2.090621zM381.849787 617.109361c1.314105-6.53639-2.295416-7.679832 3.566855-14.267421l-0.392525 12.100002-3.17433 2.158886z" fill="#522D23" p-id="4015"></path><path d="M731.299215 595.708229c-21.469397 0.375458-43.135057 3.097532-57.035553-16.042316 20.402754-16.170313 33.84246-8.388083 51.139149 5.896404 3.831383 3.165797 7.355573 3.600988 5.887871 10.145912z" fill="#CD4239" p-id="4016"></path><path d="M752.700347 552.931564c-8.516081 12.876519-29.004166 25.863968-39.209809 8.908605 13.388507-16.912697 20.155293-16.204446 39.209809-8.908605z" fill="#C03331" p-id="4017"></path><path d="M770.526091 449.509825c-1.032511-6.203598 1.5445-16.221512 0-21.392599h3.566855c-0.426657 10.726166-1.092243 12.50106-3.566855 21.392599z" fill="#F9E4CC" p-id="4018"></path><path d="M339.064589 695.55458c0.802116-11.733077-1.894359-6.741186-7.133711-1.783428-6.647321 6.288929-14.446618 10.896828-19.737169 15.922852-6.007335 5.700142-6.118266 13.55917-12.347463 17.962274-2.133287-2.645276-8.763542-5.725742-12.390129-10.794431-25.172783-35.207764-11.016293-69.289152 17.740412-96.160031 8.24302 11.195489 13.917562 23.798946 21.554729 35.480824 8.004092 12.262132 18.457197 16.46044 15.939918 34.234985-0.614387 4.368971-3.558322 4.838294-3.618054 5.145488z" fill="#F4BE7B" p-id="4019"></path><path d="M460.303539 770.432943v24.959455c-26.341824-4.403104-53.101773-5.435615-79.409465-11.519749-21.264602-4.915093-31.316649-5.546545-27.562064-31.26545 18.875321 2.90127 36.410937 11.14429 55.337457 14.190624 5.657476 0.913047 11.835475-0.580254 17.697747 0.127997 10.538436 1.279972 21.66566 6.143866 33.944858 3.49859z" fill="#844A2C" p-id="4020"></path><path d="M503.088737 695.55458v53.485764l-33.620599-0.179196c-3.430325 0.469323-1.902892 8.86594-7.679832 10.581102-2.833005 0.844782-15.760722 1.612765-15.760722-1.484768l17.911075-14.190623c12.168267-16.264178 4.155642-17.356421 3.327927-32.007833-0.631453-11.246687 0.767983-22.792035 0.16213-34.03019l35.651488 17.825744z" fill="#F3F2EE" p-id="4021"></path><path d="M339.064589 695.55458c-1.68103 8.609945-7.167843 31.316649-7.270241 37.520246-0.102398 6.152399 10.623768 10.640834 7.270241 19.52384-5.80254 0-9.676588 4.215375-15.956985 3.754585-18.533995-1.348237-15.146336-18.619326-23.269891-28.714039 6.229197-4.403104 6.340128-12.262132 12.347463-17.962274 5.299084-5.01749 13.089847-9.62539 19.737169-15.922852 5.239352-4.957758 7.935827-9.949649 7.13371 1.783428z" fill="#F3EDE2" p-id="4022"></path><path d="M474.562427 759.74091h65.969758c7.108111 0 8.157688 40.583646 1.928491 44.722223h-64.476457c-7.18491-4.770029-1.757828-34.977369-3.421792-44.722223z m7.133711 39.226876h51.702336l5.04309-5.657476-0.059732-20.727014c-3.344994-11.44295-44.483294-11.963472-53.212704-7.585967-11.852541 5.93907-6.451059 23.867212-3.481524 33.961924z" fill="#B7ACA4" p-id="4023"></path><path d="M339.056055 770.450009c-7.312907 13.618902-36.001346 9.420594-35.651487-7.13371l35.651487 7.13371z" fill="#7D4B30" p-id="4024"></path><path d="M385.416642 795.409464c-10.017914 15.257267-28.466578 15.385264-24.950921-7.142244l24.950921 7.142244z" fill="#5E453F" p-id="4025"></path><path d="M581.542488 802.534641c-5.648943 0.204796-12.782654-0.89598-17.825743 0h-7.125178v-7.125177c9.309663 0.537588 21.691259-3.566855 24.959455 7.125177zM553.007646 709.822001c4.650565 1.791961 3.831383 6.340128 3.558322 10.692033h-3.549789v-7.125177c0.119464-1.177574-0.102398-2.389281 0-3.566856z" fill="#4B281F" p-id="4026"></path><path d="M656.420852 795.400931c6.220664-0.827715 3.490057 8.157688 3.566855 12.47546 0.665585 36.479203 3.583922 70.731254 28.466578 99.906083 27.988722 32.827016 78.317221 38.629556 107.099526 3.566856 7.841962-9.548591 24.899722-42.478005 24.899722-53.55403v-73.103469h3.558322c-1.331171 3.916714 3.575389 8.277152 3.575389 8.917139v60.619475c0 0.904514-3.413259 13.42264-4.300706 17.091893-22.058185 90.937746-124.327949 94.163275-157.999747 9.702188-1.5445-3.874049-8.86594-25.386112-8.865939-26.794081v-58.836047z" fill="#CFC5BB" p-id="4027"></path><path d="M674.246595 845.31984c-0.085331-1.698096-0.187729-3.353527 0.366926-5.008958l3.19993-2.124753c3.52419 40.293519 38.1261 72.685345 79.648392 63.606076 8.371017-1.834627 22.066718-12.074403 27.399935-18.960652 17.578282-22.72377 20.291823-56.301703 21.324333-83.863767 0.102398-2.807405-0.529055-5.683076 0.392525-8.473415l3.174331-2.227151c3.353527 23.210159 2.969535 48.664536-5.222286 71.448038-6.408393 17.817211-18.593727 37.605578-36.530402 45.481673-41.667356 18.3036-91.509466-15.479128-93.753684-59.877091z" fill="#DCD6CF" p-id="4028"></path><path d="M742.008314 995.093632c-0.170663 8.055291 2.44048 16.451907-5.529479 21.324334l-19.455575-3.49859 3.746052-17.655081 21.230469-0.170663z" fill="#D2C5AD" p-id="4029"></path><path d="M774.092946 913.073025l3.566856 3.566856c-20.360088 12.50106-42.529204 10.367773-64.228996 1.826093-7.312907-7.884628-2.329549-5.759874 3.754584-3.754585 19.950497 6.56199 37.494647 9.582724 56.907556-1.638364z" fill="#C1B7AE" p-id="4030"></path><path d="M777.659802 916.639881l-3.566856-3.566856c7.48357-4.326305 13.55917-13.874897 21.384066-17.825743 4.223908 4.770029-14.088225 19.097183-17.81721 21.392599z" fill="#826657" p-id="4031"></path><path d="M670.688273 834.627807c-0.366925-11.656279-0.486389-24.012275 0-35.660021l3.174331 2.099154c0.145063 10.973627 2.14182 23.304024-1.322638 33.560867h-1.851693z" fill="#E3DED8" p-id="4032"></path><path d="M763.400913 413.858337l-9.087801 10.649367 9.224332 19.566506c-4.624966 27.775393-18.687592 52.794579-37.981037 72.91574-15.171935-8.268619-27.638863 1.689563-42.298809 0.204795-27.980188-2.824472-51.429276-17.049227-58.238727-45.191545-1.211707-5.01749-4.002046-19.796901-4.377504-24.447466-0.571721-7.142244 5.973203-14.745278 3.703386-23.005364-5.299084-0.469323-11.152823 0.836248-16.298311 0.076798-4.761496-0.699718-4.804162-3.566855-5.102821-3.643653 15.939918 1.35677 31.598243-1.194641 46.352053-7.133711 11.844008-0.75945 6.604656 1.834627 1.791961 7.142244-2.670875 2.943936-7.32144 5.734275-8.422216 9.394995-2.525811 8.37955-2.559944 33.219541 1.177574 40.617778l21.998453 24.362135c24.720526 5.410015 48.195213 5.418548 63.631676-17.38202 0.750917-1.100776 8.174755-15.624192 8.439282-16.520173 4.386037-14.890341-3.874049-31.40198-13.678635-42.332941-8.942738-9.966715-23.380822-10.308041-25.019186-23.116295 18.056139-1.160508 55.627584-1.228773 64.18633 17.825744z" fill="#F9E4CC" p-id="4033"></path><path d="M655.644335 371.158471c0 23.150427-18.76439 41.914817-41.914817 41.914817s-41.914817-18.76439-41.914817-41.914817 18.76439-41.914817 41.914817-41.914818 41.914817 18.76439 41.914817 41.914818z m-47.72589-16.02525c0-7.099578-5.759874-12.859452-12.859452-12.859452s-12.859452 5.759874-12.859452 12.859452 5.759874 12.859452 12.859452 12.859452 12.859452-5.759874 12.859452-12.859452z" fill="#512C23" p-id="4034"></path><path d="M699.214583 396.02406c1.638364 12.808253 16.076449 13.149579 25.019186 23.116295 9.804586 10.922428 18.064672 27.4426 13.678635 42.332941-0.264528 0.887447-7.688365 15.410863-8.439282 16.520173-15.436463 22.792035-38.911149 22.792035-63.631676 17.38202l-21.998453-24.362134c-3.737518-7.398238-3.703386-32.246762-1.177574-40.617779 1.100776-3.66072 5.751341-6.451059 8.422216-9.394995 4.812695-5.307617 10.052047-7.901694-1.791961-7.142244 18.917986-7.611567 25.437311-16.247112 49.918909-17.825743z m-31.342248 32.844082c-6.980114 6.980114-10.22271 23.090695-7.432371 32.67342 0.605853 2.065022 14.839142 16.870031 17.296688 18.405997 9.608323 5.998802 33.014745-10.674967 37.614112-19.634771 4.710297-9.156067-0.255994-22.152049-5.333217-30.523066l-26.930611-8.934204c-1.587165-0.017066-14.096759 6.894783-15.214601 8.012624z" fill="#F9CFB4" p-id="4035"></path><path d="M371.149221 413.858337c-1.587165 10.785898 9.258464 21.392599 10.06058 30.924124 0.307193 3.618054-6.050001 25.829835-8.311285 29.669752-2.653809 4.505502-20.88061 19.592105-25.445844 20.914743-6.186531 1.791961-31.308116 1.407969-38.1261-0.076799-6.630255-1.450635-18.047606-11.60508-21.887522-17.339354-11.391751-16.980962-8.67821-43.587314 5.128422-58.87018 8.490481-9.403528 27.570597-8.627011 28.654307-23.048029 18.158536 1.501834 34.345916 10.22271 49.918908 17.825743z m-33.808328 4.693231c-6.323062-0.145063-21.085406 4.09591-26.70875 7.884628-34.115521 22.988298 1.740762 66.379349 35.523491 46.224056 8.234487-4.915093 16.767633-22.459242 13.891963-31.572643-1.885825-5.981736-15.641258-22.373911-22.715237-22.536041z" fill="#FAD0B5" p-id="4036"></path><path d="M406.809241 363.922362c0.989845-4.599366-3.583922-4.249507-7.108111-5.34175-12.279198-3.82285-40.839641-5.410015-22.902966-22.868833 15.769255-4.650565 45.737667 13.013049 58.392323 23.030963 6.56199 5.196686 15.615659 12.586392 14.549016 21.230469-4.112977 17.194291-13.200778 3.165797-23.312557 1.791961-7.509169-1.023978-24.601062-1.041044-32.093165 0-6.433993 0.89598-26.452755 15.197534-30.301205 1.774895-4.565234-15.922852 33.134209-21.657127 42.776665-19.609172z" fill="#532D21" p-id="4037"></path><path d="M396.117208 420.983515c-2.807405-0.119464-5.683076 0.537588-8.473415-0.392525l-2.227151-3.174331c2.57701 0.341326 5.717208-0.691185 8.473415 0.392525l2.227151 3.174331z" fill="#FAD0B5" p-id="4038"></path><path d="M478.794868 434.593884c-2.252751-2.346615-3.839916-11.716011-6.988648-15.385264 8.86594-24.524264 38.834351-26.964744 60.815738-18.841188 16.255645 6.007335 21.230469 19.173981 9.889917 33.287806-8.712343 10.837096-31.12892 14.625814-44.184634 11.698944-1.757828-0.392525-18.730257-9.932583-19.532373-10.768831z" fill="#542E27" p-id="4039"></path><path d="M470.995571 445.951502l7.654233 27.988722c13.994361 8.84034 21.145138-3.848449 33.415803-9.574191 7.910227 8.601412 25.411711 16.383642 32.101698 3.046334 3.490057-6.954515 0.665585-16.119114 10.632301-21.443798 11.11869 6.42546-0.657052 28.68844-7.167843 35.608821-17.620948 18.755857-34.055789-4.863894-38.928216-3.447391-15.760722 20.60755-42.426806 10.794431-47.836821-13.115447-2.090621-9.241398-1.578632-19.711569 10.128845-19.06305z" fill="#472820" p-id="4040"></path><path d="M436.222998 623.568953l6.212131 0.733851-5.307617 10.623768-19.609172-24.933855c10.751765-1.81756 15.410863 4.804162 18.713191 13.584769z" fill="#E1614E" p-id="4041"></path><path d="M574.417311 620.68475c-5.887871 8.319818 4.565234 9.471793 3.549789 17.81721l-14.258888 3.566856c-0.955712-5.896404 1.911425-10.837096 3.524189-16.18738 1.535966-5.102822-2.269817-6.229197 7.18491-5.196686z" fill="#D77157" p-id="4042"></path><path d="M475.398675 632.204498m-7.48357 0a7.48357 7.48357 0 1 0 14.96714 0 7.48357 7.48357 0 1 0-14.96714 0Z" fill="#E18A6A" p-id="4043"></path><path d="M528.048191 659.894559c-6.604656 0.810649-10.35924 0.16213-14.241822-5.34175l3.549789-8.908605 10.6835 5.350283v8.900072z" fill="#E27F5E" p-id="4044"></path><path d="M495.955026 677.728836l0.008533-14.258888h5.333217l5.350283 5.350283 0.008533 8.900072-10.700566 0.008533z" fill="#E17F65" p-id="4045"></path><path d="M460.303539 645.635671h10.692032v7.125178h-10.692032z" fill="#E5745E" p-id="4046"></path><path d="M199.991362 114.319285c29.541754 7.02278 47.666158 27.775393 71.465104 44.423562 3.088999 2.158886 15.590059 11.374685 17.672147 9.062202 6.314529-36.556001 23.798946-74.963695 67.531324-67.975048C371.550279 64.895298 387.20007 7.663483 430.684986 0.777233c27.792459-4.403104 43.075325 24.899722 61.762917 33.24514 13.7213 6.135333 28.9615 6.126799 42.674267 0s23.534419-23.04803 38.245564-29.507622c45.055015-19.805434 69.835274 29.985478 84.896277 63.384215 15.931385 35.318695 27.015943 79.563061 43.732378 113.166593 1.595698 3.19993 3.165797 5.956136 6.118266 8.106489 16.750567-11.912273 34.76404-22.194715 51.557273-33.996056 8.012625-5.631877 16.699368-15.146336 25.266648-21.085406 14.378352-9.966715 40.950572-25.061852 58.57152-23.380822 25.548242 2.431947 49.423986 26.119962 51.966864 51.608471 7.091045 71.089646-60.098953 134.857852-121.26455 158.963992-2.926869 2.747673 13.047181 52.367922 14.054093 62.351704 4.172709 41.46256 0.59732 82.182737-20.624616 118.286481-6.186531 10.512837-22.979764 27.067142-25.642106 34.977369-0.418124 1.228773 19.873699 9.727787 22.783502 12.441328 9.156067 4.206841-7.688365 20.027296-12.1768 23.116295-4.189775 2.884204-8.968337 5.435615-14.18209 5.444148l7.125177 24.925321-17.81721 3.592455c17.510017 18.644926 33.040344 38.706354 39.226876 64.177797l-3.174331 2.107688-0.383992 15.726589-14.275954-32.093165c-5.427081-1.331171-5.819606 1.169041-8.917139 3.549789-11.357618 8.720876-22.348312 16.801766-33.859526 24.976521l-0.392525-8.481948-3.174331-2.218618c6.152399-4.112977 37.36665-27.852191 35.489358-33.518201-6.928915-7.850495-19.566506-28.22765-28.261782-32.545422-6.519324-3.242596-17.731879-1.698096-26.171162-5.922004-7.492103-3.746051-16.724968-19.805434-23.850145-17.160158-0.639986-5.623344 3.19993-9.053669 7.116645-12.483994l-3.54979-1.783427c55.900645-24.063474 90.707351-62.803961 106.971529-121.23895 2.474613-8.900072 3.140198-10.674967 3.566855-21.392599 1.100776-27.476733-1.023978-49.313055-7.995558-75.799944-8.831807-33.535267-26.742882-62.04451-20.530752-98.933304-10.896828 1.800494-23.18456 2.133287-33.808327 3.635121-20.837945 2.943936-37.520247 5.264952-58.895779 7.073978v-10.700566c6.638788-0.708251 19.506774-6.655855 30.232939-3.63512l96.262429-17.740412c16.195913 14.549015-13.42264 16.409241-23.099229 17.808677 7.867561 19.515307-2.76474 43.450784 12.475461 60.593876 31.000922-15.709523 61.370392-35.421092 83.8723-62.309038 20.599016-24.609595 31.623842-53.212704 28.603108-85.792259-3.208463-34.550711-38.151699-44.969684-66.874271-30.932657-28.125252 13.7469-56.532098 43.817709-85.374134 60.824271-55.875045 32.937947-105.802487 50.174903-170.680003 53.972153-85.87759 5.026023-173.751935-3.251129-248.980157-46.838443-31.23985-18.098804-60.184284-45.456073-90.272161-63.059954-3.754585-2.193019-20.206492-10.760298-22.612839-11.263754l3.174331-2.218618 0.392525-8.481948z m481.388944 49.918908c-19.515307-40.523914-30.616931-87.652484-54.040419-126.026045-7.790763-12.757054-17.100426-23.18456-33.253673-23.935477-23.679482-1.100776-36.496269 24.848524-56.4041 33.014745-14.514883 5.956136-27.775393 6.826517-42.861997 2.210085-24.660794-7.551835-35.660021-38.919683-64.826316-35.020034-27.476733 3.669253-50.678359 62.291972-60.679207 85.52773-8.08089 18.781456-15.095137 39.841262-23.193093 58.87018-1.041044 7.901694 1.245839 4.249507 5.282018 5.401482 3.686319 1.05811 7.440904 3.029267 10.896828 3.481524 92.439579 12.082936 185.58741 13.678634 278.00139 3.549789l41.078569-7.065445z m-331.623684-49.910375c-33.185408-2.022356-41.471094 35.98428-46.189924 62.061577l15.888719 12.808253 30.309738-74.86983z m335.728128 70.705654c-1.373837-1.390903-1.032511-6.442526-3.848449-8.499014l-5.623344-1.826093c-105.99875 21.768058-214.958501 15.956985-320.84632 3.737518-5.546545-0.639986-11.169889-5.299084-17.84281-3.549789L328.389622 194.564997c2.30395 3.788717 5.196686 4.138576 8.686743 5.546546 84.213626 34.00459 175.151371 35.642954 264.00703 24.686393 28.79937-3.549789 43.450784-9.30113 69.570746-19.575038 11.809875-4.642032 24.626662-3.686319 32.110231-14.233289-3.737518-7.244642-12.774121-1.38237-17.279622-5.947604z m67.215597 367.898092c-19.045984-7.304374-25.821302-8.004092-39.209809 8.908605 10.205644 16.955363 30.693729 3.976446 39.209809-8.908605z m-21.401132 42.776665c1.467701-6.544924-2.056488-6.980114-5.887871-10.145912-17.296689-14.284488-30.744928-22.066718-51.139149-5.896404 13.900496 19.139848 35.566156 16.417774 57.035553 16.042316z" fill="#512B21" p-id="4047"></path><path d="M196.424506 125.019851c2.406347 0.503456 18.858254 9.070735 22.61284 11.263754 30.087876 17.612415 59.03231 44.961151 90.27216 63.059954 75.228222 43.587314 163.102568 51.872999 248.980157 46.838443 64.877515-3.79725 114.804957-21.034207 170.680003-53.972153 28.842036-17.006562 57.248882-47.085904 85.374134-60.824271 28.722572-14.037027 63.674342-3.618054 66.874271 30.932657 3.020734 32.579555-8.004092 61.182663-28.603108 85.792259-22.501908 26.887946-52.879911 46.599515-83.8723 62.309038-15.2402-17.143092-4.607899-41.087102-12.47546-60.593876 9.676588-1.399436 39.295141-3.268195 23.099228-17.808677l-96.262429 17.740412c-10.734699-3.020734-23.594151 2.935403-30.232939 3.63512-97.721597 10.367773-197.78981 10.180044-294.248502-3.507123L248.229241 232.008445c-14.130891 12.995983 5.060156 16.16178 15.974051 14.241823 0.989845 21.298734 1.05811 36.112277-6.519325 56.003042-1.35677 3.566855 0.750917 6.323062-5.674542 4.360438-9.335263-2.858604-41.616157-24.677861-50.285834-31.768906-33.390203-27.289004-79.162003-86.287181-51.147682-129.729431 9.659522-14.984206 28.056987-23.80748 45.865664-20.104093z" fill="#965837" p-id="4048"></path><path d="M681.380306 164.238193l-41.078569 7.065446c-92.422513 10.128845-185.561811 8.54168-278.00139-3.549789-3.455924-0.452257-7.210509-2.423414-10.896828-3.481524-4.036178-1.151975-6.323062 2.500212-5.282018-5.401482 8.106489-19.028917 15.112203-40.088724 23.193093-58.87018 9.992315-23.235759 33.202474-81.849944 60.679207-85.52773 29.166296-3.899648 40.165522 27.4682 64.826316 35.020034 15.095137 4.616432 28.347114 3.746051 42.861997-2.210085 19.916365-8.166222 32.733151-34.115521 56.4041-33.014745 16.144714 0.750917 25.46291 11.178422 33.253673 23.935477 23.423488 38.373561 34.533645 85.502131 54.040419 126.026045zM599.368232 60.83352c-0.930113 23.61975-1.621298 46.027794 17.808678 62.419969 10.009381 8.447815 19.165448 6.749719 17.876942-7.065445-0.750917-8.055291-15.956985-50.140771-21.247535-53.741759-4.147109-2.824472-9.659522-1.365303-14.438085-1.612765z" fill="#945735" p-id="4049"></path><path d="M685.48475 185.033472c4.505502 4.565234 13.533571-1.288505 17.279622 5.947604-7.48357 10.546969-20.300356 9.591257-32.110231 14.233288-26.119962 10.273909-40.771375 16.02525-69.570746 19.575039-88.855658 10.956561-179.793403 9.318196-264.00703-24.686393-3.490057-1.407969-6.382794-1.757828-8.686743-5.546546l8.934205-19.668903c6.672921-1.749295 12.304798 2.909803 17.84281 3.549789 105.896352 12.219466 214.856104 18.022006 320.84632-3.737519l5.623344 1.826094c2.807405 2.056488 2.474613 7.108111 3.848449 8.499014z" fill="#593628" p-id="4050"></path><path d="M349.756622 114.327818l-30.309738 74.86983-15.888719-12.808253c4.71883-26.077297 13.013049-64.083933 46.189923-62.061577z" fill="#ECB77B" p-id="4051"></path><path d="M599.368232 60.83352c4.770029 0.247461 10.282442-1.211707 14.438085 1.612765 5.290551 3.600988 20.496619 45.695001 21.247535 53.741759 1.297038 13.815165-7.867561 15.513261-17.876942 7.065445-19.429975-16.400708-18.73879-38.800219-17.808678-62.419969z" fill="#7A482C" p-id="4052"></path><path d="M481.696138 798.967786c-2.978068-10.094713-8.371017-28.022854 3.481523-33.961924 8.729409-4.377504 49.859177-3.856982 53.212704 7.585967l0.059732 20.727014-5.04309 5.657476h-51.702336z m46.360586-24.959454c-9.266997 1.459168-32.827016-3.592455-37.50318 3.507123l-1.740762 10.743232c14.719678 1.604232 24.353601 4.915093 39.133011-0.127997l0.110931-14.130892z" fill="#523128" p-id="4053"></path><path d="M595.058993 355.133221m-12.859452 0a12.859452 12.859452 0 1 0 25.718904 0 12.859452 12.859452 0 1 0-25.718904 0Z" fill="#E9E6DF" p-id="4054"></path><path d="M667.872335 428.868142c1.117842-1.117842 13.627435-8.029691 15.214601-8.012624l26.930611 8.934204c5.077222 8.371017 10.043514 21.358466 5.333217 30.523066-4.607899 8.968337-28.005788 25.633573-37.614112 19.634771-2.457546-1.535966-16.690835-16.332443-17.296688-18.405997-2.790339-9.582724 0.452257-25.693305 7.432371-32.67342z" fill="#F9C0A1" p-id="4055"></path><path d="M337.340893 418.551568c7.073979 0.16213 20.829411 16.554305 22.715237 22.536041 2.87567 9.113401-5.657476 26.657551-13.891963 31.572643-33.782728 20.163826-69.639011-23.235759-35.52349-46.224056 5.614811-3.788717 20.385688-8.029691 26.708749-7.884628z" fill="#F9BFA0" p-id="4056"></path><path d="M528.056724 774.008332l-0.110931 14.130891c-14.77941 5.04309-24.413333 1.732229-39.133011 0.127997l1.740762-10.743232c4.667631-7.099578 28.22765-2.056488 37.50318-3.507123z" fill="#6B412F" p-id="4057"></path></svg>