<?xml version="1.0" standalone="no"?><!DOCTYPE svg PUBLIC "-//W3C//DTD SVG 1.1//EN" "http://www.w3.org/Graphics/SVG/1.1/DTD/svg11.dtd"><svg t="1784020944076" class="icon" viewBox="0 0 1024 1024" version="1.1" xmlns="http://www.w3.org/2000/svg" p-id="2887" xmlns:xlink="http://www.w3.org/1999/xlink" width="200" height="200"><path d="M770.885205 65.808248c68.765384 0 124.551341 55.785957 124.551341 124.551341 0 68.861291-55.785957 124.647248-124.551341 124.647248-68.861291 0-124.647248-55.785957-124.647248-124.647248 0-68.765384 55.785957-124.551341 124.647248-124.551341z" fill="#5FCEFF" p-id="2888"></path><path d="M770.885205 337.385158c-81.070263 0-147.025569-65.955306-147.025569-147.025569 0-81.015916 65.955306-146.929662 147.025569-146.929662 81.019113 0 146.929662 65.913746 146.929662 146.929662 0 81.070263-65.910549 147.025569-146.929662 147.025569z m0-249.198589c-56.393369 0-102.268927 45.833998-102.268927 102.17302 0 56.390172 45.878755 102.268927 102.268927 102.268927 56.339022 0 102.17302-45.878755 102.17302-102.268927 0-56.335825-45.830801-102.17302-102.17302-102.17302zM376.966014 425.299991a22.378321 22.378321 0 0 1-15.319559-38.695314l37.595579-35.293809c38.541863-36.150579 88.851525-55.133789 141.654772-53.423446 52.816034 1.697555 101.805376 23.868078 137.939971 62.429121a22.378321 22.378321 0 1 1-32.656364 30.603953c-27.960114-29.833499-65.865793-46.98808-106.72541-48.302008-40.837239-1.326715-79.775517 13.363055-109.589835 41.329562l-37.589185 35.287416a22.292005 22.292005 0 0 1-15.309969 6.064525z" fill="#4F46A3" p-id="2889"></path><path d="M794.986657 458.154563a200.190066 200.190066 0 0 1-6.49291-0.105498c-52.809641-1.694359-101.805376-23.861684-137.955955-62.422728a22.378321 22.378321 0 1 1 32.64997-30.610346c27.976098 29.836696 65.881777 46.991277 106.741394 48.302007 40.907571 1.281958 79.781911-13.382236 109.605819-41.358334l37.589186-35.287415a22.378321 22.378321 0 0 1 31.633355 1.00063 22.378321 22.378321 0 0 1-1.00063 31.633356l-37.59558 35.293809c-36.972183 34.670413-84.756292 53.554519-135.174649 53.554519z" fill="#4F46A3" p-id="2890"></path><path d="M340.371066 859.231619a196.660685 196.660685 0 0 1-73.762143-14.366882l-47.832063-19.309294a22.378321 22.378321 0 0 1-12.372015-29.13018 22.375124 22.375124 0 0 1 29.126984-12.372015l47.825668 19.309295c78.241004 31.56622 167.636003-6.397003 199.262964-84.631614 0.156648-0.390022 0.329281-0.773651 0.508308-1.157278l161.766489-342.995723a22.378321 22.378321 0 0 1 40.479186 19.091904l-161.504343 342.442659c-31.24653 76.559433-105.395498 123.112735-183.499035 123.119128z" fill="#4F46A3" p-id="2891"></path><path d="M740.204527 987.574487a22.378321 22.378321 0 0 1-19.350854-33.583466l25.830976-44.660735c42.06485-72.764709 17.352789-166.146246-55.047473-208.665055l-105.967743-48.976554a22.378321 22.378321 0 1 1 18.775411-40.629441l106.933209 49.424121c0.620199 0.287721 1.230808 0.601018 1.819037 0.946283 94.407742 54.638269 126.811551 175.8968 72.234024 270.307739l-25.834174 44.663932a22.371927 22.371927 0 0 1-19.392413 11.173176zM291.797321 686.135306h-217.389404a22.378321 22.378321 0 1 1 0-44.756642h217.389404a22.378321 22.378321 0 1 1 0 44.756642zM446.143798 262.993225h-310.994724a22.378321 22.378321 0 1 1 0-44.756642h310.994724a22.378321 22.378321 0 1 1 0 44.756642zM542.050888 190.615341h-207.670819a22.378321 22.378321 0 1 1 0-44.756642h207.670819a22.378321 22.378321 0 1 1 0 44.756642zM366.349099 605.317599h-199.230995a22.378321 22.378321 0 1 1 0-44.756642h199.230995a22.378321 22.378321 0 1 1 0 44.756642z" fill="#4F46A3" p-id="2892"></path></svg>