<?xml version="1.0" standalone="no"?><!DOCTYPE svg PUBLIC "-//W3C//DTD SVG 1.1//EN" "http://www.w3.org/Graphics/SVG/1.1/DTD/svg11.dtd"><svg t="1784020863854" class="icon" viewBox="0 0 1024 1024" version="1.1" xmlns="http://www.w3.org/2000/svg" p-id="4527" xmlns:xlink="http://www.w3.org/1999/xlink" width="200" height="200"><path d="M82.8928 445.5424v414.0032c0 29.184 30.5664 48.3328 56.832 35.5328l181.4528-88.4224a39.424 39.424 0 0 1 35.1232 0.256l267.4688 135.0144a39.49056 39.49056 0 0 0 36.6592-0.5632l267.008-145.152a39.53664 39.53664 0 0 0 20.6336-34.7136V370.432c0-30.8224-33.7408-49.8176-60.1088-33.7408l-251.392 153.2928a39.49056 39.49056 0 0 1-41.0112 0.1024l-268.9536-162.304a39.424 39.424 0 0 0-36.8128-2.0992L106.0352 409.6c-14.08 6.4-23.1424 20.48-23.1424 35.9424z" fill="#4BE2AC" p-id="4528"></path><path d="M755.8656 346.2144C762.8288 205.824 652.4928 84.992 511.9488 87.04c-131.2768 1.9456-237.1072 108.9536-237.1072 240.6912 0 143.0016 108.032 302.2848 214.6304 372.0704a46.00832 46.00832 0 0 0 50.8416-0.3072c104.2432-70.2464 207.8208-198.4512 215.552-353.28z" fill="#4BE2AC" p-id="4529"></path><path d="M636.6208 490.0352a39.49056 39.49056 0 0 1-41.0112 0.1024L326.6048 327.7824a39.424 39.424 0 0 0-36.8128-2.0992l-14.7968 6.7584c2.304 141.824 109.1072 298.3936 214.528 367.4624a46.00832 46.00832 0 0 0 50.8416-0.3072c86.016-57.9584 171.52-155.4432 203.1104-274.688l-106.8544 65.1264z" fill="#06CC76" p-id="4530"></path><path d="M515.5328 492.288c-90.7264 0-164.5056-73.7792-164.5056-164.5056 0-90.7264 73.7792-164.5056 164.5056-164.5056s164.5056 73.7792 164.5056 164.5056c-0.0512 90.6752-73.8304 164.5056-164.5056 164.5056z m0-247.0912c-45.5168 0-82.5856 37.0688-82.5856 82.5856 0 45.5168 37.0688 82.5856 82.5856 82.5856s82.5856-37.0688 82.5856-82.5856c-0.0512-45.568-37.0688-82.5856-82.5856-82.5856z" fill="#FFFFFF" p-id="4531"></path></svg>