<?xml version="1.0" standalone="no"?><!DOCTYPE svg PUBLIC "-//W3C//DTD SVG 1.1//EN" "http://www.w3.org/Graphics/SVG/1.1/DTD/svg11.dtd"><svg t="1784020145150" class="icon" viewBox="0 0 1024 1024" version="1.1" xmlns="http://www.w3.org/2000/svg" p-id="88813" xmlns:xlink="http://www.w3.org/1999/xlink" width="200" height="200"><path d="M285.023 233.926l28.263 48.885a8 8 0 0 1-2.934 10.937L222 344.615v333.92l290 166.96 290-166.96v-333.92l-85.113-49.001a8 8 0 0 1-2.934-10.938l28.26-48.88a8.017 8.017 0 0 1 10.934-2.927l112.86 65.144A15.974 15.974 0 0 1 874 311.846v399.461a15.974 15.974 0 0 1-7.993 13.834l-346 199.714a16.02 16.02 0 0 1-16.014 0l-346-199.714A15.974 15.974 0 0 1 150 711.307v-399.46a15.974 15.974 0 0 1 7.993-13.834l116.097-67.014a8.017 8.017 0 0 1 10.933 2.927z" fill="#1C6EFF" p-id="88814"></path><path d="M541.896 280c4.4 0 7.999 3.6 7.999 7.998v290.267h74.09c6.699 0 10.399 7.698 6.3 12.896L518.298 732.926c-3.2 4.099-9.399 4.099-12.598 0L393.716 591.26c-4.1-5.198-0.4-12.896 6.3-12.896h73.89V287.998c0-4.399 3.599-7.998 7.998-7.998h59.992zM540 96a8 8 0 0 1 8 8v96a8 8 0 0 1-8 8h-56a8 8 0 0 1-8-8v-96a8 8 0 0 1 8-8h56z" fill="#44D7B6" p-id="88815"></path></svg>