<?xml version="1.0" standalone="no"?><!DOCTYPE svg PUBLIC "-//W3C//DTD SVG 1.1//EN" "http://www.w3.org/Graphics/SVG/1.1/DTD/svg11.dtd"><svg t="1784020694333" class="icon" viewBox="0 0 1024 1024" version="1.1" xmlns="http://www.w3.org/2000/svg" p-id="3527" xmlns:xlink="http://www.w3.org/1999/xlink" width="200" height="200"><path d="M680.90506 574.155773l7.549233 7.549234c-28.739914 32.463407-85.930043 36.851506-126.530604 45.218714l-32.020337 0.068165v22.656221h66.068572c0.817976 0 11.818044 7.268054 13.419913 9.227787 11.110836 13.581804 12.107743 86.867307-3.885384 94.680678-5.504294-0.545317-19.759224 5.563938-20.866899 5.563938h-54.736202l0.323782 24.215487 5.640623 5.674706c10.855218 3.110011 18.106231-2.675462 26.200782-3.38267 26.149658-2.274995 52.307837-3.118532 78.406371-8.418333 21.378134-4.345495 43.284543-11.281247 63.154535-20.00632 2.096063-1.380334 3.2293-3.186697 3.697931-5.632103 0.852058-4.447742-0.596441-10.29286 0-15.098467l11.32385 3.774617c1.388854 11.332371 4.072837 22.477288 3.783137 33.97155 20.253417-17.705764 36.416956-34.337935 66.051532-30.188413 18.23404 2.556174 37.328658 29.70274 39.56957 47.238092 4.439222 34.644676-6.807943 64.543389-30.137289 88.648108l-7.549233-11.32385c7.395863-7.285095 21.233284-36.894109 22.588056-47.246612 5.308321-40.600561-19.452483-81.201121-60.334223-50.893421-10.267298 7.617398-19.034974 17.024118-29.540848 24.41998 4.677798 16.708856 4.200646 39.092418 3.280423 56.90043-0.400467 7.736686-3.425273 14.825808-3.936508 24.377377-0.340823 6.237064 0.221535 12.636019 0 18.881604 6.697175 0.008521 13.343227 0.519755 20.040403-0.74129 4.754483-0.894661 25.0079-8.290524 29.038134-10.591081l3.357108 1.780802-3.357108 13.317665c-18.174396 8.648388-31.636911 14.067477-52.750907 11.409056-1.244005 20.798734-13.360268 46.488281-15.226275 66.111175-0.945784 9.960557 5.359444 16.359512 3.305985 25.663985-6.782381 30.716689-65.480652 23.431593-87.446706 13.070569-37.158247-17.518311-48.396891-68.070909-70.414068-99.460723l-62.609218-4.584072-7.404383 6.688655c-12.082182 25.638423-25.459491 66.571287-47.374421 84.737162-20.543117 17.032638-67.397783 28.612106-91.604749 16.444718-24.85453-12.491169-7.634439-30.103207-10.224696-50.203253-3.800178-29.609013-22.426165-69.204146-22.50285-102.042459l-0.076685-96.1803-35.922763 15.047343c-28.748435 3.52752-52.853154-23.917266-54.804366-51.106435-0.408988-5.666185 6.228544-33.221739 8.426853-40.515355 0.613482-2.027898 2.9396-2.428365 3.024806-2.701024l9.517487 1.133238 1.806363 2.641379c-2.130145 18.464096-9.653816 35.871639-2.948121 53.926747 14.936576 40.200093 77.20497 16.095374 78.270042-21.47186-3.067409-6.100735-9.99464-6.594928-14.919534-9.798666l0.400467-5.342404 3.374149-2.21535c0.979867 0.698688 7.608877-0.477152 9.440802 3.749055 6.867587-4.584072 6.509723-10.693327 5.376486-18.557822-7.532192 0.937264-8.980691-6.279667-11.042671-7.847454l0.400467-5.342403 3.37415-2.215351c3.740534 4.243249 3.876864 4.669277 11.315329 3.783138 4.609633-11.409056 5.018621-37.660961 15.115508-43.420873 4.217687-2.411324 4.635195 1.32069 7.481069 3.842781-4.243249 38.37669-19.12018 75.551977-18.617466 114.874451 27.768568 8.256441 56.03133 18.216999 84.822367 22.766989 20.040403 3.169656 39.970038 2.377242 60.249017 3.919466 4.532948 0.349344 8.82732 3.467876 15.089946 3.800178 7.268054 0.391947 5.470212 0.374905 5.742871-5.683226 0.366385-8.179756-0.255617-16.47028 0-24.615954h-62.285436c-2.113104 0-15.473372-9.892393-16.521403-13.67553-2.343159-29.975398-13.002404-64.177004 6.91019-90.30962 4.515907 0.519755 16.265786-5.487253 17.160447-5.487254h54.736202v-22.65622c-14.306053 2.632859-27.018757-2.044939-39.7059-3.697932-23.116332-3.016285-44.111039-5.640624-66.963233-12.303716-19.605853-5.717309-42.219471-13.053528-55.647904-29.285232 0.579399-0.357864 3.305985-7.319178 7.549233-11.32385 2.036418 6.279667 7.268054 8.929567 12.474128 12.065141 72.271554 43.53164 244.438381 44.971618 317.306376 2.513571 5.274239-3.075929 8.017865-8.725073 13.735174-10.804095z m-162.325558 52.836113h-11.315329l-3.774617 22.656221h15.089946v-22.656221zM427.988702 664.755094c1.76376 4.149522-3.774617 8.82732-3.774617 9.440802v64.177004l5.666186 5.666185h166.091653l5.666186-5.666185v-67.951621l-5.666186-5.666185H427.988702z m90.5908 94.365416h-15.089946c0.562358 7.660001-3.033326 27.708924 5.666185 30.196934 2.027898 0.579399 9.423761 1.354772 9.432282-1.883048v-28.313886z m188.747874 11.332371c-1.738198-1.806363-40.668725 12.601937-47.970862 14.306053-87.761968 20.543117-200.957865 21.522984-289.009531-0.085206-14.680958-3.604205-28.612106-7.966742-42.338759-14.297532-10.173572-1.91713-4.456263 10.58256-5.87068 16.811103l0.332303 1.942692c7.412904 1.371813 14.254929 4.737442 21.497422 6.816463 93.68377 26.848346 235.772952 28.211638 330.479191 3.910946 10.863739-2.786229 21.557066-8.588744 32.693463-10.727409l0.178933-18.67711z m-385.036461 30.196933v62.285435c0 0.417508 3.305985 3.399711 3.82574 7.49811 1.32069 10.309901-3.927987 20.986187 5.44465 28.5269 4.592592 3.697931 20.858378 8.793238 27.376622 10.378066 20.849858 5.061224 65.071665 10.335463 85.947084 8.256441 6.364873-0.630523 13.09613-5.828076 20.858378-3.697931 3.323026-11.494262-13.445474-6.049611-11.33237-18.864563 37.584276 2.615818 75.083345 5.197553 113.212938 3.774617l0.426029 12.780869 5.5895 5.759911c37.839893 2.240912 75.705348-0.800934 111.977454-11.954372 5.223115-1.601869 12.516731-2.683983 16.155018-6.492682 9.227787-9.662337 4.311413-31.006388 5.393527-43.68501 1.099155-12.900157 5.385006-22.562494 4.106919-37.754688-0.332303-3.97059-3.08445-17.041159-6.066652-16.930391-15.14107 5.257197-30.273619 10.744451-45.942964 14.340135-77.34982 17.731326-162.001776 13.701092-240.655244 8.358689l-96.32515-22.579536z m135.89472 124.570871l-43.327146 3.697931-85.00982-15.013261 7.319177 17.20305c36.664053 10.130969 72.987283 15.788634 111.210602 12.601937l9.807187-18.489657z m245.367125-11.31533l-81.235204 15.013261-47.101763 1.959733 9.815707 12.840514c39.526968 2.922559 77.307217-0.979867 114.329135-15.149591l4.192125-14.655396z m-260.465591 41.512263c-34.772484 2.675462-68.266882-3.740534-101.91465-11.32385-3.067409 12.20999 8.477976 24.794886 7.728165 35.752351-0.468632 6.859066-8.835841 14.27197-7.668521 18.762316 14.757643 18.029546 58.68123 7.446986 75.347483-3.646808 6.254105-4.166563 30.997868-35.249637 26.507523-39.544009z m252.916357-11.315329c-3.689411-3.127053-45.576579 10.30138-54.821407 11.230123-14.41682 1.448498-30.461071-0.570879-45.244277 0.085206-4.311413 0.187453-7.983783-0.622002-5.615062 5.640624 3.578643 9.449323 20.074485 29.779425 28.8166 35.360404 14.101559 9.014773 68.428773 21.880848 72.910597 2.036418-12.746787-19.213906-1.729678-34.252729 3.953549-54.352775z" fill="#462820" p-id="3528"></path><path d="M797.926697 879.916764c-11.196041 11.562426-12.150346 12.082182-26.422317 18.873084l3.357108-13.317666-3.357108-1.780801c1.065072-0.613482 17.109323-13.360268 18.873083-15.098467l7.549234 11.32385z" fill="#5B3B32" p-id="3529"></path><path d="M688.454293 581.705007c6.092214-6.884628 12.090702-9.670858 11.877688-22.102383l39.007212-23.201538c17.364941 29.890192 31.355732 58.630107 58.485257 81.380054 1.652992 5.461691-17.833573 18.660069-22.715865 22.264274-19.725141 14.55315-42.006456 25.825876-62.140585 39.782585-8.179756 1.005428-4.70336-0.698688-5.495774-5.717309-1.244005-7.864495-5.572459-27.921939-15.098467-14.885452l14.953617 92.346039c-0.468632 2.445406-1.601869 4.243249-3.697931 5.632103-19.869991 8.725073-41.776401 15.652304-63.154535 20.00632-26.098535 5.308321-52.256713 6.143338-78.406371 8.418333-8.09455 0.707208-15.345563 6.492681-26.200782 3.38267l-5.640623-5.674706-0.323782-24.215487h54.736202c1.099155 0 15.362605-6.109255 20.866899-5.563938 15.984607-7.821892 14.99622-81.107395 3.885384-94.680678-1.61039-1.959733-12.610457-9.227787-13.419913-9.227787h-66.060052v-22.656221l32.011817-0.068165c40.609081-8.367209 97.790689-12.755307 126.530604-45.218714z" fill="#FDFDFD" p-id="3530"></path><path d="M329.840148 581.705007c13.436954 16.223183 36.042051 23.567923 55.647904 29.285231 22.860714 6.671614 43.846901 9.287432 66.963233 12.303717 12.678622 1.652992 25.391327 6.339311 39.7059 3.697931v22.656221h-54.744722c-0.903181 0-12.64454 6.007008-17.160447 5.487253-19.912594 26.132617-9.253349 60.334223-6.91019 90.30962 1.048031 3.783137 14.4083 13.67553 16.521403 13.67553h62.285436c-0.255617 8.145674 0.366385 16.436198 0 24.615954-0.272659 6.066653 1.525184 6.075173-5.742871 5.683227-6.262626-0.332303-10.556998-3.459355-15.089946-3.800179-20.278979-1.550745-40.208614-0.758332-60.249017-3.919466-28.791038-4.549989-57.053799-14.510547-84.822367-22.766988-0.494194-39.322474 14.374217-76.497762 18.617466-114.874451-2.845874-2.522091-3.263382-6.254105-7.481069-3.842782-10.088366 5.759912-10.497354 32.011817-15.115508 43.420873-7.429945 0.894661-7.574795 0.460111-11.315329-3.783138-6.390435-7.251013-12.593416-10.054284-18.941248-16.92187-6.083694-6.586408-13.104651-18.549301-18.003984-26.490481 0-6.859066 38.300004-43.659449 46.300828-51.149038 4.030234-3.774617 8.188277-2.760668 9.508966-3.587164z" fill="#FDFDFC" p-id="3531"></path><path d="M299.643215 717.599727c4.924895 3.203738 11.852126 3.697931 14.919534 9.798666-1.065072 37.575755-63.333466 61.671954-78.270042 21.47186-6.705696-18.046587 0.817976-35.462651 2.948121-53.926746l13.206898-22.6477c12.618978 19.230948 28.117912 32.880916 47.186968 45.2954z" fill="#FBFCFB" p-id="3532"></path><path d="M307.192448 687.402794c2.06198 1.567787 3.510479 8.784717 11.042671 7.847453 1.133237 7.855974 1.491101 13.96523-5.376486 18.557822-1.831925-4.234728-8.460935-3.050367-9.440801-3.749055-0.852058-0.604961-2.343159-5.333883-5.453171-7.625918-15.856798-11.707276-32.020337-23.431593-39.544009-42.79887l11.017109-13.743695c4.388098 12.806431 16.206142 26.814263 26.575687 35.752351 3.178176 2.743627 8.307565 3.587164 11.187521 5.776953z" fill="#C0BFBE" p-id="3533"></path><path d="M322.290915 800.649814l96.32515 22.579536c78.653468 5.350924 163.305424 9.372637 240.655244-8.358689 15.669345-3.587164 30.801894-9.082938 45.942964-14.340135 2.982203-0.110768 5.73435 12.959801 6.066652 16.930391 1.269566 15.192193-3.016285 24.85453-4.106919 37.754688-1.073593 12.678622 3.834261 34.022673-5.393527 43.68501-3.638287 3.808699-10.940424 4.890813-16.155018 6.492682-36.272106 11.144918-74.137561 14.195285-111.977455 11.954372l-5.5895-5.759911-0.426029-12.780869c-38.129593 1.422937-75.628663-1.167319-113.212938-3.774617-2.121624 12.823472 14.646876 7.370301 11.332371 18.864563-7.753727-2.130145-14.484985 3.058888-20.858379 3.697931-20.875419 2.079021-65.097226-3.186697-85.947084-8.256441-6.518243-1.584828-22.775509-6.671614-27.376621-10.378066-9.372637-7.540713-4.12396-18.225519-5.44465-28.5269-0.528276-4.098399-3.82574-7.072081-3.825741-7.49811v-62.285435z" fill="#FDFDFD" p-id="3534"></path><path d="M427.988702 664.755094h167.983222l5.666186 5.666185v67.951621l-5.666186 5.666185H429.880271l-5.666186-5.666185v-64.177004c0-0.613482 5.538377-5.282759 3.774617-9.440802z m64.177004 67.95162l-1.738198-53.006524c-4.447742-6.697175-41.367413-3.834261-51.268326-1.891569-6.680134 4.430701-3.808699 38.325566-1.951213 47.561874 16.495842 10.684807 36.425477 6.756819 54.957737 7.336219z m98.140033-56.62777h-60.393867v56.61925h60.393867v-56.61925z" fill="#F4F6F6" p-id="3535"></path><path d="M707.327376 770.452881l-0.178932 18.67711c-11.136397 2.138665-21.829724 7.94118-32.693463 10.727409-94.70624 24.300692-236.795421 22.9374-330.479192-3.910946-7.242492-2.079021-14.084518-5.44465-21.497421-6.816463l-0.332303-1.942692c1.414416-6.228544-4.302893-18.719713 5.870679-16.811103 13.726653 6.33079 27.657801 10.693327 42.338759 14.297532 88.051667 21.608189 201.247564 20.628323 289.009532 0.085206 7.302137-1.712636 46.232664-16.112416 47.970862-14.306053z" fill="#C4C4C5" p-id="3536"></path><path d="M722.425843 876.142148c0.511235-9.543049 3.53604-16.640692 3.936508-24.377378 0.920223-17.808011 1.397375-40.200093-3.280423-56.900429 10.514395-7.404383 19.273551-16.802583 29.540848-24.419981 5.086786 9.790146 21.91493 15.320002 28.330927 22.630659 1.891569 2.155707 12.022537 22.272794 12.678622 25.152751 6.603449 28.97849-48.626946 52.50381-71.206482 57.905857z" fill="#F5C07D" p-id="3537"></path><path d="M696.003526 944.102289c-5.683226 20.100047-16.700336 35.138869-3.953549 54.352775-4.481825 19.844429-58.809039 6.978355-72.910597-2.036418-8.742114-5.5895-25.237956-25.911082-28.8166-35.360404-2.368721-6.262626 1.303649-5.44465 5.615062-5.640624 14.774685-0.647564 30.827456 1.363293 45.244277-0.085206 9.244829-0.928743 51.131997-14.357176 54.821407-11.230123z" fill="#FAFAFA" p-id="3538"></path><path d="M443.087169 955.417618c4.490345 4.294372-20.253417 35.377446-26.507523 39.544009-16.666253 11.093794-60.58984 21.676354-75.347483 3.646808-1.167319-4.490345 7.19989-11.903249 7.668521-18.762316 0.749811-10.957465-10.795574-23.550881-7.728165-35.752351 33.647768 7.583316 67.142165 13.999312 101.91465 11.32385z" fill="#FCFCFC" p-id="3539"></path><path d="M790.377463 868.592914c-1.76376 1.738198-17.808011 14.493506-18.873083 15.098467-4.030234 2.309077-24.283651 9.696419-29.038134 10.59108-6.688655 1.261046-13.334707 0.749811-20.040403 0.74129 0.230056-6.245585-0.332303-12.64454 0-18.881603 22.579535-5.402047 77.809931-28.927367 71.206482-57.905858-0.656085-2.888476-10.787053-22.997044-12.678622-25.15275-6.415996-7.310657-23.244141-12.840513-28.330927-22.630659 40.88174-30.307701 65.642544 10.29286 60.334223 50.893421-1.354772 10.361025-15.192193 39.970038-22.588056 47.246612z" fill="#F4EDDE" p-id="3540"></path><path d="M458.185635 925.220685l-9.807187 18.489657c-38.223319 3.178176-74.546549-2.479489-111.210602-12.601937l-7.319177-17.20305 85.00982 15.013261 43.327146-3.697931z" fill="#C6C6C6" p-id="3541"></path><path d="M703.55276 913.905355l-4.192125 14.655397c-37.030438 14.169724-74.802166 18.072149-114.329135 15.14959l-9.815707-12.840513 47.101763-1.959733 81.235204-15.013261z" fill="#CBCAC9" p-id="3542"></path><path d="M518.579502 759.12051v28.313886c0 3.23782-7.395863 2.462447-9.423761 1.883048-8.699512-2.488009-5.103827-22.536932-5.666185-30.196934h15.089946z" fill="#D2D2D1" p-id="3543"></path><path d="M518.579502 626.991886v22.664741l-15.089946-0.00852 3.774617-22.664742 11.315329 0.008521z" fill="#DAD7D4" p-id="3544"></path><path d="M227.925498 691.17741c16.990035-52.111863 46.709816-86.90991 88.162435-121.34157 2.922559-2.428365 7.753727-3.800178 6.202982-8.869924-9.70494-10.991547-24.496666-15.285919-35.922763-24.488145-30.503674-24.581871-48.925167-56.534044-69.664257-88.886684-33.451795-4.192125-56.636291-12.295196-77.324258-39.697379-18.140313-24.019513-11.17048-35.786433-13.215418-62.285435-0.460111-5.989967-3.595684-10.693327-3.859823-15.013261-1.209922-19.537689 0.809455-36.962273 4.217687-56.02281 19.759224-28.305365 41.231084-51.62619 78.576783-51.651752 0.14485-6.859066 2.334639-13.453995 4.771525-19.767744 108.330646-280.710488 514.404418-266.029529 604.935573 16.274307 10.983027 8.742114 25.800314 8.145674 38.66639 14.186764 17.364941 8.137153 38.649348 33.434753 41.870127 52.49529 2.914038 17.254173 2.931079 68.318005 0.664605 86.03229-2.845874 22.221671-29.506766 54.088638-49.172264 64.074757-19.691059 9.99464-39.169103 4.294372-52.171507 23.320826-3.152614 4.609633-6.61197 12.729746-8.068989 18.353328l54.804367-24.454063c51.523943-3.783137 70.124368 33.298424 52.844633 79.258429-20.193773 53.739294-106.856586 119.867511-155.415368 150.345623-15.797154 9.917954-26.072973 4.805607-24.104719 29.072217 0.690167 8.452415 2.79475 18.898645 3.927987 28.143474l-11.32385-3.774617c-0.596441 4.805607 0.843537 10.650724 0 15.098467L692.373759 659.233758c9.526008-13.036486 13.854462 7.020957 15.098467 14.885453 0.792414 5.027142-2.683983 6.722737 5.495774 5.717308 20.14265-13.96523 42.415444-25.229436 62.140585-39.782585 4.882292-3.604205 24.368857-16.794062 22.715865-22.264274-27.129525-22.749947-41.120316-51.489861-58.485257-81.380053l-39.007212 23.201537c0.213014 12.431525-5.785473 15.217755-11.877688 22.102383l-7.549233-7.549233 3.774616-7.540713c-2.845874-2.428365-46.411596 15.754551-55.528616 18.08067-16.751459 4.26881-46.803543 10.531436-63.461275 12.031058-44.784165 4.038755-91.136117 3.067409-135.690226-3.82574-31.117156-4.814127-61.697515-14.357176-90.897541-25.885521-1.780801-0.14485-1.278087 2.94812-1.721157 3.365629-4.243249 4.004672-6.969834 10.965986-7.549233 11.32385-1.32069 0.826496-5.478733-0.187453-9.508967 3.587164-8.000824 7.489589-46.300828 44.289972-46.300828 51.149038 4.890813 7.94118 11.91177 19.904073 18.003984 26.490481 6.347832 6.867587 12.559334 9.670858 18.941248 16.921871l-3.37415 2.215351-0.400467 5.342403c-2.871435-2.181268-8.000824-3.033326-11.187521-5.776953-10.378066-8.938088-22.187589-22.94592-26.575687-35.752351l-11.017109 13.743695c7.523672 19.367277 23.695731 31.091594 39.544009 42.79887 3.110011 2.300556 4.601113 7.020957 5.453171 7.625918l-3.374149 2.215351-0.400468 5.342403c-19.069057-12.414484-34.576511-26.064452-47.186968-45.2954l-13.206898 22.6477-1.806363-2.641379-9.517487-1.133237z m528.480415-554.911252c-5.223115-6.160379-10.130969-15.473372-15.021781-20.832817C615.714107-22.233659 387.728964-18.791345 269.369596 126.757191c-2.488009 3.058888-13.556242 18.208478-11.247164 20.832817 28.629147-20.474952 67.764168-42.492129 103.635807-45.465811 97.833292-8.09455 206.794461 6.305229 305.837676 0.255617 28.867723 7.78781 60.555758 20.415308 85.026861 37.660961 1.082114 0.766852 2.488009 6.313749 5.674706 7.540712 14.885452-1.644472 1.687075-7.089122-1.900089-11.315329z m-400.134928-18.873083c-34.380538 2.198309-105.203594 41.316289-124.042594 70.362944-28.467256 43.880984-31.585788 134.199125-23.048167 184.308653 5.73435 33.690371 19.605853 80.44279 48.933687 100.167931l-24.581871-49.018893c-25.323162-62.276915-29.643096-141.211562-3.774617-203.957109 19.861471-48.158315 67.252933-75.253757 115.189712-90.539676 88.639587-0.579399 177.432545 0.775373 266.114735-0.008521 6.211502-0.051123 17.629079 2.786229 20.773173-3.766096 20.313061 0.43455 41.094754-0.127809 60.393867 7.549233 11.02563 4.388098 34.380538 19.256509 45.2954 26.422317 27.146566 17.825052 31.602829 24.41146 45.2954 52.844633l-4.422181 12.64454-3.127053 2.453927c-0.230056-1.141758 0.110768-2.488009 0-3.774617-0.639043-7.361781 2.453927-8.605785-7.549233-7.549233 0.042603 10.650724-0.085206 21.378134 0 32.071461 0.051123 6.202982-2.786229 17.620558 3.766096 20.773172 0.74129 4.907854 14.536108 45.124988 16.947432 49.11262 1.082114 1.789322 4.771524 4.873771 5.691747 3.732014 0.161891-3.749055-0.204494-7.583316 0.008521-11.32385 0.213014-3.749055-0.15337-7.583316 0.00852-11.32385l11.31533 3.774616c1.559266 36.877068-1.124716 70.788973-13.172816 105.73187-6.722737 19.495086-18.600425 36.842985-24.573351 56.585167-5.538377 2.266474-8.784717 5.120868-7.540712 11.32385 5.989967-0.894661 8.256441-7.855974 11.315329-11.32385 10.130969-11.485741 17.151926-20.858378 23.397511-35.113307 23.610525-53.850062 23.942828-139.030294 8.793238-195.257597-3.842781-14.254929-13.164295-42.79035-21.301449-54.190885-4.71188-6.603449-31.807323-22.49433-41.086233-28.748435-13.999312-9.423761-28.322406-20.364185-45.2954-26.422316-8.784717-3.135573-24.224007-5.478733-33.97155-7.549234-3.135573-6.552326-14.56167-3.706452-20.773173-3.766096-84.260009-0.749811-168.639307-0.2897-252.907837-0.00852-9.491925 0.034082-25.024942-3.08445-32.088502 3.774616z m-49.078537 45.30392c-1.013949 0.579399-3.38267-0.383426-5.095306 0.681647-6.288188 3.919467-22.784029 14.229368-24.632995 20.551637-2.9396 22.664741 2.35168 49.070017-0.536797 71.189441-1.942692 14.885452-13.37731 37.754687-17.893216 53.8245-7.182848 25.570259-10.216175 44.468904-12.303717 70.729329-0.315261 3.979111-3.544561 7.694083-3.842781 11.579467-0.647564 8.418332 5.691747 18.106231 7.685562 24.351816 4.532948 14.229368 7.037999 23.97691 15.098467 37.746167 2.019377 3.442314 8.810279 15.021781 11.32385 15.098467 2.709544 8.264962 11.528344 24.351816 17.024117 30.162851 4.70336 4.967498 14.357176 7.94118 20.72205 11.366452 119.765264 64.372977 269.062856 64.424101 388.811078 0 11.519823-6.194461 19.273551-8.128633 28.194597-19.026453 2.701024-3.297464 3.587164-8.09455 5.776953-11.17048 7.873015-11.076753 12.388922-18.072149 18.873083-30.196933 7.259534-13.573283 13.641448-26.959113 18.873083-41.520783 12.150346-33.801138 7.540713-52.231152-1.780801-86.926951-4.481825-16.666253-18.958289-44.690439-20.866899-58.408572-3.041847-21.795642 2.64138-48.780317-0.468632-71.249085-7.574795-10.863739-18.617466-18.293684-29.728301-25.0079-32.250393-19.503606-45.908882-21.693395-83.050087-22.6477-81.081833-2.079021-164.753923 3.766096-245.367125 0-9.031814-0.426029-15.788634-4.430701-24.598912-4.030234-24.258089 1.107675-42.321718 11.460179-62.217271 22.903317zM227.925498 347.661732c0.085206 5.010101-0.068165 10.088366 0 15.098467h7.540713c0.281179-4.976018-0.383426-10.130969 0-15.098467 1.976774-25.28908 22.6477-74.256849 22.6477-84.933135V206.109347c0-0.869099 7.191369-5.086786 1.874527-5.666185h-5.632102c0.715729 6.807943-5.802515 10.58256-8.384251 16.18058-19.043495 41.205522-18.82196 86.645772-18.055107 131.046511z m-30.205454-109.463883c-15.907922 0.88614-32.224831 7.464028-41.04363 21.233284 0.485673 30.8871-2.266474 63.367549-0.639044 94.058676 0.323782 6.058132 3.484917 10.44623 3.859823 15.013261 1.295128 15.831236-1.772281 30.938224 4.405139 46.564966 14.212326 6.927231 27.623718 17.254173 44.741562 15.643784 2.147186-2.130145-13.556242-49.623854-15.00474-58.596025-5.2998-32.761628-3.578643-61.995736-0.15337-94.348375 1.397375-13.172816 3.024806-26.388234 3.83426-39.569571z m611.530503 192.50545c19.154262 1.048031 46.258225-11.332371 49.070016-32.079981 1.124716-8.307565-0.758332-17.663161 0.085206-26.337111 0.383426-3.953549 3.38267-7.677042 3.621246-11.477221 2.096063-33.519959-0.979867-67.79825-0.391946-101.377853-2.283515-7.949701-27.086922-20.176732-35.326322-21.31849-6.364873-0.87762-6.134817 0.017041-5.828077 5.828077 12.874595 61.791242 11.7584 127.544553-11.221603 186.7711zM137.326178 281.60168v90.599321c0 3.135573 8.282003 18.498178 7.557754 24.530748l3.927987-20.918022c-7.890057-32.35264-2.309077-66.707616-3.945028-99.869711l-7.540713 5.666185z m732.335276 111.355452c14.987699-7.310657 9.832749-23.312305 11.383495-35.794954 2.257954-18.182916 5.521335-33.264342 3.621246-52.836112-0.715729-7.387342-3.868343-22.784029-9.355596-28.390571l-5.649145 117.013117z m-15.124028 177.432545c5.828076-16.75998 25.783273-34.176044 29.600493-51.583587 2.445406-11.161959 2.164227-32.932039-6.91019-40.924343-26.038891-22.928879-66.869507 1.457019-86.816183 22.673262 23.329346 21.352572 38.427813 50.944544 64.134401 69.843189z m-132.111583-52.861674c-117.439146 65.30172-257.917938 72.169307-381.321489 20.815775l-64.11736-32.131105c9.125541 13.871503 25.962205 24.973818 40.225656 33.37511 115.00226 67.713044 305.053783 62.05538 412.762426-18.285164 7.012437-5.231636 14.902493-10.73593 18.873084-18.864562-9.71346 0.826496-18.52374 10.701848-26.422317 15.089946z m58.510818-15.081426l-9.134061 12.670102c13.701092 29.796466 34.695799 55.392287 58.212599 77.886616l12.831992-13.147254-61.902009-77.409464z m-22.6477 15.098467c-10.744451 7.344739-3.425273 23.414552 1.073593 32.880916 11.187521 23.508278 33.801138 43.122652 51.771041 61.458939l9.355596-12.968322c-25.646944-23.491237-43.105611-52.819072-62.20023-81.371533z" fill="#492A22" p-id="3545"></path><path d="M639.384276 143.815391c-0.017041 14.732082 14.945096 15.907922 22.468768 20.935064 18.898645 12.618978 38.547101 28.015665 51.140518 46.990995 12.584896-11.340891-0.076685-31.560226 9.440801-45.278359 11.110836 6.722737 22.144986 14.152682 29.728302 25.007901 3.110011 22.477288-2.564694 49.453443 0.468632 71.249085 1.90861 13.718133 16.385074 41.733798 20.866899 58.408571 9.321514 34.695799 13.931147 53.125812 1.780801 86.926951 2.530612-13.667009-2.20683-9.057376-7.34474-13.249501-27.368101-22.323918-44.068437-15.933483-76.804502-8.622826l-59.294712 25.638423c-36.825944 2.752147-40.413108-10.054284-66.571287-25.911082-21.514463-13.036486-38.121072-18.327766-63.819139-15.771592-37.584276 3.740534-59.473644 48.805879-99.878232 41.682674-0.647564-0.110768-6.697175-2.513571-11.32385-3.774617-1.201402-0.332303-2.675462 0.366385-3.774616 0-14.740602-4.899333-31.713596-16.598089-48.004944-21.829724-13.471036-4.328454-38.044387-6.100735-46.360473-12.150346 8.179756-58.732354 34.159003-109.191225 67.542633-157.221731-2.155707-14.314573-8.571703-15.558578-18.472616-20.193773-2.683983-1.261046-4.720401-6.185941-11.32385-3.783137-7.583316-6.083694 63.989551-41.239604 64.177004-49.061496 80.613201 3.766096 164.285291-2.079021 245.367124 0z m-35.053663 106.209022c-11.741358 1.857486-33.375109 12.133305-36.059092 24.632995-7.387342 34.295332 29.41304 35.283719 52.20559 22.008657 11.62207-6.76534 15.567099-24.062116 9.56861-35.922763-2.973682-5.88772-19.086098-11.76692-25.706588-10.718889z m-196.62941 3.740535c-4.234728 1.235484-8.034906 7.966742-11.90325 10.73593l-2.019377 5.776952c1.891569 26.362673 31.705076 35.811995 54.489105 31.61135 9.960557-5.214595 11.400535-13.309145 9.909434-24.070637-2.837353-20.534596-32.889436-29.182984-50.484433-24.053595zM658.163633 354.452634c0-21.897889-17.748367-39.646256-39.646256-39.646256s-39.646256 17.748367-39.646255 39.646256 17.748367 39.646256 39.646255 39.646256 39.646256-17.748367 39.646256-39.646256z m-294.351935 0.758332c32.471928-10.914862 52.563454-0.58792 77.409464 18.856042 4.882292 3.81722 8.137153 3.348588 9.41524-1.883048 3.178176-13.002404-18.600425-30.520715-29.089258-35.062184-19.69958-8.546141-38.870883-9.943516-57.786569 1.048031l-3.553082 4.200646 3.604205 12.849033z" fill="#F8C27E" p-id="3546"></path><path d="M631.835043 411.838736c7.446986-0.553838 11.962893-2.760668 18.873083-3.774616 2.113104 8.67395-8.886964 11.17048-10.795574 17.50979-1.013949 3.38267-4.141002 18.864563-4.42218 22.306877-0.528276 6.569367 8.904005 30.682606 13.317665 35.692707 4.336975 4.916374 28.859202 18.643028 35.684187 20.943584 6.705696 2.257954 15.950525-0.604961 19.069056 5.470212-119.748223 64.424101-269.045814 64.372977-388.811078 0 8.656909-8.486497 24.675598-1.226963 35.317802-4.311413 8.256441-2.394283 18.430013-16.828144 28.160514-19.017933l15.030302-43.446435-6.790901-35.147389c1.099155 0.366385 2.573215-0.332303 3.774616 0l2.35168 3.357108 8.97217 0.417508c40.413108 7.123204 62.293956-37.94214 99.878232-41.682674 25.689547-2.556174 42.304677 2.735106 63.819139 15.771592 26.166699 15.856798 29.753863 28.663229 66.571287 25.911082z m-83.629487-18.302204c-23.508278-17.629079-93.581523-8.247921-65.395446 29.540848 5.069745 6.790902 18.873083 13.283583 27.078401 14.578712 21.650792 3.425273 54.446502-20.270458 38.308525-44.11956z m27.001716 56.048371l-14.732081 0.357864c-4.618154 18.668589-20.202294 18.251081-36.246545 18.506699-5.759912 0.093726-10.923383-2.683983-9.40672 5.657664 11.528344 12.618978 23.661649 10.488833 37.814332 3.859823 10.088366-4.728922 24.55631-15.984607 22.571014-28.38205z" fill="#FAF1DF" p-id="3547"></path><path d="M756.405913 136.266158l-3.774616 3.774617c-24.462583-17.245653-56.150618-29.873151-85.026862-37.660961-99.043215 6.049611-208.004384-8.350168-305.837676-0.255617-35.871639 2.965162-75.00666 24.990859-103.635807 45.465811-2.309077-2.624338 8.750635-17.773929 11.247165-20.832817 118.350848-145.548537 346.33599-148.990851 472.006015-11.32385 4.890813 5.359444 9.798666 14.672438 15.021781 20.832817z" fill="#FEFEFE" p-id="3548"></path><path d="M197.720044 238.197849c-0.809455 13.181336-2.436886 26.388234-3.83426 39.569571-3.425273 32.35264-5.14643 61.586748 0.15337 94.348375 1.448498 8.97217 17.151926 56.46588 15.00474 58.596025-17.117844 1.61891-30.529236-8.716553-44.741562-15.643784-6.17742-15.626743-3.110011-30.73373-4.405139-46.564966-0.374905-4.567031-3.544561-8.955129-3.859823-15.013261-1.627431-30.691127 1.124716-63.180096 0.639044-94.058676 8.8188-13.769256 25.135709-20.347144 41.04363-21.233284z" fill="#FBFCFA" p-id="3549"></path><path d="M356.270985 117.393075c99.528888-6.364873 205.550457 4.745963 305.760991 0 9.747543 2.070501 25.186833 4.41366 33.97155 7.549233l-0.400467 5.342403-3.374149 2.215351c-19.299112-7.677042-40.089326-7.114684-60.393867-7.549233-92.448286-1.968254-185.203313 1.61039-277.719764-0.178933-5.180512-2.343159-8.656909 3.783137-9.168144 3.953549-47.93678 15.285919-95.336763 42.381362-115.189712 90.539677-25.868479 62.745547-21.548545 141.680194 3.774617 203.957108l24.581871 49.018893c-29.327834-19.716621-43.199337-66.47756-48.933687-100.167931-8.537621-50.118048-5.419088-140.427669 23.048167-184.308652 18.839001-29.046655 89.662057-68.164635 124.042594-70.362945z" fill="#E4E0DE" p-id="3550"></path><path d="M809.250547 430.703299c22.980003-59.226547 24.104719-124.979858 11.221603-186.7711-0.306741-5.811035-0.536797-6.705696 5.828076-5.828076 8.2394 1.141758 33.042807 13.368789 35.326322 21.318489-0.596441 33.579603 2.488009 67.857894 0.391947 101.377854-0.238576 3.800178-3.23782 7.523672-3.621246 11.47722-0.843537 8.67395 1.039511 18.029546-0.085206 26.337111-2.811791 20.756131-29.907234 33.136533-49.070017 32.079981z" fill="#F7F8F8" p-id="3551"></path><path d="M386.467919 408.06412l6.790901 35.147389-15.030302 43.446435c-9.730502 2.181268-19.904073 16.62365-28.160514 19.017933-10.642204 3.08445-26.660893-4.175084-35.317802 4.311413-6.364873-3.425273-16.02721-6.398955-20.722049-11.366453-5.495774-5.811035-14.314573-21.897889-17.024118-30.162851l3.621247-2.070501c25.561738 30.495154 65.983367 18.591904 86.492401-11.605029 3.706452-12.687143-2.607297-34.593552-10.778533-44.894932-12.014017-15.132549-35.479693-12.388922-52.486769-8.946609-2.94812 9.807187-11.809523 16.598089-15.524496 26.004808 2.249433-16.393595-17.160447-23.295264-30.196933-26.422316 5.010101-5.836597 8.776197-8.2394 15.030302-13.206898-1.951213-1.482581-2.786229-3.510479-3.697931-5.666186l16.657732 0.221536 5.989968-7.770769c8.316085 6.049611 32.889436 7.821892 46.360472 12.150346 16.291348 5.231636 33.264342 16.930391 48.004944 21.829725z" fill="#F9DCC1" p-id="3552"></path><path d="M276.995515 468.457986c-2.513571-0.076685-9.304473-11.656153-11.32385-15.098466l4.013193-11.093795c21.463339 1.90861 14.655397-5.248677 18.634507-15.328522 3.714973-9.40672 12.576375-16.189101 15.524496-26.004808 17.007076-3.442314 40.472752-6.185941 52.486768 8.946608 8.179756 10.30138 14.493506 32.20779 10.778533 44.894933-20.517555 30.205454-60.930663 42.100183-86.492401 11.605029l-3.621246 2.070501z" fill="#F8C3A5" p-id="3553"></path><path d="M722.425843 517.528003l5.342403 0.400467 2.215351 3.374149c-107.700123 80.340543-297.760167 85.998208-412.762427 18.285164-14.26345-8.401291-31.100115-19.503606-40.225655-33.37511l64.11736 32.131105c123.403551 51.345011 263.882343 44.477424 381.321488-20.815775z" fill="#F7F7F6" p-id="3554"></path><path d="M631.835043 411.838736l59.294712-25.638423c32.736066-7.310657 49.436402-13.701092 76.804502 8.622826 5.137909 4.192125 9.875351-0.417508 7.34474 13.249501-5.231636 14.56167-11.62207 27.9475-18.873084 41.520783-7.259534-4.626675-1.831925-14.425341-5.666185-22.6477-10.761492-23.099291-38.68343-37.013397-63.699851-29.728301-3.357108 0.979867-18.540781 16.853706-20.73057 20.798734-8.878444 15.959045-7.617398 31.90957 0.178932 47.877136 8.034906 16.461759 34.159003 18.668589 46.496802 28.68027 4.234728-3.152614 7.361781-7.574795 11.332371-11.000068 3.263382-2.811791 9.730502-13.172816 13.206898-3.783137-2.189789 3.075929-3.075929 7.873015-5.776953 11.170479-8.921047 10.8893-16.674774 12.823472-28.194597 19.026454-3.118532-6.075173-12.363361-3.212258-19.069057-5.470212-6.816464-2.300556-31.347212-16.018689-35.684186-20.943584-4.41366-5.010101-13.854462-29.12334-13.317666-35.692707 0.281179-3.442314 3.408232-18.924207 4.422181-22.306877 1.90861-6.339311 12.908678-8.835841 10.795574-17.50979-6.91019 1.013949-11.417576 3.212258-18.873084 3.774616z" fill="#F8DEC4" p-id="3555"></path><path d="M854.537426 570.389677c-25.706588-18.890124-40.805055-48.490617-64.134401-69.843189 19.946676-21.216243 60.777293-45.602141 86.816183-22.673262 9.074417 7.992303 9.364117 29.762384 6.91019 40.924343-3.81722 17.407544-23.772416 34.823608-29.600492 51.583588z" fill="#FBFBFB" p-id="3556"></path><path d="M337.389382 570.381157c0.44307-0.417508-0.059644-3.501958 1.721157-3.365629 29.191505 11.528344 59.771864 21.062872 90.89754 25.88552 44.55411 6.893149 90.897541 7.864495 135.690227 3.82574 16.657733-1.499622 46.709816-7.762248 63.461275-12.031058 9.11702-2.326118 52.674222-20.509035 55.528616-18.080669l-3.774617 7.540712c-5.717309 2.079021-8.460935 7.736686-13.735174 10.804095-72.859474 42.458047-245.034822 41.018069-317.306376-2.513571-5.206074-3.135573-10.43771-5.785473-12.474128-12.06514z" fill="#C5C6C6" p-id="3557"></path><path d="M307.192448 162.696995c-1.900089 16.904829 2.223871 32.49749 3.774617 49.070017-29.745343 31.040471-58.417092 130.322262-41.520783 169.86627 0.920223 2.147186 1.755239 4.183604 3.697931 5.666186-6.245585 4.967498-10.020201 7.370301-15.030302 13.206898-3.893905 4.541469-8.154194 7.694083-7.549233 15.098466-1.985295-6.245585-8.333127-15.933483-7.685563-24.351816 0.29822-3.885384 3.52752-7.608877 3.842781-11.579467 2.087542-26.260426 5.120868-45.159071 12.303717-70.729329 4.515907-16.069813 15.950525-38.939048 17.893217-53.8245 2.888476-22.110903-2.402803-48.516179 0.536796-71.189441 1.840445-6.32227 18.344807-16.632171 24.632995-20.551637 1.712636-1.065072 4.081358-0.102247 5.095307-0.681647z" fill="#F0C58B" p-id="3558"></path><path d="M756.405913 449.584903c-6.484161 12.124784-11.000068 19.128701-18.873083 30.196933-3.476396-9.398199-9.943516 0.971346-13.206898 3.783137-3.979111 3.425273-7.097643 7.847454-11.33237 11.000068-12.337799-10.011681-38.461895-12.218511-46.496802-28.68027-7.79633-15.976086-9.065896-31.91809-0.178932-47.877135 2.189789-3.936508 17.373461-19.818868 20.730569-20.798735 25.016421-7.276575 52.93836 6.629011 63.699852 29.728302 3.82574 8.222359-1.593348 18.021025 5.666185 22.6477z m-54.12272-37.115644c-11.928811 2.675462-27.086922 18.600425-25.280559 31.543185 1.02247 7.327698 22.749947 29.779425 32.241873 28.433173 20.696487-13.09613 36.553286-26.107055 20.210814-50.637803-7.225451-10.846698-14.075997-12.261114-27.172128-9.330034z" fill="#F8CBAD" p-id="3559"></path><path d="M771.50438 464.68337h-3.774617c5.972926-19.742182 17.850614-37.090082 24.573351-56.585168 12.048099-34.942896 14.732082-68.854802 13.172816-105.73187-1.542225-36.527724-7.114684-58.331886-22.6477-90.59932-13.692571-28.441694-18.157355-35.028102-45.2954-52.844633l0.400467-5.342404 3.37415-2.21535c9.278911 6.245585 36.374353 22.144986 41.086234 28.748435 8.137153 11.409056 17.458667 39.944476 21.301448 54.190884 15.14959 56.227303 14.817288 141.416056-8.793238 195.257597-6.254105 14.254929-13.275063 23.619046-23.397511 35.113308z" fill="#EDEBE9" p-id="3560"></path><path d="M394.017152 143.815391c-0.178932 7.830412-71.751799 42.977802-64.177004 49.061496 6.603449-2.402803 8.639867 2.522091 11.32385 3.783138-10.667765-1.116196-23.201538 7.79633-30.196933 15.098466-1.559266-16.581047-5.674706-32.165187-3.774617-49.070016 19.895553-11.443138 37.959181-21.787121 62.217271-22.903318 8.8188-0.400467 15.567099 3.604205 24.598912 4.030234z" fill="#F8C1B3" p-id="3561"></path><path d="M722.425843 166.471612c-9.517487 13.718133 3.152614 33.937468-9.440802 45.278359-12.593416-18.97533-32.241872-34.372017-51.140517-46.990995-7.532192-5.027142-22.49433-6.211502-22.468768-20.935064 37.141205 0.954305 50.799694 3.144094 83.050087 22.6477z" fill="#F7C8B8" p-id="3562"></path><path d="M227.925498 347.661732c-0.766852-44.400739-0.979867-89.840989 18.055108-131.04651 2.581736-5.598021 9.099979-9.364117 8.38425-16.180581h5.632103c5.308321 0.579399-1.874527 4.797086-1.874527 5.666186v56.61925c0 10.676286-20.670926 59.644056-22.6477 84.933135h-7.549234z" fill="#EAE8DD" p-id="3563"></path><path d="M780.936661 502.446577l61.90201 77.409464-12.831993 13.147254c-23.516799-22.49433-44.511507-48.098671-58.212598-77.886616l9.134061-12.670102z" fill="#C5C2BF" p-id="3564"></path><path d="M758.288961 517.545044c19.094618 28.552461 36.561806 57.880296 62.20023 81.371533l-9.355596 12.968322c-17.969902-18.336287-40.58352-37.950661-51.771041-61.458939-4.507386-9.466364-11.818044-25.536176-1.073593-32.880916z" fill="#D3D1CF" p-id="3565"></path><path d="M288.319365 426.937203c-3.979111 10.079845 2.828832 17.237132-18.634507 15.328522l-4.013193 11.093795c-8.060468-13.777777-10.565518-23.516799-15.098467-37.746167-0.604961-7.404383 3.655329-10.556998 7.549234-15.098467 13.036486 3.127053 32.446366 10.028722 30.196933 26.422317z" fill="#F7F7EE" p-id="3566"></path><path d="M805.47593 302.366332l-11.315329-3.774616c-0.161891 3.749055 0.204494 7.583316-0.008521 11.32385l-8.333127-50.177692c-3.570123-10.940424-8.273483-21.548545-10.539956-32.872395l3.127052-2.453927 4.422181-12.64454c15.541537 32.258914 21.105475 54.071597 22.6477 90.59932z" fill="#56372E" p-id="3567"></path><path d="M662.031976 117.393075c-100.219055 4.745963-206.240624-6.364873-305.760991 0 7.06356-6.859066 22.588056-3.740534 32.088502-3.774617 84.26853-0.281179 168.647828-0.74129 252.907837 0.008521 6.211502 0.051123 17.629079-2.786229 20.773173 3.766096z" fill="#DAD7D6" p-id="3568"></path><path d="M869.661454 392.957132l5.649145-117.013116c5.495774 5.606541 8.639867 21.003228 9.355596 28.39057 1.900089 19.571771-1.371813 34.653196-3.621246 52.836113-1.550745 12.482649 3.604205 28.484297-11.383495 35.794954z" fill="#BEB8B4" p-id="3569"></path><path d="M631.835043 124.942308c-3.135573 6.552326-14.56167 3.706452-20.773173 3.766096-88.68219 0.792414-177.475148-0.562358-266.114735 0.008521 0.511235-0.161891 3.987631-6.296708 9.168144-3.953549 92.516451 1.789322 185.271478-1.789322 277.719764 0.178932z" fill="#DAD7D6" p-id="3570"></path><path d="M775.278997 226.865479c2.266474 11.32385 6.969834 21.931971 10.539956 32.872395l8.333127 50.177692c-0.213014 3.749055 0.15337 7.583316-0.008521 11.32385-0.928743 1.141758-4.609633-1.942692-5.691747-3.732014-2.411324-3.996152-16.206142-44.204766-16.947432-49.11262-1.942692-12.831993-0.085206-32.49749 1.806363-45.30392h1.968254c0.110768 1.286607-0.230056 2.64138 0 3.774617z" fill="#EFEEEC" p-id="3571"></path><path d="M137.326178 281.60168l7.540713-5.666185c1.644472 33.162095-3.936508 67.517071 3.945028 99.869711l-3.927987 20.918022c0.715729-6.03257-7.557754-21.395175-7.557754-24.530748V281.59316z" fill="#C3BBB3" p-id="3572"></path><path d="M741.307447 151.373145l-3.37415 2.215351-0.400467 5.342403c-10.914862-7.165807-34.26977-22.034218-45.2954-26.422316l3.37415-2.215351 0.400467-5.342403c16.981515 6.058132 31.304609 16.998556 45.2954 26.422316z" fill="#DDDBDC" p-id="3573"></path><path d="M771.50438 268.386262c-6.552326-3.152614-3.706452-14.570191-3.766096-20.773173-0.093726-10.693327 0.042603-21.420737 0-32.07146 9.99464-1.065072 6.901669 0.187453 7.549233 7.549233h-1.968253c-1.900089 12.79791-3.749055 32.471928-1.806363 45.2954z" fill="#56372E" p-id="3574"></path><path d="M722.425843 517.528003c7.898577-4.388098 16.708856-14.26345 26.422317-15.089946-3.97059 8.128633-11.860646 13.632927-18.873084 18.864562l-2.21535-3.374149-5.342404-0.400467z" fill="#D5D1D3" p-id="3575"></path><path d="M235.474732 347.661732c-0.383426 4.967498 0.272659 10.113928 0 15.098467h-7.540713c-0.068165-5.010101 0.085206-10.079845 0-15.098467h7.549233z" fill="#A68E83" p-id="3576"></path><path d="M756.405913 136.266158c3.578643 4.226207 16.785541 9.670858 1.90009 11.315329-3.186697-1.226963-4.584072-6.773861-5.674706-7.540712l3.774616-3.774617z" fill="#AEA2A0" p-id="3577"></path><path d="M771.50438 464.68337c-3.058888 3.467876-5.325362 10.429189-11.315329 11.323849-1.244005-6.202982 2.002336-9.057376 7.540712-11.323849h3.774617z" fill="#A79B9A" p-id="3578"></path><path d="M341.163998 196.668545c9.900913 4.643716 16.308389 5.8792 18.472616 20.193773-33.38363 48.030506-59.362877 98.489377-67.542632 157.221731l-5.989968 7.770768-16.657732-0.221535c-16.896309-39.544009 11.775441-138.8258 41.520783-169.86627 6.995396-7.302137 19.529168-16.214663 30.196933-15.098467z" fill="#FCFCF8" p-id="3579"></path><path d="M618.508857 354.452634m-39.646256 0a39.646256 39.646256 0 1 0 79.292512 0 39.646256 39.646256 0 1 0-79.292512 0Z" fill="#502D25" p-id="3580"></path><path d="M604.330613 250.024413c6.62049-1.048031 22.732906 4.831169 25.706588 10.718889 5.998488 11.860646 2.06198 29.148902-9.568611 35.922763-22.79255 13.275063-59.592932 12.286675-52.20559-22.008657 2.692503-12.491169 24.317734-22.775509 36.059092-24.632995z" fill="#F8F0D9" p-id="3581"></path><path d="M407.701203 253.764948c17.594996-5.129389 47.638559 3.518999 50.484432 24.053595 1.491101 10.761492 0.051123 18.847522-9.909433 24.070637-22.79255 4.200646-52.606057-5.248677-54.489106-31.61135l2.019378-5.776952c3.868343-2.769188 7.677042-9.500446 11.903249-10.73593z" fill="#F8EFD9" p-id="3582"></path><path d="M363.811698 355.210966l-3.604205-12.849034 3.553082-4.200646c18.915686-10.991547 38.08699-9.594172 57.786569-1.048031 10.488833 4.549989 32.267434 22.05978 29.089258 35.062184-1.278087 5.231636-4.532948 5.708788-9.41524 1.883048-24.846009-19.443962-44.937536-29.770904-77.409464-18.856042z" fill="#4C2C1D" p-id="3583"></path><path d="M401.566385 411.838736l-8.97217-0.417508-2.35168-3.357108c4.626675 1.261046 10.676286 3.663849 11.32385 3.774616z" fill="#F9DCC1" p-id="3584"></path><path d="M548.205556 393.536532c16.129457 23.849102-16.657733 47.544833-38.308524 44.11956-8.213839-1.295128-22.017177-7.78781-27.078402-14.578712-28.186077-37.78877 41.887168-47.169927 65.395447-29.540848z" fill="#512E26" p-id="3585"></path><path d="M575.207272 449.584903c1.985295 12.397443-12.482649 23.644608-22.571014 28.38205-14.144162 6.629011-26.277467 8.759156-37.814332-3.859823-1.516663-8.341647 3.646808-5.572459 9.40672-5.657664 16.044251-0.255617 31.628391 0.161891 36.246545-18.506699l14.732081-0.357864z" fill="#4F362D" p-id="3586"></path><path d="M702.283193 412.469259c13.09613-2.931079 19.946676-1.516663 27.172128 9.330035 16.342471 24.530748 0.494194 37.541673-20.210814 50.637803-9.491925 1.354772-31.219403-21.105475-32.241873-28.433174-1.806363-12.934239 13.343227-28.867723 25.280559-31.543184z" fill="#F8BB9B" p-id="3587"></path><path d="M590.305739 676.078944v56.61925h-60.393867v-56.61925h60.393867z m-11.32385 49.078537l-1.831924-37.822852-35.922763 0.059644v33.980071l37.754687 3.783137z" fill="#4C332C" p-id="3588"></path><path d="M492.165706 732.706714c-18.53226-0.579399-38.461895 3.348588-54.957737-7.336219-1.857486-9.236308-4.728922-43.131173 1.951213-47.561874 9.900913-1.942692 46.820584-4.814127 51.268326 1.891569l1.738198 53.006524z m-7.549233-41.537824h-37.763208l1.738198 26.584208c4.780045 7.182848 27.095442 2.215351 36.02501 3.629766v-30.213974z" fill="#533D36" p-id="3589"></path><path d="M578.981889 725.157481l-37.754687-3.783137v-33.980071l35.931283-0.059644 1.823404 37.822852z" fill="#498BB1" p-id="3590"></path><path d="M484.616473 691.16889v30.213974c-8.929567-1.414416-31.244965 3.561602-36.02501-3.629766l-1.738198-26.584208h37.763208z" fill="#5590BA" p-id="3591"></path></svg>