<?xml version="1.0" standalone="no"?><!DOCTYPE svg PUBLIC "-//W3C//DTD SVG 1.1//EN" "http://www.w3.org/Graphics/SVG/1.1/DTD/svg11.dtd"><svg t="1784019527553" class="icon" viewBox="0 0 1024 1024" version="1.1" xmlns="http://www.w3.org/2000/svg" p-id="24033" xmlns:xlink="http://www.w3.org/1999/xlink" width="200" height="200"><path d="M368.561342 955.423221c1.720192-19.986991 3.7578-44.131112 5.867083-68.244516 2.406221-27.574266 4.873877-55.138292 7.310815-82.712558 2.918183-32.960104 5.836365-65.90997 8.723831-98.870074 2.365264-27.144218 4.638374-54.288436 7.034355-81.432653 3.133207-35.540392 4.5667-71.347005 9.932061-106.559741 8.713591-57.237336 57.431881-104.522133 115.109504-116.368931 105.494861-21.666226 210.897568-43.823935 316.330993-65.756381 35.356086-7.362012 70.712172-14.775219 106.098976-22.01436 36.11379-7.402968 66.329778 9.235792 75.903465 41.622499 4.095695 13.802492 3.501819 27.727854 1.525646 41.786327-5.682777 40.444987-11.14029 80.920691-16.720674 121.375917-5.49847 39.820393-11.068615 79.620308-16.526129 119.440702-5.457513 39.830633-10.781917 79.661265-16.229191 119.491898-2.273111 16.689957-3.286795 33.717808-7.300576 50.008434-13.648903 55.250924-47.561257 93.320408-103.313903 108.136584-135.157931 35.939722-270.725431 70.364038-406.139343 105.392468-14.826415 3.839714-29.704027 4.546221-44.56116 0.389091-27.400199-7.658949-43.271016-30.431013-43.045753-65.684706z m242.168199-449.727775c-32.61197 0.102392-66.57552 35.222976-65.285377 67.486812 0.901053 22.577518 16.894741 36.144507 39.502977 33.533502 29.519721-3.409666 58.035996-33.277521 59.879059-62.68461 1.433493-22.966609-12.297324-38.407379-34.096659-38.335704z m170.278514 320.764583c3.21512-0.419809 6.501916-0.583637 9.655601-1.320862 25.669768-5.989954 48.574941-30.297903 52.936856-56.008627 4.525743-26.642495-14.263257-43.926327-40.660011-37.383455-25.731203 6.368806-48.431592 31.321827-52.240588 57.411403-3.122967 21.430723 9.66584 37.066039 30.308142 37.301541zM469.960508 375.861918c-39.677044-1.003445-71.316287-5.293686-100.754094-19.219048-9.348424-4.42335-18.492062-9.983256-26.366036-16.597803-80.54184-67.691597-160.827698-135.690371-241.144274-203.658428-21.20546-17.939144-19.270244-36.011397 5.170814-49.6603 14.89809-8.334739 31.434458-11.160769 47.970827-14.048234 58.076953-10.136845 116.164146-20.27369 174.241099-30.451491C387.166036 32.048812 445.202032 21.696944 503.319943 11.67273 526.685882 7.64871 550.051821 2.989857 573.612306 0.901053c37.209388-3.297034 73.446048 2.457417 107.819167 17.509095 6.901246 3.020575 13.454358 7.167466 19.587661 11.601056C787.24375 92.224809 873.406931 154.540807 959.488198 216.938718c5.068422 3.686125 10.034452 7.751103 14.191583 12.389477 12.512348 13.976559 10.700003 28.915606-4.495025 40.096853-10.751199 7.91493-23.253308 11.68297-36.11379 14.334932-140.820229 28.98728-281.630219 58.025757-422.522122 86.695621-15.727468 3.204881-31.884985 4.29024-40.578097 5.406317z m8.426892-66.759826c10.208519-1.894259 20.621824-3.071771 30.574362-5.877322 8.365457-2.355025 17.04833-6.204978 18.154168-16.433976 1.116077-10.382586-6.809093-15.676272-14.580674-19.556943-26.601538-13.311008-54.452263-15.922014-83.019735-7.085552-8.467849 2.621245-17.079048 6.778375-17.71388 16.874263-0.614354 9.686318 7.208423 14.76498 14.744501 18.942589 16.003928 8.85694 33.492545 11.744405 51.841258 13.126702z m62.28528-107.235531c3.21512-0.174067 7.976366 0.286699 12.317802-0.829378 8.959333-2.303828 18.287278-4.331197 26.366036-8.549763 9.594165-5.017226 10.19828-14.744502 2.088804-21.983643-4.597417-4.095695-10.19828-7.454165-15.891296-9.911581-18.410148-7.986605-37.967091-9.809189-57.616187-7.372251-8.826222 1.095598-17.85723 4.208326-25.710725 8.396175-9.594165 5.109379-10.188041 14.724023-2.088804 22.01436 4.42335 3.972824 9.809189 7.239141 15.276942 9.696557 13.894645 6.225456 28.772256 8.181151 45.257428 8.539524z m58.66059-99.248926c4.372154-0.419809 10.853591-0.245742 16.874263-1.843063 7.228901-1.914737 14.611391-4.443829 20.929-8.31426 6.993399-4.30048 7.474643-11.94919 1.668996-17.775316a45.974175 45.974175 0 0 0-13.720578-9.614644c-21.246417-9.307467-43.506519-12.0823-66.329778-7.423447-6.450719 1.320862-13.02431 3.788518-18.604694 7.208423-7.822777 4.791963-8.396174 12.768329-1.781627 19.178092 3.808996 3.686125 8.529285 6.768136 13.351965 9.051485 14.386128 6.809093 29.898573 8.908136 47.612453 9.53273z m-225.693266 407.726424c-1.638278 20.242972-3.686125 46.547572-5.897801 72.831694-2.385742 28.434362-4.945552 56.868723-7.38249 85.303085-2.938661 34.250248-5.877322 68.500497-8.764787 102.760985-2.365264 28.014553-4.597417 56.039345-7.034356 84.043658-2.95914 34.024985-5.488231 68.111406-9.481533 102.02376-1.167273 9.952539-5.416556 20.120101-10.505458 28.895127-7.894452 13.587468-21.727661 16.618282-35.612067 9.020768a70.036382 70.036382 0 0 1-15.481726-11.775123A86616.922399 86616.922399 0 0 1 44.591878 755.072067c-20.27369-20.304407-29.724506-46.414462-37.270823-73.302699-8.109476-28.977041-8.263064-58.455805-6.235696-88.170071 1.955694-28.710821 3.327752-57.442121 4.914834-86.17342 2.498374-44.929773 4.996748-89.859545 7.433686-134.789318 1.955694-36.072833 3.522298-72.176383 5.815887-108.228737 1.658756-26.294361 3.430144-52.629679 6.788614-78.739734 1.157034-8.979811 6.143542-18.051775 11.355314-25.782399 8.068519-11.979907 20.611584-13.904884 33.338956-6.757897 3.204881 1.812345 6.215217 4.034259 9.010529 6.420002 80.685189 68.899827 161.33966 137.820132 241.973653 206.781394 15.225746 13.034549 25.157806 29.785941 32.919148 47.817238 12.389477 28.7313 18.93235 58.762982 19.014263 96.197633zM257.199399 481.039363c1.279905 8.785265 1.935216 17.427182 3.870431 25.782399 3.553015 15.266703 9.153878 29.816659 20.580867 41.212929 12.143735 12.123257 24.625365 9.348424 30.789386-6.512154 0.54268-1.392536 0.982967-2.846508 1.372058-4.30048 4.955791-18.65589 2.631484-37.055799-3.880671-54.657048-3.819235-10.34163-9.768232-20.099623-15.932253-29.355893-4.095695-6.153782-10.679524-10.771678-18.911871-9.215314-8.570242 1.638278-12.266606 8.621438-14.212061 16.157517-1.761149 6.829571-2.488135 13.925363-3.675886 20.888044zM163.827795 392.961444c1.433493 26.396753 5.989954 47.755802 20.038187 66.012362 4.955791 6.44048 10.986701 12.635219 20.171297 10.628329 9.112921-1.986412 12.287085-10.003735 13.976559-17.939144 5.713494-26.84728 0.13311-51.882215-13.761535-75.217436a46.015132 46.015132 0 0 0-9.727275-11.242683c-9.583926-8.129954-20.120101-6.143542-24.860868 5.385839-3.378948 8.242586-4.587178 17.365746-5.836365 22.372733z m127.969986 441.823085c-1.658756-26.622017-6.768136-48.073219-21.092829-66.380975-5.119619-6.563351-11.314357-13.147181-20.683259-10.996941-10.034452 2.314068-12.624979 11.365553-13.976558 20.038187-4.16737 26.622017 2.252632 51.073315 16.864023 73.466527 2.662202 4.085456 6.368806 7.78182 10.300673 10.720481 9.1334 6.83981 18.707086 4.761245 23.017805-5.682776 3.235599-7.833016 4.402872-16.50565 5.570145-21.174743zM73.753225 316.801998c1.331101 21.307853 6.000193 41.305083 18.410149 58.865375 4.771485 6.737418 10.59761 13.812731 20.089383 11.877515 9.757993-1.986412 12.409955-10.812634 14.140387-19.19857 3.307274-15.983449 1.699713-31.844028-2.713398-47.407668-3.378948-11.928711-8.088997-23.335222-16.689957-32.642688-11.68297-12.635219-24.113404-10.095888-29.243261 6.348327-2.221914 7.106031-2.713398 14.754741-3.993303 22.157709z m125.031326 429.454086c-1.638278-26.560581-6.450719-48.073219-20.867566-66.370735-4.914834-6.245935-10.904788-12.235888-19.802685-9.870625-8.447371 2.242393-11.211965 9.962778-12.47139 17.570531-4.607657 27.953117 1.515407 53.653603 17.806033 76.855714 2.191197 3.122967 5.242489 5.856844 8.396175 8.088998 8.355218 5.897801 17.130244 4.177609 21.092828-5.150337 3.327752-7.792059 4.607657-16.444215 5.846605-21.123546z m-89.593326-85.671698c-1.20823-25.36259-5.785169-45.830826-18.748043-63.61638-4.761245-6.532633-10.515697-13.362205-19.720771-11.078855-9.39962 2.324307-11.53962 11.130051-12.799046 19.352159-3.819235 24.932543 1.965934 48.022022 14.805937 69.473224 2.395981 4.013781 5.744212 7.679428 9.327945 10.73072 8.672634 7.38249 17.887947 5.662298 22.116752-4.812441 3.010336-7.464404 3.993302-15.737708 5.017226-20.048427z" fill="#41C87F" p-id="24034"></path></svg>