<?xml version="1.0" standalone="no"?><!DOCTYPE svg PUBLIC "-//W3C//DTD SVG 1.1//EN" "http://www.w3.org/Graphics/SVG/1.1/DTD/svg11.dtd"><svg t="1784019754680" class="icon" viewBox="0 0 1024 1024" version="1.1" xmlns="http://www.w3.org/2000/svg" p-id="54198" xmlns:xlink="http://www.w3.org/1999/xlink" width="200" height="200"><path d="M128 384h768v260.266667H128z" fill="#F95F5D" p-id="54199"></path><path d="M896 384V174.933333c0-25.6-21.333333-46.933333-46.933333-46.933333H174.933333C149.333333 128 128 149.333333 128 174.933333V384h768z" fill="#55C7F7" p-id="54200"></path><path d="M128 640v204.8c0 29.866667 21.333333 51.2 46.933333 51.2h674.133334c25.6 0 46.933333-21.333333 46.933333-46.933333V640H128z m0 0" fill="#7ECF3B" p-id="54201"></path><path d="M426.666667 128h170.666666v768h-170.666666z" fill="#FDAF42" p-id="54202"></path><path d="M601.6 460.8v106.666667H422.4v-106.666667h179.2m25.6-42.666667H392.533333c-4.266667 0-12.8 4.266667-12.8 12.8v170.666667c0 4.266667 4.266667 12.8 12.8 12.8h238.933334c4.266667 0 12.8-4.266667 12.8-12.8v-170.666667c-8.533333-8.533333-12.8-12.8-17.066667-12.8z m0 0" fill="#FFFFFF" p-id="54203"></path></svg>