<?xml version="1.0" standalone="no"?><!DOCTYPE svg PUBLIC "-//W3C//DTD SVG 1.1//EN" "http://www.w3.org/Graphics/SVG/1.1/DTD/svg11.dtd"><svg t="1784019607238" class="icon" viewBox="0 0 1024 1024" version="1.1" xmlns="http://www.w3.org/2000/svg" p-id="32581" xmlns:xlink="http://www.w3.org/1999/xlink" width="200" height="200"><path d="M768 656s-48 96-256 96-256-96-256-96V320s32-192 256-192 256 192 256 192v336z" fill="#AA6E50" p-id="32582"></path><path d="M512 760c-48.14 0-91.81-5.14-129.81-15.27-30.64-8.17-57.71-19.6-80.46-34-39.43-24.9-52.35-50.12-52.89-51.18A8.084 8.084 0 0 1 248 656V320c0.002-0.442 0.039-0.884 0.11-1.32 0.34-2 8.74-50.48 45.49-99.48a236.065 236.065 0 0 1 80.2-68.29C413.11 130.4 459.6 120 512 120s98.89 10.4 138.2 30.91a236.065 236.065 0 0 1 80.2 68.29c36.75 49 45.15 97.45 45.49 99.48 0.071 0.436 0.108 0.878 0.11 1.32v336a8.085 8.085 0 0 1-0.84 3.58c-0.54 1.06-13.46 26.28-52.89 51.18-22.75 14.37-49.82 25.8-80.46 34-38 10.1-81.67 15.24-129.81 15.24zM264 653.89c3.28 5.4 16.53 24.85 47.49 44.11 33.73 21 95.9 46 200.51 46 186.52 0 240.87-78.28 248-90.1V320.73c-1.07-5.56-10.28-49.37-42.81-92.48C671 167 602 136 512 136s-159 31-205.19 92.25c-32.52 43.1-41.74 86.89-42.81 92.48v333.16zM768 656z" fill="#222222" p-id="32583"></path><path d="M816 960v-33.39C816 794.83 679.89 688 512 688S208 794.83 208 926.61V960h608z" fill="#E6E6E6" p-id="32584"></path><path d="M824 968H200v-41.39c0-66.24 32.71-128.4 92.1-175C350.92 705.43 429 680 512 680s161.08 25.43 219.9 71.59c59.39 46.62 92.1 108.78 92.1 175V968z m-608-16h592v-25.39C808 799.45 675.21 696 512 696S216 799.45 216 926.61V952z" fill="#222222" p-id="32585"></path><path d="M912 800h48v160h-48z" fill="#FFCEBF" p-id="32586"></path><path d="M968 968h-64V792h64v176z m-48-16h32V808h-32v144z" fill="#222222" p-id="32587"></path><path d="M864 800h48v160h-48z" fill="#FFCEBF" p-id="32588"></path><path d="M920 968h-64V792h64v176z m-48-16h32V808h-32v144z" fill="#222222" p-id="32589"></path><path d="M816 816h48v144h-48z" fill="#FFCEBF" p-id="32590"></path><path d="M872 968h-64V808h64v160z m-48-16h32V824h-32v128z" fill="#222222" p-id="32591"></path><path d="M768 816h48v144h-48z" fill="#FFCEBF" p-id="32592"></path><path d="M824 968h-64V808h64v160z m-48-16h32V824h-32v128z" fill="#222222" p-id="32593"></path><path d="M960 864v96H768v-96" fill="#FFCEBF" p-id="32594"></path><path d="M968 968H760V864h16v88h176v-88h16z" fill="#222222" p-id="32595"></path><path d="M320 712a8 8 0 0 1-8-8v-96a8 8 0 0 1 16 0v96a8 8 0 0 1-8 8zM704 712a8 8 0 0 1-8-8v-96a8 8 0 0 1 16 0v96a8 8 0 0 1-8 8z" p-id="32596"></path><path d="M464 720h96v240h-96z" fill="#6ED228" p-id="32597"></path><path d="M568 968H456V712h112v256z m-96-16h80V728h-80v224z" fill="#222222" p-id="32598"></path><path d="M336 720l32 80h48l-32 48 48 112h32V672z" fill="#FFFFFF" p-id="32599"></path><path d="M464 968h-32a8 8 0 0 1-7.35-4.85l-48-112a8 8 0 0 1 0.69-7.59L401.05 808H368a7.999 7.999 0 0 1-7.43-5l-32-80a8 8 0 0 1 4.62-10.46l128-48A8 8 0 0 1 472 672v288a8 8 0 0 1-8 8z m-26.72-16H456V683.54l-109.54 41.08 27 67.38H416a8 8 0 0 1 6.66 12.44l-29.6 44.39L437.28 952z" fill="#222222" p-id="32600"></path><path d="M560 672v288h32l48-112-32-48h48l32-80z" fill="#FFFFFF" p-id="32601"></path><path d="M592 968h-32a8 8 0 0 1-8-8V672a8 8 0 0 1 10.81-7.49l128 48a8 8 0 0 1 4.697 10.293c-0.025 0.066-0.05 0.132-0.077 0.197l-32 80a7.999 7.999 0 0 1-7.43 5h-33l23.71 35.56a8 8 0 0 1 0.69 7.59l-48 112A7.999 7.999 0 0 1 592 968z m-24-16h18.72l44.22-103.17-29.6-44.39A8 8 0 0 1 608 792h42.58l27-67.38L568 683.54V952z" fill="#222222" p-id="32602"></path><path d="M864 528h96v208h-96z" fill="#FFFFFF" p-id="32603"></path><path d="M968 744H856V520h112v224z m-96-16h80V536h-80v192z" p-id="32604"></path><path d="M880 464h64v64h-64z" fill="#FFFFFF" p-id="32605"></path><path d="M952 536h-80v-80h80v80z m-64-16h48v-48h-48v48z" p-id="32606"></path><path d="M896 736h32v64h-32z" fill="#FFFFFF" p-id="32607"></path><path d="M936 808h-48v-80h48v80z m-32-16h16v-48h-16v48zM904 336h16v128h-16z" p-id="32608"></path><path d="M560 608h-96v128s0 48 48 48 48-48 48-48V608z" fill="#FFCEBF" p-id="32609"></path><path d="M512 792c-28.88 0-42.67-15.46-49.16-28.42A68.095 68.095 0 0 1 456 736V600h112v136a68.095 68.095 0 0 1-6.84 27.58C554.67 776.54 540.88 792 512 792z m-40-176v120a52.247 52.247 0 0 0 5.38 20.86C483.92 769.56 495.56 776 512 776c39.55 0 40-38.37 40-40V616h-80z" fill="#222222" p-id="32610"></path><path d="M282.15 395.84m-58.15 0a58.15 58.15 0 1 0 116.3 0 58.15 58.15 0 1 0-116.3 0Z" fill="#FFCEBF" p-id="32611"></path><path d="M282.15 462c-36.534 0-66.15-29.616-66.15-66.15s29.616-66.15 66.15-66.15c36.534 0 66.15 29.616 66.15 66.15-0.039 36.518-29.632 66.111-66.15 66.15z m0-116.29c-27.697 0-50.15 22.453-50.15 50.15s22.453 50.15 50.15 50.15 50.15-22.453 50.15-50.15v-0.01c-0.028-27.686-22.464-50.122-50.15-50.15v0.01z" fill="#222222" p-id="32612"></path><path d="M741.85 395.84m-58.15 0a58.15 58.15 0 1 0 116.3 0 58.15 58.15 0 1 0-116.3 0Z" fill="#FFCEBF" p-id="32613"></path><path d="M741.85 462c-36.534 0-66.15-29.616-66.15-66.15s29.616-66.15 66.15-66.15c36.53 0 66.144 29.61 66.15 66.14-0.039 36.519-29.631 66.116-66.15 66.16z m0-116.29c-27.697 0-50.15 22.453-50.15 50.15s22.453 50.15 50.15 50.15S792 423.557 792 395.86v-0.02c-0.033-27.682-22.468-50.112-50.15-50.14v0.01z" fill="#222222" p-id="32614"></path><path d="M742 296.6l0.84 111.7c0 136.84-104.13 247.77-232.59 247.77S277.69 545.14 277.69 408.3l0.84-111.7S288 80 512 80s230 216.6 230 216.6z" fill="#FFCEBF" p-id="32615"></path><path d="M510.29 664.07c-64.37 0-124.85-26.67-170.29-75.07s-70.31-112.48-70.31-180.7l0.85-112c0.1-2.29 2.8-56.69 33.75-111.86 18.29-32.63 42.68-58.64 72.48-77.32C413.88 83.8 459.38 72 512 72s98 11.8 134.72 35.08c29.54 18.71 53.53 44.74 71.33 77.39 30.08 55.2 31.93 109.62 32 111.91v0.16l0.84 111.7c0 68.28-25 132.45-70.29 180.74s-105.95 75.09-170.31 75.09zM286.53 296.83l-0.84 111.53c0 132.15 100.75 239.71 224.6 239.71S734.88 540.51 734.88 408.3L734 296.76c-0.08-2.16-2.34-54.11-30.32-105.14C666 122.86 601.52 88 512 88c-89.79 0-155 35.06-193.76 104.21-28.41 50.67-31.56 101.79-31.71 104.62z" fill="#222222" p-id="32616"></path><path d="M298.84 453.99a37 21.15 0 1 0 74 0 37 21.15 0 1 0-74 0Z" fill="#FFA096" p-id="32617"></path><path d="M647.73 453.99a37 21.15 0 1 0 74 0 37 21.15 0 1 0-74 0Z" fill="#FFA096" p-id="32618"></path><path d="M407.66 356.19l-8.2 8.21a31.54 31.54 0 0 0-8-3.35v-11.59a8 8 0 0 0-16 0v11.59a31.49 31.49 0 0 0-8 3.35l-8.2-8.21a8.004 8.004 0 1 0-11.32 11.32l8.21 8.2c-8.869 15.108-3.811 34.544 11.297 43.413s34.544 3.811 43.413-11.297a31.72 31.72 0 0 0 0-32.116l8.2-8.2a8.001 8.001 0 0 0-11.31-11.32h-0.09zM672.72 356.19a8 8 0 0 0-11.31 0l-8.21 8.21a31.367 31.367 0 0 0-8-3.35v-11.59a8 8 0 0 0-16 0v11.59a31.54 31.54 0 0 0-8 3.35l-8.2-8.21a8.001 8.001 0 0 0-11.31 11.32l8.2 8.2c-8.864 15.111-3.8 34.546 11.31 43.41 15.11 8.864 34.546 3.8 43.41-11.31a31.721 31.721 0 0 0 0-32.099l8.2-8.2a8 8 0 0 0-0.083-11.313l-0.007-0.008z" fill="#222222" p-id="32619"></path><path d="M446.85 560.92s21.15 10.57 63.44 10.57 63.43-10.57 63.43-10.57" fill="#FFCEBF" p-id="32620"></path><path d="M510.29 579.49c-43.68 0-66.09-11-67-11.42a8 8 0 0 1 7.13-14.32c0.28 0.13 20.48 9.74 59.89 9.74s59.69-9.65 59.89-9.75a8 8 0 0 1 7.12 14.33c-0.95 0.47-23.32 11.42-67.03 11.42z" fill="#222222" p-id="32621"></path><path d="M768 320c0-152.61-105.39-256-257.71-256S256 167.39 256 320c0 0 159.13 29.46 254.29-97.41C605.44 349.46 768 320 768 320z" fill="#AA6E50" p-id="32622"></path><path d="M726.4 331a332.323 332.323 0 0 1-52.85-4.22c-31.36-5.07-60.49-14.61-86.58-28.36a246.601 246.601 0 0 1-76.68-62.83 247.994 247.994 0 0 1-76.12 62.81c-25.81 13.76-54.54 23.3-85.41 28.38-52.46 8.62-92.54 1.41-94.22 1.1A8 8 0 0 1 248 320c0-38.54 6.34-74.62 18.84-107.25A235.382 235.382 0 0 1 403.39 75.08C435.87 62.42 471.84 56 510.29 56s74.6 6.42 107.41 19.08a243.147 243.147 0 0 1 84.19 54 240.745 240.745 0 0 1 54.71 83.61C769.47 245.4 776 281.51 776 320a8 8 0 0 1-6.57 7.87c-1.08 0.2-17.64 3.13-43.03 3.13z m41.6-11z m-503.93-6.92a300.79 300.79 0 0 0 82.64-2.19c66.23-11 119.11-42.34 157.18-93.1a8 8 0 0 1 12.8 0c38.07 50.76 91.52 82.08 158.88 93.1a312.276 312.276 0 0 0 84.36 2.17C756.84 168.56 657.3 72 510.29 72c-145.01 0-243.19 96.57-246.22 241.08z" fill="#222222" p-id="32623"></path><path d="M872 608h80v120h-80z" fill="#00B9FF" p-id="32624"></path></svg>