<?xml version="1.0" standalone="no"?><!DOCTYPE svg PUBLIC "-//W3C//DTD SVG 1.1//EN" "http://www.w3.org/Graphics/SVG/1.1/DTD/svg11.dtd"><svg t="1784020611654" class="icon" viewBox="0 0 1024 1024" version="1.1" xmlns="http://www.w3.org/2000/svg" p-id="130451" xmlns:xlink="http://www.w3.org/1999/xlink" width="200" height="200"><path d="M518.72 967.46666667c-2.02666667 0.64-3.94666667 0.96-6.08 0.96-2.02666667 0-4.16-0.32-6.08-0.96C350.29333333 917.76 140.8 711.14666667 140.8 567.89333333V186.77333333c0-10.56 8.74666667-18.98666667 19.52-18.98666666 104.53333333 0 255.78666667-28.58666667 338.24-108.8 7.57333333-7.46666667 19.94666667-7.46666667 27.62666667 0 82.45333333 80.32 233.70666667 108.8 338.24 108.8 10.77333333 0 19.52 8.64 19.52 18.98666666v381.33333334c0.42666667 143.14666667-208.96 349.76-365.22666667 399.36Zm287.36-704.42666667c0-9.70666667-7.57333333-18.02666667-17.49333333-18.98666667-92.16-9.6-191.25333333-44.05333333-265.06666667-92.16-6.61333333-4.26666667-15.14666667-4.26666667-21.76 0-73.81333333 48.21333333-172.90666667 82.56-265.06666667 92.16-9.92 0.96-17.49333333 9.28-17.49333333 18.98666667v305.06666667c0 91.94666667 154.77333333 266.77333333 285.54666667 322.56 2.45333333 0.96 5.12 1.6 7.78666666 1.6s5.33333333-0.53333333 7.78666667-1.6c130.77333333-55.68 285.54666667-230.61333333 285.54666667-322.56v-305.06666667h0.21333333ZM512.64 434.66666667c-32.32 0-58.66666667-25.6-58.66666667-57.17333334s26.24-57.17333333 58.66666667-57.17333333 58.66666667 25.6 58.66666667 57.17333333c-0.10666667 31.36-26.34666667 57.17333333-58.66666667 57.17333334ZM377.06666667 587.09333333c9.6-64.53333333 66.77333333-114.45333333 135.57333333-114.45333333s125.97333333 49.92 135.57333333 114.45333333H377.06666667Zm135.57333333 265.06666667C392.85333333 796.8 258.24 635.94666667 258.24 568.10666667V279.89333333c89.70666667-11.84 180.8-43.94666667 254.4-89.49333333 73.49333333 45.54666667 164.69333333 77.44 254.4 89.49333333v288.21333334C766.93333333 635.94666667 632.32 796.8 512.64 852.16Zm65.92-404.8c19.52-17.49333333 31.89333333-42.24 31.89333333-69.86666667 0-52.48-43.94666667-95.25333333-97.81333333-95.25333333s-97.81333333 42.77333333-97.81333333 95.25333333c0 27.73333333 12.37333333 52.48 31.89333333 69.86666667-64.42666667 25.38666667-110.18666667 87.04-110.18666667 158.93333333 0 10.56 8.74666667 18.98666667 19.52 18.98666667h312.96c10.77333333 0 19.52-8.64 19.52-18.98666667 0.10666667-72-45.44-133.44-109.97333333-158.93333333Z" fill="#696969" p-id="130452"></path></svg>