<?xml version="1.0" standalone="no"?><!DOCTYPE svg PUBLIC "-//W3C//DTD SVG 1.1//EN" "http://www.w3.org/Graphics/SVG/1.1/DTD/svg11.dtd"><svg t="1784019735112" class="icon" viewBox="0 0 1024 1024" version="1.1" xmlns="http://www.w3.org/2000/svg" p-id="51749" xmlns:xlink="http://www.w3.org/1999/xlink" width="200" height="200"><path d="M437.632 128L106.666667 322.837333l3.306666 384L444.16 896l330.965333-194.837333-3.306666-384L437.632 128z" fill="#FFFFFF" p-id="51750"></path><path d="M629.888 284.373333l-20.757333-11.776L320 442.837333l2.901333 337.066667 20.778667 11.690667-2.901333-336.96 289.109333-170.24z" fill="#06F3FF" p-id="51751"></path><path d="M750.634667 493.397333l-8.896 5.376a10.389333 10.389333 0 0 0-3.52 14.165334c1.962667 3.2 5.376 4.949333 8.896 4.949333 1.856 0 3.626667-0.512 5.376-1.450667l8.896-5.376c4.842667-2.986667 6.4-9.301333 3.498666-14.144a10.496 10.496 0 0 0-14.250666-3.52z" fill="#005BFF" p-id="51752"></path><path d="M638.784 539.093333a10.922667 10.922667 0 0 0-5.376-1.365333c-5.056 0-10.24 2.688-13.44 4.757333-21.290667 13.44-39.253333 49.109333-39.253333 77.738667 0 12.608 3.498667 22.122667 9.386666 25.322667 6.186667 3.413333 14.464-0.64 18.816-3.413334 21.290667-13.44 39.274667-49.088 39.274667-77.738666 0-12.586667-3.52-22.016-9.386667-25.322667z m-10.24 52.074667l-8.874667 5.376a10.026667 10.026667 0 0 1-5.376 1.450667 10.282667 10.282667 0 0 1-5.376-19.114667l8.896-5.376a10.282667 10.282667 0 0 1 14.144 3.52 10.069333 10.069333 0 0 1-3.413333 14.144z" fill="#E6E6E6" p-id="51753"></path><path d="M617.92 573.504l-8.896 5.376a10.389333 10.389333 0 0 0-3.52 14.165333c1.962667 3.2 5.376 4.949333 8.896 4.949334 1.856 0 3.626667-0.512 5.376-1.450667l8.874667-5.376c4.864-2.986667 6.4-9.301333 3.52-14.144a10.432 10.432 0 0 0-14.250667-3.52z" fill="#E6E6E6" p-id="51754"></path><path d="M437.632 128L106.666667 322.837333l3.306666 384L444.16 896l330.88-194.837333-3.328-384L437.632 128zM151.125333 682.666667l-2.901333-336.256 289.706667-170.666667 73.6 41.664-289.706667 170.666667 2.88 336.234666L151.104 682.666667z m271.637334 153.685333l-79.082667-44.757333-20.778667-11.669334-77.418666-43.84-2.901334-336.234666 289.834667-170.666667 76.714667 43.413333 20.757333 11.797334 80.426667 45.482666-290.453334 171.072 2.901334 335.402667z m41.344 0l-2.688-311.957333 269.461333-158.656 2.688 311.850666-269.461333 158.762667zM761.386667 511.061333l-8.896 5.376a10.005333 10.005333 0 0 1-5.376 1.450667 10.282667 10.282667 0 0 1-5.376-19.114667l8.896-5.376a10.282667 10.282667 0 0 1 14.144 3.52 10.24 10.24 0 0 1-3.413334 14.144z" fill="#005BFF" p-id="51755"></path><path d="M706.389333 520.064l-8.896 5.376a10.389333 10.389333 0 0 0-3.498666 14.165333c1.962667 3.2 5.376 4.949333 8.874666 4.949334 1.856 0 3.626667-0.512 5.376-1.450667l8.896-5.376c4.864-2.986667 6.4-9.301333 3.52-14.144a10.496 10.496 0 0 0-14.272-3.52z m127.36-87.658667a10.368 10.368 0 0 0-10.346666 10.346667v10.325333c0 5.696 4.650667 10.346667 10.325333 10.346667a10.368 10.368 0 0 0 10.346667-10.346667v-10.325333a10.368 10.368 0 0 0-10.346667-10.346667z m10.325334-41.344a10.368 10.368 0 0 0-10.346667-10.325333 10.368 10.368 0 0 0-10.325333 10.325333v10.346667c0 5.674667 4.650667 10.325333 10.325333 10.325333a10.368 10.368 0 0 0 10.346667-10.325333v-10.346667z m0-51.669333a10.368 10.368 0 0 0-10.346667-10.346667 10.368 10.368 0 0 0-10.325333 10.346667v10.325333c0 5.696 4.650667 10.346667 10.325333 10.346667a10.368 10.368 0 0 0 10.346667-10.346667v-10.346666z m0-51.690667A10.368 10.368 0 0 0 833.706667 277.333333a10.368 10.368 0 0 0-10.325334 10.346667v10.325333c0 5.696 4.650667 10.346667 10.325334 10.346667a10.368 10.368 0 0 0 10.346666-10.346667v-10.325333z m-34.944 182.528a10.304 10.304 0 0 0-14.165334-3.498666l-8.874666 5.376a10.389333 10.389333 0 0 0-3.52 14.165333c1.962667 3.2 5.376 4.949333 8.896 4.949333a11.306667 11.306667 0 0 0 5.376-1.450666l8.874666-5.376a10.453333 10.453333 0 0 0 3.413334-14.144z m-142.741334 75.157334c-3.093333-11.157333-9.194667-19.733333-17.685333-24.384-11.562667-6.314667-25.621333-4.970667-39.786667 4.010666-27.392 17.365333-48.896 59.136-48.896 95.210667 0 20.565333 7.338667 36.394667 20.16 43.413333 4.757333 2.581333 9.92 3.925333 15.402667 3.925334 7.744 0 16.128-2.688 24.490667-7.957334 26.773333-16.96 47.957333-57.258667 48.896-92.714666l4.032-2.496c4.864-2.986667 6.4-9.301333 3.52-14.144a10.773333 10.773333 0 0 0-10.133334-4.864z m-57.472 96.853333c-4.352 2.773333-12.608 6.826667-18.816 3.413333-5.888-3.2-9.386667-12.714667-9.386666-25.322666 0-28.629333 17.962667-64.298667 39.253333-77.738667 3.2-1.962667 8.384-4.757333 13.44-4.757333 1.877333 0 3.733333 0.426667 5.376 1.344 5.888 3.2 9.408 12.714667 9.408 25.322666 0 28.650667-17.984 64.213333-39.274667 77.738667z" fill="#005BFF" p-id="51756"></path><path d="M899.989333 319.573333a10.410667 10.410667 0 0 0-10.368 10.368v161.642667l-84.458666 50.922667a10.602667 10.602667 0 0 0-3.52 14.336c1.962667 3.2 5.312 4.864 8.810666 4.864a10.858667 10.858667 0 0 0 5.290667-1.322667l94.613333-57.130667v-173.312a10.410667 10.410667 0 0 0-10.368-10.368zM823.466667 234.666667V246.378667c0 5.696 4.693333 10.368 10.368 10.368a10.24 10.24 0 0 0 10.154666-10.368v-10.133334-1.536a52.650667 52.650667 0 0 0-10.368-104.32 52.650667 52.650667 0 0 0-10.154666 104.32z" fill="#005BFF" p-id="51757"></path></svg>