<?xml version="1.0" standalone="no"?><!DOCTYPE svg PUBLIC "-//W3C//DTD SVG 1.1//EN" "http://www.w3.org/Graphics/SVG/1.1/DTD/svg11.dtd"><svg t="1784019936922" class="icon" viewBox="0 0 1024 1024" version="1.1" xmlns="http://www.w3.org/2000/svg" p-id="70307" xmlns:xlink="http://www.w3.org/1999/xlink" width="200" height="200"><path d="M176.32 434.88c-58.752 0-105.792 47.04-105.792 105.792v305.6c0 58.752 47.04 105.792 105.792 105.792h446.656c58.752 0 105.792-47.04 105.792-105.792V540.672c0-58.752-47.04-105.792-105.792-105.792h-446.72z m446.656 587.712h-446.72A177.6 177.6 0 0 1 0 846.272V540.672a177.6 177.6 0 0 1 176.32-176.32h446.656a177.6 177.6 0 0 1 176.32 176.32v305.6a177.6 177.6 0 0 1-176.32 176.32z" fill="#5584FF" p-id="70308"></path><path d="M223.36 70.528a116.416 116.416 0 0 0-117.568 117.504c0 65.856 51.712 117.568 117.504 117.568a116.416 116.416 0 0 0 117.568-117.568 116.416 116.416 0 0 0-117.568-117.504z m0 305.6A188.608 188.608 0 0 1 35.2 188.032 188.608 188.608 0 0 1 223.36 0a188.608 188.608 0 0 1 188.032 188.032 188.608 188.608 0 0 1-188.096 188.096zM576 164.48c-40 0-70.592 30.592-70.592 70.528 0 39.936 30.592 70.528 70.528 70.528 40 0 70.528-30.592 70.528-70.528 0-39.936-30.528-70.528-70.528-70.528z m0 211.584a141.44 141.44 0 0 1-141.12-141.056A141.44 141.44 0 0 1 576 94.08a141.44 141.44 0 0 1 141.056 141.056 141.44 141.44 0 0 1-141.056 141.056z m227.968 329.088l124.608 119.936V545.408l-124.608 115.2v44.608z m148.096 223.36a46.4 46.4 0 0 1-32.896-14.08L733.44 733.44V627.648l185.728-171.584c18.816-16.448 49.344-16.448 65.792 2.368 7.04 9.344 11.776 21.12 11.776 32.896v390.208c2.368 25.856-18.816 47.04-44.672 47.04zM507.2 773.056l-1.664-1.664-1.088-1.152-1.6-1.536v-0.064a148.736 148.736 0 0 0-210.432 0 26.304 26.304 0 0 0 18.56 44.928h0.128a25.984 25.984 0 0 0 18.496-7.744h0.064a96.256 96.256 0 0 1 136.128 0l4.416 4.416 0.256-0.256a26.304 26.304 0 0 0 36.672-36.736l0.064-0.192z m-109.44 77.184a36.224 36.224 0 1 0-0.128 72.512 36.224 36.224 0 0 0 0.128-72.512z" fill="#5584FF" p-id="70309"></path><path d="M577.728 677.056a255.488 255.488 0 0 0-361.344 0.256H216.32a26.24 26.24 0 0 0 37.12 37.12 203.2 203.2 0 0 1 287.36 0l0.064 0.064c4.928 4.928 11.648 7.68 18.56 7.68h0.128a26.304 26.304 0 0 0 18.432-44.864c-0.128 0-0.192-0.192-0.256-0.256" fill="#5584FF" p-id="70310"></path><path d="M653.696 591.104l-0.384-0.384a362.432 362.432 0 0 0-512.64 0.384 26.304 26.304 0 0 0 18.56 44.8h0.128a25.984 25.984 0 0 0 18.56-7.68l0.256-0.256a309.888 309.888 0 0 1 438.336 0.256c4.928 4.928 11.648 7.68 18.56 7.68h0.128a26.368 26.368 0 0 0 18.496-44.8z" fill="#5584FF" p-id="70311"></path></svg>