<?xml version="1.0" standalone="no"?><!DOCTYPE svg PUBLIC "-//W3C//DTD SVG 1.1//EN" "http://www.w3.org/Graphics/SVG/1.1/DTD/svg11.dtd"><svg t="1784020187794" class="icon" viewBox="0 0 1024 1024" version="1.1" xmlns="http://www.w3.org/2000/svg" p-id="94663" xmlns:xlink="http://www.w3.org/1999/xlink" width="200" height="200"><path d="M762.376 422.648l1.184 46.189-9.685 0.767-1.856 7.927 7.486 2.896-21.882 74.287-9.788-0.854-0.458 6.359 5.329 4.258-17.044 43.987-23.671 22.556c-21.57 77.307-46.848 141.815-67.435 159.542-8.054 6.936-11.573 9.727-19.313 12.507 0.508 5.141-0.432 17.875-0.855 20.113-3.516 18.552-156.08 31.201-238.172-10.693-62.09-31.687-67.29-190.008-65.692-238.056l-3.875 1.76s-15.067-28.392-18.905-35.189C260.988 511.329 267.675 464.5 267.675 464.5l14.557-24.536 1.193-4.513-8.968-17.749 20.211-56.37 12.427-2.522 2.512-8.693-5.554-5.206 8.367-28.433s9.29-15.618 19.219-26.053c9.944-10.45 24.412-21.184 24.412-21.184l32.184-12.819 8.321 1.382 7.701-9.056S441.676 177.432 500.869 165.734l223.174 54.05c18.171 4.39 26.506 21.57 24.648 31.17-1.359 7.017-0.791 12.354-6.799 21.438 8.277 7.962 11.226 25.6 7.15 84.04 6.807 18.71 13.497 66.336 13.334 66.216" fill="#EEDF7F" p-id="94664"></path><path d="M386.36 427.47c-9.997 57.87 27.053 118.21 89.598 132.115 63.588 14.138 126.033-28.081 133.069-94.59 6.806-64.345-41.755-119.674-101.898-126.82-58.23-6.919-110.947 32.442-120.769 89.295z m132.52-112.764c37.191 4.329 70.94 22.66 95.037 49.527l-1.604 8.86 26.208 46.675 7.517 2.736c4.575 16.523 6.208 34.174 4.24 52.401-4.497 41.628-26.539 75.716-57.606 97.35l-15.692-15.521c-1.644 3.038-52.61 20.629-52.61 20.629l-5.077 20.199c-13.278 0.797-26.921-0.191-40.605-3.172-22.043-4.8-41.62-13.99-58.184-26.292l4.023-7.996c-13.62 2.516-39.552-43.425-39.552-43.425l-7.907 0.222c-14.013-27.276-19.345-58.613-13.915-89.395 6.117-34.69 25.142-64.222 51.638-84.503l2.818 4.614 12.11-5.31-1.882-8.172c26.212-15.763 57.936-23.28 91.044-19.427z m125.33 4.924c-69.152-82.958-182.522-50.915-182.522-50.915l5.973-12.413c120.31-31.403 195.275 43.382 195.275 43.382l-18.725 19.946z" fill="#FFFFFF" p-id="94665"></path><path d="M710.875 523.854l10.343-35.427-4.559-14.901 23.225 12.078-10.011 38.155-14.484 20.796-16.938-7.73 2.5-8.726 9.924-4.245z m-38.069 53.8l12.128-3.504 7.598 8.655-54.64 56.455-4.551-17.483 10.124-15.345 29.341-28.778z m-12.194-89.597c3.314-4.728 14.163-1.792 14.163-1.792l-22 52.37-25.353-15.599 17.12 3.05c7.882-7.273 16.07-38.029 16.07-38.029z m-121.976 185.79l-1.815 33.683s-9.507 13.89-9.262 6.525c0.246-7.365-0.785-25.856-14.835-23.777-14.05 2.076-92.812-18.242-114.04-31.923-21.228-13.68-20.22 0.51-20.22 0.51-6.205-8.04-5.542-31.443-5.542-31.443 41.204 37.854 165.714 46.425 165.714 46.425zM330.37 568.231s28.63 40.547 58.886 53.99l6.21-13.032s56.78 38.363 124.729 34.67l-1.304 11.65s27.799 6.759 73.016-6.265l-4.677 15.747s-6.105 1.155-16.695 2.183l19.611 1.47-38.462 100.836c-3.17-7.037-4.41-26.749-3.82-47.905 0.59-21.157-5.273-8.097-5.273-8.097l-2.026-40.62 25.172-5.259c-41.495 3.382-135.409 2.947-212.977-56.55l11.558 18.286-8.323 18.081c-1.864-10.574-7.625-22.157-11.584-22.743-3.958-0.585-14.512-13.113-14.512-13.113 2.706-8.88 7.146-10.68 11.14-10.057a252.35 252.35 0 0 1-15.49-14.61l4.821-18.662z m1.225-47.352l2.545 18.882 3.246 15.975-11.48 6.576-12.196-32.38 7.65-2.021 10.235-7.032z m-6.047-31.993l-12.534-15.845-8.283 2.095-4.149 22.066-4.63-31.04 22.523-4.474 7.073 27.198z m-15.516-50.874l-8.16-5.8 0.538-17.877 11.3 7.336-3.678 16.34z m14.9-41.434l-0.243-11.776-10.979-2.217s1.493-5.98 6.077-8.379c4.284-2.243 11.68-0.913 11.68-0.913l-6.534 23.285z m10.52-42.789l-3.985-9.987 17.712-18.253 5.965 14.848-7.502 14.748-12.19-1.356z m18.935 90.142l-10.66-3.501c-4.271-44.429 25.325-79.366 25.325-79.366l9.768 4.281c-25.356 31.768-24.433 78.586-24.433 78.586z m34.395-136.14l4.834-11.897-4.048-3.807-10.748-0.128 21.075-13.762 14.44 0.259-1.693 6.46-23.86 22.876zM514.96 606.389l-0.651 13.334s-54.576 12.317-99.974-27.836l4.953-17.736s36.591 39.927 95.672 32.238zM491.98 444.454c1.778 4.201 6.577 6.475 11.093 4.889 4.528-1.59 7.164-6.68 5.428-11.44-1.796-4.928-7.33-7.09-11.932-5.04-4.492 2.003-6.445 7.205-4.589 11.59z m2.193-16.994c7.672-3.42 16.895 0.183 19.89 8.396 2.891 7.935-1.502 16.418-9.048 19.068-7.528 2.643-15.525-1.146-18.489-8.15-3.093-7.308 0.161-15.978 7.647-19.314z m-32.486-11.71l10.572 4.504a33.872 33.872 0 0 1 11.687-8.742 33.341 33.341 0 0 1 21.576-2.07l3.517-11.882a46.57 46.57 0 0 0-28.794 3.194 47.363 47.363 0 0 0-18.558 14.997z m11.658 30.118c-0.598-1.643-2.443-2.364-3.977-1.68a2.97 2.97 0 0 0-1.53 3.863 2.952 2.952 0 0 0 3.699 1.63c1.509-0.53 2.387-2.227 1.808-3.813z m-20.053-19.695c-4.638 11.343-4.74 24.256 0.605 36.08 4.529 10.014 12.431 18.012 22.09 23.111l3.457-14.736c-6.06-3.657-11-8.971-13.943-15.482-3.517-7.781-3.735-16.22-1.17-23.838l-11.039-5.135z m37.811-15.82c-0.598-1.643-2.443-2.364-3.978-1.68a2.97 2.97 0 0 0-1.529 3.864 2.951 2.951 0 0 0 3.697 1.63c1.51-0.53 2.388-2.227 1.81-3.814z m19.783 55.902c12.075-4.24 19.104-17.813 14.476-30.507-4.79-13.142-19.547-18.908-31.822-13.436-11.977 5.34-17.184 19.21-12.235 30.904 4.742 11.206 17.54 17.268 29.581 13.04z m3.893-2.63c-0.598-1.643-2.443-2.364-3.977-1.68a2.97 2.97 0 0 0-1.53 3.863 2.952 2.952 0 0 0 3.698 1.63c1.51-0.53 2.388-2.226 1.809-3.814z m3.95 25.08c11.178-3.708 20.206-11.158 25.825-20.466l-14.434-6.551c-4.055 6.02-10.167 10.808-17.612 13.278a36.002 36.002 0 0 1-15.366 1.619l-5.86 13.345c8.718 2.07 18.191 1.845 27.447-1.224z m2.382-58.411a2.95 2.95 0 0 0 3.697 1.63c1.51-0.53 2.388-2.227 1.81-3.814-0.6-1.642-2.444-2.363-3.978-1.68a2.969 2.969 0 0 0-1.53 3.864z m27.691 25.475c2.47-8.98 2.31-18.812-1.21-28.396-4.1-11.16-11.836-19.641-21.266-24.876l-5.448 11.865c5.394 3.77 9.767 9.171 12.26 15.956 2.246 6.116 2.578 12.372 1.373 18.212l14.291 7.239z m-77.404-82.36c0.03-0.012 0.06-0.029 0.09-0.043a77.434 77.434 0 0 1 16.41-5.21l4.006 9.127 18.301-2.633 0.081-7.667a77.794 77.794 0 0 1 16.832 3.504l-1.094 8.186 16.966 7.403 3.714-5.96a76.077 76.077 0 0 1 12.857 11.08l-4.9 4.767 8.75 16.413 8.607-3.074a79.037 79.037 0 0 1 3.423 7.984 77.976 77.976 0 0 1 2.16 6.965l-5.603 1.32-0.833 18.614 8.903 1.795a77.038 77.038 0 0 1-4.203 22.781l-7.447-2.65-10.653 15.228 7.724 7.497a78.778 78.778 0 0 1-12.025 13.312l-5.02-6.621-17.183 6.874 2.788 12.253a77.371 77.371 0 0 1-5.897 2.357 78.473 78.473 0 0 1-11.957 3.158l-2.069-9.095-18.464-0.916-2.175 10.72a76.877 76.877 0 0 1-17.76-4.3l2.456-10.483-16.166-9.038-6.438 8.38a77.193 77.193 0 0 1-14.04-13.953l7.81-5.77-6.475-17.453-12.715 2.67a76.826 76.826 0 0 1-3.987-16.109l9.191-1.38 2.34-18.483-11.213-3.24a78.434 78.434 0 0 1 3.793-14.312l11.241 2.447 8.656-16.464-8.618-6.463a77.17 77.17 0 0 1 10.426-11.08l8.616 7.062 15.117-10.727-4.323-8.772z m-9.264-83.374l0.03 0.592c-0.797-0.169-0.03-0.592-0.03-0.592z m153.449 40.879l-3.334 18.311c-65.063-67.89-150.296-42.522-150.296-42.522l-0.266-9.835c1.997 0.77 9.885-0.217 36.865-9.971 44.951-16.251 117.03 44.017 117.03 44.017z m42.769-39.595l1.751-1.938c-13.233-9.223-94.24-62.413-180.659-46.08 0 0 45.55-24.933 161.98 22.582 10.704 4.369 21.577-0.233 31.584-6.966l-9.074 26.225 14.323-15.846s5.965 13.733 13.82 3.88c6.19-7.763 10.624-8.406 24.13-12.26L689.22 319.63l-30.867-28.311z m58.659 140.824l-12.642-48.705 4.12-10.536 16.636 10.351 14.758 72.516-22.872-23.626z" fill="#D1C053" p-id="94666"></path><path d="M491.283 714.677l-0.353 7.45a763.615 763.615 0 0 1-29.242-4.03l0.655-7.808c9.121 1.708 18.78 3.186 28.94 4.388z m-41.433-3.84l-0.394 11.29c-11.605-2.75-23.464-6.003-35.12-9.854l0.853-13.822c10.488 4.494 22.049 8.709 34.66 12.385z m178.864-180.44c-9.747 20.743-37.807 39.277-37.807 39.277l-10.933-14.66c-19.581 22.08-51.22 23.744-51.22 23.744l-7.879 42.228c-5.407 0.42-10.878 0.592-16.407 0.487-35.229-0.659-67.357-11.876-93.826-30.407l0.117-6.586c25.6 19.247 58.322 31.09 97.094 31.82a134.9 134.9 0 0 0 8.593-0.12 59.343 59.343 0 0 1-4.65-1.174l10.292-48.11s32.7 2.002 52.281-20.075l10.81 10.862c-0.837-1.224 25.462-14.151 35.369-34.663l21.233 14.37c8.143-13.31 14.557-27.702 18.872-42.697l-22.007-10.46c11.6-27.407 2.199-65.32 2.199-65.32l-11.263 11.092c-9.023-39.133-22.29-43.23-22.29-43.23l6.716-47.487 3.464-2.623c-30.358-29.21-71.874-47.007-116.478-45.832-11.958 0.314-23.522 1.904-34.58 4.623l4.992 10.24-7.291 21.669c-29.526 0.495-40.777 28.093-40.777 28.093l-10.523-16.701c-26.239 14.093-20.852 40.366-20.852 40.366l-23.38-10.156c-13.13 22.762-20.788 49.218-21.413 77.594l10.144 0.546 13.326 12.456s-1.498 23.458 14.968 49.926l3.617-3.469s6.088 16.648 16.23 26.785c9.746 9.739 24.34 14.478 24.34 14.478l2.27 18.7-13.298 23.97s-3.086-1.909-8.004-5.686l0.233-13.254 8.342-15.666s-14.598-10.55-23.52-21.036c-9.44-11.096-11.416-22.182-11.416-22.182l-9.303 7.603c-15.635-24.918-20.258-70.788-20.258-70.788l-17.454-0.941a172.265 172.265 0 0 1 27.684-91.736l17.972 6.875s3.453-21.659 29.692-35.752l5.86 10.076s13.573-22.78 32.175-23.946l6.796-23.585 0.662-4.276a170.326 170.326 0 0 1 37.883-7.037c50.789-3.598 98.62 15.823 132.529 49.918l-10.727 8.16-3.203 26.856s20.084 8.378 29.085 50.444l6.257-6.955s13.162 42.148 1.562 69.555l9.909-0.951 13.252 9.209c-4.504 21.805-13.134 42.067-25 59.958l-21.06-14.42z m-137.43-89.426a8.878 8.878 0 0 1 8.878-8.879 8.877 8.877 0 0 1 8.878 8.879 8.878 8.878 0 1 1-17.757 0z m-48.646 14.797c0.521 0 0.826 0.019 1.293-0.185-0.396-1.972-1.433-8.378-1.407-11.652-2.555 0-4.512 2.586-4.512 5.876 0 3.292 2.071 5.961 4.626 5.961z m35.598-31.308c4.444-6.225 11.917-10.313 20.389-10.313 5.237 0 10.09 1.566 14.085 4.23l31.845 1.095c-7.558-16.94-25.117-28.813-45.574-28.813-25.239 0-46.055 18.073-49.131 41.433l28.386-7.632z m-4.71 22.43a8.88 8.88 0 1 0-17.758 0.001 8.88 8.88 0 0 0 17.758 0z m41.434-8.878c0-9.808-7.95-17.758-17.757-17.758-9.808 0-17.758 7.95-17.758 17.758 0 9.807 7.95 17.757 17.758 17.757 9.807 0 17.757-7.95 17.757-17.757z m23.676-5.92c0-3.27-2.65-5.919-5.92-5.919a5.919 5.919 0 1 0 5.92 5.919z m-37.652 59.191c25.847 0 47.08-20.783 49.49-47.352l-30.435 10.817c-4.537 6.029-11.544 9.898-19.412 9.898-7.02 0-13.351-3.079-17.859-8.022l-27 4.06c7.852 18.052 25.137 30.6 45.216 30.6z m47.088-65.11c-2.376 1.013-3.517 3.04-3.517 5.57 0 3.237 2.445 5.891 5.919 6.269-0.6-4.827-1.233-7.768-2.402-11.839z m17.2 5.92a2.96 2.96 0 1 0-0.002-5.921 2.96 2.96 0 0 0 0.002 5.92zM417.295 449.85a2.96 2.96 0 1 0-0.001 5.918 2.96 2.96 0 0 0 0.001-5.918z m-11.687 17.476l-14.949-4.011 12.705-8.478 13.314-8.432 23.166-6.391c2.055-30.862 28.176-55.274 60.116-55.274 26.404 0 48.827 16.689 56.971 39.906l6.626 0.234 10.593 6.974-6.406 10.581-7.549 2.501c-0.549 32.225-27.298 58.185-60.235 58.185-25.467 0-47.229-15.525-56.05-37.458l-20.947 2.936-17.355-1.273z m322.062-22.873l-14.373-72.247-1.437-1.31c0.143-0.879 0.28-1.74 0.417-2.603l-12.71 1.9-17.33-38.314s0.093-0.471 0.266-1.316c-7.666-10.713-42.23-54.858-102.69-72.562-102.516-30.02-157.476 21.465-157.476 21.465l-0.068-1.113c-0.258 0.61-0.499 1.19-0.713 1.72a197.368 197.368 0 0 0-16.89 9.881l-5.734-4.892-19.526 6.253s-11.772 9.373-21.64 19.773c-9.853 10.383-17.801 21.791-17.801 21.791l-6.966 18.664 7.784 5.91a202.836 202.836 0 0 0-10.047 19.713l-11.98 2.996-14.065 41.32 6.08 15.463 3.692 1.54c-0.46 4.463-0.772 8.964-0.939 13.5l-11.412 4.553-6.158 15.507s3.249 49.803 20.012 73.923c2.9 4.172 4.969 7.157 6.434 9.276l-0.136-0.01s7.143 10.14 0.136 0.01l11.682 0.708a808.912 808.912 0 0 0-0.36 20.547c6.598 15.725 30.567 55.834 105.159 77.012 85.217 24.195 123.105 14.748 138.984 5.603 8.08-15.384 14.682-25.07 14.682-25.07l12.325-7.14 9.148 8.582 17.247 1.37 27.222-26.99c-0.017 0.184-0.037 0.36-0.054 0.546l25.99-26.213 8.568-24.382-6.807-5.19a201.65 201.65 0 0 0 7.315-15.11l14.797-1.664 15.088-49.63-13.906-12.995c0.265-3.327 0.46-6.675 0.564-10.05l18.002-9.694-0.376-11.031z m-8.691-195.48c-31.717-4.461-45.998 32.37-50.124 45.834 10.275 8.304 17.36 15.269 20.865 18.904 4.36-17.943 11.77-43.435 19.237-46.3 4.75-4.797 9.165-5.308 11.04-8.378 3.648-5.973 2.145-8.81-1.018-10.06z m-176.226-41.805c-12.495 0.577-38.955 6.162-63.308 39.65 27.376-5.656 62.28-7.766 98.911 3.212 33.074 9.91 60.006 25.828 79.358 40.005 10.434-28.568 27.078-39.166 40.737-42.738l-155.698-40.13z m-36.369-11.839c-37.783 9.512-61.5 38.178-74.292 59.191 5.752-2.313 13.718-5.213 23.421-8-0.46-0.012-0.878-0.03-1.228-0.065 0 0 32.587-41.49 66.594-47.682l-14.495-3.444zM340.892 659.906c4.64 3.9 11.349 9.097 20.172 14.869-3.283-22.24-5.164-41.417-6.026-51.364-8.325-7.52-13.966-14.388-17.65-19.665 0.468 17.23 1.495 36.567 3.504 56.16z m59.622 126.68c0.662 0.221 1.322 0.434 1.983 0.651-18.025-17.076-29.76-57.38-37.076-94.45-7.946-3.683-15.383-7.703-22.115-12.093 7.924 48.923 24.268 94.86 57.208 105.892z m17.575 5.134c54.014 14.981 104.052 15.472 132.385 10.307-23.129-8.733-26.864-42.826-25.163-73.377a850.399 850.399 0 0 1-16.187-1.735l0.687-8.998c5.275 0.552 10.667 1.03 16.185 1.415 1.706-18.826 5.037-35 6.372-41.007-23.304 0.085-53.09-3.366-90.203-13.78-26.514-7.441-47.07-16.343-62.931-25.285-0.582 15.733-0.529 29.884 0.032 42.63 8.073 3.978 17.175 8.023 27.319 11.923l-0.567 13.162c-8.803-2.601-17.426-5.467-25.686-8.638 5.387 61.857 24.063 84.858 37.757 93.383zM568.23 674.775c-5.171 1.392-11.216 2.642-18.17 3.54-5.308 16.614-9.01 31.02-11.425 43.524 4.459 0.16 8.992 0.259 13.604 0.288 3.803-17.108 9.834-33.451 15.991-47.352z m5.166 123.002c0.765-1.661 0.882-4.393 0.64-8.033-9.562 3.03-15.84 2.769-15.84 2.769-6.373-18.233-6.462-38.16-3.188-57.57a697.558 697.558 0 0 1-14.254-0.978c-7.81 49.784 7.473 66.069 21.374 71.03 6.145-2.108 10.06-4.594 11.268-7.218z m172.406-334.374l-12.497 4.68-0.962 5.564 9.123 8.628-21.294 64.11-12.509-0.09-3.196 6.67 8.536 4.554-15.402 37.355-22.83 19.323c-21.435 76.744-49.78 146.817-70.24 164.415-8.004 6.885-11.5 9.657-19.193 12.415 0.505 5.106-0.587 13.53-1.01 15.75-3.492 18.418-113.21 25.697-198.844-4.653-64.842-22.981-69.889-189.616-68.418-237.268l-5.042-0.486s-11.13-19.654-14.944-26.402c-16.652-29.458-12.508-69.537-12.508-69.537l9.547-21.895 9.782-4.136-0.5-5.846-2.958-2.278-8.148-16.39 15.365-46.73 15.697-3.408 5.099-11.043-7.487-5.14 9.065-27.327s7.82-12.478 17.687-22.837c9.883-10.375 23.963-23.003 23.963-23.003l25.447-8.875 6.767 2.889 9.573-7.452s32.219-69.856 91.047-81.469l219.131 53.561c11.032 1.265 11.344 15.076 9.497 24.606-1.351 6.966-2.777 3.766-8.748 12.785 7.753 5.557 14.062 23.546 5.89 87.569 5.91 17.94 14.817 73.439 14.817 73.439l0.697 27.952z" fill="#262121" p-id="94667"></path></svg>