<?xml version="1.0" standalone="no"?><!DOCTYPE svg PUBLIC "-//W3C//DTD SVG 1.1//EN" "http://www.w3.org/Graphics/SVG/1.1/DTD/svg11.dtd"><svg t="1784020402014" class="icon" viewBox="0 0 1024 1024" version="1.1" xmlns="http://www.w3.org/2000/svg" p-id="109862" xmlns:xlink="http://www.w3.org/1999/xlink" width="200" height="200"><path d="M511.974273 512.025215m-486.3741 0a486.374101 486.374101 0 1 0 972.748201 0 486.374101 486.374101 0 1 0-972.748201 0Z" fill="#FFFFFF" p-id="109863"></path><path d="M149.958351 874.041137A511.972737 511.972737 0 1 1 511.974273 1023.997952a508.644915 508.644915 0 0 1-362.015922-149.956815zM51.19881 512.025215a460.775464 460.775464 0 1 0 460.775463-460.775464 461.313035 461.313035 0 0 0-460.775463 460.775464z m492.671365 228.595827c0-21.477256-25.880222-21.477256-25.880222-21.477256s-25.931419 0-25.931419 21.477256a270.756782 270.756782 0 0 0 20.760494 109.613363c-38.858731 0-274.622176-5.375714-282.378563-67.094027 0-16.101543 28.491283-107.360683 191.708192-136.90151 12.799318-5.375714 28.516881-13.413686 28.516881-21.477257v-37.578798a249.612308 249.612308 0 0 1-80.328522-179.830425v-16.101542H665.566095v16.101542a249.612308 249.612308 0 0 1-80.328523 179.830425v37.578798c0 5.375714 13.004108 13.439284 28.516882 21.477257 163.19131 29.540827 191.708192 120.799967 191.708191 136.90151-5.119727 61.718313-246.105295 67.094027-282.378563 67.094027a270.98717 270.98717 0 0 0 20.760494-109.613363z m-53.14277-59.72162a27.569732 27.569732 0 0 0 27.211351 26.827372 26.878569 26.878569 0 0 0 0-53.757138 25.957018 25.957018 0 0 0-27.23695 27.006562z m-125.63811-321.262893v-22.040426s-18.149434-29.540827-28.491283-51.018083a303.753425 303.753425 0 0 1-12.95291-34.890942c0-8.063571 5.119727-13.439284 12.95291-18.7894 25.854623-10.725829 85.499447-37.578799 108.794207-48.279029a60.259191 60.259191 0 0 1 23.345957-5.375714h98.452357a59.670423 59.670423 0 0 1 23.345957 5.375714q54.08992 24.856276 108.794207 48.279029c7.679591 5.375714 12.95291 10.725829 12.95291 18.7894a232.614813 232.614813 0 0 1-10.239455 32.203085c-10.367448 21.477256-28.516881 50.992485-28.516881 50.992484v30.155195c-39.191513 0.025599-268.760089-5.375714-308.463575-5.375714z m106.208744-124.050994s7.679591 8.037972 7.679592 13.413686c0 13.439284-7.679591 10.725829-10.239455 29.540827 0 26.85297 46.640716 37.578799 46.640716 37.578799s46.640716-13.439284 46.640717-37.578799c0-18.789399-5.119727-16.101543-5.119728-29.540827a18.533413 18.533413 0 0 1 7.679591-13.413686l-12.95291-18.763801a54.909076 54.909076 0 0 1-15.563971 2.559864 24.4211 24.4211 0 0 0-36.24767 0 54.909076 54.909076 0 0 1-15.563971-2.559864z m46.640717 42.954513l-15.512774 8.037972 2.559864-18.763801-10.367448-13.413686 15.563971-2.687857 7.679591-16.101542 7.679591 16.101542 15.512774 2.687857-10.239455 13.413686 2.559864 18.763801z" fill="#1890FF" p-id="109864"></path></svg>