<?xml version="1.0" standalone="no"?><!DOCTYPE svg PUBLIC "-//W3C//DTD SVG 1.1//EN" "http://www.w3.org/Graphics/SVG/1.1/DTD/svg11.dtd"><svg t="1784020248082" class="icon" viewBox="0 0 1024 1024" version="1.1" xmlns="http://www.w3.org/2000/svg" p-id="98123" xmlns:xlink="http://www.w3.org/1999/xlink" width="200" height="200"><path d="M904.533333 435.285333c-2.730667-3.328-3.456-5.973333-2.218666-9.898666 10.197333-32.426667 13.013333-65.365333 7.466666-99.029334a220.501333 220.501333 0 0 0-83.413333-142.293333c-53.632-42.197333-115.029333-57.258667-182.741333-46.122667-6.4 1.024-10.24-0.725333-14.72-5.12-57.685333-57.301333-127.872-79.402667-207.573334-64.085333-84.522667 16.085333-142.506667 66.304-173.056 146.304-1.450667 3.669333-3.029333 5.674667-7.552 6.741333-52.309333 12.373333-95.701333 38.912-128.341333 81.194667-41.557333 54.058667-56.746667 114.773333-44.032 181.845333a216.618667 216.618667 0 0 0 50.346667 102.912c3.541333 4.096 4.138667 7.594667 2.56 12.501334-6.997333 20.565333-9.216 41.941333-9.770667 63.872 0.64 15.957333 1.706667 32.298667 5.546667 48.213333 27.178667 119.04 144.768 195.584 266.282666 173.269333 4.864-0.768 7.168 0.256 10.197334 3.413334 57.941333 58.837333 128.768 81.834667 209.706666 66.261333 84.608-16.213333 142.08-67.029333 172.885334-146.773333 1.408-3.584 2.986667-5.248 6.997333-6.186667 96.426667-21.973333 167.509333-102.826667 175.829333-200.106667 5.845333-62.592-12.757333-118.698667-54.4-166.912z m-55.210666-110.421333c3.882667 18.901333 5.12 37.802667 2.730666 56.96-0.256 2.176-0.981333 4.266667-1.578666 7.253333l-49.621334-28.245333c-43.52-24.874667-87.210667-49.493333-130.56-74.752a37.461333 37.461333 0 0 0-41.386666 0.085333c-66.304 38.357333-132.949333 75.946667-199.424 113.877334-2.133333 1.109333-3.882667 3.029333-7.253334 2.773333V318.037333c0-3.157333 2.048-4.138667 4.181334-5.418666 59.178667-33.706667 117.845333-68.437333 177.664-100.821334 97.493333-52.693333 222.976 5.76 245.248 113.066667z m-247.808 186.368c0 15.488-0.085333 30.890667 0.085333 46.293333 0 3.584-0.981333 5.717333-4.352 7.552-27.178667 15.317333-54.186667 30.805333-81.152 46.464-2.986667 1.664-5.12 1.834667-8.277333 0.085334-26.88-15.573333-54.016-31.061333-81.152-46.378667-3.541333-2.005333-4.608-4.266667-4.608-8.234667 0.170667-30.122667 0.170667-60.16 0-90.24 0-4.181333 1.237333-6.528 5.034666-8.746666 26.496-14.933333 52.906667-29.994667 79.232-45.226667 3.925333-2.176 6.741333-2.56 10.922667-0.170667 26.325333 15.317333 52.650667 30.378667 79.146667 45.312 3.712 2.133333 5.205333 4.394667 5.205333 8.661334-0.256 14.805333-0.085333 29.781333-0.085333 44.629333zM293.802667 294.4c0.085333-84.608 54.784-152.618667 138.709333-169.258667 51.584-10.026667 98.730667 2.986667 141.354667 36.053334l-69.12 39.253333c-38.314667 21.76-76.586667 43.733333-115.029334 65.322667a32 32 0 0 0-17.578666 30.464v236.970666c-2.645333 0.725333-4.138667-1.237333-5.930667-2.176-22.186667-12.501333-44.202667-25.386667-66.474667-37.632-4.608-2.56-5.930667-5.546667-5.930666-10.496 0.085333-62.848 0-125.653333 0-188.501333z m-169.514667 163.882667c-8.362667-72.96 37.290667-147.2 106.666667-172.8 1.152-0.341333 2.304-0.64 3.925333-0.981334V336.213333c0 51.626667 0.170667 103.253333 0 154.88-0.170667 15.146667 5.930667 25.6 19.413333 33.194667 67.072 37.717333 133.973333 76.032 200.832 114.090667l6.442667 3.84-74.24 42.453333c-2.56 1.493333-4.522667 2.133333-7.466667 0.341333-59.989333-34.389333-120.789333-67.2-179.626666-103.168-45.653333-27.818667-70.016-70.613333-75.946667-123.562666z m74.965333 297.898666a166.229333 166.229333 0 0 1-25.344-121.130666l11.776 6.4c56.917333 32.469333 113.92 64.938667 170.794667 97.578666a33.962667 33.962667 0 0 0 36.693333 0c67.797333-38.784 135.68-77.44 203.477334-116.053333l5.034666-2.773333c0 29.141333 0 57.130667 0.170667 85.12 0 3.413333-1.664 4.821333-4.138667 6.229333-58.581333 33.152-116.565333 67.413333-175.829333 99.413333-77.397333 41.472-173.994667 17.664-222.634667-54.784z m530.346667-12.074666c-1.706667 60.458667-41.045333 120.149333-107.776 146.346666a172.373333 172.373333 0 0 1-170.666667-28.032l80.426667-45.781333c34.218667-19.498667 68.352-39.210667 102.741333-58.368a31.274667 31.274667 0 0 0 17.536-30.165333c-0.256-76.672-0.085333-153.344-0.085333-230.144 0-8.405333 0-8.405333 7.168-4.48 22.058667 12.586667 44.16 25.301333 66.304 37.717333 3.541333 2.005333 4.949333 4.010667 4.864 8.106667-0.085333 68.181333 1.322667 136.533333-0.512 204.8z m68.266667-7.68c-8.832 3.754667-8.832 3.754667-8.832-5.632 0-66.56-0.256-133.162667 0.213333-199.68a32.426667 32.426667 0 0 0-18.261333-31.317334c-66.218667-37.461333-132.266667-75.264-198.357334-112.896l-10.112-5.888 75.178667-42.752c2.645333-1.578667 4.522667-0.725333 6.826667 0.512 59.349333 33.962667 119.381333 66.688 177.834666 101.76 44.672 26.965333 69.973333 67.84 76.928 119.168A167.125333 167.125333 0 0 1 797.866667 736.426667z" p-id="98124"></path></svg>