<?xml version="1.0" standalone="no"?><!DOCTYPE svg PUBLIC "-//W3C//DTD SVG 1.1//EN" "http://www.w3.org/Graphics/SVG/1.1/DTD/svg11.dtd"><svg t="1784019475389" class="icon" viewBox="0 0 1433 1024" version="1.1" xmlns="http://www.w3.org/2000/svg" p-id="17596" xmlns:xlink="http://www.w3.org/1999/xlink" width="279.8828125" height="200"><path d="M1370.112 409.2928c-9.728-9.728-17.408-18.6368-27.136-28.3648l77.6192-48.5376-67.8912-174.6944-194.1504 19.456c-9.728-9.728-9.728-19.456-19.456-29.184-19.456-19.456-29.0816-38.912-38.912-48.5376-38.7072-58.2656-48.4352-67.8912-87.2448-67.8912H440.2176c-29.184 0-38.912 9.6256-87.3472 67.8912-9.728 9.728-19.456 29.0816-38.912 48.5376 0 0-9.6256 9.728-19.456 29.0816l-184.32-19.456-77.7216 174.7968 81.7152 39.0144c-9.6256 9.728-48.5376 55.5008-48.5376 55.5008L40.96 462.5408l-19.6608 27.2384c-9.728 19.456-8.192 17.408-8.192 46.4896v359.2192c0 58.1632 29.184 96.9728 87.4496 96.9728h184.32c58.368 0 87.4496-38.8096 87.4496-87.3472v-29.0816h679.5264v29.0816c0 48.5376 29.0816 87.3472 87.3472 87.3472h184.4224c58.2656 0 97.0752-38.8096 97.0752-96.9728V555.7248c0-67.9936 1.1264-74.752-18.3296-103.8336a1147.6992 1147.6992 0 0 0-32.1536-42.5984z m-56.32-125.44l-48.5376 29.184-19.456-19.456c-9.6256-14.2336-19.3536-19.456-19.3536-29.0816l67.9936-9.728 19.456 29.0816zM459.5712 128.512h543.6416l126.1568 165.0688H333.4144l126.1568-165.0688zM178.176 264.4992h58.2656c-9.728 9.6256-9.728 19.456-19.456 29.0816l-29.0816 9.728-29.0816-19.456 19.456-19.456z m1067.8272 630.9888h-87.3472V778.9568H284.8768v116.5312H110.1824V536.2688c0-19.456-0.1024-33.0752 1.9456-37.6832 2.048-4.608 15.872-27.136 33.792-46.6944l57.2416-61.2352h1023.2832l35.1232 33.4848c9.728 9.728 34.9184 34.2016 41.1648 46.08 12.1856 15.872 11.0592 17.5104 20.7872 36.864v388.4032h-77.6192zM284.8768 545.9968h213.504v97.0752H284.8768v-97.0752z m660.0704 0h213.6064v97.0752H944.9472v-97.0752z" fill="#4586FA" p-id="17597"></path></svg>