<?xml version="1.0" standalone="no"?><!DOCTYPE svg PUBLIC "-//W3C//DTD SVG 1.1//EN" "http://www.w3.org/Graphics/SVG/1.1/DTD/svg11.dtd"><svg t="1784020711959" class="icon" viewBox="0 0 1024 1024" version="1.1" xmlns="http://www.w3.org/2000/svg" p-id="5313" xmlns:xlink="http://www.w3.org/1999/xlink" width="200" height="200"><path d="M852.951292 382.409852m-16.127876 0a16.127876 16.127876 0 1 0 32.255752 0 16.127876 16.127876 0 1 0-32.255752 0Z" fill="#87BE56" p-id="5314"></path><path d="M838.129006 533.952151c-2.355182 6.186619-11.221247-0.119466-11.912441 0-2.619713-12.902301-4.75303-25.693669 11.750309-28.006184 2.099184-4.761563-1.979718-15.667079-5.794089-15.66708H748.794228c-1.194657 0-7.483676 6.52795-5.947687 9.915657l14.105491 9.727925 1.211724 77.072473c-19.046253 35.447193-44.697255 67.685878-63.734976 103.013606-10.350854 19.199852-23.065422 37.60611-9.045263 58.231018 8.294336 12.202573 20.804106 18.704922 35.455727 20.121445 32.178952 3.114643 111.751672 3.780238 143.026097-0.230399 18.61959-2.389315 38.135173-14.933218 41.207149-34.542667 3.182909-20.351843-36.112788-68.010142-45.106852-88.464384-7.483676-8.883132-16.528939 1.373856-27.73312 0.102399-19.464383-2.210116-32.426417-18.662256-37.776775-35.839724l0.230398-5.64049 5.725822-6.237818 5.956221 3.942369c0.614395 3.242642-1.390923 9.872991 0.571729 11.477245 1.092258 0.895993 4.650631-0.170665 6.365818 1.399456 1.527455 1.399456 0.716794 5.009028 1.766386 6.00742 3.106109 2.961044 13.42283 4.573831 17.723597 8.482068 11.332179 2.303982 23.722484-14.967351 25.181672-25.386471 1.715187-12.253772-0.076799-27.954985-7.927405-37.717042l7.944472-11.912442c1.30559 1.459189 4.650631 1.69812 7.423943 6.365818 7.065546 11.878308 10.197255 29.567772 8.379668 43.203933-0.938659 7.082612-8.115137 18.397725-7.355676 23.278754 1.604254 10.36792 31.342692 47.914297 38.578902 60.782465 13.072966 23.236088 22.95449 42.103142 9.420728 67.737078-9.548726 18.081994-34.832798 27.332056-54.288648 29.081376-34.431735 3.089043-100.880289 3.089043-135.320557 0-36.582118-3.276775-66.960551-26.043533-61.362727-65.680561 1.288523-9.096463 10.188721-15.411081 7.927405-25.796067-9.89859 0.725328-21.281969-3.643705-27.553921 5.905021l43.596464 218.494315c0.409597 13.730027-27.963518 14.148158-36.035989 19.626516-5.794089 3.933836-4.940762 31.15496-3.174375 39.201831 1.621321 7.398343 11.408979 17.2372 11.383379 24.473411-0.034133 10.828717-11.664977 20.34331-21.964631 21.819565-18.585457 2.662379-63.854441 1.800519-83.540689 0.179199-6.118353-0.503463-34.098937-6.143953-36.84665-8.831932l-62.514718-118.586819-45.482316 2.073584c-3.012243 2.414915-5.17116 5.410092-7.278877 8.601534-18.346525 27.784319-31.15496 75.715683-50.260946 100.607224-7.859139 10.231388-27.204057 14.634554-39.705294 15.871878-19.438783 1.928518-64.579769 2.63678-83.284691 0.085332-6.630349-0.904526-19.524116-8.038338-21.375835-14.344422-1.049592-26.862726 24.720876-45.209252 3.507173-73.002104 7.253277 0.068266 13.721494 0.571729 15.88041-7.944472 22.237695 6.203686 58.86248 13.951892 81.467106 15.803611 11.579644 0.947193 32.699481 1.638387 43.707396 0.196265 3.413307-0.44373 5.879421-0.938659 7.987139-3.925303 4.300767-6.468217 1.092258-27.954985 1.902918-37.802375 3.438907-41.872744 8.439402-84.79508 11.989241-126.940888 0.674128-7.987138 0.870393-19.754514-4.130101-25.992333 11.810042-5.367425 12.910834-20.121445 11.912441-31.760822 2.687979 0.964259 3.822904 2.952511 4.036236 5.725823 1.911452 25.104873-1.527455 52.30893-0.068266 77.644201h87.346526c-1.049592-54.211849-0.895993-108.654096 12.048974-161.014225 0.341331-5.66609-3.925303-5.427158-4.104501-5.734356-2.124784-3.541306-2.824512-7.039946-7.944473-7.944472 1.646921-1.288523 16.84467-18.977987 15.880411-19.839847-3.950903-0.0512-7.953005 0.034133-11.912441-0.008534 3.549839-8.686866 10.36792-13.124166 19.84838-11.920974v-3.950903l-7.935939-0.008534c0.86186-0.093866 9.693792-2.943977 15.880411-3.967969-2.235716 4.300767-5.14556 6.604749-3.959436 11.912441 6.86928-4.590898 12.09164 0.605862 19.839847 0-0.631462 0.136532-5.375959 6.00742-11.408979 4.454366-2.867178 2.099184-14.660154 59.792606-16.247341 69.136534-2.995177 17.638264-2.244249 36.735717-8.081004 53.452388 7.321544 1.646921 7.78234-2.252783 11.306579-6.55355 13.84096-16.904403 29.132575-32.426417 39.995425-51.566535l-19.532649-31.18056c4.787163-7.560475 13.456963-7.33861 19.84838-9.941257l-7.910339 13.909226 5.973287 5.538091 1.937052-3.558373c9.08793 3.404774 11.895375 14.736953 12.023374 23.722484l11.792976 0.093866c-0.085333 2.63678 0.059733 5.324759 0 7.953005h-23.824883l7.953005 7.927406-58.299284 73.386101c5.811155 21.495301 1.433589 45.396983 2.551447 67.728545 1.160524 23.34702 6.280485 51.856667 8.029805 75.340219 0.776527 10.359387-2.440515 35.242395 1.902919 41.770345 2.107717 2.986644 4.565298 3.481573 7.987138 3.925303 11.007915 1.442122 32.127752 0.750928 43.707397-0.196266 20.164111-1.655454 50.320679-8.063938 70.629855-12.748701 17.186001-3.967969 33.535741-10.640985 50.551077-14.967352-4.206901-21.043038-8.166337-42.401806-11.920975-63.521643-1.220257-6.886347-3.532773-13.508163-3.967969-15.880411-0.238931-1.27999 0.238931-2.687979 0-3.96797-5.956221-32.136286-13.525229-64.878433-19.84838-95.282465-3.592506-17.254267-3.737571-38.9117-7.944473-55.585705l-0.127999-13.832427-3.83997-2.047984 11.903908-11.912441 7.893273 26.077665c15.035617 0.554662 28.885111 4.966362 43.135667-2.867178 0.597329-6.399951 7.193545-13.038833 8.123671-17.979594 1.203191-6.382884-3.464507-11.903908-3.737571-18.960921-0.827727-21.094237 0.88746-41.036484 4.155701-61.704058-13.670295 1.322656-26.086199-2.875711-39.705294-3.976502l7.944472-11.912442c26.777394 0.221865 53.059858 1.032525 79.384988-4.002102l0.213332-37.401312c-19.95078-8.217537-20.821173-23.782217-8.345536-40.19169 7.082612-0.46933 16.938536-4.454366 22.783825-4.949295 4.479965-0.375464 9.267129 3.319441 14.984418 3.353574 14.975885 0.102399 60.202203-3.140242 69.733862 1.69812 8.243136 4.189834 13.200965 14.771086 11.946575 24.004082-1.553055 11.400445-19.472917 14.907618-16.016944 29.687238z m-99.258968 39.705294l-27.485655 4.249567c-7.466609 18.781722-3.293841 39.38103-4.2581 59.263543l29.960302-47.444967 1.791986-16.068143zM472.871022 815.840111H385.524495c-0.41813 7.150878 0.81066 14.626021-0.076799 21.759833-2.457581 19.600916-5.905021 39.74796-8.029805 59.459808-0.614395 5.725823-1.126391 17.296933 2.158916 22.01583 1.954118 0 11.733243-31.54749 15.786545-35.83119 2.739179-2.892778 3.950903-3.438907 7.927406-3.985036 17.774796-2.431981 40.771952 1.612788 59.25501 0.503462l4.445832 3.490107 13.806827 23.893149-7.927405-91.305963z m-115.13938 142.932232l-49.544151-0.085333-73.522633-15.795078v23.824883c22.698492-9.864457 79.171656-0.435197 75.417018 31.760822-22.280362-11.716176-43.152734-23.671284-69.563197-19.95078-7.543409 1.066658-20.147045 13.124166-17.766263 21.913431 4.019169 6.101286 7.432476 5.580757 13.772694 6.092753 33.220011 2.645313 66.294956-2.525847 98.977371-4.488498l22.229161-43.2722z m200.497655 47.632699c24.328346 2.244249 54.263048 0 79.402055 0 1.092258 0 7.475142-6.323151 5.742889-9.659659-7.526342-19.344918-25.907-20.616374-44.671656-17.365199-14.856419 2.577047-26.948059 15.504947-42.453006 15.112417-4.437299-4.155701 14.062825-20.804106 18.602523-23.073956 14.199357-7.074079 41.838611-10.444719 56.814496-4.718897-2.013851-5.358892 5.674623-25.693669-6.007421-23.901682-9.685259 1.484789-21.845165 6.237819-31.837621 7.884739-17.109201 2.833045-35.131463 2.756245-51.558003 7.995672l-33.66374 0.085333 19.643582 41.881277c5.828222 3.976503 15.274549 0.742394 22.101163 1.72372 4.343433 0.622929 7.236211 3.976503 7.876206 4.036235z" fill="#4F2E26" p-id="5315"></path><path d="M783.123563 411.457095c5.22236-5.213826 27.980584-6.340218 35.250929-2.662379 11.64791 10.521519 13.090032 24.18328 5.98182 37.938907-11.545511 9.97539-25.215806 10.717784-37.870641 1.885852-8.968464-7.330077-10.794583-29.755504-3.370641-37.170913z m35.413061 18.602523c0-7.876206-6.382884-14.25909-14.25909-14.25909s-14.25909 6.382884-14.25909 14.25909 6.382884 14.25909 14.25909 14.25909 14.25909-6.382884 14.25909-14.25909z" fill="#79B855" p-id="5316"></path><path d="M651.523511 561.745003c-3.950903-0.127999-7.961539 0.093866-11.903908 0l3.967969-7.935939 7.944472 7.944472z" fill="#4F2E26" p-id="5317"></path><path d="M226.711852 927.002988c-7.185011-2.005318-38.681302-12.253772-38.988499-17.749197 18.969454-88.839849 29.141109-180.034879 58.76008-266.144082l-9.838857-5.930621c-12.629236 3.669305-26.623795 85.18761-30.66003 100.368293-1.015459 3.814371-5.077294 18.747589-9.028198 18.59399-26.273931-11.144447-53.213456-24.23448-72.703439-45.405516 20.880906-56.69503 60.799531-105.274922 109.012493-140.705049l41.198616 13.431363 4.113035 8.081005-2.440515 29.960302 41.881277 15.675612-15.624413 33.356543c17.885729 20.616374 33.74054 43.118601 51.284938 63.98244 4.403166 5.239426 13.328964 10.538585 15.957211 13.823894 5.000495 6.237819 4.80423 18.005195 4.130101 25.992333-3.549839 42.154342-8.550334 85.068144-11.989241 126.940888-0.81066 9.847391 2.397848 31.334158-1.902918 37.802375-2.107717 2.986644-4.565298 3.481573-7.987139 3.925303-11.007915 1.442122-32.127752 0.750928-43.707396-0.196265-22.613159-1.851719-59.22941-9.599926-81.467106-15.803611z m99.267502-170.725084l-99.062703-11.707643c-4.659164 21.196637-10.36792 43.562331-8.302869 65.467228 3.857037 40.942618 54.041183 58.734481 85.597206 33.655208 21.188103-16.836137 22.263295-62.139254 21.776899-87.423327z" fill="#FDFDFD" p-id="5318"></path><path d="M381.556526 716.581143l-11.903909-83.370024 29.45684 19.745981c8.063938-2.739179 25.471804-30.873362 28.117116-31.649889 8.558867-2.508781 19.942246 32.196018 35.216796 27.425922 5.213826-1.629854 14.65162-10.623918 18.363591-15.522014 0.179199 0.298664 4.445832 0.068266 4.104502 5.734356-12.944967 52.36013-13.098566 106.81091-12.048974 161.014225H385.515962c-1.467722-25.335271 1.979718-52.547862 0.068266-77.644201-0.213332-2.773312-1.348256-4.761563-4.036236-5.725823z" fill="#5FACD1" p-id="5319"></path><path d="M623.739192 569.689475l2.329582 3.541306c7.133812 1.151991 14.361489 0.179199 21.495301 0.435197 2.628246 0.093866 5.324759-0.213332 7.944472 0 13.619095 1.092258 26.034999 5.290626 39.705294 3.976503-3.268241 20.667574-4.983428 40.618354-4.155701 61.704057 0.273065 7.048479 4.949295 12.578036 3.737571 18.960921-0.930126 4.940762-7.534875 11.579644-8.123671 17.979595-14.242024 7.83354-28.10005 3.42184-43.135667 2.867178l-7.893273-26.077666-11.903908 11.912441-12.11724-1.72372c-0.750928-0.546129-6.954613-12.134306-7.73114-14.156691-1.484789-3.86557 2.090651-12.339105-6.169553-15.786545-7.31301 0.947193-14.335889 2.653846-21.6233 3.882637l-9.89859-3.950903c-8.840465 2.491714-5.700223 23.184888-5.981821 31.735222l-11.792975-0.093866c-0.127999-8.985531-2.935444-20.31771-12.023374-23.722483 5.845288-14.293223 39.270097-10.623918 45.83218-19.686249l-5.657557-33.996538 3.362108-3.985036c14.156691-3.063443 29.866436-12.219639 43.818329-13.798293z" fill="#FBFCFB" p-id="5320"></path><path d="M520.512254 597.473794c3.822904-0.802127 9.207396 0.91306 13.653228-0.102399 5.316226-1.220257 28.996043-9.002597 30.020036-7.842073l3.899703 21.657433c-3.711971 7.935939-11.758843 4.642098-17.075068 6.852214-4.761563 1.979718-8.524734 4.744497-14.617488 7.227678-6.391417 2.602647-15.061217 2.389315-19.84838 9.941257l19.532649 31.180559c-10.86285 19.131586-26.145932 34.662133-39.995425 51.566536-3.52424 4.300767-3.976503 8.20047-11.306579 6.55355 5.836755-16.716671 5.085827-35.814124 8.081004-53.452388 1.587188-9.343928 13.37163-67.03735 16.247342-69.136534 6.03302 1.561588 10.777517-4.317833 11.408978-4.454366z" fill="#F9F8F7" p-id="5321"></path><path d="M345.256005 602.00496c12.501237 41.070617 19.993446 83.754021 24.371012 126.488625l-50.935074-61.47366 19.182786-31.743755c-18.61959-20.479842-60.756865-8.371135-43.656197-45.755381l51.037473 12.492704z" fill="#F4F6F6" p-id="5322"></path><path d="M190.991594 768.207412c1.186124 6.306085-3.387707 10.538585-8.021271 13.806827-35.549593 25.01954-71.39785-10.436186-63.436311-49.544152l40.823152 24.669677 30.63443 11.067648z" fill="#F4C282" p-id="5323"></path><path d="M417.285317 609.394769l-21.614767 23.679818-29.994435-27.647787 51.609202 3.967969z" fill="#B2C9D2" p-id="5324"></path><path d="M476.838991 605.418267c3.959436 0.042666 7.961539-0.042666 11.912442 0.008533 0.964259 0.86186-14.23349 18.551324-15.880411 19.839847-1.433589 1.117858-11.238313 1.314123-13.89216 7.748207l-17.868662-23.620085c12.731635-0.401064 22.425427-4.130101 35.728791-3.976502z" fill="#ACC4CE" p-id="5325"></path><path d="M647.555542 573.657445c-7.133812-0.247465-14.352956 0.725328-21.495301-0.435197l-2.329582-3.541306c6.732748-0.767994 14.608954-0.008533 21.495301 0.435197l2.329582 3.541306z" fill="#4F2E26" p-id="5326"></path><path d="M627.707161 680.852352c4.198368 16.665472 4.351966 38.331438 7.944473 55.585705l0.017066 7.944472-21.495301 0.426663-2.338115 3.541306c-10.683651 0.426663-17.808929 3.165842-25.889934 3.89117-17.450532 1.561588-36.266387-3.438907-51.703068 7.85914l6.980213 60.85073c8.6954 24.20888 39.056766 39.517562 64.00804 33.945339 5.708756-1.271457 27.70752-14.933218 30.421099-19.191319 5.990354-4.121568 12.748702-4.642098 19.84838-3.967969 0.238931 1.27999-0.238931 2.687979 0 3.967969l0.435196 13.47403 3.532773 2.406381c3.754638 21.119837 7.705541 42.478606 11.920975 63.521644-17.015336 4.326367-33.365076 10.999382-50.551077 14.967351-20.309177 4.684764-50.457211 11.093248-70.629856 12.748702-11.579644 0.947193-32.699481 1.638387-43.707396 0.196265-3.413307-0.44373-5.879421-0.938659-7.987138-3.925303-4.343433-6.52795-1.126391-31.402425-1.902919-41.770345-1.757853-23.483552-6.86928-52.001732-8.029805-75.340219-1.109325-22.331561 3.259708-46.233244-2.551447-67.728545l58.299284-73.386101c3.49864-0.546129 5.862355-6.340218 9.992456-0.102399l1.911452 15.98281 2.056518 3.86557c4.607964 0.46933 9.250062-0.068266 13.823893 0.110933 8.029805 0.315731 31.086694 1.655454 35.95919-1.757853l13.670294-29.994436c2.901311 1.058125 2.858645 7.748207 3.857037 11.716177 0.059733 0.230398 2.039451-0.034133 2.090651 0.196265z" fill="#FCFDFD" p-id="5327"></path><path d="M472.871022 815.840111l7.927405 91.305963-13.806827-23.893149-4.445832-3.490107c-18.491591 1.109325-41.480214-2.935444-59.25501-0.503462-3.976503 0.546129-5.188227 1.100792-7.927406 3.985036-4.061835 4.2837-13.832427 35.83119-15.786545 35.83119-3.285308-4.72743-2.773312-16.298541-2.158916-22.01583 2.124784-19.711848 5.572224-39.858893 8.029805-59.459808 0.895993-7.133812-0.332797-14.608954 0.076799-21.759833h87.346527z" fill="#73757C" p-id="5328"></path><path d="M558.229297 1006.405042c-0.639995-0.059733-3.532773-3.404774-7.876206-4.036235-6.818081-0.981326-16.272941 2.252783-22.101163-1.72372l-19.643582-41.881277 33.663741-0.085333c16.418007-5.239426 34.448801-5.17116 51.558002-7.995672 9.992456-1.655454 22.152363-6.408484 31.837621-7.884739 11.682043-1.791986 4.002102 18.54279 6.007421 23.901682-14.984418-5.725823-42.615138-2.355182-56.814496 4.718897-4.539698 2.261316-23.048356 18.918254-18.602523 23.073956 15.504947 0.39253 27.596587-12.53537 42.453006-15.112417 18.764655-3.259708 37.145314-1.979718 44.671656 17.365199 1.740787 3.336508-4.650631 9.659659-5.742889 9.659659-25.139006 0-55.073709 2.244249-79.402055 0z" fill="#6D727B" p-id="5329"></path><path d="M357.731642 958.772343l-22.229161 43.2722c-32.682415 1.962652-65.748827 7.133812-98.977371 4.488498-6.340218-0.503463-9.753525 0.008533-13.772694-6.092753-2.380782-8.797799 10.222855-20.855306 17.766263-21.913431 26.410463-3.720505 47.282836 8.22607 69.563197 19.95078 3.754638-32.196018-52.718527-41.625279-75.417018-31.760822v-23.824883l73.522633 15.795078 49.544151 0.085333z" fill="#6F747B" p-id="5330"></path><path d="M576.097959 637.179088c-3.618105 0.605862-8.046871-0.409597-11.903908 0.008534v3.950903l15.880411 7.953005h-7.944472l0.127999 15.769478 7.816473 0.110933 3.566906 2.269849c-2.244249 6.818081 3.780238 11.801509 4.377566 13.610562 0.639995 1.954118-0.41813 5.444225 0 7.944472h5.939154c7.825006-4.258101 4.590898-10.896983 5.973288-15.880411 2.14185-7.75674 6.229285-14.190824 3.967969-23.824883 0.776527 2.013851 6.980213 13.610562 7.73114 14.156691l12.11724 1.72372 3.839971 2.047984 0.127999 13.832427c-0.059733-0.221865-2.039451 0.034133-2.090651-0.196265-0.998392-3.967969-0.955726-10.658051-3.857037-11.716177l-13.670294 29.994436c-4.872496 3.413307-27.929385 2.073584-35.95919 1.757853l7.935939-23.81635-11.903908-0.017066-11.912442 19.856913-1.911452-15.98281c-4.138635-6.237819-6.493817-0.44373-9.992456 0.102399l-7.953005-7.935939h23.824883c0.068266-2.619713-0.076799-5.307692 0-7.944472 0.281598-8.550334-2.858645-29.252041 5.98182-31.735222l9.898591 3.950903z" fill="#5F3B2F" p-id="5331"></path><path d="M655.500014 831.720522c-7.099679-0.674128-13.858027-0.153599-19.84838 3.96797 0.725328-1.134925 7.944472-24.439278 7.927405-25.787535-0.034133-4.044769-3.626639-7.970072-3.882637-12.031907-1.075192-16.938536-2.14185-32.85308-4.044768-49.535618-7.893272 0.230398-15.931611-0.307198-23.824883 0.008533l2.338115-3.541306 21.495301-0.426664-0.017067-7.944472c6.323151 30.412566 13.89216 63.14618 19.848381 95.282466zM659.467983 851.568902l-3.532773-2.406381-0.435196-13.474029c0.435197 2.372248 2.747712 8.994064 3.967969 15.88041z" fill="#E9E9EA" p-id="5332"></path><path d="M804.277534 430.059618m-14.25909 0a14.25909 14.25909 0 1 0 28.51818 0 14.25909 14.25909 0 1 0-28.51818 0Z" fill="#96C961" p-id="5333"></path><path d="M325.979354 756.277904c0.49493 25.284072-0.588795 70.587189-21.776899 87.423326-31.54749 25.07074-81.74017 7.28741-85.597207-33.655207-2.065051-21.904898 3.643705-44.279125 8.30287-65.467229L325.970821 756.286437z m-91.331563 3.967969c2.833045 26.436063-12.688969 46.907372 7.799407 69.631463 15.001484 16.639872 34.645066 16.221742 51.643335 3.720505 19.814247-14.566288 12.347638-38.408237 19.916647-59.237943-2.722112-4.027702-4.872496-5.572224-9.787658-6.263419-23.227554-3.276775-46.489242-6.519416-69.580264-7.850606z" fill="#482820" p-id="5334"></path><path d="M603.882278 649.09153c2.261316 9.625526-1.834653 16.068143-3.967969 23.824883h-11.920975l0.017067 7.944472c-0.588795-1.800519-6.621816-6.792481-4.377567-13.610562l-3.566905-2.269849v-15.880411l-15.871878-7.953005v-3.950903c3.857037-0.41813 8.285803 0.597329 11.903908-0.008533 7.28741-1.220257 14.301756-2.926911 21.6233-3.882637 8.260203 3.44744 4.684764 11.920975 6.169553 15.786545z m-7.953005-3.976503h-7.918872v19.865447l11.903908-0.017066-3.976503-19.848381z" fill="#3E3831" p-id="5335"></path><path d="M611.826751 748.341965c7.893272-0.315731 15.931611 0.213332 23.824883-0.008533 1.902919 16.682538 2.969577 32.597082 4.044768 49.535618 0.255998 4.053302 3.848504 7.987138 3.882637 12.031907 0.008533 1.348256-7.202078 24.65261-7.927405 25.787535-2.713579 4.258101-24.712343 17.919862-30.421099 19.191318-24.951274 5.572224-55.31264-9.736458-64.00804-33.945338l-6.980213-60.850731c15.428148-11.298046 34.252536-6.297551 51.703068-7.859139 8.081004-0.725328 15.206283-3.455973 25.889934-3.89117z m11.869775 11.929508l-75.399952 7.918872c-4.369033 4.3093 6.263418 56.097701 12.663369 62.796316 4.002102 4.198368 26.521396 13.286298 32.887213 12.834035 5.751422-0.409597 21.913431-9.395128 26.069132-13.94336 14.387089-15.743879 6.97168-50.013481 3.780238-69.614396z" fill="#482A23" p-id="5336"></path><path d="M556.241046 696.732763l11.912441-19.856914 11.903908 0.017067-7.935938 23.816349c-4.582365-0.179199-9.215929 0.358397-13.823894-0.110932l-2.056517-3.86557z" fill="#CCD6D5" p-id="5337"></path><path d="M599.914309 672.90788c-1.373856 4.991962 1.860252 11.62231-5.973287 15.871877h-5.939155c-0.426663-2.483181 0.639995-5.973287 0-7.927405l-0.017066-7.944472h11.920975z" fill="#50B2CC" p-id="5338"></path><path d="M580.065929 649.09153v15.880411l-7.816473-0.110933-0.127999-15.769478h7.944472z" fill="#7BA2AA" p-id="5339"></path><path d="M234.647791 760.245873c23.091022 1.33119 46.352709 4.565298 69.580264 7.850606 4.915162 0.691195 7.065546 2.235716 9.787658 6.263419-7.569008 20.829706-0.102399 44.671656-19.916647 59.237943-16.998269 12.501237-36.641851 12.919367-51.643335-3.720505-20.488375-22.724092-4.966362-43.1954-7.799406-69.631463z" fill="#F9FAFA" p-id="5340"></path><path d="M210.831442 934.94746c-11.443112-0.110932-24.575811-5.230893-33.945339-11.707643l-1.894385-6.050087c1.032525-42.137275 13.286298-83.566289 19.950779-125.165969-36.957582 26.180065-87.175861 9.804724-91.468095-37.537843-5.853822-64.605369 55.33824-143.905024 101.315486-184.873242 4.249567-3.788771 10.453253-4.974895 13.968959-9.847391-10.197255-6.741281-21.776899-12.620703-31.590156-20.019046-65.492828-49.382019-87.559858-122.887586-75.527952-202.229907 1.919985-12.654836 10.052189-32.597082 10.291121-43.758596 0.460796-21.427035-8.746599-53.281723 17.621198-63.794709-3.566906-17.843062 2.679446-35.054663 3.950902-51.156939 2.517314-32.008287 1.69812-58.043286 8.678334-90.572101 9.634059-44.876454 29.653105-103.670668 86.629732-84.487883 24.174747 8.140737 58.111552 32.375217 79.035124 48.016697 14.28469 10.675118 10.410586 16.076676 33.842939 13.636162C391.676981 61.234728 414.26454 57.915287 455.070625 61.439526c19.635049 1.69812 39.995425 0.383997 59.536608 6.766882 37.298912-23.987015 89.368911-76.244746 138.238935-65.586695 17.979595 3.925303 34.175737 34.662133 40.413555 50.900941 20.957705 54.570246 22.06703 120.754269 21.896364 178.57569l13.986026 3.908237c9.958323 19.660648 3.47304 41.181549 5.836755 61.652858 1.646921 14.23349 10.222855 32.921346 11.724709 47.828965 8.797799 87.295327-24.345412 168.002972-103.133071 208.34826l-3.96797 7.935939c3.94237 0.093866 7.953005-0.119466 11.903909 0 3.959436 0.127999 7.944472-0.034133 11.912441 0l-7.944472 11.912442c-2.61118-0.213332-5.307692 0.093866-7.944472 0l-2.329582-3.541307c-6.886347-0.44373-14.762553-1.194657-21.495301-0.435196-13.951892 1.587188-29.661638 10.734851-43.818329 13.798293l-3.362107 3.985036 5.657556 33.996538c-6.553549 9.06233-39.986892 5.393025-45.83218 19.686249l-1.937052 3.558372-5.973287-5.53809 7.910339-13.909227c6.092753-2.483181 9.855924-5.24796 14.617487-7.227677 5.307692-2.210116 13.363097 1.083725 17.075069-6.852214l-3.899704-21.657433c-1.023992-1.160524-24.70381 6.621816-30.020035 7.842073-4.437299 1.015459-9.821791-0.699728-13.653228 0.102399-7.748207 0.605862-12.970567-4.590898-19.839847 0-1.186124-5.307692 1.72372-7.611675 3.959436-11.912442 86.109203-14.250557 214.005817-70.023994 222.334286-170.71655 6.886347-3.310908 3.908237-15.325749 3.959436-21.845165 0.093866-12.629236 1.288523-27.750186 0.179199-39.858893-1.587188-17.254267-11.084715-35.651992-12.176973-53.341455l-27.494188 0.102399c-5.239426 19.216919-9.97539 36.735717-24.021148 51.42147-7.645808 0.83626-7.142345 3.652239-7.944472 3.967969-2.713579 1.092258-5.162627 2.97811-7.944472 3.96797-12.526837 4.471432-26.777394 4.983428-39.705294 7.944472-27.972051-2.500247-62.395252 5.538091-88.455852-4.846896-34.261069-13.653228-45.396983-51.011873-84.086818-54.86891-25.51447-2.542914-40.114891 0.0256-59.792606 15.974277-17.2372 13.977492-36.198121 37.836508-60.125403 43.093001-20.71024 4.548232-50.858275-1.979718-72.797306 0.648528-7.509275-1.314123-26.154465-5.102894-31.760821-3.967969l-27.792853-11.912442-27.596587-49.825749-24.021148-1.791986c2.423448 14.660154-5.683156 28.10005-7.85914 41.778878-2.286916 14.395622-5.521024 37.742642-4.113035 51.754267 0.477863 4.75303 3.993569 5.384492 4.036236 5.725823 5.922088 46.105245 9.386594 60.031537 39.705294 95.282465 2.781845 3.234108 3.268241 9.360995 7.978605 13.86656 34.10747 32.588549 88.251053 57.463024 133.784569 68.684271 56.754763 13.986026 122.281724 18.747589 179.813014 12.740168h7.935938v3.959436c-9.48046-1.203191-16.290008 3.234108-19.84838 11.920975-13.303364-0.145066-22.997156 3.583972-35.728791 3.976503l17.868662 23.620084c2.653846-6.434084 12.458571-6.630349 13.89216-7.748207 5.119961 0.904526 5.819688 4.403166 7.944472 7.944473-3.711971 4.906629-13.149765 13.89216-18.363592 15.522013-15.274549 4.770097-26.657928-29.934703-35.216795-27.425922-2.645313 0.776527-20.053179 28.91071-28.117117 31.64989l-29.456839-19.745981 11.903908 83.370024c0.998392 11.639377-0.102399 26.393397-11.912442 31.760821-2.628246-3.276775-11.554044-8.584467-15.95721-13.823893-17.544398-20.863839-33.399209-43.366066-51.284938-63.98244l15.624413-33.356543-41.881277-15.675613 2.440514-29.960302-4.113035-8.081004-41.198615-13.431363c-48.212962 35.430127-88.123054 84.001486-109.012493 140.705048 19.498516 21.171037 46.429509 34.261069 72.703439 45.405517 3.950903 0.153599 8.012738-14.779619 9.028197-18.59399 4.036236-15.180683 18.022261-96.698988 30.660031-100.368293l9.838857 5.930621c-29.618972 86.109203-39.790627 177.304233-58.76008 266.144082 0.307198 5.495424 31.803488 15.743879 38.988499 17.749196-2.158917 8.507668-8.627133 8.004205-15.880411 7.944472z m-47.649767-702.73165c9.267129-45.618848 48.588425-57.044894 89.420111-63.436311 94.011009-14.72842 254.974035-14.489488 349.223975 0 25.454737 3.91677 62.190454 11.67351 76.944473 34.226936 6.178086 9.437794 6.647415 21.290503 14.455356 29.200842 6.263418-4.241034 5.521024-7.31301 6.041553-13.798294 3.157309-39.602895-9.50606-135.602155-27.024858-171.65521-4.898096-10.077789-15.98281-25.727802-27.297923-28.262182-37.512244-8.405269-92.116623 48.178829-123.092385 66.312022-46.27591-7.022879-99.037103-11.20418-146.413804-7.594608-11.20418 0.853327-29.883503 8.004205-39.585829 8.157804-9.779125 0.162132-35.310661-26.154465-45.772447-33.621075-19.566783-13.960426-60.748332-40.413555-84.684147-33.416275-18.59399 5.435691-34.858398 62.838982-38.07544 81.023375-6.954613 39.32983-9.335395 82.781229-8.081004 122.947319 0.145066 4.556765-2.577047 10.914049 3.959436 9.89859z m173.558129-58.708881c-32.068019 1.928518-89.10438 6.143953-119.107348 15.880411-45.064186 14.626021-47.13777 63.17178-42.43594 104.267996 3.42184 29.917636 16.40094 49.706284 46.318576 56.908362 30.907495 7.432476 89.957707 8.166337 117.844425-7.679941 20.932105-11.895375 40.097824-43.818329 64.025107-47.13777 16.981202-2.355182 50.243879-1.262924 65.578161 5.879421 22.963023 10.692184 34.696266 40.678086 62.173387 48.989489 25.087807 7.586075 72.15731 6.297551 97.782713-0.042666 8.132204-2.013851 24.046748-8.22607 30.446699-13.218031 26.478729-20.659041 26.094732-106.998642 4.215434-131.088057-19.814247-21.819565-65.586694-22.186496-93.38808-25.719268-75.510885-9.591393-156.278262-11.67351-233.4702-7.031413zM159.230773 244.119718l-19.822781 0.0256-4.019169 39.688227c8.797799-0.529063 16.170542-0.759461 23.824883 3.96797l0.017067-43.681797z m559.799418 0h-27.792853c0.947193 14.054292 8.985531 26.069132 0 39.696761l27.801386 0.017066v-39.713827zM345.256005 602.00496l-51.037473-12.492704c-17.092135 37.392778 25.036607 25.284072 43.656197 45.75538l-19.182786 31.743756 50.935074 61.473659c-4.377566-42.734604-11.878308-85.409475-24.371012-126.488625z m72.029312 7.389809l-51.609202-3.967969 29.994435 27.647787 21.614767-23.679818zM190.991594 768.207412l-30.63443-11.067648-40.823152-24.669677c-7.953005 39.099432 27.886718 74.563692 63.436311 49.544152 4.642098-3.268241 9.215929-7.500742 8.021271-13.806827z" fill="#4C2C22" p-id="5341"></path><path d="M389.492464 343.38722l11.912442 11.912441c-10.120455 3.694905-15.735345 7.944472-19.413184 18.465991-0.366931 2.124784 5.631957 16.127876 7.287411 18.773189 3.089043 4.949295 31.59869 18.355059 37.938907 18.355058 10.350854 0 35.003464-14.370023 39.807693-23.71395 6.118353-11.920975-1.757853-17.78333-2.09065-23.935816-0.102399-1.877319 2.892778-12.987633 3.967969-15.880411 28.287782 13.209498 39.065299 26.939526 71.466116 35.728792 2.030918 0.554662 7.935939 7.236211 15.871878 4.002102-2.602647 25.360871 3.976503 74.930622 27.835518 89.257979 5.657556 3.39624 31.325625 13.038833 37.742643 13.86656 17.527332 2.244249 65.663494 3.993569 75.357286-11.852709 2.338115-3.822904 10.36792-22.630226 12.06604-27.63072 7.679941-22.681425 7.80794-62.890182-17.663864-71.952512l-0.537596-15.359882-19.660648-8.115138h15.880411c29.567772 9.616993 42.290874 28.193916 39.705294 59.553675-8.328469 100.692557-136.225083 156.465994-222.334287 170.71655-6.195152 1.023992-15.018551 3.882637-15.88041 3.96797-57.53129 6.015954-123.066785 1.245857-179.813014-12.740169-45.533516-11.221247-99.685632-36.095722-133.784569-68.68427-4.710364-4.505565-5.205293-10.632451-7.978605-13.86656 12.825501-10.751917 31.607223 0.213332 45.661514 0.221865 7.73114 0 31.376825-3.174376 39.065299-4.829829 2.107717-0.452263 32.306951-18.517191 33.655207-19.933713 0.981326-1.023992 11.460178-23.432353 12.006308-25.727802 1.220257-5.162627-0.076799-10.384987 0.750927-15.129483 2.457581-14.045758 8.6442-27.622187-0.110932-41.787412 5.896488-0.520529 12.373238 0.921593 18.133194 0.0768 5.282093-0.767994 5.358892-3.959436 5.691689-4.061836 23.722484-7.398343 41.181549-28.535247 67.489613-39.705294z m-24.225946 67.813877l-11.502845-0.315731c-5.836755 19.643582 12.450037 19.967846 17.979595 27.673387 4.3349 6.041553 4.795696 20.360376 7.688474 28.04885 15.342815 40.814619 70.356791 44.671656 90.324637 6.673015 5.060228-9.625526 5.060228-23.364087 8.976997-30.711229 3.191442-5.981821 10.675118-6.169552 13.166832-8.686867 2.261316-2.286916 3.49864-10.564185 8.618601-13.252164-6.03302-19.310784-11.750309-5.444225-19.822781 0.076799-10.598318 7.244744-29.081376 8.004205-41.676479 6.161019-14.498022-2.124784-1.740787-9.523127-25.531536-1.885852-13.86656 4.445832-32.187485 6.698615-43.997528-4.113035-3.677838-3.370641-3.020777-8.132204-4.232501-9.659659z" fill="#FAF1E0" p-id="5342"></path><path d="M163.181675 232.21581c-6.536483 1.015459-3.814371-5.341825-3.959436-9.89859-1.245857-40.174624 1.126391-83.626022 8.081005-122.947319 3.217042-18.192926 19.48145-75.596217 38.07544-81.023376 23.935815-6.997279 65.125898 19.45585 84.684147 33.416276 10.453253 7.458076 35.993323 33.783206 45.772447 33.621074 9.710858-0.162132 28.381648-7.304477 39.585828-8.157804 47.376701-3.618105 100.146428 0.571729 146.413805 7.594609 30.975761-18.133194 85.58014-74.717291 123.092384-66.312023 11.315113 2.53438 22.399827 18.184393 27.297923 28.262182 17.518798 36.053055 30.173634 132.052315 27.024859 171.655211-0.511996 6.47675 0.221865 9.548726-6.041554 13.798293-7.799407-7.910339-8.27727-19.763048-14.455355-29.200841-14.745486-22.553426-51.489736-30.310166-76.944474-34.226936-94.24994-14.489488-255.212966-14.72842-349.223974 0-40.823152 6.399951-80.152982 17.825996-89.420111 63.436311zM217.146059 61.86619c-7.688474 2.278382-17.177468 37.042914-18.12466 45.379917-1.450655 12.688969 0.759461 26.862726 0.085333 39.782093-0.520529 9.97539-9.634059 17.953995 1.809053 25.608336 23.201954-24.746476 49.612418-46.019912 77.285804-65.663494 1.587188-5.845288-0.639995-7.825006-3.746105-11.827109-11.033515-14.20789-38.357038-38.903167-57.300891-33.279743z m438.353955 106.827976v-65.509895c0-1.570121-8.396735-27.058991-9.958323-29.738437-17.271334-29.567772-53.19639 7.347143-67.45548 23.782217-2.449048 2.824512-7.347143 5.017561-5.956221 9.907123l83.378557 61.558992z" fill="#F8C27D" p-id="5343"></path><path d="M187.015092 351.323159l27.792852 11.912441c-0.341331 0.068266-0.785061 3.037843-5.734356 4.019169-4.625031 0.921593-10.222855-0.938659-15.547613 0.503463-3.933836 1.066658-21.981697 15.274549-24.336879 19.327851-1.228791 2.11625-9.232995 21.17957-9.412194 22.382761-0.571729 3.805837 3.097576 7.594608 3.319441 11.417512 1.058125 18.030794-2.372248 28.654712 13.926292 41.676478 18.20146 14.549221 37.785309 8.703933 58.990479 7.227678 10.214321-4.744497 24.319813-11.434579 30.591764-21.017438 1.629854-2.483181 11.827109-30.182167 11.784443-31.888821-0.085333-3.967969-3.601039-7.884739-3.899704-12.11724l-0.127999-25.651002c14.003092 7.722607 31.854688 2.602647 47.641233 3.967969-0.332797 0.102399-0.409597 3.285308-5.691689 4.061836-5.751422 0.83626-12.236706-0.597329-18.133194-0.0768 8.763666 14.173757 2.568514 27.741653 0.110933 41.787412-0.827727 4.744497 0.46933 9.966857-0.750928 15.129483-0.537596 2.295449-11.024982 24.695276-12.006307 25.727802-1.348256 1.416522-31.54749 19.48145-33.655208 19.933713-7.679941 1.655454-31.334158 4.829829-39.065298 4.829829-14.045758 0-32.82748-10.973782-45.661515-0.221865-30.3187-35.259462-33.774673-49.177221-39.705294-95.282465 8.081004-27.852585 30.557631-45.482316 59.553674-47.641233z" fill="#FBE3CB" p-id="5344"></path><path d="M611.826751 367.203569c-13.320431 3.046377-17.877196 6.468217-27.792853 11.912442-1.339723 0.733861-5.469825-0.486396-7.944472 0-6.818081 1.339723-11.22978 3.874103-11.912442 3.967969-7.372743 1.015459-16.153475-0.682661-23.824883 0-32.400817-8.789266-43.178334-22.527826-71.466115-35.728791-1.092258-0.511996-3.106109-4.573831-7.603142-6.161019-26.239798-9.301262-46.941505-8.354069-71.798913 2.19305-26.316597 11.170047-43.775663 32.306951-67.489613 39.705294-15.786545-1.365323-33.638141 3.754638-47.641233-3.96797l-0.179198-7.662874c-10.914049 2.807445-21.162504-3.123176-27.605121-4.249567 21.939031-2.628246 52.095598 3.908237 72.797306-0.648529 23.927282-5.256493 42.888203-29.115509 60.125403-43.093001 19.669182-15.948677 34.269603-18.517191 59.792606-15.974277 38.689835 3.857037 49.825749 41.215682 84.086818 54.868911 26.052066 10.384987 60.4838 2.346649 88.455852 4.846896z" fill="#F2C283" p-id="5345"></path><path d="M246.568766 367.203569c6.45115 1.134925 16.691071 7.057012 27.605121 4.249568l0.179198 7.662874 0.127999 25.651002c0.290131 4.232501 3.805837 8.149271 3.899703 12.11724 0.034133 1.69812-10.163122 29.397107-11.784442 31.888821-6.271952 9.591393-20.377443 16.272941-30.591764 21.017438-21.196637 1.476255-40.789019 7.321544-58.990479-7.227678-16.298541-13.021766-12.868167-23.645684-13.926292-41.676478-0.221865-3.814371-3.89117-7.611675-3.319442-11.417512 0.179199-1.203191 8.191937-20.26651 9.412195-22.382761 2.355182-4.053302 20.403043-18.261193 24.336879-19.327851 5.324759-1.442122 10.922582 0.41813 15.547613-0.503463 4.949295-0.989859 5.393025-3.950903 5.734356-4.019169 5.606357-1.134925 24.251546 2.653846 31.760822 3.967969z m-32.912813 16.742271c-9.446327 1.25439-24.251546 6.075686-28.722979 14.924685-4.505565 8.908731 0.39253 23.065422-5.521024 33.382143 16.281474 25.275539 54.775044 26.069132 70.53599-0.102399 7.065546-11.733243 2.19305-11.545511 1.663987-20.155578-0.49493-7.995672 3.319441-10.205788-4.889562-19.148653-9.437794-10.282587-19.967846-10.640985-33.066412-8.900198z" fill="#F9CDB1" p-id="5346"></path><path d="M671.380425 355.291128l19.660648 8.115137 0.537596 15.359882c25.471804 9.06233 25.343805 49.271087 17.663864 71.952512-1.69812 5.009028-9.727925 23.807816-12.06604 27.63072-9.693792 15.854811-57.829954 14.105491-75.357286 11.852709-6.42555-0.819194-32.085086-10.470319-37.742643-13.86656-23.859016-14.327356-30.438165-63.897107-27.835518-89.257978-7.944472 3.234108-13.84096-3.455973-15.871878-4.002103 7.671408-0.682661 16.45214 1.015459 23.824883 0l9.437794-0.435197 2.474648-3.532772c2.466114-0.486396 6.596216 0.733861 7.944472 0l-7.287411 18.51719c-2.918378 13.252165 2.389315 44.774055 11.033515 55.159042 1.237324 1.484789 21.17957 16.767871 22.544893 17.160401 2.431981 0.691195 25.147539 4.351966 27.297923 4.3605 3.626639 0.008533 7.048479-3.438907 11.20418-3.097577 4.317833 0.358397 10.009523 5.768489 16.136409 2.833045 13.482563-13.695894 27.494188-16.392407 30.173634-37.426911 2.687979-21.060104-1.35679-44.415658-13.86656-61.439527l-29.738437-15.914544c2.773312-0.989859 5.22236-2.875711 7.944472-3.967969h11.912442z" fill="#FBE3CA" p-id="5347"></path><path d="M651.523511 359.267631l29.738438 15.914544c12.50977 17.015336 16.554539 40.379422 13.866559 61.439526-2.679446 21.034505-16.691071 23.731017-30.173634 37.426912-6.126886 2.935444-11.818576-2.474648-16.136409-2.833045-4.155701-0.349864-7.569008 3.106109-11.20418 3.097576-2.150383 0-24.865942-3.669305-27.297923-4.3605-1.365323-0.383997-21.307569-15.667079-22.544893-17.160401-8.6442-10.384987-13.951892-41.906877-11.033515-55.159041l7.287411-18.517191c9.915657-5.444225 14.472422-8.866065 27.792852-11.912442 12.919367-2.952511 27.178457-3.464507 39.705294-7.944472z m-13.900693 17.450532c-3.47304-0.0512-20.172645 2.013851-23.32142 2.892777-2.184516 0.614395-15.394015 13.158299-16.47774 15.291616-7.867673 15.436681 1.791986 49.77455 17.860129 57.770221 2.850111 1.416522 21.606233 5.316226 25.992333 5.777022 13.055899 1.373856 26.760327-2.252783 32.921347-14.566287 5.828222-11.64791 5.64049-41.727678-1.245857-52.85506-5.845288-9.429261-25.190206-14.165224-35.737325-14.310289z" fill="#F9D7BD" p-id="5348"></path><path d="M667.412455 351.323159c14.045758-14.685753 18.781722-32.196018 24.021149-51.421471l27.494188-0.102399c1.092258 17.689464 10.589785 36.078655 12.176972 53.341456 1.117858 12.108707-0.076799 27.229657-0.179198 39.858892-0.0512 6.519416 2.926911 18.54279-3.959436 21.845165 2.594113-31.359758-10.128989-49.936682-39.705294-59.553674-0.332797-0.110932-0.349864-3.148776-5.794089-4.053302-3.805837-0.631462-10.00099-0.358397-14.054292 0.085333z" fill="#F3C080" p-id="5349"></path><path d="M187.015092 351.323159c-28.996043 2.158917-51.47267 19.797181-59.553675 47.641232-0.042666-0.349864-3.558373-0.981326-4.036235-5.725822-1.407989-14.020159 1.826119-37.358645 4.113035-51.754268 2.175983-13.678828 10.282587-27.127258 7.859139-41.778878l24.021148 1.791986 27.596588 49.82575z" fill="#F4C27F" p-id="5350"></path><path d="M719.030191 244.119718v39.713827l-27.801386-0.017066c8.985531-13.636162 0.947193-25.642469 0-39.688227h27.792853z" fill="#575D63" p-id="5351"></path><path d="M159.230773 244.119718l-0.017067 43.681797c-7.654341-4.735963-15.027084-4.505565-23.824883-3.96797l4.019169-39.688227 19.822781-0.0256z" fill="#646571" p-id="5352"></path><path d="M667.412455 351.323159c4.061835-0.44373 10.248454-0.716794 14.054292-0.085333 5.444225 0.904526 5.461291 3.94237 5.794089 4.053302h-27.792853c0.802127-0.324264 0.298664-3.131709 7.944472-3.967969z" fill="#F9D7BD" p-id="5353"></path><path d="M365.266518 411.201097c1.211724 1.527455 0.554662 6.289018 4.2325 9.659659 11.810042 10.81165 30.130968 8.558867 43.997528 4.113035 23.79075-7.637274 11.024982-0.238931 25.531536 1.885852 12.603636 1.843186 31.086694 1.083725 41.676479-6.161019 8.072471-5.521024 13.78976-19.387584 19.822781-0.0768-5.128494 2.679446-6.357284 10.965249-8.6186 13.252165-2.491714 2.517314-9.983923 2.705046-13.166832 8.686866-3.91677 7.347143-3.91677 21.085704-8.976998 30.71123-19.967846 37.99864-74.981822 34.13307-90.324637-6.673015-2.892778-7.688474-3.353574-21.998764-7.688474-28.04885-5.521024-7.705541-23.81635-8.029805-17.979595-27.673387l11.502845 0.315731z m95.683529 31.436558c-9.881524 7.75674-15.812145 0.204798-25.625403-0.179199-13.883626-0.546129-27.997651 0.767994-41.86421 0.179199-3.182909 20.437176 5.768489 38.305838 26.444596 43.033268 25.727802 5.879421 44.05726-18.858521 41.045017-43.033268z" fill="#553024" p-id="5354"></path><path d="M464.92655 363.2356c0.324264 6.152486 8.209003 12.014841 2.09065 23.935816-4.795696 9.343928-29.448306 23.722484-39.807693 23.71395-6.331685 0-34.841331-13.405763-37.938908-18.355058-1.646921-2.645313-7.654341-16.648405-7.28741-18.773189 3.677838-10.512986 9.301262-14.762553 19.413184-18.465991 20.633441-7.543409 45.789514-6.246352 63.521643 7.944472z" fill="#57322A" p-id="5355"></path><path d="M468.894519 347.355189c-1.075192 2.892778-4.070369 14.003092-3.967969 15.880411-17.73213-14.190824-42.888203-15.479347-63.521644-7.944472l-11.912442-11.912442c24.857408-10.555652 45.559115-11.494311 71.798914-2.193049 4.497032 1.595721 6.510883 5.657556 7.603141 6.161019z" fill="#F3E7CF" p-id="5356"></path><path d="M217.146059 61.86619c18.943854-5.623423 46.27591 19.071853 57.300892 33.279743 3.106109 4.002102 5.333292 5.981821 3.746105 11.827109-27.673387 19.643582-54.08385 40.917018-77.285805 65.663494-11.443112-7.654341-2.321049-15.632946-1.809052-25.608336 0.674128-12.919367-1.535988-27.093124-0.085333-39.782093 0.955726-8.337002 10.444719-43.101534 18.12466-45.379917zM655.500014 168.694166l-83.378557-61.558992c-1.390923-4.889562 3.507173-7.082612 5.95622-9.907123 14.267623-16.443607 50.19268-53.358522 67.45548-23.782217 1.561588 2.679446 9.958323 28.176849 9.958324 29.738437v65.509895z" fill="#F9C6BD" p-id="5357"></path><path d="M576.097959 379.116011l-2.474647 3.532773-9.437794 0.435196c0.682661-0.093866 5.085827-2.628246 11.912441-3.967969z" fill="#F9D7BD" p-id="5358"></path><path d="M213.655953 383.94584c13.098566-1.740787 23.628618-1.382389 33.066412 8.900198 8.209003 8.942864 4.394633 11.144447 4.889562 19.148653 0.529063 8.6186 5.401558 8.422335-1.663987 20.155578-15.769478 26.180065-54.254515 25.386471-70.53599 0.102399 5.913554-10.31672 1.015459-24.473411 5.521024-33.382143 4.471432-8.848998 19.276651-13.670295 28.722979-14.924685z" fill="#FABE9E" p-id="5359"></path><path d="M637.622818 376.718163c10.547119 0.145066 29.892036 4.881029 35.737325 14.310289 6.89488 11.118848 7.074079 41.207149 1.245857 52.85506-6.161019 12.313505-19.865447 15.940144-32.921346 14.566287-4.3861-0.460796-23.150755-4.3605-25.992333-5.777022-16.076676-8.004205-25.727802-42.342074-17.860129-57.770221 1.083725-2.124784 14.293223-14.67722 16.477739-15.291616 3.148776-0.878927 19.84838-2.943977 23.321421-2.892777z" fill="#FAC5A7" p-id="5360"></path><path d="M460.950047 442.637655c3.00371 24.174747-15.317215 48.91269-41.045017 43.033268-20.676107-4.72743-29.627505-22.596092-26.444596-43.033268 13.86656 0.588795 27.980584-0.725328 41.86421-0.179199 9.813258 0.383997 15.743879 7.944472 25.625403 0.179199z" fill="#D33E36" p-id="5361"></path><path d="M336.739804 173.506929c77.183405-4.642098 157.950782-2.55998 233.470201 7.031413 27.801386 3.532773 73.573833 3.899703 93.38808 25.719268 21.879298 24.089414 22.271828 110.429015-4.215434 131.088056-6.408484 5.000495-22.314495 11.20418-30.446699 13.218032-25.625402 6.348751-72.694906 7.637274-97.782713 0.042666-27.477122-8.311403-39.210364-38.297305-62.173387-48.989489-15.334282-7.142345-48.596959-8.234603-65.578162-5.879421-23.927282 3.319441-43.093001 35.242395-64.025106 47.13777-27.886718 15.846278-86.945463 15.112417-117.844425 7.67994-29.926169-7.193545-42.896736-26.990725-46.318576-56.908361-4.70183-41.10475-2.628246-89.641976 42.435939-104.267996 30.002969-9.736458 87.039329-13.951892 119.107349-15.880411z m-58.410216 15.035618c-8.098071 1.058125-13.465496 3.532773-15.880411 3.967969-1.27999 0.230398-2.705046-0.255998-3.967969 0-25.267005 5.111427-61.960056 7.372743-70.740788 38.433837-11.22978 39.713827-7.41541 101.972547 41.719145 111.674873 26.589662 5.24796 62.75365 7.603141 88.771582-1.032526 22.988623-7.628741 37.58051-26.316597 55.551572-39.730893 21.12837-15.760945 24.60141-12.697502 49.356419-14.139625 4.036236-0.238931 7.944472-3.857037 12.014841-3.857037 4.130101 0 28.279249 5.128494 32.597082 7.074079 26.640861 11.972174 42.427406 43.622064 71.483182 51.592136 29.072843 7.970072 73.266635 7.099679 101.528818-3.94237 1.689587-0.657062 13.44843-7.253277 14.003092-7.83354 0.981326-1.023992 11.536978-23.603018 11.997774-25.727801 1.860252-8.507668 0.204798-18.12466 0.725328-27.041925 0.238931-4.036236 3.857037-7.944472 3.857037-12.014841 0-3.967969-3.42184-7.83354-3.874104-11.997774-0.682661-6.374351 0.648528-12.714569-0.699728-19.123053-2.11625-10.009523-13.072966-24.15768-21.751299-29.866436-16.81907-11.076181-34.593867-9.403661-53.051324-12.458571-100.75229-16.691071-211.633569-17.245734-313.648782-3.967969z" fill="#5F606A" p-id="5362"></path><path d="M258.481208 192.519049l-0.017067 7.944472h15.897477c-1.493322 0.213332-9.813258 2.867178-15.88041 3.96797-30.310166 5.478358-56.217167 9.198862-59.72434 45.490849-1.066658 11.059115-1.203191 33.237077 0.110932 44.074327 0.605862 4.991962 3.950903 5.384492 4.027703 5.725823 1.783453 7.432476 0.375464 15.342815 7.910339 21.870764 8.883132 7.697007 32.136286 9.241529 43.707396 9.890057 34.977864 1.971185 61.234728 2.943977 89.403044-19.780114 7.654341-6.178086 13.926293-15.487881 21.939031-21.734232 30.020035-23.415286 82.064434-24.004082 114.960181-6.126886 4.044769 2.19305 8.217537 5.19676 11.912441 7.944472 11.357779 8.430868 20.283577 19.43025 31.760822 27.792852 1.066658 0.776527 1.928518 3.140242 4.966362 4.906629 4.010636 2.338115 7.483676 1.971185 10.914049 3.02931 0.332797 0.102399 0.41813 3.327974 5.700223 4.053302 15.044151 2.082117 52.146798 1.553055 67.916276 0.0768 7.381276-0.691195 24.371012-5.555157 29.644572-10.05219 15.573213-13.294831 15.846278-76.867674 5.896488-93.481946-1.77492-2.961044-5.316226-3.089043-5.930621-3.822904-2.457581-2.943977-3.575439-7.594608-7.953006-10.000989-5.034628-2.764779-8.968464-1.041059-11.903908-1.911452-18.832921-5.580757-26.308064-5.495424-45.891913-7.867673-4.787163-0.580262-5.367425-4.010636-5.717289-4.044769h19.865447l-0.017067-7.944472c18.448924 3.05491 36.223721 1.382389 53.051325 12.458571 8.678333 5.708756 19.635049 19.856914 21.751299 29.866436 1.35679 6.408484 0.017067 12.748702 0.699728 19.123053 0.44373 4.172768 3.874103 8.029805 3.874103 11.997774 0 4.070369-3.626639 7.978605-3.857037 12.014841-0.520529 8.917265 1.134925 18.534257-0.725328 27.041925-0.460796 2.124784-11.016448 24.70381-11.997774 25.727801-0.554662 0.580262-12.304972 7.176478-14.003092 7.83354-28.262182 11.033515-72.455975 11.912442-101.528817 3.94237-29.064309-7.970072-44.842321-39.619961-71.483183-51.592136-4.3093-1.937052-28.466981-7.074079-32.597082-7.074079-4.070369 0-7.978605 3.626639-12.01484 3.857037-24.755009 1.442122-28.228049-1.612788-49.35642 14.139625-17.979595 13.414297-32.562949 32.102153-55.551572 39.730893-26.017933 8.627133-62.190454 6.280485-88.771582 1.032526-49.143088-9.702325-52.957458-71.961045-41.719145-111.674873 8.789266-31.061094 45.482316-33.32241 70.740788-38.433837z" fill="#4D322B" p-id="5363"></path><path d="M591.97837 192.519049l0.017067 7.944472h-19.865447c-6.442617-0.682661-13.380164 0.588795-19.848381 0-5.213826-0.477863-10.640985 0.358397-15.88041 0-59.144077-4.095968-118.885484-5.179693-178.661023-3.967969-15.632946 0.315731-32.281351-1.092258-47.641233 0-10.487386 0.81066-22.11823-2.16745-31.760822 1.902919v2.06505c-1.297057 0.179199-2.670913-0.187732-3.967969 0H258.472674l0.017067-7.944472c1.271457-0.255998 2.687979 0.230398 3.967969 0l13.47403-0.435196 2.406381-3.532773c102.00668-13.277764 212.896492-12.723102 313.648782 3.967969z" fill="#442D26" p-id="5364"></path><path d="M278.329588 188.542547l-2.406382 3.532772-13.474029 0.435197c2.414915-0.44373 7.78234-2.918378 15.880411-3.967969z" fill="#4D322B" p-id="5365"></path><path d="M536.392665 200.454988c2.525847 10.128989-3.83997 12.100173-7.978605 17.834529-7.628741 10.581252-15.684146 21.606233-23.705417 31.871755-7.83354 10.018056-22.109696 19.003587-23.901683 33.672273-32.895746-17.877196-84.940145-17.2884-114.96018 6.126887-8.012738 6.246352-14.28469 15.56468-21.939031 21.734232-28.168316 22.724092-54.416647 21.751299-89.403044 19.780114l103.226937-134.987759c59.775539-1.211724 119.508412-0.127999 178.661023 3.967969z" fill="#AFD7BC" p-id="5366"></path><path d="M357.731642 196.487019L254.504705 331.474778c-11.562578-0.657062-34.824265-2.201583-43.707397-9.890057-7.534875-6.52795-6.126886-14.438289-7.910339-21.870765l1.996785-27.784319 53.58892-67.506679c6.067153-1.100792 14.387089-3.746104 15.880411-3.96797 1.297057-0.187732 2.670913 0.179199 3.96797 0 8.985531-1.211724 25.232872-3.507173 31.760821-3.967969 15.359882-1.092258 32.008287 0.315731 47.641233 0z" fill="#E8EEEA" p-id="5367"></path><path d="M540.360635 327.506809l21.879298-3.925303c25.198739-34.764532 51.822534-68.249074 81.347639-99.301635 0.614395 0.733861 4.155701 0.86186 5.930621 3.822904 9.94979 16.614272 9.676725 80.187115-5.896488 93.481946-5.273559 4.505565-22.263295 9.369528-29.644571 10.052189-15.760945 1.476255-52.863593 2.005318-67.916277-0.076799-5.273559-0.733861-5.367425-3.950903-5.700222-4.053302z" fill="#B0D6BC" p-id="5368"></path><path d="M572.121457 200.454988c0.349864 0.034133 0.930126 3.464507 5.717289 4.044769 19.583849 2.363715 27.067525 2.286916 45.891913 7.867673-9.693792-1.732253-14.190824 3.413307-19.916647 9.855924-19.319318 21.734232-36.419986 49.33082-55.440639 71.611181-7.458076 8.738066-18.286792 15.402548-23.901682 25.727802-11.477245-8.362602-20.403043-19.361984-31.760822-27.792853 11.22978-8.848998 22.724092-22.527826 31.837621-33.672273 11.707643-14.31029 28.321915-34.372002 37.640243-49.706284 4.949295-8.140737-9.147663-0.691195-9.92419-7.935939 6.47675 0.588795 13.414297-0.674128 19.84838 0z" fill="#B3D6BD" p-id="5369"></path><path d="M623.739192 212.36743c2.935444 0.870393 6.86928-0.853327 11.903908 1.911452 4.377566 2.406381 5.495424 7.057012 7.953006 10.000989-29.525106 31.044027-56.140367 64.537103-81.34764 99.301635l-21.879298 3.925303c-3.430374-1.058125-6.903413-0.691195-10.914049-3.02931-3.037843-1.77492-3.899703-4.130101-4.966362-4.906629 5.61489-10.325254 16.435073-16.989736 23.901682-25.727802 19.020653-22.280362 36.121322-49.876949 55.44064-71.611181 5.725823-6.442617 10.222855-11.596711 19.916646-9.855924z" fill="#DCEEDF" p-id="5370"></path><path d="M552.273076 200.454988c0.776527 7.244744 14.873485-0.204798 9.92419 7.935939-9.309795 15.334282-25.9326 35.404527-37.640243 49.706284-9.122063 11.144447-20.607841 24.823275-31.837621 33.672273-3.694905-2.739179-7.867673-5.742889-11.912442-7.944472 1.783453-14.660154 16.068143-23.654218 23.901683-33.672274 8.021272-10.265521 16.076676-21.299036 23.705417-31.871754 4.130101-5.725823 10.495919-7.705541 7.978605-17.834529 5.239426 0.358397 10.666584-0.477863 15.880411 0z" fill="#DCEFDE" p-id="5371"></path><path d="M258.481208 204.431491l-53.588921 67.506679-1.996784 27.78432c-0.085333-0.341331-3.430374-0.733861-4.027703-5.725823-1.314123-10.83725-1.177591-33.015212-0.110932-44.074327 3.507173-36.291987 29.414173-40.012492 59.72434-45.490849z" fill="#B0D4C2" p-id="5372"></path><path d="M310.09041 196.487019c-6.52795 0.460796-22.775291 2.764779-31.760822 3.967969v-2.065051c9.642592-4.070369 21.273436-1.092258 31.760822-1.902918z" fill="#4D322B" p-id="5373"></path><path d="M595.929273 645.115027l3.985036 19.848381-11.903908 0.017066v-19.856913l7.918872-0.008534z" fill="#1B8BAD" p-id="5374"></path><path d="M623.696526 760.271473c3.191442 19.600916 10.606852 53.870518-3.780238 69.614397-4.155701 4.548232-20.31771 13.533762-26.069132 13.943359-6.374351 0.452263-28.885111-8.635667-32.887213-12.834035-6.399951-6.707148-17.032402-58.495549-12.663369-62.796316l75.399952-7.918872z" fill="#FAFBFB" p-id="5375"></path><path d="M838.129006 533.952151c6.749815 7.244744 13.141232 12.390304 19.84838 19.84838l-7.944472 11.912442c-0.742394-0.921593-13.474029-11.17858-14.352956-11.443112-19.182785-5.777022-30.233367 13.943359-32.767747 30.148034-0.947193 6.067153 2.286916 10.948182 3.438907 17.023869l-5.956221-3.94237-5.725823 6.237819-0.230398 5.64049c-0.102399-0.332797-3.327974-0.41813-4.053302-5.700223-2.449048-17.877196-0.358397-45.166585 13.84096-57.966487 3.268241-2.952511 18.17586-11.110314 21.981697-11.767375 0.691195-0.119466 9.55726 6.186619 11.912442 0z" fill="#5D382E" p-id="5376"></path><path d="M794.455743 609.386236c5.358892 17.177468 18.320925 33.629607 37.776775 35.839724 11.20418 1.271457 20.249444-8.976997 27.73312-0.102399 8.985531 20.454242 48.281228 68.112542 45.106852 88.464384-3.063443 19.609449-22.587559 32.153352-41.207149 34.542667-31.274426 4.010636-110.847146 3.345041-143.026097 0.230399-14.660154-1.416522-27.169924-7.927406-35.455727-20.121445-14.020159-20.624908-1.297057-39.031166 9.045263-58.231018 19.03772-35.327728 44.680189-67.566413 63.734976-103.013606l-1.211724-77.072473-14.105491-9.727925c-1.535988-3.379174 4.75303-9.915657 5.947687-9.915657h83.378557c3.814371 0 7.893272 10.905516 5.794089 15.66708-16.503339 2.303982-14.370023 15.103884-11.750309 28.006184-3.797304 0.657062-18.704922 8.823399-21.981698 11.767376-14.199357 12.799901-16.290008 40.089291-13.84096 57.966486 0.725328 5.282093 3.950903 5.367425 4.053302 5.700223z m-27.792853-103.244004v11.929508l47.649766 0.017066v-11.929508l-47.649766-0.017066z m83.02016 143.307695c-12.330572 0-25.198739-1.322656-37.52931-0.529062-7.005813 0.452263-12.475637 3.831437-19.50705 4.317833-21.742766 1.501855-40.157557-5.435691-61.34566-3.780238-12.791368 34.610933-73.206902 85.059611-14.259091 106.827977 47.444968-3.293841 100.351226 4.403166 147.0538 0.170665 12.48417-1.134925 26.862726-9.881524 29.175242-22.715558 3.677838-20.377443-36.69305-63.837375-43.596464-84.283084z" fill="#CFE6E7" p-id="5377"></path><path d="M850.041448 565.712973c7.850606 9.762058 9.642592 25.46327 7.927405 37.717042-1.459189 10.41912-13.858027 27.68192-25.181672 25.386471-4.300767-3.908237-14.617487-5.521024-17.723597-8.482068-1.049592-0.998392-0.238931-4.607964-1.766386-6.00742-1.715187-1.570121-5.265026-0.503463-6.365818-1.399456-1.954118-1.604254 0.042666-8.234603-0.571729-11.477245-1.151991-6.075686-4.3861-10.956716-3.438907-17.023869 2.525847-16.213208 13.584962-35.925056 32.767748-30.148034 0.878927 0.264531 13.610562 10.521519 14.352956 11.443112z" fill="#F4BF7C" p-id="5378"></path><path d="M738.870038 573.657445l-1.791986 16.068143-29.960303 47.444967c0.964259-19.87398-3.208509-40.473288 4.258101-59.263543l27.485655-4.249567z" fill="#F2F3EF" p-id="5379"></path><path d="M849.68305 649.449927c6.903413 20.445709 47.274302 63.897107 43.596464 84.283084-2.321049 12.834034-16.691071 21.589167-29.175241 22.715558-46.702573 4.232501-99.608832-3.455973-147.0538-0.170665-58.947812-21.759832 1.467722-72.217043 14.25909-106.827977 21.17957-1.655454 39.602895 5.282093 61.34566 3.780238 7.031412-0.486396 12.501237-3.86557 19.50705-4.317834 12.330572-0.793594 25.207272 0.537596 37.529311 0.529063z m-24.865941 23.628618c0-6.50235-5.273559-11.775909-11.77591-11.775909s-11.775909 5.273559-11.775909 11.775909 5.273559 11.775909 11.775909 11.775909 11.775909-5.273559 11.77591-11.775909z m-55.287041 20.206778c0-6.314618-5.119961-11.434579-11.434578-11.434579s-11.434579 5.119961-11.434579 11.434579 5.119961 11.434579 11.434579 11.434578 11.434579-5.119961 11.434578-11.434578z m88.763049 21.273436c0-5.66609-4.590898-10.256988-10.256987-10.256988s-10.256988 4.590898-10.256988 10.256988 4.590898 10.256988 10.256988 10.256987 10.256988-4.590898 10.256987-10.256987z m-139.271459 13.934826l19.831313-9.924191-9.92419-9.915657-9.907123 19.839848z m85.622806-5.205294c0-6.05862-4.915162-10.973782-10.973782-10.973782s-10.973782 4.915162-10.973782 10.973782 4.915162 10.973782 10.973782 10.973782 10.973782-4.915162 10.973782-10.973782z" fill="#83B854" p-id="5380"></path><path d="M766.645824 518.063207l0.00512-11.929508 47.658299 0.017066-0.004267 11.929508z" fill="#4B352E" p-id="5381"></path><path d="M813.041199 673.078545m-11.775909 0a11.775909 11.775909 0 1 0 23.551819 0 11.775909 11.775909 0 1 0-23.551819 0Z" fill="#C7E0BC" p-id="5382"></path><path d="M758.09549 693.285323m-11.434579 0a11.434579 11.434579 0 1 0 22.869157 0 11.434579 11.434579 0 1 0-22.869157 0Z" fill="#BCDBA2" p-id="5383"></path><path d="M793.670682 723.288291m-10.973782 0a10.973782 10.973782 0 1 0 21.947564 0 10.973782 10.973782 0 1 0-21.947564 0Z" fill="#C9E6B0" p-id="5384"></path><path d="M848.03613 714.558759m-10.256988 0a10.256988 10.256988 0 1 0 20.513975 0 10.256988 10.256988 0 1 0-20.513975 0Z" fill="#D0E3C1" p-id="5385"></path><path d="M719.021658 728.493585l9.907123-19.848381 9.92419 9.92419-19.831313 9.924191z" fill="#C9E1AF" p-id="5386"></path></svg>