<?xml version="1.0" standalone="no"?><!DOCTYPE svg PUBLIC "-//W3C//DTD SVG 1.1//EN" "http://www.w3.org/Graphics/SVG/1.1/DTD/svg11.dtd"><svg t="1784020614653" class="icon" viewBox="0 0 1024 1024" version="1.1" xmlns="http://www.w3.org/2000/svg" p-id="130601" xmlns:xlink="http://www.w3.org/1999/xlink" width="200" height="200"><path d="M914.58048 929.38752l-64.0512-66.07872c22.18496-29.07136 35.52768-65.28512 35.52768-104.68352 0-95.44704-77.36832-172.81024-172.81024-172.81024-95.44704 0-172.82048 77.35296-172.82048 172.81024s77.36832 172.8 172.81024 172.81536c39.39328 0 75.6224-13.34784 104.65792-35.5584l64.05632 66.06848a23.00928 23.00928 0 0 0 32.57856 0 22.99904 22.99904 0 0 0 0.0512-32.5632z m-201.33888-44.04736c-70.00576 0-126.70976-56.71936-126.70976-126.71488 0-70.00064 56.71936-126.72512 126.70976-126.72512 70.01088 0 126.72 56.72448 126.72 126.72512 0.02048 69.99552-56.70912 126.71488-126.72 126.71488zM507.42784 494.59712c119.80288 0 214.52288-99.84 214.52288-214.528 0-119.808-94.72-214.528-214.52288-214.528-119.808 0-214.528 94.72-214.528 214.528s94.72 214.528 214.528 214.528z" fill="#FCB929" p-id="130602"></path><path d="M638.29504 542.63808l-220.4672-8.12032c-144.38912 0-229.38112 109.568-229.38112 109.568-79.872 89.6-74.752 214.528-74.752 214.528 0 84.48 129.536 89.6 129.536 89.6 45.056 5.12 169.47712 5.12 234.496 5.12 40.11008 0 68.84352-5.0432 86.29248-13.81888-44.16512-44.29824-71.4752-105.4208-71.4752-172.91776 0.00512-99.95264 59.904-185.86624 145.75104-223.95904z" fill="#FCB929" p-id="130603"></path></svg>