<?xml version="1.0" standalone="no"?><!DOCTYPE svg PUBLIC "-//W3C//DTD SVG 1.1//EN" "http://www.w3.org/Graphics/SVG/1.1/DTD/svg11.dtd"><svg t="1784019515488" class="icon" viewBox="0 0 1024 1024" version="1.1" xmlns="http://www.w3.org/2000/svg" p-id="21910" xmlns:xlink="http://www.w3.org/1999/xlink" width="200" height="200"><path d="M819.87001271 967.82320748H121.50979555V38.78306755h698.36239084v929.04013993z m-676.6680677-21.69649675h654.9737446V60.47739067H143.20194501v885.64932006z" fill="#231915" p-id="21911"></path><path d="M768.69550096 906.48858665H172.74518597v-214.17762818h595.95031499v214.17762818z m-585.07271504-10.87977543H757.81572553v-192.41807734H183.62278592v192.41807734z" fill="#231915" p-id="21912"></path><path d="M508.02879571 122.14901494l253.56571671 443.47257591c16.0544075 37.98137149 3.93750358 60.59321427-36.97253649 65.57434211l-507.19231208-0.06305228c-40.54042275-4.91807557-53.94881104-26.79503279-37.70959397-65.08296932l253.62659538-443.40952356c24.48601526-33.0632959 49.95260249-33.80035514 74.68213045-0.49137286z" fill="#040404" p-id="21913"></path><path d="M470.81274644 175.30858634l112.32650027 198.26019541 112.32649846 198.19714305H246.09669719l112.32649848-198.19714305z" fill="#FFE000" p-id="21914"></path><path d="M291.00294585 758.03966995c1.78285718-0.36961737 4.73761513-1.47411849 8.73599734-3.38090479-1.29148434-7.86413706-3.07651519-15.17602447-5.53555297-21.87913268-1.84590949 0-7.62714886 1.4784658-17.46982103 4.48758138 0 0.36961737 0.30873871 1.29148434 0.92186702 2.824306a168.37560183 168.37560183 0 0 1 5.04418016 17.94597644h-24.79040663l1.35453666-1.65675259c-8.85775461-10.87977542-15.01078501-17.45677725-18.33298662-19.67012863-5.53555298 6.3943677-9.22737017 11.24939098-11.07327964 14.56506982 0 0.43266964 0.80011152 1.16755343 2.3372823 2.27640368 5.47467435 4.48540594 10.88847186 10.14054076 16.05658115 16.90017845 0.61530374-0.79793786 1.53717077-1.90678633 2.76777653-3.38090657 1.84590949-2.64602102 3.38308026-4.73544145 4.61368596-6.20738448v12.35389211h25.2209008v24.21423954h-22.94449714v15.18037354h22.94449714v30.91082318h-31.18912165v15.73262326h76.2171258v-15.73262326h-29.40409082v-30.91082318h23.43804365v-15.18037354h-23.43804365V773.22004354h26.63631431v-15.18037359h-32.11098867z m-69.8205862 25.87316579c0 0.36961737 0.61530374 0.98491931 1.78503263 1.7198031 4.92024922 3.38090479 10.45797766 8.60337175 16.54795399 15.73262502 3.38308026-5.22246517 6.58135093-10.32317486 9.65786612-15.17602444a110.7110562 110.7110562 0 0 0-18.39386524-18.00902873c-3.3222016 4.11796402-6.58135093 9.40130783-9.5969875 15.73262505z m3.19827245 67.48112845a70.81420195 70.81420195 0 0 0 13.28663103 11.79729331c0.61530374 0 2.03071727-3.93315626 4.18318999-11.79729331 1.84590949-7.12925328 5.65948394-19.85276275 11.44289699-38.22705788-5.16593566-2.6416719-9.47305657-5.5920825-12.85613682-8.97298909-7.01401878 25.87316577-11.93426981 40.62304338-14.70204629 44.37139184-0.92186703 1.53717077-1.35453666 2.45903779-1.3545349 2.82865513z m136.81034008-107.36493892v13.45621955h25.28177945c-3.38308026 1.90678633-5.04418016 3.01128926-5.04418015 3.38090482s0.30873871 0.92186703 0.92186699 1.71980489c0.61530374 1.4784658 1.23060572 2.76342739 1.84590947 3.93315628h-30.32595959v12.91049266h105.62121838v-12.91049266h-28.48222379c0.61530374-0.79793786 1.41541353-1.90243901 2.33728232-3.38090483 0.92186703-1.53282166 1.35453666-2.6416719 1.35453485-3.37655747 0-0.36961737-0.80011152-0.7392329-2.27640366-1.16755343a16.77189841 16.77189841 0 0 1-2.33728052-1.10885026h22.08350697v-13.45621955h-37.21604748c0-1.53717077-0.12393094-3.19827068-0.49354828-5.10505882 0-3.38090479-0.12393094-5.22246517-0.43049417-5.59208249-0.30656505-0.36526821-3.19827068-0.36526821-8.73599734 0-5.8442917 0.36961737-9.04256238 0.7392329-9.65786614 1.10885025-0.30873871 0.36961737-0.12393094 1.29148434 0.4935465 2.82865511 0.92186703 2.21335137 1.53717077 4.48540594 1.84590948 6.75963595h-36.78555329z m39.49245113 22.49008554c-0.86099018-3.01128926-1.78285718-6.02257669-2.70689784-9.03169232h19.25267817c-0.61530374 2.27640367-1.53717077 5.28769292-2.7677765 9.03169232h-13.77800383z m8.30550492 59.0016876c-2.15247274 1.53717077-4.30494726 2.82865513-6.45959544 3.93315626 2.15247274-1.10450113 1.72197854-0.92186703-1.35453665 0.61530376a319.20311116 319.20311116 0 0 1 6.89008963 15.73262322c0.92186703-0.36961737 2.27640367-0.98491931 4.12231316-1.72415396 3.69181717-1.84373404 6.45959366-3.38090479 8.3033295-4.48540593-0.30656505-1.47411849-1.59804762-5.22246517-3.6896453-11.24504367-0.30873871-1.4784658-0.61530374-2.4003346-0.92186701-2.82865333h27.98867731v-42.16021416h-73.94072214v42.16021416h39.06195694z m-24.7904066-30.91517048h44.5366313v4.4875796H384.19852163v-4.4875796z m0 19.66577949v-5.03548373h44.5366313v5.03548373H384.19852163z m-15.62391332 46.70649873c0.92186703-2.27205455 2.27640367-5.03548372 4.12231313-8.47944084a743.28168501 743.28168501 0 0 0 7.81195667-16.83712615c-3.07651519-2.27640367-7.69020121-4.30277181-13.78017927-6.20738449-2.76777648 7.49886886-6.76615872 15.73262325-11.93426803 24.76648919 2.09159588 1.10667658 6.7052801 3.37873116 13.7801775 6.75746229z m92.33458737-11.24504365c-6.15303043-9.77092517-11.81033886-17.63941137-17.03932862-23.59893578-2.09159588 2.57861962-5.47467435 5.77471662-10.08836031 9.52523877 4.92242467 6.75963593 10.08836033 14.81292988 15.62608876 24.21423951 6.3943677-6.02040304 10.27099444-9.40130783 11.50160017-10.1405425z m-44.10831255 14.07369876c8.24245085 0 13.59536974-1.35018754 16.05440926-3.93315626 3.07651519-2.27640367 5.04418016-7.68150295 5.96822088-16.35010065-4.55280736-1.47411849-9.16649332-3.75052214-13.78017754-6.75963773-0.92186703 5.65730848-1.84590949 9.03603962-2.76777647 10.14054254-0.92186703 1.10885024-2.89170741 1.6610999-5.96822262 1.6610999h-13.77800385c-2.70689787 0-4.24406863-1.6610999-4.55280732-5.03983105v-3.93315625c0-0.7392329 0.12393094-1.84373404 0.43049416-3.38090482 0.30873871-1.47411849 0.4935465-2.6416719 0.4935483-3.38090481 0.55442511-1.84373404-1.72197854-2.76342739-6.95096828-2.76342915h-8.67294504v19.66577952c-0.30873871 9.70787291 3.81357443 14.44331435 12.36476398 14.07369876h21.15946454z m75.29526057-114.7398786v30.36292081h15.13254047v-14.63029757h63.42186761v15.18037358h16.05658298V749.0645072h-37.70959576c-0.30873871-7.49452153-0.55442511-12.90614357-0.92404067-16.28487472-6.08997812 0.7392329-6.58135093 0.7392329-1.352363 0-7.62932254 0.7392329-13.47144058 1.10885024-17.46982102 1.10885026 1.53717077 6.02257669 2.46121143 11.06240955 2.76777472 15.17602446h-39.92294533z m-4.18101635 41.055713v15.73262323h27.12768715c-1.53717077 3.75052214-4.42887642 9.21867372-8.73599733 16.34575337-1.22843205 1.4784658-1.84590949 2.4003346-1.8459095 2.76777469 11.01022735 4.48540594 19.62229554 8.23375442 25.71444733 11.24504368-8.85775461 6.39002037-21.71606509 10.32317486-38.57058413 11.80164242 3.68964351 5.65296114 6.58135093 11.42767779 8.73599732 17.45242813 19.3157305-3.01128926 35.06357474-9.95790661 47.30658326-20.83333293 12.54739811 6.39002037 22.32919341 13.52144733 29.40191716 21.38558438 0.92404246-1.10450113 2.76777648-3.93315626 5.53772664-8.42073762 3.93750358-5.2833438 6.08997812-8.23375442 6.39654315-9.03169049-9.78179527-6.3313154-19.74622647-12.17125798-29.83676045-17.39372496 3.93967904-5.22246517 7.50539159-13.70408144 10.52102818-25.31874067h22.08350877v-15.73262323h-52.3507634c0.92404246-3.01128926 2.58296873-6.75963593 5.04418016-11.24939277 0.30873871-0.36526821 0.7392329-0.92186703 1.35236296-1.65675079 0.61530374-1.16755343 1.10885024-2.08942045 1.35453491-2.82865514 0.30873871-0.79793786-4.85937238-2.82865513-15.5630347-6.20738627-1.23060572 0-2.15247274-0.18263411-2.76777649-0.55224967-2.15247274 9.40130783-4.61368597 16.83712617-7.3814607 22.49443464h-33.52423029z m63.41969396 15.73262323c-1.53717077 7.12490418-4.18318999 13.33446411-7.81413033 18.55692928a423.36325662 423.36325662 0 0 0-16.54578031-7.86413707l5.47684802-10.69279221h18.88306262z m152.86692301-11.80164243c5.8442917 4.1201377 10.14923895 6.75963593 12.8561368 7.86413707 3.07434156-7.12490418 6.15085674-13.33446411 9.22737018-18.55692924-20.85507492-7.49886886-36.17242498-20.58764653-45.95422027-39.33155902 0.30873871-0.43266964 0.80011152-0.92186703 1.4154135-1.72415402 0.86099018-1.10450113 1.35236121-2.08942045 1.35236299-2.82430601 0-0.31091237-6.58135093-2.58296873-19.74622646-6.70093276-5.8442917 22.12481729-21.28339543 40.81002659-46.38254078 56.23173748 3.3852539 3.75052214 6.7052801 8.23810352 10.09053577 13.46056872 4.30494726-2.58296873 8.24245085-5.5920825 11.93209436-8.97298734v6.14433397h24.35991065v14.07369699H633.9506639v15.1803736h29.40191716v16.28487467h-39.06195694v15.24125048h94.61099102v-15.24125048h-39.00107831v-16.28487467h29.83458504v-15.1803736h-29.83458504v-14.07369699h24.29903201v-5.58990885z m-53.27263043-10.14054072c8.30332948-7.86413706 15.19341913-16.46750883 20.66809347-25.87316579 7.07489742 11.24939098 13.96498706 19.91146593 20.67026714 25.87316579h-41.33836061z" fill="#231915" p-id="21915"></path><path d="M470.74969415 487.81511387l1.53934623 0.18480776 1.5980476 0.24568642 1.59804941 0.24568638 0.67835427 0.18480782h0.67835607l0.921867 0.2456864 0.67835427 0.24568641 0.67835603 0.24568642 0.67618063 0.1826341 0.67835606 0.24568644 0.73923286 0.2456864 0.67618061 0.18480775 0.67835606 0.24568642 0.67835426 0.24568643 0.67618239 0.43049419 0.43049421 0.24568641 0.67835427 0.18480955 0.67835604 0.49137284 0.49137282 0.18263411 0.67835427 0.4935465 0.43049598 0.24568641 0.67835427 0.43049418 0.49137282 0.4304942 0.43049598 0.24568641 0.43049417 0.43049598 0.7392329 0.49137281 0.43049421 0.43049421 0.42832053 0.49137282 0.49354826 0.43049419 0.43049419 0.43049416 0.49354648 0.49137285 0.42832052 0.43049599 0.4304942 0.49354646 0.24568642 0.4304942 0.430496 0.6761806 0.49354649 0.43049596 0.43049415 0.49137287 0.24351276 0.67618059 0.43049421 0.43049418 0.24568641 0.6761806 0.43049416 0.67618241 0.24568641 0.49137281 0.24568644 0.67618061 0.43049419 0.67618061 0.24351275 0.67618058 0.18480779 0.43049599 0.24568639 0.73705923 0.24568642 0.67835429 0.24568641 0.67618058 0.18480957 0.92186879 0.24568643 0.67835427 0.24568639 0.6761806 0.18480775 0.67835607v0.6761806l0.24351277 0.86099016 0.24568642 0.73705924v0.92404069l0.18480778 1.53282166 0.24568642 1.60022307-0.24568642 1.59587391-0.18480778 1.59587398-0.24568642 1.59587575-0.24351277 0.68052792v0.9218688l-0.18480775 0.67618059-0.24568639 0.67618063-0.24568643 0.6761806-0.18480957 0.68052971-0.24568641 0.67618061-0.24568642 0.67618237-0.24568639 0.67618062-0.18480779 0.67618057-0.49137283 0.68052973-0.18480778 0.67618061-0.24568642 0.49354824-0.4304942 0.67618062-0.24568641 0.67618062-0.2456864 0.42832052-0.43049596 0.7392329-0.49137282 0.42832054-0.1848078 0.67618061-0.49354649 0.43266962-0.43049417 0.48919917-0.24568643 0.43266784-0.43049597 0.67618241-0.42832052 0.4935465-0.49354649 0.42832049-0.4304942 0.42832053-0.50224471 0.46963085-0.42832054 0.42832053-0.43049416 0.49354649-0.4935465 0.43266785-0.67835606 0.24133907-0.43049419 0.43266786-0.49137282 0.42832055-0.67835427 0.24568639-0.43049598 0.4935465-0.67835426 0.18263412-0.49137284 0.49354827-0.67835604 0.18263411-0.67835425 0.4935465-0.43049601 0.18263409-0.67618059 0.24568642-0.67835425 0.24568641-0.67835607 0.43266965-0.67618061 0.24133731-0.73923287 0.18698143-0.67835607 0.24568642-0.67618061 0.24568641h-0.67835603l-0.67835428 0.2456864-0.67618238 0.18263414-0.92404068 0.24568638h-0.67835606l-0.921867 0.24568643-0.67835429 0.18263412h-0.92404244l-0.6761806 0.2456864h-3.38525394l-1.60022304-0.2456864-0.67618062-0.18263412-0.92186701-0.24568643h-0.67835605l-0.67618059-0.24568638-0.92186706-0.18263414h-0.67835602l-0.6761806-0.2456864-0.67835604-0.24568641-0.67618062-0.24568642-0.67618061-0.18698143-0.67835605-0.24133731-0.67618059-0.24568643-0.67835607-0.43266963-0.67618058-0.24568642-0.49137285-0.18263409-0.67835425-0.4935465-0.6761806-0.18263411-0.43049597-0.24568641-0.6761806-0.42832052-0.4935465-0.24568643-0.67618239-0.49354647-0.43049418-0.42832054-0.49137282-0.24568642-0.4304942-0.42832052-0.67618061-0.43266965-0.43049598-0.49354649-0.4674554-0.43049418-0.4304942-0.49354828-0.49354825-0.42832052-0.43049417-0.42832051-0.43049421-0.49354651-0.24568641-0.42832052-0.49137282-0.68052971-0.43049417-0.48919736-0.43049601-0.43266967-0.2456864-0.67618059-0.4304942-0.42832055-0.2456864-0.73923287-0.49137285-0.42832054-0.18480777-0.67618237-0.49354648-0.43266788-0.18263411-0.73488559-0.24568642-0.67618059-0.24568641-0.68052971-0.18480957-0.6761806-0.2456864-0.67618061-0.4935465-0.67618238-0.18480775-0.67618061v-0.68052971l-0.24568643-0.6761806-0.2456864-0.6761806-0.18480779-0.67618059-0.24568642-0.92186881v-0.68052973l-0.24568641-0.6761806-0.18480956-0.92186702-0.24568641-1.59587393v-3.19609702l0.24568641-1.77850808 0.18480956-0.67835607 0.24568641-0.73705921v-0.8609884l0.24568642-0.67618238 0.18480779-0.67835427 0.2456864-0.92186703 0.24568643-0.67618236V507.77006374l0.18480775-0.67618059 0.4935465-0.67835605 0.2456864-0.73705924 0.18480957-0.67618061 0.24568641-0.43049417 0.24568642-0.6761824 0.18263411-0.67618061 0.49354648-0.67618059 0.18480777-0.49137284 0.49137285-0.6761806 0.2456864-0.43049597 0.4304942-0.6761806 0.2456864-0.49137281 0.43049601-0.67618062 0.43049417-0.43049419 0.49137282-0.43049597 0.24568641-0.49354649 0.43049421-0.43049422 0.43049417-0.67618057 0.49354825-0.49137283 0.4304942-0.43049597 0.49137282-0.24568464 0.43049421-0.43049597 0.67618061-0.4913728 0.43049596-0.43049422 0.49137285-0.43049421 0.67835426-0.24568638 0.4304942-0.43049421 0.49354825-0.49137282 0.67618062-0.24568641 0.67835427-0.18263415 0.43049596-0.4913728 0.67835426-0.18480955 0.67618239-0.49137283 0.49137283-0.18480777 0.67835427-0.24568642 0.67618061-0.24568641 0.67835603-0.18480778 0.67618062-0.24568642 0.6761806-0.2456864 0.67835605-0.18263412 0.67618059-0.2456864 0.67835605-0.24568643 0.92186702-0.24568643h0.67618062l0.67835605-0.18480776 0.92186702-0.2456864h0.67618061l1.60022307-0.24568643 1.83721123-0.16306577z m-29.3410385-199.85607111l0.24568642-1.35236122v-1.10667661l0.18480776-1.1675534v-1.10667478l0.2456864-0.9218688 0.43049599-1.10667483 0.24568643-0.92186701 0.2456864-0.9218688 0.43049417-0.92186702 0.49137281-0.86098836 0.43049422-0.92186879 0.43049421-0.92186702 0.49354824-0.67618061 0.67618061-0.92186702 0.43049421-0.67618058 0.67618059-0.67618241 0.67835605-0.67618059 0.73705923-0.67618061 0.67618062-0.67618061 0.86099016-0.49137284 0.73705924-0.67618239 0.86098839-0.43049417 0.92186701-0.67618061 0.67835606-0.49137283 0.92186701-0.43049419 1.10667657-0.43049596 0.92186701-0.49137283 0.92186701-0.43049418 1.10667658-0.49137282 0.92404069-0.18480779 1.16755343-0.49137281 1.10667657-0.43049421h1.84590948l2.03071726-0.24568642h2.03071723l1.84590772-0.18263408h3.81357441l0.92404247 0.18263408h2.52426378l0.92186701 0.24568642h0.92404245l0.86098838 0.24568641h0.67618238l0.92404069 0.1848078 0.92404246 0.24568639 0.67618062 0.24568642 0.92404066 0.18480779 0.6761824 0.24568638 0.67835426 0.24568644 0.67835605 0.24568641 0.92186702 0.18480777 0.67835605 0.49137283 0.67835425 0.18480956 0.67835604 0.2456864 0.67618062 0.43049419 0.67835425 0.49137283 0.4935483 0.4304942 0.67618062 0.24568641 0.67835603 0.43049417 0.43049419 0.67618239 0.67835427 0.49137284 0.49137283 0.43049418 0.43049597 0.67618061 0.67835428 0.49137283 0.43049417 0.67618058 0.49137283 0.67618062 0.43049597 0.43049598 0.4935465 0.67618061 0.18480776 0.67618061 0.49354649 0.92186701 0.43049597 0.67618241 0.24351098 0.92186699 0.43049599 0.67618061 0.2456864 0.92186699 0.24568641 0.92186882 0.18480778 0.86098839 0.24568643 0.92186702 0.2456864 0.9218688 0.18480777 1.10667478 0.24351276 0.92186702v1.16755522l0.2456864 1.10667478v2.27423l0.18480779 1.16755342v2.45903779l-7.93371215 97.16134591-3.62876666 48.36759862v0.67618238l-0.2456864 0.49137284-0.18480781 0.67618057v0.67618061l-0.2456864 0.67618062-0.2456864 0.43049598v1.41323984l-0.18480776 1.35236121v1.35236298l-0.24568644 1.1066748v9.58829104l-0.24568642 1.35236123v1.10667658l-0.2456864 1.35236299v0.67618059l-0.18480777 0.73705925v0.43049419l-0.24351275 0.6761806-0.24568641 0.6761806v0.67618243l-0.1848078 0.4913728-0.2456864 0.67618059-0.24568641 0.43049421-0.43049599 0.67618057-0.24568641 0.67618239-0.18480776 0.49137284-0.49137285 0.43049419-0.18480776 0.6761806-0.4935465 0.49137282-0.43049597 0.61530376-0.49354646 0.49137283-0.42832054 0.43049421-0.43049421 0.49137281-0.49354649 0.43049418-0.67835603 0.49137283-0.43049421 0.43049417-0.67618058 0.43049598-0.67835607 0.49137285-0.7392329 0.43049418-0.67618237 0.43049419-0.86098841 0.49137283-0.73923288 0.18480779-0.86099018 0.49137282-0.92404066 0.24568643h-2.27423003l-0.92404247-0.24568643h-0.921867l-1.10667479-0.24568644-0.9218688-0.24568638-0.67618061-0.18480779-0.921867-0.24568642-0.67835607-0.24568641-0.92186701-0.18263411-0.67618061-0.4935465-0.67835604-0.18263411-0.67618059-0.49137283-0.43049421-0.18480778-0.67618059-0.49137282-0.49354827-0.43049597-0.4304942-0.24568641-0.67835427-0.43049421-0.49137283-0.49137282-0.18480955-0.67618057-0.49354649-0.43049421-0.43049419-0.43049597-0.2456864-0.49137284-0.4304942-0.67618061-0.24568642-0.43049419-0.18480957-0.49137283-0.2456864-0.6761806-0.24568642-0.67618235-0.24568642-0.43049421-0.18263409-0.67618062-0.24568642-0.6761806v-0.49137281l-0.24568641-0.67618062-0.1848078-0.67618238v-1.35236119l-0.24568639-1.352363-0.24568642-1.41323984v-1.3523612l-0.1848078-1.352363v-2.7047242l-0.24568639-2.94823695v-2.76560105l-0.24568641-1.35236299-0.1848078-1.35236121v-0.6761806l-0.24568637-0.43049597v-0.73705924l-0.24568643-0.6761806-11.82773353-154.63021185z" fill="#231915" p-id="21916"></path></svg>