<?xml version="1.0" standalone="no"?><!DOCTYPE svg PUBLIC "-//W3C//DTD SVG 1.1//EN" "http://www.w3.org/Graphics/SVG/1.1/DTD/svg11.dtd"><svg t="1784020289388" class="icon" viewBox="0 0 1024 1024" version="1.1" xmlns="http://www.w3.org/2000/svg" p-id="103748" xmlns:xlink="http://www.w3.org/1999/xlink" width="200" height="200"><path d="M1015.062 508.17C1015.062 227.272 787.791 0 506.892 0 228.55 0 1.278 227.272 1.278 508.17s227.272 508.17 508.17 508.17c66.393 0 130.234-12.769 191.52-38.305 76.61-30.643 145.557-81.716 199.183-148.11 71.5-86.823 114.912-199.182 114.912-321.755zM677.985 939.73c-56.18 17.876-109.805 30.644-168.539 30.644-255.361 0-462.204-206.843-462.204-462.204S254.085 45.965 509.446 45.965 971.651 252.808 971.651 508.17c0 112.359-40.858 217.057-109.806 298.773-48.518 58.733-112.359 104.698-183.86 132.788z" fill="#FA4D23" p-id="103749"></path><path d="M499.232 699.69s-183.86 2.554-286.005-91.93l-7.66 130.235s607.76 219.611 612.867-132.788c0 0 12.768-84.27-206.843-143.003 0 0-86.823-20.428-183.86-76.608 0 0-53.626-61.287 99.59-48.519 181.307 15.322 275.791 61.287 275.791 61.287V283.451s-413.686-155.77-574.563 22.983c0 0-53.626 81.716 2.553 132.788s168.539 114.913 316.649 153.217c0-2.554 191.52 86.823-48.52 107.252z" fill="#FA4D23" p-id="103750"></path></svg>