<?xml version="1.0" standalone="no"?><!DOCTYPE svg PUBLIC "-//W3C//DTD SVG 1.1//EN" "http://www.w3.org/Graphics/SVG/1.1/DTD/svg11.dtd"><svg t="1784020505774" class="icon" viewBox="0 0 1024 1024" version="1.1" xmlns="http://www.w3.org/2000/svg" p-id="119287" xmlns:xlink="http://www.w3.org/1999/xlink" width="200" height="200"><path d="M625.90630451 645.22282139m-1041.32410222 0a1041.32410222 1041.32410222 0 1 0 2082.64820444 0 1041.32410222 1041.32410222 0 1 0-2082.64820444 0Z" fill="#ff7b00" p-id="119288"></path><path d="M495.74079172 515.0573086m-780.99307669 0a780.99307667 780.99307667 0 1 0 1561.98615336 0 780.99307667 780.99307667 0 1 0-1561.98615336 0Z" fill="#ffffff" p-id="119289"></path><path d="M615.75339451 181.96376142c-24.47111639 103.7419137-54.92984638 184.57469713-91.50635548 242.62851582h-118.97127867v41.13230201h187.56850391v128.0828646h-36.57650909c6.11777907 103.7419137 33.5827023 192.25446237 82.39476957 265.53764606v50.24388795c121.96508546-67.03523908 208.915648-175.33294572 260.85168763-324.89311993h178.3267525c-57.92365316 234.94875056-211.90945481 387.50273155-462.08757037 457.66194293v-86.9505625c-128.21303008-61.04762551-195.24826918-181.58089033-201.36604828-361.59979451h-9.11158587v439.30860562H226.81884233V593.80744385h-13.79754434C210.02749119 783.19826493 130.62652838 915.70675693-24.92125936 992.11391293v-114.54565123c57.92365316-70.15921138 89.94436934-164.65937366 96.06214841-283.76081785h-64.04143229v-128.0828646h219.71938557v-59.48563932h169.21516665c33.5827023-64.0414323 54.92984638-138.75643662 64.17159777-224.27517851h155.54778776z m-608.65393775-150.99199485h370.71138039A599.67251739 599.67251739 0 0 0 606.64180862-5.6047425v137.32461596c-64.1715978 18.22317178-134.33080919 27.33475769-210.60779964 27.33475768H7.09945676v-128.08286457zM615.75339451 685.57413035v-118.9712787c131.20683689-61.177791 218.1573994-158.8019256 260.85168761-292.87240376h183.01271095c-61.04762551 216.59541326-208.915648 353.78986373-443.86439856 411.84368246z m0-311.22574105v-118.97127871c106.73572048-45.8182605 178.45691802-128.08286458 215.03342711-247.18430876h192.25446238C952.62174158 215.67662921 817.11944277 337.64171469 615.4930635 374.21822377zM2.41349831 181.96376142h137.32461595c36.44634357 88.5125487 57.92365316 169.34533213 64.0414323 242.62851582h-150.99199481A1147.7994917 1147.7994917 0 0 0 2.41349831 181.83359588z m196.81025533-2e-8h137.19445044c30.58889552 64.1715978 48.81206729 129.64485072 54.92984641 196.8102553H240.61638668c-2.99380681-48.81206729-16.79135115-114.41548573-41.13230204-196.81025528z" fill="#ff7b00" p-id="119290"></path><path d="M1451.80648308 90.84790247c-20.56615103 65.21292191 36.05584705 407.15772398 165.83086327 464.69088059 14.31820641-172.98996649-90.7253624-416.52964091-165.83086327-464.69088059zM733.29285257 1624.71830503c62.47944614-135.7626298 496.97192778-329.96957488 598.24069672-319.8166649-72.89268715 184.05403508-427.33337845 346.63076051-598.24069672 319.8166649zM-212.3595978 1194.52128529c12.23555821 56.75216357 158.8019256 227.39915081 240.54586762 266.7091357 0-108.16754111-120.53326484-251.6099362-240.67603312-266.83930121z" fill="#FFFFFF" p-id="119291"></path></svg>