<?xml version="1.0" standalone="no"?><!DOCTYPE svg PUBLIC "-//W3C//DTD SVG 1.1//EN" "http://www.w3.org/Graphics/SVG/1.1/DTD/svg11.dtd"><svg t="1784019505085" class="icon" viewBox="0 0 1024 1024" version="1.1" xmlns="http://www.w3.org/2000/svg" p-id="21586" xmlns:xlink="http://www.w3.org/1999/xlink" width="200" height="200"><path d="M851.917312 700.416C584.192512 624.128 464.384512 407.7056 492.493312 51.2c235.008 73.3696 370.8928 117.0432 407.7568 130.9696v431.2064l-48.3328 87.04z" fill="#20C997" p-id="21587"></path><path d="M668.826112 820.9408a51.2 51.2 0 1 1 58.5728 83.968c-58.368 40.7552-125.696 76.6464-201.9328 107.7248a51.2 51.2 0 0 1-40.3456-0.7168c-166.144-74.8032-294.7584-176.6912-384.9216-305.664A275.456 275.456 0 0 1 51.200512 548.7616V202.9056c0-37.2736 23.1424-71.0144 58.5728-82.5856L452.608512 8.5504a172.1856 172.1856 0 0 1 107.008 0l342.8864 111.7696c35.3792 11.5712 58.5728 45.312 58.5728 82.5856v338.5856c0 57.1904-17.4592 112.9472-49.8688 158.72l-5.9392 8.3968a51.2 51.2 0 1 1-82.7392-60.3136l5.12-7.168a172.9536 172.9536 0 0 0 31.0272-99.6352V213.76L527.872512 105.8816a69.7856 69.7856 0 0 0-43.52 0L153.600512 213.76v334.9504c0 35.84 10.752 70.656 30.5152 98.9184 75.5712 108.032 182.9376 195.2256 323.0208 261.632 60.9792-26.2144 114.8928-55.7056 161.6896-88.32zM432.128512 416.0512l-28.9792 84.992a51.2 51.2 0 0 1-48.4864 34.6624H256.000512a51.2 51.2 0 1 1 0-102.4h62.0544l66.1504-193.8432c15.872-46.3872 81.5104-46.1824 97.024 0.3072l98.56 295.1168 26.3168-63.488a51.2 51.2 0 0 1 47.3088-31.6416h96.0512a51.2 51.2 0 1 1 0 102.4H687.616512l-65.6896 158.464c-18.176 43.776-80.896 41.5232-95.8976-3.3792L432.128512 416.0512z" fill="#2C6DD2" p-id="21588"></path></svg>