<?xml version="1.0" standalone="no"?><!DOCTYPE svg PUBLIC "-//W3C//DTD SVG 1.1//EN" "http://www.w3.org/Graphics/SVG/1.1/DTD/svg11.dtd"><svg t="1784019869897" class="icon" viewBox="0 0 1024 1024" version="1.1" xmlns="http://www.w3.org/2000/svg" p-id="62816" xmlns:xlink="http://www.w3.org/1999/xlink" width="200" height="200"><path d="M177 85.4h677.5c46.8 0 84.7 37.9 84.7 84.7v677.5c0 46.8-37.9 84.7-84.7 84.7H177c-46.8 0-84.7-37.9-84.7-84.7V170.1c0-46.8 37.9-84.7 84.7-84.7z" fill="#FFF1DD" p-id="62817"></path><path d="M854.5 953.5H177c-58.4 0-105.9-47.5-105.9-105.9V170.1c0-58.4 47.5-105.9 105.9-105.9h677.5c58.4 0 105.9 47.5 105.9 105.9v677.5c0 58.4-47.5 105.9-105.9 105.9zM177 106.6c-35 0-63.5 28.5-63.5 63.5v677.5c0 35 28.5 63.5 63.5 63.5h677.5c35 0 63.5-28.5 63.5-63.5V170.1c0-35-28.5-63.5-63.5-63.5H177z" fill="#383838" p-id="62818"></path><path d="M332.2 678.3h127v240h-127v-240z m254.1 0h127v240h-127v-240z m-127 112.9h127v127h-127v-127zM106.4 226.6h127v127h-127v-127z m691.6 0h127v127H798v-127zM191.1 99.5h649.3c46.8 0 84.7 37.9 84.7 84.7v42.3H106.4v-42.3c0-46.8 37.9-84.7 84.7-84.7zM459.3 551.2h127v127h-127z" fill="#89571C" p-id="62819"></path><path d="M586.3 381.8h225.8v169.4H586.3zM233.4 381.8h225.8v169.4H233.4z" fill="#FFFFFF" p-id="62820"></path><path d="M586.3 381.8h127v169.4h-127z" fill="#53BEDF" p-id="62821"></path><path d="M332.2 381.8h127v169.4h-127z" fill="#53BEDF" p-id="62822"></path></svg>