<?xml version="1.0" standalone="no"?><!DOCTYPE svg PUBLIC "-//W3C//DTD SVG 1.1//EN" "http://www.w3.org/Graphics/SVG/1.1/DTD/svg11.dtd"><svg t="1784020415458" class="icon" viewBox="0 0 1024 1024" version="1.1" xmlns="http://www.w3.org/2000/svg" p-id="111051" xmlns:xlink="http://www.w3.org/1999/xlink" width="200" height="200"><path d="M512 85.333333C277.333333 85.333333 85.333333 277.333333 85.333333 512s192 426.666667 426.666667 426.666667 426.666667-192 426.666667-426.666667S746.666667 85.333333 512 85.333333z m21.333333 183.466667c125.866667 10.666667 224 115.2 224 243.2 0 134.4-110.933333 245.333333-245.333333 245.333333S266.666667 646.4 266.666667 512c0-128 98.133333-232.533333 224-243.2V384h42.666666v-115.2zM512 896c-211.2 0-384-172.8-384-384 0-204.8 162.133333-371.2 362.666667-381.866667v117.333334c-136.533333 10.666667-245.333333 125.866667-245.333334 264.533333 0 147.2 119.466667 266.666667 266.666667 266.666667S778.666667 659.2 778.666667 512c0-140.8-108.8-253.866667-245.333334-264.533333V130.133333c200.533333 10.666667 362.666667 179.2 362.666667 381.866667 0 211.2-172.8 384-384 384z" fill="#4C64FE" p-id="111052"></path><path d="M394.666667 512c0 64 53.333333 117.333333 117.333333 117.333333s117.333333-53.333333 117.333333-117.333333-53.333333-117.333333-117.333333-117.333333-117.333333 53.333333-117.333333 117.333333z m117.333333-96c53.333333 0 96 42.666667 96 96s-42.666667 96-96 96-96-42.666667-96-96 42.666667-96 96-96z" fill="#4C64FE" p-id="111053"></path><path d="M533.333333 388.266667m-42.666666 0a42.666667 42.666667 0 1 0 85.333333 0 42.666667 42.666667 0 1 0-85.333333 0Z" fill="#4C64FE" p-id="111054"></path><path d="M755.2 501.333333m-64 0a64 64 0 1 0 128 0 64 64 0 1 0-128 0Z" fill="#4C64FE" p-id="111055"></path><path d="M454.4 490.666667m-42.666667 0a42.666667 42.666667 0 1 0 85.333334 0 42.666667 42.666667 0 1 0-85.333334 0Z" fill="#4C64FE" opacity=".6" p-id="111056"></path><path d="M347.733333 650.666667m-64 0a64 64 0 1 0 128 0 64 64 0 1 0-128 0Z" fill="#4C64FE" opacity=".6" p-id="111057"></path><path d="M646.4 270.933333m-64 0a64 64 0 1 0 128 0 64 64 0 1 0-128 0Z" fill="#4C64FE" p-id="111058"></path><path d="M219.733333 629.333333m-42.666666 0a42.666667 42.666667 0 1 0 85.333333 0 42.666667 42.666667 0 1 0-85.333333 0Z" fill="#4C64FE" opacity=".6" p-id="111059"></path><path d="M326.4 778.666667m-42.666667 0a42.666667 42.666667 0 1 0 85.333334 0 42.666667 42.666667 0 1 0-85.333334 0Z" fill="#4C64FE" opacity=".6" p-id="111060"></path><path d="M462.933333 605.866667m-42.666666 0a42.666667 42.666667 0 1 0 85.333333 0 42.666667 42.666667 0 1 0-85.333333 0Z" fill="#4C64FE" opacity=".6" p-id="111061"></path><path d="M326.4 533.333333m-42.666667 0a42.666667 42.666667 0 1 0 85.333334 0 42.666667 42.666667 0 1 0-85.333334 0Z" fill="#4C64FE" opacity=".6" p-id="111062"></path><path d="M812.8 605.866667m-42.666667 0a42.666667 42.666667 0 1 0 85.333334 0 42.666667 42.666667 0 1 0-85.333334 0Z" fill="#4C64FE" p-id="111063"></path><path d="M672 394.666667m-42.666667 0a42.666667 42.666667 0 1 0 85.333334 0 42.666667 42.666667 0 1 0-85.333334 0Z" fill="#4C64FE" p-id="111064"></path><path d="M797.866667 377.6m-42.666667 0a42.666667 42.666667 0 1 0 85.333333 0 42.666667 42.666667 0 1 0-85.333333 0Z" fill="#4C64FE" p-id="111065"></path><path d="M612.266667 499.2m-42.666667 0a42.666667 42.666667 0 1 0 85.333333 0 42.666667 42.666667 0 1 0-85.333333 0Z" fill="#4C64FE" p-id="111066"></path><path d="M454.4 810.666667m-64 0a64 64 0 1 0 128 0 64 64 0 1 0-128 0Z" fill="#4C64FE" opacity=".6" p-id="111067"></path></svg>