<?xml version="1.0" standalone="no"?><!DOCTYPE svg PUBLIC "-//W3C//DTD SVG 1.1//EN" "http://www.w3.org/Graphics/SVG/1.1/DTD/svg11.dtd"><svg t="1784020379213" class="icon" viewBox="0 0 1024 1024" version="1.1" xmlns="http://www.w3.org/2000/svg" p-id="107179" xmlns:xlink="http://www.w3.org/1999/xlink" width="200" height="200"><path d="M511.464575 618.415686a916.781176 916.781176 0 0 1-379.482353-80.313725v281.098039h-45.511111a26.771242 26.771242 0 1 0 0 52.471634h846.372811a26.771242 26.771242 0 1 0 0-52.471634H883.45098V539.708235a920.127582 920.127582 0 0 1-277.617777 73.353203c3.480261 0-80.313725 5.354248-93.699347 5.354248z" fill="#D2EAFF" p-id="107180"></path><path d="M936.993464 822.947974h-23.29098V439.985359a133.856209 133.856209 0 0 0-42.03085-99.722875 140.147451 140.147451 0 0 0-99.722876-41.896994H619.888105a26.771242 26.771242 0 0 0 0 52.471634h152.060653a82.187712 82.187712 0 0 1 61.306144 26.771242 85.935686 85.935686 0 0 1 26.771242 62.912418v382.42719l-265.838432-1.740131a16.330458 16.330458 0 0 0-8.834509 1.740131H562.196078V240.941176A141.218301 141.218301 0 0 0 420.442353 98.919739H266.641569A141.218301 141.218301 0 0 0 124.887843 240.941176v582.27451H88.211242a26.771242 26.771242 0 1 0 0 52.471634h846.37281a26.771242 26.771242 0 0 0 26.771242-26.771242 24.36183 24.36183 0 0 0-24.495686-26.771241z m-755.484444 0V240.941176a89.282092 89.282092 0 0 1 87.54196-89.282091h153.131504A89.68366 89.68366 0 0 1 511.464575 240.941176v582.27451z" fill="#2E85ED" p-id="107181"></path><path d="M411.741699 490.716863h-129.438954a26.771242 26.771242 0 1 0 0 52.471634h129.438954a26.771242 26.771242 0 0 0 26.771242-26.771242 25.700392 25.700392 0 0 0-26.771242-26.771242z m0 178.430327h-129.438954a26.771242 26.771242 0 1 0 0 52.337777h129.438954a26.771242 26.771242 0 0 0 26.771242-26.10196 25.700392 25.700392 0 0 0-26.771242-26.771242z m0-353.380393h-129.438954a26.771242 26.771242 0 0 0 0 52.471634h129.438954a26.771242 26.771242 0 0 0 26.771242-26.771241 24.763399 24.763399 0 0 0-26.771242-26.771242zM642.509804 721.484967h129.305098a26.771242 26.771242 0 1 0 0-52.337777H642.509804a26.771242 26.771242 0 0 0-26.771242 26.771241 25.700392 25.700392 0 0 0 26.771242 26.101961z m0-178.29647h129.305098a26.771242 26.771242 0 1 0 0-52.471634H642.509804a26.771242 26.771242 0 0 0-26.771242 26.771242 25.834248 25.834248 0 0 0 26.771242 26.771241z" fill="#2E85ED" p-id="107182"></path></svg>