<?xml version="1.0" standalone="no"?><!DOCTYPE svg PUBLIC "-//W3C//DTD SVG 1.1//EN" "http://www.w3.org/Graphics/SVG/1.1/DTD/svg11.dtd"><svg t="1784020299368" class="icon" viewBox="0 0 1024 1024" version="1.1" xmlns="http://www.w3.org/2000/svg" p-id="104209" xmlns:xlink="http://www.w3.org/1999/xlink" width="200" height="200"><path d="M807.68 317.056h-96.021333v49.024H981.333333v-49.024h-98.069333v-16.341333H807.68v16.341333zM813.802667 380.373333l-83.754667 8.192v36.778667h-18.389333v46.976H981.333333v-46.976h-24.533333V380.373333l-81.706667 8.170667v36.778667h-61.290666V380.373333zM807.68 511.146667h-96.021333v44.949333h22.464l-22.464 167.530667 81.706666-14.293334 6.144-69.482666h102.144v83.776H981.333333V588.8h-173.653333v-30.656H981.333333V511.146667h-98.069333v-20.437334H807.68v20.437334zM164.117333 627.605333l-85.824 10.218667v85.802667h85.824v-96.021334zM276.48 627.605333l-81.706667 10.218667v85.802667h81.706667v-96.021334zM390.890667 627.605333l-81.706667 10.218667v85.802667h81.706667v-96.021334zM507.349333 627.605333l-83.776 10.218667v85.802667h83.776v-96.021334z" fill="#000000" p-id="104210"></path><path d="M108.949333 335.445333h-38.826666v46.997334H102.826667l-6.144 73.536H64v51.072h26.56l-14.293333 87.850666 81.706666-10.197333 12.266667-93.994667 81.706667-10.218666-12.245334 114.410666 81.706667-10.197333 22.485333-202.282667h46.997334v212.48l177.749333-26.56v155.285334h81.706667v-167.530667l44.949333-6.144v-59.242667l-44.949333 6.144v-114.410666h36.778666v-46.997334h-36.778666V298.666667h-81.706667v36.778666h-38.826667v46.997334h38.826667v130.752l-96.021333 10.218666v-187.968h-122.581334L356.16 298.666667H276.48l-6.122667 36.778666h-55.168L209.066667 382.442667h57.194666l-8.170666 49.024-81.706667 12.266666 16.32-145.066666H108.949333v36.778666z" fill="#000000" p-id="104211"></path></svg>