<svg t="1783938230012" class="icon" viewBox="0 0 1024 1024" version="1.1" xmlns="http://www.w3.org/2000/svg" p-id="42238"><path d="M234.496 435.776a543.04 543.04 0 0 1 36.608 54.976A502.72 502.72 0 0 1 371.84 335.04 226.624 226.624 0 0 0 417.664 115.2a355.008 355.008 0 0 1 256.448 293.056s45.824-82.432 91.584-82.432a173.952 173.952 0 0 0 9.152 137.408c32.96 65.92 140.096 324.736-145.856 422.4a394.176 394.176 0 0 1-229.824 10.624c-305.6-82.112-164.672-460.48-164.672-460.48z" fill="#FF4939" p-id="42239"></path><path d="M417.664 115.2a226.624 226.624 0 0 1-45.824 219.84 502.72 502.72 0 0 0-100.736 155.712 543.04 543.04 0 0 0-36.608-54.976s-140.8 378.368 164.672 460.8a394.176 394.176 0 0 0 229.824-10.624c286.016-97.856 178.816-356.672 145.856-422.4a173.952 173.952 0 0 1-9.152-137.408c-45.824 0-91.584 82.432-91.584 82.432A355.008 355.008 0 0 0 417.664 115.2m-128-64h128a364.8 364.8 0 0 1 160 73.472 402.624 402.624 0 0 1 126.976 155.84 116.8 116.8 0 0 1 61.312-18.624h100.8l-41.984 88.768a111.616 111.616 0 0 0 7.36 84.032 419.392 419.392 0 0 1 32 329.216 330.432 330.432 0 0 1-214.144 182.592 480 480 0 0 1-155.456 26.432 429.44 429.44 0 0 1-111.68-14.592 309.184 309.184 0 0 1-205.376-157.44c-84.352-163.776-6.08-378.368-2.688-387.392l40.896-109.76 47.936 64a352.96 352.96 0 0 1 67.52-81.728 193.984 193.984 0 0 0 33.472-135.04z" fill="#FFFFFF" p-id="42240"></path><path d="M496.512 512a766.72 766.72 0 0 1-90.88 151.424c-50.496 60.544-40.384 161.536 50.496 171.584s181.696 0 192-80.768S547.008 512 496.512 512z" fill="#FFE2E2" p-id="42241"></path></svg>