<?xml version="1.0" standalone="no"?><!DOCTYPE svg PUBLIC "-//W3C//DTD SVG 1.1//EN" "http://www.w3.org/Graphics/SVG/1.1/DTD/svg11.dtd"><svg t="1784020089847" class="icon" viewBox="0 0 1024 1024" version="1.1" xmlns="http://www.w3.org/2000/svg" p-id="84151" xmlns:xlink="http://www.w3.org/1999/xlink" width="200" height="200"><path d="M981.184962 519.423644l1.631896-0.074177a40.500695 40.500695 0 0 1 35.975893 21.288827 31.599444 31.599444 0 0 1 2.522021 5.637459 61.8637 61.8637 0 0 1 1.706073 6.008345 38.720445 38.720445 0 0 1 0.741771 6.305054v2.076958l-0.074177 1.928605a511.599444 511.599444 0 0 1-215.113584 367.918405 521.984237 521.984237 0 0 1-75.883171 44.135373 520.12981 520.12981 0 0 1-103.625405 36.05007 528.140936 528.140936 0 0 1-65.053315 10.681502 508.187297 508.187297 0 0 1-202.651831-20.324525 509.077422 509.077422 0 0 1-173.203524-93.092258 508.409828 508.409828 0 0 1-125.581826-151.098748 505.887807 505.887807 0 0 1-59.860918-194.343996C-25.472433 281.092629 180.962431 30.07733 462.241986 2.112564l0.741771-0.074177 0.667594-0.222532a40.500695 40.500695 0 0 1 41.316643 11.349096 41.539175 41.539175 0 0 1 10.97821 28.854891 42.280946 42.280946 0 0 1-5.414928 19.360223 42.280946 42.280946 0 0 1-15.948076 15.57719 42.058414 42.058414 0 0 1-21.808066 4.821512 40.278164 40.278164 0 0 1-2.225313-0.148354l-0.741771-0.074177h-0.815948a434.084376 434.084376 0 0 0-220.973575 87.603152 428.37274 428.37274 0 0 0-89.531757 93.092258 430.598053 430.598053 0 0 0-71.877608 169.123783 431.710709 431.710709 0 0 0-5.340751 36.717663C57.086677 705.608159 230.80944 918.051368 468.398685 942.233102c58.451553 5.934168 115.567918 0.296708 171.200742-16.764025a430.301344 430.301344 0 0 0 146.425591-78.256838 429.337042 429.337042 0 0 0 106.369958-127.362077 427.260083 427.260083 0 0 0 51.182197-165.85999 56.893834 56.893834 0 0 1 1.780251-7.121002 37.83032 37.83032 0 0 1 7.121001-12.758461 49.031062 49.031062 0 0 1 6.675939-6.37923 36.643486 36.643486 0 0 1 9.494668-5.414928 41.835883 41.835883 0 0 1 12.53593-2.967084z" fill="#191C23" p-id="84152"></path><path d="M451.931369 208.769958l13.351878-2.447844 4.07974-0.51924H472.700956a35.456653 35.456653 0 0 1 22.698192 8.901252 36.643486 36.643486 0 0 1 12.313399 26.629578 37.83032 37.83032 0 0 1 0 1.409365l-0.593417 6.156699a42.280946 42.280946 0 0 1-4.302272 11.719982 38.572091 38.572091 0 0 1-24.330088 18.321743 35.308299 35.308299 0 0 1-1.261011 0.296708l-11.868335 2.002782h-0.222532A236.328234 236.328234 0 0 0 329.242449 363.651739a235.66064 235.66064 0 0 0 54.594344 346.036161 236.550765 236.550765 0 0 0 84.265183 33.824756l8.752898 1.483542a242.262401 242.262401 0 0 0 57.858136 1.631897 238.108484 238.108484 0 0 0 108.37274-38.275383 237.366713 237.366713 0 0 0 95.465925-127.584608 237.366713 237.366713 0 0 0 7.714418-33.379694l1.335188-5.414928a27.148818 27.148818 0 0 1 0.370885-0.964303l0.51924-1.409364a48.140936 48.140936 0 0 1 1.261011-2.596199l0.741771-1.261011a28.706537 28.706537 0 0 1 3.189615-4.747334 34.121465 34.121465 0 0 1 11.052388-9.19796 40.278164 40.278164 0 0 1 10.829856-3.783032 34.195642 34.195642 0 0 1 6.972647-0.593417l5.711637 0.445063a36.791841 36.791841 0 0 1 27.890588 20.769587 37.162726 37.162726 0 0 1 3.263793 21.21465l-2.522022 13.722763a318.664812 318.664812 0 0 1-21.066295 64.979138 313.546592 313.546592 0 0 1-61.8637 90.125174 312.211405 312.211405 0 0 1-114.455262 73.583681 311.098748 311.098748 0 0 1-120.982846 18.544274l-13.945295-1.483542a324.524803 324.524803 0 0 1-172.313398-78.182661A322.225313 322.225313 0 0 1 221.166418 606.136671a323.412146 323.412146 0 0 1-17.283264-79.814557l-0.370886-13.79694a310.950394 310.950394 0 0 1 65.720909-190.783496A307.909133 307.909133 0 0 1 362.325435 242.001298a310.653686 310.653686 0 0 1 89.605934-33.23134z" fill="#191C23" p-id="84153"></path><path d="M1003.586446 357.569217c1.483542 4.450626 2.81873 8.901252 4.153917 13.351877l0.296708 1.038479a42.874363 42.874363 0 0 1-12.906815 43.987019 48.437645 48.437645 0 0 1-9.19796 6.082523 48.80853 48.80853 0 0 1-10.384793 3.486323L589.233177 501.250255l1.557719 7.41771a81.446453 81.446453 0 1 1-145.906351-30.857673 80.704682 80.704682 0 0 1 48.956884-31.970329 81.372276 81.372276 0 0 1 36.495132 0.445062l7.121002 1.780251L639.080187 58.19045V58.042096a39.833102 39.833102 0 0 1 11.719981-20.547057 40.278164 40.278164 0 0 1 29.893371-11.200741 40.871581 40.871581 0 0 1 12.758461 2.596198 527.02828 527.02828 0 0 1 310.060268 328.604543z" fill="#EB0503" p-id="84154"></path></svg>