<?xml version="1.0" standalone="no"?><!DOCTYPE svg PUBLIC "-//W3C//DTD SVG 1.1//EN" "http://www.w3.org/Graphics/SVG/1.1/DTD/svg11.dtd"><svg t="1784020257155" class="icon" viewBox="0 0 1024 1024" version="1.1" xmlns="http://www.w3.org/2000/svg" p-id="100781" xmlns:xlink="http://www.w3.org/1999/xlink" width="200" height="200"><path d="M866.33984 424.1408a200.17664 200.17664 0 0 0 9.45152-85.59616 200.192 200.192 0 0 0-27.37152-81.65376 210.05312 210.05312 0 0 0-224.768-98.99008 210.5344 210.5344 0 0 0-198.50752-64 210.57024 210.57024 0 0 0-156.20608 138.20928 206.5408 206.5408 0 0 0-138.0352 98.98496 203.6736 203.6736 0 0 0 25.7024 241.3568 200.2432 200.2432 0 0 0 17.8176 167.25504 210.0992 210.0992 0 0 0 224.83968 98.98496 210.46784 210.46784 0 0 0 354.64192-74.40896 206.27456 206.27456 0 0 0 138.00448-98.99008 202.9824 202.9824 0 0 0-25.56928-241.21856v0.06656z m-311.296 429.50144a156.26752 156.26752 0 0 1-99.4304-35.56864c1.30048-0.7168 3.41504-1.70496 4.9152-2.7648l164.89984-94.03392a25.78432 25.78432 0 0 0 13.65504-23.21408V468.55168l69.5296 40.0384a1.8176 1.8176 0 0 1 1.29536 1.77152v190.12608a154.37312 154.37312 0 0 1-154.86464 153.2928v-0.13824z m-333.75232-140.55936a151.38816 151.38816 0 0 1-18.67264-102.67648c1.56672 1.0496 3.21024 1.9712 4.9152 2.7648l164.93056 94.03904a27.00288 27.00288 0 0 0 27.31008 0l201.38496-114.72384v79.49824a2.13504 2.13504 0 0 1-1.05984 2.01216l-166.8096 95.0272a156.70784 156.70784 0 0 1-211.99872-55.94112z m-43.52-355.4304A153.01632 153.01632 0 0 1 258.56 290.44224v193.87904a27.0336 27.0336 0 0 0 13.4144 23.1424l201.38496 114.7904-69.66784 39.49056a2.48832 2.48832 0 0 1-2.28352 0.24064L234.67008 566.9888a152.44288 152.44288 0 0 1-56.832-209.408l-0.06656 0.07168z m573.16352 131.65056l-201.38496-114.7904 69.66784-39.8336a2.57024 2.57024 0 0 1 2.01216-0.16896l166.8096 95.0272a151.96672 151.96672 0 0 1 72.2176 92.76928 151.99232 151.99232 0 0 1-15.55456 116.53632 155.43296 155.43296 0 0 1-80.7936 67.20512V512a25.1392 25.1392 0 0 0-13.24544-22.86592l0.27136 0.16896zM820.43392 386.048c-1.40288-0.8192-3.41504-2.048-4.98688-2.79552l-165.13536-94.03904a27.32032 27.32032 0 0 0-27.30496 0L421.61664 403.93728v-79.4624a2.19136 2.19136 0 0 1 1.05984-2.048L589.55264 227.328a156.4672 156.4672 0 0 1 212.00384 56.25344 150.72256 150.72256 0 0 1 18.67264 102.4l0.2048 0.06656z m-436.5312 141.6192l-69.66784-39.55712a1.9456 1.9456 0 0 1-1.29536-1.81248V296.07424a155.5456 155.5456 0 0 1 254.53056-117.48864c-1.29536 0.75264-3.41504 1.81248-4.9152 2.80064l-165.00224 94.0032a25.56928 25.56928 0 0 0-13.4144 23.2448l-0.23552 228.93056v0.1024z m37.7856-80.51712l89.76896-51.2 89.87136 51.2v102.1952l-89.63072 51.2-89.84064-51.2-0.27136-102.1952h0.1024z" p-id="100782"></path></svg>