<?xml version="1.0" standalone="no"?><!DOCTYPE svg PUBLIC "-//W3C//DTD SVG 1.1//EN" "http://www.w3.org/Graphics/SVG/1.1/DTD/svg11.dtd"><svg t="1784019665308" class="icon" viewBox="0 0 1024 1024" version="1.1" xmlns="http://www.w3.org/2000/svg" p-id="43737" xmlns:xlink="http://www.w3.org/1999/xlink" width="200" height="200"><path d="M407 170h358.6c64.6 0 117.4 52.8 117.4 117.4v362.7c0 64.6-52.8 117.4-117.4 117.4H407c-64.6 0-117.4-52.8-117.4-117.4V287.4c0-64.6 52.9-117.4 117.4-117.4z" fill="#22B229" p-id="43738"></path><path d="M363.9 170h288.9c64.6 0 117.4 52.8 117.4 117.4v362.7c0 64.6-52.8 117.4-117.4 117.4H363.9c-64.6 0-117.4-52.8-117.4-117.4V287.4c0-64.6 52.9-117.4 117.4-117.4z" fill="#42DA56" p-id="43739"></path><path d="M304.3 311h-0.1c-8.3 0-15-6.7-15-15s6.7-15 15-15h0.1c8.3 0 15 6.7 15 15s-6.7 15-15 15zM327 270c-2.8 0-5.6-0.8-8.1-2.4-7-4.5-9-13.8-4.5-20.7 12.8-19.9 33.8-31.7 34.7-32.2 7.2-4 16.4-1.4 20.4 5.9 4 7.2 1.4 16.3-5.8 20.4-0.3 0.2-15.4 8.8-24 22.1-2.9 4.5-7.7 6.9-12.7 6.9z" fill="#FFFFFF" p-id="43740"></path><path d="M708.7 782.5h-418c-73 0-132.4-59.4-132.4-132.4V557c0-8.3 6.7-15 15-15s15 6.7 15 15v93.1c0 56.5 45.9 102.4 102.4 102.4h417.9c56.5 0 102.4-45.9 102.4-102.4 0-8.3 6.7-15 15-15s15 6.7 15 15c0.1 73-59.3 132.4-132.3 132.4zM826.1 595c-8.3 0-15-6.7-15-15V397c0-8.3 6.7-15 15-15s15 6.7 15 15v183c0 8.3-6.8 15-15 15zM826.1 372c-8.3 0-15-6.7-15-15v-18c0-8.3 6.7-15 15-15s15 6.7 15 15v18c0 8.3-6.8 15-15 15zM173.3 512c-8.3 0-15-6.7-15-15V287.4c0-73 59.4-132.4 132.4-132.4h417.9c73 0 132.4 59.4 132.4 132.4V301c0 8.3-6.7 15-15 15s-15-6.7-15-15v-13.6c0-56.5-45.9-102.4-102.4-102.4H290.7c-56.5 0-102.4 45.9-102.4 102.4V497c0 8.3-6.7 15-15 15z" fill="#1A1A1A" p-id="43741"></path><path d="M562.3 595c-8.3 0-15-6.7-15-15v-70c0-8.3 6.7-15 15-15s15 6.7 15 15v70c0 8.3-6.7 15-15 15zM377.3 557c-8.3 0-15-6.7-15-15v-16c0-8.3 6.7-15 15-15s15 6.7 15 15v16c0 8.3-6.7 15-15 15zM377.3 502c-8.3 0-15-6.7-15-15v-88c0-14.3 5.6-27.6 15.7-37.7 10-9.9 23.2-15.3 37.3-15.3h133c8.3 0 15 6.7 15 15s-6.7 15-15 15h-133c-6.1 0-11.8 2.4-16.2 6.7-4.4 4.4-6.8 10.2-6.8 16.3v88c0 8.3-6.7 15-15 15z" fill="#FFFFFF" p-id="43742"></path><path d="M593.3 596H563c-8.3 0-15-6.7-15-15s6.7-15 15-15h30.4c12.7 0 23-10.3 23-23V399c0-12.7-10.3-23-23-23-8.3 0-15-6.7-15-15s6.7-15 15-15c29.2 0 53 23.8 53 53v144c-0.1 29.2-23.8 53-53.1 53z" fill="#FFFFFF" p-id="43743"></path><path d="M538.8 553.9H472c-21.2 0-38.5-17.3-38.5-38.5v-66.9c0-21.2 17.3-38.5 38.5-38.5h66.9c21.2 0 38.5 17.3 38.5 38.5v66.9c-0.1 21.2-17.3 38.5-38.6 38.5zM472 440c-4.6 0-8.5 3.9-8.5 8.5v66.9c0 4.6 3.9 8.5 8.5 8.5h66.9c4.6 0 8.5-3.9 8.5-8.5v-66.9c0-4.6-3.9-8.5-8.5-8.5H472z" fill="#FFFFFF" p-id="43744"></path><path d="M995 869h-20.4c-8.3 0-15-6.7-15-15s6.7-15 15-15H995c8.3 0 15 6.7 15 15s-6.7 15-15 15zM925 869H491.8c-8.3 0-15-6.7-15-15s6.7-15 15-15H925c8.3 0 15 6.7 15 15s-6.7 15-15 15z" fill="#1A1A1A" p-id="43745"></path><path d="M523.4 869H261c-8.3 0-15-6.7-15-15s6.7-15 15-15h262.4c8.3 0 15 6.7 15 15s-6.7 15-15 15zM162 869H44.3c-8.3 0-15-6.7-15-15s6.7-15 15-15H162c8.3 0 15 6.7 15 15s-6.8 15-15 15z" fill="#1A1A1A" p-id="43746"></path><path d="M40.8 298.7c-0.8 0-1.5-0.7-1.5-1.5v-38.7c0-0.8 0.7-1.5 1.5-1.5s1.5 0.7 1.5 1.5v38.7c0 0.8-0.7 1.5-1.5 1.5z" fill="#F74E00" p-id="43747"></path><path d="M28.7 293.3c-0.4 0-0.7-0.1-1-0.4-0.6-0.6-0.7-1.5-0.1-2.1l25.1-27.4c0.6-0.6 1.5-0.7 2.1-0.1 0.6 0.6 0.7 1.5 0.1 2.1l-25.1 27.4c-0.3 0.3-0.7 0.5-1.1 0.5z" fill="#F74E00" p-id="43748"></path><path d="M53.9 293c-0.4 0-0.8-0.2-1.1-0.5l-25.1-27.4c-0.6-0.6-0.5-1.6 0.1-2.1 0.6-0.6 1.6-0.5 2.1 0.1L55 290.5c0.6 0.6 0.5 1.6-0.1 2.1-0.2 0.3-0.6 0.4-1 0.4z" fill="#F74E00" p-id="43749"></path><path d="M58.6 279.3H23c-0.8 0-1.5-0.7-1.5-1.5s0.7-1.5 1.5-1.5h35.6c0.8 0 1.5 0.7 1.5 1.5s-0.7 1.5-1.5 1.5z" fill="#F74E00" p-id="43750"></path><path d="M107.1 460.5h-7.4c-1.4 0-2.5-1.1-2.5-2.5s1.1-2.5 2.5-2.5h7.4c1.4 0 2.5 1.1 2.5 2.5s-1.2 2.5-2.5 2.5zM83.3 460.5h-7.4c-1.4 0-2.5-1.1-2.5-2.5s1.1-2.5 2.5-2.5h7.4c1.4 0 2.5 1.1 2.5 2.5s-1.1 2.5-2.5 2.5zM85.6 454.4c-0.7 0-1.3-0.3-1.8-0.8l-5.3-5.7c-0.9-1-0.9-2.6 0.2-3.5 1-0.9 2.6-0.9 3.5 0.2l5.3 5.7c0.9 1 0.9 2.6-0.2 3.5-0.5 0.3-1.1 0.6-1.7 0.6zM103.6 472.7c-0.7 0-1.3-0.3-1.8-0.8l-5.3-5.7c-0.9-1-0.9-2.6 0.2-3.5 1-0.9 2.6-0.9 3.5 0.2l5.3 5.7c0.9 1 0.9 2.6-0.2 3.5-0.5 0.4-1.1 0.6-1.7 0.6zM98.3 453.8c-0.6 0-1.2-0.2-1.7-0.7-1-0.9-1.1-2.5-0.2-3.5l5.3-5.7c0.9-1 2.5-1.1 3.5-0.2 1 0.9 1.1 2.5 0.2 3.5l-5.3 5.7c-0.4 0.6-1.1 0.9-1.8 0.9zM91.7 453.6c-1.4 0-2.5-1.1-2.5-2.5V443c0-1.4 1.1-2.5 2.5-2.5s2.5 1.1 2.5 2.5v8.1c0 1.4-1.1 2.5-2.5 2.5zM91.7 476.7c-1.4 0-2.5-1.1-2.5-2.5v-8.1c0-1.4 1.1-2.5 2.5-2.5s2.5 1.1 2.5 2.5v8.1c0 1.4-1.1 2.5-2.5 2.5zM80.5 472.6c-0.6 0-1.2-0.2-1.7-0.7-1-0.9-1.1-2.5-0.2-3.5l5.3-5.7c0.9-1 2.5-1.1 3.5-0.2 1 0.9 1.1 2.5 0.2 3.5l-5.3 5.7c-0.5 0.6-1.1 0.9-1.8 0.9z" fill="#42DA56" p-id="43751"></path><path d="M118.7 259h-4.2c-3.1 0-5.7-2.5-5.7-5.7v-1c0-3.1 2.5-5.7 5.7-5.7h4.2c3.1 0 5.7 2.5 5.7 5.7v1c-0.1 3.2-2.6 5.7-5.7 5.7z" fill="#3268CF" p-id="43752"></path><path d="M77.1 581c-2.5 0-4.5-2-4.5-4.5v-0.8c0-2.5 2-4.5 4.5-4.5s4.5 2 4.5 4.5v0.8c-0.1 2.5-2.1 4.5-4.5 4.5z" fill="#F74E00" p-id="43753"></path><path d="M43.6 389c-7.3 0-13.2-6-13.2-13.2v-2.4c0-7.3 6-13.2 13.2-13.2 7.3 0 13.2 6 13.2 13.2v2.4c0 7.2-5.9 13.2-13.2 13.2z" fill="#42DA56" p-id="43754"></path><path d="M993.7 434.8h-6.2c-5.4 0-9.8-4.4-9.8-9.8v-1.3c0-5.4 4.4-9.8 9.8-9.8h6.2c5.4 0 9.8 4.4 9.8 9.8v1.3c0 5.4-4.4 9.8-9.8 9.8z m-6.2-15.9c-2.6 0-4.8 2.2-4.8 4.8v1.3c0 2.6 2.2 4.8 4.8 4.8h6.2c2.6 0 4.8-2.2 4.8-4.8v-1.3c0-2.6-2.2-4.8-4.8-4.8h-6.2z" fill="#42DA56" p-id="43755"></path><path d="M944 364.9c-0.8 0-1.5-0.7-1.5-1.5V340c0-0.8 0.7-1.5 1.5-1.5s1.5 0.7 1.5 1.5v23.4c0 0.8-0.6 1.5-1.5 1.5z" fill="#0000FF" p-id="43756"></path><path d="M936.8 361.7c-0.4 0-0.7-0.1-1-0.4-0.6-0.6-0.7-1.5-0.1-2.1l15.2-16.6c0.6-0.6 1.5-0.7 2.1-0.1 0.6 0.6 0.7 1.5 0.1 2.1l-15.2 16.6c-0.3 0.3-0.7 0.5-1.1 0.5z" fill="#0000FF" p-id="43757"></path><path d="M952 361.5c-0.4 0-0.8-0.2-1.1-0.5l-15.2-16.6c-0.6-0.6-0.5-1.6 0.1-2.1 0.6-0.6 1.6-0.5 2.1 0.1l15.2 16.6c0.6 0.6 0.5 1.6-0.1 2.1-0.3 0.3-0.6 0.4-1 0.4z" fill="#0000FF" p-id="43758"></path><path d="M954.8 353.2h-21.5c-0.8 0-1.5-0.7-1.5-1.5s0.7-1.5 1.5-1.5h21.5c0.8 0 1.5 0.7 1.5 1.5s-0.7 1.5-1.5 1.5z" fill="#0000FF" p-id="43759"></path><path d="M996.2 521.2h-7.4c-1.4 0-2.5-1.1-2.5-2.5s1.1-2.5 2.5-2.5h7.4c1.4 0 2.5 1.1 2.5 2.5s-1.1 2.5-2.5 2.5zM972.4 521.2H965c-1.4 0-2.5-1.1-2.5-2.5s1.1-2.5 2.5-2.5h7.4c1.4 0 2.5 1.1 2.5 2.5s-1.1 2.5-2.5 2.5zM974.7 515c-0.7 0-1.3-0.3-1.8-0.8l-5.3-5.7c-0.9-1-0.9-2.6 0.2-3.5 1-0.9 2.6-0.9 3.5 0.2l5.3 5.7c0.9 1 0.9 2.6-0.2 3.5-0.5 0.4-1.1 0.6-1.7 0.6zM992.8 533.4c-0.7 0-1.3-0.3-1.8-0.8l-5.3-5.7c-0.9-1-0.9-2.6 0.2-3.5 1-0.9 2.6-0.9 3.5 0.2l5.3 5.7c0.9 1 0.9 2.6-0.2 3.5-0.5 0.4-1.1 0.6-1.7 0.6zM987.5 514.5c-0.6 0-1.2-0.2-1.7-0.7-1-0.9-1.1-2.5-0.2-3.5l5.3-5.7c0.9-1 2.5-1.1 3.5-0.2 1 0.9 1.1 2.5 0.2 3.5l-5.3 5.7c-0.4 0.6-1.1 0.9-1.8 0.9zM980.9 514.2c-1.4 0-2.5-1.1-2.5-2.5v-8.1c0-1.4 1.1-2.5 2.5-2.5s2.5 1.1 2.5 2.5v8.1c0 1.4-1.2 2.5-2.5 2.5zM980.9 537.4c-1.4 0-2.5-1.1-2.5-2.5v-8.1c0-1.4 1.1-2.5 2.5-2.5s2.5 1.1 2.5 2.5v8.1c0 1.3-1.2 2.5-2.5 2.5zM969.7 533.3c-0.6 0-1.2-0.2-1.7-0.7-1-0.9-1.1-2.5-0.2-3.5l5.3-5.7c0.9-1 2.5-1.1 3.5-0.2s1.1 2.5 0.2 3.5l-5.3 5.7c-0.5 0.6-1.2 0.9-1.8 0.9z" fill="#F74E00" p-id="43760"></path><path d="M932.7 603h-4.3c-1.2 0-2.1-1-2.1-2.1v-0.4c0-1.2 1-2.1 2.1-2.1h4.3c1.2 0 2.1 1 2.1 2.1v0.4c0 1.1-1 2.1-2.1 2.1z" fill="#3268CF" p-id="43761"></path><path d="M933.9 487.7h-9.3c-4 0-7.2-3.2-7.2-7.2v-0.8c0-4 3.2-7.2 7.2-7.2h9.3c4 0 7.2 3.2 7.2 7.2v0.8c0 4-3.3 7.2-7.2 7.2z m-9.4-10.2c-1.2 0-2.2 1-2.2 2.2v0.8c0 1.2 1 2.2 2.2 2.2h9.3c1.2 0 2.2-1 2.2-2.2v-0.8c0-1.2-1-2.2-2.2-2.2h-9.3z" fill="#F74E00" p-id="43762"></path><path d="M922.3 275.3a5.7 6.3 0 1 0 11.4 0 5.7 6.3 0 1 0-11.4 0Z" fill="#3268CF" p-id="43763"></path></svg>