<?xml version="1.0" standalone="no"?><!DOCTYPE svg PUBLIC "-//W3C//DTD SVG 1.1//EN" "http://www.w3.org/Graphics/SVG/1.1/DTD/svg11.dtd"><svg t="1784019601029" class="icon" viewBox="0 0 1024 1024" version="1.1" xmlns="http://www.w3.org/2000/svg" p-id="32254" xmlns:xlink="http://www.w3.org/1999/xlink" width="200" height="200"><path d="M442.488349 660.360689c0 39.827064 30.661901 72.10537 68.474164 72.10537 37.822638 0 68.474164-32.288681 68.474164-72.10537V566.468085H442.488349v93.892604z" fill="#EBB383" p-id="32255"></path><path d="M751.659574 853.852077v170.147923H273.377913V853.852077c0-104.753021 81.280908-190.521062 184.216251-197.676612L512 712.235056l55.168389-56.079303C670.232381 663.177467 751.659574 749.005682 751.659574 853.852077z" fill="#9EDDF3" p-id="32256"></path><path d="M751.659574 853.852077v170.147923H580.474164l0.001038-366.487214C677.155534 670.672276 751.659574 753.561289 751.659574 853.852077zM438.252288 658.475574l4.236061 0.42537L442.487311 1024H273.377913V853.852077c0-98.09754 71.281605-179.546521 164.874375-195.376503z" fill="#FFFFFF" p-id="32257"></path><path d="M249.515704 376.607903c0 30.367254 24.619574 54.986829 54.986829 54.986829s54.986829-24.619574 54.986829-54.986829-24.619574-54.986829-54.986829-54.986829-54.986829 24.619574-54.986829 54.986829z" fill="#EFC29B" p-id="32258"></path><path d="M278.56535 376.601678a25.937183 25.937183 0 1 0 51.874366 0.007262c0-14.32355-11.609483-25.936146-25.933033-25.938221-14.324588-0.002075-25.937183 11.607408-25.941333 25.930959z" fill="#E89E80" opacity=".5" p-id="32259"></path><path d="M664.510638 376.607903c0 30.367254 24.619574 54.986829 54.986829 54.986829s54.986829-24.619574 54.986829-54.986829-24.619574-54.986829-54.986829-54.986829-54.986829 24.619574-54.986829 54.986829z" fill="#EFC29B" p-id="32260"></path><path d="M693.560284 376.601678a25.937183 25.937183 0 1 0 51.874366 0.007262c0-14.32355-11.609483-25.936146-25.933033-25.938221-14.324588-0.002075-25.937183 11.607408-25.941333 25.930959z" fill="#E89E80" opacity=".5" p-id="32261"></path><path d="M508.084523 44.611955h7.830954C628.351092 44.611955 719.497467 137.086314 719.497467 251.161159v139.023303C719.497467 506.451518 626.597739 600.705167 512 600.705167h-3.915477C395.648908 600.705167 304.502533 508.230809 304.502533 394.155964V251.161159C304.502533 137.086314 395.648908 44.611955 508.084523 44.611955z" fill="#F6D1B1" p-id="32262"></path><path d="M391.838217 376.933674c0 14.038241 11.612596 25.41844 25.937183 25.418439 14.325625 0 25.937183-11.380199 25.937184-25.418439 0-14.037204-11.611558-25.41844-25.937184-25.41844-14.324588 0-25.937183 11.381236-25.937183 25.41844zM578.585937 376.933674c0 14.038241 11.612596 25.41844 25.937184 25.418439 14.325625 0 25.937183-11.380199 25.937183-25.418439 0-14.037204-11.611558-25.41844-25.937183-25.41844-14.324588 0-25.937183 11.381236-25.937184 25.41844z" fill="#1D2030" p-id="32263"></path><path d="M567.313637 310.734719c24.194205-20.135554 49.956053-26.035745 76.569678-17.457799a6.224924 6.224924 0 1 1-3.818991 11.85018c-22.467826-7.241662-43.826578-2.26691-64.786934 15.177403a6.224924 6.224924 0 0 1-7.963753-9.569784zM456.975822 310.734719a6.224924 6.224924 0 0 1-7.963753 9.569784c-20.960357-17.444312-42.319108-22.420101-64.786934-15.17844a6.224924 6.224924 0 0 1-3.818991-11.848106c26.613625-8.58002 52.374436-2.678792 76.569678 17.456762z" fill="#142736" p-id="32264"></path><path d="M513.037487 508.165447c5.31401 0 14.76967-5.501795 28.358679-8.869479 2.074975-0.513556 4.363672-0.270784 6.14815 0.650504 1.784478 0.921289 2.842715 2.409046 2.842715 3.994326v4.309723c0 2.08535-1.821828 3.942452-4.543157 4.632381C529.57296 517.011064 518.639919 522.893617 513.037487 522.893617c-5.602432 0-16.535473-5.882553-32.806387-10.011753-2.721329-0.688892-4.543157-2.545994-4.543157-4.631343v-4.309723c0-1.585281 1.058237-3.073037 2.842716-3.994326 1.784478-0.921289 4.074213-1.164061 6.14815-0.650504 13.591084 3.367684 23.044669 8.870517 28.358678 8.870516z" fill="#E28059" p-id="32265"></path><path d="M327.562764 101.272251C291.440567 86.61463 273.377913 98.48141 273.377913 136.872592 273.377913 194.458326 273.377913 336.145897 300.470857 336.145897c27.091907 0 21.368089-168.072948 98.632884-168.072949 77.263757 0 84.391295 46.349747 192.811833 0s82.500993 168.072948 129.49917 168.072949c46.999214 0 61.715972-301.114099-48.149788-313.155178C563.397123 10.951716 419.981098-7.797755 384.957601 3.47247c-36.397131 9.306261-55.528397 41.906188-57.3938 97.800819z" fill="#142736" p-id="32266"></path><path d="M442.488349 655.691996l136.948328 141.098278v-31.666189L442.488349 628.461066z" fill="#E0F7FF" p-id="32267"></path><path d="M580.474164 628.461066V655.691996l-60.568511 62.404863-12.963404-16.256389L580.474164 628.461066z" fill="#E0F7FF" p-id="32268"></path><path d="M442.486274 638.023587l0.001037 19.452887c-33.494241 21.275753-56.731882 57.252701-60.63076 98.851793h-16.705621c4.09185-51.242537 34.313856-95.120989 77.334306-118.30468z m210.757252 84.787615l-15.928543 2.086387c-10.448535-29.593289-31.169232-54.337362-57.877269-69.950509v-18.553386c34.79525 17.693309 61.651647 48.753605 73.806849 86.417508z" fill="#949FA8" p-id="32269"></path><path d="M371.93921 753.215805m-29.049646 0a29.049645 29.049645 0 1 0 58.099291 0 29.049645 29.049645 0 1 0-58.099291 0Z" fill="#485D6E" p-id="32270"></path><path d="M647.392097 715.866261c23.77921 0 43.055724 19.276515 43.055725 43.055725V773.965552h-10.374874v-15.043566c0-18.049167-14.631684-32.680851-32.680851-32.680851-17.868644 0-32.38828 14.34015-32.676701 32.141357l-0.00415 0.539494V773.965552h-10.374873v-15.043566c0-23.77921 19.276515-43.055724 43.055724-43.055725z" fill="#485D6E" p-id="32271"></path><path d="M609.52381 773.965552m-8.299899 0a8.299899 8.299899 0 1 0 16.599797 0 8.299899 8.299899 0 1 0-16.599797 0Z" fill="#485D6E" p-id="32272"></path><path d="M685.260385 773.965552m-8.299899 0a8.299899 8.299899 0 1 0 16.599798 0 8.299899 8.299899 0 1 0-16.599798 0Z" fill="#485D6E" p-id="32273"></path></svg>