<?xml version="1.0" standalone="no"?><!DOCTYPE svg PUBLIC "-//W3C//DTD SVG 1.1//EN" "http://www.w3.org/Graphics/SVG/1.1/DTD/svg11.dtd"><svg t="1784019465328" class="icon" viewBox="0 0 1024 1024" version="1.1" xmlns="http://www.w3.org/2000/svg" p-id="16567" xmlns:xlink="http://www.w3.org/1999/xlink" width="200" height="200"><path d="M263.124 517.477c-66.816 7.832-135.16 41.284-142.486 115.762-8.503 86.443 42.514 134.621 114.782 151.627 70.852 17.006 137.452 0 195.556-28.338 58.101-28.338 114.777-92.107 114.777-92.107L846.17 810.375s18.424-28.338 32.596-55.262c14.171-26.928 25.504-56.685 25.504-56.685L591.103 593.562l0.004-0.004s19.839-28.338 39.675-85.019c21.254-56.686 24.089-101.859 24.089-101.859l-161.546-1.419v-55.267l195.556-1.415v-45.676H493.326v-89.278h-96.362v87.858H211.331v45.676l182.8-1.415v59.516H248.177v45.178h301.835s-2.838 25.508-14.176 56.682c-12.752 31.177-24.085 58.1-24.085 58.1s-93.172-32.61-168.457-44.946" fill="#E7402E" p-id="16568"></path><path d="M846.164 823.375c-1.914 0-3.851-0.423-5.674-1.309L548.749 680.328c-17.012 17.946-63.54 64.211-112.074 87.883-32.911 16.051-65.372 26.918-96.481 32.299-36.751 6.357-73.023 5.346-107.809-3.004-87.54-20.599-133.007-80.941-124.685-165.54 3.717-37.786 22.515-69.672 54.361-92.212 32.919-23.299 72.305-31.996 99.548-35.189 7.134-0.837 13.589 4.268 14.425 11.398 0.836 7.131-4.267 13.589-11.398 14.425-36.75 4.308-123.09 23.077-131.062 104.123-9.455 96.124 61.616 127.533 104.822 137.7 58.989 14.158 120.099 5.202 186.88-27.368 55.152-26.9 110.21-88.44 110.759-89.059a13 13 0 0 1 15.397-3.057l289.969 140.878c6.522-10.463 17.087-27.882 25.859-44.548 8.073-15.339 15.255-31.764 19.798-42.683L586.975 605.889a13 13 0 0 1-6.467-19.86c1.096-1.609 19.603-29.202 38.004-81.784 0.032-0.09 0.064-0.181 0.098-0.27 13.528-36.081 19.351-67.381 21.742-84.422l-147.14-1.293c-7.135-0.063-12.886-5.864-12.886-13v-55.267c0-7.143 5.763-12.948 12.906-13l182.651-1.321v-19.77H493.326c-7.18 0-13-5.82-13-13v-76.278h-70.361v74.858c0 7.18-5.82 13-13 13H224.331v19.575l169.699-1.313c3.455-0.052 6.798 1.331 9.257 3.771a13 13 0 0 1 3.843 9.228v59.516c0 7.18-5.82 13-13 13H261.177v19.178h288.835a13.002 13.002 0 0 1 12.921 14.438c-0.123 1.104-3.146 27.424-14.879 59.687-0.059 0.161-0.12 0.32-0.185 0.479-12.631 30.881-24.022 57.952-24.135 58.222-2.665 6.33-9.793 9.494-16.276 7.227-0.921-0.323-93.003-32.383-166.265-44.387-7.085-1.161-11.888-7.846-10.727-14.931 1.161-7.085 7.842-11.889 14.931-10.727 60.701 9.946 131.56 32.423 159.049 41.567a7088.296 7088.296 0 0 0 19.26-46.573c5.542-15.284 8.948-29.2 10.938-39.001H248.177c-7.18 0-13-5.82-13-13V405.26c0-7.18 5.82-13 13-13h132.954v-33.415l-169.699 1.313a13 13 0 0 1-13.1-12.999v-45.676c0-7.18 5.82-13 13-13h172.634v-74.858c0-7.18 5.82-13 13-13h96.361c7.18 0 13 5.82 13 13v76.278h182.557c7.18 0 13 5.82 13 13v45.676c0 7.143-5.763 12.948-12.906 13L506.327 362.9v29.475l148.66 1.306a13 13 0 0 1 12.86 13.814c-0.121 1.922-3.202 47.702-24.841 105.474-12.196 34.822-24.407 59.272-32.347 73.434l297.74 99.699a13.001 13.001 0 0 1 8.021 16.954c-0.474 1.245-11.777 30.805-26.148 58.113-14.287 27.142-32.436 55.116-33.201 56.293a13.005 13.005 0 0 1-10.907 5.913z" fill="#3D100B" p-id="16569"></path><path d="M282.187 739.963c-106.279 0-127.538-52.432-127.538-89.278 0-36.846 22.674-77.936 111.948-83.605 89.278-5.668 211.143 63.769 211.143 63.769s-89.278 109.114-195.553 109.114z" fill="#F4DD50" p-id="16570"></path><path d="M381.867 642.912c-1.647 0-3.321-0.273-4.963-0.849a499.664 499.664 0 0 0-14.183-4.737 447.987 447.987 0 0 0-11.158-3.382c-7.959-2.298-12.548-10.613-10.25-18.572 2.298-7.96 10.617-12.547 18.572-10.25a478.664 478.664 0 0 1 11.905 3.608 527.113 527.113 0 0 1 15.038 5.023c7.818 2.74 11.934 11.3 9.193 19.118-2.165 6.175-7.961 10.041-14.154 10.041zM187.317 644.216c-4.843 0-9.596-2.341-12.487-6.67-4.601-6.889-2.747-16.204 4.143-20.805 20.996-14.023 50.157-22.31 86.674-24.628 9.546-0.607 19.831-0.44 30.568 0.495 8.253 0.718 14.361 7.991 13.643 16.244s-7.982 14.367-16.244 13.643c-9.244-0.805-18.014-0.954-26.065-0.442-31.173 1.979-55.368 8.586-71.913 19.636a14.943 14.943 0 0 1-8.319 2.527z" fill="#FFFFFF" p-id="16571"></path></svg>