<?xml version="1.0" standalone="no"?><!DOCTYPE svg PUBLIC "-//W3C//DTD SVG 1.1//EN" "http://www.w3.org/Graphics/SVG/1.1/DTD/svg11.dtd"><svg t="1784020269326" class="icon" viewBox="0 0 1024 1024" version="1.1" xmlns="http://www.w3.org/2000/svg" p-id="102123" xmlns:xlink="http://www.w3.org/1999/xlink" width="200" height="200"><path d="M509.9008 513.1264m-450.816 0a450.816 450.816 0 1 0 901.632 0 450.816 450.816 0 1 0-901.632 0Z" fill="#E9F4FF" p-id="102124"></path><path d="M720.5376 240.7424h-413.184c-42.0352 0-76.1344 34.0992-76.1344 76.1344v311.1936c0 42.0352 34.0992 76.1344 76.1344 76.1344h174.6944v47.104h-75.776a31.8976 31.8976 0 0 0 0 63.7952h215.296a31.8976 31.8976 0 0 0 0-63.7952h-75.776v-47.104h174.6944c42.0352 0 76.1344-34.0992 76.1344-76.1344V316.8768c0.0512-42.0352-34.048-76.1344-76.0832-76.1344z m-20.8384 235.4688a31.8976 31.8976 0 0 1-63.7952 0v-12.2368l-99.1232 97.9456a31.90784 31.90784 0 0 1-45.056-0.256l-33.8944-34.2016L376.32 601.088a31.63136 31.63136 0 0 1-21.3504 8.2432c-8.704 0-17.3568-3.5328-23.6544-10.496a31.85664 31.85664 0 0 1 2.304-45.056L437.76 459.7248a31.86688 31.86688 0 0 1 44.032 1.2288l32.9216 33.2288 72.1408-71.3216-9.0624-0.1536a31.86176 31.86176 0 0 1-31.3344-32.4096c0.3072-17.408 14.4896-31.3344 31.8464-31.3344h0.5632l89.5488 1.536c17.408 0.3072 31.3344 14.4896 31.3344 31.8976v83.8144z" fill="#2595E8" p-id="102125"></path><path d="M720.2816 240.7424H307.3536c-42.0352 0-76.1344 34.0992-76.1344 76.1344v311.1936c0 42.0352 34.0992 76.1344 76.1344 76.1344h174.6944v47.104h-75.776a31.8976 31.8976 0 0 0-31.8976 31.8976c0 13.3632 8.2432 24.832 19.9168 29.5424a448.26624 448.26624 0 0 0 151.5008-67.6352v-40.8576h50.7904c88.4224-82.3296 143.7696-199.68 143.7696-330.0352 0-46.4896-7.0144-91.2896-20.0704-133.4784z m-52.48 267.3152A31.8976 31.8976 0 0 1 635.904 476.16v-12.2368l-99.1232 97.9456a31.90784 31.90784 0 0 1-45.056-0.256l-33.8944-34.2016L376.32 601.088a31.63136 31.63136 0 0 1-21.3504 8.2432c-8.704 0-17.3568-3.5328-23.6544-10.496a31.85664 31.85664 0 0 1 2.304-45.056L437.76 459.7248a31.86688 31.86688 0 0 1 44.032 1.2288l32.9216 33.2288 72.1408-71.3216-9.0624-0.1536a31.86176 31.86176 0 0 1-31.3344-32.4096c0.3072-17.408 14.4896-31.3344 31.8464-31.3344h0.5632l89.5488 1.536c17.408 0.3072 31.3344 14.4896 31.3344 31.8976v83.8656c-0.0512 17.5616-14.336 31.7952-31.9488 31.7952z" fill="#3A9CED" p-id="102126"></path><path d="M231.2704 316.8768v311.1936c0 11.1104 2.4064 21.6064 6.7072 31.1296 90.4192-14.4384 171.8784-55.808 235.8784-115.6096l-15.9744-16.128L376.32 601.088a31.63136 31.63136 0 0 1-21.3504 8.2432c-8.704 0-17.3568-3.5328-23.6544-10.496a31.85664 31.85664 0 0 1 2.304-45.056L437.76 459.7248a31.86688 31.86688 0 0 1 44.032 1.2288l32.9216 33.2288 18.944-18.7392c12.3904-17.408 23.552-35.6864 33.4336-54.784a31.872 31.872 0 0 1 11.2128-61.696h0.5632l14.336 0.256a448.512 448.512 0 0 0 23.04-118.4256H307.3536c-42.0352-0.0512-76.0832 34.048-76.0832 76.0832z" fill="#59ADF8" p-id="102127"></path><path d="M231.2704 316.8768v151.7568c102.912-44.3904 185.9584-126.0032 232.2432-227.8912h-156.16c-42.0352 0-76.0832 34.0992-76.0832 76.1344z" fill="#6BC2FC" p-id="102128"></path></svg>