<svg t="1783940107188" class="icon" viewBox="0 0 1024 1024" version="1.1" xmlns="http://www.w3.org/2000/svg" p-id="44311"><path d="M42.666667 516.693333A469.333333 469.333333 0 1 0 512 52.053333 469.333333 469.333333 0 0 0 42.666667 516.693333z" fill="#F8C913" p-id="44312"></path><path d="M654.933333 12.373333a217.173333 217.173333 0 0 1-105.386666 49.493334 409.6 409.6 0 0 0-128 39.68 184.746667 184.746667 0 0 0-42.666667 29.866666c-20.053333 17.493333-34.986667 49.493333-30.293333 59.733334s50.346667 72.106667 107.946666 154.026666 113.066667 159.146667 125.44 176.213334a269.226667 269.226667 0 0 1 20.053334 32.426666c0 2.56-10.24 0-20.053334-2.56a256 256 0 0 0-160.426666 24.746667 260.266667 260.266667 0 0 0-97.706667 96.853333 170.666667 170.666667 0 0 0-7.68 131.84 183.893333 183.893333 0 0 0 90.453333 94.293334 146.346667 146.346667 0 0 0 82.773334 20.053333 221.866667 221.866667 0 0 0 75.093333-5.12 216.32 216.32 0 0 0 165.546667-183.893333c2.56-47.36-2.56-62.293333-65.28-170.666667-97.706667-170.666667-185.6-322.986667-185.6-325.546667l40.106666-5.12a165.973333 165.973333 0 0 0 145.493334-85.333333c12.373333-22.186667 12.373333-29.866667 12.373333-77.226667a221.44 221.44 0 0 0-5.12-59.733333c-2.133333-8.96-4.266667-6.4-17.066667 5.973333z" fill="#02B053" p-id="44313"></path></svg>
