<?xml version="1.0" standalone="no"?><!DOCTYPE svg PUBLIC "-//W3C//DTD SVG 1.1//EN" "http://www.w3.org/Graphics/SVG/1.1/DTD/svg11.dtd"><svg t="1784020570884" class="icon" viewBox="0 0 1024 1024" version="1.1" xmlns="http://www.w3.org/2000/svg" p-id="125387" xmlns:xlink="http://www.w3.org/1999/xlink" width="200" height="200"><path d="M735.9 64.3H288.1c-123.6 0-223.9 100.2-223.9 223.9V736c0 123.6 100.2 223.9 223.9 223.9h447.8c97.2 0 179.9-61.9 210.8-148.5 8.4-23.6 13-48.9 13-75.4V512.1 422 288.3c0-123.8-100.2-224-223.8-224z" fill="#669DFF" p-id="125388"></path><path d="M959.7 512v-90.1l-391-64.5 49 397.2 329 56.7c8.4-23.6 13-48.9 13-75.4V512z" fill="#423709" opacity=".2" p-id="125389"></path><path d="M550.1 333.6h-0.7c-2.9 0-5.3-2.4-5.3-5.3v-52.5c0-2.9 2.4-5.3 5.3-5.3h0.7c2.9 0 5.3 2.4 5.3 5.3v52.5c0 2.9-2.4 5.3-5.3 5.3zM467.3 368.8l-0.5 0.5c-2 2-5.4 2-7.4 0l-37.1-37.1c-2-2-2-5.4 0-7.4l0.5-0.5c2-2 5.4-2 7.4 0l37.1 37.1c2.1 2 2.1 5.3 0 7.4zM433.6 452.2v0.7c0 2.9-2.4 5.3-5.3 5.3h-52.5c-2.9 0-5.3-2.4-5.3-5.3v-0.7c0-2.9 2.4-5.3 5.3-5.3h52.5c3 0 5.3 2.4 5.3 5.3zM468.8 535l0.5 0.5c2 2 2 5.4 0 7.4L432.2 580c-2 2-5.4 2-7.4 0l-0.5-0.5c-2-2-2-5.4 0-7.4l37.1-37.1c2-2.1 5.4-2.1 7.4 0zM552.2 568.7h0.7c2.9 0 5.3 2.4 5.3 5.3v52.5c0 2.9-2.4 5.3-5.3 5.3h-0.7c-2.9 0-5.3-2.4-5.3-5.3V574c0.1-3 2.4-5.3 5.3-5.3zM635 533.5l0.5-0.5c2-2 5.4-2 7.4 0l37.1 37.1c2 2 2 5.4 0 7.4l-0.5 0.5c-2 2-5.4 2-7.4 0L635 540.9c-2-2-2-5.4 0-7.4zM668.7 450.1v-0.7c0-2.9 2.4-5.3 5.3-5.3h52.5c2.9 0 5.3 2.4 5.3 5.3v0.7c0 2.9-2.4 5.3-5.3 5.3H674c-2.9-0.1-5.3-2.4-5.3-5.3zM633.5 367.3l-0.5-0.5c-2-2-2-5.4 0-7.4l37.1-37.1c2-2 5.4-2 7.4 0l0.5 0.5c2 2 2 5.4 0 7.4l-37 37.1c-2.1 2-5.4 2-7.5 0z" fill="#FEDA14" p-id="125390"></path><path d="M551.2 451.1m-95.1 0a95.1 95.1 0 1 0 190.2 0 95.1 95.1 0 1 0-190.2 0Z" fill="#DB4D29" p-id="125391"></path><path d="M456 507.1m-78.4 0a78.4 78.4 0 1 0 156.8 0 78.4 78.4 0 1 0-156.8 0Z" fill="#FFFFFF" p-id="125392"></path><path d="M640.7 753.4c83.5 0 151.1-67.7 151.1-151.1s-67.7-151.1-151.1-151.1c-66 0-122.1 42.3-142.7 101.3-22.7-46.7-70.5-78.9-126-78.9-77.3 0-139.9 62.6-139.9 139.9S294.7 753.4 372 753.4" fill="#FFFFFF" p-id="125393"></path></svg>