<?xml version="1.0" standalone="no"?><!DOCTYPE svg PUBLIC "-//W3C//DTD SVG 1.1//EN" "http://www.w3.org/Graphics/SVG/1.1/DTD/svg11.dtd"><svg t="1784019536040" class="icon" viewBox="0 0 1331 1024" version="1.1" xmlns="http://www.w3.org/2000/svg" p-id="24332" xmlns:xlink="http://www.w3.org/1999/xlink" width="259.9609375" height="200"><path d="M1211.111921 328.365543L789.685952 215.444795a127.5904 127.5904 0 0 0-156.265688 90.220037L520.499517 727.0908a127.5904 127.5904 0 0 0 90.220037 156.265688L1032.145522 996.277236A127.5904 127.5904 0 0 0 1188.41121 906.057199L1301.331958 484.631231A127.5904 127.5904 0 0 0 1211.111921 328.365543z" fill="#E76C48" p-id="24333"></path><path d="M909.575033 599.918461m-111.738062 64.512a129.024 129.024 0 1 1 223.476124-129.024 129.024 129.024 0 1 1-223.476124 129.024Z" fill="#FFE1E1" p-id="24334"></path><path d="M132.437333 123.767467L685.329067 6.2464a165.2736 165.2736 0 0 1 196.027733 127.317333l117.521067 552.8576a165.2736 165.2736 0 0 1-127.317334 196.027734L318.702933 999.970133a165.2736 165.2736 0 0 1-196.061866-127.317333L5.154133 319.829333a165.2736 165.2736 0 0 1 127.317334-196.061866z" fill="#FF8663" p-id="24335"></path><path d="M387.140267 681.233067a92.672 92.672 0 1 1-100.932267 155.4432 92.672 92.672 0 0 1 100.932267-155.4432z m163.498666-251.8016a92.672 92.672 0 1 1-100.932266 155.4432 92.672 92.672 0 0 1 100.9664-155.4432z m163.5328-251.8016a92.672 92.672 0 1 1-100.932266 155.4432 92.672 92.672 0 0 1 100.932266-155.4432z" fill="#FFFFFF" p-id="24336"></path></svg>