<?xml version="1.0" standalone="no"?><!DOCTYPE svg PUBLIC "-//W3C//DTD SVG 1.1//EN" "http://www.w3.org/Graphics/SVG/1.1/DTD/svg11.dtd"><svg t="1784020176325" class="icon" viewBox="0 0 1024 1024" version="1.1" xmlns="http://www.w3.org/2000/svg" p-id="92172" xmlns:xlink="http://www.w3.org/1999/xlink" width="200" height="200"><path d="M880 275.52V896a48 48 0 0 1-48 48H224a48 48 0 0 1-48-42.08 36.96 36.96 0 0 1 0-5.92V128a48 48 0 0 1 48-48h460.16a48 48 0 0 1 28.32 9.28 32 32 0 0 1 5.76 4.8l147.84 147.84a43.04 43.04 0 0 1 9.12 13.12 44.8 44.8 0 0 1 4.8 20.48z" fill="#72CAAF" p-id="92173"></path><path d="M881.28 464l-480 480h-224v-70.56l-1.28-80 1.28-1.28 618.88-620.48 69.92 69.92a43.04 43.04 0 0 1 9.12 13.12l4.8 170.56zM760.8 136.48L177.28 720 176 676.48l-1.28-49.92 1.28-1.28L712.48 88.96a32 32 0 0 1 5.76 4.8zM174.88 530.56L625.28 80.16h48L174.88 578.56v-48z" fill="#82D8BB" p-id="92174"></path><path d="M328 240.64l-19.84 36.16L272 296.64l36.16 19.84 19.84 36.16 19.84-36.16L384 296.64l-36.16-19.84-19.84-36.16zM569.28 160.64l-13.6 24.96-25.12 13.76 25.12 13.6 13.6 25.12 13.76-25.12 24.96-13.6-24.96-13.76-13.76-24.96zM805.6 672.64l-9.28 16.96-16.96 9.44 16.96 9.28 9.28 17.12 9.44-17.12 16.96-9.28-16.96-9.44-9.44-16.96z" fill="#97E0BB" p-id="92175"></path><path d="M688 80.64v192h192l-192-192z" fill="#FFEFB8" p-id="92176"></path><path d="M872.64 225.92l-138.56-138.56A80 80 0 0 0 677.44 64H208a48 48 0 0 0-48 48v800a48 48 0 0 0 48 48h640a48 48 0 0 0 48-48V282.56a80 80 0 0 0-23.36-56.64z m-22.56 22.56a48 48 0 0 1 6.08 7.36H720a16 16 0 0 1-16-16V104a48 48 0 0 1 7.36 6.08zM848 928H208a16 16 0 0 1-16-16V112a16 16 0 0 1 16-16h464v144a48 48 0 0 0 48 48h144v624a16 16 0 0 1-16 16z" fill="#8D6C9F" p-id="92177"></path><path d="M240 800a16 16 0 0 0-16 16v32a16 16 0 0 0 32 0v-32a16 16 0 0 0-16-16zM320 800a16 16 0 0 0-16 16v32a16 16 0 0 0 32 0v-32a16 16 0 0 0-16-16zM400 800a16 16 0 0 0-16 16v32a16 16 0 0 0 32 0v-32a16 16 0 0 0-16-16zM480 800a16 16 0 0 0-16 16v32a16 16 0 0 0 32 0v-32a16 16 0 0 0-16-16zM560 800a16 16 0 0 0-16 16v32a16 16 0 0 0 32 0v-32a16 16 0 0 0-16-16zM640 800a16 16 0 0 0-16 16v32a16 16 0 0 0 32 0v-32a16 16 0 0 0-16-16zM720 800a16 16 0 0 0-16 16v32a16 16 0 0 0 32 0v-32a16 16 0 0 0-16-16zM800 800a16 16 0 0 0-16 16v32a16 16 0 0 0 32 0v-32a16 16 0 0 0-16-16z" fill="#8D6C9F" p-id="92178"></path><path d="M720 448H432a16 16 0 0 0 0 32h288a16 16 0 0 0 0-32zM720 544H432a16 16 0 0 0 0 32h288a16 16 0 0 0 0-32zM720 640H432a16 16 0 0 0 0 32h288a16 16 0 0 0 0-32z" fill="#FFFFFF" p-id="92179"></path><path d="M352 464m-32 0a32 32 0 1 0 64 0 32 32 0 1 0-64 0Z" fill="#FFFFFF" p-id="92180"></path><path d="M352 560m-32 0a32 32 0 1 0 64 0 32 32 0 1 0-64 0Z" fill="#FFFFFF" p-id="92181"></path><path d="M352 656m-32 0a32 32 0 1 0 64 0 32 32 0 1 0-64 0Z" fill="#FFFFFF" p-id="92182"></path></svg>