<?xml version="1.0" standalone="no"?><!DOCTYPE svg PUBLIC "-//W3C//DTD SVG 1.1//EN" "http://www.w3.org/Graphics/SVG/1.1/DTD/svg11.dtd"><svg t="1784020813749" class="icon" viewBox="0 0 1024 1024" version="1.1" xmlns="http://www.w3.org/2000/svg" p-id="4045" xmlns:xlink="http://www.w3.org/1999/xlink" width="200" height="200"><path d="M476.1088 820.6848h178.5856c1.536 0 3.0208 0.4096 4.352 1.1776l148.7872 86.016c14.7456 8.4992 33.1776-2.0992 33.2288-19.0976l0.1536-59.392c0-4.8128 3.8912-8.6528 8.704-8.6528h-6.2976c75.5712 0 136.8576-61.2864 136.8576-136.8576V404.1728c0-75.5712-61.2864-136.8576-136.8576-136.8576H476.1088c-75.5712 0-136.8576 61.2864-136.8576 136.8576v279.7056c0 75.5712 61.2864 136.8064 136.8576 136.8064z" fill="#69EDB7" p-id="4046"></path><path d="M723.456 712.4992H423.8336c-1.536 0-3.0208 0.4096-4.352 1.1776l-148.7872 86.016c-14.7456 8.4992-33.1776-2.0992-33.2288-19.0976l-0.1536-59.392c0-4.8128-3.8912-8.6528-8.704-8.6528h-41.0624c-75.5712 0-136.8576-61.2864-136.8576-136.8576V265.2672c0-75.5712 61.2864-136.8576 136.8576-136.8576H723.456c75.5712 0 136.8576 61.2864 136.8576 136.8576v310.4256c-0.0512 75.5712-61.2864 136.8064-136.8576 136.8064z" fill="#4BE2AC" p-id="4047"></path><path d="M476.1088 267.3152c-75.5712 0-136.8576 61.2864-136.8576 136.8576v279.7056c0 24.064 6.2464 46.6432 17.1008 66.2528l63.0784-36.4544c1.3312-0.768 2.816-1.1776 4.352-1.1776h299.6224c75.5712 0 136.8576-61.2864 136.8576-136.8576V295.9872c0-9.5744 0.1536-17.5616 0-27.5456-4.5568-0.4608-11.9808-1.0752-16.64-1.0752H476.1088z" fill="#06CC76" p-id="4048"></path><path d="M250.624 403.9168m-56.9344 0a56.9344 56.9344 0 1 0 113.8688 0 56.9344 56.9344 0 1 0-113.8688 0Z" fill="#FFFFFF" p-id="4049"></path><path d="M458.3424 403.9168m-56.9344 0a56.9344 56.9344 0 1 0 113.8688 0 56.9344 56.9344 0 1 0-113.8688 0Z" fill="#FFFFFF" p-id="4050"></path><path d="M668.3136 403.9168m-56.9344 0a56.9344 56.9344 0 1 0 113.8688 0 56.9344 56.9344 0 1 0-113.8688 0Z" fill="#FFFFFF" p-id="4051"></path></svg>