<?xml version="1.0" standalone="no"?><!DOCTYPE svg PUBLIC "-//W3C//DTD SVG 1.1//EN" "http://www.w3.org/Graphics/SVG/1.1/DTD/svg11.dtd"><svg t="1784020559625" class="icon" viewBox="0 0 1161 1024" version="1.1" xmlns="http://www.w3.org/2000/svg" p-id="124132" xmlns:xlink="http://www.w3.org/1999/xlink" width="226.7578125" height="200"><path d="M781.833075 1023.972803H440.345543a440.075272 440.075272 0 1 1 399.450324-624.247368 314.460894 314.460894 0 0 1-57.962792 624.247368zM440.345543 220.312747a363.584784 363.584784 0 0 0 0 727.169569h341.487532a238.480343 238.480343 0 0 0 87.964061-460.047789 441.94504 441.94504 0 0 1-13.853277 241.624952 38.304736 38.304736 0 1 1-72.241016-25.496829 363.839753 363.839753 0 0 0-343.3573-483.249903z" fill="#0071BC" p-id="124133"></path><path d="M840.050835 399.725435a313.610999 313.610999 0 0 1 155.27569 77.425371A276.385629 276.385629 0 0 0 551.001782 157.930505a441.94504 441.94504 0 0 1 289.049053 241.79493zM576.838568 107.616762a38.160254 38.160254 0 0 1-27.026639-11.218605l-30.171247-30.171248a38.245244 38.245244 0 1 1 54.053277-54.053278l30.171248 30.171248a38.245244 38.245244 0 0 1-27.026639 65.271883zM952.066905 121.045092a38.245244 38.245244 0 0 1-31.786047-59.492602l21.587315-32.550952a38.304736 38.304736 0 1 1 63.742073 42.494716l-21.587315 32.550952a38.245244 38.245244 0 0 1-31.956026 16.997886z" fill="#65C8D0" p-id="124134"></path><path d="M1120.855914 430.066662h-2.97463l-45.894292-3.484567a38.35573 38.35573 0 1 1 5.86427-76.490488l45.894293 3.484567a38.270741 38.270741 0 0 1-2.889641 76.490488z" fill="#65C8D0" p-id="124135"></path></svg>