<?xml version="1.0" standalone="no"?><!DOCTYPE svg PUBLIC "-//W3C//DTD SVG 1.1//EN" "http://www.w3.org/Graphics/SVG/1.1/DTD/svg11.dtd"><svg t="1784019986738" class="icon" viewBox="0 0 1024 1024" version="1.1" xmlns="http://www.w3.org/2000/svg" p-id="75505" xmlns:xlink="http://www.w3.org/1999/xlink" width="200" height="200"><path d="M512 512m-512 0a512 512 0 1 0 1024 0 512 512 0 1 0-1024 0Z" fill="#5A91F7" p-id="75506"></path><path d="M691.584 709.12H345.6c-14.08 0-25.6-11.52-25.6-25.6V340.48c0-14.08 11.52-25.6 25.6-25.6h345.984c14.08 0 25.6 11.52 25.6 25.6v343.04c0 14.208-11.392 25.6-25.6 25.6zM567.04 441.6a6.0544 6.0544 0 0 0-4.864 2.048c-1.28 1.408-2.048 3.072-2.304 4.864l-18.56 158.464h35.2l19.712-165.504H567.04z m-95.488 119.808c-1.792 0-3.456 0.64-4.736 1.792-1.408 1.28-2.176 2.944-2.432 4.736l-2.048 13.696h10.88l-4.864 25.216h22.912c4.096 0 8.064-1.408 11.008-4.224 3.2-2.816 5.248-6.656 6.144-10.752l2.048-10.24h18.816c1.792 0 3.456-0.64 4.736-1.92 1.408-1.28 2.176-2.944 2.432-4.864l2.048-13.568h-24.192l10.88-55.68h14.08c1.664 0 3.2-0.64 4.48-1.792 1.28-1.152 2.176-2.688 2.304-4.352l1.792-13.312h-18.944l8.448-43.008h9.6c1.92 0 3.712-0.64 4.992-1.92 1.408-1.28 2.304-3.072 2.56-4.992l1.664-11.52h-15.36l2.048-10.88h-36.864l-2.304 10.88h-14.08c-1.92 0-3.712 0.768-4.992 2.048-1.408 1.408-2.432 3.2-2.816 5.12l-1.408 11.264h19.712l-8.192 43.008h-11.52c-1.664 0-3.2 0.64-4.352 1.792-1.28 1.152-2.048 2.688-2.304 4.352l-1.792 13.312h16l-10.88 55.68-5.504 0.128z m-13.44 17.024l-63.36 6.144c-2.304 0.384-4.352 1.664-5.76 3.456-1.28 1.792-2.048 3.968-2.304 6.144l-1.792 12.672 64.512-6.4c1.536-0.256 2.944-1.152 3.84-2.432 1.408-1.28 2.304-3.072 2.432-4.864l2.432-14.72z m111.232-164.352a6.3616 6.3616 0 0 0-4.864 1.92c-1.28 1.28-2.048 3.072-2.304 4.864l-1.408 12.288h51.2l-14.72 60.416c-0.256 1.28-0.128 2.688 0.64 3.84 0.64 1.152 1.792 1.792 3.072 1.792h3.328l-11.648 100.352h12.288c5.504 0.64 11.008-1.152 15.104-4.864 3.328-4.352 5.12-9.728 5.376-15.232l10.624-90.752a6.08 6.08 0 0 0-0.768-3.328 2.8544 2.8544 0 0 0-2.816-1.408h-4.352l15.616-59.52c0.384-2.56-0.256-5.248-1.792-7.424a6.9888 6.9888 0 0 0-6.144-3.072h-66.432z m-136.064 0.64a7.7824 7.7824 0 0 0-7.552 4.352l-31.104 64.768c-1.024 1.792-1.152 3.968-0.128 5.76 0.768 1.664 2.432 2.816 4.352 2.816h27.648l-34.432 62.72a7.04 7.04 0 0 0 0 6.4 3.84 3.84 0 0 0 3.712 2.688h0.384l64.256-8.192 3.456-18.688c0.128-0.768 0.128-1.536 0.128-2.304-0.128-0.64-0.128-1.28-0.256-2.048a4.5312 4.5312 0 0 0-3.328-1.28l-26.88 3.328h-0.512c-0.768 0-1.28-0.384-1.28-1.024 0-0.896 0.384-1.664 0.768-2.432l45.44-88.064h-24.32c-1.92 0-3.712 1.408-5.376 4.096l-14.336 29.696h-6.4c-0.64 0.128-1.408-0.256-1.792-0.768-0.512-0.768-0.384-1.92 0.384-3.84l27.776-57.856h-20.608z" fill="#FFFFFF" p-id="75507"></path><path d="M691.584 800H345.6c-14.08 0-25.6-11.52-25.6-25.6v-50.048h397.184v50.048a25.6 25.6 0 0 1-25.6 25.6z m-172.928-61.696c-13.184 0-23.936 10.752-23.936 23.936 0 13.184 10.752 23.936 23.936 23.936 13.184 0 23.936-10.752 23.936-23.936a23.9872 23.9872 0 0 0-23.936-23.936zM717.184 299.648H320V249.6c0-14.08 11.52-25.6 25.6-25.6h345.984c14.08 0 25.6 11.52 25.6 25.6v50.048z m-244.352-53.12c-8.448 0-15.232 6.784-15.232 15.232 0 8.448 6.784 15.232 15.232 15.232h91.648c8.448 0 15.232-6.784 15.232-15.232 0-8.448-6.784-15.232-15.232-15.232h-91.648z" fill="#D6E8FD" p-id="75508"></path></svg>