<?xml version="1.0" standalone="no"?><!DOCTYPE svg PUBLIC "-//W3C//DTD SVG 1.1//EN" "http://www.w3.org/Graphics/SVG/1.1/DTD/svg11.dtd"><svg t="1784020417894" class="icon" viewBox="0 0 1024 1024" version="1.1" xmlns="http://www.w3.org/2000/svg" p-id="111212" xmlns:xlink="http://www.w3.org/1999/xlink" width="200" height="200"><path d="M481.545 543.639c43.881 130.993-26.737 272.757-157.73 316.638S51.059 833.54 7.178 702.547l57.938-19.409c33.162 98.995 140.296 152.362 239.291 119.2 98.995-33.162 152.362-140.296 119.2-239.291l57.938-19.408zM600.592 564.335c-33.162 98.995 20.206 206.129 119.2 239.291s206.129-20.206 239.291-119.2l57.938 19.409c-43.881 130.993-185.645 201.611-316.638 157.73-130.993-43.881-201.611-185.645-157.73-316.638l57.939 19.408zM360.156 271.363h44.696v-50.02h28.207v50.02h47.366v27.55h-47.366v48.278h-27.551v-48.278h-45.352zM393.349 419.247c-2.345 2.345 1.372 9.866 8.304 16.797 6.931 6.931 14.452 10.649 16.797 8.304l178.061-178.062c2.345-2.345-1.372-9.866-8.304-16.797-6.931-6.931-14.452-10.649-16.797-8.304L393.349 419.247zM532.778 351.571h96.201v23.289h-96.201zM532.778 400.047h96.201v23.289h-96.201z" fill="#5AA5FF" p-id="111213"></path><path d="M755.731 328.878c0 141.443-114.662 256.105-256.105 256.105S243.521 470.321 243.521 328.878 358.183 72.773 499.626 72.773s256.105 114.662 256.105 256.105zM499.626 138.482c-105.153 0-190.396 85.243-190.396 190.396s85.243 190.396 190.396 190.396 190.396-85.243 190.396-190.396-85.243-190.396-190.396-190.396zM769.023 660.406l-20.856 26.833v59.129c0 3.342 0.482 5.913 1.478 7.68 0.964 1.767 2.635 3.149 5.013 4.113v5.174H711.5v-5.174c2.41-1.06 4.113-2.474 5.045-4.21 0.964-1.703 1.446-4.242 1.446-7.584V559.565c0-3.214-0.482-5.688-1.446-7.423-0.932-1.703-2.635-3.117-5.045-4.21v-5.174h43.158v5.174c-2.442 0.996-4.113 2.346-5.077 4.146-0.932 1.767-1.414 4.274-1.414 7.488v77.221l56.944-74.136c2.635-3.438 3.953-6.202 3.953-8.227 0-3.149-1.96-5.302-5.881-6.491v-5.174h56.558v5.174c-2.378 0.771-4.049 1.639-5.077 2.603-1.028 0.964-3.953 4.628-8.805 10.99l-7.809 10.315-47.046 60.254 53.313 102.319c4.949 9.48 8.516 15.586 10.701 18.349 2.185 2.732 4.949 4.531 8.259 5.399v5.174h-54.052v-5.174c3.567-1.189 5.367-3.214 5.367-6.138 0-1.51-1.607-5.495-4.852-11.954l-40.717-79.664z" fill="#5AA5FF" p-id="111214"></path><path d="M244.183 756.115h-24.698l-34.989-72.036-34.989 72.036h-24.698l48.367-92.618-43.222-83.357h24.698l29.844 63.804 29.844-63.804h24.698l-43.222 83.357 48.367 92.618zM376.936 580.14l-48.367 96.735v79.24H304.9v-79.24l-48.367-96.735h23.669l36.018 75.124h1.029l36.018-75.124h23.669z" fill="#5AA5FF" p-id="111215"></path></svg>