<svg t="1783940194313" class="icon" viewBox="0 0 1733 1024" version="1.1" xmlns="http://www.w3.org/2000/svg" p-id="46800"><path d="M1496.893598 0H0v1024h1733.340397V0z m197.114349 827.337748L1614.890949 904.19426 1537.130243 984.66755H197.114349L117.997351 904.19426 39.33245 827.337748V197.114349l78.664901-79.116998L197.114349 39.33245H1537.130243l78.6649 78.664901 78.664901 78.664901V827.337748z" fill="#A7BBF7" p-id="46801"></path><path d="M551.558499 464.75585V382.022075H358.513024v82.733775h23.509051V452.09713h145.575276v11.754526z m-27.577925-35.263576H382.022075v-27.577925h141.958499v27.577925z m0-62.841501V307.426049H382.022075v58.772626zM406.887417 326.866225h94.4883v19.892274H406.887417z" fill="#A7BBF7" p-id="46802"></path><path d="M361.677704 291.602649h180.838852v31.646799h23.509051V267.641501H338.620751v59.224724H361.677704z m31.646799-27.577925h23.509051v-15.823399h66.910375v15.823399h27.577925v-15.823399h59.224724V226.048565h-58.320529v-17.179691h-23.961148V226.048565H421.354525v-17.179691h-27.577925V226.048565h-58.772626v23.509051h58.772626z m279.848124 122.066225A796.595143 796.595143 0 0 0 632.935982 259.95585l-23.50905 7.685651a755.002208 755.002208 0 0 1 35.263576 126.135099l27.577925-7.685651z" fill="#A7BBF7" p-id="46803"></path><path d="M850.846799 425.4234h-78.664901V208.868874h-27.577924v216.554526h-31.6468V208.868874h-27.577925v216.554526h-78.6649V452.09713h244.13245z" fill="#A7BBF7" p-id="46804"></path><path d="M846.777925 267.641501l-23.509051-4.068874a636.552759 636.552759 0 0 1-39.33245 122.066225l23.509051 7.685651a796.595143 796.595143 0 0 0 39.33245-125.683002z m27.577925 86.802649l7.685651 23.509051a271.258278 271.258278 0 0 0 31.646799-11.754526v55.15585a10.398234 10.398234 0 0 1-11.754525 11.754526h-23.509051l7.685651 27.577925h27.577925c19.892274 0 27.577925-7.685651 27.577925-27.577925V354.44415a81.829581 81.829581 0 0 0 23.509051-7.685651v-27.577925a131.108168 131.108168 0 0 0-23.509051 11.754525v-45.209713h23.509051v-25.769536h-23.509051V208.868874h-27.577925v45.209713h-31.646799v27.577925h31.646799v61.033113c-15.371302 4.068874-27.577925 7.685651-39.33245 11.754525z m135.629139-27.577925a64.197792 64.197792 0 0 1-25.317439-10.398234l-7.685652 23.509051a361.677704 361.677704 0 0 1 31.6468 19.892274 155.521413 155.521413 0 0 1-45.209713 86.802649l19.892273 15.823399a160.494481 160.494481 0 0 0 51.086976-86.802649l23.509051 23.509051 15.823399-23.509051c-11.754525-7.685651-23.509051-19.892274-35.263576-27.577925a161.398675 161.398675 0 0 0 4.068874-45.209713v-27.125828h31.646799v66.910376a271.258278 271.258278 0 0 0 7.685652 94.4883 28.934216 28.934216 0 0 0 27.577925 23.509051c4.068874 0 7.685651-4.068874 19.892273-11.754526a193.045475 193.045475 0 0 0 11.754526-51.086975l-23.509051-11.754526-4.068874 27.577925c0 11.754525 0 15.8234-4.068874 15.8234s-7.685651-4.068874-7.685652-15.8234a264.928918 264.928918 0 0 1-4.068874-70.979249v-90.419426h-61.485209v-45.209713h-27.577925v45.209713h-31.6468v23.50905h31.6468v51.086976z m240.063576-110.3117h-84.090066v169.536424h82.733775zM1225.183223 361.677704h-35.263576V311.042826h35.263576z m4.068874-75.048123h-35.715673v-45.209713h35.263576zM1288.024724 406.887417a207.512583 207.512583 0 0 1 19.892274 59.224724l23.509051-7.685651A346.758499 346.758499 0 0 0 1311.081678 397.845475z m-59.224724 4.068874c4.068874 15.8234 7.685651 35.263576 11.754525 55.15585l23.509051-7.685651c-4.068874-19.892274-7.685651-39.33245-11.754525-55.15585z m94.4883-173.1532h45.209713a139.698013 139.698013 0 0 1-4.068874 27.577924q-5.877263 11.754525-11.754525 11.754526h-23.509051l7.685651 27.577925H1356.291391a31.194702 31.194702 0 0 0 31.646799-19.892274 213.841943 213.841943 0 0 0 7.685651-66.910375H1265.871965v19.892274h35.263576a66.006181 66.006181 0 0 1-45.209713 45.209713l15.823399 19.892273a80.925386 80.925386 0 0 0 51.99117-66.458278zM1347.249448 406.887417a578.23223 578.23223 0 0 1 35.263576 59.224724l18.98808-17.179691a316.467991 316.467991 0 0 0-35.263576-55.15585z m-188.9766 51.086976l23.50905 7.685651a174.057395 174.057395 0 0 0 23.509051-62.841501l-23.509051-4.068874a458.42649 458.42649 0 0 1-23.50905 58.32053z m228.30905-145.575276h-117.997351v73.691832h117.997351zM1363.072848 361.677704l-66.910376 4.068874v-31.646799h66.910376zM1339.1117 748.220751a117.997351 117.997351 0 1 0 117.997351-117.997351 117.997351 117.997351 0 0 0-117.997351 117.997351zM551.558499 630.2234h630.223399v39.33245H551.558499z m117.997351 117.997351h393.7766v39.33245h-393.7766z" fill="#A7BBF7" p-id="46805"></path></svg>
