<svg t="1783938025698" class="icon" viewBox="0 0 1024 1024" version="1.1" xmlns="http://www.w3.org/2000/svg" p-id="36929"><path d="M256 750.933333a458.752 458.752 0 0 0 30.037333 162.474667 460.117333 460.117333 0 0 0 656.725334-563.882667A460.458667 460.458667 0 0 0 256 750.933333z" fill="#3FE699" p-id="36930"></path><path d="M512 1024a512 512 0 1 1 512-512 512 512 0 0 1-512 512z m0-921.6a409.6 409.6 0 1 0 409.6 409.6A409.6 409.6 0 0 0 512 102.4z" fill="#2D515E" p-id="36931"></path><path d="M307.2 341.333333m51.2 0l0 0q51.2 0 51.2 51.2l0 102.4q0 51.2-51.2 51.2l0 0q-51.2 0-51.2-51.2l0-102.4q0-51.2 51.2-51.2Z" fill="#2D515E" p-id="36932"></path><path d="M614.4 341.333333m51.2 0l0 0q51.2 0 51.2 51.2l0 102.4q0 51.2-51.2 51.2l0 0q-51.2 0-51.2-51.2l0-102.4q0-51.2 51.2-51.2Z" fill="#2D515E" p-id="36933"></path></svg>