<?xml version="1.0" standalone="no"?><!DOCTYPE svg PUBLIC "-//W3C//DTD SVG 1.1//EN" "http://www.w3.org/Graphics/SVG/1.1/DTD/svg11.dtd"><svg t="1784019568506" class="icon" viewBox="0 0 1024 1024" version="1.1" xmlns="http://www.w3.org/2000/svg" p-id="27777" xmlns:xlink="http://www.w3.org/1999/xlink" width="200" height="200"><path d="M959.7 285.9c0-2.7-0.1-5.4-0.2-8.1C954 158.9 856 64.3 735.9 64.3H288.1c-123.6 0-223.9 100.2-223.9 223.9V736c0 123.6 100.2 223.9 223.9 223.9h447.8c65.5 0 124.4-28.1 165.4-73 6.2-6.7 11.9-13.9 17.2-21.3 26-36.6 41.4-81.3 41.4-129.6V512.1 288.2c-0.2-0.8-0.2-1.6-0.2-2.3z" fill="#669DFF" p-id="27778"></path><path d="M959.7 512V288.1c0-0.8 0-1.5-0.1-2.3l-354.4-53.7-24.8 24.9 12.4 24.9h31.1l6.2 24.9 18.7 31.1 56 24.9 43.5 62.2 18.7 93.3v24.9l-87.1-49.7v-49.7l12.4-62.2-31.1-18.7-31.1-18.7-12.4-49.7-31.1-12.4-18.7 6.2-24.9 143-37.3 261.2-125.1 98.7 537.7 74.4c26-36.6 41.4-81.3 41.4-129.6V512z" fill="#423709" opacity=".2" p-id="27779"></path><path d="M396.3 647.2m-144.7 0a144.7 144.7 0 1 0 289.4 0 144.7 144.7 0 1 0-289.4 0Z" fill="#FEDA14" p-id="27780"></path><path d="M396.3 647.2m-52.1 0a52.1 52.1 0 1 0 104.2 0 52.1 52.1 0 1 0-104.2 0Z" fill="#DB4D29" p-id="27781"></path><path d="M568.1 305l11.5-47.5-31-0.7-65.8 410.6c-1 6.3 3.3 12.3 9.6 13.3l31.7 5.1c6.3 1 12.3-3.3 13.3-9.6l59.9-374c-9.9 0.9-21.1 2-26.3 2.6-1.8 0.1-2.9 0.2-2.9 0.2z" fill="#FEDA14" p-id="27782"></path><path d="M743.8 351.6c0-1.4-0.3-2.5-0.9-3.2l-74.5 156.3c17.7 16.6 101.8 49.2 101.8 49.2 11.6-52.8-26.6-197-26.4-202.3zM743 348.1c-0.4-0.5-0.8-0.9-1.2-1.2 0 0-0.1 0-0.1-0.1-0.9-0.6-1.8-0.8-2.4-0.9h-0.5l-45.4-9.8L656 328s-0.8-8.1-1.7-17.7c-0.8-8.2-1.6-17.5-2-23.7-0.2-3.1-0.4-5.4-0.3-6.4 0-1.3-0.3-2.3-0.7-3.1-0.5-0.8-1.1-1.3-1.7-1.6-1.3-0.7-2.6-0.7-2.6-0.7l-37 3.3-2.8 22.9h-0.1c3.9-0.3 6.9-0.5 8-0.5 5.2 0.1 5.1 5.4 5.1 5.4s-0.1 2.3-0.1 5.9c-0.1 4.5-0.3 10.8-0.4 17.1-0.2 8.7-0.4 17.1-0.5 19.5 0 2 0.7 3.2 1.5 4 1.5 1.3 3.5 1.4 3.5 1.4l51.3 27.7-0.5 8.1-7.6 113.7 1 1L743 348.1z" fill="#FEDA14" p-id="27783"></path><path d="M742.9 348.4c-0.4-0.5-0.8-0.9-1.2-1.2 0 0-0.1 0-0.1-0.1-0.9-0.6-1.8-0.8-2.4-0.9h-0.5l-45.4-9.8-37.4-8.1s-0.8-8.1-1.7-17.7c-0.8-8.2-1.6-17.5-2-23.7-0.2-3.1-0.4-5.4-0.3-6.4 0-1.3-0.3-2.3-0.7-3.1-0.5-0.8-1.1-1.3-1.7-1.6-1.3-0.7-2.6-0.7-2.6-0.7l-37 3.3-2.8 22.9h-0.1c3.9-0.3 6.9-0.5 8-0.5 5.2 0.1 5.1 5.4 5.1 5.4s-0.1 2.3-0.1 5.9c-0.1 4.5-0.3 10.8-0.4 17.1-0.2 8.7-0.4 17.1-0.5 19.5 0 2 0.7 3.2 1.5 4 1.5 1.3 3.5 1.4 3.5 1.4l51.3 27.7-0.5 8.1-7.6 113.7 1 1 74.6-156.2z" fill="#B29000" opacity=".73" p-id="27784"></path><path d="M609.8 278.3l-8.9 0.8-3.7 23c2.9-0.3 5.7-0.5 8.2-0.7 0.5 0 1-0.1 1.5-0.1h0.1l2.8-23z" fill="#1B3745" p-id="27785"></path><path d="M599.9 279.2s1.5-9.2 3.1-19.2c0.6-3.7 1.2-7.5 1.7-11 0.3-2.3 0.6-4.4 0.9-6.3 0.4-2.8 0.6-4.9 0.6-5.9 0-0.7-0.1-1.2-0.2-1.8-0.4-1.5-1.3-2.4-2.3-2.9-1.3-0.7-39.1 3.7-39.1 3.7l-15.9 20.5v0.3l31 0.7-11.6 47.7h0.2c0.3 0 1.2-0.1 2.6-0.3 1.7-0.2 4.1-0.4 7-0.7 2.3-0.2 4.9-0.5 7.6-0.7 1.3-0.1 2.7-0.3 4.1-0.4 2.6-0.2 5.2-0.5 7.7-0.7l3.7-23h-1.1z" fill="#1B3745" p-id="27786"></path></svg>