<?xml version="1.0" standalone="no"?><!DOCTYPE svg PUBLIC "-//W3C//DTD SVG 1.1//EN" "http://www.w3.org/Graphics/SVG/1.1/DTD/svg11.dtd"><svg t="1784020710314" class="icon" viewBox="0 0 1024 1024" version="1.1" xmlns="http://www.w3.org/2000/svg" p-id="5078" xmlns:xlink="http://www.w3.org/1999/xlink" width="200" height="200"><path d="M342.493867 532.7872l-3.157334 6.2208c-0.648533 3.933867 3.114667 4.565333 3.157334 4.846933 0.170667 1.0496-4.2496 4.642133-2.107734 7.4496 13.056 6.946133 23.7312 16.913067 35.319467 25.762134l-7.381333 7.381333c-0.768-0.571733-3.268267 0.418133-4.932267-0.708267-9.326933-6.272-17.1776-13.5424-29.627733-9.856-5.8624 1.732267-41.975467 32.008533-46.6944 38.1696-3.8144 4.983467-7.236267 10.094933-7.313067 16.682667h-7.389867c1.322667 4.352 5.2224 6.459733 7.389867 11.067733 2.517333 5.358933 4.386133 14.421333 7.389867 20.224l-3.703467 1.92c-5.341867-5.674667-15.2064-11.4688-20.522667-18.372266l-20.078933 18.3552c17.092267 4.334933 38.1696 24.994133 40.593067 42.453333 1.2544 9.028267-1.885867 20.608 0.529066 28.987733 1.9456 6.7328 14.7712 15.300267 14.2336 24.516267-1.493333-0.0512-3.669333-2.5344-5.538133-3.157333-11.076267 6.178133-5.512533 12.910933-5.538133 17.92-0.042667 10.1632-13.0048 25.634133-14.702934 38.8096-2.321067 18.030933-0.597333 30.3616 7.3216 46.071466 7.722667 15.317333 15.5136 22.562133 33.211734 25.8304l-2.176-11.076266-21.9904-7.185067c-3.029333-4.445867-1.698133-12.970667-1.664-18.6368l9.642666 10.717867c4.002133 1.2544 8.6784-0.2048 12.501334 0.349866 39.8336 5.777067 79.752533 16.290133 119.773866 18.6112 12.808533 0.7424 26.0864-0.861867 38.912-0.1536 0.059733-7.355733-0.093867-14.7968 0-22.152533 0.017067-1.2288 0-2.4576 0-3.6864l3.694934-11.067733h3.669333l0.238933 12.7488 3.456 2.013866c0.0768 7.296-0.3072 14.6944 0.162134 21.981867 3.9168-1.134933 8.567467 3.848533 9.0624 3.848533h53.512533c2.6112-8.593067-5.614933-18.619733-3.6864-25.8304 5.034667-18.901333 3.5328-18.653867 0-36.906666-0.1536-0.7936 3.643733-6.596267 3.6864-11.067734h7.381333c0.989867 17.0496-2.210133 35.191467 1.7664 51.669334h1.92c0.093867 6.126933-0.068267 12.330667 0 18.4576 16.4864-0.861867 33.527467 1.1008 49.988267 0.1536 20.608-1.186133 49.160533-4.608 69.879467-7.611734 9.130667-1.322667 52.309333-9.7024 57.386666-12.7232 5.7856-3.438933 2.261333-6.0672 1.860267-9.403733-0.5632-4.770133-1.322667-9.890133-1.979733-14.702933-1.706667-12.4928-4.8384-24.618667-7.381334-36.906667-1.4848-7.185067-2.858667-14.8224-3.729066-22.126933-0.964267-1.211733-26.939733 3.191467-30.6688 4.334933-23.611733 7.2704-29.201067 20.292267-57.9072 8.618667-28.629333-11.639467-36.232533-32.810667-33.092267-62.702934 0.256-2.440533 2.901333-14.702933 3.618133-16.6912 0.085333-0.247467 2.423467-1.143467 3.6864-3.6864l9.301334 1.109334 1.7664 2.5856c-17.015467 37.205333 0.631467 74.308267 44.279466 70.109866l-20.437333-25.685333c-4.4288-12.3392-4.283733-17.800533-1.698133-29.6704l11.067733 7.381333c-0.6144 2.397867-0.162133 6.0672 0.512 8.567467 8.7808 32.657067 47.163733 32.196267 69.6064 11.707733 0.887467-3.054933-11.861333-17.288533-14.762667-20.2752 1.237333-7.296-1.629867-12.2624-7.364266-16.605866l3.677866-1.8432c10.3424 8.6016 27.272533 14.1824 29.636267 29.4656 9.173333 0.861867 13.294933-5.725867 18.338133-11.008 8.917333-9.326933 12.458667-16.042667 18.449067-25.8304 0.384-0.631467 4.932267-0.8704 6.741333-6.075734 3.0976-8.9088 6.331733-29.5168 4.3264-38.212266-0.469333-7.645867-1.416533-16.162133 7.381334-18.449067 9.7792 26.7776 8.763733 42.641067-2.9696 68.992-5.512533 12.381867-13.687467 17.5872-19.362134 28.765867 20.411733 38.570667 12.945067 84.7616 26.837334 124.689066 8.302933 23.850667 30.011733 50.8672 56.448 54.263467 17.681067 2.269867 49.826133-7.150933 59.076266 11.042133 3.566933 7.0144 2.9184 38.3744-2.466133 43.844267-37.870933 17.3312-94.984533 4.0448-126.856533-21.546667-24.132267-19.3792-34.9952-40.576-45.312-69.188266-2.158933-5.981867 2.4576-10.146133-8.132267-8.3712 0.904533 16.750933-1.134933 33.152-3.822933 49.6896-2.295467 14.148267-14.6176 46.4384-14.702934 55.517866-0.0768 7.432533 12.305067 18.2272 7.125334 29.175467-0.682667 2.261333-14.395733 11.912533-16.861867 12.6464-19.498667 5.870933-52.906667 2.466133-72.439467-3.8912-11.4432-3.729067-20.992-10.1376-27.963733-20.010667-17.425067-24.669867-26.077867-57.147733-44.680533-80.785066l-66.423467-1.655467c-5.085867 20.266667-15.0016 42.871467-25.216 61.5168-4.829867 8.814933-13.832533 24.849067-20.949333 30.711467-13.2608 10.922667-53.248 19.899733-70.1184 18.295466-9.856-0.938667-29.073067-4.9408-34.6624-13.2864-11.3664-16.964267 3.4048-22.869333 3.3024-32.7168-0.093867-8.576-10.624-24.8064-11.426134-34.824533-99.729067-9.540267-138.2144-124.151467-80.938666-201.3952-29.277867-17.578667-34.6112-44.253867-23.748267-75.665067l-11.281067-11.0336c-30.4384 32.0768-89.745067 12.381867-90.436266-33.211733l11.1104-0.034133c0.964267-0.657067-9.591467-16.785067-10.487467-20.8896-4.5056-20.497067 0.298667-46.609067 19.703467-56.584534l6.237866 23.287467c6.314667 12.117333 21.077333 16.836267 17.757867-1.186133 12.919467 4.8384 24.618667 4.3008 36.795733 13.0304 5.367467 3.84 10.222933 12.074667 14.830934 14.8736 1.416533 0.861867 15.0528-3.293867 23.424-1.4336 11.2896 2.5088 18.8416 18.056533 26.427733 18.056533l60.885333-50.048c-0.017067-2.9696-4.608-1.706667-7.432533-3.677867-2.619733-1.834667-3.1232-5.188267-3.6352-5.538133v-11.076267c-3.754667 1.211733-5.188267 3.524267-9.326933 1.041067l-1.7408 2.645333c-3.6096-3.054933-5.009067-5.154133-7.381334-7.381333 1.006933-5.1968-1.800533-7.978667-5.538133-11.050667l-1.8432 3.669334c-2.210133-2.363733-4.292267-3.703467-7.381333-7.381334 5.358933-1.152 7.9872-5.700267 7.381333-11.067733 7.799467 9.156267 23.458133 19.165867 31.744 29.3376 8.439467-4.471467 15.3088-5.205333 23.611733-7.1936zM132.130133 632.439467c10.487467 40.6528 80.6144 30.600533 77.636267-9.053867-0.7168-9.5232-6.9888-27.3408-14.958933-33.314133-16.384-12.253867-28.535467 2.602667-45.585067-2.397867l-20.744533-21.674667c0.981333 10.948267-1.749333 23.893333 0.597333 34.449067 1.954133 8.814933 12.416 15.607467 14.2336 26.376533 1.501867 8.9344-5.870933 5.060267-11.1616 5.597867z m103.338667-25.838934h-14.754133c-0.324267 7.876267-1.493333 13.7728 5.5296 18.432 6.2976-5.5552 10.9824-9.3184 9.224533-18.432z m18.449067 11.067734l-22.4 16.341333c-3.805867 2.730667-12.526933 5.0944-10.8032 11.323733 2.2016 7.953067 8.0896 3.165867 12.2624 1.211734 8.593067-4.010667 15.044267-8.4992 21.077333-15.965867 4.974933-6.161067-0.6144-6.161067-0.136533-12.910933z m-20.155734 59.1104c-13.184 3.584-3.703467 39.330133 7.688534 47.470933 19.7888 14.139733 30.8224 9.2928 27.229866-16.170667-1.664-11.784533-22.6816-34.619733-34.9184-31.300266z m82.6368 225.314133c-53.666133-12.987733-70.6816-70.587733-49.6384-118.442667 2.798933-6.365867 17.5616-23.970133 16.580267-27.306666l-13.2608-12.910934c-3.754667 2.056533-13.943467 2.653867-15.624533 3.933867-1.467733 1.117867-15.8464 28.509867-17.271467 32.5376-9.787733 27.605333-10.88 57.7792 0.085333 85.060267 13.124267 32.64 47.419733 61.294933 83.072 62.685866l-3.950933-25.557333z m450.4832-70.391467c-0.597333-15.829333-0.861867-34.372267-3.771733-49.7408-1.1264-5.9648-7.509333-31.470933-12.834133-31.419733l-20.232534 11.1872c8.021333 26.496 11.4688 54.314667 18.3808 81.041067 2.449067 11.101867-4.744533 20.846933-3.746133 31.2576 4.266667 44.3648 59.502933 85.640533 101.623467 90.436266 28.612267 3.259733 60.1088 4.1216 45.858133-32.938666-58.786133 7.620267-110.4896-17.143467-117.922133-79.5136l-3.677867-1.851734c-0.1024-2.449067 0.145067-4.9408 0-7.381333-0.1792-2.884267 0.5888-5.896533-0.4096-8.772267l-3.285333-2.304z m-435.456 70.1184c1.28 19.1232 7.466667 24.226133 11.067734 36.906667 1.732267 6.0928-0.964267 17.7664 3.8656 25.659733l90.368 10.385067c11.886933-4.5824 9.924267-18.824533 12.791466-24.968533 4.309333-9.250133 11.9552-19.1232 16.785067-29.508267 1.339733-2.884267 1.015467-5.828267 1.664-7.3984 0.0768-0.187733 3.7376-0.273067 3.618133-1.800533l-12.859733-9.2672c-3.592533-2.005333 2.466133-6.852267 3.84-7.2448 10.376533-2.978133 19.831467 3.114667 29.226667 3.703466 24.644267 1.5616 50.986667-1.476267 75.818666-0.162133 0.3584 2.372267-0.4864 5.2736 0 7.381333 1.365333 6.024533 3.549867 6.954667 3.6864 7.381334 4.548267 13.952 7.739733 23.697067 14.762667 36.906666 4.437333 8.354133 9.1904 16.366933 14.5664 24.174934 9.847467 5.8112 19.652267-1.1264 27.946667-1.962667 7.296-0.733867 14.984533 0.896 21.9904-0.1536 8.149333-1.220267 32.878933-5.998933 38.8864-9.088 10.760533-5.521067 5.614933-16.085333 7.3216-24.046933 2.909867-13.568 5.256533-22.621867 7.381333-36.906667 1.160533-7.825067 9.9584-18.0224-1.774933-25.506133l-59.1872 10.666666c-21.845333 0.034133-42.845867 2.321067-64.503467 3.7632-82.304 5.4784-156.3392-1.7664-238.020267-11.076266-4.1216-0.469333-5.896533-2.909867-9.216-3.6864 0.384 8.533333-0.580267 17.322667-0.008533 25.8304z m342.101334 78.267734c-6.7584 0.9216-14.276267 5.034667-22.826667 2.986666l-31.4112 9.1648c9.1648 13.312 18.653867 10.837333 31.249067 13.021867 4.002133 0.6912 7.5776 3.140267 11.2384 3.498667 8.046933 0.776533 36.565333-1.0752 34.6624-12.3136-2.696533-15.940267-7.867733-18.397867-22.903467-16.349867zM349.866667 983.005867c-1.834667 23.389867 0.068267 28.2624 23.927466 25.7536 3.8912-0.4096 7.304533-3.0464 11.204267-3.541334 5.640533-0.725333 38.971733-1.757867 38.664533-9.2928-7.159467-11.6736-14.1568-7.534933-23.876266-9.3184-5.0176-0.9216-8.900267-3.3024-14.685867-3.7632-11.374933-0.896-23.7312 0.964267-35.2256 0.1536z" fill="#492A24" p-id="5079"></path><path d="M711.5264 540.168533c-1.271467 1.373867-7.901867 10.641067-7.381333 11.0592l11.076266 3.703467-3.669333 7.185067c31.863467 15.1808 61.6192 44.356267 73.787733 77.696-8.797867 2.295467-7.850667 10.8032-7.381333 18.449066-0.085333-0.375467-2.397867-0.930133-2.875733-2.747733-11.392-42.769067-44.3392-66.286933-80.085334-88.823467-13.252267 6.903467-26.581333 14.6688-38.647466 23.466667-26.487467 19.319467-33.851733 39.9616-72.064 34.833067-9.5744-1.288533-21.9136-7.953067-31.419734-11.008-0.085333 18.4064 0.085333 36.949333-0.008533 55.355733-0.068267 13.4912 0.0256 27.101867 0 40.593067-0.059733 34.397867-0.0512 68.932267 0 103.330133 0.017067 13.4912-0.110933 27.101867 0 40.593067 0.008533 1.2288-0.017067 2.4576 0 3.6864h-1.92c-3.976533-16.477867-0.776533-34.6112-1.7664-51.677867h-7.381333c0.273067-24.789333 1.066667-51.114667 0.162133-75.793067-0.264533-7.210667-4.770133-12.859733-3.857067-20.138666 0.264533-2.0736 3.3024-5.239467 3.626667-9.181867 0.699733-8.507733-0.4096-17.160533 0.264533-25.6768l-7.586133-2.048c6.007467-8.7552 2.688-18.005333 3.754667-27.613867 1.169067-10.504533 11.810133-36.616533-5.486934-38.920533-8.7552-1.169067-48.648533-0.7168-53.444266 3.976533 0.3072 12.7488-1.058133 26.001067-0.341334 38.7328 0.452267 8.072533 5.632 15.1296 3.848534 23.825067-2.8928 14.114133-3.618133 21.1968-3.6864 36.906667-0.1536 34.389333 0.110933 68.9408 0 103.330133-3.6608-0.221867-7.3984 0.213333-11.067734 0-0.0768-34.397867 0.1024-68.932267 0-103.330133-0.042667-13.4912 0.034133-27.101867 0-40.593067-0.042667-17.186133 0.034133-34.474667 0-51.6608-7.927467-0.554667-12.381867 6.306133-20.292266 7.3728-14.677333 1.979733-32.443733 1.6128-44.356267-7.304533-10.837333-8.106667-25.028267-25.9328-34.978133-33.288534l7.381333-7.381333c2.756267 2.107733 7.543467 3.0464 10.9568 5.623467 10.436267 7.867733 17.5104 19.584 29.7984 25.591466 24.635733 12.040533 42.837333-4.548267 66.141867-11.042133 5.009067-1.399467 9.659733-2.423467 14.890666-1.732267-0.529067-3.7376-4.6592-6.8096-7.534933-9.070933-13.312-10.487467-35.985067-25.301333-51.515733-31.5136l3.285333-2.295467 0.4096-8.7808c12.629333 3.729067 27.153067 11.4688 38.254933 18.944 10.4448 7.022933 21.060267 16.5376 30.225067 25.2672h3.2512c47.1808-43.025067 108.970667-67.208533 173.610667-58.914133 8.6784 1.117867 17.0496 6.016 24.046933 11.008z m-18.440533 3.694934c-6.1952 1.390933-11.383467-3.0464-16.6912-3.626667-41.019733-4.497067-94.506667 14.856533-128.580267 37.341867-3.072 2.030933-17.698133 14.097067-13.422933 17.937066 38.0416 6.570667 55.944533 28.6464 92.100266 1.6896 19.908267-14.848 37.8624-35.012267 61.7984-45.320533 4.974933-2.141867 5.9392 0.315733 4.795734-8.021333z" fill="#4E2F29" p-id="5080"></path><path d="M777.949867 658.261333c1.9968 8.695467-1.237333 29.303467-4.3264 38.212267-1.809067 5.205333-6.357333 5.435733-6.741334 6.075733-8.533333-7.168-13.3888-16.042667-22.2976-23.8336-8.1408-7.108267-42.615467-25.7024-44.125866-27.835733-0.554667-0.776533 0.366933-4.846933-1.8176-7.253333-7.296-8.064-15.957333-18.048-27.707734-18.577067l7.133867 31.172267c-0.7168 2.500267-3.208533 1.800533-3.447467 2.030933-40.9088 4.096-80.3584 13.354667-121.7792 11.067733 0.093867-18.4064-0.0768-36.949333 0.008534-55.355733 9.506133 3.054933 21.845333 9.728 31.419733 11.008 38.212267 5.128533 45.576533-15.5136 72.064-34.833067 12.066133-8.797867 25.3952-16.571733 38.647467-23.466666 35.746133 22.536533 68.693333 46.0544 80.085333 88.823466 0.4864 1.8176 2.7904 2.372267 2.875733 2.747734z" fill="#385178" p-id="5081"></path><path d="M368.324267 584.456533c9.949867 7.355733 24.1408 25.1904 34.978133 33.288534 11.921067 8.9088 29.687467 9.275733 44.356267 7.304533 7.9104-1.066667 12.373333-7.936 20.292266-7.3728 0.034133 17.186133-0.034133 34.474667 0 51.6608l-53.435733-3.7632-60.962133-10.999467c0.170667-0.648533-2.397867-3.1232-2.107734-5.358933 0.384-3.003733 6.647467-25.608533-3.413333-20.462933-9.5232 8.593067-9.9328 22.254933-14.8224 33.3056-1.1776 2.670933-5.3504 3.285333-5.486933 3.584-9.028267-2.986667-10.4704-12.893867-16.4608-18.594134-7.662933-7.296-22.0672-13.098667-31.5136-18.304 0.0768-6.5792 3.490133-11.6992 7.313066-16.682666 4.718933-6.161067 40.832-36.437333 46.6944-38.1696 12.458667-3.677867 20.3008 3.584 29.627734 9.856 1.664 1.117867 4.164267 0.136533 4.932266 0.708266z" fill="#39537A" p-id="5082"></path><path d="M600.814933 706.235733c-0.7168 1.988267-3.362133 14.250667-3.618133 16.6912-3.140267 29.892267 4.462933 51.063467 33.092267 62.702934 28.706133 11.6736 34.295467-1.339733 57.9072-8.618667 3.729067-1.152 29.704533-5.5552 30.6688-4.334933 0.8704 7.304533 2.244267 14.941867 3.729066 22.126933l-60.9536 11.008c-36.693333 1.6896-71.953067 10.043733-108.8 7.4496-0.0512-34.397867-0.059733-68.932267 0-103.330133 16.298667 0.315733 31.1296-6.0928 47.9744-3.6864z" fill="#3B5377" p-id="5083"></path><path d="M722.594133 794.8032c2.542933 12.288 5.674667 24.413867 7.381334 36.906667l-75.7248 14.685866c-34.0224 0.605867-67.3536 7.825067-101.410134 7.458134-0.110933-13.4912 0.017067-27.101867 0-40.593067 36.846933 2.594133 72.106667-5.76 108.8-7.4496l60.9536-11.008z" fill="#F3DA42" p-id="5084"></path><path d="M538.077867 709.922133c-0.913067 7.278933 3.592533 12.928 3.857066 20.138667 0.904533 24.6784 0.110933 51.012267-0.162133 75.810133-0.0512 4.471467-3.84 10.274133-3.6864 11.067734-18.338133-0.699733-37.0432 0.9728-55.355733 0-0.264533-0.017067 1.194667-3.396267-3.6864-3.6864 0.110933-34.389333-0.1536-68.9408 0-103.330134h59.042133z" fill="#3B567C" p-id="5085"></path><path d="M464.273067 813.252267c6.016 10.641067 3.6864 24.618667 3.6864 36.906666 0 1.2288 0.017067 2.4576 0 3.6864l-57.122134-3.7632c-8.507733-3.677867-16.6144-4.1472-25.838933-3.677866l-79.402667-14.6944c1.493333-9.617067 0.768-20.625067 4.3264-30.839467 1.809067-5.205333 6.570667-5.640533 6.749867-6.058667l83.106133 14.685867c21.597867 1.7664 42.8288 2.440533 64.503467 3.7632z" fill="#F3D943" p-id="5086"></path><path d="M748.424533 842.7776c0.059733 0.221867 2.747733 0.5632 3.165867 2.389333 1.211733 5.316267 0.494933 10.7264 0.5376 16.059734 7.253333 0.247467 1.1264-11.127467 9.233067-14.7456 6.126933-2.7392 5.768533 3.1488 5.9136 7.227733l3.3024-3.549867 3.677866 1.851734c7.432533 62.378667 59.136 87.133867 117.922134 79.5136 14.250667 37.0688-17.245867 36.1984-45.858134 32.938666-42.120533-4.795733-97.3568-46.071467-101.623466-90.436266-0.9984-10.410667 6.186667-20.1472 3.746133-31.2576z" fill="#BCB9B5" p-id="5087"></path><path d="M316.398933 902.0928l3.950934 25.557333c-35.652267-1.390933-69.956267-30.045867-83.072-62.685866-10.965333-27.281067-9.873067-57.4464-0.085334-85.060267 1.425067-4.027733 15.803733-31.428267 17.271467-32.5376 1.681067-1.28 11.869867-1.8688 15.624533-3.933867l13.2608 12.910934c0.981333 3.328-13.781333 20.9408-16.580266 27.306666-21.051733 47.854933-4.036267 105.454933 49.6384 118.442667z" fill="#D4D0CB" p-id="5088"></path><path d="M438.442667 554.9312c15.522133 6.212267 38.203733 21.026133 51.515733 31.5136 2.8672 2.261333 6.997333 5.333333 7.534933 9.070933-5.2224-0.699733-9.873067 0.3328-14.890666 1.732267-23.304533 6.493867-41.506133 23.082667-66.141867 11.042133-12.279467-5.998933-19.3536-17.723733-29.7984-25.591466-3.413333-2.568533-8.200533-3.515733-10.9568-5.623467-11.588267-8.840533-22.263467-18.816-35.319467-25.762133-2.141867-2.816 2.2784-6.408533 2.107734-7.4496 33.527467-0.904533 64.401067-1.553067 95.9488 11.067733z" fill="#3B577F" p-id="5089"></path><path d="M327.7312 665.642667c0.136533-0.3072 4.309333-0.913067 5.486933-3.584 4.8896-11.0592 5.2992-24.721067 14.8224-33.3056 10.0608-5.1456 3.797333 17.4592 3.413334 20.462933-0.2816 2.235733 2.2784 4.7104 2.107733 5.358933-1.604267 6.075733-12.142933 22.485333-14.762667 33.211734-1.134933 4.642133-0.9216 10.888533-3.191466 16.059733l20.846933 30.071467c-5.572267 19.601067-34.816 26.171733-39.202133 44.893866-1.237333 5.282133 0.426667 13.576533-0.605867 15.991467-0.1792 0.418133-4.9408 0.853333-6.749867 6.058667-3.549867 10.2144-2.824533 21.2224-4.3264 30.839466-0.0512 0.324267-3.054933 0.8192-3.7376 5.3248-0.708267 4.642133 0.401067 9.873067-0.128 14.660267l7.560534 5.845333c-3.8144-0.554667-8.4992 0.904533-12.501334-0.349866l-9.642666-10.717867c0.017067-2.4576-0.008533-4.923733 0-7.381333 5.4016-21.3248 8.337067-43.6992 14.737066-64.494934l-14.737066-1.928533c0.0256-5.009067-5.538133-11.741867 5.538133-17.92 1.8688 0.622933 4.0448 3.106133 5.538133 3.157333 19.072 0.674133 32.162133-10.112 44.0576-23.9872-7.4496-13.184-19.968-21.845333-29.371733-33.143466-10.043733-12.074667-18.807467-27.511467-29.448533-38.818134l3.703466-1.92c-3.012267-5.794133-4.881067-14.865067-7.389866-20.224 9.6512 6.536533 18.5344 18.184533 25.915733 27.5968 5.179733 6.6048 12.859733 15.965867 14.6944 24.072534 12.740267-3.217067 4.770133-20.087467 7.364267-25.838934z" fill="#52322C" p-id="5090"></path><path d="M704.145067 901.819733c-2.116267 14.2848-4.471467 23.338667-7.381334 36.906667-36.548267 7.808-73.156267 12.526933-110.711466 11.067733-7.022933-13.2096-10.2144-22.946133-14.762667-36.906666l64.503467-0.0768c22.272-4.872533 45.4144-7.8592 68.343466-10.999467z" fill="#F3D842" p-id="5091"></path><path d="M467.968 912.896c-0.648533 1.570133-0.3328 4.514133-1.664 7.3984-4.829867 10.385067-12.475733 20.258133-16.785067 29.508267-23.364267 2.440533-44.962133-5.2992-68.189866-3.7632l-38.826667-7.304534c-3.601067-12.680533-9.796267-17.774933-11.067733-36.906666 45.44 8.7296 89.890133 13.568 136.541866 11.067733z" fill="#F4D945" p-id="5092"></path><path d="M729.975467 831.701333c0.657067 4.804267 1.416533 9.924267 1.979733 14.702934 0.392533 3.336533 3.9168 5.9648-1.860267 9.403733-5.077333 3.0208-48.256 11.400533-57.386666 12.7232-20.718933 3.012267-49.271467 6.4256-69.879467 7.611733-16.4608 0.9472-33.493333-1.015467-49.988267-0.1536-0.059733-6.126933 0.1024-12.330667 0-18.4576-0.017067-1.2288 0.008533-2.4576 0-3.6864 34.056533 0.375467 67.387733-6.852267 101.410134-7.458133l75.7248-14.685867z" fill="#3E5777" p-id="5093"></path><path d="M467.968 853.845333c-0.085333 7.355733 0.059733 14.7968 0 22.152534-12.8256-0.708267-26.112 0.896-38.912 0.1536-40.021333-2.321067-79.940267-12.834133-119.773867-18.6112l-7.560533-5.845334c0.529067-4.7872-0.580267-10.018133 0.128-14.660266 0.6912-4.497067 3.694933-5.000533 3.7376-5.3248l79.402667 14.6944c9.224533-0.4608 17.3312 0 25.838933 3.677866l57.122133 3.7632z" fill="#3C577C" p-id="5094"></path><path d="M283.451733 661.947733c10.641067 11.306667 19.4048 26.743467 29.448534 38.818134 9.3952 11.2896 21.922133 19.959467 29.371733 33.143466-11.895467 13.8752-24.977067 24.661333-44.0576 23.9872 0.5376-9.216-12.288-17.774933-14.2336-24.516266-2.414933-8.379733 0.7168-19.968-0.529067-28.987734-2.423467-17.467733-23.5008-38.1184-40.593066-42.453333l20.078933-18.3552c5.316267 6.903467 15.1808 12.689067 20.522667 18.372267z" fill="#93908C" p-id="5095"></path><path d="M578.670933 890.752c0.605867 6.971733-5.034667 12.219733-11.067733 14.762667-0.477867-2.107733 0.3584-5.009067 0-7.381334-24.832-1.314133-51.165867 1.723733-75.818667 0.162134-9.3952-0.597333-18.850133-6.6816-29.226666-3.703467-1.3824 0.392533-7.432533 5.239467-3.84 7.2448l12.859733 9.2672c0.119467 1.527467-3.541333 1.6128-3.618133 1.800533-46.651733 2.500267-91.101867-2.338133-136.541867-11.067733-0.571733-8.507733 0.392533-17.297067 0.008533-25.8304 3.319467 0.776533 5.102933 3.217067 9.216 3.6864 81.6896 9.301333 155.716267 16.546133 238.020267 11.076267z" fill="#3A5674" p-id="5096"></path><path d="M132.130133 632.439467c5.290667-0.546133 12.663467 3.336533 11.1616-5.597867-1.809067-10.769067-12.279467-17.570133-14.2336-26.376533-2.338133-10.555733 0.384-23.5008-0.597333-34.449067l20.744533 21.674667c17.058133 4.992 29.201067-9.864533 45.585067 2.397866 7.978667 5.973333 14.250667 23.790933 14.958933 33.314134 2.978133 39.645867-67.140267 49.706667-77.636266 9.053866z m31.419734-22.126934c-2.850133 0.802133-4.258133 3.652267-3.8656 7.296 0.64 5.888 1.681067 18.2272 3.729066 22.306134 10.368 20.6848 45.175467 4.7616 33.408-18.653867-3.1488-6.272-26.862933-12.740267-33.271466-10.948267z" fill="#D43B30" p-id="5097"></path><path d="M704.145067 901.819733c-22.929067 3.140267-46.071467 6.126933-68.343467 10.999467l-64.503467 0.0768c-0.136533-0.426667-2.321067-1.3568-3.6864-7.381333 6.033067-2.542933 11.682133-7.790933 11.067734-14.762667 21.6576-1.442133 42.666667-3.729067 64.503466-3.7632l59.1872-10.666667c11.733333 7.483733 2.935467 17.681067 1.774934 25.506134z" fill="#3F597A" p-id="5098"></path><path d="M700.450133 650.88c-9.429333 3.857067-12.475733 14.762667-18.449066 22.144-2.9184 3.601067-13.448533 5.947733-11.076267 14.7456 13.892267 0.827733 21.674667 15.624533 29.525333 22.161067l-3.677866 1.8432c5.7344 4.343467 8.6016 9.309867 7.364266 16.605866-10.9568-11.281067-25.5744-20.881067-38.7584-29.499733l-16.597333 29.499733-11.067733-7.381333c1.117867-5.128533 2.295467-11.118933 4.4544-15.854933 2.1504-4.7104 17.1264-21.853867 13.994666-24.738134-18.141867-0.401067-29.576533 15.061333-40.593066 25.8304l-1.7664-2.5856-9.301334-1.109333c8.8576-17.774933 21.435733-28.484267 40.465067-35.191467 9.284267-3.2768 23.099733-2.756267 29.653333-9.096533 0.238933-0.2304 2.730667 0.469333 3.447467-2.030933l-7.133867-31.172267c11.741867 0.520533 20.4032 10.513067 27.707734 18.577067 2.176 2.4064 1.262933 6.4768 1.8176 7.253333z" fill="#56342E" p-id="5099"></path><path d="M704.145067 728.379733c2.901333 2.986667 15.650133 17.220267 14.762666 20.2752-22.434133 20.488533-60.817067 20.949333-69.6064-11.707733-0.674133-2.500267-1.1264-6.1696-0.512-8.567467L665.386667 698.88c13.175467 8.618667 27.793067 18.210133 38.7584 29.499733z" fill="#F4C380" p-id="5100"></path><path d="M674.619733 658.261333c-6.5536 6.331733-20.369067 5.819733-29.653333 9.096534-19.0208 6.7072-31.598933 17.416533-40.465067 35.191466-1.271467 2.542933-3.601067 3.447467-3.6864 3.6864-16.8448-2.4064-31.675733 4.010667-47.9744 3.6864 0.0256-13.4912-0.068267-27.101867 0-40.593066 41.4208 2.2784 80.8704-6.971733 121.7792-11.067734z" fill="#F0DA45" p-id="5101"></path><path d="M766.882133 702.5408c-5.9904 9.787733-9.531733 16.503467-18.449066 25.8304-16.136533-26.231467-37.870933-43.716267-66.423467-55.355733 5.973333-7.381333 9.019733-18.286933 18.449067-22.144 1.5104 2.133333 35.985067 20.718933 44.125866 27.835733 8.917333 7.7824 13.764267 16.657067 22.2976 23.8336z" fill="#F4DD3D" p-id="5102"></path><path d="M696.763733 938.7264c-1.706667 7.9616 3.438933 18.525867-7.3216 24.046933-6.007467 3.080533-30.7456 7.8592-38.8864 9.088-7.005867 1.0496-14.6944-0.580267-21.9904 0.1536-8.2944 0.836267-18.0992 7.773867-27.946666 1.962667-5.376-7.816533-10.129067-15.829333-14.5664-24.174933 37.546667 1.4592 74.154667-3.259733 110.711466-11.067734z" fill="#375073" p-id="5103"></path><path d="M449.5104 949.794133c-2.858667 6.144-0.896 20.386133-12.791467 24.968534l-90.368-10.385067c-4.829867-7.8848-2.133333-19.566933-3.8656-25.659733l38.826667 7.304533c23.227733-1.536 44.834133 6.203733 68.189867 3.7632z" fill="#364F71" p-id="5104"></path><path d="M615.5776 706.235733c11.008-10.769067 22.4512-26.231467 40.593067-25.8304 3.131733 2.884267-11.835733 20.0192-13.994667 24.738134-2.158933 4.727467-3.336533 10.717867-4.4544 15.854933-2.5856 11.861333-2.730667 17.3312 1.698133 29.6704l20.437334 25.685333c-43.648 4.1984-61.294933-32.904533-44.279467-70.109866z" fill="#C9BEB7" p-id="5105"></path><path d="M538.077867 816.9472c3.5328 18.244267 5.034667 18.005333 0 36.906667h-59.042134c-0.119467-11.374933-2.8416-28.7232 3.6864-36.906667 18.312533 0.9728 37.0176-0.699733 55.355734 0z" fill="#F2D542" p-id="5106"></path><path d="M766.882133 831.701333c0.110933 2.909867-0.546133 5.879467 0.4096 8.772267l3.285334 2.304c0.145067 2.440533-0.1024 4.932267 0 7.381333l-3.3024 3.549867c-0.145067-4.078933 0.213333-9.966933-5.9136-7.227733-8.098133 3.626667-1.979733 15.0016-9.233067 14.7456-0.034133-5.333333 0.674133-10.743467-0.5376-16.059734-0.418133-1.826133-3.106133-2.167467-3.165867-2.389333-6.912-26.7264-10.359467-54.545067-18.3808-81.041067l20.232534-11.1872c5.316267-0.059733 11.6992 25.454933 12.834133 31.419734 2.909867 15.368533 3.1744 33.911467 3.771733 49.7408z" fill="#CAC7C3" p-id="5107"></path><path d="M748.424533 728.379733c-5.051733 5.282133-9.1648 11.869867-18.338133 11.008-2.363733-15.274667-19.285333-20.855467-29.636267-29.4656-7.850667-6.528-15.633067-21.333333-29.525333-22.161066-2.372267-8.797867 8.1664-11.144533 11.076267-14.7456 28.552533 11.639467 50.286933 29.124267 66.423466 55.355733z" fill="#3E5676" p-id="5108"></path><path d="M233.762133 676.778667c12.2368-3.328 33.2544 19.515733 34.9184 31.300266 3.592533 25.463467-7.441067 30.3104-27.229866 16.170667-11.392-8.1408-20.872533-43.886933-7.688534-47.470933z" fill="#ECBE7C" p-id="5109"></path><path d="M673.527467 980.087467c15.035733-2.048 20.206933 0.4096 22.903466 16.349866 1.902933 11.246933-26.624 13.098667-34.6624 12.3136-3.6608-0.3584-7.236267-2.807467-11.2384-3.498666-12.5952-2.184533-22.084267 0.290133-31.249066-13.021867l31.4112-9.1648c8.5504 2.048 16.0768-2.0736 22.826666-2.986667z" fill="#313232" p-id="5110"></path><path d="M538.077867 853.845333c-1.92 7.210667 6.306133 17.237333 3.6864 25.8304h-53.512534c-0.494933 0-5.1456-4.992-9.0624-3.848533-0.477867-7.278933-0.085333-14.685867-0.162133-21.981867h59.042133z" fill="#385270" p-id="5111"></path><path d="M349.866667 983.005867c11.4944 0.802133 23.850667-1.0496 35.2256-0.1536 5.794133 0.452267 9.668267 2.8416 14.685866 3.7632 9.719467 1.783467 16.7168-2.3552 23.876267 9.3184 0.3072 7.5264-33.024 8.567467-38.664533 9.2928-3.899733 0.503467-7.313067 3.131733-11.204267 3.541333-23.8592 2.5088-25.7536-2.372267-23.927467-25.7536z" fill="#323132" p-id="5112"></path><path d="M287.138133 839.082667c-0.554667 2.176-6.519467 8.797867-4.155733 16.238933l-3.2256 2.218667c-7.918933-15.701333-9.642667-28.040533-7.3216-46.071467 1.698133-13.175467 14.651733-28.6464 14.702933-38.8096l14.737067 1.928533c-6.4 20.795733-9.335467 43.178667-14.737067 64.494934z" fill="#E6E3DB" p-id="5113"></path><path d="M279.7568 628.736c9.4464 5.213867 23.850667 11.008 31.5136 18.304 5.9904 5.700267 7.432533 15.607467 16.4608 18.594133-2.602667 5.751467 5.367467 22.613333-7.364267 25.838934-1.834667-8.106667-9.514667-17.467733-14.6944-24.072534-7.381333-9.412267-16.264533-21.060267-25.915733-27.5968-2.167467-4.616533-6.0672-6.724267-7.389867-11.0592h7.389867z" fill="#E7D032" p-id="5114"></path><path d="M253.917867 617.668267c-0.469333 6.749867 5.12 6.749867 0.136533 12.910933-6.033067 7.458133-12.484267 11.9552-21.077333 15.965867-4.1728 1.9456-10.069333 6.741333-12.2624-1.211734-1.723733-6.229333 6.997333-8.593067 10.8032-11.323733l22.4-16.341333z" fill="#988B87" p-id="5115"></path><path d="M479.035733 813.252267c4.881067 0.290133 3.4304 3.677867 3.6864 3.6864-6.528 8.183467-3.8144 25.531733-3.6864 36.906666l-3.456-2.013866-0.238933-12.7488h-3.669333l-3.694934 11.067733c0-12.288 2.3296-26.257067-3.6864-36.906667 1.2288 0.0768 2.466133-0.068267 3.6864 0 3.669333 0.213333 7.406933-0.221867 11.067734 0z" fill="#703722" p-id="5116"></path><path d="M287.138133 846.464c-0.042667 5.666133-1.365333 14.190933 1.664 18.6368l21.9904 7.185067 2.176 11.076266c-17.698133-3.268267-25.489067-10.513067-33.211733-25.8304l3.2256-2.218666c-2.363733-7.432533 3.601067-14.062933 4.155733-16.238934-0.008533 2.4576 0.017067 4.923733 0 7.381334z" fill="#D7D4D5" p-id="5117"></path><path d="M235.4688 606.600533c1.7664 9.105067-2.9184 12.8768-9.224533 18.432-7.022933-4.6592-5.853867-10.555733-5.5296-18.432h14.754133z" fill="#B2A29B" p-id="5118"></path><path d="M770.568533 842.7776l-3.285333-2.304c-0.955733-2.884267-0.298667-5.8624-0.4096-8.772267l3.285333 2.304c0.9984 2.875733 0.2304 5.879467 0.4096 8.772267z" fill="#BCB9B5" p-id="5119"></path><path d="M467.968 709.922133c0.1024 34.397867-0.0768 68.932267 0 103.330134-1.2288-0.068267-2.466133 0.0768-3.6864 0-21.674667-1.322667-42.914133-1.9968-64.503467-3.7632l-83.106133-14.685867c1.032533-2.414933-0.631467-10.709333 0.605867-15.991467 4.386133-18.722133 33.629867-25.301333 39.202133-44.893866l-20.846933-30.071467c2.261333-5.1712 2.056533-11.4176 3.191466-16.059733 40.951467 15.061333 86.075733 15.991467 129.160534 22.144z" fill="#3B5378" p-id="5120"></path><path d="M693.085867 543.863467c1.143467 8.337067 0.1792 5.879467-4.795734 8.021333-23.936 10.308267-41.898667 30.472533-61.7984 45.320533-36.1472 26.9568-54.058667 4.881067-92.100266-1.6896-4.2752-3.84 10.350933-15.906133 13.422933-17.937066 34.0736-22.493867 87.560533-41.847467 128.580267-37.341867 5.307733 0.580267 10.496 5.0176 16.6912 3.626667z" fill="#3C577F" p-id="5121"></path><path d="M467.968 669.329067c0.034133 13.4912-0.042667 27.101867 0 40.593066-43.0848-6.152533-88.209067-7.082667-129.160533-22.144 2.619733-10.734933 13.149867-27.136 14.762666-33.211733l60.962134 10.999467 53.435733 3.7632z" fill="#F5DB44" p-id="5122"></path><path d="M534.391467 673.024H482.730667c1.783467-8.695467-3.396267-15.752533-3.848534-23.825067-0.7168-12.731733 0.648533-25.984 0.341334-38.7328 4.795733-4.693333 44.689067-5.1456 53.444266-3.976533 17.3056 2.304 6.664533 28.424533 5.486934 38.920533-1.066667 9.608533 2.2528 18.858667-3.754667 27.613867z" fill="#395078" p-id="5123"></path><path d="M534.391467 673.024l7.586133 2.048c-0.674133 8.5248 0.426667 17.169067-0.264533 25.6768-0.324267 3.9424-3.362133 7.108267-3.626667 9.181867h-59.042133c0.068267-15.709867 0.802133-22.784 3.6864-36.906667h51.6608z" fill="#EED73D" p-id="5124"></path><path d="M163.549867 610.312533c6.408533-1.800533 30.114133 4.667733 33.271466 10.948267 11.767467 23.424-23.04 39.338667-33.408 18.653867-2.048-4.078933-3.089067-16.4096-3.729066-22.306134-0.392533-3.652267 1.015467-6.493867 3.8656-7.296z" fill="#F1B629" p-id="5125"></path><path d="M301.9008 543.863467l1.7408-2.645334c4.138667 2.4832 5.572267 0.162133 9.3184-1.041066V551.253333c-3.874133-2.679467-5.1456-2.363733-11.0592-7.381333zM294.519467 536.482133c-3.0208-2.833067-4.539733-4.343467-7.381334-7.381333l1.8432-3.669333c3.7376 3.080533 6.545067 5.8624 5.538134 11.050666z" fill="#4B2A1F" p-id="5126"></path><path d="M626.645333 422.084267c4.906667 0.1024 9.864533-0.0768 14.762667 0.008533l-14.805333 23.918933c6.314667 21.5296 0.477867 41.028267 20.2752 57.3184 18.653867 15.351467 29.1328 7.5776 47.445333 11.605334 5.435733 1.194667 15.7696 9.770667 19.1232 9.7536 1.877333-0.008533 11.767467-13.892267 16.529067-2.9696-6.024533 6.6048-13.0816 12.637867-18.449067 18.449066-6.997333-4.992-15.368533-9.898667-24.046933-11.008-64.631467-8.2944-126.421333 15.889067-173.610667 58.897067h-3.2512c-9.1648-8.712533-19.780267-18.2272-30.225067-25.258667-11.1104-7.466667-25.6256-15.214933-38.254933-18.944-5.085867-1.501867-4.5568 0.298667-11.067733-3.6864-6.442667-3.9424-5.7344-2.210133-11.067734-3.6864-28.663467-7.944533-48.273067-10.7008-77.499733-3.6864-8.302933 1.988267-15.172267 2.722133-23.611733 7.1936-8.285867-10.171733-23.953067-20.1728-31.744-29.3376-3.037867-3.566933-2.961067-9.984-3.6864-11.067733 4.642133-8.533333 9.173333 2.167467 12.859733 2.423467 11.374933 0.810667 10.5472 2.397867 19.157333 4.317866 21.444267 4.778667 21.632 2.645333 40.704-2.295466 9.9584-2.577067 20.130133-2.3808 30.0288-8.721067l14.8224-31.3344c-3.4304-11.434667-3.0208-21.469867-6.212266-33.314133-3.140267-11.630933 2.141867-8.686933 10.4192-8.567467 31.325867 5.777067 53.7344-25.412267 81.058133-35.191467 20.1984-7.227733 35.6096-7.4496 55.543467 0.0768 35.080533 13.252267 41.2416 34.2016 84.821333 35.114667zM479.573333 407.825067c-8.866133 17.9712 10.6752 36.352 27.8528 39.3472 29.457067 5.137067 65.7664-26.8544 33.297067-44.3392-21.333333-11.485867-41.335467-6.0672-61.149867 4.992z m77.346134 51.473066c-0.2048 6.894933-9.352533 13.627733-15.214934 16.2304-23.918933 10.641067-52.096 4.3264-68.215466-16.5376l-9.207467 9.207467c22.144 28.996267 63.9232 31.9232 93.585067 12.416 9.088-5.973333 11.1872-10.299733 9.736533-21.623467l-10.683733 0.3072z" fill="#FAEFDD" p-id="5127"></path><path d="M419.9936 536.482133l2.295467 3.285334 8.7808 0.4096c6.510933 3.9936 5.9904 2.193067 11.067733 3.6864l-0.4096 8.7808-3.285333 2.295466c-31.547733-12.629333-62.421333-11.972267-95.9488-11.067733-0.0512-0.2816-3.805867-0.913067-3.157334-4.846933l3.157334-6.2208c29.226667-7.005867 48.827733-4.2496 77.499733 3.6864z" fill="#4B2A1F" p-id="5128"></path><path d="M597.128533 267.0848c-20.522667 1.493333-43.8272 22.997333-25.975466 42.581333 11.409067 12.5184 26.5728 9.233067 40.874666 3.6864 19.054933-7.389867 27.588267-34.9696 7.2448-46.267733 23.995733 1.271467 47.837867 6.331733 71.893334 7.4496l53.179733 11.409067c1.7408 13.0304 9.1392 23.552 13.397333 36.411733 11.093333 33.493333 18.577067 68.010667 16.520534 103.415467-11.477333-9.489067-16.4096-24.106667-32.145067-28.868267-4.369067-1.322667-8.772267 0.017067-12.142933-0.648533-0.315733-0.059733-0.8448-3.182933-5.316267-3.7376-19.259733-2.372267-52.642133 10.368-71.304533 17.681066-2.7392 1.0752-4.0192 4.283733-4.565334 4.5056-5.76 2.2528-13.585067 3.234133-19.822933 4.2752l-2.312533 3.106134c-43.579733-0.904533-49.749333-21.8624-84.821334-35.114667-19.933867-7.534933-35.345067-7.304533-55.543466-0.0768-27.3152 9.7792-49.723733 40.968533-81.058134 35.191467-5.632-1.041067-26.436267-8.072533-33.211733-11.067734-18.030933-7.9872-27.1872-15.786667-49.902933-18.363733-6.1952-0.699733-20.1216-2.525867-23.901867 3.601067-8.1664 0.648533-19.515733 3.805867-25.847467 9.207466-6.186667 5.2736-5.546667 17.416533-14.7456 20.317867-0.930133-22.314667-0.017067-41.941333 4.539734-63.726933 2.6112-12.501333 18.7392-67.328 24.814933-74.820267 1.5616-1.92 3.848533-4.155733 6.212267-4.855467 13.610667-0.110933 27.136-5.7088 40.149333-7.825066 22.306133-3.618133 49.646933-6.442667 71.8848-7.4496-8.738133 9.557333-9.8048 21.128533-5.623467 33.3056 23.953067 28.544 76.381867 24.311467 56.6272-21.589334-7.424-0.4096-11.6736-9.8816-16.384-11.264-5.572267-1.6384-13.610667-0.264533-19.857066-0.452266 3.072-6.4 14.2336-3.626667 20.309333-3.677867 41.796267-0.375467 83.6608-0.1536 125.457067-0.008533 9.284267 0.034133 24.465067-3.012267 31.368533 3.694933z m-154.999466 81.186133l-7.381334-7.381333 3.720534-3.575467c-10.8544-2.56-15.6672-7.662933-27.707734-7.6544-29.678933 0.017067-49.066667 29.2864-38.0416 56.6528 13.508267 33.544533 66.295467 33.544533 79.778134 0.008534 0.904533-2.244267 3.899733-15.223467 3.7376-17.117867-0.4352-5.282133-9.856-29.7472-14.1056-20.932267z m143.9232 0c-3.0208-7.3728-9.429333 5.2224-10.436267 9.856-8.977067 41.3696 35.652267 69.521067 67.712 45.576534 36.488533-27.246933 9.949867-83.6864-36.394667-73.2928-5.4784 1.2288-10.5472 7.466667-17.220266 6.903466l3.720533 3.575467-7.381333 7.381333z" fill="#F8C280" p-id="5129"></path><path d="M298.205867 396.245333c9.693867-0.768 19.7888 0.5376 29.525333 0.008534-2.346667 8.4736-17.024 11.144533-21.376 15.522133-0.768 0.768-10.325333 14.5152-11.332267 16.341333-6.946133 12.501333-5.316267 26.5216 0.264534 39.3216 10.368 23.765333 25.6256 20.352 48.256 24.251734l34.107733-21.5552c2.935467-5.819733 2.7648-27.904 1.757867-35.1488-1.143467-8.234667-9.3184-14.506667-7.381334-23.9872 6.775467 3.003733 27.579733 10.0352 33.211734 11.067733-8.285867-0.110933-13.559467-3.063467-10.4192 8.567467 3.191467 11.844267 2.781867 21.879467 6.212266 33.314133l-14.8224 31.3344c-9.890133 6.340267-20.0704 6.144-30.0288 8.721067-19.072 4.9408-19.259733 7.0656-40.704 2.295466-8.610133-1.92-7.7824-3.5072-19.157333-4.317866-3.6864-0.264533-8.2176-10.965333-12.859733-2.423467-0.187733-0.273067-3.797333-0.571733-5.521067-3.652267-12.1088-21.6832-19.293867-45.550933-20.317867-70.152533 9.198933-2.8928 8.558933-15.035733 14.7456-20.317867 6.340267-5.410133 17.681067-8.558933 25.847467-9.207466z" fill="#FADEC5" p-id="5130"></path><path d="M729.975467 396.245333c3.370667 0.674133 7.773867-0.674133 12.142933 0.648534 15.735467 4.7616 20.667733 19.387733 32.145067 28.868266-2.449067 42.171733-17.006933 66.056533-44.288 95.9488-4.770133-10.922667-14.651733 2.961067-16.529067 2.9696-3.3536 0.017067-13.687467-8.558933-19.1232-9.7536-18.312533-4.027733-28.791467 3.746133-47.445333-11.605333-19.797333-16.298667-13.960533-35.7888-20.2752-57.3184l14.805333-23.918933c-4.898133-0.093867-9.856 0.093867-14.762667-0.008534l2.312534-3.106133c6.2464-1.041067 14.062933-2.013867 19.822933-4.2752 12.117333-0.853333 7.3728 1.621333 3.584 9.122133-2.5088 4.9664-11.067733 22.203733-11.0336 25.9072 0.042667 4.1472 8.1408 25.557333 10.990933 29.704534 1.937067 2.816 18.756267 19.054933 20.906667 19.6864 5.469867 1.595733 41.489067 1.553067 46.976-0.068267 10.325333-3.0464 15.402667-14.660267 22.749867-21.5552 13.7984-35.601067 1.348267-55.253333-25.898667-77.550933l12.919467-3.6864z" fill="#F8E6D0" p-id="5131"></path><path d="M597.128533 267.0848c6.894933-0.503467 15.1808-0.366933 22.144 0 20.352 11.298133 11.810133 38.877867-7.2448 46.267733-14.3104 5.546667-29.474133 8.832-40.874666-3.6864-17.851733-19.584 5.4528-41.088 25.975466-42.581333z" fill="#F6EDD9" p-id="5132"></path><path d="M419.9936 267.0848c6.2464 0.187733 14.276267-1.1776 19.857067 0.452267 4.7104 1.3824 8.96 10.845867 16.384 11.264 19.754667 45.892267-32.674133 50.1248-56.6272 21.589333-4.1728-12.177067-3.114667-23.748267 5.623466-33.3056 4.855467-0.221867 9.898667-0.145067 14.762667 0z" fill="#F6EDDA" p-id="5133"></path><path d="M479.573333 407.825067c19.8144-11.0592 39.816533-16.4864 61.149867-4.992 32.469333 17.4848-3.831467 49.4848-33.297067 44.3392-17.1776-2.9952-36.727467-21.376-27.8528-39.3472z" fill="#523026" p-id="5134"></path><path d="M556.919467 459.298133l10.683733-0.3072c1.450667 11.323733-0.648533 15.650133-9.736533 21.623467-29.661867 19.5072-71.441067 16.5888-93.585067-12.416l9.207467-9.207467c16.119467 20.864 44.296533 27.178667 68.215466 16.5376 5.8624-2.602667 15.0016-9.335467 15.214934-16.2304z" fill="#4B2D25" p-id="5135"></path><path d="M431.061333 540.168533l-8.7808-0.4096-2.295466-3.285333c5.333333 1.476267 4.6336-0.256 11.067733 3.6864z" fill="#4E2F29" p-id="5136"></path><path d="M586.052267 348.270933c5.4784 42.402133 49.629867-2.158933 7.381333-7.381333l-3.720533-3.575467c6.673067 0.554667 11.741867-5.674667 17.220266-6.903466 46.336-10.3936 72.8832 46.045867 36.394667 73.2928-32.068267 23.944533-76.6976-4.1984-67.712-45.576534 1.006933-4.6336 7.424-17.2288 10.436267-9.856z" fill="#523026" p-id="5137"></path><path d="M442.129067 348.270933c4.2496-8.8064 13.6704 15.650133 14.1056 20.932267 0.1536 1.8944-2.8416 14.8736-3.7376 17.117867-13.474133 33.536-66.269867 33.527467-79.778134-0.008534-11.025067-27.3664 8.362667-56.635733 38.0416-56.6528 12.040533 0 16.853333 5.0944 27.707734 7.6544l-3.720534 3.575467c-27.6224-0.827733-21.162667 33.365333 2.525867 22.698667l4.855467-15.317334z" fill="#512F26" p-id="5138"></path><path d="M729.975467 396.245333l-12.919467 3.6864c27.246933 22.2976 39.697067 41.949867 25.898667 77.550934-7.338667 6.894933-12.416 18.5088-22.749867 21.5552-5.486933 1.621333-41.506133 1.664-46.976 0.068266-2.158933-0.631467-18.9696-16.861867-20.906667-19.6864-2.850133-4.1472-10.948267-25.557333-10.990933-29.704533-0.034133-3.703467 8.5248-20.932267 11.0336-25.9072 3.7888-7.5008 8.533333-9.966933-3.584-9.122133 0.554667-0.213333 1.834667-3.4304 4.565333-4.5056 18.6624-7.313067 52.0448-20.061867 71.304534-17.681067 4.48 0.554667 5.000533 3.669333 5.316266 3.7376z m-34.286934 15.274667c-25.437867 4.138667-44.3392 31.4368-30.267733 54.818133 1.629867 2.7136 12.706133 13.602133 15.197867 14.327467 7.3216 2.133333 35.473067 1.834667 40.2176-3.1488 3.490133-3.6608 4.1984-11.2384 6.1952-15.9488 1.5104-3.5584 5.316267-5.8624 6.1952-8.6016 4.232533-13.149867-18.875733-36.881067-31.5904-41.557333-2.039467-0.930133-3.908267-0.2304-5.9392 0.1024z" fill="#F8D5BA" p-id="5139"></path><path d="M372.0192 411.008c-1.937067 9.480533 6.237867 15.744 7.381333 23.9872 1.006933 7.2448 1.1776 29.329067-1.757866 35.1488l-34.107734 21.5552c-22.621867-3.899733-37.888-0.4864-48.256-24.251733-5.5808-12.8-7.210667-26.820267-0.264533-39.3216 1.015467-1.826133 10.5728-15.573333 11.332267-16.341334 4.352-4.3776 19.0208-7.048533 21.376-15.522133-9.736533 0.529067-19.822933-0.776533-29.525334-0.008533 3.780267-6.126933 17.7152-4.309333 23.901867-3.601067 22.715733 2.5856 31.872 10.376533 49.902933 18.363733z m-15.172267 58.6496c18.184533-34.065067-15.496533-69.717333-44.014933-38.493867-12.680533 13.883733-5.674667 23.722667 0.699733 38.3232 14.6432 7.662933 28.381867 3.797333 43.323734 0.170667z" fill="#F8CCAF" p-id="5140"></path><path d="M434.747733 340.898133l7.381334 7.381334-4.855467 15.317333c-23.697067 10.658133-30.1568-23.5264-2.525867-22.698667z" fill="#E7E2DD" p-id="5141"></path><path d="M586.052267 348.270933l7.381333-7.381333c42.248533 5.213867-1.902933 49.783467-7.381333 7.381333z" fill="#ECE9E2" p-id="5142"></path><path d="M695.688533 411.52c2.030933-0.3328 3.899733-1.041067 5.9392-0.1024 12.714667 4.676267 35.822933 28.407467 31.5904 41.557333-0.878933 2.7392-4.6848 5.0432-6.1952 8.6016-1.9968 4.7104-2.705067 12.288-6.1952 15.9488-4.744533 4.974933-32.896 5.282133-40.2176 3.1488-2.491733-0.725333-13.568-11.613867-15.197866-14.327466-14.071467-23.389867 4.829867-50.679467 30.267733-54.818134z" fill="#F8C1A2" p-id="5143"></path><path d="M356.846933 469.6576c-14.933333 3.6352-28.672 7.492267-43.323733-0.170667-6.3744-14.592-13.371733-24.439467-0.699733-38.3232 28.5184-31.232 62.208 4.4288 44.014933 38.493867z" fill="#F9BC9B" p-id="5144"></path><path d="M431.061333 41.975467l3.285334 2.295466 0.4096 8.7808-42.624 21.956267c-2.0224 14.839467-4.215467 29.5424-5.3504 44.4672l-7.3728 36.898133c-5.358933-14.2336-3.575467-29.3376-3.703467-44.279466 0.4352-3.976533 0.1024-8.704 0-12.842667-0.0768-3.0976 1.723733-12.970667-5.521067-9.2928-7.569067 3.848533-34.577067 35.7376-40.516266 44.3648-16.4096 23.8336-31.880533 62.395733-38.528 90.6496-1.706667 7.261867 3.165867 5.9136 9.0624 5.3504 14.5664-1.3824 34.551467-5.1968 49.681066-7.5264l11.144534 1.7664 3.592533 3.7632-3.6608 5.538133c-40.200533 4.898133-96.913067 15.6928-131.720533 36.181334-52.957867 31.172267-20.3008 57.130667 21.000533 74.5216l18.466133-55.3472c-1.186133-1.066667-21.597867 7.4752-25.9072 9.1392-5.640533 2.184533-20.113067 12.663467-14.651733-3.584 2.500267-7.432533 51.421867-24.328533 61.627733-26.939734 115.285333-29.405867 329.198933-26.564267 444.987734 0 23.2448 5.333333 47.7696 14.3104 68.6848 25.412267 2.4064 25.531733-4.343467 11.3152-15.4624 6.237867-8.106667-3.694933-17.186133-5.111467-24.772267-10.282667l20.283733 55.330133c17.083733-9.207467 45.909333-22.690133 42.589867-46.1568-2.107733-14.907733-28.603733-29.909333-41.847467-35.746133-31.940267-14.062933-82.107733-24.200533-116.974933-28.791467-2.039467-4.010667-4.7872-6.126933-3.6864-11.067733h14.754133c5.026133 0.810667 11.136-0.896 16.503467 0.0768 14.190933 2.56 28.928 6.203733 42.530133 10.990933l-14.754133-59.042133c1.152-5.358933 5.700267-7.9872 11.067733-7.381333 1.467733 3.7376-2.0736 12.996267 7.3728 14.762666 2.542933-14.011733-1.9456-26.368-3.618133-38.8096-3.447467-25.710933-7.415467-57.949867-24.2176-79.112533-17.408-21.930667-44.2624-9.386667-60.731733 7.202133 10.043733-1.297067 13.7472 10.922667 18.4576 14.7712l-7.381334 7.381334c-2.9952-2.517333-7.2448-4.317867-11.067733-3.6864 0.554667 12.194133-0.7936 24.7296 0 36.898133v14.754133h-7.364267l-3.712-7.381333c-0.520533-6.8864-3.319467-12.049067-3.618133-16.6912-0.904533-13.943467 0.8192-28.117333-0.401067-42.026667-12.629333-5.256533-23.901867-13.5424-36.565333-18.781866l0.4096-8.7808 3.285333-2.295467c1.877333 0.768 6.724267-0.290133 11.1104 1.681067 8.456533 3.8144 15.2832 9.4976 23.552 12.893866 43.016533-32.375467 80.554667-34.2784 101.077334 21.282134 9.275733 25.122133 17.245867 68.923733 19.182933 95.214933 1.467733 19.899733-1.117867 40.6272 0.3072 60.578133 22.485333 6.724267 74.9056 29.866667 80.341333 54.3488 8.2432 37.154133-29.2096 53.102933-54.485333 69.8112 13.994667 73.890133-3.370667 152.456533-70.365867 193.442134l-11.076266-3.703467c-0.520533-0.4096 6.1184-9.685333 7.381333-11.0592 5.376-5.8112 12.424533-11.844267 18.449067-18.449067 27.281067-29.892267 41.838933-53.777067 44.288-95.9488 2.056533-35.4048-5.4272-69.922133-16.520534-103.415466-4.258133-12.859733-11.656533-23.381333-13.397333-36.411734l-53.179733-11.409066c-24.055467-1.117867-47.8976-6.178133-71.893334-7.4496-6.9632-0.366933-15.249067-0.503467-22.144 0-6.903467-6.698667-22.084267-3.6608-31.368533-3.694934-41.8048-0.136533-83.6608-0.3584-125.457067 0.008534-6.075733 0.0512-17.237333-2.722133-20.309333 3.677866-4.864-0.145067-9.9072-0.221867-14.762667 0-22.2464 1.015467-49.5872 3.831467-71.8848 7.4496-13.013333 2.107733-26.538667 7.714133-40.149333 7.825067-2.363733 0.699733-4.650667 2.935467-6.212267 4.855467-6.075733 7.492267-22.203733 62.318933-24.814933 74.820266-4.5568 21.794133-5.469867 41.4208-4.539733 63.726934 1.024 24.593067 8.209067 48.4608 20.317866 70.152533 1.723733 3.089067 5.333333 3.3792 5.521067 3.652267 0.725333 1.083733 0.648533 7.5008 3.6864 11.067733 0.6144 5.376-2.0224 9.915733-7.381333 11.067733-22.980267-27.400533-44.014933-79.547733-40.738134-116.420266 0.622933-6.9888 9.506133-48.0768 7.517867-49.604267-23.057067-2.090667-56.3456-25.9072-58.9824-49.92-4.1728-37.922133 54.434133-60.765867 84.650667-68.4032-0.196267-46.72 0-95.872 12.023466-141.124267 17.604267-66.312533 50.551467-71.2448 108.091734-39.406933 9.975467-2.500267 18.295467-9.4464 27.639466-13.192533 4.411733-1.7664 9.3696-0.964267 11.1104-1.681067z m-59.042133 22.152533c-30.600533-13.5936-48.529067-20.6336-64.6656 14.6688-8.072533 17.655467-14.574933 49.390933-16.452267 68.4288-0.776533 7.901867 0.324267 16.017067-0.068266 23.9104l15.325866-27.093333c14.702933-22.314667 29.4144-43.383467 49.169067-61.5424 5.845333-5.367467 18.005333-7.560533 16.682667-18.372267z" fill="#4B2A1F" p-id="5145"></path><path d="M431.061333 41.975467c4.002133-1.655467 18.833067-8.721067 20.4032-10.965334 5.290667-7.5776 2.039467-18.6112 15.351467-25.2416C479.573333-0.5888 527.7696-0.315733 543.778133 1.2288c20.5056 1.979733 32.4864 11.810133 31.368534 33.2032 7.714133 0.2816 15.069867 2.9696 22.212266 5.597867 4.164267 1.527467 6.459733 5.358933 7.150934 5.640533l-3.285334 2.295467-0.4096 8.7808c-3.524267-1.4592-21.333333-8.2176-22.135466-7.3728V211.712l66.432 3.729067c-0.6912-11.5968 0.878933-23.6544 0.1536-35.2256-0.938667-14.941867-2.688-30.677333-3.848534-45.969067l3.712 7.381333h7.355734v-14.762666c0.017067 0.324267 3.541333 1.015467 3.746133 5.3248 1.425067 29.073067-2.730667 58.282667 3.6608 86.903466 4.232533 0.520533 9.028267-0.836267 13.064533-0.0256 4.6336 0.930133 5.034667 3.694933 5.358934 3.746134h-14.754134c-1.1008 4.949333 1.646933 7.057067 3.6864 11.067733-20.795733-2.7392-56.738133-7.381333-75.648-7.381333H432.913067c-17.928533 0-51.8656 4.932267-71.9616 7.381333l3.6608-5.538133-3.592534-3.7632-11.144533-1.7664c0.324267-0.0512 0.8192-3.037867 5.316267-3.754667 5.282133-0.8448 11.3664 0.546133 16.836266 0.068267 1.672533-33.314133-2.269867-68.625067-0.068266-101.700267 0.290133-4.343467 3.712-5.000533 3.746133-5.3248 0.119467 14.941867-1.655467 30.045867 3.703467 44.279467l7.3728-36.898134c-1.237333 16.3072-3.037867 33.723733-3.848534 49.655467-0.785067 15.325867 0.896 30.984533 0.1536 46.293333l66.440534-3.694933-0.017067-162.3808-14.754133 3.6864-0.4096-8.7808-3.285334-2.295467z m33.211734 1.851733c-1.706667 18.304 1.237333 38.647467 0 57.198933 32.913067-11.093333 66.491733-9.454933 99.6352 0l-3.8656-80.9984c-13.806933-5.009067-84.642133-7.099733-91.904-0.008533-0.930133 5.384533 0.708267 11.093333-0.119467 16.494933-0.6144 4.027733-3.694933 6.7584-3.746133 7.3216z m99.6352 71.9616c-33.5616-8.738133-66.269867-11.630933-99.6352 0v95.9488h99.6352V115.7888z" fill="#512E21" p-id="5146"></path><path d="M667.2384 233.873067c34.875733 4.590933 85.034667 14.728533 116.974933 28.791466 13.243733 5.828267 39.739733 20.8384 41.847467 35.746134 3.319467 23.458133-25.506133 36.949333-42.589867 46.1568l-20.283733-55.330134c7.586133 5.162667 16.6656 6.5792 24.772267 10.282667 11.118933 5.077333 17.8688 19.293867 15.4624-6.237867-20.923733-11.1104-45.44-20.078933-68.6848-25.412266-115.7888-26.564267-329.7024-29.405867-444.987734 0-10.2144 2.602667-59.136 19.498667-61.627733 26.939733-5.461333 16.247467 9.0112 5.768533 14.651733 3.584 4.309333-1.664 24.7296-10.205867 25.9072-9.1392l-18.466133 55.3472c-41.309867-17.390933-73.9584-43.349333-21.000533-74.5216 34.807467-20.488533 91.52-31.2832 131.720533-36.181333 20.096-2.449067 54.033067-7.381333 71.9616-7.381334h158.685867c18.9184 0 54.852267 4.642133 75.648 7.381334z" fill="#F5D442" p-id="5147"></path><path d="M434.747733 53.051733l14.754134-3.6864 0.017066 162.3808-66.440533 3.694934c0.7424-15.317333-0.938667-30.976-0.1536-46.293334 0.8192-15.931733 2.6112-33.348267 3.848533-49.655466 1.134933-14.933333 3.319467-29.627733 5.3504-44.4672l42.624-21.956267z" fill="#F8D63E" p-id="5148"></path><path d="M600.814933 56.738133c12.672 5.248 23.936 13.533867 36.565334 18.781867 1.2288 13.909333-0.494933 28.0832 0.401066 42.026667 0.298667 4.6336 3.0976 9.796267 3.618134 16.6912 1.160533 15.2832 2.909867 31.0272 3.848533 45.969066 0.725333 11.5712-0.8448 23.6288-0.1536 35.2256l-66.414933-3.729066V49.365333c0.7936-0.8448 18.602667 5.9136 22.126933 7.3728z" fill="#F8D540" p-id="5149"></path><path d="M663.552 93.6448c23.517867 19.712 41.6768 56.0384 59.042133 81.186133l14.754134 59.042134c-13.602133-4.7872-28.347733-8.430933-42.530134-10.990934-5.367467-0.9728-11.477333 0.733867-16.503466-0.0768-0.324267-0.0512-0.725333-2.816-5.358934-3.746133-4.036267-0.810667-8.832 0.546133-13.064533 0.0256-6.391467-28.6208-2.2272-57.8304-3.6608-86.903467-0.213333-4.309333-3.729067-5.000533-3.746133-5.3248-0.785067-12.168533 0.554667-24.704 0-36.898133 3.822933-0.631467 8.064 1.169067 11.067733 3.6864z" fill="#F8D741" p-id="5150"></path><path d="M349.8752 222.805333c-15.1296 2.3296-35.114667 6.144-49.681067 7.5264-5.896533 0.5632-10.769067 1.911467-9.0624-5.3504 6.647467-28.253867 22.126933-66.816 38.528-90.6496 5.9392-8.6272 32.9472-40.516267 40.516267-44.3648 7.2448-3.677867 5.4528 6.1952 5.521067 9.2928 0.1024 4.138667 0.4352 8.866133 0 12.842667-0.034133 0.324267-3.464533 0.981333-3.746134 5.3248-2.2016 33.0752 1.7408 68.386133 0.068267 101.700267-5.469867 0.469333-11.554133-0.913067-16.836267-0.068267-4.488533 0.7168-4.992 3.703467-5.316266 3.754667z" fill="#F9D744" p-id="5151"></path><path d="M670.933333 86.263467c-4.7104-3.848533-8.413867-16.068267-18.4576-14.7712 16.469333-16.5888 43.323733-29.1328 60.731734-7.202134 16.802133 21.162667 20.770133 53.4016 24.2176 79.112534 1.664 12.450133 6.161067 24.8064 3.618133 38.8096-9.4464-1.7664-5.905067-11.025067-7.3728-14.762667-13.3632-34.141867-35.950933-59.281067-62.737067-81.186133z" fill="#F4C185" p-id="5152"></path><path d="M372.0192 64.128c1.322667 10.811733-10.837333 12.996267-16.682667 18.372267-19.754667 18.1504-34.466133 39.2192-49.169066 61.5424l-15.325867 27.093333c0.384-7.893333-0.708267-16.008533 0.068267-23.9104 1.877333-19.037867 8.379733-50.773333 16.452266-68.4288 16.136533-35.3024 34.065067-28.2624 64.6656-14.6688z" fill="#F6C386" p-id="5153"></path><path d="M733.6704 167.4496c-5.376-0.6144-9.915733 2.0224-11.067733 7.381333-17.365333-25.147733-35.524267-61.474133-59.042134-81.186133l7.381334-7.381333c26.786133 21.905067 49.373867 47.044267 62.737066 81.186133z" fill="#593323" p-id="5154"></path><path d="M464.273067 43.8272c0.0512-0.571733 3.131733-3.293867 3.746133-7.3216 0.8192-5.393067-0.810667-11.1104 0.119467-16.494933 7.261867-7.0912 78.097067-5.000533 91.904 0.008533l3.8656 80.9984c-33.143467-9.4464-66.722133-11.093333-99.6352 0 1.237333-18.551467-1.706667-38.894933 0-57.198933z" fill="#FAD643" p-id="5155"></path><path d="M563.908267 115.7888v95.9488H464.273067V115.7888c33.365333-11.630933 66.0736-8.738133 99.6352 0z m-80.503467 11.758933c-0.9216 0.887467-7.850667 13.8496-8.1408 15.837867-0.964267 6.4768-0.930133 23.1424 0 29.687467 1.0752 7.6544 16.904533 21.5808 24.686933 23.287466 67.84 14.865067 69.742933-82.884267 6.613334-77.021866-5.0944 0.469333-20.266667 5.4272-23.150934 8.209066z" fill="#F5D442" p-id="5156"></path><path d="M483.4048 127.547733c2.884267-2.773333 18.056533-7.7312 23.150933-8.209066 63.1296-5.8624 61.2352 91.886933-6.613333 77.021866-7.7824-1.706667-23.611733-15.633067-24.686933-23.287466-0.9216-6.545067-0.964267-23.210667 0-29.687467 0.298667-1.979733 7.2192-14.9504 8.1408-15.837867z m27.554133 3.4048c-11.255467 4.923733-21.888 13.892267-23.995733 26.615467l14.122667 22.8864 23.620266 1.297067c24.311467-18.304 14.190933-45.354667-13.7472-50.798934z" fill="#5B3C37" p-id="5157"></path><path d="M510.958933 130.952533c27.938133 5.444267 38.058667 32.494933 13.7472 50.798934l-23.620266-1.297067-14.122667-22.8864c2.107733-12.7232 12.731733-21.700267 23.995733-26.615467z" fill="#EFD251" p-id="5158"></path></svg>