<?xml version="1.0" standalone="no"?><!DOCTYPE svg PUBLIC "-//W3C//DTD SVG 1.1//EN" "http://www.w3.org/Graphics/SVG/1.1/DTD/svg11.dtd"><svg t="1784019531179" class="icon" viewBox="0 0 1024 1024" version="1.1" xmlns="http://www.w3.org/2000/svg" p-id="24179" xmlns:xlink="http://www.w3.org/1999/xlink" width="200" height="200"><path d="M752.896 356.736h57.5488v97.0752l146.9952-170.7264-146.944-167.04v110.848h-57.5488c-164.8128 0-272.3328 126.976-354.432 239.0272-73.7024 100.736-137.472 195.7632-240.2816 195.7632H66.56v129.92h91.6224c164.8128 0 257.792-135.0144 339.968-247.0912 73.7024-100.7616 151.7056-187.776 254.72-187.776z" fill="#FB7C33" p-id="24180"></path><path d="M306.2528 431.0272l21.3504-28.9024c17.5104-23.808 35.84-49.0496 55.7568-74.0864-59.0336-57.2672-130.0992-99.5328-225.1776-99.5328H66.56v129.8688s24.704-1.2288 91.6224 0c64.768 1.4336 105.4208 28.9536 148.0704 72.6528zM810.496 666.6752h-57.5488c-62.7712 0-125.44-36.3776-170.3168-84.6336-4.4544 6.1952-8.96 12.3648-13.568 18.4576-19.712 26.88-40.832 55.808-64.128 84.3264 60.5696 61.3888 148.3776 111.7184 248.0128 111.7184h57.5488v111.4112l146.944-171.008-146.944-166.7328v96.4608z" fill="#00C671" p-id="24181"></path></svg>