<?xml version="1.0" standalone="no"?><!DOCTYPE svg PUBLIC "-//W3C//DTD SVG 1.1//EN" "http://www.w3.org/Graphics/SVG/1.1/DTD/svg11.dtd"><svg t="1784020704363" class="icon" viewBox="0 0 1024 1024" version="1.1" xmlns="http://www.w3.org/2000/svg" p-id="4427" xmlns:xlink="http://www.w3.org/1999/xlink" width="200" height="200"><path d="M839.159467 466.389333c-4.241067-17.8432-21.376-39.953067-41.3952-41.233066-3.933867-2.176-10.752-3.6608-16.093867-3.831467-2.594133-0.085333-7.534933-0.187733-10.018133 0.136533l-15.726934 2.039467c-17.3312 2.2528-35.328 8.5248-49.015466 16.802133-30.4896 9.437867-22.690133 7.662933-56.0384 7.133867l-26.6752-10.914133c-26.171733-34.756267-102.4-37.077333-126.1312-1.425067l-9.053867 4.096-18.090667 8.183467-27.008 0.256c-6.7072 0.059733-19.157333-3.908267-24.576-6.724267-10.9056-5.674667-29.8752-13.303467-42.752-15.4112-1.570133-0.256-4.744533-0.699733-6.3232-0.597333l-3.9936-3.831467-22.9888 0.256c-1.595733 0.017067-7.6032 3.456-7.406933 3.874133-27.963733 5.410133-26.248533 26.3936-37.922133 34.176-3.328-50.56 7.825067-86.954667 25.0368-133.077333 9.301333-24.925867 2.56-73.489067 9.403733-112 13.422933 13.5168-2.901333 16.375467 21.5296 34.884267 11.6736 8.849067 23.4496 18.926933 36.949333 24.2688 20.667733 8.183467 41.224533 15.035733 61.329067 19.6096-3.473067 0.7168-10.683733 6.1696-12.3136 10.496-5.521067 14.685867 3.165867 29.9264 18.269867 36.420266 12.1344 5.2224 28.868267 7.918933 39.765333 0.443734 13.602133-9.335467 11.076267-30.421333-0.802133-37.888l-7.8848-4.957867c45.824 5.2224 88.635733 6.562133 131.310933 3.421867l-7.389867 16.4608c-3.447467 7.688533 3.712 22.2208 12.3136 24.6272 16.674133 4.667733 32.622933 1.8176 45.9008-9.3696 6.391467-5.384533 10.1376-18.986667 8.3968-26.146134l-2.978133-12.253866 59.3152-19.9168c13.431467-4.5056 25.335467-17.860267 37.205333-25.224534 10.7008-6.638933 17.2032-13.5424 20.590934-25.787733l2.781866-10.043733c0.520533-1.8944 9.7792 0.1536 9.873067 2.542933l3.601067 92.049067c0.384 9.856 4.744533 19.9424 7.876266 28.552533 8.3968 23.125333 15.530667 45.4912 20.9152 69.9392 4.599467 20.898133 1.7152 41.019733 0.2304 59.963733z m-132.881067-69.469866c0-22.536533-18.269867-40.8064-40.8064-40.8064s-40.8064 18.269867-40.8064 40.8064 18.269867 40.8064 40.8064 40.8064 40.8064-18.269867 40.8064-40.8064z m-212.215467 0.5376c0-22.7072-18.4064-41.1136-41.1136-41.1136s-41.1136 18.4064-41.1136 41.1136 18.4064 41.1136 41.1136 41.1136 41.1136-18.4064 41.1136-41.1136z" fill="#F9C27C" p-id="4428"></path><path d="M522.624 436.232533c-6.382933 23.1168 23.2704 40.721067 41.463467 39.645867 11.2128-0.657067 27.946667-12.5952 34.0992-20.4288 1.578667-2.013867 3.976533-5.905067 6.357333-9.6768 2.082133 0.119467 10.231467 1.066667 12.407467-1.314133l7.2448-7.9104 26.6752 10.914133c-0.059733 0.529067 5.572267 4.0192 7.364266 4.036267l24.9088 0.221866-8.183466 20.642134c-3.2 8.081067-0.1024 24.362667 4.48 33.7408 10.478933 21.461333 40.789333 38.519467 47.394133 38.562133l43.383467 0.273067 19.84 0.119466 17.553066-9.685333 1.015467 2.2784c-14.8992 19.234133-31.069867 37.0944-55.261867 50.414933-93.320533 51.387733-212.036267 56.4736-312.721066 25.429334-26.845867-8.277333-85.8368-35.3024-97.169067-57.898667l9.463467-6.459733c7.586133-5.179733 27.460267 0.068267 53.521066-5.614934 9.429333-2.056533 28.1088-14.0544 32.162134-22.4512l13.960533-28.9024-7.2448-23.808-4.923733-16.068266 23.125333-0.981334c1.6896-0.068267 7.424-3.370667 7.389867-3.908266l18.090666-8.183467 9.053867-4.096 10.487467 7.68 7.4496-1.186133c4.48-4.292267 5.358933-5.154133 6.613333-5.367467zM608.085333 527.735467c2.653867 1.536 11.153067-1.3056 10.120534-3.319467-0.6912-1.3568-2.295467-8.004267-3.575467-8.7808l-42.461867-25.6768c-3.464533-2.090667-15.163733-1.2032-18.542933 1.032533l-37.154133 24.610134c-2.5856 1.7152-3.729067 11.946667-0.597334 12.347733 2.5088 0.315733 7.9104-0.6656 10.683734-2.449067l36.932266-23.68 44.5952 25.9072z" fill="#FAF1DE" p-id="4429"></path><path d="M585.4464 72.0128l-47.906133 0.366933c-8.917333 0.068267-20.795733 11.810133-23.7312 19.293867l-11.2128 28.5696c-2.312533 5.896533 0.324267 19.677867 2.1504 28.424533-46.839467 7.330133-125.943467 16.546133-166.8608 48.7424-9.9584-1.442133-72.558933-39.424-52.3008-55.799466 14.839467-11.997867 35.694933-25.6768 53.742933-34.7648L442.385067 54.954667c37.521067-18.8928 76.3392-32.145067 118.843733-39.739734 33.3056-5.947733 150.562133 49.851733 184.8064 67.729067l53.879467 28.1344c14.122667 7.3728 27.8272 16.546133 42.120533 25.9328 24.3712 16-24.712533 48.776533-37.265067 56.533333-20.053333 12.3904-13.397333-5.5808-59.127466-19.626666-40.234667-12.356267-78.890667-19.677867-121.173334-26.129067 8.081067-26.641067-12.509867-75.997867-39.022933-75.793067z" fill="#3E4863" p-id="4430"></path><path d="M754.8672 244.676267c-11.306667 18.3808-78.549333 33.1008-96.0512 35.754666-66.884267 10.1632-133.0944 8.337067-199.5776-3.456-31.530667-5.597867-63.837867-12.475733-86.1696-34.0736 75.963733-22.212267 186.180267-29.8496 262.4768-20.906666l27.118933 3.1744c6.8096 0.7936 14.1568 1.826133 20.667734 2.986666l54.058666 9.642667c5.384533 0.964267 10.0864 3.114667 17.476267 6.869333z" fill="#3B3A3A" p-id="4431"></path><path d="M778.641067 222.199467c-0.631467 5.213867-10.888533 9.361067-14.805334 8.277333-128.955733-35.780267-276.8384-35.396267-406.698666 0.571733-5.794133-1.066667-11.579733-22.741333-5.632-26.632533 38.144-24.968533 110.7456-36.2496 156.2112-41.557333 4.078933-0.477867 12.100267 9.6 15.0016 12.3648 25.873067 24.669867 68.155733 22.9632 92.782933-12.8 51.421867 4.599467 119.0656 16.2048 165.230933 42.564266l-2.0992 17.211734z" fill="#3F475D" p-id="4432"></path><path d="M559.7952 179.4816c-27.485867-1.757867-49.092267-29.627733-44.535467-55.560533 2.133333-12.16 10.154667-24.618667 16.520534-36.3264 30.737067-8.789333 70.109867-8.925867 79.317333 28.612266 7.808 31.8464-16.0512 65.527467-51.3024 63.274667z" fill="#F3CC48" p-id="4433"></path><path d="M781.6704 421.333333l3.370667 4.189867 12.7232-0.3584c20.027733 1.271467 37.154133 23.381333 41.3952 41.233067-2.321067 29.678933-14.805333 50.944-30.532267 71.236266l-1.015467-2.2784-17.553066 9.685334-19.84-0.119467-43.383467-0.273067c-6.613333-0.042667-36.9152-17.1008-47.394133-38.562133-4.5824-9.378133-7.68-25.668267-4.48-33.7408l8.183466-20.642133-24.9088-0.221867c-1.792-0.017067-7.424-3.5072-7.364266-4.036267 33.348267 0.529067 25.5488 2.304 56.0384-7.133866l4.5824 1.2032-17.664 21.256533c-1.109333 9.736533-1.160533 31.940267 6.101333 39.3472l23.509333 23.953067c17.5104 2.619733 35.362133 3.7632 53.888 3.933866l24.567467-26.205866-1.655467-36.445867c-0.2048-4.565333-5.632-14.532267-8.132266-19.080533-8.456533-15.3856-20.573867-7.9872-26.709334-21.512534l6.254934-5.290666c2.4832-0.324267 7.424-0.221867 10.018133-0.136534z" fill="#FAE6CF" p-id="4434"></path><path d="M370.2528 424.900267c1.5872-0.093867 4.753067 0.341333 6.3232 0.597333l8.021333 6.075733c-17.604267 2.807467-30.472533-1.664-47.2832 15.872-21.000533 21.905067-12.680533 47.300267 2.218667 73.224534 7.3216 12.740267 65.117867 18.798933 80.8192-11.485867 5.0432-9.719467 15.274667-30.190933 8.465067-42.410667l-12.8512-23.074133c-8.695467-1.501867-2.269867-1.9456 3.3536-2.7904 5.4272 2.824533 17.8688 6.792533 24.576 6.724267l27.008-0.256c0.034133 0.5376-5.700267 3.84-7.389867 3.908266l-23.125333 0.981334 4.923733 16.068266 7.2448 23.808-13.960533 28.9024c-4.053333 8.388267-22.7328 20.394667-32.162134 22.4512-26.0608 5.6832-45.943467 0.4352-53.521066 5.614934l-9.463467 6.459733c-14.7968-8.6784-22.5792-25.437867-30.088533-40.644267-0.699733 0.938667 4.352-3.413333 4.232533-4.488533l-3.268267-29.141333c-0.512-4.573867 1.928533-16.7936 3.805867-21.2992 9.728-23.3216 26.615467-22.698667 32.187733-33.902934l19.9168-1.2032z" fill="#FBE3CA" p-id="4435"></path><path d="M452.181333 293.060267c12.765867 2.901333 26.5728 3.310933 37.034667 4.5056l7.8848 4.957866c11.8784 7.4752 14.395733 28.552533 0.802133 37.888-10.888533 7.483733-27.630933 4.778667-39.765333-0.443733-15.104-6.493867-23.7824-21.7344-18.269867-36.420267 1.629867-4.3264 8.840533-9.787733 12.3136-10.496z" fill="#F7EED9" p-id="4436"></path><path d="M676.770133 294.306133l2.978134 12.253867c1.7408 7.159467-2.013867 20.7616-8.3968 26.146133-13.277867 11.1872-29.226667 14.037333-45.9008 9.3696-8.6016-2.4064-15.761067-16.938667-12.3136-24.6272l7.389866-16.4608c19.848533-1.4592 38.4256-6.3232 56.2432-6.6816z" fill="#F6EED9" p-id="4437"></path><path d="M335.863467 425.198933c3.899733 0.290133 10.8544 1.1264 14.472533 0.904534-5.572267 11.204267-22.459733 10.581333-32.187733 33.902933-1.877333 4.5056-4.317867 16.7168-3.805867 21.2992l3.268267 29.141333c0.119467 1.066667-4.932267 5.4272-4.232534 4.488534-9.335467-18.909867-14.190933-36.488533-15.445333-55.552 11.6736-7.7824 9.9584-28.757333 37.922133-34.176z" fill="#F9E8D6" p-id="4438"></path><path d="M771.652267 421.469867l-6.254934 5.290666c6.135467 13.525333 18.2528 6.126933 26.709334 21.512534 2.500267 4.548267 7.927467 14.5152 8.132266 19.080533l1.655467 36.445867-24.567467 26.205866c-18.525867-0.170667-36.386133-1.314133-53.888-3.933866l-23.509333-23.953067c-7.261867-7.3984-7.210667-29.610667-6.101333-39.3472l17.664-21.256533-4.5824-1.2032c13.687467-8.277333 31.675733-14.549333 49.015466-16.802134l15.726934-2.039466z m-22.784 89.045333c13.482667 2.628267 29.5168-0.034133 32.597333-14.779733 4.855467-23.227733-9.3696-46.993067-32.810667-51.9168l-21.947733 9.873066c-11.153067 5.0176-14.839467 26.3936-10.513067 37.9136 3.037867 3.780267 10.615467 12.1856 13.5168 15.1808l19.1488 3.729067z" fill="#FAD5B9" p-id="4439"></path><path d="M452.949333 397.457067m-41.1136 0a41.1136 41.1136 0 1 0 82.2272 0 41.1136 41.1136 0 1 0-82.2272 0Z" fill="#522E26" p-id="4440"></path><path d="M665.472 396.919467m-40.8064 0a40.8064 40.8064 0 1 0 81.6128 0 40.8064 40.8064 0 1 0-81.6128 0Z" fill="#512E26" p-id="4441"></path><path d="M419.336533 440.9088c-5.623467 0.8448-12.040533 1.288533-3.3536 2.7904L428.834133 466.773333c6.801067 12.219733-3.4304 32.6912-8.465066 42.410667-15.701333 30.293333-73.4976 24.234667-80.8192 11.485867-14.8992-25.924267-23.2192-51.319467-2.218667-73.224534 16.810667-17.536 29.678933-13.064533 47.2832-15.872l-8.021333-6.075733c12.8768 2.107733 31.8464 9.736533 42.752 15.4112z m-8.004266 42.820267c3.822933-25.403733-24.456533-39.355733-42.3424-35.7888-7.168 1.425067-16.913067 10.4704-20.701867 20.181333-6.434133 16.4864 4.539733 49.885867 25.437867 46.958933 14.114133-1.979733 34.909867-13.3888 37.6064-31.351466z" fill="#FBD2B6" p-id="4442"></path><path d="M624.196267 436.5312l-7.2448 7.9104c-2.184533 2.3808-10.333867 1.4336-12.407467 1.314133-2.389333 3.771733-4.778667 7.662933-6.357333 9.6768 4.241067-10.1376-0.162133-21.205333-11.332267-25.992533-22.485333-9.617067-46.327467-6.698667-64.221867 6.775467-1.2544 0.221867-2.133333 1.0752-6.613333 5.367466l-7.4496 1.186134-10.487467-7.68c23.722667-35.652267 99.950933-33.322667 126.1312 1.425066z" fill="#F6E7CF" p-id="4443"></path><path d="M370.2528 424.900267l-19.9168 1.2032c-3.618133 0.221867-10.581333-0.6144-14.472533-0.904534-0.196267-0.418133 5.8112-3.857067 7.406933-3.874133l22.9888-0.256 3.9936 3.831467z" fill="#FBD2B6" p-id="4444"></path><path d="M797.764267 425.156267l-12.7232 0.3584-3.370667-4.189867c5.3504 0.170667 12.16 1.646933 16.093867 3.831467z" fill="#FAD5B9" p-id="4445"></path><path d="M598.186667 455.4496c-6.144 7.8336-22.877867 19.771733-34.0992 20.4288-18.193067 1.066667-47.8464-16.529067-41.463467-39.645867 17.902933-13.474133 41.736533-16.392533 64.221867-6.775466 11.170133 4.778667 15.573333 15.854933 11.332266 25.992533z" fill="#4F2C25" p-id="4446"></path><path d="M608.085333 527.735467l-44.5952-25.9072-36.932266 23.68c-2.781867 1.783467-8.174933 2.7648-10.683734 2.449066-3.131733-0.392533-1.979733-10.632533 0.597334-12.347733l37.154133-24.610133c3.3792-2.235733 15.0784-3.1232 18.542933-1.032534l42.461867 25.6768c1.28 0.776533 2.884267 7.424 3.575467 8.7808 1.032533 2.005333-7.4752 4.855467-10.120534 3.319467z" fill="#4F2F26" p-id="4447"></path><path d="M748.868267 510.5152l-19.1488-3.729067c-2.901333-2.9952-10.478933-11.400533-13.5168-15.1808-4.334933-11.52-0.648533-32.896 10.513066-37.9136l21.947734-9.873066c23.4496 4.923733 37.666133 28.689067 32.810666 51.9168-3.080533 14.7456-19.114667 17.399467-32.597333 14.779733z" fill="#FBBFA0" p-id="4448"></path><path d="M411.332267 483.729067c-2.705067 17.962667-23.492267 29.371733-37.6064 31.351466-20.898133 2.926933-31.872-30.472533-25.437867-46.958933 3.7888-9.719467 13.533867-18.756267 20.701867-20.181333 17.885867-3.566933 46.165333 10.3936 42.3424 35.7888z" fill="#FBBC9C" p-id="4449"></path><path d="M386.218667 904.234667c-2.688-8.328533-13.1072-19.515733-13.2864-28.1344l-0.7936-37.504c-16.187733-18.9696-8.192-36.6848-2.466134-56.704 4.8384-16.913067 7.534933-37.9392 10.914134-55.927467-29.038933-2.193067-127.1808-7.296-143.223467-28.970667-18.9952 0.452267-37.7856-9.992533-42.88-28.6976s-17.902933-7.031467-36.9408-27.332266c-3.5072-3.7376-5.000533-16.4864-3.345067-21.290667 1.8944-5.486933 11.758933-12.040533 19.208534-12.501333l66.295466-4.087467 18.773334-6.7584 97.536-5.248-14.7968-13.457067c-21.188267-19.268267-38.007467-41.591467-47.829334-68.8384-23.662933-65.629867-8.2432-123.605333 14.2592-187.264 2.952533-8.3456 4.087467-18.039467 4.1728-27.4688 0.2816-30.3872 2.0992-59.6992 4.386134-88.763733-18.261333-10.794667-61.704533-44.808533-45.986134-67.4304 6.8352-9.838933 17.28-18.833067 27.3152-24.610133 56.789333-32.708267 225.28-126.498133 285.755734-111.6672 83.626667 20.5056 182.0672 71.9104 255.9744 115.2512 7.5008 4.394667 16.0512 12.450133 21.2992 20.693333 14.045867 22.058667-24.763733 52.334933-39.313067 63.505067 2.944 34.986667 4.317867 68.061867 4.155733 103.9616-0.042667 10.248533 29.4912 83.584 30.301867 107.374933 9.122133 84.1216-22.2976 145.288533-95.112533 190.3616 51.882667 40.6016 75.707733 100.6592 71.9616 164.514133 20.8384 8.507733 33.297067 26.146133 36.753066 47.8208 4.9664 31.0784-6.203733 61.2608-27.229866 80.9984-22.596267 21.2224-53.930667 27.3152-84.0192 20.872534-15.402667 45.0304-21.4784 107.4176-77.474134 107.0592-51.805867-0.3328-55.1936-46.685867-69.179733-83.310934-21.717333 2.2016-50.3552 2.619733-69.546667 0.452267-21.794133-2.466133-3.319467 75.1872-68.4032 82.116267-59.630933 6.340267-69.9904-65.646933-87.2448-119.0144zM585.4464 72.0128c26.513067-0.2048 47.104 49.152 39.022933 75.793067 42.282667 6.459733 80.938667 13.7728 121.173334 26.129066 45.730133 14.045867 39.074133 32.008533 59.127466 19.626667 12.552533-7.7568 61.636267-40.533333 37.265067-56.533333-14.301867-9.3952-28.0064-18.568533-42.120533-25.9328l-53.879467-28.1344c-34.244267-17.885867-151.5008-73.6768-184.8064-67.729067-42.504533 7.594667-81.322667 20.846933-118.843733 39.739733l-103.057067 51.8912c-18.048 9.088-38.903467 22.766933-53.742933 34.7648-20.258133 16.375467 42.333867 54.357333 52.3008 55.799467 40.917333-32.196267 120.021333-41.412267 166.8608-48.7424-1.826133-8.746667-4.462933-22.536533-2.1504-28.424533l11.2128-28.5696c2.935467-7.483733 14.8224-19.2256 23.7312-19.293867l47.906133-0.366933z m-25.6512 107.4688c35.2512 2.2528 59.1104-31.428267 51.3024-63.274667-9.207467-37.538133-48.571733-37.393067-79.317333-28.612266-6.365867 11.707733-14.3872 24.1664-16.520534 36.3264-4.5568 25.9328 17.0496 53.8112 44.535467 55.560533z m218.845867 42.717867l2.0992-17.211734c-46.1568-26.350933-113.800533-37.9648-165.230934-42.564266-24.6272 35.7632-66.9184 37.469867-92.782933 12.8-2.901333-2.7648-10.922667-12.842667-15.0016-12.3648-45.4656 5.307733-118.0672 16.5888-156.2112 41.557333-5.947733 3.8912-0.162133 25.565867 5.632 26.632533 129.860267-35.968 277.742933-36.352 406.698667-0.571733 3.908267 1.083733 14.165333-3.072 14.805333-8.277333z m-101.870934 72.106666c-17.826133 0.3584-36.394667 5.2224-56.2432 6.6816-42.683733 3.140267-85.486933 1.800533-131.310933-3.421866-10.4704-1.194667-24.277333-1.604267-37.034667-4.5056-20.104533-4.573867-40.6528-11.426133-61.329066-19.6096-13.499733-5.341867-25.275733-15.428267-36.949334-24.2688-24.430933-18.5088-8.098133-21.367467-21.5296-34.884267-6.843733 38.510933-0.1024 87.074133-9.403733 112-17.211733 46.1312-28.3648 82.517333-25.0368 133.077333 1.2544 19.063467 6.109867 36.642133 15.445333 55.552 7.509333 15.2064 15.291733 31.965867 30.088534 40.644267 11.332267 22.596267 70.3232 49.621333 97.169066 57.898667 100.6848 31.044267 219.400533 25.9584 312.721067-25.429334 24.192-13.320533 40.362667-31.1808 55.261867-50.414933 15.726933-20.3008 28.2112-41.565867 30.532266-71.236267 1.4848-18.944 4.369067-39.0656-0.2304-59.963733-5.384533-24.448-12.5184-46.813867-20.9152-69.9392-3.131733-8.610133-7.492267-18.705067-7.876266-28.552533l-3.601067-92.049067c-0.093867-2.389333-9.352533-4.437333-9.873067-2.542933l-2.781866 10.043733c-3.387733 12.245333-9.890133 19.1488-20.590934 25.787733-11.861333 7.364267-23.773867 20.7104-37.205333 25.224534l-59.3152 19.9168z m78.097067-49.629866c-7.389867-3.754667-12.0832-5.9136-17.476267-6.869334l-54.058666-9.642666c-6.519467-1.160533-13.858133-2.193067-20.667734-2.986667l-27.118933-3.1744c-76.296533-8.942933-186.513067-1.3056-262.4768 20.906667 22.331733 21.597867 54.638933 28.475733 86.1696 34.0736 66.4832 11.793067 132.701867 13.6192 199.5776 3.456 17.493333-2.6624 84.744533-17.3824 96.0512-35.754667zM271.863467 683.264l0.384-63.368533c0.0256-4.283733-5.905067-11.272533-9.361067-11.409067-3.447467-0.136533-8.7552 6.7584-8.721067 11.5456l0.477867 69.7856c0.017067 2.884267 9.634133 7.671467 11.5456 5.6576 1.9456-2.048 5.649067-9.002667 5.674667-12.2112z m271.240533 139.357867l0.605867-135.287467c0.042667-9.3696-0.802133-18.5856-1.783467-30.506667l-10.496 13.090134c-4.7104 5.879467-18.3552 19.114667-25.4464 16.4864-21.034667-7.799467-41.873067-34.807467-54.869333-49.774934-4.0192-4.625067-61.252267-25.5232-64.145067-25.915733-33.757867-4.539733-69.060267-3.072-103.236267-2.3808l-1.8688 90.897067c34.7392 7.168 68.360533 10.538667 102.0928 10.948266l8.849067-29.917866c1.041067-3.515733 6.1952-8.072533 9.122133-8.328534 2.909867-0.256 6.4 8.814933 5.469867 12.049067l-13.5936 47.223467c-4.215467 14.660267-5.486933 31.2832-6.2208 45.687466 14.173867 0.221867 29.755733 4.087467 35.771733 13.149867 2.781867 4.1984 4.420267 14.6176 5.632 20.846933 22.903467 10.427733 82.286933 11.4432 114.116267 11.7248z m62.890667-146.602667l-24.2688-24.413867-25.762134-1.28 2.286934 41.6768-1.442134 40.3456 1.015467 91.0592c45.277867 0.503467 96.964267-2.005333 140.0576-7.057066 2.773333-1.604267 10.7264-10.0864 13.7472-10.282667l46.327467-3.012267c0.4608-18.5344 0.0768-35.933867-3.925334-53.162666l-14.848-63.889067c-0.622933-2.670933-0.913067-7.773867-0.913066-10.0352-0.008533-3.080533 12.270933-3.694933 13.525333-0.128 8.917333 25.344 17.083733 65.783467 21.034667 97.416533 13.346133-0.187733 27.793067-1.988267 43.400533-4.881066 9.4976-52.8384-22.7584-136.277333-74.299733-155.528534l-57.813334 21.802667c-14.0544 12.501333-51.822933 69.512533-70.1952 49.3568l-7.927466-8.004267z m-386.594134 2.577067c4.693333 2.944 14.779733 3.217067 21.358934 2.048l0.221866-53.6576c0-1.698133-0.622933-5.998933-1.8944-6.801067-1.262933-0.802133-6.545067-1.826133-8.174933-1.7152l-52.906667 3.549867c-2.909867 0.196267-9.873067 4.8384-8.6272 7.168 0.836267 1.5616 3.601067 6.365867 5.307734 7.005866L198.826667 645.265067c16.657067 6.263467 1.937067 21.649067 20.573866 33.339733z m311.125334-30.208l-45.243734-7.68c-1.9968-0.341333-7.876267 0.955733-11.127466 1.732266l32.7936 31.5136 23.5776-25.565866z m95.709866 28.049066L663.04 639.2064l-49.9968 7.227733c-3.908267 0.5632-7.637333 1.4336-13.994667 2.773334l27.1872 27.229866z m196.599467 127.044267l-5.7856 13.090133c-8.4992 19.2256-23.970133 31.803733-45.883733 31.5136l-4.104534 34.807467c-0.554667 4.701867-2.210133 11.477333-3.805866 19.106133 25.838933 5.981867 52.002133-1.186133 69.9392-18.961066 26.3936-26.171733 35.131733-79.368533-2.935467-101.137067l-7.432533 21.589333z m-9.412267-18.039467l-30.890666 0.7936c-2.525867 0.068267-6.724267 2.8928-7.8592 4.625067-1.134933 1.732267 2.338133 10.299733 4.4032 10.146133 9.1904-0.682667 39.3216-1.988267 34.346666-15.5648zM410.624 830.276267l0.9728-34.474667c-12.5952-2.295467-18.577067-3.106133-29.166933-3.771733-2.0992 13.397333-4.667733 24.7296-2.0224 33.749333 3.780267 12.893867 18.491733 10.103467 30.216533 4.497067z m366.498133 1.937066c11.153067-0.887467 22.493867-8.610133 23.825067-19.413333-7.330133 0.349867-18.8416 1.134933-25.821867 1.979733-4.5568 0.554667-2.4832 17.732267 1.9968 17.4336z m-23.202133 3.771734c3.114667-4.420267 1.152-18.235733-0.7168-20.6848l-34.397867 5.341866c-5.1712 0.802133-2.961067 18.798933 2.577067 19.677867 9.890133 1.578667 28.194133 1.826133 32.546133-4.334933z m-227.601067 1.416533l-51.6352-4.829867-49.348266-4.616533-0.264534 18.210133c35.319467 9.489067 65.979733 15.684267 102.007467 17.399467l-0.759467-26.1632z m152.840534 20.369067c4.829867-0.2304 16.341333-4.5824 19.882666-6.3488 4.932267-2.466133 3.3024-20.1728-2.321066-20.0704l-90.4192 3.8656 0.6912 25.9328 72.1664-3.3792z m-84.266667 7.936l-1.6896-31.2576-57.053867 0.853333 1.425067 29.474133 57.326933 0.9216z m-185.309867 19.4304l2.8928-36.010667-26.427733-4.002133 3.242667 42.9056c4.224 2.3552 19.933867 1.544533 20.292266-2.8928z m344.789334-3.054934l-0.853334-30.250666-39.645866 1.245866c0.315733 8.891733 2.065067 24.200533 4.625066 32.128 1.476267 4.5568 13.602133 8.5248 18.807467 8.593067 5.614933 0.068267 17.220267-6.331733 17.066667-11.707733z m-73.6768 93.141334l43.912533-0.170667 19.3024-66.952533-25.3696-4.437334c-6.587733-1.152-13.7728-13.431467-15.317333-20.010666l-3.524267-15.0016-37.674667 3.242666c-18.432 1.5872-37.307733 0.290133-55.022933 2.491734-60.962133 7.569067-118.528-1.493333-180.078933-10.5216l-2.176 23.287466c-0.802133 8.618667-9.949867 14.114133-20.992 15.317334 4.6592 24.891733 11.400533 50.4832 20.864 72.7552l86.263466-0.520534 9.2928-40.644266c3.3792-14.788267 30.208-3.208533 81.348267-6.997334l20.8128-1.544533 10.9824 38.698667c1.245867 4.394667 8.7552 11.170133 13.184 11.153066l34.2016-0.136533z m-176.187734 13.192533l-60.407466 0.4096c-3.3792 0.0256-9.796267 1.1776-14.532267 2.065067 10.666667 14.600533 24.576 18.747733 41.5232 18.773333 15.069867 0.0256 30.327467-6.203733 33.416533-21.248z m214.126934 0.298667l-67.7888 0.657066c-2.696533 1.194667-0.034133 13.0304 2.696533 14.1056 17.792 7.031467 56.055467 14.805333 65.1008-14.7712z" fill="#502D25" p-id="4450"></path><path d="M558.250667 692.002133l5.486933 2.756267c-0.8448 3.7632-1.314133 12.2368-0.298667 16.059733 0.938667 3.524267 14.609067 5.282133 15.854934 1.860267l3.566933-9.787733 21.077333-23.688534 2.048-3.2 7.927467 8.004267c18.3808 20.1472 56.149333-36.855467 70.1952-49.3568l57.813333-21.802667c51.541333 19.2512 83.797333 102.690133 74.299734 155.528534-15.607467 2.8928-30.0544 4.693333-43.400534 4.881066-3.950933-31.633067-12.117333-72.081067-21.034666-97.416533-1.2544-3.566933-13.533867-2.952533-13.525334 0.128 0 2.261333 0.298667 7.364267 0.913067 10.0352l14.848 63.889067c4.002133 17.220267 4.386133 34.628267 3.925333 53.162666l-46.327466 3.012267c-3.0208 0.196267-10.973867 8.6784-13.7472 10.282667-43.101867 5.060267-94.788267 7.560533-140.0576 7.057066l-1.015467-91.0592 1.442133-40.3456z m149.794133 60.424534c18.5088-19.549867 17.902933-52.7616-3.797333-68.701867-13.346133-9.8048-35.575467-12.279467-49.399467-3.950933-22.391467 13.499733-27.707733 42.922667-15.8464 65.595733 7.031467 13.431467 25.728 22.929067 41.966933 20.744533 8.712533-1.169067 21.384533-7.68 27.067734-13.678933z m-124.296533-5.154134c0-6.0928-4.9408-11.0336-11.0336-11.0336s-11.0336 4.9408-11.0336 11.0336 4.9408 11.0336 11.0336 11.0336 11.0336-4.9408 11.0336-11.0336z m0.4864 43.127467c0-5.973333-4.8384-10.811733-10.811734-10.811733s-10.811733 4.8384-10.811733 10.811733 4.8384 10.811733 10.811733 10.811733 10.811733-4.8384 10.811734-10.811733z" fill="#404A65" p-id="4451"></path><path d="M543.104 822.621867c-31.829333-0.2816-91.2128-1.3056-114.116267-11.7248-1.211733-6.229333-2.850133-16.648533-5.632-20.846934-6.016-9.0624-21.6064-12.928-35.771733-13.149866 0.733867-14.404267 2.005333-31.0272 6.2208-45.687467l13.5936-47.223467c0.930133-3.234133-2.56-12.305067-5.469867-12.049066-2.926933 0.256-8.081067 4.804267-9.122133 8.328533l-8.849067 29.917867c-33.723733-0.418133-67.3536-3.7888-102.0928-10.948267l1.8688-90.897067c34.176-0.6912 69.4784-2.158933 103.236267 2.3808 2.8928 0.392533 60.125867 21.282133 64.145067 25.915734 12.996267 14.967467 33.834667 41.975467 54.869333 49.774933 7.0912 2.628267 20.736-10.606933 25.4464-16.4864l10.496-13.090133c0.981333 11.921067 1.826133 21.137067 1.783467 30.506666l-0.605867 135.287467z m-37.410133-75.042134l2.542933-38.673066c0.341333-5.230933-8.567467-13.8496-13.8496-13.815467l-53.828267 0.384c-3.720533 0.0256-12.868267 6.818133-12.544 10.666667l3.601067 43.588266c9.719467 10.9312 18.7904 17.937067 31.7952 25.181867 19.072-3.874133 32.247467-11.9296 42.2912-27.3408z" fill="#3F4A64" p-id="4452"></path><path d="M680.695467 975.223467l-34.2016 0.136533c-4.4288 0.017067-11.9296-6.749867-13.184-11.153067l-10.9824-38.698666-20.8128 1.544533c-51.140267 3.797333-77.960533-7.7824-81.348267 6.997333l-9.2928 40.644267-86.263467 0.520533c-9.463467-22.272-16.2048-47.863467-20.864-72.7552 11.042133-1.194667 20.181333-6.690133 20.992-15.317333l2.176-23.287467c61.550933 9.028267 119.108267 18.090667 180.078934 10.5216 17.7152-2.2016 36.590933-0.904533 55.022933-2.491733l37.674667-3.242667 3.524266 15.0016c1.544533 6.587733 8.738133 18.858667 15.317334 20.010667l25.3696 4.437333-19.3024 66.952534-43.912534 0.170666z" fill="#404B66" p-id="4453"></path><path d="M767.061333 882.8928l5.521067-9.7792c30.0288 5.265067 70.033067-27.178667 58.0352-52.9408l-7.7824-16.6912 7.432533-21.589333c38.0672 21.768533 29.329067 74.965333 2.935467 101.137066-17.928533 17.774933-44.091733 24.942933-69.9392 18.961067 1.5872-7.6288 3.2512-14.404267 3.805867-19.106133z" fill="#F2EAD7" p-id="4454"></path><path d="M219.400533 678.596267c-18.6368-11.682133-3.9168-27.076267-20.573866-33.339734l-24.1408-9.070933c-1.706667-0.64-4.471467-5.444267-5.307734-7.005867-1.245867-2.3296 5.717333-6.971733 8.6272-7.168l52.906667-3.549866c1.621333-0.110933 6.903467 0.9216 8.174933 1.7152 1.262933 0.802133 1.902933 5.102933 1.8944 6.801066l-0.221866 53.6576c-6.570667 1.169067-16.6656 0.896-21.358934-2.048z" fill="#EEE8DD" p-id="4455"></path><path d="M526.318933 837.4016l0.759467 26.1632c-36.0192-1.7152-66.688-7.9104-102.007467-17.399467l0.264534-18.210133 49.348266 4.616533 51.6352 4.829867z" fill="#3E3B41" p-id="4456"></path><path d="M679.159467 857.770667l-72.1664 3.3792-0.6912-25.9328 90.4192-3.8656c5.623467-0.1024 7.253333 17.604267 2.321066 20.0704-3.541333 1.7664-15.0528 6.126933-19.882666 6.3488z" fill="#3E3B3F" p-id="4457"></path><path d="M767.061333 882.8928l4.104534-34.807467c21.905067 0.298667 37.376-12.279467 45.883733-31.5136l5.7856-13.090133 7.7824 16.6912c12.0064 25.762133-28.0064 58.205867-58.0352 52.9408l-5.521067 9.7792z" fill="#F0C288" p-id="4458"></path><path d="M594.8928 865.706667l-57.3184-0.9216-1.425067-29.474134 57.053867-0.861866 1.6896 31.2576z" fill="#EACD42" p-id="4459"></path><path d="M605.994667 676.0192l-2.048 3.2-21.077334 23.688533c-1.28-3.182933-2.926933-8.302933-5.828266-8.277333l-13.303467 0.136533-5.486933-2.756266-2.286934-41.6768 25.762134 1.28 24.2688 24.413866z" fill="#465776" p-id="4460"></path><path d="M271.863467 683.264c-0.017067 3.208533-3.729067 10.1632-5.674667 12.2112-1.92 2.013867-11.528533-2.773333-11.5456-5.6576l-0.477867-69.7856c-0.034133-4.7872 5.282133-11.682133 8.721067-11.5456 3.456 0.136533 9.386667 7.125333 9.361067 11.409067l-0.384 63.368533z" fill="#3E404E" p-id="4461"></path><path d="M754.372267 882.082133c0.1536 5.376-11.451733 11.776-17.066667 11.707734-5.205333-0.059733-17.3312-4.036267-18.807467-8.593067-2.56-7.927467-4.309333-23.236267-4.625066-32.128l39.645866-1.245867 0.853334 30.250667z" fill="#3D3C46" p-id="4462"></path><path d="M504.507733 988.416c-3.0976 15.044267-18.346667 21.265067-33.416533 21.248-16.9472-0.0256-30.856533-4.1728-41.5232-18.773333 4.736-0.887467 11.153067-2.048 14.532267-2.065067l60.407466-0.4096z" fill="#3F3941" p-id="4463"></path><path d="M718.634667 988.714667c-9.045333 29.568-47.3088 21.802667-65.1008 14.7712-2.722133-1.0752-5.393067-12.910933-2.696534-14.1056l67.7888-0.657067z" fill="#3E393F" p-id="4464"></path><path d="M410.624 830.276267c-11.7248 5.614933-26.436267 8.3968-30.216533-4.497067-2.645333-9.028267-0.0768-20.360533 2.0224-33.749333 10.589867 0.6656 16.571733 1.4848 29.166933 3.771733l-0.9728 34.474667z" fill="#3A383F" p-id="4465"></path><path d="M626.235733 676.437333l-27.1872-27.229866c6.3488-1.339733 10.077867-2.210133 13.994667-2.773334l49.9968-7.227733-36.804267 37.230933z" fill="#38455E" p-id="4466"></path><path d="M409.582933 885.137067c-0.3584 4.437333-16.068267 5.248-20.292266 2.8928l-3.242667-42.9056 26.427733 4.002133-2.8928 36.010667z" fill="#3E3D40" p-id="4467"></path><path d="M530.525867 648.388267l-23.5776 25.565866-32.7936-31.5136c3.242667-0.776533 9.130667-2.065067 11.127466-1.732266l45.243734 7.68z" fill="#3A4962" p-id="4468"></path><path d="M753.92 835.985067c-4.343467 6.161067-22.656 5.9136-32.546133 4.334933-5.538133-0.878933-7.748267-18.875733-2.577067-19.677867l34.397867-5.341866c1.8688 2.4576 3.831467 16.273067 0.7168 20.6848z" fill="#3F3A44" p-id="4469"></path><path d="M813.422933 785.442133c4.974933 13.576533-25.156267 14.882133-34.346666 15.5648-2.065067 0.1536-5.538133-8.405333-4.4032-10.146133 1.134933-1.732267 5.333333-4.565333 7.8592-4.625067l30.890666-0.7936z" fill="#343B55" p-id="4470"></path><path d="M777.122133 832.213333c-4.471467 0.3072-6.545067-16.878933-1.9968-17.4336 6.980267-0.8448 18.491733-1.629867 25.821867-1.979733-1.3312 10.8032-12.672 18.525867-23.825067 19.413333z" fill="#D6CCC6" p-id="4471"></path><path d="M708.0448 752.426667c-5.6832 5.998933-18.3552 12.509867-27.067733 13.678933-16.247467 2.184533-34.935467-7.313067-41.966934-20.744533-11.861333-22.664533-6.545067-52.096 15.8464-65.595734 13.815467-8.328533 36.053333-5.853867 49.399467 3.950934 21.691733 15.940267 22.306133 49.160533 3.797333 68.701866z m-30.267733 1.732266c10.069333 0.017067 22.562133-9.685333 26.299733-17.169066 4.394667-8.797867 5.4272-23.0656 1.083733-32.1024-4.736-9.838933-17.3056-16.008533-27.605333-16.64-15.906133-0.981333-26.6496 7.816533-30.370133 22.084266-5.307733 20.360533 6.263467 43.784533 30.592 43.8272z" fill="#4F322C" p-id="4472"></path><path d="M572.714667 747.272533m-11.0336 0a11.0336 11.0336 0 1 0 22.0672 0 11.0336 11.0336 0 1 0-22.0672 0Z" fill="#4C2F2D" p-id="4473"></path><path d="M573.4144 790.4m-10.811733 0a10.811733 10.811733 0 1 0 21.623466 0 10.811733 10.811733 0 1 0-21.623466 0Z" fill="#4E2D2A" p-id="4474"></path><path d="M582.869333 702.8992l-3.566933 9.787733c-1.245867 3.421867-14.9248 1.655467-15.854933-1.860266-1.015467-3.822933-0.546133-12.296533 0.298666-16.059734l13.303467-0.136533c2.901333-0.034133 4.548267 5.0944 5.828267 8.277333z" fill="#59342A" p-id="4475"></path><path d="M505.693867 747.579733c-10.043733 15.402667-23.2192 23.466667-42.2912 27.3408-12.996267-7.2448-22.0672-14.2592-31.7952-25.181866l-3.601067-43.588267c-0.315733-3.848533 8.832-10.641067 12.544-10.666667l53.828267-0.384c5.282133-0.034133 14.190933 8.584533 13.8496 13.815467l-2.542934 38.673067z m-64.759467-40.285866l-0.1024 9.719466 53.614933 0.546134 0.1024-9.719467-53.614933-0.546133z m51.310933 28.245333c-19.370667-1.544533-34.090667-1.826133-51.950933-0.776533 5.4016 11.7504 13.610667 21.4528 22.673067 23.3728 15.6416 3.310933 28.4928-6.016 29.277866-22.587734z" fill="#502D27" p-id="4476"></path><path d="M677.777067 754.158933c-24.328533-0.034133-35.899733-23.466667-30.592-43.8272 3.720533-14.267733 14.464-23.0656 30.370133-22.084266 10.299733 0.631467 22.869333 6.801067 27.605333 16.64 4.352 9.0368 3.310933 23.304533-1.083733 32.1024-3.7376 7.4752-16.2304 17.1776-26.299733 17.169066z" fill="#EDCB39" p-id="4477"></path><path d="M492.245333 735.5392c-0.7936 16.571733-13.636267 25.898667-29.277866 22.587733-9.0624-1.92-17.271467-11.613867-22.673067-23.3728 17.8688-1.0496 32.580267-0.768 51.950933 0.776534z" fill="#42485A" p-id="4478"></path><path d="M440.840533 717.0048l0.098134-9.718613 53.61152 0.54272-0.098134 9.719466z" fill="#B09343" p-id="4479"></path></svg>