<?xml version="1.0" standalone="no"?><!DOCTYPE svg PUBLIC "-//W3C//DTD SVG 1.1//EN" "http://www.w3.org/Graphics/SVG/1.1/DTD/svg11.dtd"><svg t="1784019547304" class="icon" viewBox="0 0 1034 1024" version="1.1" xmlns="http://www.w3.org/2000/svg" p-id="25629" xmlns:xlink="http://www.w3.org/1999/xlink" width="201.953125" height="200"><path d="M5.074834 0h1024v1024H5.074834z" fill="#FFFFFF" p-id="25630"></path><path d="M19.656524 272.281759m40.598671 0l913.67311 0q40.598672 0 40.598672 40.598672l0 517.463904q0 40.598672-40.598672 40.598672l-913.67311 0q-40.598672 0-40.598671-40.598672l0-517.463904q0-40.598672 40.598671-40.598672Z" fill="#E7E4D6" p-id="25631"></path><path d="M973.894473 876.017841h-913.470116a45.707338 45.707338 0 0 1-45.673506-45.673506V312.880431A45.707338 45.707338 0 0 1 60.255195 267.274589h913.639278a45.707338 45.707338 0 0 1 45.673505 45.673506v517.633066a45.707338 45.707338 0 0 1-45.673505 45.43668zM60.255195 277.424257a35.55767 35.55767 0 0 0-35.523837 35.523838v517.633066a35.55767 35.55767 0 0 0 35.523837 35.523838h913.639278a35.55767 35.55767 0 0 0 35.523837-35.523838V312.880431A35.55767 35.55767 0 0 0 973.894473 277.424257z" fill="#1A3A66" p-id="25632"></path><path d="M382.980804 467.223048h268.18806a20.299336 20.299336 0 0 1 20.299336 20.299336v383.420623H362.681468V487.522384a20.299336 20.299336 0 0 1 20.299336-20.299336z" fill="#C7494E" p-id="25633"></path><path d="M671.4682 876.017841H362.681468a5.074834 5.074834 0 0 1-5.074834-5.074834V487.522384a25.37417 25.37417 0 0 1 25.37417-25.37417h268.18806a25.37417 25.37417 0 0 1 25.37417 25.37417v383.420623a5.074834 5.074834 0 0 1-5.074834 5.074834z m-303.711898-10.149668H666.494862V487.522384a15.224502 15.224502 0 0 0-15.224502-15.224502h-268.289556a15.224502 15.224502 0 0 0-15.224502 15.224502zM911.913834 460.355106a67.359963 67.359963 0 1 1 67.32613-67.359963 67.427627 67.427627 0 0 1-67.32613 67.359963z m0-124.536426a57.210295 57.210295 0 1 0 57.176462 57.176463 57.244127 57.244127 0 0 0-57.176462-57.176463z" fill="#1A3A66" p-id="25634"></path><path d="M911.913834 392.995143m-28.588232 0a28.588231 28.588231 0 1 0 57.176463 0 28.588231 28.588231 0 1 0-57.176463 0Z" fill="#C7494E" p-id="25635"></path><path d="M911.913834 426.658209a33.663065 33.663065 0 1 1 33.629233-33.832227 33.832227 33.832227 0 0 1-33.629233 33.832227z m0-57.142631a23.513397 23.513397 0 1 0 23.479565 23.479565 23.513397 23.513397 0 0 0-23.479565-23.479565zM125.923547 460.355106a67.359963 67.359963 0 1 1 67.326131-67.359963 67.427627 67.427627 0 0 1-67.326131 67.359963z m0-124.536426a57.210295 57.210295 0 1 0 57.176463 57.176463 57.277959 57.277959 0 0 0-57.176463-57.176463z" fill="#1A3A66" p-id="25636"></path><path d="M125.923547 392.995143m-28.588231 0a28.588231 28.588231 0 1 0 57.176463 0 28.588231 28.588231 0 1 0-57.176463 0Z" fill="#C7494E" p-id="25637"></path><path d="M125.923547 426.658209a33.663065 33.663065 0 1 1 33.832227-33.832227 33.832227 33.832227 0 0 1-33.832227 33.832227z m0-57.142631a23.513397 23.513397 0 1 0 23.682559 23.479565 23.682559 23.682559 0 0 0-23.682559-23.479565z" fill="#1A3A66" p-id="25638"></path><path d="M847.023623 664.870916m-62.285129 0a62.285129 62.285129 0 1 0 124.570258 0 62.285129 62.285129 0 1 0-124.570258 0Z" fill="#1A3A66" p-id="25639"></path><path d="M847.023623 664.870916m-40.429511 0a40.429511 40.429511 0 1 0 80.859022 0 40.429511 40.429511 0 1 0-80.859022 0Z" fill="#C7494E" p-id="25640"></path><path d="M847.023623 710.476757a45.504345 45.504345 0 1 1 45.470513-45.470513A45.538177 45.538177 0 0 1 847.023623 710.476757z m0-80.825189a35.354677 35.354677 0 1 0 35.320845 35.354676 35.388509 35.388509 0 0 0-35.320845-35.490005z" fill="#1A3A66" p-id="25641"></path><path d="M847.023623 793.602537a128.731622 128.731622 0 1 1 128.731622-128.56246 128.866951 128.866951 0 0 1-128.731622 128.56246z m0-247.313575a118.412793 118.412793 0 1 0 118.581954 118.581954 118.717283 118.717283 0 0 0-118.581954-118.581954z" fill="#1A3A66" p-id="25642"></path><path d="M847.023623 758.247861a93.410777 93.410777 0 1 1 93.376945-93.376945 93.512274 93.512274 0 0 1-93.376945 93.376945z m0-176.638055A83.261109 83.261109 0 1 0 930.386229 664.870916a83.362606 83.362606 0 0 0-83.362606-83.26111z" fill="#1A3A66" p-id="25643"></path><path d="M188.174844 664.870916m-62.285129 0a62.285129 62.285129 0 1 0 124.570258 0 62.285129 62.285129 0 1 0-124.570258 0Z" fill="#1A3A66" p-id="25644"></path><path d="M188.174844 664.870916m-40.429511 0a40.429511 40.429511 0 1 0 80.859022 0 40.429511 40.429511 0 1 0-80.859022 0Z" fill="#C7494E" p-id="25645"></path><path d="M188.174844 710.476757a45.504345 45.504345 0 1 1 45.504345-45.470513A45.538177 45.538177 0 0 1 188.174844 710.476757z m0-80.825189a35.354677 35.354677 0 1 0 35.354677 35.354676 35.388509 35.388509 0 0 0-35.354677-35.490005z" fill="#1A3A66" p-id="25646"></path><path d="M188.174844 793.602537a128.731622 128.731622 0 1 1 128.731622-128.56246 128.866951 128.866951 0 0 1-128.731622 128.56246z m0-247.313575a118.412793 118.412793 0 1 0 118.581954 118.581954 118.717283 118.717283 0 0 0-118.581954-118.581954z" fill="#1A3A66" p-id="25647"></path><path d="M188.174844 758.247861a93.410777 93.410777 0 1 1 93.410777-93.376945 93.478442 93.478442 0 0 1-93.410777 93.376945z m0-176.638055a83.261109 83.261109 0 1 0 83.261109 83.26111 83.362606 83.362606 0 0 0-83.261109-83.26111z" fill="#1A3A66" p-id="25648"></path><path d="M712.743516 215.646612h97.775135v56.635147h-97.775135z" fill="#E7E4D6" p-id="25649"></path><path d="M810.518651 277.424257h-97.775135a5.074834 5.074834 0 0 1-5.074834-5.074834V215.646612a5.074834 5.074834 0 0 1 5.074834-5.074834h97.775135a5.074834 5.074834 0 0 1 5.074834 5.074834v56.635147a5.074834 5.074834 0 0 1-5.074834 5.142498z m-92.700301-10.149668h87.625467V220.721446h-87.625467z" fill="#1A3A66" p-id="25650"></path><path d="M728.340172 232.393564h66.54799v23.175075h-66.54799z" fill="#C7494E" p-id="25651"></path><path d="M795.057323 260.508144h-66.717151a5.074834 5.074834 0 0 1-5.074834-5.074834v-23.039746a5.074834 5.074834 0 0 1 5.074834-5.074834H795.057323a5.074834 5.074834 0 0 1 5.074834 5.074834v23.175075A5.074834 5.074834 0 0 1 795.057323 260.508144z m-61.506988-10.149668h56.432154v-12.890078h-56.567483z" fill="#1A3A66" p-id="25652"></path><path d="M847.057455 233.307034h62.386626v38.974725h-62.386626z" fill="#E7E4D6" p-id="25653"></path><path d="M909.410249 277.424257h-62.352794a5.074834 5.074834 0 0 1-5.074834-5.074834V233.442363a5.074834 5.074834 0 0 1 5.074834-5.074834h62.352794a5.074834 5.074834 0 0 1 5.074834 5.074834v38.839396a5.074834 5.074834 0 0 1-5.074834 5.142498z m-57.27796-10.149668h52.203126v-28.892721h-52.203126zM63.638418 277.424257a5.074834 5.074834 0 0 1-5.074834-5.074834V193.824826a5.074834 5.074834 0 0 1 10.149668 0v78.456933a5.074834 5.074834 0 0 1-5.074834 5.142498zM974.16513 277.424257a5.074834 5.074834 0 0 1-5.074834-5.074834V193.824826a5.074834 5.074834 0 0 1 10.149668 0v78.456933a5.074834 5.074834 0 0 1-5.074834 5.142498z" fill="#1A3A66" p-id="25654"></path><path d="M395.566392 802.29742H449.968613v29.806191h-54.402221z" fill="#E7E4D6" p-id="25655"></path><path d="M449.968613 837.178445h-54.402221a5.074834 5.074834 0 0 1-5.074834-5.074834v-29.806191a5.074834 5.074834 0 0 1 5.074834-5.074834H449.968613a5.074834 5.074834 0 0 1 5.074834 5.074834V832.272772a5.074834 5.074834 0 0 1-5.074834 4.905673z m-49.293554-10.149668h44.21872v-19.656523h-44.252553z" fill="#1A3A66" p-id="25656"></path><path d="M395.566392 744.681138H449.968613v29.806191h-54.402221z" fill="#E7E4D6" p-id="25657"></path><path d="M449.968613 779.562163h-54.402221a5.074834 5.074834 0 0 1-5.074834-5.074834v-29.806191a5.074834 5.074834 0 0 1 5.074834-5.074834H449.968613a5.074834 5.074834 0 0 1 5.074834 5.074834v29.806191a5.074834 5.074834 0 0 1-5.074834 5.074834z m-49.293554-10.149668h44.21872v-19.656523h-44.252553z" fill="#1A3A66" p-id="25658"></path><path d="M484.172994 744.681138h54.40222v29.806191h-54.40222z" fill="#E7E4D6" p-id="25659"></path><path d="M538.575214 779.562163h-54.40222a5.074834 5.074834 0 0 1-5.074834-5.074834v-29.806191a5.074834 5.074834 0 0 1 5.074834-5.074834h54.40222a5.074834 5.074834 0 0 1 5.074834 5.074834v29.806191a5.074834 5.074834 0 0 1-5.074834 5.074834z m-49.327386-10.149668h44.252552v-19.656523h-44.252552z" fill="#1A3A66" p-id="25660"></path><path d="M484.172994 687.064856h54.40222v29.806192h-54.40222z" fill="#E7E4D6" p-id="25661"></path><path d="M538.575214 721.945882h-54.40222a5.074834 5.074834 0 0 1-5.074834-5.074834v-29.806192a5.074834 5.074834 0 0 1 5.074834-5.074834h54.40222a5.074834 5.074834 0 0 1 5.074834 5.074834v29.806192a5.074834 5.074834 0 0 1-5.074834 5.074834z m-49.327386-10.149668h44.252552v-19.656524h-44.252552z" fill="#1A3A66" p-id="25662"></path><path d="M395.566392 687.064856H449.968613v29.806192h-54.402221z" fill="#E7E4D6" p-id="25663"></path><path d="M449.968613 721.945882h-54.402221a5.074834 5.074834 0 0 1-5.074834-5.074834v-29.806192a5.074834 5.074834 0 0 1 5.074834-5.074834H449.968613a5.074834 5.074834 0 0 1 5.074834 5.074834v29.806192a5.074834 5.074834 0 0 1-5.074834 5.074834z m-49.293554-10.149668h44.21872v-19.656524h-44.252553z" fill="#1A3A66" p-id="25664"></path><path d="M395.566392 629.448574H449.968613v29.806192h-54.402221z" fill="#E7E4D6" p-id="25665"></path><path d="M449.968613 664.3296h-54.402221a5.074834 5.074834 0 0 1-5.074834-5.074834v-29.806192a5.074834 5.074834 0 0 1 5.074834-5.074834H449.968613a5.074834 5.074834 0 0 1 5.074834 5.074834v29.806192a5.074834 5.074834 0 0 1-5.074834 5.074834z m-49.293554-10.149668h44.21872v-19.656524h-44.252553z" fill="#1A3A66" p-id="25666"></path><path d="M572.813427 744.681138h54.40222v29.806191h-54.40222z" fill="#E7E4D6" p-id="25667"></path><path d="M627.215647 779.562163h-54.40222a5.074834 5.074834 0 0 1-5.074834-5.074834v-29.806191a5.074834 5.074834 0 0 1 5.074834-5.074834h54.40222a5.074834 5.074834 0 0 1 5.074834 5.074834v29.806191a5.074834 5.074834 0 0 1-5.074834 5.074834z m-49.327386-10.149668h44.252552v-19.656523h-44.252552z" fill="#1A3A66" p-id="25668"></path><path d="M572.813427 802.29742h54.40222v29.806191h-54.40222z" fill="#E7E4D6" p-id="25669"></path><path d="M627.215647 837.178445h-54.40222a5.074834 5.074834 0 0 1-5.074834-5.074834v-29.806191a5.074834 5.074834 0 0 1 5.074834-5.074834h54.40222a5.074834 5.074834 0 0 1 5.074834 5.074834V832.272772a5.074834 5.074834 0 0 1-5.074834 4.905673z m-49.327386-10.149668h44.252552v-19.656523h-44.252552z" fill="#1A3A66" p-id="25670"></path><path d="M484.172994 802.29742h54.40222v29.806191h-54.40222z" fill="#E7E4D6" p-id="25671"></path><path d="M538.575214 837.178445h-54.40222a5.074834 5.074834 0 0 1-5.074834-5.074834v-29.806191a5.074834 5.074834 0 0 1 5.074834-5.074834h54.40222a5.074834 5.074834 0 0 1 5.074834 5.074834V832.272772a5.074834 5.074834 0 0 1-5.074834 4.905673z m-49.327386-10.149668h44.252552v-19.656523h-44.252552z" fill="#1A3A66" p-id="25672"></path><path d="M362.681468 272.281759h308.786732v138.712129a20.299336 20.299336 0 0 1-20.299336 20.299336H382.980804a20.299336 20.299336 0 0 1-20.299336-20.299336v-138.712129z" fill="#C7494E" p-id="25673"></path><path d="M651.168864 436.435722H382.980804a25.37417 25.37417 0 0 1-25.37417-25.37417v-138.712129a5.074834 5.074834 0 0 1 5.074834-5.074834h308.786732a5.074834 5.074834 0 0 1 5.074834 5.074834v138.712129a25.37417 25.37417 0 0 1-25.37417 25.37417zM367.756302 277.424257v133.569631a15.258334 15.258334 0 0 0 15.224502 15.224502h268.18806a15.258334 15.258334 0 0 0 15.224502-15.224502V277.424257z" fill="#1A3A66" p-id="25674"></path><path d="M378.311957 314.639707m10.893977 0l255.703968 0q10.893977 0 10.893977 10.893977l0 79.438067q0 10.893977-10.893977 10.893977l-255.703968 0q-10.893977 0-10.893977-10.893977l0-79.438067q0-10.893977 10.893977-10.893977Z" fill="#C7494E" p-id="25675"></path><path d="M644.909902 420.974395h-255.670136a15.968811 15.968811 0 0 1-15.968811-16.002644V325.567516a15.968811 15.968811 0 0 1 15.968811-16.002643h255.670136a16.002643 16.002643 0 0 1 15.968811 16.002643v79.404235a16.002643 16.002643 0 0 1-15.968811 16.002644zM389.239766 319.714541a5.852975 5.852975 0 0 0-5.819143 5.852975v79.404235a5.852975 5.852975 0 0 0 5.819143 5.852976h255.670136a5.852975 5.852975 0 0 0 5.819143-5.852976V325.567516a5.852975 5.852975 0 0 0-5.819143-5.852975z" fill="#1A3A66" p-id="25676"></path><path d="M443.946476 365.28655m-24.393035 0a24.393035 24.393035 0 1 0 48.786071 0 24.393035 24.393035 0 1 0-48.786071 0Z" fill="#E7E4D6" p-id="25677"></path><path d="M443.946476 394.754419a29.501702 29.501702 0 1 1 29.501702-29.467869 29.501702 29.501702 0 0 1-29.501702 29.467869z m0-48.819903a19.352034 19.352034 0 1 0 19.352034 19.352034 19.352034 19.352034 0 0 0-19.352034-19.352034z" fill="#1A3A66" p-id="25678"></path><path d="M591.759474 365.28655m-24.393035 0a24.393035 24.393035 0 1 0 48.78607 0 24.393035 24.393035 0 1 0-48.78607 0Z" fill="#E7E4D6" p-id="25679"></path><path d="M591.759474 394.754419a29.501702 29.501702 0 1 1 29.467869-29.467869 29.501702 29.501702 0 0 1-29.467869 29.467869z m0-48.819903a19.352034 19.352034 0 1 0 19.318201 19.352034 19.352034 19.352034 0 0 0-19.318201-19.352034zM860.218191 247.99022h36.809463v10.386494h-36.809463z" fill="#1A3A66" p-id="25680"></path><path d="M5.074834 153.023161m9.506856 0l1004.986288 0q9.506856 0 9.506856 9.506855l0 21.787954q0 9.506856-9.506856 9.506856l-1004.986288 0q-9.506856 0-9.506856-9.506856l0-21.787954q0-9.506856 9.506856-9.506855Z" fill="#E7E4D6" p-id="25681"></path><path d="M1019.534146 198.89966H14.58169A14.615522 14.615522 0 0 1 0 184.31797v-21.754122a14.615522 14.615522 0 0 1 14.58169-14.615521h1004.817127a14.649354 14.649354 0 0 1 14.615522 14.615521v21.754122a14.649354 14.649354 0 0 1-14.480193 14.58169zM14.58169 158.097995A4.465854 4.465854 0 0 0 10.149668 162.563848v21.754122a4.432022 4.432022 0 0 0 4.432022 4.432022h1004.817127a4.465854 4.465854 0 0 0 4.465854-4.432022v-21.754122a4.465854 4.465854 0 0 0-4.465854-4.465853z" fill="#1A3A66" p-id="25682"></path></svg>