<?xml version="1.0" standalone="no"?><!DOCTYPE svg PUBLIC "-//W3C//DTD SVG 1.1//EN" "http://www.w3.org/Graphics/SVG/1.1/DTD/svg11.dtd"><svg t="1784020411946" class="icon" viewBox="0 0 1024 1024" version="1.1" xmlns="http://www.w3.org/2000/svg" p-id="110898" xmlns:xlink="http://www.w3.org/1999/xlink" width="200" height="200"><path d="M206.51781285 276.88854191L101.57186816 105.23277318h101.28503962l35.79551539 63.86245411c10.16918005 19.93159353 21.1518952 40.26995552 32.13461032 60.201549h2.44060337c8.13534518-19.93159353 17.89775865-40.26995552 26.03310382-60.201549l30.10077358-63.86245411h97.21736798l-104.94594467 182.23171728 111.86098816 176.13020885h-101.28503963l-39.86318892-65.08275576c-11.38948175-21.1518952-23.18573198-42.71055887-34.57521369-63.45568749h-3.25413846c-10.16918005 20.33836199-19.93159353 41.49025721-30.10077546 63.45568749l-33.35491201 65.08275576h-97.21736799l112.67452328-186.7061574zM719.85805257 778.83930183l-108.2000812-229.00994968h76.47223747l36.20228386 87.86172112c10.16918005 26.846637 19.93159353 52.06620574 31.32107717 80.13314445h2.03383487c11.38948175-27.66017211 21.96543027-53.28650741 32.13461222-80.13314445l36.20228199-87.86172112h75.2519377l-108.60684972 229.00994968v132.19934827h-72.40456585l-0.40676851-132.19934827z" fill="#1E92E6" p-id="110899"></path><path d="M76.51500567 889.92743101l813.41242534-813.41242534 57.51688533 57.55756332-813.41242344 813.37174735z" fill="#787878" p-id="110900"></path></svg>