<?xml version="1.0" standalone="no"?><!DOCTYPE svg PUBLIC "-//W3C//DTD SVG 1.1//EN" "http://www.w3.org/Graphics/SVG/1.1/DTD/svg11.dtd"><svg t="1784020632687" class="icon" viewBox="0 0 1024 1024" version="1.1" xmlns="http://www.w3.org/2000/svg" p-id="132081" xmlns:xlink="http://www.w3.org/1999/xlink" width="200" height="200"><path d="M228.130191 256.574635m36.489338 0l364.088889 0q36.489338 0 36.489337 36.489338l0 0q0 36.489338-36.489337 36.489338l-364.088889 0q-36.489338 0-36.489338-36.489338l0 0q0-36.489338 36.489338-36.489338Z" fill="#89BAF7" p-id="132082"></path><path d="M228.130191 490.221324m36.489338 0l364.088889 0q36.489338 0 36.489337 36.489338l0 0q0 36.489338-36.489337 36.489338l-364.088889 0q-36.489338 0-36.489338-36.489338l0 0q0-36.489338 36.489338-36.489338Z" fill="#89BAF7" p-id="132083"></path><path d="M228.130191 723.350842m36.489338 0l145.957351 0q36.489338 0 36.489338 36.489338l0 0q0 36.489338-36.489338 36.489337l-145.957351 0q-36.489338 0-36.489338-36.489337l0 0q0-36.489338 36.489338-36.489338Z" fill="#89BAF7" p-id="132084"></path><path d="M463.443322 1021.816386h-271.802469a182.676543 182.676543 0 0 1-182.446689-182.446689v-656.865544a182.676543 182.676543 0 0 1 182.446689-182.446689h510.908193a182.676543 182.676543 0 0 1 182.446689 182.446689v289.213917a36.489338 36.489338 0 1 1-72.978676 0v-289.213917a109.582941 109.582941 0 0 0-109.468013-109.468014h-510.908193a109.582941 109.582941 0 0 0-109.468013 109.468014v656.865544a109.582941 109.582941 0 0 0 109.468013 109.468013h271.802469a36.489338 36.489338 0 0 1 0 72.978676z" fill="#0A71EF" p-id="132085"></path><path d="M969.179798 891.718967h-0.344781c-10.228507-5.746352-25.571268-14.768126-47.637262-27.007856l-25.169023-13.848709c-13.503928-7.470258-27.007856-14.940516-28.731762-15.687542a9.94119 9.94119 0 0 1-4.769473-6.550842 20.801796 20.801796 0 0 1 5.746353-15.859933 234.79596 234.79596 0 0 0 42.350617-113.145679 132.166105 132.166105 0 1 0-263.068014 0 233.129517 233.129517 0 0 0 41.028957 112.571044 23.732435 23.732435 0 0 1 6.378451 17.239057 9.596409 9.596409 0 0 1-4.539619 6.378451c-23.330191 12.412121-80.448934 43.959596-100.905948 56.371718-29.19147 19.537598-45.051403 35.22514-45.051403 62.060606v15.687542a54.532884 54.532884 0 0 0 54.360494 54.360494h361.273176a54.360494 54.360494 0 0 0 54.188103-54.360494v-16.434568c-1.838833-27.812346-17.353984-43.155107-45.108866-61.773289z m-211.81055-49.41863a83.264646 83.264646 0 0 0-16.779349-67.347251 172.390572 172.390572 0 0 1-28.731762-75.564534c0-49.07385 27.352637-81.942985 68.439057-81.942985a72.576431 72.576431 0 0 1 67.692032 81.942985 174.63165 174.63165 0 0 1-30.283278 75.909316 82.17284 82.17284 0 0 0-16.262177 67.51964 70.680135 70.680135 0 0 0 36.489338 47.982043l27.927273 15.342761 26.08844 14.595735c14.768126 8.044893 29.363861 16.262177 43.270033 24.479461 10.400898 6.953086 16.032323 11.147924 16.606959 11.492705v4.022447h-343.22963v-3.850056c2.011223-1.666442 6.550842-5.114254 16.779349-11.837486a3150.43771 3150.43771 0 0 1 95.791695-53.441078 73.323457 73.323457 0 0 0 36.20202-49.303703z" fill="#FF7733" p-id="132086"></path></svg>