<svg t="1783937652508" class="icon" viewBox="0 0 1024 1024" version="1.1" xmlns="http://www.w3.org/2000/svg" p-id="11965"><path d="M705.28 640.64H636.8c-3.84 0-7.68-3.2-7.68-7.68V273.28L620.16 230.4v-3.2l19.2-92.16c0.64-3.2 3.84-5.76 7.04-5.76h48.64c3.2 0 6.4 2.56 7.04 5.76l19.2 92.16v3.2l-9.6 43.52V633.6c0.64 3.84-2.56 7.04-6.4 7.04z m-60.8-14.72h53.12V272.64v-1.28l8.96-42.24-17.92-84.48H652.8l-17.92 84.48 8.96 42.24V625.92z" fill="#00ABE0" p-id="11966"></path><path d="M670.72 638.72c-3.84 0-7.68-3.2-7.68-7.68v-358.4c0-3.84 3.2-7.68 7.68-7.68 3.84 0 7.68 3.2 7.68 7.68v358.4c0 3.84-3.84 7.68-7.68 7.68z" fill="#00ABE0" p-id="11967"></path><path d="M670.72 960.64c-41.6 0-75.52-33.92-75.52-75.52v-218.24c0-22.4 18.56-40.96 40.96-40.96h69.12c22.4 0 40.96 18.56 40.96 40.96v218.24c0 41.6-33.92 75.52-75.52 75.52z m-34.56-320c-14.72 0-26.24 11.52-26.24 26.24v218.24c0 33.28 27.52 60.8 60.8 60.8s60.8-27.52 60.8-60.8v-218.24c0-14.72-11.52-26.24-26.24-26.24H636.16z" fill="#211D1C" p-id="11968"></path><path d="M670.72 926.72c-3.84 0-7.68-3.2-7.68-7.68 0-3.84 3.2-7.68 7.68-7.68 14.72 0 26.88-12.16 26.88-26.88v-217.6c0-3.84 3.2-7.68 7.68-7.68 3.84 0 7.68 3.2 7.68 7.68v217.6c-0.64 23.68-19.2 42.24-42.24 42.24zM374.4 960c-41.6 0-75.52-33.92-75.52-75.52v-473.6c-52.48-28.16-85.12-81.92-85.12-141.44 0-56.96 30.72-110.72 80.64-139.52 2.56-1.28 5.12-1.28 7.68 0 2.56 1.28 3.84 3.84 3.84 6.4v129.92l68.48 39.68 68.48-39.68V136.32c0-2.56 1.28-5.12 3.84-6.4 2.56-1.28 5.12-1.28 7.68 0 49.92 28.8 80.64 81.92 80.64 139.52 0 59.52-32.64 113.92-85.12 141.44v472.96c0 42.24-33.92 76.16-75.52 76.16zM290.56 149.76c-38.4 26.88-62.08 71.68-62.08 119.04 0 55.68 30.72 105.6 80.64 130.56 2.56 1.28 3.84 3.84 3.84 6.4v478.08c0 33.28 27.52 60.8 60.8 60.8s60.8-27.52 60.8-60.8V406.4c0-2.56 1.28-5.12 3.84-6.4 49.92-24.96 80.64-74.88 80.64-130.56 0-47.36-23.68-92.16-62.08-119.04v120.32c0 2.56-1.28 5.12-3.84 6.4l-76.16 44.16c-2.56 1.28-5.12 1.28-7.68 0L294.4 277.12c-2.56-1.28-3.84-3.84-3.84-6.4V149.76z" fill="#211D1C" p-id="11969"></path><path d="M374.4 925.44c-23.04 0-41.6-18.56-41.6-41.6s18.56-41.6 41.6-41.6 41.6 18.56 41.6 41.6-18.56 41.6-41.6 41.6z m0-67.84c-14.72 0-26.88 12.16-26.88 26.88s12.16 26.88 26.88 26.88c14.72 0 26.88-12.16 26.88-26.88s-12.16-26.88-26.88-26.88zM408.96 807.68c-3.84 0-7.68-3.2-7.68-7.68V406.4c0-3.84 3.2-7.68 7.68-7.68 3.84 0 7.68 3.2 7.68 7.68V800c-0.64 4.48-3.84 7.68-7.68 7.68z" fill="#211D1C" p-id="11970"></path></svg>