<?xml version="1.0" standalone="no"?><!DOCTYPE svg PUBLIC "-//W3C//DTD SVG 1.1//EN" "http://www.w3.org/Graphics/SVG/1.1/DTD/svg11.dtd"><svg t="1784019907147" class="icon" viewBox="0 0 1024 1024" version="1.1" xmlns="http://www.w3.org/2000/svg" p-id="67785" xmlns:xlink="http://www.w3.org/1999/xlink" width="200" height="200"><path d="M48 873.6a464 121.6 0 1 0 928 0 464 121.6 0 1 0-928 0Z" fill="#DAE9FF" p-id="67786"></path><path d="M248 877.6h-56c-24 0-44-20-44-44V117.6c0-24 20-44 44-44h56c24 0 44 20 44 44v715.2c0 24.8-20 44.8-44 44.8z" fill="#1D85DB" p-id="67787"></path><path d="M254.4 842.4h-68c-20.8 0-37.6-16.8-37.6-37.6V111.2c0-20.8 16.8-37.6 37.6-37.6h68c20.8 0 37.6 16.8 37.6 37.6v693.6c0 20.8-16.8 37.6-37.6 37.6z" fill="#459DF5" p-id="67788"></path><path d="M636 632h-56.8c-26.4 0-48 20-48 44.8v170.4c0 16.8-14.4 29.6-32 29.6h-76.8c-17.6 0-32-13.6-32-29.6v-688c0-21.6 19.2-39.2 42.4-39.2h217.6c150.4 4.8 228.8 87.2 234.4 247.2 0.8 179.2-81.6 267.2-248.8 264.8zM624 256h-48c-24.8 0-45.6 19.2-45.6 42.4v169.6c0 15.2 12.8 28 28 28H624c73.6-2.4 111.2-43.2 112.8-121.6-1.6-76.8-39.2-116-112.8-118.4z" fill="#1D85DB" p-id="67789"></path><path d="M636 600h-55.2c-27.2 0-48.8 21.6-48.8 48.8v144.8c0 27.2-21.6 48.8-48.8 48.8H440c-27.2 0-48.8-21.6-48.8-48.8V122.4c0-27.2 21.6-48.8 48.8-48.8h210.4c149.6 4.8 228 89.6 233.6 254.4 1.6 184-80.8 274.4-248 272zM624 213.6h-44c-27.2 0-48.8 21.6-48.8 48.8v149.6c0 27.2 21.6 48.8 48.8 48.8H624c73.6-2.4 111.2-44 112.8-125.6-1.6-78.4-39.2-119.2-112.8-121.6z" fill="#459DF5" p-id="67790"></path><path d="M200 184c-12 0-21.6-9.6-21.6-21.6v-22.4c0-12 9.6-21.6 21.6-21.6 12 0 21.6 9.6 21.6 21.6v22.4c0.8 12-8.8 21.6-21.6 21.6z" fill="#B8FAFF" p-id="67791"></path><path d="M200 177.6c-12 0-22.4-9.6-22.4-21.6v-23.2c0-12 9.6-21.6 21.6-21.6 12 0 21.6 9.6 21.6 21.6v23.2c0.8 11.2-8.8 21.6-20.8 21.6z" fill="#FFFFFF" p-id="67792"></path></svg>