<?xml version="1.0" standalone="no"?><!DOCTYPE svg PUBLIC "-//W3C//DTD SVG 1.1//EN" "http://www.w3.org/Graphics/SVG/1.1/DTD/svg11.dtd"><svg t="1784020271543" class="icon" viewBox="0 0 1024 1024" version="1.1" xmlns="http://www.w3.org/2000/svg" p-id="102281" xmlns:xlink="http://www.w3.org/1999/xlink" width="200" height="200"><path d="M300.05592 0h423.88816c200.041092 0 300.05592 100.014829 300.05592 300.05592v423.88816c0 200.041092-100.014829 300.05592-300.05592 300.05592H300.05592C100.014829 1024 0 923.973737 0 723.94408V300.05592C0 100.014829 100.014829 0 300.05592 0z" fill="#F26666" opacity=".15" p-id="102282"></path><path d="M528.613873 572.040913l-56.130421-55.08991-222.26915 210.000268v11.685738c0 18.431909 14.944482 33.364956 33.364956 33.364956h440.719281c18.431909 0 33.364956-14.944482 33.364956-33.364956V331.477065L528.602439 572.040913z" fill="#F26666" p-id="102283"></path><path d="M724.309974 254.79941H552.099692c-5.328331 0-7.992496 6.448881-4.230649 10.210729l0.480236 0.480236 3.704676 3.704676 48.83541 48.83541a10.855617 10.855617 0 0 1 0 15.356113l-70.983429 70.983429a10.855617 10.855617 0 0 1-15.356112 0l-41.163072-41.163071a10.855617 10.855617 0 0 0-15.356112 0L255.908527 565.329046a19.455268 19.455268 0 0 0-5.694225 13.755326v90.627361l222.852293-209.863057 54.552504 53.534861 227.231587-238.642905c-5.168252-11.742909-16.899728-19.941221-30.540712-19.941222z" fill="#F26666" p-id="102284"></path></svg>