<?xml version="1.0" standalone="no"?><!DOCTYPE svg PUBLIC "-//W3C//DTD SVG 1.1//EN" "http://www.w3.org/Graphics/SVG/1.1/DTD/svg11.dtd"><svg t="1784020475071" class="icon" viewBox="0 0 1024 1024" version="1.1" xmlns="http://www.w3.org/2000/svg" p-id="116633" xmlns:xlink="http://www.w3.org/1999/xlink" width="200" height="200"><path d="M512 512m-512 0a512 512 0 1 0 1024 0 512 512 0 1 0-1024 0Z" fill="#FFFFFF" p-id="116634"></path><path d="M352 704m-67.2 0a67.2 67.2 0 1 0 134.4 0 67.2 67.2 0 1 0-134.4 0Z" fill="#FFB900" p-id="116635"></path><path d="M352 784c-44 0-80-36-80-80s36-80 80-80 80 36 80 80-36 80-80 80z m0-134.4c-29.6 0-54.4 24.8-54.4 54.4s24.8 54.4 54.4 54.4 54.4-24.8 54.4-54.4-24.8-54.4-54.4-54.4z" fill="#333333" p-id="116636"></path><path d="M720 704m-67.2 0a67.2 67.2 0 1 0 134.4 0 67.2 67.2 0 1 0-134.4 0Z" fill="#FFB900" p-id="116637"></path><path d="M720 784c-44 0-80-36-80-80s36-80 80-80 80 36 80 80-36 80-80 80z m0-134.4c-30.4 0-54.4 24.8-54.4 54.4s24.8 54.4 54.4 54.4 54.4-24.8 54.4-54.4-24-54.4-54.4-54.4z" fill="#333333" p-id="116638"></path><path d="M192 256h400c17.6 0 32 14.4 32 32v368H435.2c-26.4-28.8-54.4-42.4-82.4-42.4S296 627.2 267.2 656H192c-17.6 0-32-14.4-32-32V288c0-17.6 14.4-32 32-32z" fill="#FFB900" p-id="116639"></path><path d="M160 416h464v96H160z" fill="#FF7400" p-id="116640"></path><path d="M624 656H435.2l-3.2-4c-51.2-52-106.4-51.2-160.8 0l-4 4H192c-17.6 0-32-14.4-32-32V288c0-17.6 14.4-32 32-32h400c17.6 0 32 14.4 32 32v368z m-177.6-25.6h152V288c0-3.2-3.2-6.4-6.4-6.4H192c-3.2 0-6.4 3.2-6.4 6.4v336c0 3.2 3.2 6.4 6.4 6.4h64.8c31.2-28 63.2-42.4 96-42.4s64 14.4 93.6 42.4z" fill="#333333" p-id="116641"></path><path d="M598.4 352h205.6c9.6 0 17.6 4 24 11.2l76 86.4c4.8 5.6 8 13.6 8 20.8v144c0 17.6-14.4 32-32 32-2.4 0-5.6 0-8-0.8l-155.2-40.8L598.4 656V352z" fill="#FFB900" p-id="116642"></path><path d="M724.8 352h80c9.6 0 17.6 4 24 11.2l75.2 86.4c4.8 5.6 8 13.6 8 20.8v79.2H756.8c-17.6 0-32-14.4-32-32V352z" fill="#FF7400" p-id="116643"></path><path d="M880 656h-72.8l-4-3.2c-28.8-27.2-56.8-41.6-83.2-41.6-26.4 0-53.6 13.6-80.8 40.8l-4 4h-36.8V352h205.6c9.6 0 17.6 4 24 11.2l76 86.4c4.8 5.6 8 13.6 8 20.8V624c0 17.6-14.4 32-32 32z m-62.4-25.6h62.4c3.2 0 6.4-3.2 6.4-6.4V470.4c0-1.6-0.8-3.2-1.6-4l-76-86.4c-1.6-1.6-3.2-2.4-4.8-2.4H624v252.8h0.8c61.6-59.2 128-60 192.8 0z" fill="#333333" p-id="116644"></path></svg>