<?xml version="1.0" standalone="no"?><!DOCTYPE svg PUBLIC "-//W3C//DTD SVG 1.1//EN" "http://www.w3.org/Graphics/SVG/1.1/DTD/svg11.dtd"><svg t="1784020174777" class="icon" viewBox="0 0 1024 1024" version="1.1" xmlns="http://www.w3.org/2000/svg" p-id="92010" xmlns:xlink="http://www.w3.org/1999/xlink" width="200" height="200"><path d="M235.46654 308.353398v249.397513H39.548923v-179.50965c0-38.589925 31.295939-69.887864 69.887863-69.887863h35.72593z" fill="#BED8FB" p-id="92011"></path><path d="M984.451077 393.055232v548.776928c0 45.389911-36.777928 82.16784-82.145839 82.16784H227.330556c-38.775924 0-71.267861-26.867948-79.901844-63.005877l-0.329999-46.975908-1.915997-279.755454V82.16784C145.184716 36.777928 181.962645 0 227.330556 0h364.065289c32.717936 0 138.681729 90.345824 232.345546 185.493638 85.465833 86.84383 160.709686 177.685653 160.709686 207.561594z" fill="#DDEAFB" p-id="92012"></path><path d="M984.451077 393.055232v201.029608c0-0.226-0.02-0.453999-0.02-0.699999C978.249089 346.719323 777.323482 335.305345 711.61961 269.599473l112.123781-84.103835c85.463833 86.84183 160.707686 177.683653 160.707686 207.559594z" fill="#CBE2FF" p-id="92013"></path><path d="M591.385845 0H390.356238c0.226 0 0.453999 0.02 0.699998 0.02 246.665518 6.181988 258.079496 207.107595 323.785368 272.811467l84.103836-112.123781C712.101609 75.243853 621.259787 0 591.385845 0z" fill="#CBE2FF" p-id="92014"></path><path d="M984.449077 393.065232v34.753932c0-73.171857-59.335884-132.505741-132.505741-132.505741h-80.647842c-45.367911 0-82.16184-36.793928-82.16184-82.161839V132.505741C689.133654 59.333884 629.79977 0 556.627913 0h34.753932c62.579878 0 122.615761 24.865951 166.865674 69.113865l157.085693 157.085693a236.007539 236.007539 0 0 1 69.115865 166.865674z" fill="#BED8FB" p-id="92015"></path><path d="M701.41163 621.816786v184.27764c0 59.605884-48.315906 107.921789-107.921789 107.921789H147.092713l-1.915997-279.755454v-120.365765h448.313125c59.605884 0 107.921789 48.313906 107.921789 107.92179z" fill="#CBE2FF" p-id="92016"></path><path d="M771.297494 556.048914v184.27764c0 59.605884-48.315906 107.921789-107.92179 107.921789H109.448786c-2.079996 0-4.119992-0.082-6.159988-0.287999-35.70593-3.089994-63.725876-33.067935-63.725875-69.599864v-400.119219c0 19.285962 7.829985 36.755928 20.47996 49.407904 11.269978 11.289978 26.393948 18.749963 43.245915 20.19196 2.039996 0.206 4.079992 0.287999 6.159988 0.288h553.926918c59.607884-0.002 107.921789 48.313906 107.92179 107.919789z" fill="#78D0B1" p-id="92017"></path><path d="M103.288798 447.839125v400.121219c-35.70593-3.089994-63.725876-33.067935-63.725875-69.599864v-400.119219c0 19.285962 7.829985 36.755928 20.47996 49.407904 11.269978 11.289978 26.391948 18.747963 43.245915 20.18996z" fill="#61AAB7" p-id="92018"></path><path d="M462.842096 730.598573c-15.875969 0.09-38.579925 0.174-53.291896 0.164v-181.113647a15.45197 15.45197 0 1 0-30.90394 0v196.401617a15.44997 15.44997 0 0 0 12.843975 15.22997c1.103998 0.19 2.307995 0.395999 23.593954 0.395999 10.40398 0 25.60395-0.05 47.933907-0.173999a15.45397 15.45397 0 0 0 15.36597-15.53997c-0.05-8.531983-6.965986-15.47397-15.54197-15.36397zM614.065801 634.98476c-25.64795-9.459982-49.409903-19.795961-55.001893-22.255957-7.037986-5.04999-10.46598-13.197974-9.201982-22.009957 1.555997-10.829979 9.789981-19.497962 22.029957-23.183954 32.675936-9.839981 61.985879 13.761973 62.515878 14.193972a15.45397 15.45397 0 0 0 19.835961-23.697954c-1.701997-1.429997-42.233918-34.859932-91.265822-20.087961-23.699954 7.139986-40.447921 25.67995-43.707914 48.383906-3.025994 21.083959 6.099988 41.359919 23.821953 52.913896 0.681999 0.443999 1.397997 0.835998 2.141996 1.167998 1.125998 0.501999 27.927945 12.431976 58.131887 23.573954 22.767956 8.397984 34.283933 21.853957 31.593938 36.917928-2.585995 14.477972-18.643964 29.865942-43.313916 29.865942-22.067957 0-43.393915-8.993982-57.047888-24.061953a15.45197 15.45197 0 0 0-22.899955 20.751959c19.415962 21.423958 49.301904 34.213933 79.947843 34.213933 36.403929 0 68.105867-23.789954 73.737856-55.337892 6.479987-36.259929-22.263957-60.631882-51.317899-71.34786zM264.566483 640.958748l58.055887-82.409839a15.45197 15.45197 0 1 0-25.265951-17.797965l-51.677899 73.357857-51.599899-73.347857a15.45597 15.45597 0 0 0-25.277951 17.781965l57.969887 82.405839-67.889867 96.367812a15.45197 15.45197 0 0 0 25.26595 17.799965l61.51388-87.319829 61.42188 87.311829a15.43397 15.43397 0 0 0 12.651976 6.563987 15.45397 15.45397 0 0 0 12.625975-24.345952z" fill="#475959" p-id="92019"></path></svg>