<?xml version="1.0" standalone="no"?><!DOCTYPE svg PUBLIC "-//W3C//DTD SVG 1.1//EN" "http://www.w3.org/Graphics/SVG/1.1/DTD/svg11.dtd"><svg t="1784019410618" class="icon" viewBox="0 0 1024 1024" version="1.1" xmlns="http://www.w3.org/2000/svg" p-id="8666" xmlns:xlink="http://www.w3.org/1999/xlink" width="200" height="200"><path d="M512 512m-512 0a512 512 0 1 0 1024 0 512 512 0 1 0-1024 0Z" fill="#E07F28" p-id="8667"></path><path d="M0 483.1744a512 483.1744 0 1 0 1024 0 512 483.1744 0 1 0-1024 0Z" fill="#F4C43D" p-id="8668"></path><path d="M286.976 794.9824a223.4368 57.9584 0 1 0 446.8736 0 223.4368 57.9584 0 1 0-446.8736 0Z" fill="#5F2A26" p-id="8669"></path><path d="M510.4128 855.3472c-126.6176 0-225.8432-26.5216-225.8432-60.3648S384 734.6176 510.4128 734.6176s225.8432 26.5216 225.8432 60.3648-99.2256 60.3648-225.8432 60.3648z m0-115.968c-119.808 0-221.0816 25.6-221.0816 55.6032s101.2736 55.6032 221.0816 55.6032 221.0816-25.6 221.0816-55.6032-101.2224-55.6032-221.0816-55.6032z" p-id="8670"></path><path d="M137.1136 632.9344a373.2992 194.6112 0 1 0 746.5984 0 373.2992 194.6112 0 1 0-746.5984 0Z" fill="#F7E1C6" p-id="8671"></path><path d="M510.4128 829.9008c-100.096 0-194.2016-20.48-265.0624-57.2416s-110.592-87.04-110.592-139.7248 39.2704-102.4 110.592-139.7248 164.9664-57.2928 265.0624-57.2928 194.2016 20.48 265.0624 57.2928 110.592 87.04 110.592 139.7248-39.2704 102.4-110.592 139.7248-164.9664 57.2416-265.0624 57.2416z m0-389.12c-204.4928 0-370.8928 86.2208-370.8928 192.256s166.4 192.2048 370.8928 192.2048 370.8928-86.2208 370.8928-192.2048-166.3488-192.3584-370.8928-192.3584z" p-id="8672"></path><path d="M511.0272 766.72c-73.6768 0-143.0016-13.824-195.2256-38.912s-81.92-59.2896-81.92-95.5392 29.0304-70.144 81.92-95.488 121.5488-38.9632 195.2256-38.9632 143.0528 13.824 195.2256 38.9632 81.92 59.2896 81.92 95.488-29.0816 70.1952-81.92 95.5392-121.4976 38.912-195.2256 38.912z m0-264.1408c-150.1184 0-272.2304 58.2144-272.2304 129.6896s122.112 129.7408 272.2304 129.7408S783.36 703.7952 783.36 632.2688s-122.2144-129.6896-272.3328-129.6896z" p-id="8673"></path><path d="M491.52 250.88s49.8688-3.328 38.1952 58.1632c0 0-19.712 41.4208 16.2816 27.5456 0 0 55.3984-19.9168 87.552-17.7152s60.3648 27.6992 57.0368 52.0704-13.312 34.9184-13.312 34.9184-7.168 13.2608 9.4208 16.5888 59.2896 16.0768 70.3488 43.776 10.24 45.4144 0 74.752-42.1376 70.2976-91.4432 97.9968-136.8064 44.9024-183.9104 43.776-110.2336 4.4544-213.8112-70.3488C182.5792 526.5408 230.4 456.192 256.256 416.3072c23.4496-35.84 84.736-110.7968 123.5456-131.84S422.6048 252.6208 491.52 250.88z" fill="#DB4944" p-id="8674"></path><path d="M486.4 685.1584h-15.9232c-45.4656-0.5632-107.52-1.3312-203.7248-70.6048h-0.3072c-37.0688-37.3248-53.3504-76.3904-48.384-116.0704 4.1984-33.6384 22.3232-61.44 35.5328-81.6128l0.9216-1.3824C277.9136 378.88 339.6608 303.5648 378.88 282.4192c6.912-3.7376 12.8-7.2192 17.9712-10.24 24.2688-14.336 37.632-22.2208 94.7712-23.7056a43.1104 43.1104 0 0 1 32.3072 12.6464c9.3696 10.5984 12.1344 26.7776 8.0896 48.0768v0.6144c-3.4816 7.3728-7.5264 20.48-3.3792 25.1904 2.4576 2.6624 8.2432 2.3552 16.6912-0.8704 2.304-0.8192 56.32-20.1216 88.5248-17.8688a71.68 71.68 0 0 1 49.408 24.832 39.5264 39.5264 0 0 1 9.8304 29.9008c-3.1232 22.9888-11.9808 34.048-13.6704 35.84a9.8816 9.8816 0 0 0-0.512 7.936 11.1104 11.1104 0 0 0 8.3968 5.12c6.0416 1.1776 59.0848 12.6464 72.0896 45.2096 10.8032 26.9312 10.8032 44.8 0 76.3904a155.0848 155.0848 0 0 1-31.4368 50.4832 239.616 239.616 0 0 1-61.0304 48.896c-47.4112 26.7264-131.584 44.288-180.5312 44.288z m-216.9856-74.5472c94.72 68.3008 156.0576 69.0688 200.8576 69.5808h11.4688c47.872 1.0752 134.6048-16.4864 182.6816-43.4688 49.0496-27.5456 80.6912-68.4544 90.3168-96.768 10.24-30.3104 10.24-47.4112 0-73.1136-12.0832-30.208-62.8736-40.96-68.608-42.2912a15.36 15.36 0 0 1-11.8272-7.68 15.36 15.36 0 0 1 0.768-12.3904v-0.3072h0.256s9.472-10.24 12.6464-33.5872a34.816 34.816 0 0 0-8.7552-26.2656 66.9696 66.9696 0 0 0-46.08-23.1424c-31.232-2.0992-85.9648 17.408-86.528 17.6128-10.6496 4.096-17.8176 3.9936-21.8112-0.3584-7.424-7.9872 0.9216-26.88 2.4576-30.208 3.6864-19.6096 1.28-34.3552-7.0656-43.776a38.7072 38.7072 0 0 0-28.672-11.264c-55.9616 1.4336-68.1472 8.6528-92.5184 23.04-5.12 3.072-11.1104 6.5536-18.0736 10.24C342.6304 307.2 281.6 381.7984 258.2528 417.6384l-0.9216 1.3824c-26.4192 40.448-70.656 108.3392 12.0832 191.5904z" p-id="8675"></path><path d="M355.9424 428.8s98.048-55.7056 202.752-25.2416 99.1744 104.704 99.1744 104.704 4.4032 54.8352-74.24 103.0144-194.56 35.84-227.6864 15.36-104.1408-66.56-54.8352-145.1008c0 0.1536 25.4976-33.6384 54.8352-52.736z" fill="#F7E1C6" p-id="8676"></path><path d="M449.1776 647.3728c-41.5744 0-77.6192-7.936-94.5664-18.3808-19.968-12.3392-61.44-37.9392-71.0144-78.4896-5.12-22.1184 0-45.7216 15.36-70.1952 1.0752-1.4336 26.112-34.4064 55.5008-53.504 0.9728-0.5632 100.1472-55.8592 204.8-25.6 30.3104 8.8064 70.656 27.2896 90.4192 65.0752a86.528 86.528 0 0 1 10.8032 41.984c0 4.2496 2.048 57.7024-75.4688 105.216-40.4992 24.7808-91.3408 33.8944-135.8336 33.8944z m-145.92-164.2496c-14.5408 23.2448-19.5072 45.5168-14.6432 66.2016C297.5744 587.776 337.92 612.6592 357.3248 624.64c14.7456 9.0624 49.92 18.0736 95.3856 17.6128 49.4592-0.512 95.488-12.288 129.5872-33.1264C658.688 562.2784 655.36 509.0304 655.36 508.4672v-0.4096a81.3568 81.3568 0 0 0-10.24-39.7824c-10.24-19.8656-34.0992-46.7968-87.04-62.208-101.3248-29.4912-197.7344 23.2448-200.704 24.9344-28.0064 18.176-52.6848 50.2784-54.1184 52.1216z" p-id="8677"></path><path d="M437.4016 450.56s73.6768-10.9568 105.3184 32.768 5.5296 84.224-8.2944 100.8128-42.6496 46.08-106.9056 37.6832-89.1904-95.8464-50.432-134.0416S434.6368 451.0208 437.4016 450.56z" fill="#5F2A26" p-id="8678"></path><path d="M449.3312 625.664a173.3632 173.3632 0 0 1-22.2208-1.4848c-30.4128-3.9424-55.04-25.6-65.8944-57.6512-10.24-30.3616-4.6592-61.952 14.1312-80.4352 16.7936-16.5888 40.96-36.608 61.1328-37.7344h0.6144a169.3696 169.3696 0 0 1 41.3696 0c29.952 3.584 52.7872 15.36 66.0992 33.6896 32.6656 45.312 5.12 87.6544-8.3968 103.7312-14.848 17.664-39.5264 39.8848-86.8352 39.8848z m8.2944-173.824a147.456 147.456 0 0 0-19.8656 1.1776h-0.9728c-18.6368 1.0752-41.8816 20.48-58.112 36.4032-17.5104 17.2544-22.5792 46.8992-12.9536 75.52 10.24 30.4128 33.4336 50.7904 62.0032 54.4768 59.9552 7.7312 88.5248-17.3056 104.7552-36.8128 36.7616-44.1344 20.9408-80.2816 8.2432-97.9456-20.3776-28.1088-59.4432-32.8192-83.0976-32.8192z" p-id="8679"></path><path d="M390.5024 551.2192a37.0176 31.2832 0 1 0 74.0352 0 37.0176 31.2832 0 1 0-74.0352 0Z" fill="#FFFFFF" p-id="8680"></path><path d="M427.52 585.0624c-21.8624 0-39.6288-15.36-39.6288-33.8432S405.6576 517.12 427.52 517.12s39.5776 15.36 39.5776 33.8944-17.7664 34.048-39.5776 34.048z m0-62.5664c-19.0464 0-34.4576 12.8512-34.4576 28.7232s15.36 28.7232 34.4576 28.7232 34.4576-12.9024 34.4576-28.7232-15.4624-28.7232-34.4576-28.7232z" p-id="8681"></path><path d="M462.1824 517.12a14.9504 13.824 0 1 0 29.9008 0 14.9504 13.824 0 1 0-29.9008 0Z" fill="#FFFFFF" p-id="8682"></path><path d="M477.1328 533.5552a16.4864 16.4864 0 1 1 17.5616-16.4352 16.9984 16.9984 0 0 1-17.5616 16.4352z m0-27.6992a11.3152 11.3152 0 1 0 12.3904 11.264 11.9296 11.9296 0 0 0-12.3904-11.264z" p-id="8683"></path><path d="M751.7184 386.1504a20.9408 20.9408 0 0 1-4.6592-0.512 22.1184 22.1184 0 0 1-16.9984-26.2656c4.0448-18.9952 6.144-44.4416-6.8608-58.0096-14.2848-14.8992-43.8784-13.6704-54.0672-11.9296a22.1696 22.1696 0 1 1-7.7312-43.6736c6.0928-1.0752 60.416-9.6768 93.5936 24.6784 21.4016 22.1696 27.5968 55.1936 18.3808 98.1504a22.1696 22.1696 0 0 1-21.6576 17.5616z" fill="#DB4944" p-id="8684"></path><path d="M751.7184 388.5056a25.6 25.6 0 0 1-5.12-0.512 24.6272 24.6272 0 0 1-18.8416-29.1328c3.9424-18.3808 6.0928-43.008-6.1952-55.8592-13.568-14.1312-42.1376-12.9024-51.968-11.2128a24.5248 24.5248 0 0 1-24.4736-38.1952 24.4736 24.4736 0 0 1 15.8208-10.24c6.1952-1.0752 61.696-9.8304 95.6928 25.6 22.016 22.7328 28.416 56.32 18.9952 100.3008a24.6272 24.6272 0 0 1-23.9104 19.2512z m-69.12-102.4c13.6192 0 31.7952 2.6624 42.3424 13.6192 13.7216 14.336 11.6224 40.6016 7.424 60.1088a19.8144 19.8144 0 0 0 15.36 23.5008 19.0464 19.0464 0 0 0 4.1472 0.4608 19.9168 19.9168 0 0 0 19.3536-15.6672c9.0112-42.1376 3.0208-74.4448-17.7664-96-32.3584-33.4336-85.504-25.0368-91.4944-23.9616a19.7632 19.7632 0 0 0 6.912 38.9632 83.6096 83.6096 0 0 1 13.7216-1.024z" p-id="8685"></path><path d="M834.9696 394.24a23.9616 23.9616 0 0 1-3.2768 0 22.1696 22.1696 0 0 1-18.688-25.1392c7.68-52.0704-1.1776-92.16-26.2656-119.552-44.4416-48.384-125.9008-43.9296-126.72-43.8784a22.1696 22.1696 0 1 1-2.7136-44.2368c4.1984-0.256 103.4752-5.632 162.0992 58.112 34.56 37.5808 47.1552 90.0608 37.4784 156.0064a22.1696 22.1696 0 0 1-21.9136 18.688z" fill="#DB4944" p-id="8686"></path><path d="M834.9696 396.8512a28.1088 28.1088 0 0 1-3.584-0.256 24.6272 24.6272 0 0 1-20.48-27.8528c7.5776-51.2-1.0752-90.88-25.6-117.76-43.6224-47.5136-124.0064-43.1616-124.8256-43.1104a24.5248 24.5248 0 1 1-3.0208-48.9472c4.2496-0.256 104.6528-5.6832 163.84 58.88 35.072 38.144 47.872 91.2384 38.0416 157.9008a24.576 24.576 0 0 1-24.3712 21.1456z m-168.96-193.6896c20.0704 0 84.4288 3.3792 122.4704 44.7488 25.6 27.8528 34.6112 68.7104 26.8288 121.4976a19.8144 19.8144 0 0 0 16.6912 22.4768 18.6368 18.6368 0 0 0 2.9184 0 19.9168 19.9168 0 0 0 19.5584-16.896c9.5744-65.1776-2.8672-116.992-36.9152-154.0608-57.7024-62.6688-155.9552-57.3952-160.1024-57.088a19.7632 19.7632 0 1 0 2.4064 39.4752s2.3552-0.1536 6.1952-0.1536z" p-id="8687"></path></svg>