<?xml version="1.0" standalone="no"?><!DOCTYPE svg PUBLIC "-//W3C//DTD SVG 1.1//EN" "http://www.w3.org/Graphics/SVG/1.1/DTD/svg11.dtd"><svg t="1784020442984" class="icon" viewBox="0 0 1024 1024" version="1.1" xmlns="http://www.w3.org/2000/svg" p-id="113995" xmlns:xlink="http://www.w3.org/1999/xlink" width="200" height="200"><path d="M737.7 171.8v299.6C689 434.6 643.9 400.6 598 365.9c-45.1 34.6-89.7 68.7-137.9 105.6V165.6c-29.2 0-55.5-0.3-81.8 0.1-33.7 0.5-67.7-1-101 2.8-47.3 5.4-81.5 45.3-81.6 92.6-0.4 162.2-0.4 324.3 0 486.5 0.1 54.4 42.1 93.7 100.7 95.9 17.2 0.6 34.4 0.2 51.6 0.1 15.7 0 25.8 7 26 23.3 0.2 16.2-10.1 24.2-25.4 24.2-27.1-0.2-54.5 1-81.1-2.9-67.8-10.2-118.8-66.7-119.4-135.7-1.4-165.5-1.6-331 0.1-496.4 0.8-77.4 65.8-137.7 143.4-138 142.3-0.5 284.6-0.6 426.9-0.5 70.5 0 137.5 60.9 139.8 131.6 2.7 84 1.1 168.1 1.1 252.2 0 15.6-8.3 25.3-24.5 24.9-17.6-0.5-23.6-12.6-23.6-28.3-0.2-60.9-0.1-121.8-0.1-182.7 0-19.2 0.5-38.4-0.1-57.6-1.3-42.1-33.6-80.5-73.4-85.9zM597.8 305.1c30.3 22.8 59 44.4 89.8 67.6V168.9H509.3v203.7c30.9-23.5 59.1-45 88.5-67.5z" fill="#1195FE" p-id="113996"></path><path d="M651.9 764.7H485.4c-4.6 0-9.3 0.2-13.9-0.1-15.1-1.1-25.6-8.1-25.5-24.3 0.1-16.2 10.4-23.5 25.8-23.7 27.7-0.3 55.5-0.1 83.2-0.1h263.6c4.6 0 9.3 0.1 13.9 0 15.7-0.1 25.9 7.2 26.3 23.1 0.5 17.1-10.2 25-26.6 25.1-43.6 0.2-87.2 0.1-130.8 0.1-16.5-0.1-33-0.1-49.5-0.1zM651.9 891.6H485.4c-4.6 0-9.3 0.2-13.9-0.1-15.1-1.1-25.6-8.1-25.5-24.3 0.1-16.2 10.4-23.5 25.8-23.7 27.7-0.3 55.5-0.1 83.2-0.1h263.6c4.6 0 9.3 0.1 13.9 0 15.7-0.1 25.9 7.2 26.3 23.1 0.5 17.1-10.2 25-26.6 25.1-43.6 0.2-87.2 0.1-130.8 0.1-16.5-0.1-33-0.1-49.5-0.1zM652.3 638.3c-58.2 0-116.3 0.1-174.5 0-21.5 0-32.1-8-32.1-23.5 0-15.9 10.5-24.7 31.5-24.7 117-0.2 233.9-0.2 350.9 0 20.6 0 31.9 9.3 30.8 25.1-1.3 18.6-13.4 23.4-30.2 23.3-58.7-0.5-117.5-0.2-176.4-0.2z" fill="#1195FE" p-id="113997"></path></svg>