<?xml version="1.0" standalone="no"?><!DOCTYPE svg PUBLIC "-//W3C//DTD SVG 1.1//EN" "http://www.w3.org/Graphics/SVG/1.1/DTD/svg11.dtd"><svg t="1784020856818" class="icon" viewBox="0 0 1024 1024" version="1.1" xmlns="http://www.w3.org/2000/svg" p-id="4367" xmlns:xlink="http://www.w3.org/1999/xlink" width="200" height="200"><path d="M471.6544 264.5504m-218.5728 0a218.5728 218.5728 0 1 0 437.1456 0 218.5728 218.5728 0 1 0-437.1456 0Z" fill="#80B7F9" p-id="4368"></path><path d="M553.7792 501.5552H389.5296c-176.5888 0-319.744 143.1552-319.744 319.744 0 63.0784 51.1488 114.176 114.176 114.176H759.296c63.0784 0 114.176-51.1488 114.176-114.176 0-176.5888-143.104-319.744-319.6928-319.744z" fill="#80B7F9" p-id="4369"></path><path d="M746.4448 765.952m-202.2912 0a202.2912 202.2912 0 1 0 404.5824 0 202.2912 202.2912 0 1 0-404.5824 0Z" fill="#95C9FC" p-id="4370"></path><path d="M743.2192 563.7632c-110.1824 1.7408-199.0144 91.5456-199.0144 202.1888 0 71.0144 36.608 133.4272 92.0064 169.5232h123.136c63.0784 0 114.176-51.1488 114.176-114.176-0.0512-105.6768-51.3024-199.3216-130.304-257.536z" fill="#3E8BF8" p-id="4371"></path><path d="M809.3184 724.992H683.52c-22.6304 0-40.96 18.3296-40.96 40.96s18.3296 40.96 40.96 40.96h125.7984c22.6304 0 40.96-18.3296 40.96-40.96s-18.3296-40.96-40.96-40.96z" fill="#FFFFFF" p-id="4372"></path></svg>