<?xml version="1.0" standalone="no"?><!DOCTYPE svg PUBLIC "-//W3C//DTD SVG 1.1//EN" "http://www.w3.org/Graphics/SVG/1.1/DTD/svg11.dtd"><svg t="1784020696993" class="icon" viewBox="0 0 1024 1024" version="1.1" xmlns="http://www.w3.org/2000/svg" p-id="3744" xmlns:xlink="http://www.w3.org/1999/xlink" width="200" height="200"><path d="M1001.838933 477.952c8.7808 1.544533 20.113067 12.535467 21.9904 21.290667l-48.290133 244.0192c14.805333 51.3024 23.637333 104.302933 33.826133 156.177066l0.4096 8.942934 3.3536 2.346666c0.221867 1.211733-0.238933 2.56 0 3.7632l0.418134 8.942934 3.345066 2.346666c0.3072 2.3808-0.119467 5.051733 0 7.5264 0.136533 2.952533-0.571733 5.998933 0.418134 8.942934l3.345066 2.346666c0.119467 2.4576 0.1536 5.077333 0 7.5264l-7.5264 7.5264c-3.438933 0.853333-3.310933 3.447467-3.7632 3.7632l-3.7632-7.5264c0.119467-2.525867 2.833067-2.7904 3.7632-3.7632 7.8848-8.2432 1.6896-13.482667-0.648533-23.918933l-3.114667-2.423467c-0.298667-2.397867 0.128-5.051733 0-7.5264-0.1536-2.952533 0.5888-6.007467-0.418133-8.942933l-3.345067-2.346667c-8.362667-42.837333-20.224-85.444267-30.114133-127.9488l-7.825067 28.2112c4.48 12.714667 5.0944 27.2896 7.842134 39.517867v11.2896l-7.5264-3.7632c-0.418133-2.235733 0.238933-5.085867 0-7.5264l-1.8944-3.754667h-5.632v11.281067h-7.534934c-0.196267-3.729067 0.264533-7.560533 0-11.2896-0.256-3.6608 0.6144-7.406933-0.2304-11.042133l-18.5856-7.773867c1.527467-0.759467 0.273067-5.205333 11.2896-7.5264 2.167467-0.452267 5.0432 0.477867 7.466667-0.0256 5.76-35.5328 12.544-71.074133 19.746133-106.359467 12.049067-58.999467 34.397867-134.929067 40.430934-192.878933 0.9984-9.591467 2.884267-25.181867-11.195734-24.379733l-60.219733 304.827733-3.268267 2.295467-0.503466 12.757333c-7.082667-1.698133-8.456533-8.593067-7.517867-15.0528l60.16-306.500267c-2.542933-3.805867-4.608-5.3248-9.2416-5.973333-12.305067-1.706667-30.0544 0.290133-43.392 0.110933 14.3616-9.659733 51.054933-10.461867 67.7376-7.5264zM851.310933 432.7936c-1.015467-8.8064 8.5504-61.4912 13.064534-67.848533 11.434667-16.110933 55.210667-6.357333 60.526933 15.044266 0.3328 1.322667-1.6384 20.821333-2.167467 24.4992-1.706667 11.912533-7.594667 25.088-7.569066 37.563734l0.2304 1.902933c13.627733 1.851733 14.446933 4.667733 18.705066 15.172267l-7.517866 11.2896c1.186133-6.715733-0.392533-7.688533-3.771734-11.2896-1.288533-1.373867-0.298667-5.751467-7.517866-3.771734 0.8448 9.0112-0.5888 11.0592-7.534934 15.061334v-15.061334c-12.501333-0.0256-25.122133 0.059733-37.632 0-1.2288-4.4544-6.536533-6.929067-7.5264-11.2896l22.545067-0.017066c-0.298667-21.1712 10.333867-45.678933 11.426133-65.757867 0.392533-7.2448 0.366933-5.4528-5.666133-5.725867-5.640533-0.256-11.374933 0.1024-16.981333 0.017067-0.247467 19.985067-9.2672 40.900267-11.323734 60.194133l-3.771733 11.2896c-6.3232-1.220267-6.894933-5.930667-7.517867-11.2896z m52.6848 11.298133c1.1264-21.572267 9.2928-42.299733 7.517867-63.982933-4.445867-1.152-6.229333 7.133867-6.826667 10.094933-3.2512 16.119467-3.857067 32.384-7.7568 48.725334-1.7408 7.278933 1.373867 5.230933 7.057067 5.162666z" fill="#492A21" p-id="3745"></path><path d="M1013.128533 910.728533l-3.3536-2.346666-0.4096-8.942934c0.128 0.64 2.5344 4.650667 3.7632 11.2896zM1016.891733 925.781333l-3.345066-2.346666-0.418134-8.942934c0.128 0.64 2.747733 3.5072 3.7632 11.2896zM1020.654933 944.597333l-3.345066-2.346666c-0.989867-2.935467-0.273067-5.981867-0.418134-8.942934l3.345067 2.346667c0.989867 2.935467 0.273067 5.9904 0.418133 8.942933z" fill="#4F2E24" p-id="3746"></path><path d="M934.101333 485.4784c13.3376 0.170667 31.086933-1.8176 43.392-0.110933 4.642133 0.64 6.698667 2.167467 9.2416 5.973333l-60.16 306.500267-5.794133 11.4432-232.900267-4.189867-5.4784-8.507733 15.010134-58.564267 29.704533-7.918933c-0.017067 0.213333 3.191467 0.128 2.048 3.6864-3.3024 10.2912-16.853333 21.563733-13.141333 35.592533 9.088 4.872533 9.728 9.156267 14.685866 15.368533 17.732267 22.237867 27.2384-23.9872 32.4352-24.721066 11.938133 2.0736 29.909333-2.5088 40.661334 0.648533 4.4544 1.3056 6.510933 7.338667 9.787733 9.028267 4.795733 2.466133 10.427733 1.1264 15.223467 3.592533 4.2752 2.2016 4.821333 8.362667 12.9792 9.5744 14.651733 2.167467 29.5424-6.1952 44.8-4.309333 14.088533-7.150933 8.405333-24.5504 15.317333-37.367467l13.346133-3.643733c0.529067-6.340267 0.349867-13.5424-3.7376-18.7392-0.2816-0.3584 0.622933-2.926933-1.9968-3.652267l-3.7632-0.315733c-5.3504-0.042667-5.230933 3.8144-5.538133 3.968-1.0496 0.5376-3.063467-0.5888-3.7632 0l-3.7632-7.5264c0.238933-0.119467 0.512-4.087467 3.7632-3.7632l7.517867 3.771733c-0.4608-6.656 2.423467-12.484267 3.771733-18.824533 1.5104-7.1168 4.411733-17.7664 3.7888-24.32-1.672533-17.706667-16.657067-35.925333-19.0464-54.519467-22.775467-8.891733-40.285867 20.573867-41.361067 39.483733-0.3584 6.263467 4.113067 18.670933 3.669334 26.103467-0.785067 13.303467-7.133867 14.711467 0.256 32.0768 0.896 2.107733 1.851733 4.061867 3.584 5.640533l-7.3472 5.649067c-3.882667-3.063467-14.600533-10.5216-18.8416-13.141333-4.462933-2.756267-12.945067-1.578667-14.754134-7.816534-4.497067-15.522133 9.309867-24.738133 11.016534-37.376 1.117867-8.260267-1.288533-17.28 0.597333-25.745066 1.4336-6.4256 8.832-15.266133 9.634133-23.210667-14.5408-37.2736-38.391467 19.285333-44.1088 35.7888-8.4992 2.363733-11.793067-9.4464-17.271466-11.042133l-9.173334 1.5104c-15.3856 10.478933-14.276267 26.274133-19.345066 40.968533-1.1776 3.421867-3.336533 5.486933-6.8864 6.186667-6.698667-18.440533-8.832-40.081067-28.424534-48.7424l28.458667-154.461867c63.889067 0.5888 128.008533-0.853333 191.8976-0.017067z m-143.0016 33.8688c-6.272 4.9408-15.9232 18.798933-18.816 26.3424-3.925333 10.248533-2.432 15.010133-4.369066 23.8592-1.851733 8.490667-13.013333 21.393067-13.9008 31.368533-0.187733 2.082133 6.638933 18.525867 7.569066 19.447467 2.9952 2.9952 19.3024 6.272 23.927467 11.400533 19.473067-12.296533 18.3552-48.2048 46.8224-44.842666-0.366933-11.221333 7.5008-20.795733 7.936-31.7696 1.117867-28.612267-22.152533-57.079467-49.169067-35.805867z m138.325334 82.082133c1.450667-1.518933 8.388267-17.442133 8.046933-19.421866-0.580267-3.4304-4.7104-6.690133-5.512533-9.762134-0.955733-3.652267 2.449067-7.313067 1.621333-12.5184-3.899733-24.4992-25.745067-54.2976-52.1472-38.459733-14.660267 8.789333-9.207467 17.3568-11.895467 29.499733-1.117867 5.034667-6.1952 9.105067-7.005866 15.633067-2.423467 19.6352 19.805867 32.221867 37.3504 28.561067 2.082133 11.776 10.769067 17.3312 22.587733 14.2336l1.237333-6.101334c1.3312-1.442133 4.753067-0.674133 5.7088-1.664z" fill="#F9FAF6" p-id="3747"></path><path d="M851.310933 722.568533c6.314667 4.974933 7.3216 16.3072 20.642134 15.214934 13.499733-1.109333 17.4336-12.962133 24.516266-18.978134 0.699733-0.5888 2.7136 0.5376 3.7632 0h11.2896c4.078933 5.1968 4.266667 12.398933 3.7376 18.7392l-13.346133 3.643734c-6.912 12.817067-1.2288 30.216533-15.317333 37.367466-15.2576-1.885867-30.148267 6.4768-44.8 4.309334-8.1664-1.2032-8.704-7.3728-12.9792-9.5744-4.795733-2.474667-10.427733-1.1264-15.223467-3.592534-3.2768-1.6896-5.333333-7.722667-9.787733-9.028266-10.752-3.157333-28.7232 1.425067-40.661334-0.648534-5.1968 0.733867-14.702933 46.958933-32.4352 24.721067-4.949333-6.212267-5.589333-10.496-14.685866-15.368533-3.712-14.0288 9.838933-25.301333 13.141333-35.592534 1.143467-3.5584-2.065067-3.473067-2.048-3.6864 0.2048-2.363733 26.436267-25.1392 15.0528-41.3952 3.549867-0.699733 5.7088-2.7648 6.8864-6.186666 5.0688-14.702933 3.959467-30.4896 19.345067-40.968534l9.173333-1.5104c5.4784 1.595733 8.772267 13.405867 17.271467 11.042134 5.717333-16.503467 29.568-73.0624 44.1088-35.7888-0.802133 7.944533-8.209067 16.785067-9.634134 23.210666-1.885867 8.465067 0.520533 17.476267-0.597333 25.745067-1.706667 12.637867-15.5136 21.853867-11.016533 37.376 1.809067 6.237867 10.299733 5.060267 14.754133 7.816533 4.241067 2.619733 14.958933 10.0864 18.8416 13.141334z" fill="#599BCD" p-id="3748"></path><path d="M937.864533 797.832533l60.219734-304.827733c14.08-0.7936 12.194133 14.788267 11.195733 24.379733-6.0416 57.949867-28.3904 133.879467-40.430933 192.878934-7.202133 35.285333-13.986133 70.826667-19.746134 106.359466-2.414933 0.503467-5.2992-0.426667-7.466666 0.0256l-3.7632-18.816z" fill="#DCD3C6" p-id="3749"></path><path d="M915.293867 839.227733l-248.388267-3.754666V816.64l239.086933 3.6608c10.7776 1.160533 9.873067 10.069333 9.301334 18.926933z" fill="#CC9B6B" p-id="3750"></path><path d="M873.8816 854.289067l-3.754667 30.1056-127.957333-3.780267 7.620267-30.0032c30.122667 1.501867 62.395733-2.295467 92.270933-0.256 10.180267 0.6912 20.3264 6.664533 31.8208 3.933867z" fill="#E6E5DF" p-id="3751"></path><path d="M870.135467 895.6672v18.833067l-150.545067-3.771734 0.238933-12.936533 9.0624-5.9904 141.243734 3.8656z" fill="#CA9868" p-id="3752"></path><path d="M903.995733 854.280533v131.712c-7.236267-0.068267-19.908267 2.2528-22.254933-5.9648-2.500267-8.7296-1.006933-44.509867-0.4864-56.2944 0.290133-6.638933 3.7376-11.793067 4.087467-18.491733 0.896-16.861867-0.981333-34.116267-0.170667-50.978133h18.824533z" fill="#CD9867" p-id="3753"></path><path d="M719.5904 846.762667l-33.8688 127.940266-18.798933-3.780266 34.048-123.989334 18.619733-0.170666z" fill="#C79464" p-id="3754"></path><path d="M1001.838933 906.965333c0.4864 2.500267-0.836267 6.075733 0.4352 8.925867l3.328 2.363733c0.128 2.474667-0.298667 5.128533 0 7.5264 1.152 9.181867 4.411733 17.143467 3.7632 26.3424-0.930133 0.9728-3.643733 1.237333-3.7632 3.7632l-5.239466 0.238934-25.685334-106.5472c-0.443733-1.962667-2.875733-2.525867-2.944-2.833067-2.747733-12.228267-3.3536-26.8032-7.842133-39.517867l7.825067-28.2112c9.898667 42.504533 21.76 85.111467 30.114133 127.9488z" fill="#B98258" p-id="3755"></path><path d="M862.600533 432.7936c2.056533-19.293867 11.076267-40.2176 11.323734-60.194133 5.6064 0.085333 11.3408-0.273067 16.981333-0.017067 6.033067 0.273067 6.058667-1.518933 5.666133 5.725867-1.083733 20.087467-11.7248 44.586667-11.426133 65.757866l-22.545067 0.017067c-0.571733-2.525867-0.315733-8.328533 0-11.2896z" fill="#CC9D6B" p-id="3756"></path><path d="M870.126933 455.3728c12.509867 0.0512 25.130667-0.034133 37.640534 0v15.061333c-17.501867 10.077867-64.6912 0.3072-86.570667 3.7632l0.238933-12.936533 5.7344-5.5552c14.301867-0.597333 28.689067-0.384 42.9568-0.315733z" fill="#C39265" p-id="3757"></path><path d="M964.206933 854.280533c5.896533 31.556267 14.7456 64.896 22.2208 96.349867 1.8944 7.9616-3.1232 5.085867-9.053866 5.2736l-1.774934-0.059733-18.9184-101.572267v-3.7632l7.5264-3.7632c0.238933 2.440533-0.418133 5.290667 0 7.5264z" fill="#B27E58" p-id="3758"></path><path d="M922.811733 854.280533v126.071467l-7.5264 5.640533v-131.712h7.5264z" fill="#9B6D50" p-id="3759"></path><path d="M930.338133 824.174933l18.5856 7.773867c0.8448 3.626667-0.0256 7.381333 0.2304 11.042133l-22.724266-1.7408-3.413334-16.938666c2.2528-0.9472 5.9648 0.5376 7.3216-0.145067z" fill="#AE7955" p-id="3760"></path><path d="M697.0112 974.6944l16.930133-56.439467c7.765333 5.358933 3.345067 6.826667 2.030934 13.2864-2.116267 10.410667-4.522667 23.927467-7.7312 33.698134-2.107733 6.417067-3.003733 10.683733-11.229867 9.454933z" fill="#9A6747" p-id="3761"></path><path d="M730.871467 880.631467l-7.048534-5.162667 8.942934-28.6976 1.7152 20.5056-3.6096 13.354667z" fill="#8D6044" p-id="3762"></path><path d="M922.811733 459.136l-0.008533 15.0528h-3.746133v-13.166933l3.754666-1.885867z" fill="#C3997B" p-id="3763"></path><path d="M1009.365333 952.123733c0.648533-9.198933-2.6112-17.160533-3.7632-26.3424l3.114667 2.423467c2.338133 10.4448 8.533333 15.684267 0.648533 23.918933zM964.206933 846.754133l-7.5264 3.7632 0.008534-7.517866h5.632l1.885866 3.754666zM1005.602133 918.254933l-3.328-2.363733c-1.262933-2.850133 0.059733-6.417067-0.4352-8.925867l3.345067 2.346667c0.9984 2.935467 0.256 5.9904 0.418133 8.942933z" fill="#4F2E24" p-id="3764"></path><path d="M903.995733 444.091733c-5.6832 0.059733-8.797867 2.116267-7.057066-5.162666 3.899733-16.3328 4.5056-32.597333 7.7568-48.725334 0.597333-2.961067 2.3808-11.246933 6.826666-10.094933 1.774933 21.6832-6.391467 42.410667-7.517866 63.982933z" fill="#9B6C4A" p-id="3765"></path><path d="M791.099733 519.3472c27.016533-21.282133 50.286933 7.1936 49.169067 35.805867-0.426667 10.973867-8.2944 20.548267-7.936 31.7696-28.4672-3.362133-27.349333 32.5376-46.8224 44.842666-4.616533-5.128533-20.923733-8.405333-23.927467-11.400533-0.930133-0.930133-7.7568-17.365333-7.569066-19.447467 0.887467-9.975467 12.040533-22.877867 13.9008-31.368533 1.937067-8.849067 0.443733-13.610667 4.369066-23.8592l14.6432-4.189867 4.1728-22.152533z" fill="#F4BE27" p-id="3766"></path><path d="M929.425067 601.429333c-0.9472 0.989867-4.369067 0.221867-5.7088 1.664l-1.237334 6.101334c-11.818667 3.0976-20.497067-2.4576-22.587733-14.2336-17.553067 3.6608-39.773867-8.925867-37.3504-28.561067 0.802133-6.528 5.888-10.606933 7.005867-15.633067 2.688-12.142933-2.7648-20.7104 11.895466-29.499733 26.410667-15.837867 48.256 13.960533 52.1472 38.459733 0.827733 5.205333-2.577067 8.866133-1.621333 12.5184 0.802133 3.072 4.932267 6.340267 5.512533 9.762134 0.3328 1.988267-6.596267 17.902933-8.046933 19.421866z" fill="#DD4940" p-id="3767"></path><path d="M855.074133 711.278933c-7.389867-17.365333-1.032533-18.773333-0.256-32.0768 0.4352-7.432533-4.027733-19.84-3.669333-26.103466 1.0752-18.901333 18.5856-48.375467 41.361067-39.483734 2.3808 18.594133 17.373867 36.8128 19.0464 54.519467 0.622933 6.5536-2.2784 17.2032-3.7888 24.32l-9.591467 3.601067-1.706667 11.451733c-3.2512-0.324267-3.524267 3.643733-3.7632 3.7632-5.469867 2.816-10.871467 6.314667-16.9728 7.722667l-20.6592-7.722667z" fill="#96C645" p-id="3768"></path><path d="M892.706133 711.278933l3.7632 7.5264c-7.082667 6.016-11.016533 17.8688-24.516266 18.978134-13.329067 1.092267-14.327467-10.24-20.642134-15.214934l7.3472-5.649066c-1.732267-1.578667-2.688-3.5328-3.584-5.640534l20.6592 7.722667c6.101333-1.408 11.502933-4.906667 16.9728-7.722667z" fill="#EAF4E6" p-id="3769"></path><path d="M791.099733 519.3472l-4.1728 22.152533-14.6432 4.189867c2.8928-7.543467 12.544-21.4016 18.816-26.3424z" fill="#F3EBC0" p-id="3770"></path><path d="M907.758933 692.462933c-1.348267 6.340267-4.232533 12.177067-3.771733 18.824534l-7.517867-3.771734 1.706667-11.451733 9.591467-3.601067zM911.522133 718.805333h-11.2896c0.298667-0.1536 0.1792-4.010667 5.538134-3.968l3.7632 0.315734c2.6112 0.725333 1.706667 3.293867 1.9968 3.652266z" fill="#EAF4E6" p-id="3771"></path><path d="M1009.365333 963.413333c-16.1536 11.093333-25.924267 9.838933-43.392 0.110934-10.820267-29.013333-14.0288-61.184-21.444266-91.451734-1.578667-6.4256-1.0496-16.699733-10.436267-14.0288v126.071467c0 9.028267-20.010667 15.872-28.288 16.887467-6.869333 0.8448-31.1552-3.959467-35.1488-8.021334-10.018133-10.1888 4.010667-48.0512-0.5376-63.445333l-139.0592-3.575467-18.807467 58.3424c-20.650667 6.135467-45.952 7.005867-60.142933-11.963733l33.6128-121.821867-28.347733-7.424c-7.68-10.888533-5.358933-22.980267-5.691734-35.618133l18.542934-11.972267 11.5456-55.645866c-10.4704-16.469333-23.765333-3.9936-34.944-6.493867-7.927467-1.774933-19.3024-11.588267-26.999467-14.5408-7.0912-2.722133-6.306133 4.3008-5.572267 9.335467l29.883734 120.106666-22.2976 9.8816-0.401067 42.862934c-0.512 2.013867-1.92 3.054933-3.549867 4.138666-2.090667 1.390933-5.9904 1.160533-6.997333 2.2528-1.220267 1.314133-4.7616 26.9312-8.644267 34.6368-17.672533 35.054933-75.707733 30.813867-98.8672 2.397867-11.434667-14.0288-3.345067-12.4672-20.8896-20.420267-17.442133-7.9104-22.570667-36.727467-26.4192-54.587733l-22.2976 0.093867c-5.2992 11.1616-9.728 41.1392-17.015466 48.853333-4.821333 5.102933-15.121067 4.266667-20.8384 9.2672-11.793067 10.3168-11.579733 24.021333-31.146667 32.836267-34.705067 15.624533-69.418667 5.341867-83.7376-30.788267-3.080533-7.773867-1.723733-18.688-9.3952-24.635733-2.1248-1.646933-5.973333-1.245867-7.022933-2.210134-1.390933-1.28-1.706667-31.1808-1.988267-37.358933l-24.4992-11.4432c-5.239467-5.154133 17.646933-95.044267 22.3488-108.885333-2.747733-2.466133-34.158933 17.783467-41.335467 20.744533-51.2 21.12-109.226667 22.314667-159.223466-2.7136-79.1808-39.637333-76.6976-126.1568-10.018134-177.8176 37.640533-29.166933 124.023467-55.662933 165.3248-26.410667 18.961067 13.431467 17.792 25.984 11.392 46.941867l45.149867-31.991467-63.803733-37.794133c-63.761067-52.369067-77.448533-124.0064-59.502934-202.1888 4.932267-21.486933 19.182933-49.757867 21.649067-68.667733 2.833067-21.742933-1.416533-48.597333 0.136533-71.364267 2.0992-30.779733 11.374933-85.3504 26.862934-112.384 31.684267-55.338667 86.152533-7.492267 125.508266 12.782933 6.929067 0.017067 10.0352-7.978667 14.9504-11.562666 20.334933-14.8224 44.458667-26.496 69.691734-30.045867-9.088-10.112-17.749333-10.333867-11.229867-26.257067l18.8672 1.706667 16.827733 20.7872 25.821867-26.026667 9.506133 3.874134 3.7632 9.0368-14.634666 16.887466c31.240533 2.7136 62.907733 18.619733 84.676266 41.1904 23.893333-17.92 58.077867-43.793067 89.7024-36.804266 17.365333 3.84 27.861333 21.632 34.5344 36.9664 18.798933 43.178667 25.1136 105.890133 24.584534 152.618666-0.059733 5.486933-3.626667 10.154667-3.2768 14.267734 1.0496 12.2368 15.744 40.081067 20.138666 55.099733 29.303467 100.138667 11.400533 180.309333-79.7184 236.603733l-31.402666 19.396267 105.3696 56.456533 30.139733-154.274133 73.0368-0.3328 5.589333-5.700267 0.878934-14.173866c6.826667-13.917867 18.9696-9.173333 31.650133-9.856 10.333867-0.5632 2.158933-7.355733 9.2416-11.3408 0.622933 5.358933 1.194667 10.069333 7.517867 11.2896l3.771733-11.2896c-0.315733 2.961067-0.571733 8.763733 0 11.2896 0.989867 4.360533 6.2976 6.8352 7.5264 11.2896-14.267733-0.059733-28.663467-0.2816-42.9568 0.315733l-5.7344 5.5552-0.238933 12.936533c21.879467-3.456 69.0688 6.3232 86.562133-3.7632 6.946133-4.002133 8.3712-6.050133 7.534933-15.061333 7.2192-1.979733 6.237867 2.397867 7.517867 3.771733l-3.754667 1.885867v13.166933h3.746134l0.008533-15.0528c3.3792 3.601067 4.957867 4.573867 3.771733 11.2896l7.517867-11.2896c1.373867 3.396267 6.391467 6.946133 3.797333 15.044267 14.370133 0.085333 28.8256-0.093867 43.2384 0.017067 6.178133 0.042667 17.570133-2.773333 20.7104 3.754666-16.682667-2.935467-53.376-2.1248-67.7376 7.5264-63.889067-0.836267-128 0.605867-191.8976 0.017067l-28.458666 154.461867c19.592533 8.661333 21.725867 30.301867 28.424533 48.7424 11.383467 16.256-14.848 39.031467-15.0528 41.3952l-29.704533 7.918933-15.010134 58.564267 5.4784 8.507733 232.900267 4.189867 5.794133-11.4432c-0.938667 6.459733 0.4352 13.354667 7.517867 15.0528l0.503467-12.757334 3.268266-2.295466 3.7632 18.816c-11.016533 2.321067-9.762133 6.766933-11.2896 7.5264-1.3568 0.674133-5.0688-0.802133-7.3216 0.145066l3.413334 16.938667 22.724266 1.7408c0.264533 3.729067-0.196267 7.560533 0 11.306667h7.534934l18.9184 101.5552 1.774933 0.059733c5.930667-0.187733 10.939733 2.688 9.053867-5.2736-7.4752-31.453867-16.324267-64.7936-22.2208-96.349867l7.517866 3.7632v-11.2896c0.0768 0.298667 2.500267 0.861867 2.952534 2.833067l25.685333 106.5472 5.239467-0.238933 3.7632 7.5264z m-447.829333-809.105066c1.9712-1.851733-8.285867-21.2224-10.555733-25.1904-28.322133-49.399467-98.1248-74.120533-152.4224-60.6464-39.748267 9.864533-78.0032 42.1888-92.885334 80.2048 3.959467 5.947733 6.946133 5.230933 13.056 5.717333 62.984533 5.000533 125.192533 8.465067 188.168534 3.601067 4.471467-0.341333 8.951467-3.447467 14.967466-3.848534 12.962133-0.861867 26.6496 0.9472 39.671467 0.162134z m-402.670933 259.669333c3.601067 27.0848 3.652267 28.270933 15.0528 52.6848 18.8416 40.354133 45.6448 64.9728 86.468266 84.7616 119.645867 57.992533 367.709867 49.3568 429.098667-88.5248 6.272-14.097067 10.530133-20.616533 11.2896-37.632 6.528-3.140267 3.694933-14.523733 3.754667-20.7104 0.256-29.073067-4.096-53.981867-12.194134-81.8688-5.410133-18.628267-19.362133-44.040533-21.6064-61.184-5.623467-43.0336 3.592533-80.213333-8.3712-127.104-12.535467-49.109333-25.514667-80.1792-79.530666-50.9952-4.266667 2.304-28.151467 18.338133-28.706134 20.283733-1.749333 6.126933 13.7728 28.612267 18.696534 35.575467 0.221867 14.882133 4.5056 22.152533 15.0528 30.1056 3.925333 23.150933-14.907733 33.655467-33.783467 39.6032-56.558933 17.8176-150.5024 16.4096-208.8192 5.418667-25.156267-4.736-71.389867-15.488-65.988267-48.785067 0.9216-0.6144 10.24-7.697067 10.734934-8.200533 1.826133-1.885867-0.034133-5.6064 0.554666-6.852267 6.408533-13.576533 9.856-29.602133 22.562134-39.517867-19.3536-16.366933-70.3488-54.638933-94.088534-33.8944-9.864533 8.618667-23.492267 53.538133-26.1888 67.899734-8.132267 43.3152-2.090667 87.9104-7.662933 127.8208-1.194667 8.567467-10.274133 24.917333-13.277867 35.643733-8.1664 29.124267-19.584 70.2976-16.887466 100.0448 0.4096 4.48 3.780267 5.102933 3.822933 5.4272z m135.483733-244.608c-3.063467 10.7008 9.258667 18.167467 17.706667 21.802667 44.893867 19.310933 165.179733 20.829867 213.649066 11.989333 18.244267-3.328 39.560533-9.002667 50.781867-24.6272-5.6832-19.2768-14.216533-9.890133-24.448-9.233067-67.712 4.360533-131.677867 2.7904-199.202133-0.093866-19.396267-0.827733-39.108267 0.930133-58.487467 0.170666z m-79.616 403.234133c-56.5504-28.808533-144.059733-0.0512-181.777067 48.512-17.3056 22.289067-23.5008 45.149867-16.298666 72.4224 7.4752 28.330667 35.3792 51.822933 62.114133 62.08 46.609067 17.877333 97.92 15.377067 142.933333-5.973333 40.6272-19.268267 100.292267-85.051733 37.691734-114.449067-11.6224-5.4528-41.250133-8.448-46.062934-17.902933-8.610133-16.904533 13.252267-28.177067 1.399467-44.6976z m395.716267 119.850667c5.12-28.151467 17.220267-53.9648 33.851733-77.149867l-67.703467-39.509333 27.3152 102.510933 6.536534 14.148267zM283.050667 632.2432l11.2896-52.6848c-18.295467 10.513067-36.8896 21.751467-52.676267 35.754667 3.0208 3.328 9.770667 1.681067 15.223467 3.584 5.256533 1.834667 23.918933 15.854933 26.1632 13.346133zM546.4832 587.093333c-11.537067-1.3568-22.331733 2.133333-32.725333 6.784-10.2144 4.565333-16.1024 11.793067-25.1136 15.812267-4.3776 1.954133-2.491733 3.541333-2.3808 7.492267 12.5184 0.6656 20.206933 10.769067 28.228266 18.807466l20.1216-25.019733L546.474667 587.093333z m-158.062933 41.3952c-11.178667 5.6064-25.668267 22.519467-39.082667 18.440534-11.844267-3.6096-28.928-45.201067-38.058667-56.064-5.248 4.283733-6.8864 11.4688-8.6016 17.7408-6.3232 23.1168-6.186667 33.3312-4.650666 55.7056 1.467733 21.316267-2.321067 38.877867-14.958934 56.388266 2.653867 4.343467 5.435733 4.3264 9.4208 5.597867 28.552533 9.156267 59.8784 9.591467 88.388267 18.8672l7.5264-116.676267z m-37.512534 3.703467c2.116267 2.594133 32.196267-13.764267 29.960534-20.5824-12.16-17.4848-33.1008-19.131733-52.650667-20.753067l22.690133 41.335467z m248.277334 90.376533c-5.333333-29.312-11.8272-58.794667-19.7376-87.5264-1.962667-7.133867-11.630933-44.219733-16.0256-44.168533l-45.457067 60.091733-27.921067-18.7136c-2.286933 7.722667 3.208533 14.6944 3.677867 20.770134 1.186133 15.086933 2.679467 30.583467 3.7632 45.166933 0.7168 9.685333-3.592533 40.797867 5.930667 43.153067l20.471466-3.746134c0.273067-6.4-1.339733-12.7744 1.792-18.901333 0.7936-1.544533 25.216-21.5296 26.88-22.024533 13.1584-3.899733 24.046933 4.514133 27.9808 16.4352l-3.9424 13.218133 22.587734-3.754667zM407.2448 602.146133l-18.816-3.7632 13.175467 15.0272c3.9936-3.498667 6.8352-5.649067 5.640533-11.264z m75.264-3.7632l-26.3424 5.632 15.035733 13.184c-0.904533-8.840533 8.686933-11.6992 11.306667-18.816z m-48.9216 116.6592c1.058133 6.647467-3.746133 12.3904-11.2896 11.2896l-1.885867-109.124266c-5.700267 7.483733-19.524267 15.368533-20.795733 24.362666-1.757867 12.484267 1.117867 28.475733 0.256 41.6512-0.392533 5.998933-3.592533 10.6496-3.848533 14.967467-0.494933 8.354133-2.568533 46.967467 5.572266 46.967467h80.913067l-3.746133-109.141334c-20.497067 4.113067-12.731733-5.973333-20.6848-15.086933-5.742933-6.587733-21.4784-11.656533-24.277334-1.629867l-0.2304 12.9536c12.407467-1.408 20.906667 0.768 18.850134 15.0528l-17.109334 3.601067-1.7152 18.978133 15.0528-3.7632 3.7376 9.412267c-3.4304 6.792533-13.960533 4.625067-17.143466 9.173333-3.566933 5.0944-0.8448 13.201067-1.655467 19.054934-0.2304 1.664-2.9952 4.0192-3.217067 6.382933l3.217067 4.906667z m218.2656 0.008534c4.078933-28.177067 17.928533-54.016 33.851733-77.166934L660.906667 621.141333l-5.341867 1.5872c-9.762133 6.1696-36.7872 68.002133-33.544533 78.8224 2.4064 5.512533 27.050667 16.896 29.832533 13.499734z m63.872-45.320534c2.141867-15.7696-12.629333-22.980267-26.427733-16.9728-12.296533 19.259733-20.0704 40.405333-26.171734 62.267734l22.596267 3.771733c2.2272-11.1616-7.381333-19.950933-1.988267-30.225067 3.106133-5.9136 24.465067-15.752533 31.991467-18.8416z m11.392 11.434667l-25.659733 11.946667-8.200534 29.448533c29.653333 4.036267 45.166933-12.765867 33.860267-41.3952z m-162.321067 30.993067c0-4.360533-3.5328-7.893333-7.893333-7.893334s-7.893333 3.5328-7.893333 7.893334 3.5328 7.893333 7.893333 7.893333 7.893333-3.5328 7.893333-7.893333z m-25.736533 74.282666c41.7536 8.285867 30.0544-23.415467 28.270933-52.744533l-32.145066-3.618133 3.874133 56.362666zM358.306133 752.725333l-80.861866-18.901333-5.802667 16.708267 32.896 12.6464 47.957333 8.2432 5.614934-5.7856 0.196266-12.910934z m244.5568-18.833066l-22.3232 3.9168-0.1792 22.391466L606.72 748.859733l-3.857067-14.976z m-78.967466 15.018666l-22.562134 3.7888v18.7904l22.382934-3.950933 0.1792-18.628267z m-143.0016 3.754667h-11.281067v30.122667c-34.952533 2.56-68.778667-8.1664-101.6064-18.833067l-14.976 82.696533 69.614933 18.8416 46.7712 3.652267 11.477334-116.48z m99.729066 3.771733H392.183467v22.587734c31.086933 3.370667 62.344533 4.778667 94.088533 3.7632-0.145067-7.236267 2.269867-24.2432-5.649067-26.350934z m129.834667 7.509334l-29.917867 7.7312c-1.698133 1.749333 3.780267 18.798933-7.620266 24.362666-2.653867 1.297067-20.7104 5.162667-24.6784 5.572267-8.260267 0.8448-13.047467-2.3296-20.4032-3.950933l-0.170667-14.8992h-26.359467l7.534934 86.5792c40.362667-1.2032 81.143467-11.511467 118.7072-26.248534l-17.1008-79.138133z m-225.792 109.149866c-10.752 17.672533-12.544 8.448-24.541867 7.594667-15.121067-1.083733-29.866667-1.1008-44.945066-3.968-13.474133-2.56-26.299733-8.285867-39.645867-11.153067l0.324267 24.123734c2.816 9.813333 42.965333 11.886933 54.1184 13.627733 22.033067 3.438933 43.255467 8.0384 65.979733 7.406933 3.6864-0.1024 7.432533 0.452267 11.0848-0.187733l15.351467-56.174933 45.038933-0.0768c-2.423467 7.662933 13.696 52.369067 17.2032 52.8384l59.895467-0.238934c10.333867-4.5568 58.581333-5.7856 61.841066-17.194666l0.324267-24.132267c-33.1776 11.8784-69.512533 11.7504-103.278933 18.773333-3.729067-2.56-5.376-4.590933-5.973334-9.2416-2.005333-15.675733-1.928533-33.621333-3.712-48.9728-1.134933-9.770667-6.536533-20.360533-3.677866-32.068266-31.530667-1.860267-65.365333 4.232533-95.7696-3.712l-5.956267 9.250133c2.705067 24.7808-6.510933 48.785067-3.652267 73.4976z m530.628267-33.8688c0.571733-8.8576 1.476267-17.757867-9.301334-18.926933L666.9056 816.64v18.833067l248.388267 3.754666z m-195.703467 7.534934l-18.619733 0.1792-34.039467 123.989333 18.798933 3.780267 33.8688-127.9488z m11.281067 33.8688l3.601066-13.354667-1.7152-20.5056-8.942933 28.6976 7.048533 5.162667z m143.010133-26.3424c-11.4944 2.730667-21.632-3.234133-31.8208-3.933867-29.866667-2.039467-62.139733 1.757867-92.270933 0.256l-7.620267 30.0032 127.957333 3.780267 3.754667-30.1056z m30.114133-0.008534h-18.824533c-0.810667 16.853333 1.066667 34.107733 0.170667 50.9696-0.3584 6.690133-3.797333 11.844267-4.087467 18.491734-0.520533 11.776-2.013867 47.556267 0.4864 56.2944 2.3552 8.2176 15.0272 5.896533 22.254933 5.9648v-131.712z m18.816 0h-7.5264v131.712l7.5264-5.649066V854.272z m-52.676266 41.386667l-141.243734-3.8656-9.0624 5.9904-0.238933 12.936533 150.545067 3.771734v-18.833067z m-493.0048 30.122667l-82.781867-11.2896c1.2288 40.686933 52.258133 50.013867 77.1584 22.596266 3.4048-3.754667 7.048533-5.051733 5.623467-11.306666z m218.274133-11.2896c-4.010667-3.805867-35.618133 6.545067-43.357867 7.432533-14.4384 1.664-30.651733-3.822933-43.1872 5.725867 24.644267 34.449067 81.211733 35.1744 86.545067-13.1584z m101.6064 60.194133c8.226133 1.2288 9.122133-3.037867 11.229867-9.454933 3.208533-9.770667 5.614933-23.278933 7.7312-33.698134 1.314133-6.459733 5.725867-7.918933-2.030934-13.2864l-16.930133 56.439467z" fill="#4F2E24" p-id="3772"></path><path d="M384.6656 873.096533c-2.858667-24.712533 6.357333-48.7168 3.652267-73.4976l5.956266-9.250133c30.404267 7.944533 64.238933 1.851733 95.7696 3.712-2.850133 11.707733 2.542933 22.2976 3.677867 32.068267 1.783467 15.36 1.698133 33.3056 3.712 48.9728 0.597333 4.642133 2.244267 6.6816 5.973333 9.2416 33.774933-7.022933 70.101333-6.894933 103.278934-18.773334l-0.324267 24.132267c-3.259733 11.409067-51.498667 12.637867-61.841067 17.194667l-59.895466 0.238933c-3.515733-0.469333-19.626667-45.175467-17.2032-52.8384l-45.038934 0.0768-15.351466 56.174933c-3.6608 0.64-7.3984 0.085333-11.0848 0.187734-10.965333-9.617067-3.584-13.883733-4.334934-20.138667-0.512-4.309333-6.007467-9.250133-6.954666-17.493333z" fill="#6C5348" p-id="3773"></path><path d="M380.893867 752.6656l-11.477334 116.48-46.7712-3.652267-69.614933-18.8416 14.976-82.696533c32.827733 10.666667 66.653867 21.384533 101.6064 18.833067v-30.122667h11.281067z" fill="#7B5D4F" p-id="3774"></path><path d="M388.420267 628.488533l-7.5264 116.676267c-28.509867-9.275733-59.835733-9.7024-88.388267-18.8672-3.985067-1.28-6.766933-1.2544-9.4208-5.597867 12.629333-17.501867 16.418133-35.063467 14.958933-56.388266-1.536-22.3744-1.672533-32.5888 4.650667-55.7056 1.7152-6.272 3.345067-13.4656 8.6016-17.7408 9.130667 10.862933 26.205867 52.462933 38.058667 56.064 13.405867 4.087467 27.904-12.834133 39.082666-18.440534z" fill="#795C4D" p-id="3775"></path><path d="M610.4576 763.946667l17.1008 79.138133c-37.572267 14.7456-78.353067 25.053867-118.7072 26.248533l-7.534933-86.570666h26.359466l0.170667 14.890666c7.355733 1.621333 12.1344 4.795733 20.4032 3.950934 3.968-0.4096 22.024533-4.2752 24.6784-5.572267 11.400533-5.563733 5.9136-22.613333 7.620267-24.362667l29.917866-7.7312z" fill="#795C4F" p-id="3776"></path><path d="M433.5872 703.752533c0.810667-5.853867-1.911467-13.960533 1.655467-19.054933 3.182933-4.548267 13.713067-2.3808 17.143466-9.173333l-3.7376-9.412267-15.0528 3.7632 1.7152-18.978133 17.109334-3.601067c2.065067-14.2848-6.434133-16.4608-18.850134-15.0528l0.2304-12.9536c2.807467-10.026667 18.5344-4.957867 24.277334 1.629867 7.944533 9.1136 0.187733 19.2 20.6848 15.086933l3.746133 109.141333h-80.913067c-8.132267 0-6.0672-38.6048-5.572266-46.967466 0.256-4.317867 3.456-8.96 3.848533-14.967467 0.861867-13.175467-2.013867-29.166933-0.256-41.6512 1.271467-9.002667 15.086933-16.878933 20.795733-24.362667l1.885867 109.124267c7.534933 1.109333 12.347733-4.6336 11.2896-11.2896h18.816v-9.3952c-5.4272-7.7824-11.255467-6.980267-18.807467-1.8944z" fill="#F1F0EA" p-id="3777"></path><path d="M599.185067 722.568533l-22.587734 3.754667 3.9424-13.218133c-3.925333-11.921067-14.8224-20.334933-27.9808-16.4352-1.664 0.494933-26.094933 20.471467-26.88 22.024533-3.131733 6.126933-1.527467 12.501333-1.792 18.901333l-20.471466 3.746134c-9.514667-2.363733-5.205333-33.467733-5.930667-43.153067-1.083733-14.574933-2.577067-30.071467-3.7632-45.166933-0.477867-6.075733-5.973333-13.047467-3.677867-20.770134l27.921067 18.7136 45.457067-60.091733c4.394667-0.0512 14.0544 37.034667 16.0256 44.168533 7.918933 28.731733 14.4128 58.2144 19.7376 87.5264z m-93.909334-19.003733c12.936533 2.798933 33.1008-2.594133 39.441067-14.754133 5.6832-10.888533-10.530133-28.9536-22.698667-28.9536-22.4 0-24.465067 27.613867-16.7424 43.707733z" fill="#775A4C" p-id="3778"></path><path d="M610.449067 692.4544l-6.536534-14.148267-27.3152-102.510933 67.703467 39.509333c-16.631467 23.185067-28.731733 48.9984-33.851733 77.149867z" fill="#F6F3EA" p-id="3779"></path><path d="M384.6656 873.096533c0.955733 8.234667 6.442667 13.175467 6.954667 17.493334 0.750933 6.263467-6.6304 10.530133 4.334933 20.138666-22.724267 0.631467-43.946667-3.968-65.979733-7.406933-11.153067-1.7408-51.293867-3.805867-54.1184-13.627733l-0.324267-24.123734c13.346133 2.8672 26.171733 8.593067 39.645867 11.153067 15.0784 2.8672 29.824 2.884267 44.945066 3.968 11.997867 0.853333 13.789867 10.077867 24.541867-7.594667z" fill="#604C44" p-id="3780"></path><path d="M651.8528 715.050667c-2.7904 3.4048-27.434667-7.9872-29.832533-13.499734-3.242667-10.8288 23.7824-72.661333 33.544533-78.8224l5.341867-1.5872 24.797866 16.7424c-15.9232 23.150933-29.764267 48.989867-33.851733 77.166934z" fill="#836654" p-id="3781"></path><path d="M480.622933 756.437333c7.927467 2.107733 5.504 19.106133 5.649067 26.350934-31.744 1.024-63.0016-0.392533-94.097067-3.7632v-22.587734h88.448z" fill="#785C4D" p-id="3782"></path><path d="M595.4048 914.500267c-5.333333 48.3328-61.9008 47.616-86.545067 13.1584 12.535467-9.5488 28.757333-4.061867 43.1872-5.725867 7.739733-0.887467 39.3472-11.2384 43.357867-7.432533z" fill="#F1C58A" p-id="3783"></path><path d="M377.130667 925.789867c1.425067 6.254933-2.218667 7.552-5.623467 11.306666-24.900267 27.426133-75.9296 18.090667-77.1584-22.596266l82.781867 11.2896z" fill="#F3C68A" p-id="3784"></path><path d="M539.0592 786.440533l-3.874133-56.362666 32.145066 3.618133c1.774933 29.329067 13.482667 61.0304-28.270933 52.744533z" fill="#1E84A8" p-id="3785"></path><path d="M358.306133 752.725333l-0.196266 12.910934-5.614934 5.7856-47.957333-8.2432-32.896-12.6464 5.802667-16.708267 80.861866 18.901333z" fill="#725549" p-id="3786"></path><path d="M546.4832 587.093333l-11.861333 23.876267-20.1216 25.019733c-8.021333-8.046933-15.709867-18.1504-28.228267-18.807466-0.110933-3.950933-1.9968-5.538133 2.3808-7.492267 9.0112-4.0192 14.8992-11.246933 25.1136-15.812267 10.385067-4.642133 21.179733-8.1408 32.725333-6.784z" fill="#6E524A" p-id="3787"></path><path d="M715.7248 669.730133c-7.5264 3.089067-28.885333 12.928-31.991467 18.8416-5.393067 10.274133 4.215467 19.063467 1.988267 30.225067l-22.596267-3.771733c6.0928-21.8624 13.8752-43.008 26.171734-62.267734 13.7984-6.007467 28.5696 1.211733 26.427733 16.9728z" fill="#DEB67F" p-id="3788"></path><path d="M283.050667 632.2432c-2.244267 2.5088-20.898133-11.502933-26.1632-13.346133-5.4528-1.902933-12.2112-0.256-15.223467-3.584 15.786667-14.011733 34.372267-25.2416 52.676267-35.754667l-11.2896 52.6848z" fill="#EAE9E2" p-id="3789"></path><path d="M350.907733 632.192l-22.690133-41.335467c19.541333 1.621333 40.482133 3.259733 52.650667 20.753067 2.235733 6.818133-27.844267 23.176533-29.960534 20.5824z" fill="#7C5B4D" p-id="3790"></path><path d="M727.1168 681.1648c11.306667 28.629333-4.206933 45.431467-33.860267 41.3952l8.200534-29.448533 25.659733-11.946667z" fill="#E0BF98" p-id="3791"></path><path d="M602.862933 733.892267l3.857067 14.967466-26.359467 11.3408 0.1792-22.4 22.3232-3.908266z" fill="#74564B" p-id="3792"></path><path d="M523.895467 748.910933l-0.1792 18.628267-22.391467 3.950933 0.017067-18.781866 22.5536-3.797334z" fill="#755647" p-id="3793"></path><path d="M433.5872 703.752533c7.552-5.085867 13.380267-5.896533 18.807467 1.8944v9.3952h-18.807467l-3.217067-4.906666c0.221867-2.363733 2.986667-4.718933 3.217067-6.382934z" fill="#5A3A2F" p-id="3794"></path><path d="M482.5088 598.382933c-2.619733 7.108267-12.2112 9.975467-11.306667 18.816l-15.035733-13.184 26.3424-5.632z" fill="#E9E3DF" p-id="3795"></path><path d="M556.893867 712.157867m-7.893334 0a7.893333 7.893333 0 1 0 15.786667 0 7.893333 7.893333 0 1 0-15.786667 0Z" fill="#8E7156" p-id="3796"></path><path d="M407.2448 602.146133c1.194667 5.623467-1.646933 7.765333-5.640533 11.264l-13.175467-15.0272 18.816 3.7632z" fill="#D9D0CC" p-id="3797"></path><path d="M505.275733 703.5648c-7.714133-16.093867-5.6576-43.707733 16.7424-43.707733 12.168533 0 28.381867 18.065067 22.698667 28.9536-6.340267 12.16-26.513067 17.553067-39.441067 14.754133z m29.7984-15.0272l-7.3984-16.989867-14.958933 2.210134-0.1024 22.468266c10.077867 2.6112 13.431467-7.04 22.4512-7.688533z" fill="#562E24" p-id="3798"></path><path d="M290.577067 150.545067c-0.3328-20.5824-29.0048-31.7696-43.861334-40.977067-3.5328-0.571733-11.997867 4.215467-14.506666 7.0656-12.330667 14.045867-13.3632 70.8352-13.1328 90.350933 6.459733 1.5616 7.483733-2.466133 11.2896-5.640533 18.7904-15.658667 29.525333-22.894933 48.9216-35.754667-5.393067 33.297067 40.840533 44.049067 65.988266 48.785067 58.3168 10.9824 152.260267 12.398933 208.8192-5.418667 18.8672-5.947733 37.700267-16.452267 33.783467-39.6032 14.958933 11.281067 23.9616 20.616533 37.632 31.991467 3.8144 3.1744 4.821333 7.1936 11.2896 5.640533v-54.570666c-6.929067-14.276267-5.256533-30.506667-21.128533-39.0656-18.8416-5.632-31.3088 15.138133-42.845867 25.890133-4.932267-6.954667-20.445867-29.448533-18.696533-35.575467 0.554667-1.9456 24.439467-17.979733 28.706133-20.283733 54.016-29.184 66.9952 1.885867 79.530667 50.9952 11.963733 46.890667 2.747733 84.0704 8.3712 127.104 2.244267 17.143467 16.196267 42.555733 21.6064 61.184 8.098133 27.886933 12.450133 52.795733 12.194133 81.8688-0.0512 6.186667 2.773333 17.570133-3.754667 20.7104 0.264533-6.024533 1.015467-14.7968-0.5376-20.1728-3.3536-11.605333-24.925867-27.392-37.0944-28.7488l-2.218666-3.3536c-9.736533-0.785067-19.669333-0.785067-29.431467 0l-2.218667 3.3536c-1.245867 0.0768-2.525867-0.119467-3.7632 0-20.130133 1.988267-31.522133 12.4928-48.9216 18.816-12.817067 4.6592-31.709867 8.704-45.1584 7.5264-30.993067-2.7136-39.68-25.1904-63.8976-35.831467-9.472-4.164267-29.397333-9.540267-39.594666-9.540266-43.861333 0-61.4912 41.642667-103.492267 45.371733-7.722667-0.2048-19.208533-1.5616-26.3424-3.7632-6.647467-2.048-18.798933-8.183467-26.3424-11.2896-8.797867-3.626667-13.508267-8.4992-26.3424-11.2896-14.114133-3.072-28.3648-5.282133-42.939733-3.3536l-2.218667 3.3536c-24.584533 2.321067-33.399467 15.325867-41.3952 37.632-0.042667-0.3328-3.421867-0.955733-3.822933-5.4272-2.696533-29.755733 8.7296-70.929067 16.887466-100.0448 3.003733-10.7264 12.0832-27.076267 13.277867-35.643733 5.572267-39.9104-0.477867-84.497067 7.662933-127.8208 2.696533-14.353067 16.324267-59.281067 26.1888-67.899734 23.739733-20.744533 74.734933 17.527467 94.088534 33.8944-12.706133 9.915733-16.1536 25.9328-22.562134 39.517867z m28.706133 90.794666c-15.189333 4.437333-18.304 28.398933-6.144 39.0656 2.167467 1.902933 19.268267 10.530133 22.417067 11.4432 34.952533 10.197333 53.930667-23.927467 22.664533-45.2352-9.309867-6.3488-28.3904-8.354133-38.9376-5.2736z m192.196267 0.273067c-44.6208 7.722667-36.992 72.8832 20.027733 46.370133 17.3312-8.064 21.8112-18.0736 18.269867-37.230933-3.720533-12.919467-27.050667-11.0848-38.2976-9.1392z m-188.910934 64.6912c-26.624 0-49.553067 29.892267-41.5744 55.185067 10.973867 34.798933 57.2416 45.5424 76.842667 12.4928 8.4736-14.2848 8.814933-27.7248 2.5088-42.939734-5.879467-14.190933-22.545067-24.738133-37.777067-24.738133z m208.861867 36.181333c15.095467-5.5296 57.258667-14.2336 33.877333-35.976533-2.6112-1.527467-13.781333 3.5072-17.7152 5.102933-7.773867 3.1488-46.446933 24.405333-50.1504 28.8768-3.054933 3.694933-5.051733 5.9392-3.524266 11.2384s70.664533 33.553067 76.5184 31.872l9.838933-9.344c-6.3488-23.278933-36.8896-15.684267-48.853333-31.761066z" fill="#F8C17D" p-id="3799"></path><path d="M531.4304 402.688l14.737067 9.728c-0.810667 40.055467 5.111467 68.360533 45.44 82.5088 4.872533 1.706667 12.842667 5.4784 17.134933 5.76 6.050133 0.401067 9.9584-3.2256 14.9504-3.8656 12.919467-1.6384 30.327467-1.877333 41.5488-11.127467 5.700267-4.701867 11.246933-17.9968 16.657067-24.738133 4.727467-5.896533 8.968533-9.685333 7.586133 1.9456-61.397333 137.8816-309.4528 146.517333-429.098667 88.5248-40.823467-19.7888-67.626667-44.407467-86.468266-84.7616 1.194667-7.4496 10.2912 4.224 11.357866 5.572267 4.932267 6.254933 5.8368 11.733333 13.585067 16.520533 6.6304 4.096 29.44 10.9056 37.239467 11.6992 15.530667 1.595733 33.681067-8.507733 50.210133-7.978667 1.655467-12.808533 22.7072-22.007467 26.2144-32.093866 2.696533-7.748267 3.182933-17.493333 8.285867-25.719467l-11.4176-22.5536 15.061333-9.429333c42.001067-3.729067 59.630933-45.3632 103.492267-45.371734 10.197333 0 30.122667 5.376 39.594666 9.540267 24.2176 10.641067 32.904533 33.117867 63.8976 35.831467z m-114.030933-29.3632c-23.8592 4.206933-36.283733 26.043733-13.815467 42.436267 16.810667 12.253867 32.7424 12.970667 50.184533 1.4592 40.533333-26.743467-2.141867-49.937067-36.369066-43.895467z m-44.398934 52.369067c-14.609067-6.5536-13.166933 10.914133-6.459733 17.732266 2.338133 2.372267 16.341333 7.159467 17.706667 8.610134 1.297067 1.365333 2.798933 24.311467 11.639466 35.4048 21.111467 26.487467 63.658667 19.438933 73.642667-13.056 2.005333-6.528 0.6144-15.0784 3.3792-19.2 2.577067-3.848533 18.210133-9.181867 20.676267-16.955734 1.442133-4.522667 2.542933-10.496-5.444267-9.207466-9.1648 1.476267-9.856 10.103467-18.696533 11.392-15.863467 2.312533-30.8992-7.799467-40.8576-6.946134-5.077333 0.4352-12.859733 5.930667-19.5072 6.792534-14.1568 1.8432-22.946133-2.2272-35.0464-8.3456l-1.032534-6.203734z" fill="#F9F1E0" p-id="3800"></path><path d="M561.536 154.308267c-13.021867 0.7936-26.709333-1.015467-39.671467-0.162134-6.016 0.401067-10.496 3.5072-14.967466 3.848534-62.976 4.864-125.184 1.399467-188.168534-3.601067-6.101333-0.4864-9.096533 0.2304-13.056-5.717333 14.882133-38.016 53.137067-70.340267 92.885334-80.2048 54.2976-13.482667 124.100267 11.246933 152.4224 60.6464 2.269867 3.959467 12.526933 23.338667 10.555733 25.1904z" fill="#71574C" p-id="3801"></path><path d="M294.3488 169.3696c19.3792 0.768 39.0912-0.9984 58.487467-0.170667 67.524267 2.884267 131.490133 4.4544 199.202133 0.093867 10.222933-0.657067 18.756267-10.043733 24.448 9.233067-11.221333 15.616-32.5376 21.2992-50.781867 24.6272-48.469333 8.840533-168.763733 7.330133-213.649066-11.989334-8.439467-3.6352-20.770133-11.101867-17.706667-21.802666z" fill="#71554B" p-id="3802"></path><path d="M663.1424 376.3456c12.168533 1.3568 33.7408 17.143467 37.0944 28.7488 1.553067 5.367467 0.802133 14.148267 0.5376 20.1728-0.759467 17.015467-5.0176 23.534933-11.2896 37.632 1.3824-11.630933-2.858667-7.842133-7.586133-1.9456-5.410133 6.749867-10.9568 20.036267-16.657067 24.738133-11.221333 9.250133-28.629333 9.489067-41.5488 11.127467-4.992 0.631467-8.900267 4.266667-14.9504 3.8656-4.283733-0.2816-12.253867-4.053333-17.134933-5.76-40.328533-14.148267-46.2592-42.461867-45.44-82.5088l-14.737067-9.728c13.448533 1.1776 32.341333-2.8672 45.1584-7.5264 2.696533 9.403733-6.5792 13.3888-7.620267 20.608-4.292267 29.781333 7.850667 57.975467 39.671467 62.122667 6.528 0.853333 23.936 1.237333 29.568-0.4096 3.421867-0.9984 25.514667-23.808 28.168533-28.279467 9.6768-16.264533 3.541333-34.218667-6.852266-48.546133l-34.0224-24.311467c1.237333-0.119467 2.517333 0.0768 3.7632 0 9.984-0.580267 24.234667-1.0752 33.8688 0z" fill="#FAE1C9" p-id="3803"></path><path d="M200.260267 376.3456c4.087467-0.384 19.6608-2.645333 18.807466 3.754667-22.801067 5.0432-37.7344 45.1584-33.237333 65.262933 2.6112 11.665067 15.914667 16.6912 18.875733 28.1344 21.316267 12.177067 47.573333 9.096533 71.0144 6.536533 14.378667-20.957867 24.9344-24.465067 22.2976-52.8128-0.699733-7.517867-9.7024-21.358933 0.085334-28.296533 7.133867 2.2016 18.619733 3.5584 26.3424 3.7632l-15.061334 9.429333 11.4176 22.5536c-5.0944 8.226133-5.589333 17.962667-8.285866 25.719467-3.5072 10.077867-24.5504 19.285333-26.2144 32.093867-16.5376-0.529067-34.688 9.5744-50.210134 7.978666-7.799467-0.802133-30.609067-7.6032-37.239466-11.6992-7.748267-4.7872-8.6528-10.2656-13.585067-16.520533-1.066667-1.3568-10.1632-13.021867-11.357867-5.572267-11.400533-24.413867-11.451733-25.6-15.0528-52.6848 7.995733-22.306133 16.810667-35.310933 41.3952-37.632z" fill="#FAE3CA" p-id="3804"></path><path d="M290.577067 150.545067c-0.5888 1.245867 1.271467 4.9664-0.554667 6.852266-0.494933 0.503467-9.813333 7.586133-10.734933 8.200534-19.396267 12.859733-30.1312 20.096-48.9216 35.754666-3.805867 3.1744-4.829867 7.202133-11.2896 5.640534-0.2304-19.515733 0.7936-76.305067 13.1328-90.350934 2.5088-2.850133 10.9824-7.637333 14.506666-7.0656 14.856533 9.207467 43.528533 20.394667 43.861334 40.977067z" fill="#F8C5B8" p-id="3805"></path><path d="M572.8256 139.255467c11.537067-10.752 24.004267-31.522133 42.845867-25.890134 15.872 8.558933 14.199467 24.789333 21.128533 39.0656v54.570667c-6.468267 1.544533-7.483733-2.474667-11.2896-5.640533-13.6704-11.374933-22.673067-20.701867-37.632-31.991467-10.5472-7.953067-14.830933-15.223467-15.0528-30.1056z" fill="#F7C7BC" p-id="3806"></path><path d="M322.568533 306.304c15.232 0 31.8976 10.5472 37.777067 24.738133 6.306133 15.214933 5.9648 28.654933-2.5088 42.939734-19.601067 33.0496-65.8688 22.306133-76.842667-12.4928-7.978667-25.2928 14.9504-55.185067 41.5744-55.185067z" fill="#513028" p-id="3807"></path><path d="M625.5104 376.3456l34.0224 24.311467c10.3936 14.327467 16.529067 32.290133 6.852267 48.546133-2.6624 4.471467-24.7552 27.281067-28.168534 28.279467-5.632 1.646933-23.04 1.2544-29.568 0.4096-31.812267-4.1472-43.963733-32.341333-39.671466-62.122667 1.041067-7.2192 10.3168-11.204267 7.620266-20.608 17.399467-6.3232 28.791467-16.827733 48.9216-18.816z m-16.4096 23.125333c-1.1776 0.349867-15.240533 9.770667-15.761067 10.564267-5.1968 7.918933-2.491733 23.176533-4.258133 32.238933l19.950933 20.155734c14.472533 5.623467 38.545067-9.949867 44.808534-21.981867 9.975467-19.1744-22.971733-47.3856-44.740267-40.968533z" fill="#F9CEB0" p-id="3808"></path><path d="M245.418667 376.3456c4.9152 7.867733 5.725867 7.185067-3.7632 9.3952-7.927467 1.8432-14.737067 0.9472-20.846934 5.504-36.846933 27.485867-22.690133 83.114667 22.7328 83.106133 19.0976 0 27.5968-11.6736 39.048534-25.088-0.580267-13.371733 4.855467-27.7248-0.247467-40.251733-2.730667-6.7072-11.357867-12.219733-10.581333-21.384533 7.543467 3.106133 19.694933 9.2416 26.3424 11.2896-9.787733 6.9376-0.785067 20.778667-0.085334 28.296533 2.628267 28.347733-7.918933 31.854933-22.2976 52.8128-23.441067 2.56-49.698133 5.640533-71.0144-6.536533-2.961067-11.4432-16.256-16.469333-18.875733-28.1344-4.5056-20.104533 10.427733-60.219733 33.237333-65.262934 0.853333-6.4-14.72-4.138667-18.807466-3.754666l2.218666-3.3536c14.574933-1.928533 28.8256 0.2816 42.939734 3.3536z" fill="#FAD5BB" p-id="3809"></path><path d="M271.761067 387.6352c-0.785067 9.156267 7.850667 14.677333 10.581333 21.384533 5.102933 12.5184-0.324267 26.88 0.247467 40.251734-11.460267 13.4144-19.959467 25.088-39.048534 25.088-45.422933 0-59.579733-55.620267-22.7328-83.106134 6.109867-4.5568 12.928-3.6608 20.846934-5.504 9.4976-2.210133 8.6784-1.527467 3.7632-9.3952 12.834133 2.7904 17.544533 7.662933 26.3424 11.2896z m-38.8864 11.9296c-14.634667 3.234133-24.661333 29.3888-20.8896 42.2144 1.0752 3.6608 17.4336 15.837867 20.804266 16.8192 14.1824 4.096 27.7504 0.068267 34.500267-13.3376 13.243733-26.299733-5.2992-52.1216-34.423467-45.687467z" fill="#F9C9AB" p-id="3810"></path><path d="M531.4304 342.485333c11.963733 16.0768 42.504533 8.490667 48.853333 31.761067l-9.838933 9.344c-5.853867 1.681067-74.990933-26.5728-76.5184-31.872-1.527467-5.307733 0.4608-7.543467 3.524267-11.2384 3.694933-4.471467 42.376533-25.719467 50.1504-28.8768 3.933867-1.595733 15.104-6.621867 17.7152-5.102933 23.381333 21.742933-18.781867 30.446933-33.877334 35.976533z" fill="#512F26" p-id="3811"></path><path d="M511.479467 241.6128c11.246933-1.9456 34.568533-3.780267 38.2976 9.1392 3.541333 19.157333-0.938667 29.166933-18.269867 37.230933-57.019733 26.5216-64.648533-38.638933-20.027733-46.370133z" fill="#F7EED9" p-id="3812"></path><path d="M319.2832 241.339733c10.5472-3.080533 29.627733-1.0752 38.9376 5.2736 31.274667 21.316267 12.288 55.432533-22.664533 45.2352-3.1488-0.9216-20.2496-9.5488-22.417067-11.4432-12.168533-10.666667-9.053867-34.628267 6.144-39.0656z" fill="#F7EEDA" p-id="3813"></path><path d="M663.1424 376.3456c-9.634133-1.0752-23.8848-0.580267-33.8688 0l2.218667-3.3536c9.762133-0.785067 19.694933-0.785067 29.431466 0l2.218667 3.3536z" fill="#F9CEB0" p-id="3814"></path><path d="M373.000533 425.693867l1.032534 6.203733c12.100267 6.126933 20.8896 10.1888 35.0464 8.3456 6.647467-0.861867 14.429867-6.365867 19.5072-6.792533 9.9584-0.8448 24.994133 9.258667 40.8576 6.946133 8.840533-1.288533 9.531733-9.9072 18.696533-11.392 7.978667-1.288533 6.877867 4.6848 5.444267 9.207467-2.474667 7.773867-18.0992 13.1072-20.676267 16.955733-2.7648 4.1216-1.373867 12.680533-3.3792 19.2-9.984 32.494933-52.5312 39.543467-73.642667 13.056-8.840533-11.0848-10.3424-34.030933-11.639466-35.4048-1.365333-1.450667-15.368533-6.229333-17.706667-8.610133-6.7072-6.818133-8.149333-24.277333 6.459733-17.732267z m86.9376 29.687466c-12.817067 1.877333-22.818133-5.077333-35.6864-3.712-5.649067 0.605867-11.144533 3.1232-18.884266 3.797334-5.1712 0.452267-6.818133-2.0224-5.725867 5.6064 6.161067 42.990933 62.8992 36.625067 60.296533-5.700267z" fill="#522E24" p-id="3815"></path><path d="M417.399467 373.3248c34.2272-6.0416 76.9024 17.152 36.369066 43.895467-17.442133 11.502933-33.373867 10.794667-50.184533-1.4592-22.4768-16.384-10.043733-38.2208 13.815467-42.436267z" fill="#56332C" p-id="3816"></path><path d="M609.1008 399.470933c21.768533-6.417067 54.715733 21.794133 44.740267 40.968534-6.263467 12.032-30.336 27.605333-44.808534 21.981866l-19.950933-20.155733c1.7664-9.053867-0.9472-24.311467 4.258133-32.238933 0.520533-0.7936 14.583467-10.2144 15.761067-10.564267z" fill="#F9BF9F" p-id="3817"></path><path d="M232.874667 399.5648c29.124267-6.434133 47.6672 19.396267 34.423466 45.687467-6.749867 13.405867-20.317867 17.4336-34.500266 13.3376-3.370667-0.9728-19.729067-13.149867-20.804267-16.8192-3.771733-12.8256 6.2464-38.980267 20.8896-42.2144z" fill="#F9BA98" p-id="3818"></path><path d="M459.938133 455.381333c2.602667 42.325333-54.135467 48.6912-60.296533 5.700267-1.092267-7.6288 0.554667-5.154133 5.725867-5.6064 7.739733-0.674133 13.2352-3.2 18.884266-3.797333 12.868267-1.373867 22.869333 5.5808 35.6864 3.712z" fill="#CF3E37" p-id="3819"></path><path d="M214.7328 572.603733c11.861333 16.520533-10.001067 27.784533-1.399467 44.6976 4.8128 9.454933 34.440533 12.450133 46.062934 17.902934 62.592 29.397333 2.935467 95.1808-37.691734 114.449066-45.013333 21.341867-96.3328 23.850667-142.933333 5.973334-26.734933-10.257067-54.638933-33.749333-62.114133-62.08-7.1936-27.281067-1.006933-50.141867 16.298666-72.4224 37.717333-48.5632 125.226667-77.320533 181.777067-48.512z m-52.445867 32.964267c6.306133-21.3248-16.1792-34.8416-34.952533-29.294933-7.202133 2.1248-23.552 21.154133-15.6928 29.824 20.4032 15.837867 30.353067 11.741867 50.645333-0.529067zM49.732267 624.725333c-0.733867 0.8448-4.266667 1.1008-5.751467 3.498667-6.1696 10.026667 0.426667 18.193067 9.514667 22.843733 4.462933 2.286933 7.432533 4.360533 13.021866 3.908267 4.642133-0.375467 24.866133-9.181867 27.6736-12.125867 1.271467-1.3312 7.867733-17.066667 7.662934-19.345066-0.896-10.205867-5.632-18.0992-16.443734-17.826134-18.952533 0.469333-24.8064 6.5792-35.677866 19.0464z m160.546133 23.202134c-5.717333 1.28-19.259733 11.383467-20.829867 16.785066-12.689067 43.5712 53.828267 53.461333 63.675734 14.4896-2.0992-21.085867-21.393067-36.078933-42.845867-31.274666z m-161.792 18.833066c-4.053333 0.878933-12.279467 5.248-13.422933 9.156267v21.8112c11.690667 10.837333 22.408533 17.877333 37.137066 7.799467 25.728-17.604267 7.005867-45.422933-23.714133-38.7584zM132.104533 711.68c-19.3792-8.874667-56.1664-3.9168-48.059733 23.620267 4.138667 14.0544 44.586667 14.0032 50.449067 2.414933 4.6592-9.1904 0.597333-17.160533-2.389334-26.043733z m44.322134 0.093867c-26.333867 5.751467-25.454933 39.2704 14.429866 33.365333 14.8736-2.2016 28.6208-20.309333 13.2352-28.279467-4.983467-2.5856-22.3744-6.2464-27.665066-5.085866z" fill="#CA9260" p-id="3820"></path><path d="M210.2784 647.927467c21.4528-4.8128 40.746667 10.1888 42.845867 31.274666-9.847467 38.971733-76.373333 29.0816-63.675734-14.4896 1.570133-5.393067 15.112533-15.496533 20.829867-16.785066z m27.528533 36.906666c7.8848-24.891733-32.068267-30.481067-37.2992-12.731733-5.341867 18.1248 25.540267 19.831467 37.2992 12.731733z" fill="#512E22" p-id="3821"></path><path d="M49.732267 624.725333c10.871467-12.4672 16.725333-18.577067 35.677866-19.0464 10.811733-0.273067 15.547733 7.620267 16.443734 17.826134 0.196267 2.2784-6.4 18.0224-7.662934 19.345066-2.807467 2.944-23.031467 11.741867-27.6736 12.125867-5.589333 0.452267-8.558933-1.621333-13.021866-3.908267 1.408-9.344-1.5104-17.527467-3.7632-26.3424z" fill="#65B22E" p-id="3822"></path><path d="M48.4864 666.760533c30.72-6.664533 49.442133 21.162667 23.714133 38.7584-14.728533 10.077867-25.4464 3.037867-37.137066-7.799466v-21.8112c1.152-3.899733 9.3696-8.277333 13.431466-9.156267z" fill="#5BB2EA" p-id="3823"></path><path d="M132.104533 711.68c2.9952 8.874667 7.048533 16.8448 2.389334 26.043733-5.8624 11.579733-46.318933 11.639467-50.449067-2.414933-8.098133-27.537067 28.689067-32.503467 48.059733-23.620267z" fill="#525373" p-id="3824"></path><path d="M162.286933 605.568c-20.292267 12.2624-30.242133 16.3584-50.645333 0.529067-7.8592-8.669867 8.490667-27.690667 15.6928-29.824 18.773333-5.546667 41.258667 7.970133 34.952533 29.294933z" fill="#CF3E2E" p-id="3825"></path><path d="M176.426667 711.773867c5.290667-1.152 22.673067 2.500267 27.665066 5.085866 15.3856 7.970133 1.6384 26.077867-13.2352 28.279467-39.876267 5.905067-40.763733-27.613867-14.429866-33.365333z" fill="#F1E267" p-id="3826"></path><path d="M53.495467 651.067733c-9.088-4.650667-15.684267-12.817067-9.514667-22.843733 1.476267-2.4064 5.009067-2.653867 5.751467-3.498667 2.2528 8.814933 5.1712 16.9984 3.7632 26.3424z" fill="#96AE48" p-id="3827"></path><path d="M237.806933 684.834133c-11.758933 7.0912-42.641067 5.393067-37.2992-12.731733 5.230933-17.749333 45.184-12.16 37.2992 12.731733z" fill="#D19C65" p-id="3828"></path><path d="M535.074133 688.5376c-9.028267 0.64-12.373333 10.2912-22.4512 7.688533l0.1024-22.468266 14.958934-2.210134 7.3984 16.989867z" fill="#9F4B3E" p-id="3829"></path></svg>