<svg t="1783940129334" class="icon" viewBox="0 0 1625 1024" version="1.1" xmlns="http://www.w3.org/2000/svg" p-id="45393"><path d="M805.435535 50.263318c5.112062 24.528372 13.558078 48.580465 26.989147 69.838387 14.399504 23.051907 35.911442 42.706357 62.42431 50.342698 73.728 21.956465 139.660899 68.790574 184.939163 130.944992-9.065178 0.254016-18.384372 1.682853-25.988961 6.969551 12.04986 4.715163 22.305736 13.27231 29.402294 24.067969 3.286326-4.588155 5.477209-9.827225 7.763349-14.955163 12.303876 19.33693 23.178915 39.642295 31.656682 60.947845-15.018667 0.142884-30.021457-0.031752-45.040124 0.07938-15.145674-30.608868-33.164899-60.090543-55.788155-85.777861-34.450853-31.386791-71.886388-61.503504-116.212093-77.554108-23.766326-8.557147-49.548899-13.065922-74.680558-8.747659 0.23814 12.160992 0.777922 24.306109 1.333582 36.451225 9.208062-13.018295 24.65538-22.28986 41.007627-20.178357 13.875597 0.603287 24.671256 10.938543 31.132776 22.44862 25.195163 11.938729 49.056744 26.592248 71.695876 42.865116-1.555845-5.747101-3.683225-11.30369-5.858233-16.844403 13.542202 9.779597 27.433674 22.242233 30.450109 39.531163 18.606636 19.892589 32.768 43.452527 44.865488 67.774512-4.540527 0.031752-9.049302 0-13.558078-0.047628-22.845519-54.137054-70.838574-92.699783-121.990945-118.799876 1.746357 6.398016 3.095814 12.891287 4.413519 19.384558 41.833178 22.210481 75.013953 58.423566 98.034109 99.431194-6.636155 0.07938-13.27231 0.063504-19.89259 0-0.031752-3.826109-0.047628-7.652217-0.047627-11.46245-9.112806 0-18.241488-0.07938-27.354295 0.063504-39.610543-46.976992-98.558016-77.220713-160.093271-80.268899-0.15876-78.824186-0.82555-157.711876 0.396899-236.50431m23.163039 100.669519c0.635039 13.875597 1.095442 27.735318 1.555845 41.610915 26.560496-2.857674 53.756031-1.031938 79.221085 7.334698-15.669581-10.875039-34.403225-16.384-50.247442-27.036776-10.636899-6.652031-20.416496-14.510636-30.529488-21.908837m8.239628 105.43231c23.020155 1.841612 45.691039 7.604589 66.726697 17.146047-3.19107-10.573395-7.239442-21.019783-13.129426-30.402481-4.508775-7.318822-13.621581-11.38307-22.067597-9.731969-13.542202 2.095628-23.528186 12.669023-31.529674 22.988403zM523.954605 276.63876c63.964279-72.838946 158.204031-118.641116 255.364961-121.022512 0.015876 43.706543 0.015876 87.428961 0 131.15138-61.551132 3.03231-120.308093 33.418915-160.045644 80.237147-6.588527-0.095256-13.177054-0.047628-19.749705-0.031752 0.031752 3.826109 0.015876 7.652217 0.015876 11.494202-7.795101 0-15.574326 0-23.35355-0.015876 7.731597-11.494202 16.54276-22.194605 25.877829-32.402853 0.746171-14.351876-9.477953-28.195721-22.639132-32.736248-18.765395 18.606636-34.768372 40.340837-44.325705 65.139101-4.953302 0.031752-9.890729 0.047628-14.812279-0.031752 11.398946-24.385488 27.147907-46.707101 46.341953-65.583628-23.210667 1.746357-37.880062 22.131101-52.581209 37.705426-7.985612 7.493457-12.36738 17.542946-15.860093 27.719442-12.20862 0.460403-24.41724 0.142884-36.62586 0.142884 5.23907-13.050047 11.240186-25.79845 18.0351-38.118202 6.128124 2.984682 11.970481 6.636155 18.368496 9.081055 10.08124-21.765953 23.067783-42.261829 38.896124-60.312807-4.286512-4.159504-8.795287-8.096744-12.907162-12.415007m177.03293-78.951194c-5.445457 14.431256-16.923783 25.290419-27.640062 35.911442-24.861767 24.290233-53.994171 43.516031-79.887876 66.615566 0.793798 1.301829 1.587597 2.619535 2.397271 3.93724 11.113178 1.619349 23.258295 3.683225 33.75231-1.555845 9.684341-5.064434 14.891659-15.145674 20.416496-24.099721 10.335256-17.050791 23.686946-32.879132 41.214016-42.817488 20.511752-12.033984 44.833736-15.574326 68.298419-14.621768-0.047628-12.335628 0.015876-24.65538-0.031752-36.991008-19.813209 3.079938-39.404155 7.541085-58.518822 13.621582m-97.065675 53.771907c-11.017922 9.938357-24.131473 25.068155-15.463193 40.64248 21.972341-20.146605 45.29414-38.75324 68.425426-57.518635 6.985426-5.381953 12.303876-14.748775 8.128496-23.480558-24.766512 5.048558-42.865116 24.306109-61.090729 40.356713m106.416621-6.22338c-11.192558 6.985426-12.669023 22.416868-7.699845 33.688806 14.066109-5.778853 28.846636-9.604961 43.738294-12.573767 0.619163-9.858977 5.90586-18.622512 13.129427-25.115783 0.015876-3.460961 0.015876-6.906047 0.031752-10.351132-16.923783 2.270264-34.371473 5.445457-49.199628 14.351876m-58.169551 59.010977c12.192744-7.668093 24.877643-14.57414 38.038822-20.448248-7.779225-20.40062 7.572837-39.15014 24.163225-48.977365-30.164341 10.700403-60.233426 35.228775-62.202047 69.425613m-103.336682-10.636899c0.031752 1.285953 0.111132 3.841984 0.142884 5.127938 7.382326 0.841426 14.828155 0.90493 22.194604 1.952744-4.969178-7.779225-6.38214-17.193674-4.524651-26.179473-6.22338 6.080496-12.399132 12.256248-17.812837 19.098791m57.58214 24.845891c3.921364 5.477209 11.541829 16.765023 17.463565 6.906047-5.254946-3.572093-11.240186-5.810605-17.463565-6.906047z" fill="#A52A2A" p-id="45394"></path><path d="M790.813767 290.450853c25.417426 26.973271 50.739597 54.010047 76.030016 81.094449 1.333581 1.14307 2.524279 3.19107 4.604031 2.841799 37.816558 0.015876 75.633116-0.031752 113.449674 0.015876l0.047628 11.414821c87.619473 0.317519 175.270698 0.047628 262.906047 0.142884 41.817302 0.968434 83.571101-4.604031 124.261209-13.986729-19.908465 27.354295-39.832806 54.692713-59.773023 82.031132 6.016992 30.72 11.859349 61.487628 17.796961 92.223504 5.302574-3.429209 10.573395-6.906047 15.860093-10.351132 35.911442 31.243907 72.045147 62.26555 107.702574 93.795225-26.163597 9.239814-52.279566 18.59076-78.379659 27.957582-4.238884 1.460589-8.795287 0.793798-13.177054 0.920806-76.220527-0.031752-152.45693 0.015876-228.693334-0.031752-27.560682 33.847566-54.549829 68.187287-82.078759 102.050729-15.383814-20.305364-30.751752-40.626605-46.310202-60.789086-128.706481-0.031752-257.412961 0.047628-386.119442-0.047628-12.36738 20.067225-24.321984 40.404341-36.482977 60.61445-36.562357-33.83169-72.807194-67.996775-109.353674-101.828465-69.854264 0.047628-139.708527-0.015876-209.562791 0.031752-4.381767-0.127008-8.938171 0.539783-13.145302-0.920806-26.115969-9.366822-52.231938-18.717767-78.379659-27.957582 35.625674-31.577302 71.822884-62.50369 107.670822-93.826977 5.286698 3.460961 10.573395 6.937798 15.875969 10.382884 5.953488-30.735876 11.779969-61.487628 17.796961-92.207628-19.908465-27.370171-39.89631-54.676837-59.757147-82.078759 39.134264 9.033426 79.252837 14.685271 119.482542 14.01848 77.951008-0.015876 155.902016 0.015876 233.8689-0.015876 0.015876-3.810233 0.015876-7.620465 0.015876-11.414822 35.117643-0.365147 70.235287 0.015876 105.35293-0.206387 26.084217-28.021085 52.438326-55.804031 78.49079-83.872744M719.133767 381.023256c-1.301829 1.22245-2.587783 3.048186-4.635783 2.762418-32.68862 0.095256-65.37724-0.127008-98.06586 0.095256 0.031752 3.85786 0.015876 7.731597 0 11.589458-83.237705 0.031752-166.475411-0.015876-249.69724 0.031752-30.48186 0.095256-60.836713-3.524465-90.778791-9.033427 15.225054 21.130915 30.64062 42.134822 45.976806 63.202233 1.301829 1.285953 1.444713 3.048186 1.000186 4.76279-7.017178 35.816186-13.796217 71.68-20.813395 107.512062-7.175938-4.762791-14.399504-9.462078-21.575442-14.224868-30.148465 25.988961-60.027039 52.295442-90.19138 78.284403 20.48 7.525209 41.102884 14.637643 61.59876 22.115225 4.207132 1.555845 8.779411 0.920806 13.177054 1.016062 68.80645-0.063504 137.612899 0.063504 206.419349-0.047628 2.254388 0.190512 5.032682-0.508031 6.842543 1.30183 34.038078 31.609054 67.82214 63.503876 102.018976 94.938294 10.827411-18.368496 22.051721-36.498853 32.815628-54.8991 132.183318-0.349271 264.366636-0.047628 396.549954-0.15876 14.002605 18.177984 27.84645 36.482977 41.690294 54.772093 26.131845-31.640806 51.406388-64.011907 77.220714-95.922605 77.300093 0.031752 154.58431-0.015876 231.884403 0.015876 4.381767-0.095256 8.954047 0.523907 13.177054-1.016062 20.495876-7.398202 41.023504-14.685271 61.551132-21.988217-29.957953-26.227101-60.042915-52.34307-90.127876-78.411411-7.191814 4.746915-14.383628 9.462078-21.559566 14.208992-7.001302-35.355783-13.621581-70.806822-20.591132-106.162604-0.111132-1.651101-1.127194-3.651473 0.07938-5.096186 15.47907-21.46431 31.212155-42.722233 46.659473-64.202419-33.577674 6.286884-67.726884 9.731969-101.923721 9.017551-90.778791-0.127008-181.573457 0.254016-272.352248-0.190512 0.047628-3.841984 0.063504-7.668093 0.063504-11.510078-36.673488 0.031752-73.331101-0.063504-109.988714 0.063504-25.052279-26.322357-49.644155-53.08924-74.680558-79.427473-23.972713 25.496806-47.945426 50.96186-71.743504 76.601551z" fill="#A52A2A" p-id="45395"></path><path d="M744.948093 369.687814c15.24093-16.256992 30.656496-32.339349 45.929178-48.564589 15.24093 16.241116 30.767628 32.228217 45.929179 48.564589-15.39969 16.018853-30.513612 32.307597-45.945055 48.294698-15.367938-16.034729-30.465984-32.323473-45.913302-48.294698m12.224496-0.031752c11.319566 11.748217 22.36924 23.75045 33.67293 35.498667 11.319566-11.779969 22.575628-23.607566 33.75231-35.546295-11.160806-11.938729-22.464496-23.75045-33.720558-35.593922-11.176682 11.938729-22.60738 23.623442-33.704682 35.64155z" fill="#A52A2A" p-id="45396"></path><path d="M788.654636 367.338171c0.333395-7.175938 0.444527-14.447132 2.270263-21.432559 1.666977 7.033054 1.96862 14.272496 2.222636 21.46431 7.175938 0.254016 14.431256 0.444527 21.448434 2.254388-7.017178 1.80986-14.304248 1.841612-21.480186 2.270264-0.206388 6.826667-0.460403 13.700961-1.905116 20.40062-2.825922-6.366264-1.857488-13.605705-2.587783-20.368868-7.001302-0.619163-14.208992-0.206388-20.940403-2.4449 6.858419-1.651101 13.954977-1.825736 20.972155-2.143255zM642.690977 406.631194c22.496248-0.015876 44.992496-0.031752 67.488744 0-2.810047 5.191442-3.953116 10.954419-3.318078 16.828527 27.068527-0.015876 54.121178 0.127008 81.189706-0.07938 0.365147 11.478326 0.412775 22.988403-0.015876 34.466729-27.052651-0.269891-54.105302 0-81.157954-0.142884 0 7.731597-0.015876 15.47907 0.031752 23.210667 4.556403 0.063504 9.128682 0.07938 13.700962 0.047628-0.015876-4.33414 0.15876-8.668279 0.333395-12.986543 16.812651 0.031752 33.641178 0 50.469705 0.015876-0.015876 4.302388 0.031752 8.588899 0.031752 12.907163 6.509147 0.07938 13.018295 0.063504 19.543318 0.063504 0.07938 9.430326 0.047628 18.860651 0.015876 28.290976-46.580093 0.142884-93.176062-0.317519-139.756155 0.222264-2.016248 4.810419-4.318264 9.477953-6.398015 14.25662 44.405085-0.111132 88.810171-0.047628 133.231131-0.047628 0 35.990822 0.063504 71.981643-0.031752 107.972465-53.692527 0.428651-107.432682-0.317519-161.141085 0.301644-0.174636-15.574326 0.095256-31.148651-0.127008-46.722977-19.749705 41.94431-38.594481 84.317271-58.201302 126.340961-1.524093-5.572465-1.778109-11.494202-3.841984-16.876155-19.749705-16.209364-40.324961-31.450295-60.058791-47.675535 13.050047-0.142884 26.100093-0.063504 39.166015-0.015876 21.257922-45.849798 42.388837-91.763101 63.40862-137.724031-14.050233-0.063504-28.100465-0.07938-42.134821 0.015876-0.07938-9.446202-0.047628-18.876527 0-28.322728 30.275473-0.07938 60.550946 0.095256 90.826418-0.07938-0.015876-7.731597-0.031752-15.463194-0.031752-23.194791-23.083659-0.031752-46.183194 0.222264-69.266852-0.127008-3.11169-11.414822-6.636155-22.68676-9.827225-34.085705 26.38586-0.063504 52.771721 0.031752 79.173457-0.031752 0.587411-5.858233-1.158946-11.46245-3.302201-16.828527m18.670139 140.978604c-0.047628 6.826667-0.063504 13.653333 0.015876 20.48 21.242047-0.142884 42.468217 0.047628 63.694388-0.079379-0.031752-6.763163-0.031752-13.51045-0.031752-20.257737-21.226171-0.365147-42.452341-0.07938-63.678512-0.142884m-0.031752 39.102512c0.015876 8.509519 0 17.003163-0.015876 25.512682 21.257922-0.047628 42.499969-0.015876 63.742016-0.015876-0.015876-8.509519 0.015876-17.019039-0.015876-25.512682-21.242047 0.031752-42.484093 0-63.710264 0.015876zM838.425798 411.536868c13.700961-0.047628 27.417798 0.174636 41.134636-0.111132 1.698729 3.953116 3.254574 7.985612 4.731039 12.033985 26.909767 0.015876 53.819535 0.047628 80.729302-0.015876 0.857302-3.968992 1.80986-7.922109 2.730667-11.875225 13.780341-0.015876 27.560682-0.031752 41.356899 0-0.968434 3.953116-1.857488 7.922109-2.841798 11.859349 10.843287 0.015876 21.686574 0.190512 32.52986-0.111132 0.635039 9.874853 0.523907 19.829085 0.047628 29.719814-13.145302-0.23814-26.290605-0.063504-39.435907-0.127008-0.682667 2.651287-1.349457 5.302574-2.000372 7.953861-13.764465 0.015876-27.513054 0-41.261643 0.031752 0.650915-2.556031 1.317705-5.096186 2.016248-7.636341-21.003907-0.793798-42.055442-0.127008-63.059349-0.333396 0.920806 2.635411 1.841612 5.270822 2.778294 7.922109-13.685085 0.111132-27.354295-0.111132-41.023504 0.111132-1.14307-2.635411-2.190884-5.302574-3.175193-7.985613-14.590016-0.142884-29.180031-0.015876-43.770047-0.047628 0.015876-9.827225 0.015876-19.638574 0-29.449922 10.986171-0.031752 21.988217 0.07938 32.974388-0.063504-1.492341-3.953116-2.937054-7.937984-4.461148-11.875225zM1071.627907 416.585426c11.986357 0.015876 23.988589 0.015876 36.006698 0.015876 4.572279 30.227845 8.922295 60.503318 13.478697 90.747039 9.985984-0.031752 19.987845-0.111132 29.97383 0.031752 0.746171 7.445829 1.730481 14.859907 2.508403 22.305736-3.826109 0-7.652217 0-11.46245 0.015876 4.572279 30.275473 9.01755 60.582698 13.58983 90.858171 5.31845-0.015876 10.636899 0.047628 15.955349 0.063504 0.698543 3.762605 1.397085 7.525209 2.143255 11.287814-15.510822 0.031752-31.005767-0.174636-46.500713-0.15876-4.699287-31.228031-9.223938-62.471938-13.796217-93.715845-0.698543-3.635597 0.015876-10.367008-5.794729-8.430139 2.159132 34.117457 4.286512 68.250791 6.080497 102.384124-11.256062-0.571535-22.496248 0.23814-33.736435-0.222264-2.714791-3.492713-5.524837-6.890171-8.303131-10.31938 2.746543-0.015876 5.493085 0 8.255504 0-2.016248-30.577116-3.984868-61.154233-5.937613-91.731349-3.968992-0.015876-7.922109-0.031752-11.875225-0.031752-1.698729-7.414078-3.159318-14.875783-4.826294-22.28986 11.811721-0.365147 23.639318 0.333395 35.451039-0.349271-4.381767-27.52893-7.906233-55.200744-12.272124-82.713799-2.190884-3.27045-6.06462-5.096186-8.938171-7.747473zM1146.165581 416.521922c21.62307 0.15876 43.262016 0.095256 64.885086 0.031752 2.794171 26.560496 5.794729 53.105116 8.239628 79.713241-9.208062-0.142884-18.416124 0.23814-27.608311-0.23814-1.841612-19.892589-4.286512-39.721674-6.286883-59.598387-13.161178-0.412775-26.322357-0.047628-39.483535-0.206388 0.015876-6.572651-0.23814-13.145302 0.254015-19.702078zM1219.369674 416.56955c27.179659 0.095256 54.375194-0.031752 81.570729 0.063504-4.524651 6.366264-9.557333 12.351504-14.431256 18.432 1.952744 20.368868 4.080124 40.72186 6.398016 61.043101-9.208062 0.317519-18.416124 0.047628-27.60831 0.15876-2.397271-19.987845-4.397643-40.007442-6.572651-60.027039-13.145302 0-26.306481 0.047628-39.467659-0.015876-0.174636-6.556775-0.206388-13.097674 0.111131-19.65445z" fill="#A52A2A" p-id="45397"></path><path d="M315.534884 423.491473c77.411225-0.047628 154.82245 0.015876 232.233674-0.031752 3.762605 10.827411 7.271194 21.718326 10.938543 32.577488-29.81507 0.174636-59.63014-0.301643-89.429334 0.222264-2.698915 17.431814-5.889984 34.784248-8.795286 52.18431 23.099535 0.111132 46.19907 0.031752 69.298604 0.047628-0.968434 10.621023-1.88924 21.242047-2.95293 31.86307-23.940961 0.047628-47.881922-0.047628-71.83876 0.047628-3.460961 20.670512-7.033054 41.309271-10.557519 61.963907 29.291163 0.142884 58.56645 0.111132 87.857612 0.031751-4.000744 10.017736-8.652403 19.781457-13.145302 29.608683-88.254512-0.492155-176.524899-0.317519-264.795287-0.07938 14.034357-14.796403 28.497364-29.164155 42.595225-43.881179 1.270078 4.873922 2.413147 9.795473 4.096 14.558264 26.624-0.428651 53.263876 0.063504 79.903752-0.254015 3.318078-20.686388 6.96955-41.309271 10.541643-61.963907-23.575814-0.127008-47.135752 0.142884-70.69569-0.142884 2.270264-10.557519 4.381767-21.146791 6.493272-31.751938 23.210667-0.031752 46.421333 0.07938 69.647876-0.063504 2.937054-17.463566 5.937612-34.927132 8.93817-52.390698-24.718884-0.015876-49.437767 0.063504-74.156651-0.031752 0.412775-2.587783 0.857302-5.143814 1.30183-7.715721-5.889984-8.223752-11.779969-16.447504-17.479442-24.798263zM1052.767256 438.224372c7.096558 0.111132 14.208992 0.031752 21.321426 0.063504 2.20676 19.321054 4.508775 38.626233 6.652031 57.947287-6.239256 0.031752-12.44676 0-18.670139 0.047628-2.111504-16.653891-3.381581-33.387163-5.31845-50.056931-0.254016-3.095814-2.429023-5.477209-3.984868-8.001488zM1118.36676 438.240248c7.112434 0.127008 14.240744 0.015876 21.369054 0.07938 2.143256 19.321054 4.588155 38.594481 6.509147 57.931411-6.22338 0-12.415008 0-18.622511 0.015876-1.936868-16.717395-3.445085-33.482419-5.23907-50.199814-0.333395-3.03231-2.508403-5.350202-4.01662-7.826853zM1151.341147 448.226233c8.747659-0.031752 17.495318 0.047628 26.242977-0.047628 0.047628 4.556403 0.063504 9.112806 0.015876 13.669209-8.763535-0.063504-17.511194-0.031752-26.258853-0.015876-0.095256-4.540527-0.095256-9.065178 0-13.605705zM1222.243225 448.099225c8.779411 0.460403 17.60645-0.412775 26.369984 0.508031-0.222264 4.397643-0.254016 8.827039-0.238139 13.240558-8.779411-0.031752-17.542946-0.095256-26.322357 0.047628-0.127008-4.604031-0.142884-9.208062 0.190512-13.796217zM1156.675473 476.421953c8.842915-0.095256 17.701705 0.063504 26.560496-0.063503-0.015876 4.413519 0.015876 8.842915 0.222264 13.256434-8.890543 0.857302-17.844589 0.142884-26.751008 0.396899 0-4.540527-0.015876-9.065178-0.031752-13.58983zM1230.292341 476.469581c8.811163-0.095256 17.638202-0.111132 26.449364-0.079379-0.015876 4.524651-0.015876 9.065178 0.015876 13.589829-8.779411 0.031752-17.558822 0.031752-26.338232 0.031752-0.174636-4.508775-0.222264-9.033426-0.127008-13.542202zM806.340465 477.42214c79.872-0.111132 159.759876-0.015876 239.647752-0.047628 0.031752 13.542202-0.015876 27.068527 0.015876 40.594852-17.971597 0.015876-35.927318 0.063504-53.883039-0.015876 0-4.953302-0.063504-9.922481-0.031752-14.859907-46.834109 0.047628-93.684093-0.174636-140.518201 0.095256 0.063504 4.937426 0 9.858977 0 14.796403-15.066295 0-30.148465 0.031752-45.230636-0.031752-0.095256-13.51045-0.07938-27.020899 0-40.531348zM1174.345426 505.760744c9.684341-0.333395 19.368682-0.047628 29.0689-0.174635 0 3.540341-0.063504 7.080682-0.206388 10.636899 8.128496-0.015876 16.256992 0 24.385488 0-0.555659-3.540341-1.06369-7.064806-1.571721-10.605148 11.271938-0.031752 22.559752 0.031752 33.847566-0.031751 0.587411 3.556217 1.238326 7.112434 1.873365 10.668651 12.859535-0.047628 25.734946-0.07938 38.59448 0.015876 1.349457 7.160062 2.667163 14.336 4.000744 21.511938-13.050047-0.015876-26.100093-0.047628-39.150139 0.015876 0.460403 3.127566 0.98431 6.255132 1.539969 9.382697 12.383256-0.07938 24.782388 0 37.181519-0.063504 0.968434 7.191814 1.841612 14.399504 2.524279 21.62307-12.097488 0.07938-24.163225-0.031752-36.244837 0.047628 0.571535 4.000744 1.22245 8.001488 1.936868 11.986357 12.589643 0.095256 25.195163-0.031752 37.784807 0.047628 1.555845 7.175938 3.095814 14.351876 4.619907 21.54369-12.986543 0.222264-25.973085-0.015876-38.959628 0.127007 0.571535 3.397457 1.127194 6.810791 1.555845 10.255876 18.241488 0.698543 36.530605 0.15876 54.803845 0.269892 1.492341-4.461147 3.127566-8.874667 4.746914-13.288186 8.207876 10.732155 16.574512 21.337302 24.607752 32.212341-59.820651-0.365147-119.657178-0.23814-179.477829-0.063504-3.397457-28.290977-7.064806-56.550202-10.176496-84.87293-4.25476 0.174636-8.493643 0.301643-12.716652 0.508031-0.349271-2.349643-0.698543-4.699287-1.079565-7.048931 10.970295-7.842729 17.860465-21.099163 16.511007-34.704868m26.671628 32.02183c0.476279 3.11169 0.968434 6.239256 1.412962 9.366821 9.906605-0.015876 19.797333 0.015876 29.703937-0.015876-0.460403-3.127566-0.90493-6.255132-1.349457-9.366821-9.922481 0.015876-19.844961-0.047628-29.767442 0.015876m4.588155 30.974015c0.587411 4.000744 1.158946 8.001488 1.730481 12.002233 9.954233 0.095256 19.908465 0.047628 29.878574 0.031752-0.619163-4.01662-1.206574-8.017364-1.793985-12.033985-9.938357 0.015876-19.876713-0.015876-29.81507 0m4.889799 33.720558c0.523907 3.445085 1.06369 6.906047 1.524093 10.367008 9.985984 0.476279 19.987845 0.095256 30.005581 0.190512-0.539783-3.508589-1.06369-7.017178-1.539969-10.525768-10.00186-0.111132-19.987845-0.07938-29.989705-0.031752z" fill="#A52A2A" p-id="45398"></path><path d="M894.563225 514.984682c20.575256 0.015876 41.166388 0 61.757519 0.015876-0.063504 4.207132-0.031752 8.414264 0 12.637271 29.862698-0.031752 59.741271 0.015876 89.603969-0.031751 0.127008 9.620837 0.031752 19.225798 0.095256 28.862511-29.910326 0.127008-59.820651-0.015876-89.730977 0.047628 0 25.147535 0.047628 50.310946-0.015876 75.458481-20.591132-0.555659-41.19814-0.047628-61.789271-0.174636 0.095256-25.084031 0-50.183938 0.063504-75.283845-29.354667 0-58.709333-0.047628-88.048124 0.047628-0.365147-9.636713-0.23814-19.289302-0.07938-28.926016 29.370543-0.047628 58.741085 0.047628 88.111628-0.047627-0.015876-4.207132 0.015876-8.398388 0.031752-12.60552z" fill="#A52A2A" p-id="45399"></path><path d="M833.869395 561.183752c16.558636 0.07938 33.117271-0.07938 49.675907 0.07938-8.382512 23.464682-16.54276 47.02462-24.814139 70.53693-20.702264-0.222264-41.404527 0.365147-62.090915 0.047628 4.127752-2.476651 8.398388-4.667535 12.764279-6.683783 8.382512-21.242047 16.256992-42.690481 24.464868-63.980155zM962.004341 561.152c16.828527 0.047628 33.67293 0.095256 50.517333-0.015876 18.574884 29.624558 36.355969 59.788899 54.899101 89.429333 8.319008 1.746357 17.352434 0.15876 25.957209 0.714419-16.034729 14.986915-32.593364 29.465798-48.516961 44.563845-2.429023 4.953302-3.254574 10.525767-5.223194 15.669581-25.941333-50.088682-51.787411-100.224992-77.633488-150.361302zM471.579783 667.266977c9.382698 8.684155 18.781271 17.36831 28.036961 26.195349-2.413147 4.143628-4.413519 8.509519-6.128124 13.002418-8.096744-12.589643-15.780713-25.528558-21.908837-39.197767zM621.956961 707.496682c18.130357-0.349271 36.260713-0.031752 54.39107-0.174635 3.318078-0.428651 6.128124 1.508217 8.906419 2.984682 28.83076 15.828341 61.28124 24.766512 94.065116 26.766883-0.333395 78.982946 0.730295 158.029395-0.523907 236.964714-5.524837-28.354481-16.082357-56.12155-33.244279-79.538605-14.113736-19.225798-33.879318-34.97476-57.089985-41.420403-73.362853-22.083473-139.057612-68.80645-184.018356-130.833861 7.429953 0.031752 14.907535-0.952558 21.686573-4.159504 19.368682 17.955721 38.562729 36.101953 57.994915 53.994171 2.889426-4.873922 5.794729-9.747845 8.747659-14.590015 44.81786 36.149581 100.701271 68.790574 160.490171 59.915907-0.063504-12.176868-0.968434-24.306109-1.206574-36.467101-12.430884 19.209922-41.182264 27.862326-59.963535 12.780155-7.731597-4.683411-9.17631-15.701333-18.35262-18.177985-23.178915-10.922667-44.738481-24.957023-65.61538-39.73755 1.555845 5.762977 3.667349 11.367194 5.889985 16.923783-4.318264-3.095814-8.398388-6.461519-12.383256-9.954233 3.683225-6.207504 7.398202-12.383256 11.113178-18.574883 18.892403 15.621953 39.674047 28.846636 61.455876 40.070945-1.714605-6.366264-3.159318-12.811907-4.238884-19.305178-16.193488-8.700031-31.228031-19.448062-44.881364-31.751938-1.412961-1.651101-4.365891-3.016434-3.222822-5.715349m58.741086 42.753985c3.222822 10.668651 7.334698 21.194419 13.288186 30.656496 5.016806 8.144372 15.606078 11.748217 24.687131 9.033426 11.970481-3.318078 21.781829-12.44676 28.354481-22.702636-22.924899-1.460589-45.437023-7.525209-66.329798-16.987286m-5.762977 73.743876c15.494946 10.605147 33.799938 16.241116 49.517147 26.512868 10.827411 6.779039 20.892775 14.701147 31.116899 22.353364-0.381023-13.827969-1.047814-27.655938-1.412961-41.483907-26.576372 2.619535-53.740155 0.968434-79.221085-7.382325zM901.231132 709.211287c2.079752-1.238326 4.365891-2.159132 6.858418-1.905116 28.59262 0.063504 57.201116 0.047628 85.793737 0.015876 3.683225-0.254016 7.064806 1.571721 10.033612 3.556217 9.620837 10.16062 17.495318 24.131473 13.637458 38.59448 3.016434-3.079938 6.096372-6.080496 9.112806-9.160434 5.921736 7.810977 11.827597 15.653705 17.812837 23.448806-62.710078 63.535628-150.154915 101.939597-239.45724 104.495628-0.333395-43.722419-0.381023-87.476589 0.031752-131.199008 33.59355-1.936868 66.806078-11.367194 96.17662-27.846449m52.358946 12.653147c-10.525767 6.048744-15.304434 17.765209-21.813582 27.401923-10.224124 16.272868-23.75045 30.862884-40.80124 40.055069-20.083101 11.081426-43.484279 14.336-66.155163 13.462822 0.047628 12.319752-0.174636 24.65538 0.142884 36.975132 19.749705-3.127566 39.277147-7.572837 58.344186-13.621582 5.762977-15.082171 17.939845-26.369984 29.227659-37.419658 24.480744-23.623442 52.930481-42.515845 78.332031-65.075597-0.793798-1.301829-1.571721-2.619535-2.333768-3.905489-11.494202-1.857488-24.290233-3.905488-34.943007 2.12738m-59.534884 18.209737c8.207876 21.686574-9.271566 41.372775-27.52893 50.374449 31.339163-10.684527 63.440372-35.197023 65.631255-70.838573-12.256248 7.620465-24.957023 14.526512-38.102325 20.464124m32.434604 49.945798c-6.667907 5.286698-11.097302 14.510636-7.175938 22.782015 24.036217-4.92155 41.579163-23.448806 59.439628-38.864372 11.46245-10.351132 26.084217-25.734946 17.098419-42.230077-22.258109 20.432372-45.96093 39.213643-69.362109 58.312434m-88.508527-32.561612c-0.746171 9.843101-5.969364 18.59076-13.19293 25.084031 0.015876 3.476837 0.015876 6.937798 0.031752 10.430511 17.177798-2.492527 35.133519-5.477209 49.961674-15.018666 10.716279-7.20769 11.081426-21.908837 7.160062-33.00614-14.240744 5.493085-28.989519 9.604961-43.960558 12.510264z" fill="#A52A2A" p-id="45400"></path></svg>
