<?xml version="1.0" standalone="no"?><!DOCTYPE svg PUBLIC "-//W3C//DTD SVG 1.1//EN" "http://www.w3.org/Graphics/SVG/1.1/DTD/svg11.dtd"><svg t="1784019704879" class="icon" viewBox="0 0 1027 1024" version="1.1" xmlns="http://www.w3.org/2000/svg" p-id="48327" xmlns:xlink="http://www.w3.org/1999/xlink" width="200.5859375" height="200"><path d="M1024 513.595016v497.644859c0 11.165109-2.392523 12.760125-12.760125 12.760125H15.950156c-11.165109 0-12.760125-2.392523-12.760125-12.760125V15.950156C3.190031 4.785047 5.582555 3.190031 15.950156 3.190031h995.289719c11.165109 0 12.760125 2.392523 12.760125 12.760125v497.64486z" fill="#FFFFFF" p-id="48328"></path><path d="M561.445483 133.981308c-29.507788 7.17757-59.015576 13.557632-86.928349 24.722742-101.283489 41.470405-158.70405 118.031153-184.224299 222.504673-13.557632 55.028037-12.760125 110.853583-7.17757 165.88162 1.595016 16.747664 3.987539 33.495327 0 51.040498-7.975078 33.495327-34.292835 55.825545-66.990654 57.420561-34.292835 1.595016-63.003115-19.140187-72.573209-52.635514-27.115265-94.105919-17.545171-185.819315 28.71028-271.950156 62.205607-115.638629 161.096573-183.426791 293.482866-200.971963 24.722741-3.190031 48.647975-3.987539 73.370717-2.392523 7.17757 0.797508 15.152648 0.797508 22.330218 6.380062z" fill="#F5CC1F" p-id="48329"></path><path d="M814.255452 736.897196c5.582555-20.735202 11.962617-39.875389 15.950155-59.015576 26.317757-125.208723-15.152648-226.492212-110.853582-307.838006-39.875389-34.292835-86.130841-57.420561-133.981308-78.953271-10.367601-4.785047-21.53271-9.570093-31.102804-15.152648-32.697819-18.342679-45.457944-51.838006-33.495327-85.333334 11.962617-33.495327 43.065421-52.635514 78.953271-47.052959 63.003115 9.570093 117.233645 39.875389 165.084112 81.345794 141.158879 124.411215 169.869159 338.94081 66.990654 493.657321-3.987539 5.582555-7.17757 14.35514-17.545171 18.342679z" fill="#3EAA4A" p-id="48330"></path><path d="M164.286604 663.52648c1.595016 1.595016 3.190031 2.392523 4.785047 3.987539 112.448598 133.183801 267.165109 149.133956 415.501558 69.383177 35.090343-19.140187 66.193146-43.862928 98.890965-66.193146 32.697819-22.330218 66.990654-20.735202 92.510904 2.392523 31.900312 29.507788 32.697819 74.168224 2.392523 106.068536-154.716511 164.286604-429.856698 149.931464-568.623053-30.305296-19.140187-26.317757-35.88785-53.433022-45.457944-85.333333z" fill="#DD2525" p-id="48331"></path><path d="M517.582555 344.523364c74.168224 0.797508 115.638629 43.065421 119.626168 123.613708 0.797508 9.570093 2.392523 18.342679 7.975078 27.115264 11.165109 19.140187 19.140187 39.077882 23.925233 60.610592 1.595016 6.380062 3.987539 13.557632-1.595015 18.342679-6.380062 5.582555-12.760125 0.797508-19.140187-1.595015-3.987539-1.595016-7.17757-3.987539-10.367601-7.17757-4.785047-3.987539-7.17757-3.190031-9.570094 2.392523-1.595016 4.785047-3.987539 9.570093-7.17757 14.35514-6.380062 10.367601-10.367601 16.747664 5.582554 23.925234 17.545171 8.772586 15.152648 25.520249-3.190031 32.697819-28.71028 11.962617-59.015576 13.557632-88.523364 2.392524-13.557632-4.785047-24.722741-4.785047-38.280374 0-27.912773 10.367601-56.623053 8.772586-84.535826-0.797508-8.772586-3.190031-17.545171-7.17757-17.545171-18.342679-0.797508-10.367601 6.380062-15.950156 14.35514-19.140187 11.962617-3.987539 9.570093-10.367601 4.785047-17.545171-1.595016-2.392523-3.190031-5.582555-4.785047-8.772586-4.785047-11.962617-9.570093-19.140187-22.330218-6.380062-4.785047 4.785047-13.557632 7.975078-20.735202 3.190031-5.582555-3.987539-2.392523-11.962617-0.797508-18.342679 3.987539-16.747664 7.975078-35.090343 17.545171-49.445483 11.165109-16.747664 13.557632-35.090343 15.152648-53.433022 7.17757-70.978193 49.445483-108.461059 119.626169-107.663552z" fill="#1288B7" p-id="48332"></path></svg>