<?xml version="1.0" standalone="no"?><!DOCTYPE svg PUBLIC "-//W3C//DTD SVG 1.1//EN" "http://www.w3.org/Graphics/SVG/1.1/DTD/svg11.dtd"><svg t="1784019855962" class="icon" viewBox="0 0 1024 1024" version="1.1" xmlns="http://www.w3.org/2000/svg" p-id="61465" xmlns:xlink="http://www.w3.org/1999/xlink" width="200" height="200"><path d="M496.809 411.441c5.959 0 9.668-5.648 9.668-14.647 0-8.938-3.709-14.213-9.668-14.213s-9.607 5.276-9.607 14.213c0 8.999 3.648 14.647 9.607 14.647zM313.988 397.042c-1.216-4.593-2.371-10.117-3.587-14.834h-0.243c-1.095 4.841-2.311 10.241-3.466 14.834l-0.973 3.91h9.242l-0.973-3.91zM549.598 388.477c0-4.345-2.736-5.772-7.904-5.772h-4.864v12.413h4.864c5.168 0 7.904-2.297 7.904-6.641zM606.402 388.973c0-4.655-2.918-6.269-8.148-6.269h-4.439v13.344h4.743c5.291 0.001 7.844-2.544 7.844-7.075zM681.332 397.042c-1.216-4.593-2.371-10.117-3.587-14.834h-0.243c-1.094 4.841-2.31 10.241-3.466 14.834l-0.973 3.91h9.242l-0.973-3.91z" fill="#F5B54F" p-id="61466"></path><path d="M1024 501.896v-28.444h-33.616v-51.717H804.202V362.26H219.798v59.475H28.444v51.717H0v28.444h28.444v113.778H0v28.444h28.444v46.545h961.939v-46.545H1024v-28.444h-33.616V501.896H1024zM743.737 373.953h28.699v9.186H754.62v8.565h15.14v9.31h-15.14v9.806h18.484v9.31h-29.368v-46.177z m-21.049-0.869c5.898 0 10.641 2.793 13.742 6.02l-5.716 7.076c-2.25-2.11-4.621-3.6-7.844-3.6-5.837 0-10.641 5.338-10.641 14.337 0 9.186 4.135 14.523 10.519 14.523 3.587 0 6.506-1.862 8.634-4.22l5.715 6.951c-3.831 4.531-8.877 6.827-14.775 6.827-11.492 0-21.22-8.068-21.22-23.709 0.001-15.391 10.095-24.205 21.586-24.205z m-51.327 0.869h13.012l14.046 46.177h-11.431l-2.615-10.613h-13.377l-2.615 10.613h-11.066l14.046-46.177z m-46.646 0h28.699v9.186h-17.815v8.565h15.14v9.31h-15.14v9.806h18.484v9.31h-29.368v-46.177z m-41.783 0h15.87c9.972 0 18.18 3.6 18.18 15.02 0 10.986-8.33 15.827-17.876 15.827h-5.29v15.33h-10.884v-46.177z m-56.986 0h16.599c9.668 0 17.694 3.352 17.694 14.523 0 6.765-3.101 11.11-7.783 13.344l10.093 18.31h-12.161l-8.33-16.261h-5.229v16.261h-10.884v-46.177z m-29.137-0.869c12.343 0 20.734 8.627 20.734 23.709 0 15.144-8.391 24.206-20.734 24.206-12.343 0-20.734-9.062-20.734-24.206s8.39-23.709 20.734-23.709z m-55.401 0.869h28.882v9.186h-17.998v10.117h15.444v9.248h-15.444v17.627h-10.884v-46.178z m-52.243 0h28.699v9.186h-17.815v8.565h15.14v9.31h-15.14v9.806h18.484v9.31h-29.368v-46.177z m-53.338 0h11.735l7.175 19.923c0.912 2.669 1.642 5.586 2.493 8.441h0.304c0.912-2.855 1.642-5.772 2.493-8.441l6.932-19.923h11.796v46.177h-9.911v-15.827c0-4.593 0.851-11.482 1.399-16.013H370l-3.77 11.048-6.08 16.882h-5.959l-6.141-16.882-3.65-11.048h-0.243c0.547 4.531 1.398 11.42 1.398 16.013v15.827h-9.729v-46.177z m-31.81 0h13.012l14.046 46.177h-11.431l-2.615-10.613h-13.377l-2.615 10.613h-11.066l14.046-46.177z m-32.723-0.869c6.628 0 11.37 2.855 14.471 6.02l-5.776 7.076c-2.189-2.048-4.56-3.6-8.33-3.6-6.688 0-11.492 5.338-11.492 14.337 0 9.186 4.013 14.523 12.404 14.523 1.642 0 3.344-0.434 4.317-1.179v-7.448h-7.175v-9.062h16.842v21.599c-3.162 3.103-8.756 5.648-15.079 5.648-12.586 0-22.436-8.068-22.436-23.709-0.001-15.391 10.154-24.205 22.254-24.205z m703.575 299.479H49.131V439.836h925.737v232.727z" fill="#F5B54F" p-id="61467"></path><path d="M413.737 486.381h69.819v-23.272H318.061v23.272h72.404v80.162h-85.334v23.273h85.334v59.474h23.272v-59.474h80.162v-23.273h-80.162z" fill="#F5B54F" p-id="61468"></path><path d="M348.029 499.311h-24.093l14.55 54.303h24.094zM465.716 553.614l14.55-54.303h-24.093l-14.551 54.303zM602.505 530.341h-23.273v-67.232H555.96v67.232h-25.859v20.687h25.859v98.262h23.272v-98.262h23.273zM677.495 463.109h-23.273v7.757h-38.788v15.515h38.788v12.93h-38.788v15.515h38.788v15.515h-38.788v15.515H716.283v-15.515h-38.788v-15.515h38.788v-15.515h-38.788v-12.93h38.788v-15.515h-38.788z" fill="#F5B54F" p-id="61469"></path><path d="M591.176 517.95l3.534-50.293 11.327 0.796-3.534 50.292zM530.086 647.921l11.82 1.369 3.686-86.582-11.82-1.369zM589.6 562.708l3.686 86.582 11.82-1.369-3.687-86.582zM545.631 519.192l-3.686-50.931-11.82 0.806 3.686 50.93zM687.838 556.2H618.02v93.091h23.273v-31.03h46.545v31.03h23.273V556.2h-23.273z m0 51.717h-46.545v-10.343h46.545v10.343z m0-20.687h-46.545v-10.343h46.545v10.343zM917.98 548.442v-23.273h-62.061V512.24h-23.273v12.929h-62.061v51.717h-18.101v23.273h60.065l-30.119 23.273h-29.946v23.273h36.202v-1.403l1.089 1.403 55.113-42.584 54.991 42.584h36.202v-23.273h-28.245l-30.053-23.273h58.297v-23.273h-18.1v-28.444z m-85.334 28.444h-38.788v-28.444h38.788v28.444z m62.061 0h-38.788v-28.444h38.788v28.444z" fill="#F5B54F" p-id="61470"></path><path d="M902.465 478.624v-15.515h-23.273v15.515H811.96v-15.515h-23.273v15.515h-36.202v23.272h36.202v12.93h23.273v-12.93h67.232v12.93h23.273v-12.93h33.616v-23.272zM147.394 486.381h33.616v-23.272H90.505v23.272h33.616v20.687H85.333v23.273h38.788V649.29h23.273V530.341h41.374v-23.273h-41.374z" fill="#F5B54F" p-id="61471"></path><path d="M86.904 649.29h16.274l7.143-100.848H94.048zM161.194 548.442l7.143 100.848h16.274l-7.143-100.848zM196.525 636.361h80.162V470.866h-80.162v165.495z m18.101-147.394h43.96l-7.758 33.616 10.343 2.586s4.179 1.823 2.586 7.758c-1.593 5.935-36.202 93.091-36.202 93.091l-5.172-64.646-10.343-2.586 2.586-69.819z" fill="#F5B54F" p-id="61472"></path></svg>