<?xml version="1.0" standalone="no"?><!DOCTYPE svg PUBLIC "-//W3C//DTD SVG 1.1//EN" "http://www.w3.org/Graphics/SVG/1.1/DTD/svg11.dtd"><svg t="1784019899318" class="icon" viewBox="0 0 1024 1024" version="1.1" xmlns="http://www.w3.org/2000/svg" p-id="66746" xmlns:xlink="http://www.w3.org/1999/xlink" width="200" height="200"><path d="M832 96H192c-70.4 0-128 57.6-128 128v448c0 70.4 57.6 128 128 128h640c70.4 0 128-57.6 128-128V224c0-70.4-57.6-128-128-128z m64 576c0 17-6.7 33-18.9 45.1C865 729.3 849 736 832 736H192c-17 0-33-6.7-45.1-18.9C134.7 705 128 689 128 672V224c0-17 6.7-33 18.9-45.1C159 166.7 175 160 192 160h640c17 0 33 6.7 45.1 18.9C889.3 191 896 207 896 224v448z" fill="#1875F0" p-id="66747"></path><path d="M768 224H256c-35.2 0-64 28.8-64 64v320c0 35.2 28.8 64 64 64h512c35.2 0 64-28.8 64-64V288c0-35.2-28.8-64-64-64z m0 383.9l-511.9 0.1-0.1-0.1V288.1l0.1-0.1h511.8l0.1 0.1v319.8zM672 864H352c-17.6 0-32 14.4-32 32s14.4 32 32 32h320c17.6 0 32-14.4 32-32s-14.4-32-32-32z" fill="#1875F0" p-id="66748"></path></svg>