<?xml version="1.0" standalone="no"?><!DOCTYPE svg PUBLIC "-//W3C//DTD SVG 1.1//EN" "http://www.w3.org/Graphics/SVG/1.1/DTD/svg11.dtd"><svg t="1784019799718" class="icon" viewBox="0 0 1024 1024" version="1.1" xmlns="http://www.w3.org/2000/svg" p-id="58264" xmlns:xlink="http://www.w3.org/1999/xlink" width="200" height="200"><path d="M917.333333 855.893333S519.68 999.68 421.546667 1024c0-8.106667-13.226667-539.733333-13.226667-539.733333a139.093333 139.093333 0 0 0 21.333333-5.12c34.56-10.666667 416-98.56 482.133334-114.346667 5.546667 23.466667 5.546667 491.093333 5.546666 491.093333z m-273.066666-279.04l-4.266667-2.56v-29.44a52.906667 52.906667 0 0 0-58.453333-53.333333 66.986667 66.986667 0 0 0-58.453334 69.12c0 53.333333 0 106.24 2.56 157.013333 2.56 39.68 0 79.786667 2.56 122.453334s26.453333 69.12 63.573334 64a60.586667 60.586667 0 0 0 52.906666-61.013334v-53.333333c0-21.333333 0-23.893333 21.333334-10.666667 34.56 18.773333 66.133333 39.68 100.693333 55.893334a58.026667 58.026667 0 0 0 82.346667-61.013334c-2.56-26.453333-23.893333-34.56-42.666667-45.226666l-71.68-39.68c-15.786667-8.106667-15.786667-18.773333-2.56-29.44 15.786667-18.773333 34.56-37.12 50.346667-55.893334s34.56-37.12 47.786666-55.893333a53.333333 53.333333 0 0 0-32-85.333333 64.426667 64.426667 0 0 0-68.693333 26.453333 878.08 878.08 0 0 0-85.333333 87.893333z" fill="#FDF09F" p-id="58265"></path><path d="M230.826667 656.64s32-5.12 37.12-13.226667c34.56-39.68 68.693333-77.226667 103.253333-116.906666a512 512 0 0 1 34.56-45.226667c10.666667-8.106667 8.106667 0 8.106667 10.666667s5.12 469.333333 8.106666 526.506666c-8.106667 5.12-256-191.573333-256-191.573333s-15.786667-209.92-15.786666-213.333333 18.346667 8.106667 26.453333 10.666666c18.346667 10.666667 37.12 23.893333 55.466667 34.56z m15.786666-244.48a541.013333 541.013333 0 0 0-82.346666-34.56c-8.106667-2.56-18.346667-2.56-21.333334-15.786667C201.813333 351.146667 256 341.333333 315.733333 332.373333c47.786667-8.106667 92.586667-18.773333 140.373334-23.893333 0 26.453333 5.12 53.333333 29.013333 64a102.826667 102.826667 0 0 0 103.253333-10.666667 88.32 88.32 0 0 0 37.12-82.346666l18.346667-2.56c0 29.44 0 125.013333-2.56 148.906666-47.786667 13.226667-220.16 53.333333-222.72 53.333334-52.906667-23.893333-119.04-45.226667-170.666667-66.56z" fill="#FCB22D" p-id="58266"></path><path d="M622.933333 282.026667a78.933333 78.933333 0 0 1-37.12 82.346666 92.586667 92.586667 0 0 1-103.253333 10.666667 57.173333 57.173333 0 0 1-29.013333-64 108.8 108.8 0 0 1 90.026666-77.226667c13.226667-2.56 5.12-8.106667 0-13.226666-23.893333-23.893333-45.226667-47.786667-68.693333-74.24a264.533333 264.533333 0 0 1-26.453333-29.44 33.706667 33.706667 0 0 1 2.56-53.333334 109.226667 109.226667 0 0 1 29.013333-18.773333A189.866667 189.866667 0 0 0 554.666667 0a124.586667 124.586667 0 0 1 5.12 42.666667c0 42.666667-10.666667 55.893333-50.346667 64-18.346667 5.12-15.786667 10.666667-8.106667 23.893333C538.453333 170.666667 570.026667 213.333333 604.586667 256a95.573333 95.573333 0 0 1 18.346666 26.453333z" fill="#0994CD" p-id="58267"></path><path d="M640 426.666667c0-53.333333 2.56-111.786667 2.56-148.906667 26.453333 2.56 209.493333 64 273.066667 82.346667 1.706667 6.826667-223.573333 54.613333-275.626667 66.56z" fill="#FA7A33" p-id="58268"></path><path d="M286.293333 231.253333c5.12-39.68 10.666667-77.226667 15.786667-114.346666 2.56-29.44 15.786667-37.12 45.226667-29.44a128 128 0 0 1 29.013333 10.666666 128 128 0 0 0 52.906667 18.773334C392.533333 162.133333 384 164.693333 331.52 138.24l-21.333333 98.56c-2.56 10.666667-5.12 23.893333-8.106667 34.56A54.613333 54.613333 0 0 1 238.933333 316.586667 75.093333 75.093333 0 0 1 170.666667 263.253333 49.493333 49.493333 0 0 1 213.333333 204.8a78.08 78.08 0 0 1 72.96 26.453333z" fill="#0994CD" p-id="58269"></path><path d="M917.333333 462.506667V361.386667c21.333333 32 44.8 65.28 64 101.12z" fill="#FCB22D" p-id="58270"></path><path d="M644.266667 576.853333c26.453333-32 55.466667-61.013333 82.346666-93.013333a64.426667 64.426667 0 0 1 68.693334-26.453333 53.333333 53.333333 0 0 1 32 85.333333A481.28 481.28 0 0 1 779.52 597.333333a477.013333 477.013333 0 0 1-50.346667 53.333334c-10.666667 13.226667-10.666667 21.333333 2.56 29.44l71.68 39.68c18.346667 10.666667 39.68 21.333333 42.666667 45.226666a57.173333 57.173333 0 0 1-82.346667 61.013334c-34.56-15.786667-68.693333-37.12-100.693333-55.893334-21.333333-10.666667-21.333333-10.666667-21.333333 10.666667v53.333333A63.146667 63.146667 0 0 1 588.8 896c-39.68 5.12-63.573333-18.773333-63.573333-64s0-79.786667-2.56-119.466667c-2.56-53.333333-2.56-106.24-2.56-157.013333a66.986667 66.986667 0 0 1 58.453333-69.12 50.346667 50.346667 0 0 1 58.453333 53.333333v29.44l8.106667 8.106667z" fill="#FA7A33" p-id="58271"></path><path d="M138.24 361.386667L0.426667 529.066667l251.733333 140.8 169.386667-191.146667-283.306667-117.333333z" fill="#FAEF8B" p-id="58272"></path></svg>