<?xml version="1.0" standalone="no"?><!DOCTYPE svg PUBLIC "-//W3C//DTD SVG 1.1//EN" "http://www.w3.org/Graphics/SVG/1.1/DTD/svg11.dtd"><svg t="1784019748101" class="icon" viewBox="0 0 1024 1024" version="1.1" xmlns="http://www.w3.org/2000/svg" p-id="53117" xmlns:xlink="http://www.w3.org/1999/xlink" width="200" height="200"><path d="M298.666667 768a170.666667 170.666667 0 1 0 0-341.333333 170.666667 170.666667 0 0 0 0 341.333333z" fill="#1B7AFE" p-id="53118"></path><path d="M853.333333 602.069333c0-82.389333-61.568-149.76-139.818666-157.994666a31.573333 31.573333 0 0 1-28.16-31.402667v-0.213333c0-98.517333-78.506667-177.792-174.677334-177.792-93.269333 0-170.026667 74.624-174.506666 168.96 67.541333 12.16 122.88 59.818667 147.712 123.136a21.333333 21.333333 0 0 1-39.765334 15.530666c-22.741333-58.112-77.397333-98.56-140.672-98.986666-82.304 0.981333-149.76 66.986667-153.898666 150.570666l-0.213334 8.192 0.213334 8.234667c4.181333 84.181333 72.618667 150.570667 155.776 150.570667h392.021333c85.845333 0 155.989333-70.784 155.989333-158.805334z m42.666667 0c0 110.933333-88.618667 201.472-198.656 201.472H305.322667l-2.389334-0.085333-0.597333 0.085333c-105.344 0-190.208-85.290667-195.413333-191.146666a206.848 206.848 0 0 1-0.256-10.325334c0-107.648 82.346667-196.522667 186.965333-201.216 5.973333-116.053333 100.565333-208.853333 217.045333-208.853333 117.162667 0 212.138667 93.866667 217.088 210.901333 95.530667 14.933333 168.234667 98.645333 168.234667 199.168z" fill="#252525" p-id="53119"></path></svg>