<?xml version="1.0" standalone="no"?><!DOCTYPE svg PUBLIC "-//W3C//DTD SVG 1.1//EN" "http://www.w3.org/Graphics/SVG/1.1/DTD/svg11.dtd"><svg t="1784019917491" class="icon" viewBox="0 0 1024 1024" version="1.1" xmlns="http://www.w3.org/2000/svg" p-id="68965" xmlns:xlink="http://www.w3.org/1999/xlink" width="200" height="200"><path d="M0 0h1024v1024H0z" fill="#27BF84" p-id="68966"></path><path d="M422.912 280.4736h178.176l84.3776-102.9888a16.2048 16.2048 0 0 1 21.7856-4.3264c6.9888 4.5824 8.4736 14.0544 3.456 21.0688l-70.656 86.2464h111.9488c44.16 0 80 35.84 80 80v352c0 44.16-35.84 80-80 80h-480A80.0256 80.0256 0 0 1 192 712.448V360.448c0-44.16 35.84-80 80-80h111.9488l-70.656-86.2464c-5.0176-7.0144-3.5328-16.4864 3.456-21.0688a16.2048 16.2048 0 0 1 21.7856 4.3264l84.3776 102.9888z m-145.5872 168.6784l-2.1248 2.1248v103.7312c0 22.3488 6.2976 39.5776 18.944 51.7632 12.2112 11.6992 29.6448 17.4848 52.4032 17.4848 22.3744 0 39.8848-5.9392 52.4032-17.7152 12.4672-11.9808 18.7392-29.2352 18.7392-51.5328v-103.7312l-2.1248-2.1248h-25.6l-2.1248 2.1248v104.192c0 14.4128-3.3024 24.9856-9.728 31.872-6.6304 6.8352-17.152 10.3424-31.5392 10.3424-14.6176 0-25.1648-3.5072-31.7952-10.368-6.528-6.7328-9.728-17.152-9.728-31.8464v-104.192l-2.1504-2.1248h-25.5744z m243.84-3.2768c-27.4688 0-48.2304 8.9856-62.72 27.3152-12.8768 16.0256-19.2 36.608-19.2 62.1056 0 26.0096 6.0928 46.592 18.5344 61.9008 14.336 17.9712 35.6608 27.0592 63.616 27.0592 18.5344 0 34.4832-5.3248 47.7952-15.9488 14.1824-11.3152 23.168-26.9824 27.0336-47.0272l-2.0992-2.56h-24.8576l-2.0736 1.6384c-3.1744 12.6976-8.8064 22.144-16.8448 28.416-7.5264 5.7344-17.3824 8.704-29.184 8.704-18.176 0-31.36-5.632-39.8592-16.768-8.1408-10.6496-12.2368-25.7024-12.2368-45.4144 0-19.1744 4.1728-34.1504 12.4672-44.928 8.7296-11.8528 21.6576-17.7152 39.168-17.7152 11.8272 0 21.248 2.5088 28.8256 7.6288 7.4752 5.0432 12.5952 13.0304 15.3088 23.8592l2.0736 1.6128h24.8832l2.0992-2.4576c-2.6624-17.408-10.4448-31.488-23.04-41.7024-12.9536-10.5472-29.5424-15.7184-49.6896-15.7184z m173.1584 108.4416h44.1088v34.2528c-4.7616 1.792-10.6752 4.4032-17.1776 6.144-7.5776 1.9456-15.104 2.9696-22.6816 2.9696-20.352 0-35.2256-5.632-44.6208-16.8192-8.9344-10.2912-13.312-25.1904-13.312-45.1072 0-20.352 4.864-35.968 14.6944-47.1552 9.1392-10.7008 21.4016-15.9488 37.12-15.9488 12.9024 0 23.168 2.7904 30.6432 8.2688 7.552 5.3248 12.4416 13.312 14.6688 24.064l2.0992 1.7152h25.8048l2.0992-2.4832c-3.0976-19.2-10.8288-33.5616-23.296-43.3408-12.7488-10.0864-30.0032-15.0016-52.0192-15.0016-25.4208 0-45.6704 8.8064-60.544 26.5728-14.1312 16.512-21.1456 37.632-21.1456 63.3088 0 25.4976 7.04 46.3616 21.1968 62.4384 15.2064 17.408 36.48 26.0608 63.7696 26.0608 14.7712 0 28.3648-1.8944 40.7808-5.7344 11.904-3.8912 22.1696-9.216 30.9504-16.0768l0.8192-72.0896-2.1504-2.1248h-71.808l-2.1248 2.1504v21.8112l2.1248 2.1248z" fill="#FFFFFF" p-id="68967"></path></svg>