<?xml version="1.0" standalone="no"?><!DOCTYPE svg PUBLIC "-//W3C//DTD SVG 1.1//EN" "http://www.w3.org/Graphics/SVG/1.1/DTD/svg11.dtd"><svg t="1784020708141" class="icon" viewBox="0 0 1024 1024" version="1.1" xmlns="http://www.w3.org/2000/svg" p-id="4858" xmlns:xlink="http://www.w3.org/1999/xlink" width="200" height="200"><path d="M855.922426 493.346007c-6.664428 19.148496-10.256904 32.699215-23.517493 49.210953-17.26266 21.495126-45.618477 46.2414-70.834077 56.94203 2.286897 8.533198 12.16834 10.589699 17.774652 15.632819 35.139709 31.675231 83.164548 102.321577 76.508653 151.353333-0.947185 6.971623-6.664428 15.120827-7.142287 20.402876-0.520525 5.725776 6.51083 17.467456 7.36415 26.666244 3.36208 36.231959-16.426406 79.145412-47.427514 98.345107-18.397575 11.391819-37.605804 14.335773-58.426807 18.218378-3.003686 5.768442-5.614844 23.159099-9.028124 26.401715-1.65544 1.578642-6.195102 1.25438-9.113455 4.496995-16.520271 18.363442-0.622923 27.101437-1.68104 41.38601-1.604241 7.270285-10.547033 16.767734-17.85145 17.800251-24.422013 3.447412-77.199842-1.46771-96.425138-17.766118-7.065488-5.990305-13.04726-32.067758-16.486139-42.47826-1.177581-3.566877-5.410048-5.89644-6.442564-9.275586-2.619692-8.558798-3.33648-23.329763-4.590861-32.76748l-43.212114-0.0256c0.042666 6.988689 0.563191 13.892046-0.750922 20.880736-1.791972 9.540115-12.705932 39.406308-16.7848 50.038673-5.981772 15.624286-25.275333 22.28018-40.421759 26.401715-10.376369 2.824489-36.974347 8.797727-46.207267 8.789193-2.1077 0-23.824689-4.82979-25.66786-5.742842-4.249533-2.124766-11.79288-14.907497-11.809946-19.762886-0.0256-8.243069 10.453168-13.320322 7.432415-26.879574-2.662358-11.989143-10.436101-12.313405-17.271192-18.201311-11.664882-10.035041-23.688158-110.888908-25.582528-131.641646-1.092249-12.014743 1.70664-29.24327 4.095935-41.454276 0.443726-2.278364 6.664428-6.741226 3.81434-17.629587l-3.81434-2.030901h-3.933804c3.950871-3.413279 6.058571-13.23499 15.701084-11.852612l-0.332795-5.410048c-0.930119-1.979702-3.532744-2.175965-3.583943-2.389295-2.414895-11.144357 15.462155-74.793481 23.568693-80.758186 2.986619-2.193032 6.997222-1.186115 7.884675-1.791972 3.839939 12.467002-22.826305 79.213677-19.651955 82.550158 6.74976 1.629841 7.816409-2.585559 11.79288-5.887907 15.223225-12.663266 15.078161-14.335773 15.726684-33.416003h7.816409l0.520525 13.345921 3.455945 2.380763c0.895986 7.005756 3.071951 1.91997 6.459631 0.597323 14.173642-5.580711 17.953849-5.691643 32.852812-0.597323 0.059732-9.139055-0.059732-18.380509 0-27.511031 4.61646-3.498611 7.17642-3.498611 11.79288 0 0.093865 5.222317-0.076799 10.5129 0 15.735217h165.108848v-66.832007l-45.038219 8.02974c-40.327894-0.392527-80.809385 2.201565-120.070629-8.02974 0.102398-3.925271-0.093865-7.893208 0-11.809946l7.867609 0.017067c109.054271 18.226911 247.036082-4.292199 322.341555-90.417766 11.963544-13.68725 20.129814-20.607673 27.519563-39.312444l13.772582-7.833475 1.945569 3.899671zM761.587922 772.45838c18.499973-6.357233 38.407924-18.363442 53.136224-31.385102 26.862507-23.756423 18.542639-28.79101 1.288513-56.472704-12.347538-19.814086-37.930065-51.651448-56.310573-65.552027-19.737287-14.924563-28.671545-1.27998-48.972024 4.266599 2.210098 27.570763-3.874072 61.498758-0.238929 88.190601 1.399444 10.291037 10.222771 19.003432 17.689319 25.556928 4.42873 3.882605 6.468164 9.429184 13.755515 7.859076l-23.602825-76.662251c-1.740772-6.604695 3.473012-17.680786 9.864377-9.838778 3.097551 3.805806 7.056955 13.47392 8.951324 18.568239 11.161423 30.088056 18.201311 64.041651 24.447613 95.469419z m-62.906735-55.04766v-84.512793c0-1.058117-4.565261-3.908205-5.879374-5.862307l-33.424536 13.729916v80.587522l18.27811-11.36622 21.034333 7.432415z m-51.09679 3.916738H482.467016c7.645745 44.713958-40.225495 60.321177-60.927034 19.686088-10.436101 7.304417-20.223679 20.257812-33.262406 19.788486-4.40313 29.064072-4.863923 58.40974-4.00207 88.216201l17.42479 88.711127c10.529966 10.649431 23.048168 6.212168 35.489571 7.748143 28.040089 3.464478 35.054377 3.38768 63.043267 0 7.423882-0.895986 16.588537 1.450644 23.1079-0.477859 8.908659-2.636758 11.656348-22.450844 10.239838-31.043774h-15.752284v-11.79288c21.136731-2.235698 39.9183 5.674577 61.114764 4.095935 11.74168-0.878919 23.867355-7.133754 37.179144-4.095935v11.716081l-15.376823 5.89644 3.609543 21.657257c41.249479 6.126836 84.598125 5.077253 125.958536 2.193031 3.165816-2.193032 5.691643-15.513354 6.835091-20.684472 8.336934-37.657003 9.318252-75.928396 8.507599-113.013674-0.281596-12.970461 1.083716-26.026254-0.307195-38.971115l-36.854883-33.902396-10.419034 22.979902c-27.383032 14.651501-54.441803-9.881443-50.507999-38.715119z m-198.507785 3.950871c-10.128906 2.952487-8.336934 28.082755 7.500681 23.244431l10.163039-9.488916c-4.514062-3.242615-11.861145-15.445088-17.655187-13.755515z m241.677234 10.589698c0-6.48523-5.25645-11.74168-11.741681-11.74168s-11.74168 5.25645-11.74168 11.74168 5.25645 11.74168 11.74168 11.741681 11.74168-5.25645 11.741681-11.741681z m94.411303 40.515625c16.503205 20.923402 40.054831 20.309011 54.544201-2.466095l0.486393-36.846349c-17.552788 13.951779-32.758947 32.15309-55.022061 39.320977z m11.792879 23.585759l-35.370106-11.801413v23.585759c2.491694 2.628225 34.098659-2.047968 35.370106-11.792879z m15.718151 15.718151c-6.314567 3.669275-26.461447 9.505983-34.243724 10.956626-5.68311 1.058117-11.169956 1.117849-16.870132 0.836253-0.520525 9.702246 0.870386 19.694621-0.068266 29.405401-0.708255 7.33855-2.781823 17.04933-3.848472 25.633726l-3.925271 31.444835c59.484923-3.438879 95.921679-55.730316 86.475429-113.994992-9.727846-1.672507-15.701084 5.375915-23.56016 10.000908-2.892754 1.698106-3.524211 5.46978-3.950871 5.717243z m-98.268308 145.44836H622.027469c-0.63999 0-8.311335-9.813178-5.947639 2.005301 2.329563 11.639282 7.927341 26.580912 18.243977 32.869879 11.681948 7.116687 48.630695 13.618984 62.573941 12.467002 6.690027-0.554658 11.204089-3.293814 17.407724-4.198333 4.659126-9.326785-6.920424-21.128198-6.93749-25.445997-0.0256-4.505529 9.190254-10.845695 7.039889-17.697852z m-192.619879 0H423.51115c-0.40106 6.527896 4.599394 10.70063 4.147135 17.569854-0.554658 8.388134-10.931027 15.607219-8.063872 25.650794 18.107446 10.043574 85.468511-1.314112 93.720113-18.27811 3.447412-7.091088 3.566877-17.603987 8.473466-24.934005z" fill="#482720" p-id="4859"></path><path d="M372.405828 780.308923V760.656968l3.814339 2.030901c2.841555 10.879827-3.370613 15.351223-3.814339 17.629587z" fill="#572A22" p-id="4860"></path><path d="M482.475549 638.794367c39.261244 10.231304 79.734202 7.637212 120.070629 8.029739l45.038219-8.029739v66.823473H482.475549c-0.068266-5.213784 0.102398-10.495834 0-15.726683-0.298662-16.904265-0.435193-34.201058 0-51.105323z" fill="#F9FAF7" p-id="4861"></path><path d="M337.027189 634.860563c30.838978-7.295884 49.885076-29.738195 82.362427-11.596617l0.18773 27.323301c-3.251148 2.278364-4.309265 5.452714-7.859075 7.859075-0.887453 0.605857-4.898056-0.409594-7.884675 1.791971-8.106538 5.964705-25.983588 69.613829-23.568693 80.758186l-31.444835 11.784347c8.627063-36.146627 6.058571-71.047407-12.373137-103.593024-5.811108-10.265437-12.38167-6.365766 0.571724-14.335773z" fill="#F6F6F0" p-id="4862"></path><path d="M289.85567 552.310405c-4.863923-12.705932-10.256904-15.948547-19.378893-26.06892-1.023984-2.278364-0.076799-4.300732 0.307195-6.527896 0.494925-2.858621 2.824489-15.820549 7.270285-14.574703 3.780207 27.485431 31.820295 57.684419 53.008226 74.759348 8.746528 7.048422 34.090126 18.158645 37.40954 25.488663 1.075183 2.363696-42.085733 20.257812-47.171518 21.61459-2.798889-0.793587-8.132138 0.375461-12.825397-0.793587-15.752284-3.942337-28.005956-10.572632-46.139002-7.074021 14.873364-19.293561 35.429838-33.654933 31.513101-61.18303-0.750921-5.28205-3.874072-5.316182-4.00207-5.640444z" fill="#F4F0E5" p-id="4863"></path><path d="M470.682669 689.891157c-0.059732 9.139055 0.051199 18.380509 0 27.51103-14.898964-5.094319-18.67917-4.974854-32.852812 0.597324-3.379146 1.331179-5.563645 6.416965-6.459631-0.597324-3.379146-26.546779 2.483161-59.169195 0-86.492495l37.537538 7.671345c3.76314 5.44418 1.843171 40.891085 1.766372 51.301586z" fill="#4F79A3" p-id="4864"></path><path d="M419.577346 701.684036c-0.63999 19.071698-0.494925 20.752738-15.726684 33.416004-3.97647 3.302348-5.04312 7.517747-11.792879 5.887906-3.17435-3.327947 23.491894-70.074622 19.651955-82.550157 3.54981-2.414895 4.607927-5.580711 7.859075-7.859076 0.119465 16.929865 0.571724 34.201058 0 51.105323z" fill="#E5E5E5" p-id="4865"></path><path d="M647.584397 721.327458c-3.933804 28.833676 23.124967 53.36662 50.507999 38.715119l10.419035-22.979902 36.854882 33.902396c1.390911 12.944861 0.0256 26.000654 0.307195 38.971115 0.802121 37.085279-0.170664 75.356672-8.507598 113.013675-1.143449 5.171118-3.669275 18.49144-6.835092 20.684472-41.360411 2.884221-84.709057 3.925271-125.958536-2.193032l-3.609542-21.657257 15.368289-5.89644v-11.716081c-13.303256-3.037818-25.42893 3.225549-37.17061 4.095936-21.196464 1.578642-39.969499-6.331633-61.114765-4.095936v11.784347h15.752284c1.407978 8.601464-1.331179 28.407016-10.239838 31.043774-6.519363 1.928503-15.684018-0.418127-23.1079 0.477859-27.988889 3.38768-35.003178 3.464478-63.043267 0-12.441403-1.535976-24.959604 2.901287-35.48957-7.748143l-17.424791-88.711127c-0.861853-29.806461-0.409594-59.152129 4.00207-88.216201 13.038727 0.460793 22.826305-12.484069 33.262406-19.788486 20.701538 40.635089 68.572779 25.02787 60.927034-19.677555h165.117381z m-9.838777 39.320976H490.334624v57.001763c0 5.648977 19.472758 29.021406 25.471596 33.492802 21.111132 15.74375 69.204236 15.905881 92.542533 5.904973 13.482453-5.776975 26.461447-17.774651 30.65978-32.238422 3.942337-13.593384 6.647361-40.686288 4.752991-54.450336-0.494925-3.60101-2.943953-8.900126-6.015904-9.71078z" fill="#4C81AD" p-id="4866"></path><path d="M761.587922 772.45838c-6.246301-31.419235-13.286189-65.381363-24.447612-95.469419-1.89437-5.094319-5.845241-14.770966-8.951325-18.568239-6.391365-7.842009-11.605149 3.234082-9.864376 9.838778l23.602825 76.662251c-7.287351 1.570108-9.326785-3.967937-13.755515-7.859076-7.458015-6.553496-16.281342-15.265891-17.689319-25.556928-3.635142-26.691843 2.449028-60.619839 0.238929-88.190601 20.300478-5.555112 29.234736-19.191162 48.972024-4.266599 18.380509 13.90058 43.963036 45.737941 56.310573 65.552027 17.254126 27.681694 25.573994 32.716281-1.288513 56.472704-14.7283 13.02166-34.627718 25.02787-53.136224 31.385102z" fill="#F8F8F7" p-id="4867"></path><path d="M714.407871 961.135922c2.150366 6.852158-7.056955 13.183791-7.039889 17.697852 0.017066 4.317798 11.596616 16.119211 6.93749 25.445997-6.203635 0.895986-10.717697 3.643676-17.407724 4.198333-13.943246 1.151982-50.900526-5.350315-62.573941-12.467002-10.316636-6.288967-15.914414-21.230597-18.243977-32.869879-2.372229-11.818479 5.307649-2.005302 5.947639-2.005301h92.380402z" fill="#F2EAD7" p-id="4868"></path><path d="M521.787992 961.135922c-4.915122 7.330017-5.026054 17.842917-8.473466 24.934004-8.251602 16.972531-75.604134 28.321684-93.720113 18.27811-2.858621-10.043574 7.509214-17.26266 8.063872-25.650793 0.452259-6.869224-4.548195-11.033425-4.147135-17.569854h98.276842z" fill="#F2EADA" p-id="4869"></path><path d="M812.676179 815.687562c0.42666-0.247463 1.06665-4.019136 3.950871-5.717243 7.859075-4.624993 13.832314-11.673415 23.560159-10.000908 9.44625 58.256143-26.990505 110.54758-86.475428 113.994992l3.925271-31.444835c20.83807 5.171118 56.899364-21.862053 59.066796-41.334811 1.075183-9.651047-4.650593-16.341074-4.036202-25.488662z" fill="#F0ECDD" p-id="4870"></path><path d="M698.681187 717.41072l-21.034333-7.432415-18.27811 11.366219v-80.587522l33.424536-13.729915c1.322646 1.954102 5.879373 4.80419 5.879374 5.862307v84.512793z" fill="#4F7AA5" p-id="4871"></path><path d="M812.676179 815.687562c-0.61439 9.156121 5.111386 15.846149 4.036203 25.488662-2.167432 19.472758-38.23726 46.505929-59.066797 41.334811 1.075183-8.584397 3.140217-18.295177 3.848472-25.633727 0.938652-9.702246-0.452259-19.703154 0.068266-29.4054 5.700176 0.281596 11.187023 0.230396 16.870132-0.836253 7.79081-1.450644 27.929157-7.287351 34.243724-10.956627z" fill="#F3C37F" p-id="4872"></path><path d="M785.165149 776.383652c22.271647-7.167886 37.477806-25.369198 55.02206-39.320977l-0.486392 36.846349c-14.48937 22.775105-38.040997 23.398029-54.544202 2.466094z" fill="#EFE9D8" p-id="4873"></path><path d="M796.958028 799.969411c-1.271447 9.744912-32.878412 14.412571-35.378639 11.79288v-23.58576l35.378639 11.801413z" fill="#E4DFD9" p-id="4874"></path><path d="M679.020699 735.868027m-11.741681 0a11.74168 11.74168 0 1 0 23.483361 0 11.74168 11.74168 0 1 0-23.483361 0Z" fill="#4A7CAA" p-id="4875"></path><path d="M449.076612 725.278329c5.802575-1.689573 13.141125 10.5129 17.655186 13.755515l-10.163038 9.488916c-15.837616 4.846856-17.621054-20.283412-7.500681-23.244431z" fill="#47709E" p-id="4876"></path><path d="M230.891272 579.821435c-0.110932 0.554658-3.959404 1.553042-4.206867 9.633981-0.366928 12.313405 7.184953 24.311081 4.198334 37.537538-3.780207 0.870386-6.015905-4.752991-7.850543-7.859075-15.735217-26.521179-50.695729-86.501028-47.128852-115.897896 1.911436-15.74375 15.146426-38.919916 30.207521-44.517694 21.66579-8.055339 48.869625-0.409594 52.29997 24.806007 5.290583 38.954049-15.15496 49.125621-25.744658 80.416858-2.201565 6.502297-0.819187 11.12729-1.766372 15.888815z" fill="#8AB13E" p-id="4877"></path><path d="M215.164588 630.926758c-0.204797 0.18773 0.366928 4.095935-1.954102 3.916738-17.42479-13.840847-44.884622-36.684218-67.50613-38.604188-4.181267-0.358394-7.696945 3.063418-11.221155 3.114618-17.117595 0.255996-35.131176 0.298662-49.048823-11.673415-24.191616-20.821003-13.465386-66.22615 21.682857-70.689013 62.317945-7.910275 77.99343 75.015344 108.03882 113.926727z" fill="#87AD3F" p-id="4878"></path><path d="M281.988061 564.103285c-5.555112 21.921786-27.118503 34.969045-37.349807 55.030594l-1.962636-31.444835c-0.844787-8.737995 11.12729-41.181214 17.859984-43.11825 8.780661-2.525827 21.597524 10.350769 21.452459 19.523957z" fill="#8CAE44" p-id="4879"></path><path d="M191.578829 642.719638c-27.08437 4.659126-67.523196 12.560867-62.744605-27.365966 19.634889-7.688411 39.431908 5.811108 56.353239 16.068012 4.846856 2.93542 7.586013 5.111386 6.382832 11.297954z" fill="#84AF43" p-id="4880"></path><path d="M289.85567 552.310405c0.119465 0.324262 3.251148 0.358394 4.00207 5.640444 3.916738 27.519564-16.639736 41.880936-31.5131 61.18303 18.133046-3.498611 30.386718 3.131684 46.139001 7.074021 4.693259 1.177581 10.026508 0 12.825397 0.793587 2.449028 0.699722 10.777429 7.355617 15.726684 7.859076-12.953395 7.970007-6.382832 4.070335-0.571724 14.335772 18.423175 32.545617 21.0002 67.45493 12.373137 103.593024l31.444834-11.784346c0.042666 0.21333 2.653825 0.409594 3.583944 2.389295l0.332794 5.410048c-9.642514-1.382378-11.758747 8.447866-15.701084 11.852612-6.775359 5.853774-14.028578 10.589699-23.355363 12.031809l-4.172734 56.762833-9.821711 17.672253c-4.846856 0.042666-9.04519-29.942992-17.672253-37.341274-13.917646-11.937944-56.361773-14.378439-77.515571-24.695075-37.145011-18.098913-60.713704-58.870533-51.583182-100.444274 1.194648-5.44418 14.335773-23.184699 11.144357-26.188385-14.642968-2.542893-27.169702 5.04312-41.420143 4.104468-22.638574-1.49331-50.038673-24.311081-37.179144-47.342182-10.896894-2.372229-23.577226-6.416965-32.997877-12.364604-4.582327-2.892754-4.880989-5.998838-6.340166-7.304418l7.859076-7.859075c13.909113 11.972077 31.922694 11.920878 49.048822 11.673415 3.524211-0.051199 7.039888-3.473012 11.221155-3.114617 22.621508 1.91997 50.081339 24.763341 67.50613 38.604187 2.32103 0.179197 1.749306-3.729008 1.954102-3.916738 4.053269-3.729008 6.391365-6.434031 7.859075-11.792879 1.843171 3.097551 4.070335 8.729462 7.850543 7.859075 2.986619-13.217924-4.565261-25.224133-4.198334-37.537538 0.23893-8.080939 4.095935-9.079323 4.206867-9.63398v11.792879c5.264983 1.169048 7.517747-1.749306 11.792879-3.925271l1.962636 31.444835c10.231304-20.061549 31.794696-33.108808 37.349808-55.030594l7.423882-0.315728 0.443726-11.477152zM191.578829 642.719638c1.203181-6.186569-1.544509-8.362534-6.382833-11.297954-16.929865-10.256904-36.726884-23.756423-56.353239-16.068012-4.778591 39.926833 35.660234 32.025092 62.744605 27.365966z m145.44836 43.246247c-3.797273-12.978994-11.161423-23.056701-15.905881-35.216508l-46.983789 15.55602c-7.97854-7.17642 21.64019-18.380509 25.761725-19.55809 5.828174-1.663974 6.715627 2.201565 5.691643-7.944407-8.627063-0.204797-22.04125-7.850542-29.482199-7.824943-2.995153 0-21.844987 4.343398-25.753192 5.648978-36.58182 12.253672-72.779646 60.167579-45.004086 96.493403l29.473666-23.568693c2.013835 12.21954 0.0256 8.260136-5.085786 12.526734-7.944407 6.613228-15.470688 13.217924-22.399645 20.889269 11.195556 12.868063 20.880736 20.983134 35.361573 29.482199 3.430346 2.013835 5.572178 5.811108 11.792879 7.859076 24.524411 8.072405 54.126075 5.290583 74.682549 23.585759-2.568493-33.381871 14.08831-64.809639 11.801413-98.276842-0.494925-7.17642-1.954102-12.893662-3.933804-19.651955z" fill="#572A22" p-id="4881"></path><path d="M242.684151 772.449847c-14.480837-8.499065-24.166017-16.614137-35.361572-29.482199 6.928957-7.671345 14.463771-14.27604 22.399645-20.889269 5.111386-4.258066 7.099621-0.298662 5.085786-12.526734l-29.473666 23.568693c-27.77556-36.325824 8.4308-84.239731 45.004086-96.493403 3.908205-1.305579 22.758039-5.640444 25.753192-5.648978 7.440949-0.017066 20.855136 7.620146 29.482199 7.824943 1.023984 10.145972 0.136531 6.280434-5.691643 7.944407-4.121535 1.177581-33.731732 12.373137-25.761725 19.55809l46.983788-15.55602c4.744458 12.159807 12.108608 22.237514 15.905881 35.216508-11.315021 0.477859-24.60121 5.333249-34.303456 10.93956-6.715627 3.882605-4.633527 4.82979-8.917192 10.683564 7.55188 9.514516 5.785508 3.771674 11.929411 0.153598 7.952941-4.684726 14.608835-6.212168 23.415095-8.123605 11.605149-2.517293 4.667659-1.305579 11.809947 6.007372 2.286897 33.467203-14.369905 64.894971-11.801413 98.276841-20.556474-18.295177-50.149605-15.513354-74.682549-23.585759 3.848472-10.461701 24.660942-16.434939 9.830244-27.502497l-21.623124 19.634888z" fill="#D13D43" p-id="4882"></path><path d="M337.027189 685.965885c1.979702 6.758293 3.438879 12.475535 3.933804 19.651955-7.142287-7.312951-0.204797-8.524665-11.809946-6.007371-8.814794 1.911436-15.470688 3.438879-23.415095 8.123605-6.143903 3.626609-4.377531 9.369451-11.929411-0.153598 4.283665-5.853774 2.210098-6.800959 8.917192-10.683564 9.702246-5.606311 22.979902-10.461701 34.303456-10.93956z" fill="#752B28" p-id="4883"></path><path d="M254.477031 780.308923c-6.220701-2.047968-8.362534-5.853774-11.79288-7.859076l21.623124-19.634888c14.830698 11.067558-5.973239 17.032263-9.830244 27.502497z" fill="#7C2C29" p-id="4884"></path><path d="M637.74562 760.648434c3.071951 0.810654 5.520979 6.10977 6.015904 9.71078 1.885837 13.764048-0.810654 40.856952-4.752991 54.450336-4.198333 14.463771-17.177328 26.461447-30.65978 32.238422-23.338297 10.000908-71.431401 9.838777-92.542533-5.904973-5.998838-4.471396-25.471596-27.843825-25.471596-33.492802v-57.001763h147.410996z m-9.821711 11.801413H502.127504c1.228781 12.825397-2.056501 28.296085 0.63999 40.635089 9.463317 43.212115 86.82529 49.594947 115.462702 22.408178 16.298408-15.470688 7.662812-42.47826 9.68518-63.043267z" fill="#4F2A23" p-id="4885"></path><path d="M765.50466 218.167437l-2.961019 3.908205 13.124058 15.53042 7.031355-0.153597 18.184245-11.417419c2.141833 0.691189 6.408432-0.972785 9.275587 0.409593l6.109769 5.828175c2.210098 17.501589-1.817571 37.546071 0.409594 54.621 2.116233 16.19601 13.985912 36.240492 18.781569 51.975709 10.896894 35.737033 20.633273 79.964599 16.588537 117.340006-0.511992 4.770058-3.925271 5.333249-3.993537 5.674577 4.991921-21.23913-19.506891-48.895225-39.312443-51.105323-3.089018-6.579096-15.445088-4.1898-21.614591-3.908205-37.716735 1.70664-53.341021 17.42479-84.521326 27.493964-1.151982 0.375461-2.679424-0.341328-3.933804 0-4.872456 1.322646-11.118757 3.839939-11.79288 3.933804-8.550264 1.117849-18.662104-0.759455-27.519564 0-29.806461-11.664882-52.11224-40.182829-84.359195-43.399845-9.44625-0.947185-25.42893-0.657056-34.781315 0.921586-37.153544 6.271901-43.715573 44.679825-100.998932 42.478259l-2.440495-3.507144-9.352385-0.42666h-3.933804c-1.126382-4.667659-5.930573-2.943953-7.859075-3.933804-13.823781-7.022822-30.147789-15.34269-45.985404-18.901034-6.118303-1.373845-11.716081 0.017066-16.912799-0.750921-9.540115-1.407978-18.337843-6.903357-28.79101-3.293815-1.843171 0.307195-2.286897 3.199949-2.653824 3.293815-7.355617 1.877304-11.246755 0.332795-19.55809 5.998838-10.163039 6.928957-14.105376 18.969299-23.679625 25.445996-0.034133-0.341328-2.995153-0.972785-3.268215-2.713556-3.080484-19.489824 7.33855-63.222464 12.987528-83.872804 5.213784-19.046098 17.919716-43.672907 20.9746-61.575557 3.17435-18.610905-1.766372-40.336427 0.631457-58.332941 0.452259-3.404746 0.819187-5.828174 3.899672-7.893208 27.374499-9.429184 56.284974-13.354455 84.538392-17.672253 123.492442-18.849834 246.413159-17.228527 367.678436 7.987073z m-315.788058 47.845642c-3.481545 0.767988-7.159353 3.60101-10.5129 5.196717-33.83413 39.389242 57.266292 76.346523 66.217616 34.781315 6.331633-29.379801-31.154706-45.371014-55.704716-39.978032z m200.47042-0.017067c-9.514516 2.116233-28.748344 14.839231-30.207521 24.797474-8.260136 56.464171 83.557075 34.04746 70.347685-11.212623-8.447866-13.704316-24.968137-16.963998-40.140164-13.584851z m-200.393622 70.885276c-35.865031 2.815955-55.534053 36.79515-38.928449 68.862908 11.084624 21.409794 48.340567 27.895024 67.557329 14.762433 23.98682-16.38374 22.647108-53.955411 2.235698-72.771113-5.162585-4.761524-24.439079-11.357687-30.873111-10.854228z m271.313031 46.190201c0-25.411864-20.59914-46.019537-46.019537-46.019537s-46.019537 20.59914-46.019537 46.019537 20.59914 46.019537 46.019537 46.019537 46.019537-20.59914 46.019537-46.019537z" fill="#F7C17C" p-id="4886"></path><path d="M659.368744 438.30688c0.324262 0.127998 0.21333 3.36208 5.623377 4.044735 8.098005 1.015451 17.47599-0.895986 25.821457-0.102398-9.548649 10.820095-4.368997 16.102145-4.778591 24.78894-0.119465 2.525827-2.901287 5.614844-3.157283 8.814794-1.100783 13.533652 16.426406 42.546525 27.690228 50.798128 2.500227 1.834638 20.829536 12.961928 22.06685 13.311788 11.187023 3.140217 50.798128 6.160969 62.445943 4.573795l17.595454-7.952941c-75.305472 86.117034-213.295817 108.644677-322.341555 90.417766-0.273062-0.042666-0.861853-2.850088-2.815955-3.208482-65.98722-12.159807-143.562523-36.615953-181.944848-95.068359 2.29543-6.340166 12.211006 2.030901 17.680786 2.431961 19.916484 1.46771 8.4052 0.699722 21.520725 7.500681 12.364604 6.408432 20.62474-1.535976 29.806461-2.218631 5.026054-0.375461 8.686796 2.790356 11.690481 2.850088 1.348245 0.0256 23.77349-7.637212 25.505729-8.533198 2.93542-1.527442 25.471596-24.985204 26.785709-28.219286 6.809492-16.801867 4.633527-49.381617-7.193486-64.220848 2.235698 0.435193 5.290583-0.102398 7.859075 0 57.283358 2.193032 63.845388-36.206359 100.998932-42.47826 9.352385-1.578642 25.335065-1.86877 34.781315-0.921585 32.246955 3.225549 54.544202 31.743497 84.359196 43.399845z m-90.4263 27.519563c24.780407 0.571724 50.635997-33.049076 23.568693-49.108554-17.126128-10.163039-53.733548-8.490532-66.951472 7.662811-14.079777 17.202927 14.06271 41.846803 31.615499 41.445743-1.604241 20.641806-26.401715 36.573287-43.271847 21.64019-5.23085-4.624993-5.077253-15.684018-15.701084-13.772581-4.326331 35.165309 42.196664 43.630241 61.217162 19.74582 15.248825 6.971623 23.764956 18.226911 42.205198 14.881897 10.547033-1.911436 33.467203-16.144811 30.224587-28.722744-1.390911-5.392981-4.770058-5.990305-9.821711-1.979702-4.838323 3.848472-11.443019 13.823781-16.204543 15.231758-9.267053 2.739157-24.396413 0.017066-30.992575-7.33855l-5.887907-19.677555z" fill="#FAF0DE" p-id="4887"></path><path d="M808.750908 410.795849c19.805553 2.210098 44.304364 29.85766 39.312443 51.105323-2.201565 11.929411-3.106084 23.34683-7.859075 35.378639-7.389749 18.70477-15.547487 25.625194-27.519564 39.312443l-17.595454 7.952941c-11.639282 1.587175-51.25892-1.433577-62.445943-4.573794-1.237314-0.349861-19.566623-11.477151-22.06685-13.311789-11.263821-8.251602-28.79101-37.264476-27.690228-50.798128 0.264529-3.208482 3.037818-6.288967 3.157283-8.814794 0.409594-8.686796-4.770058-13.977378 4.778591-24.78894-8.345468-0.793587-17.723452 1.117849-25.821457 0.102399-5.410048-0.682656-5.307649-3.916738-5.623377-4.044736 8.85746-0.759455 18.960766 1.117849 27.519563 0l9.343852-0.435193 2.449028-3.498612c1.245847-0.341328 2.773289 0.375461 3.933804 0 13.977378-1.561575 5.648977 4.505529 4.744458 10.640898-2.50876 17.083462-7.202019 36.402623 1.09225 52.317037 1.535976 2.952487 21.0002 21.503659 24.319614 22.851905 27.280634 11.041958 63.512593 5.111386 79.367275-21.495126 8.319868-13.968845 6.203635-44.824889-3.217016-58.580404-4.420197-6.451098-12.629133-9.796111-17.365058-14.08831-5.648977-5.111386-5.68311-9.68518-6.852158-10.811562-2.824489-2.72209-12.603533 3.310881-11.31502-4.411664 11.443019 0.861853 24.20015-1.25438 35.378638-0.008533z" fill="#FAE5CE" p-id="4888"></path><path d="M321.300505 410.795849l13.772581 3.942338c-29.140871 16.955464-36.487955 60.75637-37.554604 92.090273 6.843625 7.586013 17.655187 7.952941 24.993737 10.862761 3.720474 1.476243 5.89644 5.247917 9.369451 6.357232 23.312697 7.423882 58.170811 9.326785 77.933698-7.039888 2.380762-1.971169 22.792172-25.872656 23.619892-27.485431 8.200403-16.050945-2.687957-41.027616-13.840847-53.170357l3.916737-1.962635h3.933805c0.42666 2.022368 1.937036 3.541277 3.933804 3.933804 11.827012 14.839231 14.011511 47.418981 7.193486 64.220848-1.314112 3.242615-23.841755 26.700377-26.785709 28.219286-1.723706 0.895986-24.157484 8.558798-25.505728 8.533198-3.003686-0.059732-6.664428-3.225549-11.690482-2.850088-9.181721 0.682656-17.441857 8.627063-29.80646 2.218631-13.115525-6.800959-1.604241-6.032971-21.520726-7.500681-5.461247-0.40106-15.385356-8.772128-17.680786-2.431961-22.177782-33.774398-23.295631-47.316583-27.519564-86.483962 9.574248-6.48523 13.516586-18.525573 23.679625-25.445996 8.311335-5.666043 12.211006-4.121535 19.55809-5.998839z" fill="#FAE4CD" p-id="4889"></path><path d="M765.50466 218.167437c13.670183 2.841555 20.496742 3.037818 35.378639 7.859076l-18.184245 11.417419-7.031355 0.153597-13.124058-15.53042 2.961019-3.908205z" fill="#EFCEA1" p-id="4890"></path><path d="M808.750908 410.795849c-11.178489-1.245847-23.93562 0.878919-35.378639 0.008533-1.288513 7.714011 8.490532 1.68104 11.315021 4.411664 1.169048 1.134915 1.203181 5.700176 6.852158 10.811562 4.735925 4.292199 12.944861 7.637212 17.365057 14.08831 9.420651 13.755515 11.536884 44.611559 3.217016 58.580404-15.846149 26.606511-52.078107 32.537084-79.367275 21.495126-3.327947-1.348245-22.783639-19.899418-24.319614-22.851905-8.294268-15.922947-3.60101-35.233575-1.092249-52.317037 0.904519-6.135369 9.23292-12.202473-4.744458-10.640898 31.180306-10.069174 46.796058-25.787324 84.521326-27.493963 6.178035-0.281596 18.525573-2.670891 21.61459 3.908204z m-20.368744 81.816303c6.647361-6.382832 10.794495-22.971369 8.080939-32.20429-0.767988-2.602625-17.518656-19.609289-20.983134-22.246047-10.572632-8.080939-28.722745-1.928503-40.925218 0.674123-8.012673 14.91603-15.095227 43.869171-0.520525 56.506837 3.532744 3.063418 25.326532 9.779045 28.919008 9.241454 1.390911-0.204797 24.41348-10.999292 25.42893-11.972077z" fill="#F9D3B7" p-id="4891"></path><path d="M721.106431 383.071489c0 25.411864-20.59914 46.019537-46.019537 46.019537s-46.019537-20.59914-46.019537-46.019537 20.59914-46.019537 46.019537-46.019537 46.019537 20.59914 46.019537 46.019537z m-53.187423-18.354909c0-7.500681-6.075637-13.576318-13.576318-13.576318s-13.576318 6.075637-13.576318 13.576318 6.075637 13.576318 13.576318 13.576318 13.576318-6.075637 13.576318-13.576318z" fill="#512D25" p-id="4892"></path><path d="M449.7934 336.881288c6.434031-0.503459 25.701992 6.092703 30.873111 10.854228 20.41141 18.815702 21.751122 56.387372-2.235698 72.771113-19.225295 13.132592-56.472704 6.647361-67.557329-14.762433-16.605603-32.067758 3.063418-66.038419 38.92845-68.862908z m-30.053923 38.365258c17.04933 3.353547 31.470434-3.652209 19.583689-21.546325l-13.44832-1.476243c-11.835546 7.142287-10.427568 11.357687-6.135369 23.014035z" fill="#532E24" p-id="4893"></path><path d="M415.643542 430.447804c-11.690481-1.766372-7.099621 3.165816-3.933804 9.830244 4.838323 10.180105 8.686796 15.641352 10.06064 27.715827 3.822873 33.526935-34.823981 59.314259-66.430946 52.240239-2.790356-0.622923-28.330217-10.751829-29.405401-11.912345-1.390911-1.510376-1.058117-5.25645-2.636758-7.091087-3.12315-3.609543-7.534814-3.14875-9.096389-4.676193-12.577934-12.296338 4.556728-51.668514 14.898964-64.212315l23.654025-21.546325c5.196718 0.767988 10.794495-0.622923 16.912798 0.750922 15.837616 3.558344 32.161623 11.886745 45.985404 18.901033z m-28.210753 62.172881c2.483161-2.406362 11.016359-20.914868 11.067558-24.81454 0.179197-14.344306-9.642514-25.036403-20.658872-33.057609-20.897802-3.089018-53.323954 17.04933-48.13577 40.276695 1.151982 5.162585 10.581166 18.098913 15.086694 20.377276 7.55188 3.822873 36.590353 3.089018 42.64039-2.781822z" fill="#FAD1B5" p-id="4894"></path><path d="M352.753873 410.795849l-23.654025 21.546325c-10.342236 12.552334-27.468364 51.915977-14.898964 64.212315 1.561575 1.527442 5.981772 1.06665 9.096389 4.676193 1.587175 1.834638 1.245847 5.580711 2.636758 7.091087 1.075183 1.169048 26.615045 11.289421 29.405401 11.912345 31.606965 7.074021 70.253819-18.713303 66.430946-52.240239-1.373845-12.074475-5.222317-17.535722-10.06064-27.715827-3.165816-6.664428-7.756677-11.596616 3.933804-9.830244 1.937036 0.981318 6.732693-0.733855 7.859075 3.933804l-3.916738 1.962636c11.15289 12.142741 22.04125 37.119411 13.840848 53.170357-0.82772 1.612774-21.230597 25.514262-23.619893 27.485431-19.762887 16.358141-54.621 14.463771-77.933697 7.039888-3.473012-1.109316-5.648977-4.880989-9.369451-6.357233-7.33855-2.909821-18.150112-3.276748-24.993737-10.862761 1.06665-31.333903 8.4052-75.134808 37.554604-92.090273l-13.772581-3.942337c0.366928-0.093865 0.810654-2.986619 2.653824-3.293814 10.461701-3.609543 19.250895 1.885837 28.79101 3.293814z" fill="#FBE2CA" p-id="4895"></path><path d="M449.716602 266.013079c24.550011-5.392981 62.03635 10.598232 55.704716 39.978032-8.959858 41.565208-100.051747 4.607927-66.217616-34.781315 3.353547-1.595708 7.031355-4.437263 10.5129-5.196717z" fill="#F7F0DD" p-id="4896"></path><path d="M650.187022 265.996012c15.172026-3.379146 31.700831-0.119465 40.140164 13.584851 13.209391 45.268615-78.60782 67.685327-70.347685 11.212623 1.459177-9.958242 20.693005-22.68124 30.207521-24.797474z" fill="#F8F1DA" p-id="4897"></path><path d="M439.229301 438.30688c-2.568493-0.102398-5.623377 0.435193-7.859075 0-1.996768-0.392527-3.507144-1.911436-3.933804-3.933805l9.352385 0.42666 2.440494 3.507145z" fill="#FBE2CA" p-id="4898"></path><path d="M698.681187 434.381608l-2.449028 3.498612-9.343852 0.435193c0.674123-0.085332 6.920424-2.602625 11.79288-3.933805z" fill="#F9D3B7" p-id="4899"></path><path d="M568.942444 465.826443l5.887907 19.677555c6.596162 7.355617 21.725522 10.077707 30.992575 7.33855 4.761524-1.407978 11.36622-11.383286 16.204543-15.231758 5.051653-4.019136 8.4308-3.413279 9.821711 1.979702 3.242615 12.577934-19.677555 26.811308-30.224587 28.722744-18.440241 3.33648-26.956373-7.910275-42.205198-14.881897-19.020498 23.884421-65.543494 15.419489-61.217162-19.74582 10.623832-1.911436 10.470234 9.147588 15.701084 13.772581 16.870132 14.94163 41.667606-0.989851 43.271847-21.64019-17.552788 0.40106-45.695275-24.234282-31.615499-41.445743 13.217924-16.153344 49.81681-17.825851 66.951472-7.662812 27.075837 16.059479 1.211714 49.680279-23.568693 49.108555z" fill="#512C24" p-id="4900"></path><path d="M77.575303 595.548119c-2.867155-2.568493-6.468164-3.310881-9.736379-7.927341-30.318453-42.845187 9.796111-93.429985 58.870533-86.407163 8.140671 1.160515 34.07306 18.747436 37.341275 15.701085-4.2154-16.62267 2.679424-38.23726 12.339004-52.513301 18.926633-27.988889 62.83847-31.129106 85.929304-6.442564-2.457561-48.946424 1.817571-99.334958 23.568693-143.494258l-6.178035-5.580712c-42.034533-6.195102-123.56924-20.454076-115.6419-76.960913 5.836707-41.62494 109.455331-74.076692 144.885169-85.075984 6.630295-26.597978 19.472758-70.81701 50.311736-77.455838 10.367836-2.235698 20.240746 4.548195 24.942537 1.587175l39.363643-47.33365c10.359302-5.000454 23.090834-10.27397 34.166925-13.004593 59.860384-14.736833 154.348486-13.653117 214.481932 0.085332 21.324462 4.872456 35.037311 7.842009 50.124005 24.567077 5.845241 6.48523 17.945315 28.833676 23.398029 31.632565 7.039888 3.626609 16.503205 1.160515 24.899872 2.619692 24.276948 4.206867 33.347738 23.363896 42.82812 43.655841 3.353547 7.17642 10.999292 33.663466 14.7539 36.351423 14.574702 5.341782 30.113656 8.755061 44.551827 14.412572 32.443219 12.722998 118.278658 51.856244 87.217816 97.329656-22.996969 33.663466-78.488355 43.143849-115.872295 51.207721 2.875688 22.399645 14.284573 43.297447 18.841301 65.688559 8.80626 43.263314 7.159353 74.349754-7.039889 115.13844l-1.945569-3.899671-13.772581 7.833476c4.752991-12.031809 5.65751-23.449228 7.859075-35.378639 0.059732-0.341328 3.473012-0.904519 3.993537-5.674577 4.036203-37.375407-5.691643-81.602973-16.588537-117.340006-4.795657-15.735217-16.673869-35.779699-18.781569-51.975709-2.227165-17.083462 1.800505-37.127945-0.409593-54.621l-6.10977-5.828175c-2.858621-1.382378-7.12522 0.281596-9.275586-0.409593-14.881897-4.821257-21.708456-5.01752-35.378639-7.859076-121.265277-25.2156-244.185994-26.836908-367.678436-7.987073-28.253419 4.309265-57.163893 8.234536-84.538393 17.672253-3.080484 2.065034-3.447412 4.488462-3.899672 7.893208-2.397829 17.996515 2.542893 39.722037-0.631456 58.332942-3.054885 17.902649-15.760817 42.529459-20.974601 61.575557-5.65751 20.658872-16.068012 64.391512-12.987527 83.872803 0.273062 1.740772 3.234082 2.372229 3.268215 2.713557 4.223933 39.167379 5.341782 52.701031 27.519563 86.483962 38.373791 58.443873 115.957628 82.908552 181.944848 95.068359 1.954102 0.358394 2.542893 3.165816 2.815956 3.208482l-7.867609-0.017066c-0.093865 3.916738 0.102398 7.884675 0 11.809946-0.435193 16.895732-0.298662 34.201058 0 51.105323-4.61646-3.498611-7.17642-3.498611-11.79288 0 0.068266-10.410502 1.996768-45.857406-1.766372-51.301587l-37.537538-7.671345c2.474627 27.3233-3.38768 59.945716 0 86.492496l-3.455945-2.380763-0.520525-13.345921h-7.816409c0.571724-16.904265 0.119465-34.175458 0-51.105323l-0.187731-27.3233c-32.477352-18.141579-51.52345 4.300732-82.362427 11.596616-4.940722-0.503459-13.269123-7.167886-15.726684-7.859076 5.077253-1.365312 48.238168-19.250895 47.171519-21.61459-3.319414-7.330017-28.663012-18.440241-37.40954-25.488663-21.187931-17.074929-49.228019-47.265384-53.008226-74.759347-4.445796-1.25438-6.783892 11.707548-7.270285 14.574702-0.383994 2.218631-1.331179 4.249533-0.307195 6.527896 9.121989 10.120373 14.51497 13.362988 19.378892 26.06892l-0.443726 11.477152-7.423882 0.315728c0.145064-9.173188-12.671799-22.049784-21.45246-19.523957-6.732693 1.937036-18.70477 34.380255-17.859983 43.118249-4.275132 2.175965-6.527896 5.102852-11.784347 3.925271V579.838502c0.938652-4.761524-0.435193-9.386518 1.766372-15.888815 10.581166-31.291237 31.035241-41.462809 25.744659-80.416858-3.421812-25.2156-30.625648-32.861346-52.299971-24.806007-15.061094 5.597778-28.296085 28.773944-30.207521 44.517694-3.566877 29.396867 31.393635 89.376716 47.128853 115.897896-1.46771 5.358848-3.81434 8.072405-7.859076 11.792879-30.053923-38.911383-45.729408-121.837001-108.03882-113.926726-35.148243 4.462863-45.874473 49.868009-21.682856 70.689012l-7.859075 7.859076z m625.039688-503.168554c15.777883 2.286897 31.154706 7.159353 47.171519 7.850543-15.018428-18.952233-35.276241-61.968084-57.84655-69.903959-60.850235-21.401261-152.291985-19.31916-215.22432-8.56733-18.252511 3.114617-36.965814 7.108154-51.207721 19.549556l-41.300679 56.976163 43.237715-5.904973c7.244685 3.524211 14.873364-3.805806 15.726684-3.933804 10.08624-1.501843 24.976671-3.157283 35.378639-3.933804 2.594092-0.196264 5.25645 0.119465 7.859075 0 2.611159-0.119465 5.247917 0.110932 7.859075 0 16.904265-0.742388 34.849581 2.116233 51.105323-1.885837v-2.047967c34.87518-0.110932 67.804791 3.319414 102.202113 3.933804 2.619692 0.042666 5.247917 0.017066 7.859075 0 1.314112-0.008533 2.619692 0.017066 3.933805 0l2.303963 3.507144c7.065488 1.177581 14.224841 0.136531 21.281796 0.42666 2.611159 0.110932 5.25645-0.136531 7.859075 0l2.457561 3.498611c3.029285 1.211714 6.544963 0.0256 9.335319 0.42666z m-330.217697-7.859075c-30.207521 0.63999-40.524157 35.079977-47.162985 58.955865l21.725522-7.748144 25.437463-51.207721z m432.41981 58.955865c3.566877-3.558344-9.915576-33.629333-13.857914-39.201512-7.219086-10.197172-20.035949-23.022568-33.313605-19.74582 14.139509 19.95915 17.42479 59.971316 47.171519 58.947332z m-39.312444-7.859075c-0.477859-20.38581-21.469526-23.244431-38.168994-26.68331-88.915923-18.30371-180.852599-15.078161-270.34878-8.61853l-82.055232 16.213076c-5.785508 2.739157-17.339458 21.153798-4.42873 19.182629 9.514516-1.459177 21.759655-6.408432 31.461902-7.867609 97.97818-14.762433 199.856031-13.968845 298.602198-3.933804l64.937636 11.707548z m-357.720193 7.867608c-2.491694 0.375461-5.392981-0.40106-7.859076 0-56.370306 9.121989-125.48921 22.911637-175.690014 50.337335-61.567024 33.637867-66.883206 62.241146 2.687958 89.38525 4.821257 1.877304 9.156121 0.947185 11.827012 1.791971 0.375461 0.119465 0.870386 2.483161 2.926887 3.089018 6.732693 1.971169 46.249933 10.615298 48.084571 8.61853l4.010603-62.812871c-1.766372-2.090634-43.126783 21.076999-49.612013 23.1079-11.972077 3.737541-9.779045-2.93542-9.343852-11.31502 6.050037-4.710325 27.152636-14.412571 35.318906-17.749052 145.66169-59.459324 441.098072-61.780354 585.84671 0 12.646199 5.392981 37.494872 14.48937 39.252711 29.541932-18.687704 2.542893-44.210499-20.658872-62.898203-23.58576v57.001763c0 0.588791 4.872456 10.035041 6.229235 9.949709 11.707548-5.879373 26.444381-5.49538 38.126328-8.823327 6.237768-1.774905 11.391819-5.922039 14.608835-7.022822 24.840139-8.533198 54.43327-15.726684 62.454477-44.603026-4.727392-28.628879-64.766973-53.870079-89.931374-63.546725-33.842663-13.013127-63.196864-18.627971-98.319508-25.505729-0.665589-0.127998-4.752991-2.662358-11.792879-3.933805-114.814179-20.684472-231.65926-21.042866-345.927314-3.933804z" fill="#502A20" p-id="4901"></path><path d="M753.711781 147.410159l2.449028 3.507145 9.343851 0.42666c35.122643 6.877758 64.476844 12.501135 98.319508 25.505729 25.164401 9.676647 85.203982 34.909313 89.931374 63.546725-8.021206 28.876342-37.614337 36.069828-62.454477 44.603026-10.666498-5.222317-7.944407-4.932188-1.962635-11.79288 4.240999-4.863923 9.44625-8.951325 13.746982-13.772581 0.947185-11.460085-3.345014-2.568493-7.850542-1.954102-1.749306-15.052561-26.606511-24.14895-39.252711-29.541932-144.740105-61.780354-440.185019-59.459324-585.84671 0-8.16627 3.33648-29.268869 13.038727-35.318906 17.749052-5.154052 4.010603-3.916738 8.106538-6.946023 13.866447l14.779499 23.491894-3.899672 1.945569c-2.679424-0.844787-7.005756 0.085332-11.827012-1.791972-69.579697-27.144103-64.254981-55.747383-2.687958-89.385249 50.200804-27.425698 119.319708-41.215346 175.690014-50.337335-10.342236 14.395505-18.098913 26.461447-15.735217 45.106485 0.529058 4.155667 6.143903 1.46771 9.847311 2.0821l6.007371-19.566623c16.708002 0.759455 32.758947-1.877304 49.040289-4.027669 6.835092-0.895986 12.680332 2.0821 17.66372-5.92204 1.851704-9.480383-7.705478-5.794041-13.738449-5.87084-17.126128-0.21333-30.557382 3.933804-47.180052 3.925271l1.962636-15.726684c114.268055-17.109062 231.113135-16.750668 345.927314 3.933804z m15.71815 43.237715c4.923655-12.304872 3.473012-19.549557-1.826104-31.581366l-17.800251-3.822873-0.0256 11.835546-48.980556-8.055339-17.825851 6.075637 37.452206 9.702246 34.90078 3.857006c3.737541 0.469326 3.985003 15.701084 14.096843 11.989143z m-416.684592-7.859076l-6.178035-11.690481-3.003686 0.332795c-13.311789 3.353547-96.382472 27.442765-96.937129 36.914614 10.5385 13.644584 27.528097-3.370613 39.235644-7.918807 20.761271-8.063872 44.662758-15.726684 66.883206-17.638121z m458.002337-7.876141l-3.97647 7.876141c5.239384 9.215854 30.429384 13.089926 41.343344 17.629587 10.163039 4.232466 21.554858 12.757131 31.197372 15.991214 5.512446 1.851704 10.316636 1.083716 11.98061-4.155668 1.885837-5.913506-14.216308-14.7027-18.49144-16.861599-18.670637-9.429184-42.094266-14.11391-62.053416-20.488209z" fill="#F2C26D" p-id="4902"></path><path d="M427.436422 92.379565l-43.237715 5.904973 41.300679-56.976163c14.241907-12.441403 32.955211-16.434939 51.207721-19.549556 62.940869-10.751829 154.382618-12.825397 215.22432 8.56733 22.561776 7.935874 42.828121 50.951725 57.846549 69.903959-16.016813-0.691189-31.393635-5.572178-47.171518-7.850543l-2.449028-3.498611c-3.063418-1.049583-6.254834-0.273062-9.343852-0.435193-2.611159-0.136531-5.247917 0.110932-7.859075 0 3.413279-7.568947 11.093157 1.425044 11.827012-9.668113 0.315728-4.795657 0.674123-10.845695-0.597324-15.317091-1.425044-5.000454-21.45246-31.257104-26.956372-26.103052l3.925271 15.709617-19.694621-1.791971-7.824943-17.87705-9.889976 3.942337 1.919969 11.502751-11.681948 8.149204c15.709618-2.730623 20.454076 15.137893 23.58576 27.528097-34.397321-0.605857-67.326932-4.036203-102.210646-3.933804-16.870132 0.051199-34.883713-1.621308-51.105323 1.885837v2.047967c-2.611159 0.110932-5.247917-0.119465-7.859075 0 4.420197-24.114818 13.286189-22.775105 33.450136-23.577226 7.705478-0.307195 6.160969 0.341328 5.87084-7.867609l-23.611359-3.942337 1.971169-19.651955c-12.43287 0.708255-8.16627 16.963998-17.578388 21.734055-7.287351 3.686342-15.905881 1.348245-23.679624 1.860237-2.065034-9.104922 9.01959-12.228073 11.775813-17.697852 3.353547-6.647361-4.966321-7.17642-9.642514-5.70871-8.371067 2.619692-14.002978 22.211914-18.551172 26.632111-5.811108 5.640444-22.655641 4.752991-30.770712 4.650593v11.784347l19.677554 0.017066-7.876142 19.643422z" fill="#F3C26C" p-id="4903"></path><path d="M765.50466 135.61728l-64.937636-11.707548c-98.746167-10.035041-200.624018-10.837161-298.602198 3.933804-9.702246 1.459177-21.947385 6.408432-31.461902 7.867609-12.910729 1.979702-1.365312-16.443473 4.42873-19.182629l82.055232-16.213076c89.487648-6.459631 181.432856-9.68518 270.34878 8.61853 16.699469 3.438879 37.682602 6.2975 38.168994 26.68331z" fill="#DF4A3E" p-id="4904"></path><path d="M895.23487 257.479881c4.514062-0.61439 8.797727-9.505983 7.850542 1.954102-4.309265 4.821257-9.505983 8.908659-13.746982 13.772581-5.981772 6.860691-8.703862 6.570562 1.962635 11.79288-3.217016 1.100783-8.371067 5.247917-14.608835 7.022822-11.681948 3.327947-26.418781 2.943953-38.126328 8.823327-1.348245 0.076799-6.229235-9.369451-6.229235-9.949709v-57.001763c18.687704 2.926887 44.210499 26.128652 62.898203 23.58576z" fill="#DBA355" p-id="4905"></path><path d="M234.816543 245.687001c-0.435193 8.371067-2.628225 15.052561 9.343852 11.31502 6.48523-2.022368 47.845641-25.190001 49.612013-23.1079l-4.010603 62.812871c-1.834638 1.988235-41.351878-6.655894-48.084571-8.61853-2.056501-0.597324-2.551426-2.969553-2.926887-3.089018l3.899672-1.945569-14.779499-23.491894c3.020752-5.759909 1.791972-9.855844 6.946023-13.866447z" fill="#E2AF63" p-id="4906"></path><path d="M427.436422 92.379565l7.876141-19.643421-19.677554-0.017067V60.934731c8.106538 0.110932 24.951071 0.989851 30.762179-4.650593 4.548195-4.411663 10.188638-24.012419 18.551172-26.632111 4.684726-1.46771 12.996061-0.930119 9.642514 5.708709-2.756223 5.46978-13.84938 8.59293-11.775813 17.697853 7.773743-0.511992 16.392273 1.826104 23.679624-1.860237 9.412117-4.770058 5.145518-21.0258 17.578388-21.734056l-1.971169 19.651955 23.611359 3.942338c0.290129 8.208936 1.834638 7.560413-5.87084 7.867609-20.163947 0.802121-29.02994-0.537591-33.450136 23.577226-2.602625 0.119465-5.264983-0.196264-7.859076 0-0.930119-4.770058 2.355163-19.054631-1.979702-19.660489-14.770966-2.073567-35.199442 5.119919-33.398937 23.594293-0.85332 0.127998-8.481999 7.458015-15.726684 3.933804z" fill="#D49C55" p-id="4907"></path><path d="M647.575864 84.52049c-3.131684-12.390204-7.876142-30.25872-23.585759-27.528097l11.681948-8.149204-1.91997-11.502751 9.889977-3.942337 7.824942 17.87705 19.694621 1.791971-3.925271-15.709617c5.49538-5.154052 25.531328 21.102599 26.956373 26.103052 1.271447 4.479929 0.921585 10.529966 0.597323 15.317091-0.742388 11.101691-8.413733 2.099167-11.827012 9.668113-7.056955-0.290129-14.216308 0.742388-21.281796-0.42666l-2.303963-3.507144c7.833476-0.102398 15.752284 0.076799 23.585759 0 1.075183-18.440241-12.449936-31.75203-29.541932-19.686088l2.030902 19.694621c-2.619692 0.017066-5.247917 0.042666-7.859076 0z" fill="#CD974E" p-id="4908"></path><path d="M407.784467 143.484888l-1.962636 15.726684c16.62267 0 30.053923-4.138601 47.180052-3.925271 6.032971 0.076799 15.590153-3.609543 13.738449 5.87084-4.983388 8.00414-10.837161 5.026054-17.66372 5.92204-16.281342 2.141833-32.332287 4.787124-49.040289 4.027669l-6.007372 19.566623c-3.703408-0.605857-9.318252 2.0821-9.84731-2.0821-2.363696-18.645038 5.401514-30.719513 15.735217-45.106485 2.466094-0.40106 5.367382 0.375461 7.859075 0z" fill="#C99046" p-id="4909"></path><path d="M804.817104 143.476355c-29.746728 1.023984-33.023476-38.996715-47.171519-58.947332 13.277656-3.268215 26.09452 9.548649 33.313605 19.74582 3.942337 5.572178 17.42479 35.643168 13.857914 39.201512z" fill="#EEBE74" p-id="4910"></path><path d="M372.397294 84.52049l-25.437463 51.207721-21.725522 7.748144c6.638828-23.875888 16.955464-58.315875 47.162985-58.955865z" fill="#E7BA73" p-id="4911"></path><path d="M443.163106 88.445761c-1.800505-18.474374 18.627971-25.66786 33.398937-23.594292 4.334865 0.605857 1.049583 14.898964 1.979701 19.660488-10.401968 0.776521-25.292399 2.431961-35.378638 3.933804z" fill="#F4C476" p-id="4912"></path><path d="M655.443472 84.52049l-2.030901-19.694621c17.100529-12.065942 30.617114 1.25438 29.541932 19.686088-7.824943 0.076799-15.752284-0.093865-23.585759 0-1.314112 0.017066-2.619692-0.008533-3.933805 0z" fill="#F2C574" p-id="4913"></path><path d="M545.373751 80.586686v2.047967c-16.247209 4.00207-34.201058 1.143449-51.105323 1.885837v-2.047967c16.221609-3.507144 34.23519-1.834638 51.105323-1.885837z" fill="#D49C55" p-id="4914"></path><path d="M702.614991 92.379565c-2.798889-0.40106-6.314567 0.785054-9.335319-0.426659l-2.457561-3.498612c3.080484 0.162131 6.271901-0.61439 9.343852 0.435193l2.449028 3.498612z" fill="#CD974E" p-id="4915"></path><path d="M765.50466 151.343964l-9.343851-0.42666-2.449028-3.507145c7.039888 1.271447 11.12729 3.797273 11.792879 3.933805zM769.429931 190.647874c-10.11184 3.711941-10.359302-11.519817-14.096843-11.989143l-34.90078-3.857006-37.452206-9.702246 17.825851-6.075637 48.980557 8.055339 0.025599-11.835546 17.800251 3.822873c5.299116 12.031809 6.74976 19.276494 1.826105 31.581366z" fill="#CF974C" p-id="4916"></path><path d="M810.747676 174.912657c19.950617 6.365766 43.382779 11.059025 62.053416 20.488208 4.283665 2.158899 20.377277 10.956626 18.49144 16.861599-1.672507 5.239384-6.476697 5.998838-11.98061 4.155668-9.642514-3.234082-21.034333-11.758747-31.197372-15.991213-10.91396-4.539661-36.103961-8.413733-41.343344-17.629587l3.97647-7.876142z" fill="#D0964E" p-id="4917"></path><path d="M352.745339 182.788798c-22.220448 1.911436-46.121935 9.565715-66.883206 17.638121-11.707548 4.548195-28.697145 21.571925-39.235644 7.918807 0.546125-9.47185 83.625341-33.561068 96.937129-36.914614l3.003686-0.332795 6.178035 11.690481z" fill="#C68945" p-id="4918"></path><path d="M788.382164 492.612152c-1.015451 0.972785-24.038019 11.76728-25.42893 11.972077-3.60101 0.529058-25.386264-6.178035-28.919008-9.241454-14.574702-12.637666-7.492148-41.590807 0.520525-56.506837 12.211006-2.602625 30.361119-8.755061 40.925218-0.674123 3.455945 2.645291 20.215146 19.643422 20.983134 22.246047 2.713557 9.23292-1.433577 25.821457-8.080939 32.20429z" fill="#FAC0A0" p-id="4919"></path><path d="M654.34269 364.71658m-13.576318 0a13.576318 13.576318 0 1 0 27.152636 0 13.576318 13.576318 0 1 0-27.152636 0Z" fill="#EEE9E1" p-id="4920"></path><path d="M419.739477 375.246546c-4.283665-11.656348-5.700176-15.871748 6.135369-23.014035l13.44832 1.476244c11.886745 17.894116-2.53436 24.899872-19.583689 21.546324z" fill="#F1EBE1" p-id="4921"></path><path d="M387.432789 492.620685c-6.050037 5.87084-35.08851 6.604695-42.64039 2.781822-4.505529-2.278364-13.934712-15.214692-15.086694-20.377276-5.188184-23.227365 27.246501-43.365712 48.13577-40.276695 11.016359 8.021206 20.83807 18.713303 20.658872 33.057609-0.051199 3.899671-8.575864 22.408178-11.067558 24.81454z" fill="#FABE9F" p-id="4922"></path><path d="M627.923909 772.449847c-2.022368 20.565007 6.613228 47.572579-9.68518 63.043267-28.637413 27.186769-105.999386 20.803937-115.462702-22.408178-2.705024-12.330471 0.588791-27.809692-0.63999-40.635089h125.796405z" fill="#4C7EA9" p-id="4923"></path></svg>