<?xml version="1.0" standalone="no"?><!DOCTYPE svg PUBLIC "-//W3C//DTD SVG 1.1//EN" "http://www.w3.org/Graphics/SVG/1.1/DTD/svg11.dtd"><svg t="1784019669846" class="icon" viewBox="0 0 1024 1024" version="1.1" xmlns="http://www.w3.org/2000/svg" p-id="44067" xmlns:xlink="http://www.w3.org/1999/xlink" width="200" height="200"><path d="M253.036047 611.090956m0 0l114.17197 0q0 0 0 0l0 87.951119q0 0 0 0l-114.17197 0q0 0 0 0l0-87.951119q0 0 0 0Z" fill="#FFFFFF" p-id="44068"></path><path d="M385.282021 504.833619m0 0l114.17197 0q0 0 0 0l0 194.208456q0 0 0 0l-114.17197 0q0 0 0 0l0-194.208456q0 0 0 0Z" fill="#FFFFFF" p-id="44069"></path><path d="M517.527994 287.81012m0 0l114.17197 0q0 0 0 0l0 411.231955q0 0 0 0l-114.17197 0q0 0 0 0l0-411.231955q0 0 0 0Z" fill="#FFFFFF" p-id="44070"></path><path d="M649.793318 406.490915m0 0l114.17197 0q0 0 0 0l0 292.531809q0 0 0 0l-114.17197 0q0 0 0 0l0-292.531809q0 0 0 0Z" fill="#FFFFFF" p-id="44071"></path><path d="M253.036047 716.999971m9.598186 0l498.737997 0q9.598186 0 9.598186 9.598186l0-0.019351q0 9.598186-9.598186 9.598186l-498.737997 0q-9.598186 0-9.598186-9.598186l0 0.019351q0-9.598186 9.598186-9.598186Z" fill="#FFFFFF" p-id="44072"></path><path d="M912.001826 511.993556c0 287.074775-112.914143 400.00827-399.988919 400.00827S111.985286 799.068331 111.985286 511.993556c0-287.074775 112.933494-399.988918 400.027621-399.988918 287.055424 0 399.969567 112.914143 399.969567 400.008269z" fill="#F2F2F2" fill-opacity=".992" p-id="44073"></path><path d="M425.300264 517.121619s-9.98521-125.337602 96.252776-126.227756c120.790074-0.967559 106.237986 126.227756 106.237985 126.227756s17.261254 43.57886 14.532737 63.568631c-3.096189 22.698936-20.705764-16.796825-20.705764-16.796826-3.347754 11.688114-5.611843 31.310211-5.611842 31.310212 14.281172-0.425726 30.420057 11.978381 2.264088 21.963591s-65.542451 9.869102-70.980133 5.340926c-5.457033-4.547528-13.932851-13.216857-19.370533-13.216857-5.457033 0-5.998866 3.212296-17.803087 13.216857-16.951635 9.675591-48.610168 5.379628-67.554974-0.058054-19.6608-9.462728-14.08766-19.544693 8.630627-23.144013-7.566312-9.888454-12.578268-23.801953-14.977814-35.412662 0 0-10.914066 27.227112-18.170759 25.408102-7.256693-1.79966-4.702337-20.667062-2.709166-28.601046 5.882759-23.608441 9.849751-43.57886 9.849752-43.578861z" fill="#219ADF" p-id="44074"></path><path d="M520.74029 187.338787A339.535828 336.555746 90 0 0 184.223246 526.874615a78.178773 75.817929 90 0 0 75.798578 78.178772 78.178773 75.817929 90 0 0 75.817928-78.178772 339.535828 336.555746 90 0 1 262.440722-330.324666 339.535828 336.555746 90 0 0-77.520833-9.211162z" fill="#FFD42C" p-id="44075"></path><path d="M234.90399 669.125149a336.555746 339.535828 60 0 0 462.299723 121.699579 75.817929 78.178773 60 0 0 29.800819-104.747945 75.817929 78.178773 60 0 0-105.599397-26.569172 336.555746 339.535828 60 0 1-417.288874-62.117292 336.555746 339.535828 60 0 0 30.768378 71.73483z" fill="#F14E1E" p-id="44076"></path><path d="M795.062637 675.781955a339.535828 336.555746 30 0 0-125.782679-461.216056 78.178773 75.817929 30 0 0-105.599397 26.549821 78.178773 75.817929 30 0 0 29.80082 104.767295 339.535828 336.555746 30 0 1 154.848153 392.441958 339.535828 336.555746 30 0 0 46.733103-62.543018z" fill="#9FD35E" p-id="44077"></path></svg>