<?xml version="1.0" standalone="no"?><!DOCTYPE svg PUBLIC "-//W3C//DTD SVG 1.1//EN" "http://www.w3.org/Graphics/SVG/1.1/DTD/svg11.dtd"><svg t="1784019604216" class="icon" viewBox="0 0 1024 1024" version="1.1" xmlns="http://www.w3.org/2000/svg" p-id="32424" xmlns:xlink="http://www.w3.org/1999/xlink" width="200" height="200"><path d="M512 512m-512 0a512 512 0 1 0 1024 0 512 512 0 1 0-1024 0Z" fill="#E2FDFF" p-id="32425"></path><path d="M514.503111 1023.931733a515.185778 515.185778 0 0 0 38.115556-1.683911c-12.652089 0.796444-25.258667 1.6384-38.115556 1.683911z" fill="#E2FDFF" p-id="32426"></path><path d="M911.291733 832.375467l-2.366577-12.288-272.930134-101.125689-213.970489-5.552356-282.168889 82.420622c-3.208533 15.928889-10.422044 31.789511-18.363733 47.104C215.381333 953.662578 355.464533 1024 512.022756 1024c0.841956 0 1.661156-0.068267 2.480355-0.068267 12.834133-0.045511 25.463467-0.887467 38.115556-1.683911 144.861867-11.377778 272.770844-82.966756 358.673066-189.872355z" fill="#FFFFFF" p-id="32427"></path><path d="M422.001778 624.935822c1.046756 40.777956 1.592889 70.2464 1.592889 88.428089 10.672356 24.3712 34.247111 51.6096 70.542222 81.669689 57.867378 4.278044 97.962667-9.989689 120.240355-42.871467 7.850667-11.514311 14.995911-22.573511 21.572267-33.200355v-126.839467l-213.947733 32.813511z" fill="#DEA06D" p-id="32428"></path><path d="M423.617422 713.363911c26.532978 47.422578 59.437511 71.156622 98.668089 71.156622 39.298844 0 77.2096-21.9136 113.686756-65.604266l-84.923734 276.8896h-60.711822l-66.719289-282.441956z" fill="#2B4583" p-id="32429"></path><path d="M322.605511 394.217244c-23.278933 1.410844-31.038578 24.576-23.278933 69.449956 11.605333 67.265422 19.478756 64.443733 35.566933 64.443733 16.1792 0 49.902933 177.743644 184.046933 177.743645 72.271644 0 130.912711-59.300978 175.672889-177.743645 10.763378-0.341333 18.295467-1.865956 22.619023-4.778666 13.266489-8.738133 15.291733-28.398933 21.321955-54.294756 13.494044-58.026667-10.399289-81.260089-37.205333-49.197511l15.883378-103.992889-258.844445-67.060622-90.544355 14.199467-45.238045 131.231288z" fill="#FDD1AC" p-id="32430"></path><path d="M397.198222 162.497422c-62.577778 20.252444-93.912178 78.119822-93.912178 173.511111 0 38.729956 19.911111 88.541867 39.958756 109.681778 12.9024 13.607822-4.892444-47.172267-5.211022-55.136711-2.889956-72.453689 22.7328-101.148444 72.112355-118.1696 82.284089-28.421689 269.038933 25.235911 279.096889 67.333689 7.827911 32.859022-14.267733 117.077333-2.980978 119.534933 5.028978 1.092267 16.5888-32.859022 19.592534-38.229333 22.459733-39.822222 51.996444-52.770133 15.997155-151.7568-28.489956-78.006044-136.669867-113.595733-324.653511-106.769067z" fill="#2E323A" p-id="32431"></path><path d="M389.552356 178.3808c-25.964089 62.6688 57.025422 168.664178 188.120177 168.664178 87.267556 0 144.975644-52.861156 172.987734-158.651734-51.382044 1.729422-98.258489-13.949156-140.765867-46.921955-83.126044-64.625778-199.862044-12.4928-220.342044 36.909511z" fill="#424650" p-id="32432"></path></svg>