<?xml version="1.0" standalone="no"?><!DOCTYPE svg PUBLIC "-//W3C//DTD SVG 1.1//EN" "http://www.w3.org/Graphics/SVG/1.1/DTD/svg11.dtd"><svg t="1784020087648" class="icon" viewBox="0 0 1024 1024" version="1.1" xmlns="http://www.w3.org/2000/svg" p-id="83998" xmlns:xlink="http://www.w3.org/1999/xlink" width="200" height="200"><path d="M214.336 63.466667A91.242667 91.242667 0 0 0 123.093333 154.709333v670.826667a91.242667 91.242667 0 0 0 91.242667 91.264h143.381333a364.48 364.48 0 0 1-53.312-64h-90.069333a27.242667 27.242667 0 0 1-27.242667-27.264V154.709333c0-15.061333 12.181333-27.242667 27.242667-27.242666h287.253333c15.04 0 27.242667 12.181333 27.242667 27.242666v188.266667c20.714667-4.608 42.112-7.466667 64-8.362667V154.709333a91.242667 91.242667 0 0 0-91.242667-91.242666H214.336zM805.76 202.730667v168.853333a361.578667 361.578667 0 0 0-64-33.130667V202.730667c0-15.061333-12.202667-27.242667-27.264-27.242667h-28.394667a32 32 0 0 1 0-64h28.394667a91.242667 91.242667 0 0 1 91.264 91.242667z" fill="#1B6DFA" p-id="83999"></path><path d="M341.76 696.874667c0-165.802667 130.56-301.610667 293.333333-301.610667 87.594667 0 165.888 39.36 219.498667 101.546667a27.242667 27.242667 0 0 1 5.482667 6.549333 305.834667 305.834667 0 0 1 68.330666 193.493333c0 83.029333-32.64 158.378667-85.610666 212.992a26.666667 26.666667 0 1 1-38.293334-37.141333 249.962667 249.962667 0 0 0 61.653334-108.544l-33.450667-7.722667a25.877333 25.877333 0 1 1 11.648-50.432l30.229333 6.976c0.341333-5.333333 0.490667-10.709333 0.490667-16.106666 0-51.925333-15.317333-99.925333-41.493333-139.626667l-20.202667 20.202667a25.898667 25.898667 0 0 1-36.608-36.608l23.786667-23.786667c-37.269333-36.693333-85.866667-61.034667-139.605334-67.029333v26.112a25.877333 25.877333 0 1 1-51.754666 0v-26.090667c-53.610667 5.973333-102.144 30.250667-139.370667 66.794667l22.122667 17.92a25.877333 25.877333 0 1 1-32.576 40.234666L436.906667 556.8a252.842667 252.842667 0 0 0-41.813334 140.074667c0 5.397333 0.170667 10.773333 0.512 16.106666l30.208-6.976a25.877333 25.877333 0 1 1 11.648 50.432l-33.429333 7.722667a249.941333 249.941333 0 0 0 61.653333 108.544 26.666667 26.666667 0 0 1-38.293333 37.12c-52.970667-54.613333-85.632-129.941333-85.632-212.949333z" fill="#1B6DFA" p-id="84000"></path><path d="M598.485333 738.197333a45.653333 45.653333 0 0 0 66.986667-41.877333l72.917333-93.802667a6.4 6.4 0 0 0-8.256-9.514666l-104 59.648a45.653333 45.653333 0 0 0-27.648 85.546666z" fill="#1B6DFA" p-id="84001"></path><path d="M160.853333 164.821333a59.242667 59.242667 0 0 1 59.221334-59.242666h287.253333c26.965333 0 49.728 18.026667 56.896 42.666666h159.04a56.042667 56.042667 0 0 1 56.042667 56.042667v260.032a266.517333 266.517333 0 0 1 128.213333 227.925333c0 147.285333-119.402667 266.666667-266.666667 266.666667a265.6 265.6 0 0 1-173.333333-64H220.074667a59.242667 59.242667 0 0 1-59.242667-59.242667V164.821333z" fill="#1B6DFA" fill-opacity=".08" p-id="84002"></path></svg>