<?xml version="1.0" standalone="no"?><!DOCTYPE svg PUBLIC "-//W3C//DTD SVG 1.1//EN" "http://www.w3.org/Graphics/SVG/1.1/DTD/svg11.dtd"><svg t="1784019634660" class="icon" viewBox="0 0 1327 1024" version="1.1" xmlns="http://www.w3.org/2000/svg" p-id="39137" xmlns:xlink="http://www.w3.org/1999/xlink" width="259.1796875" height="200"><path d="M1196.1369 229.623565c56.550418 55.274303 91.59727 123.397232 112.174624 198.363842 24.117544 87.876983 24.704145 177.771051 4.296597 266.265509-25.172397 109.190162-89.652224 190.135988-188.648902 243.161653-83.431163 44.674316-173.700862 64.382059-266.898421 74.853406-167.407762 18.791822-335.371252 10.203774-502.959111 8.495427-92.929987-0.951941-183.282015-25.56861-255.377366-90.830572-40.732767-36.878694-68.920501-83.889124-80.302623-137.527118C-21.842818 602.68652 0.998611 422.682268 115.76663 262.107895 184.892956 165.40102 274.09751 90.738002 388.114268 49.76339c0.483689 1.662037 1.492231 3.833491 0.735824 4.914072-40.511505 58.119834-31.887438 125.079851-34.331609 190.043367-0.380776 10.172901 0.679222 20.567063-4.651645 29.962974-7.522904 8.233-15.848525 3.246889-23.813953 1.147474-30.225401-7.965427-53.391005 1.209222-71.246323 26.937347a349.593759 349.593759 0 0 0-43.959074 86.878732c-31.527244 92.626395-60.841869 186.261332-56.859155 285.58733 2.727181 67.875939 24.904825 128.110625 88.607661 163.92932 25.697251 14.459206 53.967315 21.477839 83.72961 21.765994 12.766296 0.118349 25.789872-1.373882 38.005586 4.219412 42.158105 51.070328 100.442599 56.962068 160.646411 57.147311 56.52469 0.180097 113.04938-0.051456 169.57407 0.102912 17.176096 0.041165 34.089765-2.068541 51.132075-3.905529 51.389356-5.541838 88.998729-28.553073 106.082204-79.417576 13.430081-18.390464 35.15491-15.344254 53.64314-20.155413 40.398302-10.507366 61.721771-38.298887 56.797409-76.103793-2.747764-21.107354-14.49008-36.029666-32.227049-46.989847-5.732226-3.545336-12.786878-7.486884-11.757753-15.380273 1.111455-8.505718 9.750959-8.371932 16.023476-10.157463 13.1728-3.766597 27.076279-4.615626 39.950632-9.50397 26.397056-10.013386 42.868202-28.794917 44.540529-57.234786 1.651746-28.110549-10.692609-49.449456-36.559665-62.431868-29.185985-14.649594-29.083072-14.850274-9.3496-38.592187 18.838133-22.671624 21.302887-49.099553 7.106108-76.407385-16.188136-31.156759-15.23105-32.468893 19.193181-42.235289 42.832182-12.138529 85.664364-24.467447 125.157035-45.85781 8.289602-4.492131 16.538039-9.025426 24.266768-14.433478 30.323168-21.220557 53.401296-46.053343 43.495968-87.336692a12.246587 12.246587 0 0 1 4.090771-6.632711" fill="#D6EEF6" p-id="39138"></path><path d="M345.683445 276.628849c2.860967-45.044801 2.300094-90.182223 5.26912-135.299063 2.366987-35.865006 11.510763-66.388853 37.161703-91.566396 22.121042-14.021828 47.103051-20.232597 72.100497-26.39191 77.359326-18.549978 156.087387-12.066491 234.306032-11.243191 32.02637 0.334466 64.587884 4.466402 95.718916 14.418042 37.851217 12.10251 62.684003 36.487627 72.656224 75.594376 10.085425 39.559565 5.058149 79.865245 6.864264 119.826168a19.589394 19.589394 0 0 1-1.842134 8.762999c-15.622117 10.142027-30.595886 23.319972-51.20926 11.5262-5.711644-17.196679-7.219312-35.165201-8.953387-52.999937-3.190287-32.916563-21.719683-52.891879-51.857608-63.491866-14.665031-5.161062-30.071032-7.203875-45.394704-8.284456-74.359426-5.222809-148.811474-8.052903-222.826143 3.529899-45.348393 7.100962-65.195068 28.259772-72.867195 73.582436-1.713493 10.142027-3.499025 20.284054-3.416695 30.601032 0.65864 89.003875-9.262125 177.812216-4.826596 266.85211a10.394162 10.394162 0 0 1-4.023879 7.075234c-20.839781 0.077184-37.923256-10.599987-55.680807-19.491627a19.254929 19.254929 0 0 1-4.425238-6.889992c-3.509316-12.164257-1.759804-24.683563-2.511065-37.048499 0.030874-6.956885 0.704951-13.841731 2.356697-20.61852 12.658237-41.90597 22.414342-83.85825 2.207473-126.35082-1.260678-4.19883-1.255532-8.274165 1.193785-12.092219" fill="#0087C1" p-id="39139"></path><path d="M866.595641 228.918614c-7.152419-27.688608-4.075335-56.020419-5.094168-84.079511-2.794074-76.515443-40.887136-114.737145-117.258502-121.086847-94.746392-7.877952-189.348707-6.143876-284.033352-0.37563C528.255364 1.795875 596.985476-3.498974 668.730925 2.094321c91.026105 7.095817 178.589205 25.789872 263.455998 57.394301 100.139007 37.29549 192.446373 87.866692 263.949977 170.140089l-0.349902 5.999798c-0.843882 0.118349-1.898736 0.632912-2.505919 0.308738-96.933283-50.921105-195.749865-27.90987-294.535573-7.703001-10.584551 2.161162-21.292596 7.471447-32.149865 0.684368" fill="#D6EEF6" p-id="39140"></path><path d="M866.595641 228.918614c85.741549-23.453759 172.224067-38.607624 261.582991-25.275309 26.021425 3.879801 48.82169 13.394062 67.613511 31.985204 12.143675 28.969868 4.641354 52.809549-18.122891 73.474379-48.420331 43.959074-109.066667 61.680606-169.538051 79.808643-12.117947 3.632811-24.632107 5.958634-40.166748 9.642901 16.898232 20.459005 30.451808 39.899176 28.820645 66.393999-1.631163 26.541134-16.131534 44.031113-37.799761 61.047695 20.778034 4.703101 38.221702 11.726879 50.823338 26.952783 13.224256 15.97202 19.34755 34.470542 16.177845 54.852362-9.30329 59.869346-58.361678 63.394099-103.730653 71.308071-0.566019 10.780084 9.236397 9.483387 14.165905 12.601635 28.048802 17.752406 37.974712 43.665773 32.798213 74.853407-4.703101 28.331811-22.100459 47.612468-50.272755 55.41838-20.479587 5.675624-41.267912 10.214066-61.922451 15.261924-1.090872-1.276115-2.181745-2.55223-3.288054-3.823199-1.435629-65.853708-3.416695-131.923533 0.792426-197.525106 3.689413-57.435466 3.154268-114.701126 3.694559-172.054261 0.617475-65.123029 0.025728-130.25635 0.236698-195.384525 0.041165-12.725131-1.584852-25.908222 6.432032-37.326364 0.627766-0.689514 1.193785-1.430484 1.703201-2.212619M347.360918 415.95179l-1.497376 20.448714c-0.072039 13.358042-10.94989 26.849871 0.473397 40.084418l1.142329 2.192037c9.658338 10.754356 7.471447 24.107253 7.53834 36.698597 0.308737 56.468088-0.169806 112.936177 0.216117 169.399119a1587.322386 1587.322386 0 0 0 10.651443 173.850085 14.510662 14.510662 0 0 1-3.818053 8.871057c-29.916663 0.344757-59.843618 2.068541-89.106788-7.111254-70.525936-22.126187-106.308612-73.865446-121.230924-142.677888-15.303089-70.597974-0.725533-139.420708 15.555224-207.744317C181.522572 450.211361 198.148086 391.088131 226.078538 335.947614a264.768132 264.768132 0 0 1 22.774536-37.033063c28.707442-39.034711 55.186828-44.859558 96.840662-22.290848l1.821551 8.799019c13.322023 43.531987 7.023778 87.027955-0.154369 130.529068" fill="#00BA5A" p-id="39141"></path><path d="M362.067115 867.495817c0.272718-1.466503 0.514562-2.933006 0.720387-4.414946 2.783783-3.488734 6.524652-5.413197 10.790376-6.221061 44.221501-8.361641 75.218746-33.662678 94.787557-73.73166 2.608832-5.35145 5.490382-10.599987 10.723482-14.057847a18.719784 18.719784 0 0 1 7.82135-1.996503c37.357237 2.320677 75.126124 1.461357 110.270743 17.963377 10.008241 4.697956 19.707744-0.463106 29.535887-3.920966 27.493074-9.684066 55.752846-13.779984 84.805045-7.764748 4.872907 4.03417 6.154167 9.895037 8.047758 15.539787 13.872605 41.319368 37.635101 55.53673 81.527281 50.401397 18.143474-2.130289 35.772385-12.231151 54.728867-4.322325 0.41165 0.746116 0.818154 1.507668 1.198931 2.26922-13.404353 55.017022-42.333057 78.846411-102.372209 87.702032-50.344795 7.425137-100.874832 5.531547-151.332829 5.366887-54.620809-0.180097-109.488608 3.360093-163.615437-9.0563-33.47229-7.677272-60.039152-23.865409-77.637189-53.756344" fill="#0086C1" p-id="39142"></path><path d="M402.120659 497.602567c-5.073586-105.433855-2.099415-210.744216 6.895138-315.828168 3.282909-38.381217 35.937045-65.056136 82.9166-70.021665a1131.435452 1131.435452 0 0 1 238.504862-0.092621c54.414984 5.742517 80.148254 31.882292 86.158345 86.770674 1.677474 15.318525 2.907278 30.683362 4.337762 46.03276a18.215512 18.215512 0 0 1 6.370283 13.440373c1.265824 49.037806 4.517859 98.106485-1.888444 147.020796-4.209121 10.085425-13.862314 11.680569-22.784827 14.232799-19.67687 5.608731-39.888885 8.850475-59.823036 13.316877-35.967918 8.058049-54.131975 28.017928-59.190124 64.155652-1.276115 9.107756-0.447669 19.069686-9.725231 25.120941-44.144316 9.164358-88.813487 1.970774-133.168774 4.296597-15.534642 0.818154-31.727923-2.475046-46.207712 8.305039 65.591281 10.816104 131.748581 3.164559 197.31928 8.073485 13.810857 2.300094 24.801912 10.816104 36.688306 17.176096 19.270365 10.311832 19.208618 16.790174 0.756407 29.741712-4.908926 3.45786-10.250085 5.984362-16.208719 7.100963-61.274102 3.54019-122.594515 0.8233-183.884053 1.569415-15.35969 0.190388-30.662779 0.241844-45.641694 3.956986-9.539989 1.656891-13.970372-4.960382-17.181241-11.865811-15.169302-32.607825-35.772385-61.130024-62.339247-85.391646-1.873007-1.703202-1.986211-4.538441-1.903881-7.111254" fill="#FEFEFE" p-id="39143"></path><path d="M820.645211 409.293352l0.2933-164.824659c14.659885-4.456111 29.324917-8.901931 43.974511-13.342605 3.962131 123.880921 3.653394 247.8699 0.102913 371.647908-1.703202 59.689249-1.713493 119.38879-3.231453 179.067748-0.463106 17.983959-0.874756 35.767239-5.958634 53.133723-19.990753 4.121646-39.806555 10.224357-60.003132 12.004743-52.567705 4.615626-80.107089-19.645996-84.671259-72.074768 0.998251-0.921067 1.996502-1.847279 2.984463-2.778638 13.888042-3.78718 27.74521-11.927559 41.797911-0.473397 4.651645 7.214166 5.387469 15.956583 8.989407 23.618418 4.960382 10.522803 11.732025 19.131434 24.735019 18.266969 12.025326-0.807863 20.46415-7.82135 25.409096-18.472794 5.135334-11.073385 2.96388-21.261722-5.042712-30.565012-6.215915-7.229603-19.038812-9.673775-17.073184-23.072982 17.129785-40.3417 20.474442-82.654174 19.7592-125.851696-0.951941-57.384009-0.308737-114.788601-0.216116-172.172611 0.015437-11.953287-0.668931-24.20502 8.15067-34.110347M479.43882 771.514475c-20.191432 56.596729-62.385557 89.719117-116.651318 91.566396-5.876304-11.485035-9.884746-23.505215-10.558822-36.497918-6.015236-115.910348-6.231352-231.89788-4.754558-347.905994 18.796968 1.929609 36.178889 7.543486 51.121784 19.537937 11.562219 13.286004 12.344354 29.330062 12.611927 45.893829 0.735824 46.243731-2.202327 92.518337 1.800969 138.73634 3.205724 36.997043 17.258426 66.100698 55.238283 78.697189 4.862616 1.610581 9.061446 4.852324 11.191735 9.972221" fill="#00694B" p-id="39144"></path><path d="M479.43882 771.514475c-55.706536-15.426584-73.361175-38.6951-75.337095-102.207549-1.168057-37.532188-0.915921-75.126124-0.710096-112.678895 0.108058-19.666579-0.674077-39.158206-4.795723-58.41828a30.204818 30.204818 0 0 1 3.524753-0.607184c36.297238 25.800164 59.138668 61.407888 74.601271 102.392791 9.179795 5.145625 11.129987 14.690759 14.376876 23.484632 3.673976 13.440372 7.152419 26.911619 7.12669 41.00034 1.204076 15.982311-0.679222 31.954331 0.267573 47.941788-1.538542 20.453859 2.212619 42.477134-16.918815 57.764785l-2.135434 1.327572z" fill="#00C85C" p-id="39145"></path><path d="M569.754829 70.037153c-16.188136 0.015437-32.381418-0.010291-48.569554 0.025728-5.372032 0.015437-11.670277-0.771844-12.380374-6.432031-0.730679-5.866012 5.233101-7.90368 10.497075-7.924263 34.08462-0.133786 68.169239-0.061747 102.259005-0.102912 4.749412-0.010291 9.210669 1.770095 9.555426 6.411448 0.483689 6.42174-4.682519 8.011738-10.229503 8.011738-17.04231 0-34.089765 0-51.132075 0.010292" fill="#CCEAF4" p-id="39146"></path><path d="M347.360918 415.95179l0.149224-130.523922c14.839982 13.399207 14.98406 31.244235 15.056098 49.207611 0.102912 28.095112-2.289803 55.680808-15.205322 81.316311" fill="#00694E" p-id="39147"></path><path d="M346.331793 476.479777c-6.200478-0.74097-18.092017 5.469799-12.555324-9.843581 3.689413-10.203774 8.042612-20.160559 12.092218-30.230546l0.463106 40.074127" fill="#B2E2EB" p-id="39148"></path><path d="M481.5794 770.186903c6.236497-18.421337 10.368434-37.244033 10.461055-56.802553-1.183494-22.753954 11.953287-28.722878 31.908021-28.547928 65.400893 0.57631 130.806932-1.209222 196.156369 0.926213 5.094169 0.334466 10.198629 0.90563 15.1127 2.547084 27.312977 9.133484 29.96812 18.143474 8.289602 37.336655-15.539787 13.754256-19.357841 34.012581-31.841127 49.120136l-0.514563 0.138932c-31.475788 7.533195-66.471183-2.814657-95.307265 19.069686-3.380676 2.572812-11.263773 3.262326-14.665031 1.085727-35.468793-22.666478-76.752142-14.860565-114.932679-22.846575-1.626017-0.344757-3.118249-1.337862-4.672228-2.027377" fill="#FEFEFE" p-id="39149"></path><path d="M610.101674 288.134466c0 59.452551 0 59.452551 59.972259 59.452551 9.406202 0 18.81755-0.041165 28.228899 0.005146 27.755501 0.133786 28.789772 1.662037 20.119393 29.407246-17.556872 56.169642-73.906611 92.966006-127.827615 83.456892-62.184878-10.965327-101.353375-59.179833-99.825124-122.898107 1.286406-54.09081 44.226646-101.173278 97.468428-108.701327 16.090369-2.279512 24.107253-0.447669 22.141624 18.24124-1.425338 13.538139-0.277864 27.354142-0.277864 41.031214" fill="#0091C8" p-id="39150"></path><path d="M711.66602 774.76651c-0.555727-33.600931 20.947839-52.099453 48.641592-67.654677l-30.714235-14.958332c-15.848525-5.341159-21.344052-19.234346-27.21521-32.859961-2.866113-12.256879-2.505919-24.647544-1.636309-37.074228 1.960483-12.889791 6.17475-24.503466 18.225803-31.568409l23.206769-19.625413c-17.279009-4.764849-32.453457-11.176297-45.487325-21.910071-11.881248-7.16271-23.047254-14.78338-20.083374-31.429478-1.059999-61.665169 13.707945-80.683399 74.611562-94.540567 22.990652-5.238246 46.26946-9.262125 69.419626-13.841731-0.154369 81.753689 0.596892 163.527961-0.910775 245.266213-0.612329 32.844524-2.830094 66.512348-25.090068 94.175228-13.50212 8.361641-26.633755 17.268717-39.672768 26.319872-14.356294-10.579405-28.908121 6.066692-43.295288-0.298446" fill="#00C85C" p-id="39151"></path><path d="M630.03068 268.503907c0.005146-13.635906 0.751261-27.323269-0.180097-40.897427-1.209222-17.608329 7.836787-20.145122 22.131333-17.284154 43.233541 8.660087 83.287086 50.298484 90.676203 93.753287 2.994754 17.628911-2.613977 24.956281-21.364635 23.896282-22.93405-1.301843-46.073926-1.415047-68.99254 0.030874-18.714638 1.183494-24.030069-6.555526-22.481235-23.721331 1.07029-11.834937 0.205825-23.849972 0.210971-35.777531" fill="#ADDEEE" p-id="39152"></path><path d="M718.967661 590.645758l-12.802314 30.693652c-8.06834 8.047757-18.575706 7.785331-28.68686 7.847078a13074.981554 13074.981554 0 0 1-163.219223 0.056602c-10.301541-0.051456-20.459005-0.941649-28.918412-7.893388l-8.624068-21.35949c5.675624-9.195232 14.289401-10.136881 24.246185-10.080279 72.666516 0.504271 145.333031 0.550582 218.004692 0.74097" fill="#AEDEEE" p-id="39153"></path><path d="M676.603731 517.685941l20.083374 31.429478c-64.948078-0.056602-129.896156-0.087476-194.844234-0.205825-10.121444-0.010291-20.767742 1.986211-21.272014-14.309983-0.540291-17.258426 9.982512-16.589495 21.704246-16.58435 58.109543 0 116.219085-0.205825 174.333774-0.32932" fill="#AFDEEE" p-id="39154"></path><path d="M754.966454 775.05981c6.33941-19.141725 20.29949-26.808706 39.672768-26.314726 26.896182 12.051054 36.63685 28.146569 28.115695 48.121885-7.476593 17.562018-21.199975 27.817249-40.460049 23.844826-24.297641-5.011839-27.621715-24.760747-27.33356-45.651985" fill="#FBFCFC" p-id="39155"></path><path d="M485.345997 621.354847l220.824495-0.020582 2.758055 40.424029c-7.682418 8.593194-18.189784 8.516009-28.280355 8.608631-53.463043 0.499126-106.931232 0.442524-160.394275 0.036019-10.172901-0.072039-20.541335-0.334466-28.506762-8.356495l-6.406303-40.696747" fill="#FEFEFE" p-id="39156"></path><path d="M491.7523 662.051595c72.393797-0.102912 144.787595-0.190388 217.176247-0.288155l20.66483 30.390061c-69.018268 0.319029-138.057118 1.327571-207.065094 0.463106-17.037164-0.216116-27.065987 3.884947-30.482682 20.772888l-0.293301-51.3379" fill="#B0DFEE" p-id="39157"></path><path d="M756.458685 523.202051c-22.285702-0.679222-35.443065-13.908624-34.877046-35.082871 0.555727-20.865509 14.613575-33.827338 36.575102-33.71928 21.199975 0.102912 35.535686 14.40775 35.443065 35.355589-0.092621 20.17085-15.565515 34.105202-37.135976 33.446562" fill="#FCFEFD" p-id="39158"></path><path d="M805.728044 637.532692c1.780386 20.932402-8.737271 31.064138-29.515305 31.625011-22.774536 0.612329-33.024621-9.22096-33.004038-31.568409 0.020582-22.342304 13.548431-38.602478 32.633553-36.822092 21.163955 1.97592 31.239089 14.989205 29.88579 36.76549" fill="#FDFEFD" p-id="39159"></path></svg>