<?xml version="1.0" standalone="no"?><!DOCTYPE svg PUBLIC "-//W3C//DTD SVG 1.1//EN" "http://www.w3.org/Graphics/SVG/1.1/DTD/svg11.dtd"><svg t="1784020706547" class="icon" viewBox="0 0 1024 1024" version="1.1" xmlns="http://www.w3.org/2000/svg" p-id="4632" xmlns:xlink="http://www.w3.org/1999/xlink" width="200" height="200"><path d="M903.843858 116.942522l-1.783454-30.088307-20.710244-11.144449-19.310787 89.394526c-15.470817 7.893274-27.135796 11.784445-42.683412 0.708262-34.192809-24.35395 10.282589-62.053933 39.491969-37.631717-0.989859-14.719889 4.497033-28.936315 7.372744-43.229541 1.399456-6.946081 5.367426-46.85618 13.252167-46.702581 6.596217 3.94237 8.575935 12.34764 12.962036 16.998271 5.836756 6.18662 23.406757 14.156693 25.924071 22.809429 4.292234 14.736956 0.520529 32.477622-14.51509 38.886107z" fill="#512F27" p-id="4633"></path><path d="M142.411727 20.055785l4.317834 29.414178c-11.280982 3.404774-7.859141-10.59832-11.784444-14.446824l-29.431245-4.283701c5.265027 24.669681 32.221624 70.280004 24.507549 93.848893-4.770097 14.574824-27.46006 20.889443-40.678094 14.12256-29.636043-15.172152-9.582861-51.481212 19.925183-48.008172 4.206902-3.737572-28.040322-75.749829-22.493697-89.949189 11.298048-3.976503 14.796689 8.994066 21.068641 10.786052 9.932725 2.824512 23.603022 0.179199 34.568273 8.524736z" fill="#543129" p-id="4634"></path><path d="M903.826791 278.118908l-22.715562 63.470455c-38.50211 6.229286-39.056772-33.945344 0.230398-22.254766l7.51781-29.977374-29.99444-7.509277c-1.032526 9.164731-12.37324 42.777278-18.551327 47.043912-8.490603 5.862356-25.173144-1.297057-25.907005-12.040442-1.570122-22.894761 27.033396-10.069257 29.380045-12.578039l17.288403-37.222119 42.751678 11.076183z" fill="#54332A" p-id="4635"></path><path d="M120.489759 195.644862l26.419001 69.43521c0.307198 19.780118-22.331565 32.247224-37.682916 18.679326-17.194537-15.206285-2.423448-39.227438 18.764658-35.643464l-11.272448-29.960308c-14.037228-1.169058-28.057389 17.083605-41.19009 1.860253l44.953262-24.362484z m10.743386 72.089057c0-4.343434-3.52424-7.867674-7.867674-7.867674s-7.867674 3.52424-7.867674 7.867674 3.52424 7.867674 7.867674 7.867674 7.867674-3.52424 7.867674-7.867674z" fill="#4D3128" p-id="4636"></path><path d="M123.374004 267.733919m-7.867674 0a7.867674 7.867674 0 1 0 15.735348 0 7.867674 7.867674 0 1 0-15.735348 0Z" fill="#C7BCB4" p-id="4637"></path><path d="M371.615334 941.51231c2.005318 0.162132 10.316722 3.293842 18.739059 3.746105 6.195153 0.332797 12.535372-0.238932 18.739058 0-2.764779 27.494193-34.329341 56.370775-61.900333 59.903549-7.057014 0.904527-31.42803 1.407989-37.102654-0.255998-11.332181-3.319442-2.747713-14.498024-2.278383-20.36038 1.501855-18.815858-7.364211-29.23498-7.398344-46.787914 23.278758 10.359389 46.890313 1.783453 71.201597 3.746105z" fill="#F6C27F" p-id="4638"></path><path d="M555.276884 945.266948l61.763801-0.076799 50.662018-11.170049c2.884245 3.319442-10.000991 36.471192-10.62392 43.818336-0.648528 7.645809 15.735348 21.27344 0.750928 26.888331-2.022385 0.759461-16.716674 4.215435-18.227063 4.215435-3.618106 0-7.313012-3.046377-11.383381-3.60104-39.483436-5.316227-49.07483-13.525231-68.54775-47.615641-2.380782-4.164235-5.35036-7.270345-4.394633-12.467106z" fill="#F5C17E" p-id="4639"></path><path d="M716.436203 551.71258c-4.369034 3.259709-9.207397 7.355678-14.984421 7.509277v3.729038c9.378063 3.413308 14.378558-5.555158 18.730526-7.483677 19.711852-8.721001 63.615521-22.655829 78.72794-35.583732 4.667698-3.99357 5.725824-11.664979 9.446329-16.793473 6.058621-8.35407 25.889938-20.147048 1.757853-18.858525l0.358398-12.76577c0.49493-1.919986 1.988252-2.901311 3.319441-4.172769 7.441011-7.09968 14.131094-4.002103 22.587564-1.791986l-3.754639 14.992953c3.182909 2.739179 22.416898-6.21222 26.265402-9.335396 8.251671-6.698616-7.739675-9.651127-7.739675-18.764659 7.014347-20.462779 30.642969-17.860132 26.461668 5.623425 16.290011-4.761564 22.911827-9.062332 38.86904 0.477863 24.840346 14.847888 41.352222 58.34196 28.031789 85.170558-5.290627 2.013851-15.743881 4.650632-18.16733 9.932725-3.268242 7.12528 6.826615 5.410093 9.488995 9.198864 2.568514 3.652239 2.952511 8.132205 0.017067 11.545513-8.721001 7.756742-14.114027 7.415411-24.35395 3.464508l-0.162132-14.864955-26.239802 7.51781c-3.481574 11.280982 11.502847 5.529558 11.383381 16.895873-0.127999 12.100176-16.86174 15.001487-26.367802 13.081501v-18.747592c-4.949296-1.075192-8.789267 3.737572-13.081501 3.754638-6.118354 0.0256-20.257981-7.790875-25.702207-6.980214-3.874104 0.580262-27.835524 13.576431-28.509652 16.682541 8.37967 19.293721-1.72372 48.742033-13.371632 65.185642-3.097577 4.377567-7.51781 5.572225-9.284197 7.560477-5.29916-1.38239-9.668194 2.278383-14.020161 3.08051-3.848504 0.708261-4.445833-3.029311-4.718898-3.08051l3.746105-7.483677c-13.115635 1.407989-21.811036-0.238932-33.732012-3.754638l0.409597-8.917267 3.336508-2.329582c15.641482 2.21865 41.966617 3.234109 50.568152-11.280982 18.995057-32.059492-12.757237-77.379684-46.711114-54.203325-16.622808 11.340715-26.982197 45.652989-11.349248 61.738202-0.486396 0.170665-1.100792 4.130102-4.872497 3.362108l-15.45375-6.886348c-2.013851 0.49493-1.971185 3.438907-2.16745 3.52424-1.075192 0.46933-2.798912-0.503463-3.746106 0l-7.500743-13.107101 15.001487-1.885853v-7.475144l-7.500744-3.771705c1.237324-0.597329 2.867178-5.094362 7.492211-3.754638v-3.729038c-3.660772-0.324264-7.662876 0.460797-11.238316-0.008534-2.397849-0.315731-4.130102-1.100792-3.746105-3.746105l14.992954-11.238315-14.992954 3.737572-5.29916-0.401064-2.19305-3.353575c7.167946-3.285309 13.968961-7.731142 21.401439-10.487387 9.454862-3.49864 7.065547-5.76849-0.844794-4.590899-8.209005 1.220257-19.600919 9.591394-27.989122 13.2607-5.802623 2.534381-14.071361 3.362108-18.807325 5.563691v-7.49221c3.635173-1.544522 6.988747-4.027703 11.238315-3.754638v-3.729039c-0.870393-0.733861-19.933716 2.824512-22.485164 3.737572l-3.754638-3.737572 7.005814-0.324264 0.494929-10.931118c46.011387-20.428646 76.95302-46.344184 101.196038-89.949189 12.168442-21.879302 14.19936-27.82699 18.739059-52.471071 0.059733-0.324264 3.310908-0.86186 3.805838-5.410093 3.251176-30.062707-1.518922-63.171791-9.31833-92.142239-6.749816-25.053678-25.523008-61.064073-28.125655-84.317231-6.724216-60.125414 5.367426-110.20717-19.643585-171.510175-16.776407-41.11329-32.477622-45.030061-71.696527-24.592881-9.659661 5.034629-23.270225 13.78123-32.272823 20.198247-12.620705 8.994066-37.392785 35.899463-50.781485 35.728798-9.471929-0.119466-23.978486-6.562084-33.800278-7.697009-35.046136-4.078903-69.443744-2.961044-104.780011 0l-37.068521 7.159413c-27.48566-22.561963-83.549237-72.763185-120.532425-67.284826-11.605246 1.715187-22.049967 23.142226-26.188603 33.757612-10.683653 27.40886-18.97799 74.000509-20.72731 102.962424-1.493322 24.712347 3.430374 55.440649 0.162132 78.873006-1.553055 11.152983-13.832429 35.728798-17.843066 49.629493-11.90391 41.266889-17.6724 69.750941-15.888947 113.415679 0.102399 2.483181-0.221865 5.034629 0 7.49221 0.750928 8.277271 3.592506 10.615387 3.746105 11.246849 4.556766 18.739059 6.980214 24.584348 14.992954 41.224222 30.318705 62.984059 101.554435 101.033906 168.660063 116.188992l4.4373 10.726319 6.809549 0.529063v3.729038l-7.492211 0.008534c-25.736339-6.297553-45.874854-10.59832-71.278396-20.548112-13.243634-5.188228-21.725703-16.614275-35.506933-1.911453-14.259093 15.206285-20.940642 47.444976-16.895872 67.429892 0.477863 7.765275 1.442122 16.409476-7.492211 18.739059-1.228791-2.798912-4.147169-11.912444-5.614891-11.238315-1.877319 0.86186-18.448928 17.570001-20.693177 20.539579-23.219025 30.651502-22.877694 71.449062-13.149768 106.99866 14.98442 54.757987 52.25774 120.993222 114.422605 127.324908l26.239802 5.631957c1.698121 9.156198-7.270345 5.367426-13.124167 5.614891-7.98714 0.341331-15.351351-3.686372-13.115635 7.49221 5.009029 4.223968 43.579405-7.98714 48.716433 7.500744-24.319817-1.962652-47.931372 6.613284-71.201597-3.746105 0.042666 17.552934 8.908733 27.972056 7.398344 46.787914-0.46933 5.870889-9.053798 17.049472 2.278383 20.36038 5.674624 1.663987 30.04564 1.160525 37.102654 0.255998 27.570992-3.532773 59.135555-32.409356 61.900334-59.903549-6.203687-0.247465-12.543906 0.324264-18.739059 0l-7.49221-5.614891c2.722113-5.862356 9.796193-4.616499 11.238315-5.623424l22.681429-1.689587 11.050584-20.80411c12.910836-4.650632 7.901807-1.638388 14.992953 0-10.743386 22.903294-16.563075 47.419376-30.48937 68.829348-9.753527 14.992954-25.975271 29.60191-43.391673 35.319201-21.24784 6.971681-44.381532 9.847392-65.970703 3.848504-10.052191-2.790379-17.808933-12.518306-16.938539-22.99716 0.44373-5.307693 6.877815-13.542298 6.877815-19.404654 0-12.996169-16.631341-43.058876-15.53055-59.442752-62.105132-44.355933-114.909001-159.623331-76.150893-230.876128 2.841579-5.222361 17.476135-25.63394 21.230773-29.371512 1.604255-1.604255 5.922089-1.809053 8.644202-4.3605 14.796689-13.883629 7.253279-18.841458 9.386596-35.703198 2.363716-18.696392 15.957213-36.880789 29.900575-48.784699-36.658924-23.594489-66.943496-50.918016-84.368431-91.766775-20.607845-48.323903-20.044649-92.935833-8.447937-143.495453 5.69169-24.806213 22.442498-57.693432 25.309676-79.632467 3.950904-30.284572 0.145066-69.315744 3.643706-101.298436 2.978111-27.152862 12.748704-84.530563 28.37312-106.554931 27.605125-38.911707 57.5057-26.239802 93.029699-7.02288 24.72088 13.380166 45.533524 32.417889 68.658683 47.658307 38.118113-5.427159 76.876221-9.907125 115.736728-7.167946 14.378558 1.015459 46.659915 11.758845 58.026229 5.879423 7.176479-3.711972 18.97799-17.237203 26.299535-22.425431 19.259588-13.65323 47.666841-32.409356 70.100806-38.595976 16.093745-4.4373 24.499015-5.777023 39.8333 3.310908 24.712347 14.634556 37.708516 61.371271 42.794344 88.387601 9.019665 47.897239 2.201583 94.343823 8.285804 137.889094 1.954119 14.003095 16.75934 40.806093 21.572104 57.13877 26.606733 90.427052 17.271337 181.084502-62.796327 240.825919z m123.681201-56.217177c-21.555038 13.550831-31.342697 16.955606-19.481453 43.843937 12.646305 28.680317 22.101167 37.136787 52.078541 24.371016 5.188228-2.210117 10.137524-7.270345 12.381774-8.243138 11.699112-5.102895 24.729414-8.883133 36.343192-14.259092 4.198368-1.945585 8.294338-4.249568 12.45004-6.28902l3.302375-4.181302c5.981822-19.02919-19.404654-65.450174-38.937307-65.296574-11.110316 0.093866-46.523383 22.758229-58.128628 30.054173z m-52.471071 52.462538l-7.51781-5.683157-22.468097 13.183901 29.977374-7.49221z m22.485164-3.729038c-9.727927-0.904527-18.133197 5.034629-26.214203 9.514595-5.282094 2.926911-9.437796-0.665595-7.500743 9.224464l33.723479-18.730526z m6.263419 5.179694l-34.03921 18.150263 2.773313 5.205295 34.03921-18.150264-2.773313-5.205294z m7.62021 11.332181l-29.23498 14.61749 2.730646 5.469826 29.23498-14.61749-2.730646-5.469826z" fill="#4C2B20" p-id="4640"></path><path d="M652.718283 652.908617l3.703439 5.623425-11.204183 9.369529c-9.301263 4.189835-18.346528 14.736956-29.985907 15.018554-1.33119 1.228791 8.132205 28.876582 7.628742 35.396-0.699728 9.079398-5.683157 31.0355-9.420729 39.611435-9.932725 22.741162-34.696272 42.93941-57.983563 50.704684-12.014843 4.010636-26.5726 3.541307-38.749575 6.229287-7.057014 1.561588-18.901191 2.568514-21.409972 10.444721 17.979598-0.91306 36.565058 1.220257 54.510523 0.170665 26.410468-1.553055 62.762194-6.621817 88.925197-12.27084 13.533765-2.918378 26.316602-9.045265 40.131964-10.470322-0.324264-11.716178 0.870393-23.713955 0.008533-35.438666-1.237324-16.844673-8.081006-74.043176-13.141234-88.063337-4.215435-11.682045 1.672521-7.065547 9.471929-7.586076 5.896489 6.033021 2.295449 10.069257 5.452759 15.172153 6.203687 10.035124 48.059371 0.665595 59.383019-4.684765 4.82983-2.278383 19.558253-14.574824 21.375839-14.233493 0.273065 0.0512 0.870393 3.788771 4.718898 3.08051 4.351967-0.802127 8.721001-4.4629 14.020161-3.08051-26.5214 29.695776-52.692936 40.959691-93.703828 37.486651l7.500744 71.201597c8.857533 1.117858 12.535372-8.516203 18.832925-13.013235 22.391298-16.016946 53.162266-14.301759 71.18453 7.330078 26.137403 31.37683 16.793473 82.380179-7.49221 112.579418-18.602527 23.125159-41.992217 34.406141-70.152005 42.290882-6.263419 1.74932-13.78123-1.30559-18.150263 4.343434-1.783453 2.61118-12.936436 43.579405-12.927903 47.001246 0.0256 7.978607 6.903415 16.998272 3.234109 29.516577-8.831933 30.130973-80.178596 14.864955-100.624309 0.366931-20.812643-14.754022-38.749575-50.858284-49.569759-74.111442-3.148776-6.758349-5.666091-22.647296-12.748704-24.729414-9.360996-2.747713-47.018312-0.955726-59.758484-0.546129-5.333293 0.170665-12.287907 4.061836-12.944969 3.908238-7.082613-1.638388-2.082118-4.650632-14.992953 0-16.290011 5.862356-21.674503 14.071361-33.732013 22.485163-1.442122 1.006926-8.524736-0.238932-11.238315 5.623425l7.49221 5.614891c-8.422337-0.452263-16.733741-3.583973-18.739059-3.746105-5.137028-15.487883-43.715937-3.276775-48.716433-7.500744-2.235716-11.178582 5.119961-7.150879 13.115635-7.49221 5.845289-0.247465 14.822288 3.54984 13.124167-5.614891l-26.239802-5.631958c37.930381 3.865571 80.562593-18.500127 105.018942-46.779381 14.139627-16.349743 24.592881-42.683412 43.511139-53.938793 22.510764-13.397232 49.996423-8.593002 73.684778-16.264411 8.567402-2.773312 27.553926-12.39884 34.602406-17.868665 22.809428-17.715067 38.834907-65.706172 18.679326-90.000389-6.493818 6.715683-17.168937 7.944473-24.371016 11.221249l-11.246849-7.492211c6.382885-3.225576 14.207893-5.486892 18.739059-11.246848 9.019665-3.618106 16.528942-8.806334 22.485164-11.246849 15.308685-6.263419 33.356549-10.914051 48.724966-18.739059z m67.464025 127.43584c-7.372744 6.024488-14.344425 12.415906-22.672896 17.134805-0.870393 22.049967 1.74932 45.507924 0.349864 67.353092-0.409597 6.434085-2.901311 13.183901-3.908237 20.462779-1.220257 8.755134-2.26985 17.518801-3.746105 26.23127 39.056772-5.37596 76.492224-27.178462 89.155595-66.3803 6.894881-21.350239 7.313012-44.202334-6.621817-62.992593-11.810044-15.92308-32.511755-18.406261-48.861499-7.321544-2.653847 1.80052-2.995177 4.957829-3.686372 5.521025z m-41.224223 37.478118c-21.162507-0.674128-41.778885 10.419122-62.625661 14.207893-21.512371 3.908237-52.172407 7.09968-74.017576 8.439403-18.457461 1.134925-37.503717-1.501855-56.012378 0.204799l-32.230157 52.10414h78.710873c-0.904527 7.927407 11.519913 35.413067 17.245737 37.102654 41.60822 1.604255 82.115648 2.184517 121.573484-12.595105 6.18662-4.164235 2.491715-12.748704 3.558373-18.926791 0.708261-4.087436 3.797305-7.031414 3.797305-7.449544v-73.087449z m-123.681201 127.444373c-0.955726 5.196761 2.013851 8.294338 4.394633 12.467106 19.481453 34.09041 29.064314 42.290881 68.54775 47.615642 4.070369 0.546129 7.765275 3.592506 11.383381 3.601039 1.518922 0 16.213211-3.455974 18.227063-4.215435 14.98442-5.614891-1.399456-19.242522-0.750928-26.88833 0.622929-7.347145 13.499632-40.498895 10.62392-43.818337l-50.662018 11.170049-61.763801 0.0768z" fill="#4C2D25" p-id="4641"></path><path d="M720.182308 555.458685c-4.3605 1.928519-9.352463 10.896985-18.739059 7.483677v-3.729039c5.785556-0.145066 10.62392-4.249568 14.984421-7.509277l3.746105 3.746106z" fill="#C9C1BF" p-id="4642"></path><path d="M247.934132 671.65621c11.639379 26.436068 32.511755 38.442377 39.449303 52.377205 3.037844 6.092754 3.686372 20.445713 7.338611 30.139506 10.256989 27.221128 30.14804 54.971319 41.258356 82.422846l7.116747 3.481574 20.838243-13.166834c-2.858645-10.299656-6.792482-25.412075-11.06765-35.319201 8.362604-2.355182 18.423328-5.819689 26.299535-9.309797 15.334284-6.783949 39.355437-15.97428 52.411338-24.430749 23.603022 17.715067 58.290761 15.880414 78.85594-5.478359 5.811156-6.033021 8.063939-16.093745 11.093249-20.761443 7.313012-11.238315 38.10958-23.449423 52.471072-29.985908 7.202079-3.276775 17.877199-4.505566 24.371016-11.221248 20.164115 24.294217 4.130102 72.285322-18.679326 90.000388-7.04848 5.478359-26.035004 15.095353-34.602406 17.868666-23.688355 7.671409-51.174014 2.867178-73.684778 16.26441-18.909724 11.255382-29.371512 37.58905-43.511139 53.938794-24.456349 28.279254-67.088561 50.644952-105.018942 46.779381-62.164865-6.340219-99.429651-72.56692-114.422605-127.324907-9.727927-35.549599-10.069257-76.347158 13.149768-106.998661 2.24425-2.961044 18.815858-19.669185 20.693177-20.539579 1.476256-0.674128 4.3861 8.439403 5.614891 11.238316z" fill="#F7BF68" p-id="4643"></path><path d="M652.718283 570.451639l-0.49493 10.931117-7.005814 0.324264 3.754639 3.737572c-6.886348 2.474648-21.563571 12.211108-29.985908 14.992954-7.039947 2.329582-17.979598 3.191443-26.291002 5.657557-6.570617 1.954119-8.917266 1.066659-7.44101 9.335397 3.379175 2.884245 31.180565-8.951399 37.478117-11.238316 12.646305-4.607965 25.113411-9.744993 37.478118-14.992953v7.49221c-28.048855 13.055902-58.896623 30.14804-86.203084 44.978861-26.529933 7.51781-49.458827 21.060108-74.905036 31.914426C470.40499 685.821436 438.610029 694.440038 412.839557 712.880432c-0.716795-2.227183-3.174376-9.932725-3.746106-11.246848 13.610564-36.402926 51.583611-58.316361 88.07187-38.339978l73.121583-34.721872c4.061836-3.635173 5.068762-4.275168 1.902919-9.429262-14.59189-23.765154-46.85618-40.541561-74.930636-37.350119-51.182548 5.828223-70.638401 65.782971-125.63532 56.123311-1.544522 5.896489 1.493322 6.178087 3.763172 9.343929 11.272448 15.684149 21.128374 27.263795 26.214202 46.873247 11.835644 45.60179-24.601415 74.239441-67.455492 59.971815-2.261316 2.500248 5.623424 14.779622 7.483677 18.739059 1.186124 2.508781 3.57544 3.387708 3.746106 3.746105 1.169058 2.406382 1.928519 7.227679 3.746105 11.246849 1.151991 2.551447 3.635173 3.481574 3.746105 3.746105 4.275168 9.898592 8.200472 25.011012 11.06765 35.3192l-20.838243 13.166834-7.116747-3.481573c-11.110316-27.451527-31.001366-55.201717-41.258356-82.422846-3.652239-9.693794-4.309301-24.046752-7.338611-30.139506-6.946081-13.934828-27.809924-25.941138-39.449303-52.377206 8.934333-2.329582 7.970073-10.973784 7.49221-18.739059 0.86186 4.241035 13.593498 28.32192 16.964139 33.638147 2.790379 4.403167 24.021152 30.07124 26.137403 30.062707l65.219776-61.780868c-6.280486-12.159908-17.040938-22.015834-20.377447-35.541066-1.663987-6.749816-1.996785-6.60475 3.882638-11.340714l15.359884 18.355062c18.252662 2.918378 33.330949-1.629854 50.218288-7.133813l-17.706533-6.63035c-6.920481 1.834653-13.994561-4.104502-16.016946-4.607966h7.49221v-3.737572l-6.809548-0.529062-4.4373-10.726319c10.120457 2.286916 50.644952 9.122065 57.650765 7.031413 30.361371-29.192313 70.314137-38.638642 109.891439-22.766762 8.081006 3.242642 21.27344 13.823896 26.017938 15.197753 15.53055 4.505566 67.045895-14.515091 83.805235-21.947568zM375.344372 671.647676c-9.31833-0.699728-14.105494 9.779126-20.522512 15.069753-15.206285 12.543906-31.829094 24.260084-43.178341 41.147424 17.476135 4.036236 30.847768 17.698 49.876958 14.293225 29.456845-5.265027 30.378438-32.725087 20.556645-56.609706-1.954119-4.753031-7.714075-7.739675-6.741283-13.900696z" fill="#502D25" p-id="4644"></path><path d="M379.107544 607.93829c2.022385 0.49493 9.096465 6.442618 16.016946 4.607965l17.706533 6.63035c-16.887339 5.503959-31.974159 10.060724-50.218288 7.133813l-15.359884-18.355062c-5.879422 4.735964-5.546625 4.590899-3.882638 11.340715 3.336508 13.525231 14.09696 23.381157 20.377447 35.541065l-65.219776 61.780868c-2.124784 0-23.355557-25.65954-26.137403-30.062707-3.370641-5.316227-16.102279-29.397112-16.964139-33.638146-4.04477-19.984916 2.63678-52.223607 16.895873-67.429892 13.789763-14.702823 22.263299-3.285309 35.506933 1.911452 25.403542 9.949792 45.542057 14.250559 71.278396 20.548112z" fill="#2C79B4" p-id="4645"></path><path d="M885.096266 555.458685c-5.316227-4.90663-7.389811-0.827727-11.246849 0-0.255998-5.35036 0.947193-11.204182-0.486396-16.36681-0.554662-1.996785-3.148776-2.116251-3.259709-2.372249-4.147169-9.514595-6.809549-12.339107-14.992954-18.739059l3.507174-8.925799c-1.100792-4.087436-4.787164-4.445833-7.253279-6.067155-3.814371-2.517314-8.43087-3.899704-11.246849-7.49221 11.613779-7.295945 47.018312-29.960308 58.128629-30.054173 19.532653-0.162132 44.919128 46.267385 38.937307 65.296574l-3.302375 4.181302c-4.155702 2.039451-8.251671 4.343434-12.45004 6.28902-11.613779 5.367426-24.644081 9.156198-36.343193 14.259092z m9.429262-64.016585c0-6.024488-4.88103-10.905518-10.905518-10.905517s-10.905518 4.88103-10.905518 10.905517 4.88103 10.905518 10.905518 10.905518 10.905518-4.88103 10.905518-10.905518z m21.623304 37.623184c0-6.13542-4.974896-11.11885-11.11885-11.11885s-11.11885 4.974896-11.118849 11.11885 4.974896 11.11885 11.118849 11.118849 11.11885-4.974896 11.11885-11.118849z" fill="#F4BF6D" p-id="4646"></path><path d="M735.175262 645.416407c-0.452263-0.068266-2.184517-5.623424-7.492211-3.746105-15.624416-16.085212-5.265027-50.388954 11.349248-61.738201 33.953878-23.176359 65.706172 22.152366 46.711115 54.203325-8.601535 14.506557-34.918137 13.499632-50.568152 11.280981z" fill="#F6C47C" p-id="4647"></path><path d="M701.443249 615.4305l7.500744 3.771705v7.475143l-15.001487 1.885853 7.500743 13.107101c-11.408981 6.007421-26.427534 17.245737-37.478118 22.485164-4.616499 2.184517-15.863347 2.449048-18.739058 3.746105l11.204182-9.369529-3.703439-5.623425c5.469825-2.790379 12.245241-10.811652 20.590778-11.263915l-6.946081-3.208509-62.369663 33.211483c-5.956222 2.440515-13.474032 7.628743-22.485164 11.246849-1.629854 0.657062-6.877815 0.187732-11.332181 1.689587-16.912939 5.708757-33.979477 20.974775-52.377206 24.558748-0.554662 7.159413 7.637276 3.52424 11.443114 2.073585 10.333789-3.959437 23.133692-11.818578 33.527214-17.075072l11.246849 7.492211c-14.361492 6.527951-45.15806 18.747592-52.471072 29.985907l-3.746105-14.992954-1.877319-3.729038-84.325765 33.714946c-2.414915 0.307198-5.282094-0.452263-7.49221 0-0.093866-1.80052 3.046377-5.222361 3.746105-7.49221 45.670056-18.329462 90.392919-39.270104 134.92805-59.971815 27.630725-12.84257 57.855564-23.49209 82.456979-41.224223 18.832925-5.307693 38.459444-13.900695 56.217177-22.485164z" fill="#5A3428" p-id="4648"></path><path d="M731.429157 656.663256c11.920977 3.515707 20.616378 5.162628 33.732012 3.754638l-3.746105 7.483677c-1.809053-0.341331-16.546009 11.95511-21.375839 14.233493-11.323648 5.341826-53.179333 14.719889-59.383019 4.684765-3.148776-5.102895 0.44373-9.139131-5.452759-15.172153-4.4629-4.565299-8.371137-3.148776-11.246849-7.49221 11.050583-5.239427 26.069137-16.477743 37.478118-22.485164 0.947193-0.503463 2.670913 0.46933 3.746105 0 9.634061 8.063939 14.09696 11.417514 26.239802 14.992954z" fill="#1D86C3" p-id="4649"></path><path d="M697.697144 607.93829l-52.471071 29.985907c-2.798912 0.785061-7.953007-0.947193-11.332182 1.681054l-74.870902 39.543169c-44.791129 13.960428-88.191336 36.547991-131.181945 56.217176-4.095969 1.877319-8.575935 2.517314-11.246849 3.746105-5.137028-5.597824 0.059733-7.039947 0-7.49221l277.356844-127.43584c-0.383997 2.653847 1.348257 3.430374 3.746105 3.746105z" fill="#59362B" p-id="4650"></path><path d="M693.951039 596.691441l-112.37462 54.408123-168.728329 73.019184c-0.255998-0.46933-3.123176-0.281598-3.57544-2.338116-1.126392-3.609573 3.097577-4.343434 3.57544-5.162628 40.567161-21.631837 84.709762-36.129861 126.309448-55.474782 12.228175-5.69169 23.193425-13.158301 34.858404-19.489986 2.790379-0.793594 7.96154 0.947193 11.340715-1.681054 33.663746-15.803614 67.327493-31.556029 101.102172-47.043913l2.19305 3.353575 5.29916 0.401064z" fill="#57352A" p-id="4651"></path><path d="M851.364253 502.987613l-18.431861 12.799904 7.185012 7.978607 14.992954-5.79409c8.183405 6.399952 10.845785 9.224464 14.992954 18.739059-8.780734-1.604255-13.721497 3.05491-18.670793 9.574328 4.718898 15.667082 10.23139 11.784445 22.416898 9.164731 3.857038-0.827727 5.930622-4.90663 11.246849 0-2.24425 0.981326-7.193546 6.033021-12.381774 8.243138-29.985907 12.774304-39.44077 4.309301-52.078541-24.371017-11.852711-26.888331-2.073584-30.293105 19.481453-43.843936 2.815979 3.592506 7.423944 4.983429 11.246849 7.49221z" fill="#EFB45E" p-id="4652"></path><path d="M693.951039 596.691441l14.992954-3.737572-14.992954 11.238315L416.594195 731.628024c-0.264531-1.962652-2.559981-5.341826-3.746105-7.49221l168.728329-73.019183 112.37462-54.408124z" fill="#AB9E98" p-id="4653"></path><path d="M660.219026 596.691441c4.735964-2.201583 13.004702-3.029311 18.807325-5.563691 8.388203-3.660772 19.771584-12.031909 27.989123-13.260701 7.91034-1.177591 10.299656 1.092258 0.844793 4.590899-7.432477 2.756246-14.233493 7.193546-21.401438 10.487388-33.774679 15.487883-67.438425 31.240298-101.102172 47.043912-3.379175 2.628247-8.541802 0.895993-11.340715 1.681054 27.306461-14.830822 58.154229-31.92296 86.203084-44.978861z" fill="#968A8A" p-id="4654"></path><path d="M697.697144 607.93829c3.57544 0.46933 7.577543-0.315731 11.238315 0.008533v3.729038c-4.625032-1.339723-6.254886 3.15731-7.49221 3.754639-17.757733 8.584469-37.384252 17.177471-56.217176 22.485164l52.471071-29.985908z" fill="#A79D9E" p-id="4655"></path><path d="M427.83251 911.526403l-11.050583 20.804109-22.681429 1.689588c12.057509-8.413803 17.450535-16.622808 33.732012-22.485164z" fill="#354A61" p-id="4656"></path><path d="M648.972178 585.444592c2.542914-0.91306 21.614771-4.471433 22.485164-3.737572v3.729039c-4.249568-0.273065-7.603143 2.210117-11.238316 3.754638-12.364707 5.24796-24.831813 10.384988-37.478117 14.992954l-3.746105-3.746105c8.413803-2.781846 23.099559-12.509772 29.985907-14.992954z" fill="#37527E" p-id="4657"></path><path d="M727.683051 641.670302c5.307693-1.877319 7.039947 3.686372 7.492211 3.746105l-3.336509 2.329583-0.409596 8.917266c-12.142842-3.57544-16.597208-6.920481-26.239803-14.992954 0.187732-0.085333 0.153599-3.029311 2.167451-3.52424l15.45375 6.886348c3.771705 0.767994 4.3861-3.182909 4.872496-3.362108z" fill="#5A3428" p-id="4658"></path><path d="M782.36424 567.528141l34.033236-18.14941 2.77502 5.203587-34.033237 18.14941z" fill="#A49089" p-id="4659"></path><path d="M810.131497 544.228903l-33.723479 18.730525c-1.937052-9.881526 2.21865-6.297553 7.500743-9.224463 8.081006-4.479966 16.494809-10.410588 26.214203-9.514595z" fill="#9E8B87" p-id="4660"></path><path d="M794.763933 575.404348l29.240953-14.61749 2.732353 5.465559-29.240953 14.61749zM787.646333 547.957941l-29.977374 7.492211 22.468097-13.175368 7.509277 5.683157z" fill="#A9968F" p-id="4661"></path><path d="M678.958085 817.822575v73.087449c0 0.41813-3.089043 3.362108-3.797305 7.449544-1.066659 6.178087 2.628247 14.762555-3.558373 18.926791-39.457836 14.779622-79.965264 14.19936-121.573484 12.595105-5.725824-1.689587-18.150263-29.166714-17.245737-37.102654h-78.710873l32.230157-52.10414c18.508661-1.706654 37.554917 0.930126 56.012378-0.204799 21.836635-1.339723 52.505204-4.531166 74.017576-8.439403 20.846776-3.788771 41.463154-14.882021 62.625661-14.207893z" fill="#314766" p-id="4662"></path><path d="M663.965131 664.155466c2.867178 4.343434 6.783949 2.935445 11.246849 7.49221-7.799408 0.520529-13.687364-4.095969-9.471929 7.586076 5.060229 14.020161 11.90391 71.218663 13.141235 88.063337 0.86186 11.724712-0.332797 23.722488-0.008534 35.438666-13.815363 1.425056-26.606733 7.551943-40.131964 10.470322-26.163003 5.649024-62.514729 10.726319-88.925197 12.27084-17.945465 1.049592-36.530925-1.092258-54.510522-0.170665 2.508781-7.876207 14.344425-8.883133 21.409972-10.444721 12.176975-2.68798 26.734732-2.21865 38.749574-6.229287 23.287291-7.773808 48.059371-27.963523 57.983564-50.704684 3.746105-8.575935 8.721001-30.532037 9.420729-39.611435 0.503463-6.519418-8.959933-34.167209-7.628743-35.396 11.639379-0.281598 20.684644-10.828718 29.985908-15.018554 2.875712-1.297057 14.131094-1.561588 18.739058-3.746105z" fill="#2B80BA" p-id="4663"></path><path d="M693.951039 885.2866c1.015459-7.278878 3.49864-14.028694 3.908237-20.462779 1.399456-21.845169-1.220257-45.303125-0.349864-67.353093 8.328471-4.718898 15.300151-11.110316 22.672896-17.134804 2.68798 8.43087 12.637771 8.686868 18.653726 13.209501 14.429758 10.845785 31.206165 37.187987 20.693178 54.263058-12.501239 20.300647-43.596472 31.89736-65.578173 37.469584z" fill="#F4BF7E" p-id="4664"></path><path d="M720.182308 780.344457c0.691195-0.563196 1.032526-3.720505 3.686372-5.521025 16.349743-11.084716 37.051454-8.601535 48.861499 7.321545 13.934828 18.790258 13.516698 41.642353 6.621817 62.992592-12.663371 39.210371-50.090289 61.00434-89.155595 66.3803 1.476256-8.712468 2.525848-17.476135 3.746105-26.231269 21.981701-5.572225 53.076933-17.168937 65.578172-37.469584 10.512987-17.075071-6.263419-43.417273-20.693177-54.263058-6.015955-4.522633-15.965746-4.778631-18.653726-13.209501z" fill="#F2ECDC" p-id="4665"></path><path d="M603.993317 671.65621l62.369663-33.211484 6.946081 3.20851c-8.337004 0.452263-15.120953 8.473536-20.590778 11.263915-15.368418 7.825008-33.416282 12.484173-48.724966 18.739059z" fill="#A49898" p-id="4666"></path><path d="M581.508153 682.894525c-4.539699 5.759957-12.356174 8.01274-18.739059 11.246848-10.393522 5.256494-23.193425 13.115635-33.527214 17.075072-3.805838 1.459189-12.00631 5.085828-11.443114-2.073585 18.397728-3.583973 35.464266-18.849991 52.377205-24.558748 4.454366-1.501855 9.702327-1.032526 11.332182-1.689587z" fill="#A9998F" p-id="4667"></path><path d="M517.790233 716.626537l3.746105 14.992954c-3.037844 4.667698-5.282094 14.728422-11.09325 20.761444-20.565178 21.358772-55.252917 23.193425-78.855939 5.478358 1.220257-0.785061 2.414915-5.674624 3.746105-7.49221l82.456979-33.732012z" fill="#4C2D25" p-id="4668"></path><path d="M431.587149 746.612445l3.746105 3.746105c-1.33119 1.817586-2.534381 6.707149-3.746105 7.49221-13.047368 8.447936-37.068521 17.638267-52.411339 24.430749-7.876207 3.481574-17.936932 6.946081-26.299535 9.309797-0.110932-0.264531-2.594114-1.194658-3.746105-3.746105 28.287787-5.74289 51.464146-25.779006 78.736473-33.749079 1.151991-0.998392-3.669306-5.478359-3.771705-7.475144 2.210117-0.452263 5.077295 0.307198 7.492211 0z" fill="#A27E5C" p-id="4669"></path><path d="M409.093451 701.633584c-0.44373-1.015459-5.614891-6.374352-7.49221-7.492211-5.085828-19.609452-14.941754-31.189098-26.214202-46.873246-2.278383-3.165843-5.316227-3.447441-3.763172-9.34393 55.005452 9.659661 74.461306-50.303621 125.63532-56.123311 28.074455-3.191443 60.338745 13.584964 74.930636 37.350119 3.165843 5.154095 2.158917 5.785556-1.902919 9.429262l-73.121583 34.721872c-36.479725-19.976383-74.452772 1.937052-88.07187 38.339978z" fill="#F7BF68" p-id="4670"></path><path d="M375.344372 671.647676c-0.972793 6.169554 4.787164 9.156198 6.741283 13.900696 9.813259 23.88462 8.9002 51.34468-20.556645 56.609706-19.037723 3.404774-32.409356-10.256989-49.876958-14.293225 11.349248-16.878806 27.972056-28.603518 43.178342-41.147424 6.417018-5.29916 11.204182-15.769481 20.522512-15.069753z" fill="#F2C47A" p-id="4671"></path><path d="M409.093451 701.633584c0.571729 1.30559 3.029311 9.019665 3.746106 11.246848 0.187732 0.580262 0.264531 3.302375 0 3.746105-0.477863 0.819194-4.701831 1.553055-3.57544 5.162628 0.452263 2.047985 3.310908 1.868786 3.57544 2.338116 1.194658 2.150384 3.481574 5.529558 3.746105 7.49221 0.059733 0.460797-5.137028 1.894386 0 7.49221-15.641482 7.219146-32.272824 17.092138-48.6567 24.43075-7.799408 3.49864-17.971065 6.937548-26.299536 9.301263-1.868786-3.959437-9.744993-16.238811-7.483677-18.739059 42.854077 14.267626 79.291136-14.361492 67.455492-59.971815 1.885852 1.117858 7.04848 6.476751 7.49221 7.49221z" fill="#E1B674" p-id="4672"></path><path d="M424.086405 746.612445c0.110932 1.996785 4.923696 6.476751 3.771705 7.475144-27.272328 7.970073-50.440153 28.006189-78.736473 33.749079-1.817586-4.010636-2.577047-8.840467-3.746105-11.246849 21.452638-3.507174 47.368176-24.533149 66.3035-29.371512 4.522633-1.160525 9.019665 0.076799 12.407373-0.614395z" fill="#F4CB7F" p-id="4673"></path><path d="M574.007409 641.670302c-11.656446 6.331686-22.63023 13.798296-34.858404 19.489987-41.591153 19.344921-85.742287 33.834412-126.309448 55.474782 0.264531-0.44373 0.187732-3.165843 0-3.746105 25.761939-18.440394 57.565433-27.058996 86.262816-39.295704 25.446208-10.854318 48.375102-24.396616 74.905036-31.914427z" fill="#A3948C" p-id="4674"></path><path d="M618.98627 600.437546l3.746105 3.746105c-6.297553 2.295449-34.098943 14.12256-37.478117 11.238315-1.476256-8.260204 0.870393-7.381278 7.44101-9.335396 8.311404-2.466115 19.251055-3.327975 26.291002-5.657557z" fill="#346EB0" p-id="4675"></path><path d="M427.83251 739.120235c-0.699728 2.26985-3.848504 5.700224-3.746105 7.49221-3.387708 0.691195-7.876207-0.546129-12.407373 0.614395-18.935324 4.838364-44.850862 25.864338-66.3035 29.371512-0.179199-0.366931-2.559981-1.237324-3.746106-3.746105 8.328471-2.372249 18.500127-5.811156 26.299536-9.301263 16.383877-7.338611 33.023751-17.211604 48.6567-24.430749 2.66238-1.228791 7.142346-1.868786 11.246848-3.746105v3.746105z" fill="#AD8660" p-id="4676"></path><path d="M851.364253 502.987613c2.466115 1.621321 6.152487 1.979718 7.253279 6.067155l-3.507174 8.925799-14.992954 5.79409-7.185012-7.978607 18.431861-12.799903z" fill="#533525" p-id="4677"></path><path d="M870.103312 536.719626c0.110932 0.255998 2.705046 0.383997 3.259709 2.372249 1.433589 5.162628 0.230398 11.01645 0.486396 16.36681-12.185508 2.619714-17.698 6.502351-22.416898-9.164731 4.949296-6.519418 9.890059-11.178582 18.670793-9.574328z" fill="#553425" p-id="4678"></path><path d="M905.029982 529.065284m-11.118849 0a11.11885 11.11885 0 1 0 22.237699 0 11.11885 11.11885 0 1 0-22.237699 0Z" fill="#633E29" p-id="4679"></path><path d="M883.62001 491.4421m-10.905518 0a10.905518 10.905518 0 1 0 21.811036 0 10.905518 10.905518 0 1 0-21.811036 0Z" fill="#543528" p-id="4680"></path><path d="M559.014455 679.14842h3.746106c-44.535131 20.701711-89.257994 41.63382-134.928051 59.971815v-3.746105c42.990609-19.669185 86.390816-42.265282 131.181945-56.217177z" fill="#A69A95" p-id="4681"></path><path d="M517.790233 716.626537l-82.456979 33.732013-3.746105-3.746105 84.325764-33.714946 1.87732 3.729038z" fill="#9E938C" p-id="4682"></path><path d="M645.226073 637.915664c-24.601415 17.740666-54.826254 28.390186-82.456979 41.224222h-3.746105l74.870902-39.543168c3.379175-2.628247 8.533269-0.895993 11.332182-1.681054z" fill="#AB9E9A" p-id="4683"></path><path d="M772.653379 428.031378c3.541307-33.185883-33.629613-56.498774-63.71792-52.471071-24.464882 0.383997-51.412946 9.651127-71.21013 22.485164l-33.732012 11.246848c-44.168201 5.777023-66.474166-37.22212-107.536257-44.262066-15.240419-2.61118-35.523999-0.597329-50.01349 4.77863-25.471808 9.446329-38.698375 35.063203-71.082131 39.483436-4.104502 0.563196-10.726319 0.39253-14.992954 0-2.457581-0.230398-5.27356 0.41813-7.49221 0-5.870889-1.109325-22.57903-8.081006-29.985907-11.246848-17.382269-7.415411-26.291002-16.469209-48.724967-18.739059-1.228791-0.127999-2.508781 0.068266-3.746105 0l-2.210117-3.336508c-12.76577-0.102399-26.99073-2.286916-39.022639 1.390923v1.954118c-19.652119 2.19305-30.898967 23.261691-41.224223 37.478118-1.783453-43.664738 3.985037-72.14879 15.888947-113.415679 4.010636-13.892162 16.281477-38.47651 17.843066-49.629493 3.268242-23.432357-1.655454-54.160659-0.162132-78.873006 1.74932-28.961915 10.043658-75.553564 20.72731-102.962424 4.138635-10.615387 14.583357-32.042425 26.188603-33.757612 36.983188-5.478359 93.046766 44.722863 120.532425 67.284826l37.068521-7.159413c35.336267-2.952511 69.733875-4.070369 104.780011 0 9.821793 1.143458 24.32835 7.577543 33.800278 7.697009 13.388699 0.170665 38.160779-26.743265 50.781485-35.728798 9.002599-6.417018 22.621696-15.163619 32.272823-20.198247 39.218905-20.437179 54.92012-16.528942 71.696527 24.592881 25.011012 61.303005 12.910836 111.384761 19.643585 171.510175 2.602647 23.253158 21.375839 59.263554 28.125655 84.317231 7.807941 28.970448 12.578039 62.079532 9.31833 92.142239-0.49493 4.548232-3.746105 5.085828-3.805838 5.410093z m-431.015419-299.859074c5.657557-4.241035-40.22583-45.661523-51.165482-48.187371-27.792857-6.425552-29.089914 50.371887-31.359763 68.752549-1.459189 11.835644-12.108709 35.694664 5.674624 39.41517 23.201959-22.596096 45.098327-49.970824 76.859154-59.980348z m359.805289 59.980348v-65.586706c0-1.476256-7.927407-25.548608-9.403662-28.074455-17.740666-30.378438-49.928157 6.60475-63.683787 22.451031-2.542914 2.935445-6.766882 4.607965-5.623425 9.352463 0.767994 2.722113 36.966122 26.5982 43.178342 31.803493 8.465003 7.091147 15.735348 17.322536 24.285684 24.439283 3.797305 3.15731 4.80423 7.159413 11.246848 5.623424z m-334.819878 49.364961c-3.319442 0.725328-6.826615 3.430374-10.026591 4.95783-32.571488 43.485539 61.064073 81.902316 67.720023 26.273935-8.157805-22.459564-34.073343-36.411459-57.693432-31.231765z m206.232047 0.093866c-14.301759 2.449048-30.335771 11.682045-32.562955 27.374727-6.468218 45.490857 49.689226 33.766146 69.409611 9.463396 7.688475-28.560852-8.8234-41.63382-36.846656-36.838123zM397.855136 326.835341l-7.49221-7.492211 2.918378-1.894385c-37.034388-33.245616-89.454259 4.983429-72.396255 50.755884 20.104382 53.972927 105.974668 28.125655 90.273454-26.564067-1.493322-5.213827-10.367922-22.97156-13.294834-14.805221z m243.633365 7.49221c3.763172-19.44732-20.80411-16.665474-34.892537-14.267626-13.567898 2.312516-58.103029 28.612051-58.009163 42.367681l8.456469 12.458573c13.70443-4.249568 34.389074-4.573832 48.989498-3.242643 13.533765 1.237324 36.300527 16.068146 39.193305-1.706654l-7.509277-7.49221-48.699367-11.255382c14.020161-12.89377 34.764538-13.448432 52.479605-16.878806z" fill="#F9C37E" p-id="4684"></path><path d="M603.993317 409.292319c15.89748-2.039451 0.88746 13.644697 0 20.616378-3.566906 28.074455 5.145561 52.590537 28.031788 69.409611 9.301263 6.835149 13.2351 5.145561 21.870769 8.115139 4.181302 1.433589 5.887956 6.007421 11.852711 6.886348 5.512492 0.819194 20.880909 0.86186 25.796072-0.622929 3.276775-0.989859 5.196761-5.358893 8.601535-6.391418 9.582861-2.926911 18.269729-0.776527 28.978982-8.499136 5.700224-4.113036 7.005814-9.625527 11.596713-14.64309 2.833045-3.089043 10.291122-12.578039 13.200967-3.660772-24.243017 43.613538-55.184651 69.520543-101.196038 89.949189-16.750807 7.441011-68.266152 26.453134-83.805235 21.947568-4.744498-1.373856-17.936932-11.963643-26.017938-15.197753-39.568769-15.87188-79.530068-6.425552-109.891438 22.766762-7.005814 2.090651-47.521775-4.744498-57.650766-7.031413-67.105628-15.155086-138.341358-53.204933-168.660063-116.188992 1.245857-7.423944 10.069257 4.138635 11.280982 5.589291 3.208509 3.839971 9.68526 14.352959 11.024983 15.214819 3.839971 2.474648 9.113531 0.895993 12.603639 2.389315 15.590283 6.647417 27.212595 12.023376 45.815121 10.72632 9.34393-0.648528 18.832925-5.947689 29.380046-4.394634 2.995177-0.853327 33.842945-31.888826 35.430133-35.78853 2.107717-5.205294 7.09968-31.87176 6.954614-36.923455-0.085333-3.037844-3.447441-6.075688-4.505566-9.198865-1.109325-3.268242-7.372744-14.14816-1.809053-15.069753 2.21865 0.41813 5.043162-0.230398 7.49221 0l2.022385 3.583973c3.541307 0.563196 7.150879 0.691195 10.64952-0.281598l2.321049-3.302375c32.383756-4.428767 45.610323-30.04564 71.082131-39.483436 14.489491-5.367426 34.773071-7.389811 50.01349-4.77863 41.062091 7.039947 63.359523 50.03909 107.536257 44.262066zM460.301599 383.658379c-5.316227 1.169058-11.886844 6.775416-17.544401 8.686868l-3.293842 4.181302c-6.203687 28.125655 21.281973 45.209259 46.634315 42.871144 26.504334-2.440515 51.447079-32.144825 24.097952-50.636419-10.854318-7.338611-37.094121-7.93594-49.885491-5.119961z m-13.721497 108.090919c18.824392 24.27715 48.596967 24.251551 67.464026 0 8.584469-11.024984 17.868665-22.689962 14.992953-37.478118H437.210573c-0.870393 0-4.113036-5.580758-5.614891-3.746105-2.26985 15.675615 5.69169 29.252046 14.98442 41.224223z" fill="#FAF0DF" p-id="4685"></path><path d="M772.653379 428.031378c-4.539699 24.652614-6.570617 30.59177-18.739058 52.471072-2.909845-8.917266-10.376455 0.571729-13.200968 3.660772-4.590899 5.017562-5.896489 10.530054-11.596712 14.64309-10.709253 7.731142-19.387587 5.572225-28.978982 8.499136-3.396241 1.041059-5.316227 5.401559-8.601535 6.391418-4.915163 1.484789-20.283581 1.442122-25.796073 0.622929-5.964755-0.88746-7.671409-5.452759-11.85271-6.886348-8.635668-2.969578-12.569505-1.27999-21.870769-8.115139-22.886228-16.819073-31.598695-41.335155-28.031789-69.409611 0.88746-6.971681 15.89748-22.655829 0-20.616378l33.732013-11.246848c13.328966-0.554662 5.922089 1.877319 1.766387 7.389811-4.761564 6.323152-13.354566 24.115018-13.294834 31.974159 0.0512 7.270345 8.695401 30.276039 13.3887 35.609332 15.001487 17.040938 53.733995 19.720385 73.070382 9.335396 0.964259-0.520529 13.619097-9.514595 14.242026-10.12899 2.474648-2.466115 11.426047-19.47292 12.014843-23.56889 4.113036-29.013115-19.165722-55.560115-44.953261-65.612305l14.98442-7.483677c30.079773-4.027703 67.259227 19.285188 63.71792 52.471071z" fill="#F9E4CD" p-id="4686"></path><path d="M229.18654 379.306412c11.571113-1.288524 29.226446-0.682662 41.224223 0 1.245857 0.068266 2.517314-0.127999 3.746105 0 6.741283 10.62392 3.541307 6.101287-4.812764 8.285804-15.914547 4.164235-24.405149 7.637276-34.440274 21.793969-11.835644 16.699608-17.117738 41.881284-2.124784 58.145696 3.455974 3.746105 24.447816 18.875591 28.876583 19.83985 6.937548 1.510389 29.985907 1.919986 36.334659 0.085333 4.923696-1.416523 12.407373-11.135916 20.471313-11.400448 10.820185-14.736956 16.674008-39.218905 11.451647-56.942504-0.895993-3.029311-7.253279-8.226071-10.171657-12.322041-4.113036-5.76849-8.089539-10.384988 3.140243-8.755134 7.406878 3.15731 24.115018 10.137524 29.985908 11.246849-5.555158 0.930126 0.708261 11.801511 1.809053 15.069753 1.058125 3.123176 4.420233 6.169554 4.505566 9.198864 0.136532 5.051695-4.846897 31.718161-6.954614 36.923455-1.578655 3.899704-32.426422 34.935203-35.430134 35.788531-10.547121-1.553055-20.036116 3.746105-29.380045 4.394633-18.602527 1.297057-30.224839-4.078903-45.815121-10.726319-3.49864-1.493322-8.763667 0.085333-12.603639-2.389315-1.339723-0.86186-7.816474-11.374848-11.024983-15.214819-1.211724-1.450656-10.035124-13.013235-11.280982-5.589291-8.01274-16.648408-10.436188-22.485164-14.992954-41.224223l-0.409597-8.908733-3.336508-2.338115c-0.221865-2.457581 0.102399-5.017562 0-7.492211 10.325256-14.216426 21.572104-35.285068 41.224223-37.478117z" fill="#FAE2CA" p-id="4687"></path><path d="M191.708422 435.523588c-0.153599-0.631462-2.995177-2.969578-3.746105-11.246848l3.336509 2.338116 0.409596 8.908732z" fill="#F9C37E" p-id="4688"></path><path d="M390.354393 319.334597c-25.420608-1.459189-26.248336 33.527214 1.629854 25.983804 7.065547-1.911452 6.297553-12.680438 5.862356-18.491594 2.926911-8.166338 11.801511 9.591394 13.294833 14.805222 15.701215 54.681188-70.169071 80.52846-90.273453 26.564067-17.049472-45.780988 35.361867-84.001501 72.396254-50.755885l-2.918378 1.894386z" fill="#512E24" p-id="4689"></path><path d="M708.935459 375.560307l-14.98442 7.483677c25.787539 10.052191 49.07483 36.599191 44.953261 65.612305-0.580262 4.095969-9.531662 21.111308-12.014843 23.56889-0.622929 0.614395-13.277767 9.608461-14.242026 10.12899-19.336388 10.393522-58.068896 7.714075-73.070382-9.335396-4.693298-5.333293-13.3375-28.338987-13.3887-35.609332-0.059733-7.859141 8.541802-25.651007 13.294834-31.974159 4.155702-5.512492 11.56258-7.944473-1.766387-7.389811 19.805717-12.834037 46.753781-22.101167 71.21013-22.485164z m-35.012003 26.828598c-5.725824 1.254391-19.02919 11.315115-20.67611 16.78494-8.8746 29.473911 8.703934 59.323286 42.103149 49.612426 7.816474-2.26985 25.68514-25.787539 24.345417-34.551206-2.26985-14.856421-29.269113-35.464266-45.772456-31.854694zM322.890368 398.045471c-11.221249-1.629854-7.244745 2.995177-3.140243 8.755134 2.918378 4.087436 9.275663 9.284197 10.171656 12.32204 5.222361 17.732133-0.639995 42.214082-11.451647 56.942505-8.063939 0.264531-15.547616 9.983925-20.471312 11.400447-6.340219 1.82612-29.397112 1.425056-36.33466-0.085333-4.428767-0.964259-25.429142-16.093745-28.876582-19.83985-14.992954-16.264411-9.71086-41.446088 2.124784-58.145695 10.035124-14.156693 18.525727-17.638267 34.440274-21.79397 8.35407-2.184517 11.554046 2.329582 4.812763-8.285804 22.433964 2.26985 31.342697 11.323648 48.724967 18.739059z m-53.725462 8.115139c-9.104998 2.013851-30.250439 20.949176-28.32192 30.651502 3.592506 18.030798 21.375839 31.086699 39.107972 32.554421l6.707149-0.605862c15.632949-3.413308 29.030181-27.127262 24.541682-42.179949-0.802127-2.705046-17.911332-19.771584-20.641978-20.573711-5.290627-1.544522-15.795081-1.092258-21.401439 0.153599z" fill="#F9CDB0" p-id="4690"></path><path d="M341.63796 128.172304c-31.760827 10.000991-53.657196 37.384252-76.859155 59.980348-17.783333-3.720505-7.133813-27.579526-5.674624-39.41517 2.26985-18.372128 3.566906-75.169567 31.359764-68.752549 10.948184 2.525848 56.823039 43.946336 51.165481 48.187371z" fill="#F8C4B9" p-id="4691"></path><path d="M701.443249 188.152652c-6.442618 1.535988-7.449544-2.466115-11.246848-5.623424-8.550336-7.116746-15.820681-17.339603-24.285684-24.439283-6.21222-5.205294-42.401814-29.081381-43.178342-31.803494-1.143458-4.744498 3.08051-6.417018 5.623425-9.352463 13.75563-15.846281 45.943121-52.838002 63.683787-22.45103 1.476256 2.534381 9.403662 26.5982 9.403662 28.074455v65.586706z" fill="#F8C4B8" p-id="4692"></path><path d="M366.623371 237.517613c23.620089-5.188228 49.535627 8.772201 57.693432 31.231765-6.65595 55.628381-100.291511 17.211604-67.720023-26.273935 3.199976-1.527455 6.707149-4.232501 10.026591-4.95783z" fill="#F7EFDB" p-id="4693"></path><path d="M572.855418 237.611479c28.023256-4.795697 44.535131 8.285804 36.846656 36.838123-19.720385 24.30275-75.886362 36.027462-69.409611-9.463396 2.235716-15.692682 18.261196-24.925679 32.562955-27.374727z" fill="#F8EFDA" p-id="4694"></path><path d="M641.488501 334.327551c-17.715067 3.430374-38.459444 3.976503-52.479605 16.878806l48.699367 11.255382 7.509276 7.49221c-2.892778 17.774799-25.65954 2.935445-39.193304 1.706654-14.600423-1.33119-35.285068-1.006926-48.989498 3.242642l-8.45647-12.458573c-0.093866-13.764163 44.441265-40.055165 58.009163-42.367681 14.088427-2.406382 38.655709-5.179694 34.892538 14.267626z" fill="#4D2F23" p-id="4695"></path><path d="M390.354393 319.334597l7.49221 7.49221c0.426663 5.811156 1.203191 16.580142-5.862356 18.491594-27.87819 7.54341-27.050463-27.442993-1.629854-25.983804z" fill="#EDEBE4" p-id="4696"></path><path d="M270.419296 379.306412c-11.997776-0.682662-29.661643-1.288524-41.224223 0v-1.954119c12.023376-3.677839 26.248336-1.493322 39.02264-1.390923l2.210116 3.336509z" fill="#F9CDB0" p-id="4697"></path><path d="M375.361439 409.292319l-2.321049 3.302375c-3.49864 0.972793-7.09968 0.844794-10.64952 0.281598l-2.022385-3.583973c4.266635 0.39253 10.888451 0.563196 14.992954 0z" fill="#FAE2CA" p-id="4698"></path><path d="M460.301599 383.658379c12.782837-2.815979 39.031173-2.21865 49.885491 5.119962 27.349127 18.483061 2.406382 48.195904-24.097952 50.636418-25.352342 2.329582-52.829469-14.745489-46.634315-42.871144l3.293842-4.181301c5.657557-1.911452 12.236708-7.51781 17.544401-8.686868z" fill="#513128" p-id="4699"></path><path d="M446.580102 491.749298c-9.284197-11.98071-17.25427-25.557141-14.98442-41.224223 1.493322-1.834653 4.744498 3.746105 5.614891 3.746105h91.826508c2.875712 14.788155-6.408485 26.453134-14.992953 37.478118-9.949792 2.628247-5.785556-5.435692-9.719394-7.679942-20.599311-11.733245-41.13889-8.499136-57.744632 7.679942z" fill="#583127" p-id="4700"></path><path d="M446.580102 491.749298c16.605742-16.170545 37.153853-19.413187 57.744632-7.679942 3.933837 2.24425-0.230398 10.299656 9.719394 7.679942-18.867058 24.251551-48.639634 24.27715-67.464026 0z" fill="#E14F47" p-id="4701"></path><path d="M673.923456 402.388905c16.503342-3.618106 43.502606 16.989739 45.772456 31.854693 1.339723 8.763667-16.520409 32.281357-24.345417 34.551206-33.399215 9.71086-50.977749-20.138515-42.103149-49.612426 1.646921-5.478359 14.950287-15.539083 20.67611-16.78494z" fill="#F9BC9B" p-id="4702"></path><path d="M269.164906 406.16061c5.606358-1.237324 16.110812-1.698121 21.401438-0.153599 2.730646 0.793594 19.839851 17.868665 20.641978 20.573711 4.4885 15.052687-8.908733 38.766641-24.541682 42.179949l-6.707149 0.605862c-17.740666-1.467722-35.523999-14.523624-39.107972-32.554421-1.928519-9.702327 19.208389-28.637651 28.32192-30.651502z" fill="#FABC9C" p-id="4703"></path></svg>