<?xml version="1.0" standalone="no"?><!DOCTYPE svg PUBLIC "-//W3C//DTD SVG 1.1//EN" "http://www.w3.org/Graphics/SVG/1.1/DTD/svg11.dtd"><svg t="1784020702378" class="icon" viewBox="0 0 1024 1024" version="1.1" xmlns="http://www.w3.org/2000/svg" p-id="4210" xmlns:xlink="http://www.w3.org/1999/xlink" width="200" height="200"><path d="M256.537054 641.1264c0.017067-4.2752-0.631467-8.721067 0.418133-12.9536 0.8448-3.396267 3.362133-2.107733 3.396267-2.312533l-0.110933 13.277866-3.703467 1.979734z" fill="#4F2C23" p-id="4211"></path><path d="M725.836254 572.450133c0.068267 0.3328 3.268267 0.674133 3.874133 5.504 2.107733 16.725333-2.244267 33.672533-8.439466 49.0752-1.9712 4.898133-7.611733 6.673067-6.894934 12.1856-0.1024 3.524267 7.7824 1.851733 11.451734 1.92-2.363733 4.650667-9.489067 11.451733 1.877333 11.4432h30.549333c3.6864-0.494933-5.128533-11.195733-5.717333-11.451733 0.768-2.4576 3.601067-5.469867 3.8144-7.6288l11.4432-3.8144c-0.042667 3.805867 0.008533 7.6544-0.008533 11.451733h19.089066c-1.8944 2.594133-6.8864 9.873067-1.902933 11.4432h97.288533l-11.4432-11.451733c14.5408 0.298667 28.0064-1.7664 41.787734 4.002133l0.341333 1.979734c-3.1488 17.877333 3.9936 48.2304-0.631467 64.128-1.8944 6.510933-13.5168 9.847467-14.8736 19.464533-4.5824 32.4864 7.509333 97.723733 0.093867 124.091733-0.059733 0.2048-2.722133 0.034133-3.805867 1.8944l7.492267 2.1248-3.6864 11.246934c-1.9712 0.699733-9.361067 7.441067-15.214933 9.6-13.713067 5.060267-27.9552 9.412267-42.026667 13.303466l15.36 24.695467c1.544533 22.997333-1.749333 44.817067-7.722667 66.858667 12.654933-2.696533 25.250133-6.075733 38.152534-7.6288l43.426133 14.984533c6.9376-4.343467 11.153067-12.142933 17.7152-16.7936 2.568533-1.826133 21.538133-13.038933 22.792533-13.448533 7.3728-2.4064 22.852267-4.974933 32.571734-7.543467 2.884267-0.759467 8.644267 0.750933 5.572266-5.794133-1.365333-2.909867-7.261867-5.956267-9.437866-9.642667-9.796267-16.64-13.073067-26.581333-5.8112-45.6704l-38.161067-22.912-7.6288-15.2576-2.065067-3.643733c-3.694933-0.494933-7.432533-0.494933-11.136 0l-2.065066 3.643733c-2.423467 0.162133-6.050133-0.5888-7.6288 0l-7.6288-7.6288c4.369067-1.9456 7.150933-2.551467 11.4432-3.8144h22.894933c11.281067 6.6048 12.782933 17.245867 22.997333 24.695467 12.885333 9.3952 32.0768 11.613867 41.6256 26.811733l-11.392 22.8096c1.092267 14.370133 23.978667 27.178667 19.1744 43.861333-33.117867 10.436267-67.208533 17.518933-90.0352 45.610667l-6.596266-0.119467c-28.4928-17.450667-53.2736-16.384-84.3264-7.304533-15.104-7.2704 1.450667-45.2096-2.107734-49.527467l-89.659733 57.224534-697.565867-0.708267-9.6512-3.652267-4.343466-12.8256-0.017067-177.399466C-8.474146 821.742933-0.802679 786.090667 2.695987 751.709867l95.675734-72.200534c3.413333-4.9408 1.536-16.401067 1.706666-23.0912l3.925334 7.645867c0.648533 0.896 5.1456-3.1232 7.517866-3.831467-0.1024 15.044267-1.4592 31.470933 1.826134 45.789867h1.988266c23.509333 10.2912 51.396267 16.1536 76.305067 7.6288l7.6288 7.6288c-0.366933 0.162133-0.768 2.210133-2.730667 3.072-24.789333 10.8288-68.113067 5.4528-92.074666-7.458133l-6.306134-22.314667-70.587733 57.224533h742.109867l116.369066-95.377066-177.476266-2.619734c-8.3968 2.568533-14.0032 9.156267-20.923734 14.062934-1.186133-5.538133-5.888-8.260267-11.4432-7.6288 27.118933-19.677867 41.582933-45.969067 38.152534-80.128l3.1744 2.577066 0.648533 8.891734 7.620267-0.0256v-19.072z m53.418667 221.2864c2.3296 2.619733 19.140267-10.9312 22.724266-13.5168 33.032533-23.816533 64.776533-49.92 97.553067-74.146133l1.809067-42.0608c-41.984 29.064533-79.675733 64.750933-120.379734 95.189333l-1.706666 34.5344z m-19.080534 190.779734c5.998933 0.836267 10.282667-3.157333 15.0272-5.956267 23.2704-13.7472 44.117333-33.024 67.191467-47.274667 10.0096-13.994667-23.330133-32.8704-21.1712-40.226133l63.146667-28.4416c2.986667-4.437333 2.3808-25.847467 1.885866-32.785067-0.4864-6.826667-3.84-12.066133-4.1472-18.747733-1.143467-24.721067 1.186133-49.851733 0.1536-74.564267l-87.850666 66.670934-34.235734 15.36v165.973333zM12.261854 767.035733v34.338134h755.6608v-34.338134H12.261854z m736.631467 45.6192H54.314121v179.490134h694.5792V812.654933z" fill="#4F2C22" p-id="4212"></path><path d="M54.314121 812.654933h694.5792v179.490134H54.314121z" fill="#8E6957" p-id="4213"></path><path d="M199.303987 721.245867c6.237867-2.688 11.7248-7.236267 18.850134-7.867734l0.221866-60.817066 39.697067 0.384 13.5424 17.186133c1.408 5.973333-29.781333 31.914667-35.899733 39.8336-4.9152 6.357333-11.025067 14.395733-9.693867 22.7328 15.0784 3.3792 30.557867-3.310933 43.707733-3.976533 40.328533-2.056533 86.562133-4.8384 125.986134 0.256 12.672 1.6384 35.976533 11.2896 45.892266 11.349333 5.393067 0.034133 13.627733-5.563733 19.857067-6.818133 33.723733-6.801067 67.6608-10.052267 102.144-8.354134l97.365333 11.3664-15.214933-45.713066c16.401067-3.029333 29.0048-13.806933 41.924267-22.954667 6.920533-4.898133 12.5184-11.4944 20.923733-14.062933l177.476267 2.619733L769.714654 751.786667H27.604787l70.587734-57.224534 6.306133 22.314667c23.9616 12.910933 67.285333 18.286933 92.074667 7.458133 1.962667-0.853333 2.363733-2.909867 2.730666-3.072z" fill="#C89E7D" p-id="4214"></path><path d="M12.261854 767.035733h755.6608v34.338134H12.261854z" fill="#AE856B" p-id="4215"></path><path d="M760.174387 984.516267v-165.973334l34.235734-15.36 87.850666-66.670933c1.024 24.721067-1.297067 49.851733-0.1536 74.564267 0.3072 6.6816 3.6608 11.921067 4.1472 18.747733 0.494933 6.9376 1.109333 28.347733-1.885866 32.785067l-63.146667 28.4416c-2.1504 7.355733 31.1808 26.24 21.1712 40.226133-23.074133 14.250667-43.921067 33.527467-67.191467 47.274667-4.744533 2.807467-9.028267 6.792533-15.0272 5.956266z" fill="#7C5340" p-id="4216"></path><path d="M779.254921 793.736533l1.706666-34.5344c40.704-30.4384 78.3872-66.116267 120.379734-95.189333l-1.809067 42.0608c-32.768 24.226133-64.520533 50.321067-97.553067 74.146133-3.584 2.5856-20.394667 16.128-22.724266 13.5168z" fill="#8C6049" p-id="4217"></path><path d="M752.545587 641.1264c0.5888 0.256 9.403733 10.9568 5.717334 11.451733h-30.549334c-11.3664 0-4.2496-6.792533-1.877333-11.4432 6.263467 0.110933 23.5264-1.3824 26.709333 0z" fill="#4C2920" p-id="4218"></path><path d="M916.607454 847.163733l7.6288 7.6288c-3.029333 1.117867-15.069867 12.100267-19.080533 15.2576-2.210133-0.085333-6.203733-0.503467-7.6288 0l3.6864-11.246933-7.492267-2.1248c1.083733-1.851733 3.746133-1.6896 3.805867-1.8944 6.545067-1.518933 12.962133-4.9152 19.080533-7.6288zM950.945587 843.3408h-22.894933c0.529067-0.1536 1.152-3.498667 9.335467-4.0192 9.429333-0.597333 8.746667 1.2032 13.559466 4.0192z" fill="#623E32" p-id="4219"></path><path d="M905.164254 870.050133c2.5088 0.1024 5.051733-0.2304 7.552 0.0256l0.0768 11.434667 22.8864-3.831467c8.2432 11.195733 18.594133 26.154667 34.338133 22.8864 4.7104-4.292267-14.4128-19.2-17.237333-22.971733-2.2016-2.935467-1.245867-6.6048-1.834667-7.552h3.8144l38.161067 22.912c-7.261867 19.089067-3.985067 29.0304 5.8112 45.6704 2.167467 3.6864 8.064 6.7328 9.437867 9.642667 3.072 6.545067-2.688 5.034667-5.572267 5.794133-9.728 2.568533-25.198933 5.137067-32.571733 7.543467 3.8144-11.0336 19.054933-24.456533 5.725866-34.312534-12.885333 9.250133-26.837333 16.9728-41.216 23.6288-10.9312 5.060267-32.366933 7.0144-37.000533 18.321067-0.674133 1.6384 0.648533 5.213867-0.042667 7.560533-3.729067 0.5376-7.714133-0.375467-11.400533 0.068267-12.9024 1.553067-25.4976 4.932267-38.152533 7.6288 5.9648-22.0416 9.2672-43.861333 7.722666-66.858667l-15.36-24.695466c14.071467-3.8912 28.3136-8.2432 42.026667-13.303467 5.853867-2.158933 13.2352-8.900267 15.214933-9.6 1.4336-0.503467 5.4272-0.085333 7.6288 0z m3.831467 64.8704c9.4464 1.109333 14.933333-7.918933 9.693866-15.445333-0.938667-1.348267-22.877867-16.443733-26.820266-18.961067-4.7872-3.063467-6.6816-5.1712-13.405867-3.754666l0.5888 14.865066 6.4256 0.7936 6.3488 18.6624 5.6064-0.0768 0.170667-7.492266 5.640533-0.042667 5.76 11.4432z" fill="#F8F9F8" p-id="4220"></path><path d="M970.026121 961.621333c-1.2544 0.4096-20.224 11.630933-22.792534 13.448534-6.562133 4.6592-10.786133 12.458667-17.7152 16.7936l-43.426133-14.984534c3.694933-0.443733 7.671467 0.4608 11.400533-0.068266 0.6912-2.346667-0.631467-5.922133 0.042667-7.560534 7.68 8.3456 0.093867 7.816533 10.24 4.573867 13.226667-4.224 26.658133-8.635733 39.432533-14.045867 5.5296-2.346667 13.243733-8.337067 17.109334-9.6 4.1728-1.365333-1.211733 11.579733 5.717333 11.4432z" fill="#F2F0EF" p-id="4221"></path><path d="M931.865054 854.792533c5.034667-0.341333 10.2144 0.221867 15.2576 0l7.6288 15.2576h-3.8144c-3.712-5.981867-9.1648-13.713067-17.160533-11.434666-10.990933 3.1232-2.3296 13.3376 1.8944 19.072l-22.8864 3.831466-0.0768-11.434666c-2.500267-0.264533-5.051733 0.068267-7.552-0.0256 4.010667-3.157333 16.0512-14.139733 19.080533-15.2576 1.578667-0.5888 5.205333 0.162133 7.6288 0z" fill="#D2C9C1" p-id="4222"></path><path d="M947.131187 854.792533c-5.051733 0.221867-10.222933-0.341333-15.2576 0l2.065067-3.643733c3.703467-0.494933 7.441067-0.494933 11.136 0l2.065067 3.643733z" fill="#623E32" p-id="4223"></path><path d="M970.026121 961.621333c-6.929067 0.136533-1.544533-12.808533-5.717334-11.4432-3.8656 1.262933-11.5712 7.253333-17.109333 9.6-12.7744 5.410133-26.197333 9.821867-39.432533 14.045867-10.146133 3.242667-2.56 3.771733-10.24-4.573867 4.642133-11.306667 26.069333-13.2608 37.000533-18.321066 14.378667-6.656 28.330667-14.378667 41.216-23.6288 13.320533 9.864533-1.911467 23.278933-5.725867 34.312533z" fill="#56342B" p-id="4224"></path><path d="M908.995721 934.920533l-5.76-11.4432-5.640534 0.042667-0.170666 7.492267-5.6064 0.0768-6.3488-18.6624-6.4256-0.7936-0.5888-14.865067c6.7328-1.425067 8.618667 0.6912 13.405866 3.754667 3.9424 2.517333 25.8816 17.6128 26.820267 18.961066 5.239467 7.517867-0.247467 16.546133-9.693867 15.445334z" fill="#583A32" p-id="4225"></path><path d="M950.945587 870.050133c0.5888 0.9472-0.366933 4.608 1.834667 7.552 2.833067 3.771733 21.947733 18.679467 17.237333 22.971734-15.735467 3.268267-26.094933-11.6992-34.338133-22.8864-4.224-5.7344-12.893867-15.940267-1.8944-19.072 7.995733-2.2784 13.448533 5.4528 17.160533 11.434666z" fill="#513027" p-id="4226"></path><path d="M763.988787 309.179733l-5.725866-3.7888-5.504 5.998934-0.221867 5.418666c-0.0512-0.2816-2.7904-0.861867-3.1232-2.730666-1.399467-8.029867-2.449067-33.092267-13.525333-31.266134l-75.042134 28.151467-3.1488 4.48c-2.013867 6.8864-2.304 18.141867-4.369066 24.2432-2.261333 6.690133-6.8864 12.074667-10.888534 17.7408l-0.554666 5.1456c-5.512533-0.554667-12.945067 13.824-15.2576 15.2576-0.7424 0.4608-14.4384 7.3216-15.2576 7.6288-15.837867 6.033067-32.9472 3.3536-49.604267 3.8144-14.72-5.8368-28.6464-11.076267-40.064-22.877867-15.488 28.6976-53.495467 37.1968-74.496 9.617067-9.1904-12.074667-9.4208-21.9904 5.009067-29.5168 18.602667-9.710933 37.725867-9.0368 56.123733 0.810667 2.090667-2.3296-6.2976-18.235733-7.620267-22.894934-0.878933-3.106133 0.938667-8.516267-0.401066-12.868266-4.241067-13.764267-44.765867-12.177067-56.277334-5.6576-5.802667 8.277333-2.722133 18.747733-4.369066 26.154666-6.4256 29.013333-35.131733 48.375467-61.047467 57.233067-10.5728-0.6656-21.922133 1.0496-32.341333-0.0768-2.013867-0.213333-16.452267-3.3792-17.2544-3.746133-1.6128-0.733867-24.226133-20.1216-26.709334-22.894934-2.3808-2.6624-2.696533-9.480533-7.6288-11.4432l-3.8144-7.6288c-0.324267-2.449067 0.494933-5.4272 0-7.6288-1.826133-8.192-4.753067-15.633067-4.206933-24.405333l-58.717867-25.207467c-4.462933 2.619733-4.3776 5.6576-5.700266 9.6-6.946133 20.642133-10.077867 62.498133-7.739734 84.104534 0.503467 4.6336 3.8144 5.179733 3.874134 5.512533 7.1168 38.6304 16.759467 60.714667 45.781333 87.7568 5.802667 5.410133 41.079467 35.7888 45.738667 30.498133-0.682667-4.317867 1.450667-5.239467 3.8656-7.611733 0.401067 5.213867 6.058667 8.661333 7.6288 11.4432 3.0976 5.486933-0.682667 13.218133 13.346133 11.451733l1.911467-11.451733c4.923733 4.829867 6.724267 9.984 15.249066 11.4432v-7.6288c1.152 2.432 6.2464 4.992 3.822934 11.4432l-7.637334-0.017067v11.460267l-15.2576-3.8144c0.017067 4.232533-0.520533 8.567467 0.571734 12.7744 2.491733 9.608533 17.501867 45.218133 22.843733 53.461333 8.891733 13.713067 27.588267 23.739733 26.180267 44.424534 6.101333 0.375467 8.763733 1.7152 7.714133-5.802667-1.169067-8.405333-11.229867-23.2192-15.351467-32.366933 3.626667-0.469333 8.132267 0.6912 11.4432 0 1.3056-0.273067 2.816 0.384 3.8144 0l13.738667 26.325333c21.137067-0.008533 42.410667 3.882667 62.737067 9.736533 10.410667 3.003733 4.778667 6.894933 18.909866 2.090667l0.418134 9.079467 3.396266 2.372266-22.894933 38.152534-2.030933-3.8144-9.4208 3.8144c3.336533-7.432533 13.713067-28.8768 9.685333-34.491734-5.333333-7.4496-43.1104-13.329067-53.307733-11.451733-6.920533 0.896-6.280533 41.1136-9.8048 49.7664L376.677854 679.253333c-22.3488 22.340267-43.989333 27.6736-73.489067 16.0768-2.8416-1.117867-4.036267-4.334933-4.727466-4.650666 0.9472-5.888-1.169067-10.299733-3.8144-15.2576 2.304 0.477867 6.007467-0.708267 7.6288 0 0.768 0.3328 3.063467 4.164267 7.3984 5.828266 56.900267 21.845333 82.0992-40.567467 42.112-68.6848-5.922133-4.164267-11.485867-3.8912-15.172267-5.828266-6.621867-3.464533-10.3168-9.326933-11.400533-16.9728l11.392-7.808-20.9664-43.8784c-19.319467 24.055467-43.776 59.4432-43.8784 91.554133l-11.4432-7.6288c0.878933-4.693333-0.520533-10.4448 0.733866-16.4096 5.623467-26.589867 30.3616-61.3376 48.8448-80.887467-50.363733-28.8-90.6496-64.827733-106.0096-122.897066-10.4192-39.3728-2.568533-88.9344 7.620267-128.128 6.647467-25.565867 20.232533-45.3888 18.210133-73.216-2.167467-29.755733-1.314133-64.810667 3.968-95.377067 3.7888-21.922133 17.322667-69.768533 36.6592-81.621333 15.035733-9.216 27.511467-8.337067 43.528534-2.5344 33.527467 12.1344 59.758933 37.504 89.4464 55.552 31.744-2.602667 63.214933-9.728 95.633066-7.8848 14.711467 0.836267 34.679467 6.161067 49.501867 7.7056 24.5504 2.568533 29.636267-11.776 47.7952-24.541867 35.319467-24.832 85.316267-56.763733 113.698133-7.202133 14.421333 25.198933 25.429333 73.326933 27.477334 102.2464 1.621333 23.005867-3.003733 50.3552-0.1024 72.593066 3.2 24.5248 20.736 60.501333 26.641066 89.728z m-164.061866-72.490666c22.587733 3.985067 53.034667 37.307733 53.418666 61.056l72.533334-24.772267 11.3408-7.893333c-22.272-37.0176-12.2368-74.666667-15.035734-114.4064-1.621333-22.971733-11.392-68.445867-21.0688-89.582934-3.9168-8.5504-10.9568-17.655467-17.143466-24.823466-20.113067-10.3936-55.236267 11.639467-72.507734 23.0912-14.9504 9.9072-30.3616 24.3712-44.416 35.84-33.902933-7.6544-71.338667-13.1072-106.308266-11.050667-3.848533 0.221867-7.645867 3.336533-11.605334 3.6608-18.730667 1.536-37.896533 2.619733-56.6784 3.413333-19.720533-16.682667-75.076267-60.433067-99.712-60.637866-18.235733-0.145067-30.728533 30.097067-35.421866 44.740266-17.365333 54.229333-5.700267 97.348267-12.296534 147.950934-1.134933 8.695467-18.850133 48.529067-15.214933 51.575466l61.056 19.089067c6.912-39.202133 44.689067-63.616 83.9424-57.2416 14.7712 4.334933 29.696 7.850667 41.966933 19.080533 11.3152 10.350933 14.677333 26.6752 24.738134 37.802667 11.528533-6.877867 25.130667-8.669867 38.3744-7.424 10.5984 0.9984 15.0528 6.801067 24.635733 7.773867 2.926933-18.6112 14.993067-35.498667 30.532267-45.789867 17.698133-11.716267 44.040533-15.121067 64.861866-11.4432zM309.947187 343.517867c4.317867 8.490667 7.227733 14.907733 15.368534 20.881066 26.8544 19.712 50.107733 15.223467 76.202666-1.800533 11.5456-7.534933 17.698133-16.392533 22.084267-29.431467 10.5728-31.445333-5.1712-63.880533-34.645333-78.225066-6.075733-2.961067-9.642667-1.860267-14.148267-2.9952-0.324267-0.085333-0.733867-2.8928-2.551467-3.234134l-6.8864-0.896c-50.926933 4.2496-78.737067 49.8688-55.424 95.709867z m236.561067-83.9424c-28.962133 20.334933-39.3728 47.351467-22.894933 80.128 0.631467 1.2544-0.298667 4.471467 1.834666 7.534933 17.595733 25.233067 46.882133 32.9728 75.767467 26.1888 9.6-2.2528 15.5136-8.721067 21.597867-14.6432 21.384533-20.804267 27.869867-54.2464 9.437866-80.0256-11.767467-16.4608-30.839467-29.9008-51.413333-30.626133-14.737067-0.520533-23.082667 3.541333-34.338133 11.4432zM390.066654 667.8272v-11.434667h-3.797333v11.434667h3.797333z" fill="#4F2C23" p-id="4227"></path><path d="M577.031987 618.231467c-3.6864 2.551467-17.792 7.936-22.0928 12.245333s-12.9024 25.079467-12.433066 31.530667c0.725333 10.094933 15.419733 23.6032 24.9088 24.9856 17.5104 2.551467 38.7328-0.512 55.406933-3.899734 20.4544-4.155733 36.420267-10.564267 53.418667-22.894933 5.5552-0.631467 10.257067 2.090667 11.4432 7.6288-12.919467 9.147733-25.5232 19.933867-41.924267 22.954667l15.214933 45.713066-97.365333-11.3664c-34.474667-1.698133-68.420267 1.553067-102.144 8.354134-6.229333 1.2544-14.464 6.843733-19.857067 6.818133-9.915733-0.059733-33.220267-9.710933-45.892266-11.349333-39.424-5.085867-85.666133-2.304-125.986134-0.256-13.149867 0.6656-28.629333 7.355733-43.707733 3.976533-1.3312-8.328533 4.778667-16.375467 9.693867-22.7328 6.126933-7.918933 37.307733-33.860267 35.899733-39.8336l-13.5424-17.186133-39.697067-0.384-0.221866 60.817066c-7.125333 0.631467-12.612267 5.179733-18.850134 7.867734l-7.6288-7.6288c15.428267-5.2736 20.5568-13.149867 10.965334-28.142934-5.546667-8.669867-12.740267-8.6016-20.642134-2.517333-3.293867 2.5344-5.981867 9.275733-11.298133 7.7568-13.755733-3.933867 2.4832-17.373867 5.7088-22.8864h26.717867l-0.008534-41.966933c-22.2464 7.210667-43.246933 9.147733-66.730666 7.560533-4.078933-0.273067-8.260267-3.2-13.3888-3.746133l-1.9712-3.754667-3.754667-0.196267-3.754667 0.196267-1.9712 3.754667c-0.0512 10.1376 0.068267 20.386133 0 30.523733-2.3808 0.708267-6.877867 4.727467-7.517866 3.831467l-3.925334-7.645867c0.315733-12.484267-2.466133-37.563733 0.392534-47.300267 0.887467-3.029333 3.319467-4.181333 5.751466-5.691733 18.824533-11.665067 91.374933-13.371733 106.4448 3.345067 7.7056 8.541867 3.669333 15.086933 1.621334 24.814933 0.699733 15.872 30.3872 7.773867 42.222933 9.5744l3.703467-1.979733 0.110933-13.277867c0.213333-1.237333-0.2304-2.5856 0-3.8144l11.4432 7.6288c-0.0768 25.070933 14.301867 29.678933 22.894933 45.781333 2.645333 4.957867 4.7616 9.3696 3.8144 15.2576-4.7616-2.193067-12.893867-1.8944-17.1776-7.6032l-32.418133 34.295467c38.638933-1.365333 77.320533-6.1952 116.5312-3.976533 6.1184 0.349867 10.487467 3.473067 15.172267 3.899733 19.618133 1.8176 37.2992 0.384 56.942933 7.825067l2.0992-0.128c1.621333-10.496 6.237867-19.9936 10.760533-29.4656 1.339733-2.798933 4.258133-4.266667 4.522667-4.864l9.4208-3.8144 2.030933 3.8144-11.4432 30.5152c1.6384 1.570133 36.386133-7.236267 43.707734-7.790934 47.112533-3.566933 96.785067 3.1744 143.249066 7.790934l-13.713066-22.7072c-28.475733 5.2992-75.528533 11.4176-92.637867-17.834667-7.441067-12.7232-7.68-21.9392-4.309333-35.754667l-41.966934 7.6288-3.396266-2.372266-0.418134-9.079467c20.4032-6.9376 45.482667-4.437333 57.3952-17.1264 7.808-8.32 11.4176-13.576533 22.7328-21.026133 0.785067-0.512 4.352 0.1024 7.424-1.954134 15.505067-10.385067 27.4944-20.155733 30.7456-40.0128l9.608534 3.7376c11.221333 17.757867-23.483733 44.629333-36.3264 53.504z m-452.130133 0h61.047467c0.6144 0 11.0592-4.155733 9.531733-7.620267-24.584533-6.8608-51.5072-4.7872-76.305067 0l5.725867 7.620267z" fill="#4C2920" p-id="4228"></path><path d="M763.988787 309.179733c8.260267 40.849067 8.994133 74.769067-5.5808 114.602667-1.646933 4.488533-14.677333 25.642667-13.499733 26.555733 40.6272 9.608533 61.7728 50.1248 65.032533 89.514667 2.6624 32.136533-0.384 69.393067-3.985066 101.2736 21.563733 0.3328 43.306667-0.443733 64.8704 0l11.4432 11.4432H784.980787c-4.983467-1.5616 0-8.840533 1.902934-11.4432 11.682133-16.034133 5.691733-13.806933 7.7056-32.349867 3.106133-28.552533 4.906667-51.1488-0.128-80.1536-5.4784-31.5648-26.350933-60.100267-58.752-66.679466l-10.001067 16.9216c8.797867 4.923733 18.884267 12.8256 24.823467 21.188266 18.218667 25.617067 23.0912 77.602133 21.009066 108.552534-0.418133 6.2208-3.6352 11.810133-3.7376 21.0688l-11.4432 3.8144c3.6608-37.691733 3.6096-115.5328-30.634666-139.153067-17.877333-12.330667-21.435733-1.4336-33.8432 11.2896 17.655467 23.031467 27.810133 38.237867 33.954133 66.816v19.072l-7.6288 0.0256-0.648533-8.891733-3.1744-2.577067c-2.363733-23.509333-18.9184-54.382933-40.029867-65.058133-22.237867 9.565867-43.4432 21.7344-66.722133 28.9024-26.948267 8.2944-55.108267 11.374933-82.193067 17.006933h-83.7888l-74.4704-15.1808 19.072 57.224533c-3.310933 0.6912-7.816533-0.469333-11.4432 0-9.890133-21.947733-21.981867-45.585067-26.709333-68.676266v-11.460267l7.6288 0.017067c7.099733 5.7344 13.320533 7.9104 21.9392 10.496 97.5616 29.294933 250.0864 12.561067 325.2736-60.091734 36.898133-35.6608 43.229867-52.5312 49.604266-103.0144 0.042667-0.341333 2.909867-0.938667 3.1744-2.6368 1.186133-7.637333-1.723733-42.0096-3.1744-50.781866l0.221867-5.418667 5.504-5.998933 5.725867 3.7888z" fill="#4C2920" p-id="4229"></path><path d="M714.384521 580.078933c3.4304 34.158933-11.0336 60.450133-38.152534 80.128-16.9984 12.330667-32.964267 18.7392-53.418666 22.894934-3.874133-17.937067-15.735467-44.245333-30.6176-55.227734-4.906667-3.618133-12.484267-3.908267-15.163734-9.634133 12.842667-8.874667 47.547733-35.746133 36.3264-53.504l-9.608533-3.7376c-3.2512 19.857067-15.240533 29.627733-30.7456 40.0128-3.072 2.065067-6.638933 1.442133-7.424 1.954133 0.913067-8.507733-11.639467-15.368533-17.723733-18.525866-34.628267-17.9456-97.399467-16.9984-132.1984 0.2304-7.799467 3.8656-20.5824 16.392533-25.582934 18.286933-0.9984 0.384-2.5088-0.273067-3.8144 0l-19.072-57.224533 74.4704 15.1808h83.7888c27.0848-5.632 55.253333-8.712533 82.193067-17.006934 23.278933-7.168 44.484267-19.336533 66.722133-28.9024 21.111467 10.6752 37.666133 41.5488 40.029867 65.058134z" fill="#F4BD79" p-id="4230"></path><path d="M786.883721 641.1264h-19.089067c0.017067-3.7888-0.034133-7.637333 0.008533-11.4432 0.1024-9.258667 3.319467-14.856533 3.7376-21.0688 2.082133-30.958933-2.7904-82.935467-21.009066-108.552533-5.9392-8.354133-16.0256-16.256-24.823467-21.188267l10.001067-16.9216c32.401067 6.5792 53.2736 35.114667 58.752 66.679467 5.034667 29.0048 3.234133 51.601067 0.128 80.1536-2.013867 18.551467 3.968 16.315733-7.7056 32.349866z" fill="#918D90" p-id="4231"></path><path d="M756.359987 633.4976c-0.213333 2.167467-3.0464 5.179733-3.8144 7.6288-3.182933-1.3824-20.445867 0.110933-26.709333 0-3.677867-0.068267-11.554133 1.6128-11.451733-1.92-0.7168-5.512533 4.923733-7.287467 6.894933-12.1856 6.1952-15.402667 10.5472-32.3584 8.439467-49.0752-0.605867-4.829867-3.805867-5.1712-3.874134-5.504-6.144-28.578133-16.298667-43.784533-33.954133-66.816 12.416-12.7232 15.9744-23.6288 33.8432-11.2896 34.235733 23.620267 34.295467 101.469867 30.634667 139.153067z" fill="#959093" p-id="4232"></path><path d="M374.809054 236.689067c-39.253333-6.3744-77.0304 18.048-83.9424 57.2416l-61.056-19.089067c-3.643733-3.0464 14.08-42.88 15.214933-51.575467 6.6048-50.602667-5.0688-93.7216 12.296534-147.950933 4.6848-14.6432 17.1776-44.885333 35.421866-44.740267 24.635733 0.2048 80 43.9552 99.712 60.637867 18.781867-0.7936 37.947733-1.877333 56.6784-3.413333 3.959467-0.324267 7.748267-3.4304 11.605334-3.6608 34.961067-2.056533 72.3968 3.396267 106.308266 11.050666 14.0544-11.460267 29.4656-25.924267 44.416-35.84 17.271467-11.451733 52.394667-33.493333 72.507734-23.0912 6.186667 7.168 13.2352 16.273067 17.143466 24.823467 9.6768 21.137067 19.447467 66.6112 21.0688 89.582933 2.798933 39.739733-7.236267 77.3888 15.035734 114.4064l-11.3408 7.893334-72.533334 24.772266c-0.384-23.748267-30.830933-57.070933-53.418666-61.056 4.1472-15.5648-14.830933-31.709867-28.475734-30.660266-6.442667 0.494933-30.2848 10.5728-34.5088 15.377066-4.5312 5.154133-10.350933 21.896533-1.885866 26.7264-15.5392 10.2912-27.605333 27.170133-30.532267 45.789867-9.582933-0.981333-14.037333-6.775467-24.635733-7.773867-13.243733-1.245867-26.845867 0.546133-38.3744 7.424-10.0608-11.136-13.422933-27.460267-24.738134-37.802666 32.068267-35.6608-19.7376-61.909333-52.864-45.2352l-4.386133 22.331733c7.697067-3.1488 13.0304 3.157333 15.2832 3.822933z m-99.191467-68.6848c6.545067 1.578667 7.586133-2.500267 11.4432-5.717334 11.1616-9.301333 22.656-21.691733 34.500267-30.3616 5.111467-3.7376 30.378667-17.024 30.336-19.234133-7.3472-14.4896-38.613333-44.578133-54.877867-39.697067-20.258133 6.084267-23.466667 76.3904-21.4016 95.010134z m412.0576 0c0.068267-26.939733 2.269867-58.1888-10.632533-82.833067-14.754133-28.1856-42.999467 2.850133-56.132267 17.9712-2.594133 2.986667-6.8864 4.693333-5.725866 9.514667 0.6656 2.372267 34.090667 23.594667 40.132266 28.5696 7.296 5.998933 13.533867 14.9248 20.906667 21.060266 3.857067 3.208533 4.898133 7.296 11.4432 5.717334z" fill="#F6C07B" p-id="4233"></path><path d="M500.718387 324.445867c1.322667 4.6592 9.710933 20.5568 7.620267 22.894933-18.397867-9.838933-37.521067-10.5216-56.123733-0.810667-14.429867 7.5264-14.199467 17.442133-5.009067 29.5168 21.000533 27.579733 59.008 19.080533 74.496-9.617066 11.4176 11.8016 25.344 17.041067 40.064 22.877866 0.315733 0.128 0.196267 3.259733 5.461333 3.925334 7.867733 0.989867 16.964267-0.8704 25.070934-0.1024 1.143467 1.015467-3.797333 5.034667-3.242667 8.9344 1.211733 8.576 24.192 42.043733 31.786667 48.3584 15.650133 13.021867 31.3856 11.7248 49.723733 18.952533l32.375467 3.8656C627.762654 545.8944 475.237854 562.6368 377.667721 533.333333c-8.618667-2.5856-14.830933-4.7616-21.9392-10.496 2.423467-6.4512-2.670933-9.0112-3.8144-11.4432-4.608-9.796267-2.8672-18.696533-17.877334-22.468266-6.613333-1.186133-16.042667 3.037867-20.283733 7.202133-2.414933 2.372267-4.539733 3.285333-3.8656 7.611733-4.6592 5.282133-39.936-25.096533-45.738667-30.498133 13.883733-13.0048 34.756267-4.701867 50.884267-8.251733 13.201067-2.909867 32.349867-17.339733 42.5216-26.2656 2.935467-2.577067 7.560533-2.935467 8.900267-4.3264 0.648533-0.674133 7.3216-15.2576 7.739733-17.058134 3.293867-14.1312-0.674133-16.5632-10.8544-24.2176 9.634133-0.657067 9.335467-1.792 15.2576-3.8144 25.915733-8.8576 54.621867-28.2112 61.047467-57.233066 20.113067-5.188267 40.106667-9.352533 61.047466-7.6288z m-27.946666 91.989333l-40.584534 24.5248 5.6064 13.2096 38.126934-22.109867c5.7088 0 23.893333 17.476267 32.264533 20.369067 7.0656 2.440533 6.997333 1.262933 11.605333-4.002133 1.041067-6.971733-0.384-9.335467-6.178133-12.8768-8.610133-5.256533-32.750933-20.6848-40.832-19.114667z" fill="#F9EFDE" p-id="4234"></path><path d="M565.588787 602.973867c-11.3152 7.458133-14.916267 12.706133-22.7328 21.026133-11.912533 12.689067-36.992 10.180267-57.3952 17.1264-14.1312 4.804267-8.4992 0.913067-18.909866-2.090667-20.3264-5.8624-41.6-9.7536-62.737067-9.736533l-13.738667-26.325333c5.000533-1.902933 17.783467-14.429867 25.582934-18.286934 34.798933-17.237333 97.570133-18.184533 132.1984-0.2304 6.084267 3.1488 18.6368 10.018133 17.723733 18.525867z" fill="#F7EFDF" p-id="4235"></path><path d="M752.545587 370.2272c-6.3744 50.4832-12.706133 67.362133-49.604266 103.0144l-32.375467-3.8656c-18.338133-7.227733-34.0736-5.9392-49.723733-18.952533-7.586133-6.314667-30.574933-39.7824-31.786667-48.3584-0.554667-3.908267 4.386133-7.918933 3.242667-8.9344-8.098133-0.768-17.2032 1.083733-25.070934 0.1024-5.265067-0.657067-5.1456-3.797333-5.461333-3.925334 16.657067-0.4608 33.7664 2.210133 49.604267-3.8144 5.410133 2.525867-1.2032 8.968533 0.4608 16.554667 1.749333 7.970133 26.641067 39.031467 33.774933 42.683733l35.771733 5.085867c35.618133-9.2928 54.272-61.7472 29.320534-89.258667-5.0688-5.589333-12.6464-7.569067-18.978134-11.562666-5.623467-3.5584-13.738667-5.0176-11.682133-13.098667 20.027733-1.169067 35.191467-1.4848 51.584 11.374933 8.763733 6.877867 12.16 17.237333 20.9152 22.9632z" fill="#F9E4CD" p-id="4236"></path><path d="M454.937054 690.722133c-0.264533 0.597333-3.191467 2.065067-4.522667 4.864-4.522667 9.472-9.1392 18.9696-10.760533 29.4656l-2.0992 0.128c-19.6352-7.432533-37.3248-6.007467-56.942933-7.825066-4.6848-0.4352-9.0624-3.5584-15.172267-3.899734-39.210667-2.218667-77.892267 2.602667-116.5312 3.976534l32.418133-34.295467c4.292267 5.700267 12.416 5.410133 17.1776 7.6032 0.6912 0.315733 1.885867 3.5328 4.727467 4.650667 29.499733 11.5968 51.140267 6.263467 73.489067-16.0768l24.797866 15.249066c3.524267-8.644267 2.884267-48.8704 9.8048-49.7664 10.197333-1.877333 47.965867 4.002133 53.307734 11.451734 4.0192 5.614933-6.3488 27.0592-9.685334 34.491733z" fill="#FAFBFB" p-id="4237"></path><path d="M622.813321 358.784l-21.051734 3.746133c-10.743467-0.699733-23.424 1.706667-33.681066-0.4864-1.8944-0.401067-2.2016-3.165867-2.500267-3.259733 42.990933 3.729067 53.589333-61.9008 16.452267-75.579733-21.290667-7.842133-46.737067 5.7856-50.176 28.654933-0.682667 4.548267 1.4848 20.053333 3.2 24.029867l-9.079467 0.418133-2.372267 3.396267c-16.477867-32.776533-6.0672-59.784533 22.894934-80.128 11.1872 10.453333 28.245333-0.904533 40.0384-3.831467l-5.691734-7.611733c20.565333 0.725333 39.645867 14.165333 51.413334 30.626133 18.432 25.7792 11.946667 59.221333-9.437867 80.0256z" fill="#F5C487" p-id="4238"></path><path d="M489.275187 652.5696l41.966934-7.6288c-3.370667 13.815467-3.131733 23.031467 4.309333 35.754667 17.109333 29.252267 64.162133 23.133867 92.637867 17.834666l13.713066 22.7072c-46.464-4.608-96.136533-11.349333-143.249066-7.790933-7.3216 0.554667-42.069333 9.361067-43.707734 7.790933l11.4432-30.5152 22.894934-38.152533z" fill="#FAFBFA" p-id="4239"></path><path d="M290.875187 335.889067c0.494933 2.2016-0.324267 5.188267 0 7.6288l-23.0912 1.706666c-6.903467 13.576533-19.208533 19.5328-21.9392 35.293867-2.3552 13.6448-2.107733 38.843733 5.009067 50.722133 10.026667 16.7424 42.513067 22.4 60.3904 18.491734 16.085333-3.515733 55.773867-36.701867 40.686933-56.610134 3.797333-0.128 7.662933 0.256 11.4432 0 10.180267 7.6544 14.148267 10.0864 10.8544 24.2176-0.418133 1.809067-7.0912 16.384-7.739733 17.058134-1.339733 1.390933-5.973333 1.749333-8.900267 4.3264-10.171733 8.925867-29.320533 23.364267-42.5216 26.2656-16.128 3.549867-37.009067-4.753067-50.884266 8.251733-29.021867-27.0336-38.664533-49.1264-45.781334-87.7568-2.884267-39.0144 40.337067-52.9152 72.490667-49.604267z" fill="#F9E4D0" p-id="4240"></path><path d="M374.809054 251.946667l-13.3632 3.8144c11.1616 5.930667 20.437333 7.1424 31.240533 14.549333 6.101333 4.181333 11.485867 3.5328 5.009067 12.16-0.776533-0.3328-15.675733-3.2256-16.520533-3.157333-19.694933 1.5872-38.5024 23.5008-37.085867 43.1104 0.375467 5.248 11.460267 25.2416 15.445333 28.7232l-11.4432 7.6288c-12.091733-6.084267-24.533333-12.202667-36.266666-19.0464l-1.8944 3.7888c-23.313067-45.832533 4.497067-91.460267 55.424-95.709867l6.8864 0.896c1.8176 0.349867 2.235733 3.157333 2.551466 3.234133z" fill="#F4C07F" p-id="4241"></path><path d="M680.046387 335.889067c-2.056533 8.081067 6.058667 9.540267 11.682134 13.098666 6.331733 4.002133 13.909333 5.973333 18.978133 11.562667 24.942933 27.511467 6.2976 79.965867-29.320533 89.258667l-35.771734-5.085867c-7.1424-3.6608-32.0256-34.7136-33.774933-42.683733-1.664-7.5776 4.9408-14.0288-0.4608-16.554667 0.8192-0.315733 14.5152-7.168 15.2576-7.6288 6.4 6.4 4.821333 18.619733 9.565867 26.6752 2.141867 3.643733 28.066133 25.506133 30.890666 26.359467 13.2352 3.9936 30.267733-15.812267 32.017067-28.228267 2.542933-18.0224-4.565333-24.891733-11.9808-39.509333l-24.251733-8.311467c-7.8336 0.017067-16.008533 10.282667-19.003734 10.453333-1.143467 0.059733-1.6896-2.6624-1.9712-2.696533l0.554667-5.1456c4.002133-5.666133 8.6272-11.0592 10.888533-17.7408 9.591467 1.1008 17.092267-3.2512 26.709334-3.8144z" fill="#F8D0B5" p-id="4242"></path><path d="M271.794654 629.674667c0.1024-32.110933 24.558933-67.498667 43.8784-91.554134l20.9664 43.8784-11.392 7.808c1.092267 7.645867 4.7872 13.508267 11.400533 16.9728-10.129067 8.132267-20.514133 17.143467-25.915733 29.4144-6.144 13.969067-2.167467 26.410667-8.4224 39.2704-1.629867-0.708267-5.3248 0.477867-7.6288 0-8.593067-16.110933-22.971733-20.718933-22.894933-45.781333z" fill="#F4BA75" p-id="4243"></path><path d="M752.545587 316.808533c1.450667 8.772267 4.360533 43.144533 3.1744 50.781867-0.264533 1.698133-3.131733 2.295467-3.1744 2.6368-8.746667-5.7344-12.142933-16.085333-20.9152-22.9632-16.392533-12.859733-31.556267-12.535467-51.584-11.374933-9.617067 0.5632-17.109333 4.9152-26.709333 3.8144 2.065067-6.101333 2.3552-17.3568 4.369067-24.2432l3.1488-4.48 75.042133-28.151467c11.076267-1.834667 12.125867 23.227733 13.525333 31.266133 0.324267 1.8688 3.072 2.440533 3.1232 2.730667z" fill="#F2BD7B" p-id="4244"></path><path d="M302.318387 675.464533c6.263467-12.859733 2.2784-25.2928 8.4224-39.2704 5.393067-12.270933 15.786667-21.2736 25.915734-29.4144 3.6864 1.928533 9.250133 1.664 15.172266 5.828267 39.978667 28.117333 14.788267 90.530133-42.112 68.6848-4.334933-1.664-6.621867-5.495467-7.3984-5.828267z" fill="#F6EDDC" p-id="4245"></path><path d="M641.893854 362.5984c0.2816 0.0256 0.827733 2.756267 1.9712 2.696533 2.9952-0.162133 11.178667-10.436267 19.003733-10.453333l24.251734 8.311467c7.415467 14.6176 14.523733 21.486933 11.9808 39.509333-1.757867 12.416-18.781867 32.221867-32.017067 28.228267-2.824533-0.853333-28.7488-22.715733-30.890667-26.359467-4.744533-8.064-3.1744-20.283733-9.565866-26.6752 2.321067-1.442133 9.7536-15.812267 15.2576-15.2576z" fill="#F7B89B" p-id="4246"></path><path d="M290.875187 335.889067c-32.162133-3.310933-75.383467 10.589867-72.490666 49.604266-0.059733-0.3328-3.370667-0.878933-3.874134-5.512533-2.338133-21.6064 0.7936-63.453867 7.739734-84.104533 1.3312-3.950933 1.237333-6.980267 5.700266-9.6l58.717867 25.207466c-0.546133 8.772267 2.3808 16.213333 4.206933 24.405334z" fill="#F4C07F" p-id="4247"></path><path d="M290.875187 343.517867l3.8144 7.6288c-4.642133 6.417067-21.2224 7.569067-26.0096 12.16-0.904533 0.8704-11.0848 18.978133-11.52 20.898133-4.0192 17.655467 4.522667 48.5376 24.192 50.8672 29.969067 3.5584 58.4704-9.984 59.144534-41.941333 3.780267-0.187733 7.620267 0.119467 11.4176 0 15.086933 19.908267-24.6016 53.0944-40.686934 56.610133-17.877333 3.908267-50.363733-1.749333-60.3904-18.491733-7.1168-11.8784-7.364267-37.077333-5.009066-50.722134 2.722133-15.761067 15.035733-21.717333 21.9392-35.293866l23.0912-1.706667z" fill="#FAD4BD" p-id="4248"></path><path d="M302.318387 362.5984c-5.4528 6.109867-14.2848 5.12-21.128533 11.306667-25.0624 22.664533-0.042667 62.1824 32.469333 40.098133 9.233067-6.272 18.107733-16.324267 15.368534-28.509867 0.802133 0.366933 15.249067 3.524267 17.2544 3.746134 10.4192 1.1264 21.777067-0.597333 32.341333 0.0768-5.922133 2.0224-5.623467 3.157333-15.2576 3.8144-3.780267 0.256-7.645867-0.128-11.4432 0-3.7888 0.128-7.6288-0.1792-11.4176 0-0.674133 31.957333-29.175467 45.499733-59.144533 41.941333-19.669333-2.338133-28.2112-33.211733-24.192-50.8672 0.4352-1.911467 10.606933-20.027733 11.52-20.898133 4.7872-4.5824 21.367467-5.742933 26.0096-12.16 4.932267 1.962667 5.248 8.789333 7.6288 11.4432z" fill="#F8C5AA" p-id="4249"></path><path d="M329.027721 385.493333c2.7392 12.1856-6.126933 22.237867-15.368534 28.509867-32.512 22.084267-57.531733-17.4336-32.469333-40.098133 6.8352-6.186667 15.6672-5.1968 21.128533-11.306667 2.4832 2.773333 25.096533 22.152533 26.709334 22.894933z" fill="#F7B393" p-id="4250"></path><path d="M416.784521 255.761067c-12.270933-11.221333-27.204267-14.7456-41.966934-19.080534-2.2528-0.657067-7.586133-6.9632-15.2832-3.822933l4.386134-22.331733c33.1264-16.674133 84.932267 9.565867 52.864 45.2352z" fill="#F7F0E0" p-id="4251"></path><path d="M599.926921 236.689067c-20.821333-3.669333-47.163733-0.273067-64.861867 11.4432-8.465067-4.829867-2.645333-21.5808 1.885867-26.7264 4.224-4.804267 28.066133-14.8736 34.5088-15.377067 13.636267-1.0496 32.622933 15.095467 28.475733 30.660267z" fill="#F4EFE0" p-id="4252"></path><path d="M374.809054 251.946667c4.497067 1.134933 8.072533 0.034133 14.148267 2.9952 29.474133 14.344533 45.2096 46.779733 34.645333 78.225066-4.386133 13.038933-10.538667 21.896533-22.084267 29.431467l-2.2528-3.4048c-1.749333-0.7424-3.584-0.298667-5.376-0.4096 5.077333-5.853867 12.3392-8.507733 17.058134-15.368533 12.117333-17.6128 7.953067-51.831467-13.243734-60.936534 6.4768-8.6272 1.083733-7.978667-5.009066-12.16-10.8032-7.406933-20.078933-8.618667-31.240534-14.549333l13.3632-3.8144z" fill="#F2CC98" p-id="4253"></path><path d="M348.108254 534.289067c4.718933 23.0912 16.8192 46.737067 26.709333 68.676266 4.1216 9.1392 14.1824 23.9616 15.351467 32.366934 1.0496 7.517867-1.6128 6.178133-7.714133 5.802666 1.399467-20.6848-17.288533-30.711467-26.180267-44.424533-5.341867-8.2432-20.352-43.8528-22.843733-53.461333-1.092267-4.1984-0.554667-8.533333-0.571734-12.7744l15.2576 3.8144z" fill="#E36350" p-id="4254"></path><path d="M500.718387 324.445867c-20.9408-1.7152-40.9344 2.449067-61.047466 7.6288 1.6384-7.406933-1.4336-17.877333 4.369066-26.154667 11.511467-6.519467 52.036267-8.106667 56.277334 5.6576 1.339733 4.352-0.477867 9.762133 0.401066 12.868267z" fill="#F1BB7A" p-id="4255"></path><path d="M535.065054 335.889067c5.307733 12.3136 18.568533 19.157333 30.523733 22.894933 0.290133 0.093867 0.605867 2.850133 2.500267 3.259733 10.257067 2.193067 22.9376-0.213333 33.681067 0.4864l21.051733-3.746133c-6.084267 5.922133-12.0064 12.3904-21.597867 14.6432-28.885333 6.792533-58.171733-0.9472-75.767466-26.1888-2.133333-3.063467-1.2032-6.289067-1.834667-7.534933l2.372267-3.396267 9.079466-0.418133z" fill="#F6E5CA" p-id="4256"></path><path d="M348.108254 358.784c16.4608 8.285867 20.130133 9.0368 39.560533 3.208533l2.4064-3.208533c1.262933 0.110933 2.551467-0.0768 3.8144 0 1.792 0.110933 3.626667-0.3328 5.376 0.4096l2.2528 3.4048c-26.094933 17.024-49.339733 21.512533-76.202666 1.800533-8.1408-5.973333-11.050667-12.381867-15.368534-20.881066l1.8944-3.7888c11.733333 6.852267 24.1664 12.962133 36.266667 19.0464z" fill="#EDDDC6" p-id="4257"></path><path d="M351.922654 511.402667v7.6288c-8.533333-1.4592-10.3424-6.613333-15.2576-11.4432-0.264533-0.256 0.392533-3.037867-2.0992-3.6608l-13.166933 3.6608c-1.570133-2.781867-7.236267-6.229333-7.6288-11.4432 4.241067-4.1728 13.6704-8.388267 20.283733-7.202134 15.0016 3.771733 13.269333 12.672 17.877333 22.468267z" fill="#4C2920" p-id="4258"></path><path d="M580.846387 248.132267l5.691734 7.611733c-11.784533 2.935467-28.8512 14.293333-40.0384 3.831467 11.255467-7.901867 19.6096-11.963733 34.338133-11.4432z" fill="#E3D1BC" p-id="4259"></path><path d="M336.656521 507.579733l-1.911467 11.451734c-14.037333 1.7664-10.257067-5.9648-13.346133-11.451734l13.166933-3.6608c2.4832 0.622933 1.834667 3.4048 2.0992 3.6608z" fill="#D6C7BB" p-id="4260"></path><path d="M386.269321 656.392533h3.797333v11.434667h-3.797333z" fill="#EAF1F2" p-id="4261"></path><path d="M577.031987 618.231467c2.688 5.725867 10.257067 6.016 15.163734 9.634133 14.882133 10.973867 26.743467 37.290667 30.6176 55.227733-16.674133 3.387733-37.896533 6.4512-55.406934 3.899734-9.4976-1.3824-24.183467-14.890667-24.9088-24.9856-0.4608-6.4512 8.098133-27.178667 12.433067-31.530667s18.4064-9.693867 22.0928-12.245333z" fill="#F6EEDC" p-id="4262"></path><path d="M275.617587 168.004267c-2.065067-18.619733 1.143467-88.925867 21.4016-95.010134 16.264533-4.881067 47.530667 25.207467 54.877867 39.697067 0.0512 2.2016-25.224533 15.488-30.336 19.234133-11.8528 8.669867-23.338667 21.060267-34.500267 30.3616-3.857067 3.217067-4.898133 7.296-11.4432 5.717334z" fill="#F9C0B6" p-id="4263"></path><path d="M687.675187 168.004267c-6.545067 1.578667-7.586133-2.5088-11.4432-5.717334-7.3728-6.135467-13.610667-15.061333-20.906666-21.060266-6.0416-4.9664-39.466667-26.197333-40.132267-28.5696-1.169067-4.821333 3.131733-6.528 5.725867-9.514667 13.1328-15.1296 41.3696-46.165333 56.132266-17.9712 12.9024 24.644267 10.709333 55.893333 10.632534 82.833067z" fill="#F7C3BA" p-id="4264"></path><path d="M472.771721 416.4352c8.081067-1.5616 32.2304 13.866667 40.832 19.114667 5.802667 3.541333 7.2192 5.905067 6.178133 12.8768-4.608 5.265067-4.539733 6.4512-11.605333 4.002133-8.362667-2.8928-26.555733-20.3776-32.264534-20.369067l-38.126933 22.109867-5.6064-13.2096L472.763187 416.4352z" fill="#523128" p-id="4265"></path><path d="M535.065054 335.889067c-1.7152-3.976533-3.882667-19.4816-3.2-24.029867 3.447467-22.869333 28.893867-36.5056 50.176-28.654933 37.137067 13.687467 26.530133 79.317333-16.452267 75.579733-11.9552-3.7376-25.216-10.581333-30.523733-22.894933z" fill="#5A352A" p-id="4266"></path><path d="M397.703987 282.4704c21.1968 9.105067 25.352533 43.323733 13.243734 60.936533-4.718933 6.869333-11.9808 9.5232-17.058134 15.368534-1.262933-0.0768-2.56 0.110933-3.8144 0-10.8288-0.9728-21.0688 0.6144-30.523733-7.6288-3.9936-3.4816-15.069867-23.4752-15.445333-28.7232-1.416533-19.6096 17.3824-41.5232 37.085866-43.1104 0.836267-0.068267 15.744 2.824533 16.520534 3.157333z" fill="#59352B" p-id="4267"></path><path d="M390.075187 358.784l-2.4064 3.208533c-19.438933 5.828267-23.099733 5.077333-39.560533-3.208533l11.4432-7.6288c9.454933 8.251733 19.694933 6.664533 30.523733 7.6288z" fill="#F2CC98" p-id="4268"></path><path d="M172.594654 660.1984l3.8144 7.6288c-3.2256 5.512533-19.464533 18.961067-5.7088 22.8864 5.3248 1.518933 8.004267-5.2224 11.298133-7.7568 7.901867-6.084267 15.095467-6.152533 20.642134 2.517333 9.591467 14.984533 4.4544 22.8608-10.965334 28.142934-24.917333 8.5248-52.804267 2.6624-76.305066-7.6288v-38.152534c6.468267-0.896 2.901333 6.280533 5.6576 11.502934 5.248 9.966933 21.316267 13.320533 24.8576 24.7552l7.637333-3.84-1.706667-13.533867-24.9856-11.264c1.621333-4.488533 20.2752-14.72 22.894934-15.249067 6.536533-1.322667 15.778133 0.878933 22.894933 0z" fill="#EDEFF0" p-id="4269"></path><path d="M149.699721 660.1984c-2.6112 0.529067-21.265067 10.769067-22.894934 15.249067l24.9856 11.264 1.706667 13.533866-7.637333 3.84c-3.541333-11.434667-19.6096-14.7968-24.8576-24.7552-2.747733-5.2224 0.810667-12.407467-5.649067-11.502933v38.152533h-1.9968c-3.293867-14.318933-1.937067-30.7456-1.826133-45.789866 7.901867-2.363733 15.8208-0.750933 19.2768-1.706667 7.552-2.090667 13.090133-12.7488 18.875733 1.706667z" fill="#694A41" p-id="4270"></path><path d="M122.990387 629.674667c5.128533 0.546133 9.3184 3.473067 13.3888 3.746133 23.4752 1.5872 44.475733-0.349867 66.730667-7.560533v41.975466h-26.7008l-3.8144-7.6288c9.608533 1.629867 24.106667 1.442133 22.894933-11.4432-14.574933-4.317867-30.6688-9.3952-38.152533 7.611734 7.150933-3.7376 14.4896 3.694933 15.266133 3.822933-7.1168 0.878933-16.3584-1.322667-22.894933 0-5.7856-14.455467-11.323733-3.797333-18.875733-1.706667-3.456 0.955733-11.374933-0.657067-19.2768 1.706667 0.068267-10.1376-0.0512-20.386133 0-30.523733 3.754667 0.256 7.714133-0.401067 11.4432 0z" fill="#E7E6E5" p-id="4271"></path><path d="M124.901854 618.231467l-5.725867-7.620267c24.797867-4.7872 51.720533-6.852267 76.305067 0 1.527467 3.464533-8.925867 7.620267-9.531733 7.620267h-61.047467z" fill="#D3CECB" p-id="4272"></path><path d="M122.990387 629.674667c-3.729067-0.401067-7.688533 0.256-11.4432 0l1.9712-3.754667 3.754667-0.196267 3.754667 0.196267 1.9712 3.754667z" fill="#4F2C22" p-id="4273"></path><path d="M172.594654 660.1984c-0.776533-0.128-8.106667-7.560533-15.266133-3.822933 7.483733-17.006933 23.5776-11.9296 38.152533-7.611734 1.211733 12.885333-13.2864 13.064533-22.894933 11.4432z" fill="#5C3F38" p-id="4274"></path></svg>