<?xml version="1.0" standalone="no"?><!DOCTYPE svg PUBLIC "-//W3C//DTD SVG 1.1//EN" "http://www.w3.org/Graphics/SVG/1.1/DTD/svg11.dtd"><svg t="1784020192374" class="icon" viewBox="0 0 1026 1024" version="1.1" xmlns="http://www.w3.org/2000/svg" p-id="94816" xmlns:xlink="http://www.w3.org/1999/xlink" width="200.390625" height="200"><path d="M19.648618 984.702764h34.385081a19.648618 19.648618 0 1 1 0 39.297236H19.648618a19.648618 19.648618 0 0 1 0-39.297236z m906.292499 0h81.050548a19.648618 19.648618 0 0 1 0 39.297236h-81.050548a19.648618 19.648618 0 0 1 0-39.297236z m-785.944715 0h709.80632a19.648618 19.648618 0 0 1 0 39.297236H139.996402a19.648618 19.648618 0 0 1 0-39.297236z" fill="#261D50" p-id="94817"></path><path d="M248.886586 212.450681l529.284644 0 0 517.004257-529.284644 0 0-517.004257Z" fill="#FFFFFF" p-id="94818"></path><path d="M329.937135 742.963363h368.411585l-22.694154 183.861941a17.192541 17.192541 0 0 1-17.069737 15.080315H369.701025a17.192541 17.192541 0 0 1-17.057456-15.080315zM329.937135 212.450681h368.411585L676.182623 32.899155A22.104695 22.104695 0 0 0 654.249853 13.508425H374.036002a22.104695 22.104695 0 0 0-21.93277 19.39073z" fill="#FDD838" p-id="94819"></path><path d="M662.932086 948.045812H365.353769a22.104695 22.104695 0 0 1-21.908209-19.39073l-24.560773-199.200144h390.51628l-24.560772 199.200144A22.104695 22.104695 0 0 1 662.932086 948.045812z m-288.896084-19.648618h280.213851a12.280386 12.280386 0 0 0 12.182143-10.769899L687.296372 749.103556h-346.306889l20.876656 168.523739a12.280386 12.280386 0 0 0 12.169863 10.769899zM709.401067 218.590874h-390.51628l25.125671-203.51056A17.192541 17.192541 0 0 1 361.006512 0h306.272831a17.192541 17.192541 0 0 1 17.057456 15.080314z m-368.411584-18.42058h346.306889l-20.876656-169.739497a12.280386 12.280386 0 0 0-12.182143-10.769899H374.036002a12.280386 12.280386 0 0 0-12.182143 10.769899z" fill="#261D50" p-id="94820"></path><path d="M742.55811 406.272015L413.627967 702.438088h22.288901l306.641242-276.087641v-20.078432zM573.629118 702.438088h124.117863a44.811129 44.811129 0 0 0 44.811129-44.811129v-107.293734z" fill="#2CB3D3" p-id="94821"></path><path d="M697.746981 245.607723h-367.183546a44.811129 44.811129 0 0 0-44.83569 44.811129v367.183547A44.811129 44.811129 0 0 0 330.538874 702.438088h35.379792l376.639444-339.135144v-72.884092A44.811129 44.811129 0 0 0 697.746981 245.607723z m-275.70695 57.717815h-66.314085a7.368232 7.368232 0 0 0-7.368232 7.368232v59.056377a9.824309 9.824309 0 0 1-19.648618 0V310.69377a27.01685 27.01685 0 0 1 27.01685-27.01685h66.314085a9.824309 9.824309 0 0 1 0 19.648618z m35.61312 0a9.824309 9.824309 0 1 1 9.824309-9.824309 9.824309 9.824309 0 0 1-9.824309 9.824309z" fill="#00B7D6" p-id="94822"></path><path d="M774.487114 275.08065h54.033699a24.560772 24.560772 0 0 1 24.560772 24.560772v98.24309a24.560772 24.560772 0 0 1-24.560772 24.560772h-54.033699z" fill="#FF6660" p-id="94823"></path><path d="M833.432968 432.269593h-63.858008V265.256341h63.858008a34.385081 34.385081 0 0 1 34.385081 34.385081v98.24309a34.385081 34.385081 0 0 1-34.385081 34.385081z m-44.209391-19.648618h44.209391a14.736463 14.736463 0 0 0 14.736463-14.736463v-98.24309a14.736463 14.736463 0 0 0-14.736463-14.736463h-44.209391zM700.804797 712.262397h-373.323739a51.577622 51.577622 0 0 1-51.577622-51.577622V287.361036a51.577622 51.577622 0 0 1 51.577622-51.577622h373.323739a51.577622 51.577622 0 0 1 51.577622 51.577622v373.323739a51.577622 51.577622 0 0 1-51.577622 51.577622z m-373.323739-456.830365a31.929004 31.929004 0 0 0-31.929004 31.929004v373.323739a31.929004 31.929004 0 0 0 31.929004 31.929004h373.323739a31.929004 31.929004 0 0 0 31.929004-31.929004V287.361036a31.929004 31.929004 0 0 0-31.929004-31.929004z" fill="#261D50" p-id="94824"></path><path d="M717.997338 749.103556h-407.708821a71.312202 71.312202 0 0 1-71.22624-71.22624V467.772189a9.824309 9.824309 0 0 1 19.648618 0V677.877316a51.577622 51.577622 0 0 0 51.577622 51.577622h407.708821a51.577622 51.577622 0 0 0 51.577622-51.577622V270.168496a51.577622 51.577622 0 0 0-51.577622-51.577622h-407.708821a51.577622 51.577622 0 0 0-51.577622 51.577622v51.000443a9.824309 9.824309 0 0 1-19.648618 0V270.168496a71.312202 71.312202 0 0 1 71.22624-71.22624h407.708821a71.312202 71.312202 0 0 1 71.226239 71.22624v407.70882a71.312202 71.312202 0 0 1-71.226239 71.22624z m-469.110752-315.200672a9.824309 9.824309 0 0 1-9.824309-9.824309V361.043353a9.824309 9.824309 0 1 1 19.648618 0v63.072063a9.824309 9.824309 0 0 1-9.824309 9.787468z" fill="#261D50" p-id="94825"></path></svg>