<?xml version="1.0" standalone="no"?><!DOCTYPE svg PUBLIC "-//W3C//DTD SVG 1.1//EN" "http://www.w3.org/Graphics/SVG/1.1/DTD/svg11.dtd"><svg t="1784020398987" class="icon" viewBox="0 0 1024 1024" version="1.1" xmlns="http://www.w3.org/2000/svg" p-id="109705" xmlns:xlink="http://www.w3.org/1999/xlink" width="200" height="200"><path d="M714.24 385.44a188.16 188.16 0 1 0-376.32 0A181.12 181.12 0 0 0 416 534.72a264 264 0 0 0-155.84 246.56 30.56 30.56 0 0 0 32 32c19.52 0 25.92-19.36 25.92-32a203.68 203.68 0 0 1 208-201.28 322.88 322.88 0 0 1 77.92 13.12 28.96 28.96 0 0 0 38.88-19.52 42.88 42.88 0 0 0-6.56-38.88 181.12 181.12 0 0 0 77.92-149.28zM526.08 508.8a123.36 123.36 0 1 1 123.36-123.36 119.52 119.52 0 0 1-123.36 123.36z" fill="#1678FF" p-id="109706"></path><path d="M993.28 949.92l-90.88-90.88A170.72 170.72 0 0 0 947.84 736a188.16 188.16 0 1 0-188.16 188 272 272 0 0 0 97.28-25.92l90.88 90.72a32 32 0 0 0 38.88 0 32 32 0 0 0 6.56-38.88zM766.24 865.6A129.76 129.76 0 1 1 896 736a130.24 130.24 0 0 1-129.76 129.6z" fill="#333333" p-id="109707"></path><path d="M748.64 629.92a94.4 94.4 0 0 0-94.88 94.72 26.4 26.4 0 1 0 52.64 0 41.6 41.6 0 0 1 42.24-42.08 26.4 26.4 0 0 0 0-52.64z" fill="#333333" p-id="109708"></path><path d="M591.04 904.48H169.28a85.76 85.76 0 0 1-84.32-84.32V171.36a85.76 85.76 0 0 1 84.32-84.32h656a85.76 85.76 0 0 1 84.32 84.32v363.36a26.24 26.24 0 0 0 26.08 32 30.56 30.56 0 0 0 32-32V171.36a144 144 0 0 0-142.72-142.72H169.28a144 144 0 0 0-142.72 142.72v655.2a144 144 0 0 0 142.72 142.72h421.76a32 32 0 0 0 0-64z" fill="#333333" p-id="109709"></path></svg>