<?xml version="1.0" standalone="no"?><!DOCTYPE svg PUBLIC "-//W3C//DTD SVG 1.1//EN" "http://www.w3.org/Graphics/SVG/1.1/DTD/svg11.dtd"><svg t="1784020631065" class="icon" viewBox="0 0 1024 1024" version="1.1" xmlns="http://www.w3.org/2000/svg" p-id="131922" xmlns:xlink="http://www.w3.org/1999/xlink" width="200" height="200"><path d="M277.486197 254.478476m31.852469 0l317.955896 0q31.852469 0 31.852469 31.852469l0 0q0 31.852469-31.852469 31.852469l-317.955896 0q-31.852469 0-31.852469-31.852469l0 0q0-31.852469 31.852469-31.852469Z" fill="#89BAF7" p-id="131923"></path><path d="M277.486197 485.97767m31.852469 0l317.955896 0q31.852469 0 31.852469 31.852469l0 0q0 31.852469-31.852469 31.852469l-317.955896 0q-31.852469 0-31.852469-31.852469l0 0q0-31.852469 31.852469-31.852469Z" fill="#89BAF7" p-id="131924"></path><path d="M401.881464 1006.538021H236.021108a179.283897 179.283897 0 0 1-179.05638-179.056379v-648.425263A179.283897 179.283897 0 0 1 236.021108 0h503.496528a179.283897 179.283897 0 0 1 179.056379 179.056379v306.12498a35.834028 35.834028 0 1 1-71.611175 0V179.056379a107.558962 107.558962 0 0 0-107.445204-107.445203H236.021108a107.558962 107.558962 0 0 0-107.445204 107.445203v648.425263a107.558962 107.558962 0 0 0 107.445204 107.445204H401.881464a35.834028 35.834028 0 1 1 0 71.611175z" fill="#0A71EF" p-id="131925"></path><path d="M980.117536 741.252458l-0.341276-1.251347a25.823252 25.823252 0 0 0-32.193746-17.063823c-6.939288 1.9339-14.219852 3.697162-21.841693 5.687941-15.300561-26.847081-29.349775-54.604233-41.977004-82.475143a94.533578 94.533578 0 0 0-73.260679-54.945509 621.805699 621.805699 0 0 0-85.319113-6.939288 629.256902 629.256902 0 0 0-85.831028 6.541132 94.874854 94.874854 0 0 0-73.260679 54.774871l-1.592624 3.185247c-10.124535 21.329778-24.003111 50.281398-40.498139 79.631172a264.034217 264.034217 0 0 1-21.15914-5.68794 26.392046 26.392046 0 0 0-33.217575 15.812475 25.99389 25.99389 0 0 0 15.983114 33.217575l2.332056 0.739432 7.451203 2.104539a121.2669 121.2669 0 0 0-17.746376 62.567349c0 34.127645 5.687941 87.821807 8.70255 117.000945a58.187635 58.187635 0 0 0 57.960117 52.101538h31.454313a58.187635 58.187635 0 0 0 55.116148-39.815586l6.768649-18.485808a6.541132 6.541132 0 0 1 6.029218-4.265955h161.594401a5.972338 5.972338 0 0 1 6.029217 4.265955l6.427373 18.656446a58.415153 58.415153 0 0 0 55.286786 40.327501h31.852469a58.358274 58.358274 0 0 0 58.130756-52.101538c3.185247-29.179137 8.70255-83.043937 8.702549-117.000945a121.153141 121.153141 0 0 0-17.746375-62.56735c2.502694-0.739432 4.77787-1.421985 7.109926-1.933899a26.392046 26.392046 0 0 0 19.054602-32.079987z m-68.937844 207.097928a6.256735 6.256735 0 0 1-6.427373 5.687941h-31.681831a6.541132 6.541132 0 0 1-6.029217-4.265956l-6.427373-18.656446a58.130756 58.130756 0 0 0-55.286786-40.327501h-161.65128a58.244515 58.244515 0 0 0-55.116148 40.156863l-6.427373 18.827084a6.313614 6.313614 0 0 1-6.029217 4.265956h-31.79559a6.370494 6.370494 0 0 1-6.427373-5.687941c-5.687941-51.191468-8.361273-88.902516-8.361273-111.085486a71.554297 71.554297 0 0 1 12.456591-39.815586c2.502694-3.754041 5.005388-7.451203 7.280564-11.375882a1020.1322 1020.1322 0 0 0 350.889074 0c2.332056 3.583403 4.607232 7.280564 6.76865 10.863967a70.132311 70.132311 0 0 1 12.627228 39.47431c-0.056879 33.160695-5.915459 89.130034-8.531911 111.711159z m-297.763706-281.211798a42.830195 42.830195 0 0 1 33.615731-25.083819 472.440371 472.440371 0 0 1 154.996389 0 43.171471 43.171471 0 0 1 33.615731 25.083819c8.019997 17.405099 20.24907 43.000833 35.890907 71.440538a927.532522 927.532522 0 0 1-147.033272 11.034605h-2.673332a958.190524 958.190524 0 0 1-144.35994-11.034605c15.641837-28.667222 28.098428-54.206077 35.890907-71.668056z" fill="#FF7733" p-id="131926"></path></svg>