<svg t="1783937861519" class="icon" viewBox="0 0 1024 1024" version="1.1" xmlns="http://www.w3.org/2000/svg" p-id="27765"><path d="M512 512m-469.333333 0a469.333333 469.333333 0 1 0 938.666666 0 469.333333 469.333333 0 1 0-938.666666 0Z" fill="#FF6A00" p-id="27766"></path><path d="M512 149.333333c200.298667 0 362.666667 162.368 362.666667 362.666667s-162.368 362.666667-362.666667 362.666667S149.333333 712.298667 149.333333 512 311.701333 149.333333 512 149.333333z m0 40.298667C333.952 189.632 189.632 333.952 189.632 512S333.952 834.368 512 834.368 834.368 690.048 834.368 512 690.048 189.632 512 189.632z" fill="#FFFFFF" p-id="27767"></path><path d="M512 298.666667c200.298667 0 362.666667 100.288 362.666667 224S712.298667 746.666667 512 746.666667 149.333333 646.378667 149.333333 522.666667 311.701333 298.666667 512 298.666667z m0 40.746666c-180.906667 0-322.368 87.36-322.368 183.253334S331.093333 705.92 512 705.92s322.368-87.36 322.368-183.253333S692.906667 339.413333 512 339.413333z" fill="#FFFFFF" p-id="27768"></path><path d="M746.666667 512c0 200.298667-105.066667 362.666667-234.666667 362.666667s-234.666667-162.368-234.666667-362.666667S382.4 149.333333 512 149.333333s234.666667 162.368 234.666667 362.666667z m-42.666667 0c0-180.906667-91.52-322.368-192-322.368S320 331.093333 320 512s91.52 322.368 192 322.368S704 692.906667 704 512z" fill="#FFFFFF" p-id="27769"></path><path d="M469.333333 384v277.333333h-38.101333v-198.101333l-45.717333 35.669333L362.666667 467.2zM554.666667 661.333333V384h38.101333v198.101333l45.717333-35.669333L661.333333 578.133333z" fill="#FFFFFF" p-id="27770"></path></svg>