<svg t="1783937911465" class="icon" viewBox="0 0 1024 1024" version="1.1" xmlns="http://www.w3.org/2000/svg" p-id="29951"><path d="M924.3 362.9l-81 61.1v-91.3c0-53.3-43.2-96.5-96.5-96.5H152c-53.3 0-96.5 43.2-96.5 96.5v364.1c0 53.3 43.2 96.5 96.5 96.5h594.8c53.3 0 96.5-43.2 96.5-96.5v-91.4l81 61.1c16.2 12.2 39.3 0.7 39.3-19.6V382.5c0-20.3-23.1-31.8-39.3-19.6z" fill="#39AFDA" p-id="29952"></path><path d="M924.3 362.9l-81 61.1v-91.3c0-53.3-43.2-96.5-96.5-96.5H152c-53.3 0-96.5 43.2-96.5 96.5v364.1c0 53.3 43.2 96.5 96.5 96.5h594.8c53.3 0 96.5-43.2 96.5-96.5v-91.4l81 61.1c16.2 12.2 39.3 0.7 39.3-19.6V382.5c0-20.3-23.1-31.8-39.3-19.6z" fill="#FE6A19" p-id="29953"></path><path d="M746.8 236.1H152c-53.3 0-96.5 43.2-96.5 96.5v364.1c0 24.7 9.4 47.2 24.7 64.3L816 265.5c-17.5-18.1-42-29.4-69.2-29.4z" fill="#FF9843" p-id="29954"></path><path d="M843.3 332.6s2-39-27.2-67.1C810.7 267.3 783 277 783 277H188.2c-53.3 0-96.5 43.2-96.5 96.5v364.1c0 4.9 0.4 9.7 1.1 14.4 2.6 0.2 5.3 0.3 8 0.3h594.8c53.3 0 96.5-43.2 96.5-96.5v-91.3l81 61.1c16.2 12.2 39.3 0.7 39.3-19.6V371.8L843.2 424v-91.4z" fill="#FC8308" p-id="29955"></path><path d="M587 506.3L363.4 377.2c-2-1.1-4.5 0.3-4.5 2.6V638c0 2.3 2.5 3.7 4.5 2.6L587 511.5c2-1.2 2-4 0-5.2z" fill="#FFFFFF" p-id="29956"></path></svg>