<svg t="1783938081003" class="icon" viewBox="0 0 1024 1024" version="1.1" xmlns="http://www.w3.org/2000/svg" p-id="38065"><path d="M732.8 880C603.2 880 496 772.8 496 643.2c0-129.6 107.2-236.8 236.8-236.8 129.6 0 236.8 107.2 236.8 236.8C971.2 772.8 864 880 732.8 880z" fill="#96E8BA" p-id="38066"></path><path d="M574.4 777.6c-22.4 0-43.2-1.6-65.6-6.4-81.6-17.6-152-65.6-196.8-136-92.8-144-52.8-337.6 92.8-432 144-92.8 337.6-52.8 432 92.8 92.8 144 52.8 337.6-92.8 432-51.2 33.6-110.4 49.6-169.6 49.6z m0-564.8c-46.4 0-94.4 12.8-137.6 40C320 328 286.4 486.4 361.6 603.2 436.8 720 595.2 753.6 712 678.4c116.8-75.2 150.4-233.6 75.2-350.4-49.6-75.2-131.2-115.2-212.8-115.2z" fill="#103E26" p-id="38067"></path><path d="M952 915.2c-8 0-14.4-3.2-19.2-8l-192-208c-9.6-11.2-9.6-28.8 1.6-38.4 11.2-9.6 28.8-9.6 38.4 1.6l192 208c9.6 11.2 9.6 28.8-1.6 38.4-6.4 3.2-12.8 6.4-19.2 6.4z m-640-704H56c-14.4 0-27.2-12.8-27.2-27.2s12.8-27.2 27.2-27.2h256c14.4 0 27.2 12.8 27.2 27.2s-12.8 27.2-27.2 27.2z m-112 240H56c-14.4 0-27.2-12.8-27.2-27.2s12.8-27.2 27.2-27.2h144c14.4 0 27.2 12.8 27.2 27.2s-12.8 27.2-27.2 27.2z m64 272H56c-14.4 0-27.2-12.8-27.2-27.2s12.8-27.2 27.2-27.2h208c14.4 0 27.2 12.8 27.2 27.2s-12.8 27.2-27.2 27.2z m190.4-108.8c-9.6 0-20.8-4.8-25.6-14.4-14.4-27.2-46.4-97.6-24-184 9.6-33.6 24-64 46.4-91.2 9.6-12.8 28.8-14.4 41.6-4.8 12.8 9.6 14.4 28.8 4.8 41.6-17.6 20.8-28.8 43.2-35.2 68.8-17.6 65.6 6.4 120 17.6 139.2 8 14.4 3.2 32-11.2 40-4.8 3.2-9.6 4.8-14.4 4.8zM496 288a32 32 0 1 0 64 0 32 32 0 1 0-64 0z" fill="#103E26" p-id="38068"></path></svg>