<svg t="1783937617938" class="icon" viewBox="0 0 1455 1024" version="1.1" xmlns="http://www.w3.org/2000/svg" p-id="9572"><path d="M1183.423648 530.879659V909.837598H807.322176v30.680571H624.190911V909.837598H247.877848V304.05503h576.477334v80.192663a35.229758 35.229758 0 0 0 35.229758 35.229758h56.177182l59.66842 68.02623 59.774214-68.02623h148.113097z m-277.712057 84.636056a190.431125 190.431125 0 1 0-190.431126 190.431125 190.431125 190.431125 0 0 0 190.431126-190.53692z" fill="#D3EEE4" p-id="9573"></path><path d="M1413.63372 909.837598a280.991705 280.991705 0 0 1 0 57.552518 229.681096 229.681096 0 0 1-24.438661 40.413717H42.318028a235.18244 235.18244 0 0 1-24.544456-40.413717c-3.808623-13.859154 0-57.552518 0-57.552518H624.190911v30.680571h183.131265V909.837598h606.311544z" fill="#D3EEE4" p-id="9574"></path><path d="M715.597851 425.29618a190.431125 190.431125 0 1 1-190.431126 190.431125 190.431125 190.431125 0 0 1 190.431126-190.431125zM643.445613 719.406473l187.680454-108.439946L643.445613 502.52658z" fill="#FF8875" p-id="9575"></path><path d="M824.355182 218.255229v85.799801H247.877848V909.837598h-85.799801V267.238346A48.983117 48.983117 0 0 1 211.590139 218.255229zM988.12595 161.125891a45.49188 45.49188 0 1 1-45.49188 45.49188 45.49188 45.49188 0 0 1 45.49188-45.49188zM1132.007244 161.125891a45.49188 45.49188 0 1 1-45.491879 45.49188 45.597675 45.597675 0 0 1 45.491879-45.49188zM1275.888539 161.125891a45.49188 45.49188 0 1 1-45.597675 45.49188 45.597675 45.597675 0 0 1 45.597675-45.49188zM1269.117655 481.896542v428.258442h-85.694007V419.477451h85.694007v62.419091z" fill="#06C7CA" p-id="9576"></path><path d="M263.747108 909.837598h-31.73852V304.05503a15.86926 15.86926 0 0 1 15.86926-15.86926h576.477334v31.73852h-560.713869z" fill="#18252F" p-id="9577"></path><path d="M177.947307 909.837598h-31.738521V267.238346A64.958173 64.958173 0 0 1 211.590139 202.385968h613.611404v31.738521H211.590139a33.113857 33.113857 0 0 0-33.113857 33.113857zM1253.248394 419.477451h31.738521v490.677533h-31.738521zM1167.554388 419.477451h31.738521v490.677533h-31.738521z" fill="#18252F" p-id="9578"></path><path d="M1389.195059 1023.990478H42.318028a15.86926 15.86926 0 0 1-12.801204-6.559294 217.408868 217.408868 0 0 1-27.189332-45.28029 256.341454 256.341454 0 0 1-0.528976-63.477041 15.86926 15.86926 0 0 1 15.763466-14.493925H624.190911a15.86926 15.86926 0 0 1 15.86926 15.869261v14.599719h151.392745V909.837598a15.86926 15.86926 0 0 1 15.86926-15.86926h606.311544a15.86926 15.86926 0 0 1 15.763465 14.493924 258.245765 258.245765 0 0 1 0 63.477042 211.590139 211.590139 0 0 1-26.871948 45.597675 15.86926 15.86926 0 0 1-13.330178 6.453499z m-1338.942401-31.73852h1330.79618a171.811193 171.811193 0 0 0 17.350392-28.776259 182.17911 182.17911 0 0 0 0-37.451455H823.191436v14.493925a15.86926 15.86926 0 0 1-15.86926 15.86926H624.190911a15.86926 15.86926 0 0 1-15.869261-15.86926v-14.493925H32.373291a181.861725 181.861725 0 0 0 0 37.451455 175.725611 175.725611 0 0 0 17.879367 28.776259zM715.597851 821.287125a205.877205 205.877205 0 1 1 205.983-205.877205 206.088796 206.088796 0 0 1-205.983 205.877205z m0-380.121685a174.138685 174.138685 0 1 0 174.244479 174.24448A174.350275 174.350275 0 0 0 715.597851 441.16544z" fill="#18252F" p-id="9579"></path><path d="M643.445613 735.169938a15.86926 15.86926 0 0 1-15.86926-15.86926V502.52658a15.86926 15.86926 0 0 1 23.80389-13.753359l187.680454 108.439947a15.86926 15.86926 0 0 1 0 27.506718L651.380243 733.054037a15.86926 15.86926 0 0 1-7.93463 2.115901z m15.869261-205.136639v161.760661l140.072672-80.827433zM975.430542 503.372941a15.86926 15.86926 0 0 1-11.954843-5.395548l-54.907641-62.630682h-48.983118a51.204814 51.204814 0 0 1-51.099018-51.099018V51.099019A51.204814 51.204814 0 0 1 859.58494 0h544.844609a51.204814 51.204814 0 0 1 51.099018 51.099019v333.148674a51.204814 51.204814 0 0 1-51.099018 51.099018H1042.398821l-55.013437 62.630682a15.86926 15.86926 0 0 1-11.954842 5.395548zM859.58494 31.738521a19.360498 19.360498 0 0 0-19.360497 19.360498v333.148674a19.360498 19.360498 0 0 0 19.360497 19.360497h56.177182a15.86926 15.86926 0 0 1 11.954843 5.395549l47.713577 54.484461 47.819371-54.484461a15.86926 15.86926 0 0 1 11.954843-5.395549h369.224793a19.360498 19.360498 0 0 0 19.360497-19.360497V51.099019A19.360498 19.360498 0 0 0 1404.429549 31.738521z" fill="#18252F" p-id="9580"></path><path d="M988.12595 268.084706a61.36114 61.36114 0 1 1 61.36114-61.466935 61.466935 61.466935 0 0 1-61.36114 61.466935z m0-91.089555a29.622619 29.622619 0 1 0 29.622619 29.62262 29.622619 29.622619 0 0 0-29.622619-29.62262zM1132.007244 268.084706a61.36114 61.36114 0 1 1 61.361141-61.466935 61.466935 61.466935 0 0 1-61.361141 61.466935z m0-91.089555a29.622619 29.622619 0 1 0 29.62262 29.62262 29.622619 29.622619 0 0 0-29.62262-29.62262zM1275.888539 268.084706a61.36114 61.36114 0 1 1 61.36114-61.466935 61.57273 61.57273 0 0 1-61.36114 61.466935z m0-91.089555a29.622619 29.622619 0 1 0 29.62262 29.62262 29.728415 29.728415 0 0 0-29.62262-29.62262z" fill="#18252F" p-id="9581"></path></svg>